<?xml version="1.0" encoding="utf-8" standalone="no"?>
<!DOCTYPE svg PUBLIC "-//W3C//DTD SVG 1.1//EN"
  "http://www.w3.org/Graphics/SVG/1.1/DTD/svg11.dtd">
<!-- Created with matplotlib (https://matplotlib.org/) -->
<svg height="482.4pt" version="1.1" viewBox="0 0 933.12 482.4" width="933.12pt" xmlns="http://www.w3.org/2000/svg" xmlns:xlink="http://www.w3.org/1999/xlink">
 <defs>
  <style type="text/css">
*{stroke-linecap:butt;stroke-linejoin:round;}
  </style>
 </defs>
 <g id="figure_1">
  <g id="patch_1">
   <path d="M 0 482.4 
L 933.12 482.4 
L 933.12 0 
L 0 0 
z
" style="fill:#ffffff;"/>
  </g>
  <g id="axes_1">
   <g id="patch_2">
    <path d="M 116.64 429.336 
L 839.808 429.336 
L 839.808 57.888 
L 116.64 57.888 
z
" style="fill:#ffffff;"/>
   </g>
   <g id="PolyCollection_1">
    <path clip-path="url(#p4213a49360)" d="M 444.292364 409.668496 
L 444.292364 412.222169 
L 477.163636 411.990017 
L 510.034909 411.525713 
L 542.906182 410.597104 
L 575.777455 408.739887 
L 575.777455 367.881109 
L 575.777455 367.881109 
L 542.906182 390.167715 
L 510.034909 401.311018 
L 477.163636 406.88267 
L 444.292364 409.668496 
z
" style="fill:#1f77b4;fill-opacity:0.2;"/>
   </g>
   <g id="matplotlib.axis_1">
    <g id="xtick_1">
     <g id="line2d_1">
      <defs>
       <path d="M 0 0 
L 0 3.5 
" id="m764afe5232" style="stroke:#000000;stroke-width:0.8;"/>
      </defs>
      <g>
       <use style="stroke:#000000;stroke-width:0.8;" x="160.114909" xlink:href="#m764afe5232" y="429.336"/>
      </g>
     </g>
     <g id="text_1">
      <!-- 2020-01-29 -->
      <defs>
       <path d="M 19.1875 8.296875 
L 53.609375 8.296875 
L 53.609375 0 
L 7.328125 0 
L 7.328125 8.296875 
Q 12.9375 14.109375 22.625 23.890625 
Q 32.328125 33.6875 34.8125 36.53125 
Q 39.546875 41.84375 41.421875 45.53125 
Q 43.3125 49.21875 43.3125 52.78125 
Q 43.3125 58.59375 39.234375 62.25 
Q 35.15625 65.921875 28.609375 65.921875 
Q 23.96875 65.921875 18.8125 64.3125 
Q 13.671875 62.703125 7.8125 59.421875 
L 7.8125 69.390625 
Q 13.765625 71.78125 18.9375 73 
Q 24.125 74.21875 28.421875 74.21875 
Q 39.75 74.21875 46.484375 68.546875 
Q 53.21875 62.890625 53.21875 53.421875 
Q 53.21875 48.921875 51.53125 44.890625 
Q 49.859375 40.875 45.40625 35.40625 
Q 44.1875 33.984375 37.640625 27.21875 
Q 31.109375 20.453125 19.1875 8.296875 
z
" id="DejaVuSans-50"/>
       <path d="M 31.78125 66.40625 
Q 24.171875 66.40625 20.328125 58.90625 
Q 16.5 51.421875 16.5 36.375 
Q 16.5 21.390625 20.328125 13.890625 
Q 24.171875 6.390625 31.78125 6.390625 
Q 39.453125 6.390625 43.28125 13.890625 
Q 47.125 21.390625 47.125 36.375 
Q 47.125 51.421875 43.28125 58.90625 
Q 39.453125 66.40625 31.78125 66.40625 
z
M 31.78125 74.21875 
Q 44.046875 74.21875 50.515625 64.515625 
Q 56.984375 54.828125 56.984375 36.375 
Q 56.984375 17.96875 50.515625 8.265625 
Q 44.046875 -1.421875 31.78125 -1.421875 
Q 19.53125 -1.421875 13.0625 8.265625 
Q 6.59375 17.96875 6.59375 36.375 
Q 6.59375 54.828125 13.0625 64.515625 
Q 19.53125 74.21875 31.78125 74.21875 
z
" id="DejaVuSans-48"/>
       <path d="M 4.890625 31.390625 
L 31.203125 31.390625 
L 31.203125 23.390625 
L 4.890625 23.390625 
z
" id="DejaVuSans-45"/>
       <path d="M 12.40625 8.296875 
L 28.515625 8.296875 
L 28.515625 63.921875 
L 10.984375 60.40625 
L 10.984375 69.390625 
L 28.421875 72.90625 
L 38.28125 72.90625 
L 38.28125 8.296875 
L 54.390625 8.296875 
L 54.390625 0 
L 12.40625 0 
z
" id="DejaVuSans-49"/>
       <path d="M 10.984375 1.515625 
L 10.984375 10.5 
Q 14.703125 8.734375 18.5 7.8125 
Q 22.3125 6.890625 25.984375 6.890625 
Q 35.75 6.890625 40.890625 13.453125 
Q 46.046875 20.015625 46.78125 33.40625 
Q 43.953125 29.203125 39.59375 26.953125 
Q 35.25 24.703125 29.984375 24.703125 
Q 19.046875 24.703125 12.671875 31.3125 
Q 6.296875 37.9375 6.296875 49.421875 
Q 6.296875 60.640625 12.9375 67.421875 
Q 19.578125 74.21875 30.609375 74.21875 
Q 43.265625 74.21875 49.921875 64.515625 
Q 56.59375 54.828125 56.59375 36.375 
Q 56.59375 19.140625 48.40625 8.859375 
Q 40.234375 -1.421875 26.421875 -1.421875 
Q 22.703125 -1.421875 18.890625 -0.6875 
Q 15.09375 0.046875 10.984375 1.515625 
z
M 30.609375 32.421875 
Q 37.25 32.421875 41.125 36.953125 
Q 45.015625 41.5 45.015625 49.421875 
Q 45.015625 57.28125 41.125 61.84375 
Q 37.25 66.40625 30.609375 66.40625 
Q 23.96875 66.40625 20.09375 61.84375 
Q 16.21875 57.28125 16.21875 49.421875 
Q 16.21875 41.5 20.09375 36.953125 
Q 23.96875 32.421875 30.609375 32.421875 
z
" id="DejaVuSans-57"/>
      </defs>
      <g transform="translate(134.94575 467.783247)rotate(-25)scale(0.1 -0.1)">
       <use xlink:href="#DejaVuSans-50"/>
       <use x="63.623047" xlink:href="#DejaVuSans-48"/>
       <use x="127.246094" xlink:href="#DejaVuSans-50"/>
       <use x="190.869141" xlink:href="#DejaVuSans-48"/>
       <use x="254.492188" xlink:href="#DejaVuSans-45"/>
       <use x="290.576172" xlink:href="#DejaVuSans-48"/>
       <use x="354.199219" xlink:href="#DejaVuSans-49"/>
       <use x="417.822266" xlink:href="#DejaVuSans-45"/>
       <use x="453.90625" xlink:href="#DejaVuSans-50"/>
       <use x="517.529297" xlink:href="#DejaVuSans-57"/>
      </g>
     </g>
    </g>
    <g id="xtick_2">
     <g id="line2d_2">
      <g>
       <use style="stroke:#000000;stroke-width:0.8;" x="176.020364" xlink:href="#m764afe5232" y="429.336"/>
      </g>
     </g>
     <g id="text_2">
      <!-- 2020-02-01 -->
      <g transform="translate(150.851204 467.783247)rotate(-25)scale(0.1 -0.1)">
       <use xlink:href="#DejaVuSans-50"/>
       <use x="63.623047" xlink:href="#DejaVuSans-48"/>
       <use x="127.246094" xlink:href="#DejaVuSans-50"/>
       <use x="190.869141" xlink:href="#DejaVuSans-48"/>
       <use x="254.492188" xlink:href="#DejaVuSans-45"/>
       <use x="290.576172" xlink:href="#DejaVuSans-48"/>
       <use x="354.199219" xlink:href="#DejaVuSans-50"/>
       <use x="417.822266" xlink:href="#DejaVuSans-45"/>
       <use x="453.90625" xlink:href="#DejaVuSans-48"/>
       <use x="517.529297" xlink:href="#DejaVuSans-49"/>
      </g>
     </g>
    </g>
    <g id="xtick_3">
     <g id="line2d_3">
      <g>
       <use style="stroke:#000000;stroke-width:0.8;" x="250.245818" xlink:href="#m764afe5232" y="429.336"/>
      </g>
     </g>
     <g id="text_3">
      <!-- 2020-02-15 -->
      <defs>
       <path d="M 10.796875 72.90625 
L 49.515625 72.90625 
L 49.515625 64.59375 
L 19.828125 64.59375 
L 19.828125 46.734375 
Q 21.96875 47.46875 24.109375 47.828125 
Q 26.265625 48.1875 28.421875 48.1875 
Q 40.625 48.1875 47.75 41.5 
Q 54.890625 34.8125 54.890625 23.390625 
Q 54.890625 11.625 47.5625 5.09375 
Q 40.234375 -1.421875 26.90625 -1.421875 
Q 22.3125 -1.421875 17.546875 -0.640625 
Q 12.796875 0.140625 7.71875 1.703125 
L 7.71875 11.625 
Q 12.109375 9.234375 16.796875 8.0625 
Q 21.484375 6.890625 26.703125 6.890625 
Q 35.15625 6.890625 40.078125 11.328125 
Q 45.015625 15.765625 45.015625 23.390625 
Q 45.015625 31 40.078125 35.4375 
Q 35.15625 39.890625 26.703125 39.890625 
Q 22.75 39.890625 18.8125 39.015625 
Q 14.890625 38.140625 10.796875 36.28125 
z
" id="DejaVuSans-53"/>
      </defs>
      <g transform="translate(225.076659 467.783247)rotate(-25)scale(0.1 -0.1)">
       <use xlink:href="#DejaVuSans-50"/>
       <use x="63.623047" xlink:href="#DejaVuSans-48"/>
       <use x="127.246094" xlink:href="#DejaVuSans-50"/>
       <use x="190.869141" xlink:href="#DejaVuSans-48"/>
       <use x="254.492188" xlink:href="#DejaVuSans-45"/>
       <use x="290.576172" xlink:href="#DejaVuSans-48"/>
       <use x="354.199219" xlink:href="#DejaVuSans-50"/>
       <use x="417.822266" xlink:href="#DejaVuSans-45"/>
       <use x="453.90625" xlink:href="#DejaVuSans-49"/>
       <use x="517.529297" xlink:href="#DejaVuSans-53"/>
      </g>
     </g>
    </g>
    <g id="xtick_4">
     <g id="line2d_4">
      <g>
       <use style="stroke:#000000;stroke-width:0.8;" x="324.471273" xlink:href="#m764afe5232" y="429.336"/>
      </g>
     </g>
     <g id="text_4">
      <!-- 2020-02-29 -->
      <g transform="translate(299.302113 467.783247)rotate(-25)scale(0.1 -0.1)">
       <use xlink:href="#DejaVuSans-50"/>
       <use x="63.623047" xlink:href="#DejaVuSans-48"/>
       <use x="127.246094" xlink:href="#DejaVuSans-50"/>
       <use x="190.869141" xlink:href="#DejaVuSans-48"/>
       <use x="254.492188" xlink:href="#DejaVuSans-45"/>
       <use x="290.576172" xlink:href="#DejaVuSans-48"/>
       <use x="354.199219" xlink:href="#DejaVuSans-50"/>
       <use x="417.822266" xlink:href="#DejaVuSans-45"/>
       <use x="453.90625" xlink:href="#DejaVuSans-50"/>
       <use x="517.529297" xlink:href="#DejaVuSans-57"/>
      </g>
     </g>
    </g>
    <g id="xtick_5">
     <g id="line2d_5">
      <g>
       <use style="stroke:#000000;stroke-width:0.8;" x="329.773091" xlink:href="#m764afe5232" y="429.336"/>
      </g>
     </g>
     <g id="text_5">
      <!-- 2020-03-01 -->
      <defs>
       <path d="M 40.578125 39.3125 
Q 47.65625 37.796875 51.625 33 
Q 55.609375 28.21875 55.609375 21.1875 
Q 55.609375 10.40625 48.1875 4.484375 
Q 40.765625 -1.421875 27.09375 -1.421875 
Q 22.515625 -1.421875 17.65625 -0.515625 
Q 12.796875 0.390625 7.625 2.203125 
L 7.625 11.71875 
Q 11.71875 9.328125 16.59375 8.109375 
Q 21.484375 6.890625 26.8125 6.890625 
Q 36.078125 6.890625 40.9375 10.546875 
Q 45.796875 14.203125 45.796875 21.1875 
Q 45.796875 27.640625 41.28125 31.265625 
Q 36.765625 34.90625 28.71875 34.90625 
L 20.21875 34.90625 
L 20.21875 43.015625 
L 29.109375 43.015625 
Q 36.375 43.015625 40.234375 45.921875 
Q 44.09375 48.828125 44.09375 54.296875 
Q 44.09375 59.90625 40.109375 62.90625 
Q 36.140625 65.921875 28.71875 65.921875 
Q 24.65625 65.921875 20.015625 65.03125 
Q 15.375 64.15625 9.8125 62.3125 
L 9.8125 71.09375 
Q 15.4375 72.65625 20.34375 73.4375 
Q 25.25 74.21875 29.59375 74.21875 
Q 40.828125 74.21875 47.359375 69.109375 
Q 53.90625 64.015625 53.90625 55.328125 
Q 53.90625 49.265625 50.4375 45.09375 
Q 46.96875 40.921875 40.578125 39.3125 
z
" id="DejaVuSans-51"/>
      </defs>
      <g transform="translate(304.603931 467.783247)rotate(-25)scale(0.1 -0.1)">
       <use xlink:href="#DejaVuSans-50"/>
       <use x="63.623047" xlink:href="#DejaVuSans-48"/>
       <use x="127.246094" xlink:href="#DejaVuSans-50"/>
       <use x="190.869141" xlink:href="#DejaVuSans-48"/>
       <use x="254.492188" xlink:href="#DejaVuSans-45"/>
       <use x="290.576172" xlink:href="#DejaVuSans-48"/>
       <use x="354.199219" xlink:href="#DejaVuSans-51"/>
       <use x="417.822266" xlink:href="#DejaVuSans-45"/>
       <use x="453.90625" xlink:href="#DejaVuSans-48"/>
       <use x="517.529297" xlink:href="#DejaVuSans-49"/>
      </g>
     </g>
    </g>
    <g id="xtick_6">
     <g id="line2d_6">
      <g>
       <use style="stroke:#000000;stroke-width:0.8;" x="403.998545" xlink:href="#m764afe5232" y="429.336"/>
      </g>
     </g>
     <g id="text_6">
      <!-- 2020-03-15 -->
      <g transform="translate(378.829386 467.783247)rotate(-25)scale(0.1 -0.1)">
       <use xlink:href="#DejaVuSans-50"/>
       <use x="63.623047" xlink:href="#DejaVuSans-48"/>
       <use x="127.246094" xlink:href="#DejaVuSans-50"/>
       <use x="190.869141" xlink:href="#DejaVuSans-48"/>
       <use x="254.492188" xlink:href="#DejaVuSans-45"/>
       <use x="290.576172" xlink:href="#DejaVuSans-48"/>
       <use x="354.199219" xlink:href="#DejaVuSans-51"/>
       <use x="417.822266" xlink:href="#DejaVuSans-45"/>
       <use x="453.90625" xlink:href="#DejaVuSans-49"/>
       <use x="517.529297" xlink:href="#DejaVuSans-53"/>
      </g>
     </g>
    </g>
    <g id="xtick_7">
     <g id="line2d_7">
      <g>
       <use style="stroke:#000000;stroke-width:0.8;" x="478.224" xlink:href="#m764afe5232" y="429.336"/>
      </g>
     </g>
     <g id="text_7">
      <!-- 2020-03-29 -->
      <g transform="translate(453.054841 467.783247)rotate(-25)scale(0.1 -0.1)">
       <use xlink:href="#DejaVuSans-50"/>
       <use x="63.623047" xlink:href="#DejaVuSans-48"/>
       <use x="127.246094" xlink:href="#DejaVuSans-50"/>
       <use x="190.869141" xlink:href="#DejaVuSans-48"/>
       <use x="254.492188" xlink:href="#DejaVuSans-45"/>
       <use x="290.576172" xlink:href="#DejaVuSans-48"/>
       <use x="354.199219" xlink:href="#DejaVuSans-51"/>
       <use x="417.822266" xlink:href="#DejaVuSans-45"/>
       <use x="453.90625" xlink:href="#DejaVuSans-50"/>
       <use x="517.529297" xlink:href="#DejaVuSans-57"/>
      </g>
     </g>
    </g>
    <g id="xtick_8">
     <g id="line2d_8">
      <g>
       <use style="stroke:#000000;stroke-width:0.8;" x="494.129455" xlink:href="#m764afe5232" y="429.336"/>
      </g>
     </g>
     <g id="text_8">
      <!-- 2020-04-01 -->
      <defs>
       <path d="M 37.796875 64.3125 
L 12.890625 25.390625 
L 37.796875 25.390625 
z
M 35.203125 72.90625 
L 47.609375 72.90625 
L 47.609375 25.390625 
L 58.015625 25.390625 
L 58.015625 17.1875 
L 47.609375 17.1875 
L 47.609375 0 
L 37.796875 0 
L 37.796875 17.1875 
L 4.890625 17.1875 
L 4.890625 26.703125 
z
" id="DejaVuSans-52"/>
      </defs>
      <g transform="translate(468.960295 467.783247)rotate(-25)scale(0.1 -0.1)">
       <use xlink:href="#DejaVuSans-50"/>
       <use x="63.623047" xlink:href="#DejaVuSans-48"/>
       <use x="127.246094" xlink:href="#DejaVuSans-50"/>
       <use x="190.869141" xlink:href="#DejaVuSans-48"/>
       <use x="254.492188" xlink:href="#DejaVuSans-45"/>
       <use x="290.576172" xlink:href="#DejaVuSans-48"/>
       <use x="354.199219" xlink:href="#DejaVuSans-52"/>
       <use x="417.822266" xlink:href="#DejaVuSans-45"/>
       <use x="453.90625" xlink:href="#DejaVuSans-48"/>
       <use x="517.529297" xlink:href="#DejaVuSans-49"/>
      </g>
     </g>
    </g>
    <g id="xtick_9">
     <g id="line2d_9">
      <g>
       <use style="stroke:#000000;stroke-width:0.8;" x="568.354909" xlink:href="#m764afe5232" y="429.336"/>
      </g>
     </g>
     <g id="text_9">
      <!-- 2020-04-15 -->
      <g transform="translate(543.18575 467.783247)rotate(-25)scale(0.1 -0.1)">
       <use xlink:href="#DejaVuSans-50"/>
       <use x="63.623047" xlink:href="#DejaVuSans-48"/>
       <use x="127.246094" xlink:href="#DejaVuSans-50"/>
       <use x="190.869141" xlink:href="#DejaVuSans-48"/>
       <use x="254.492188" xlink:href="#DejaVuSans-45"/>
       <use x="290.576172" xlink:href="#DejaVuSans-48"/>
       <use x="354.199219" xlink:href="#DejaVuSans-52"/>
       <use x="417.822266" xlink:href="#DejaVuSans-45"/>
       <use x="453.90625" xlink:href="#DejaVuSans-49"/>
       <use x="517.529297" xlink:href="#DejaVuSans-53"/>
      </g>
     </g>
    </g>
    <g id="xtick_10">
     <g id="line2d_10">
      <g>
       <use style="stroke:#000000;stroke-width:0.8;" x="642.580364" xlink:href="#m764afe5232" y="429.336"/>
      </g>
     </g>
     <g id="text_10">
      <!-- 2020-04-29 -->
      <g transform="translate(617.411204 467.783247)rotate(-25)scale(0.1 -0.1)">
       <use xlink:href="#DejaVuSans-50"/>
       <use x="63.623047" xlink:href="#DejaVuSans-48"/>
       <use x="127.246094" xlink:href="#DejaVuSans-50"/>
       <use x="190.869141" xlink:href="#DejaVuSans-48"/>
       <use x="254.492188" xlink:href="#DejaVuSans-45"/>
       <use x="290.576172" xlink:href="#DejaVuSans-48"/>
       <use x="354.199219" xlink:href="#DejaVuSans-52"/>
       <use x="417.822266" xlink:href="#DejaVuSans-45"/>
       <use x="453.90625" xlink:href="#DejaVuSans-50"/>
       <use x="517.529297" xlink:href="#DejaVuSans-57"/>
      </g>
     </g>
    </g>
    <g id="xtick_11">
     <g id="line2d_11">
      <g>
       <use style="stroke:#000000;stroke-width:0.8;" x="653.184" xlink:href="#m764afe5232" y="429.336"/>
      </g>
     </g>
     <g id="text_11">
      <!-- 2020-05-01 -->
      <g transform="translate(628.014841 467.783247)rotate(-25)scale(0.1 -0.1)">
       <use xlink:href="#DejaVuSans-50"/>
       <use x="63.623047" xlink:href="#DejaVuSans-48"/>
       <use x="127.246094" xlink:href="#DejaVuSans-50"/>
       <use x="190.869141" xlink:href="#DejaVuSans-48"/>
       <use x="254.492188" xlink:href="#DejaVuSans-45"/>
       <use x="290.576172" xlink:href="#DejaVuSans-48"/>
       <use x="354.199219" xlink:href="#DejaVuSans-53"/>
       <use x="417.822266" xlink:href="#DejaVuSans-45"/>
       <use x="453.90625" xlink:href="#DejaVuSans-48"/>
       <use x="517.529297" xlink:href="#DejaVuSans-49"/>
      </g>
     </g>
    </g>
    <g id="xtick_12">
     <g id="line2d_12">
      <g>
       <use style="stroke:#000000;stroke-width:0.8;" x="727.409455" xlink:href="#m764afe5232" y="429.336"/>
      </g>
     </g>
     <g id="text_12">
      <!-- 2020-05-15 -->
      <g transform="translate(702.240295 467.783247)rotate(-25)scale(0.1 -0.1)">
       <use xlink:href="#DejaVuSans-50"/>
       <use x="63.623047" xlink:href="#DejaVuSans-48"/>
       <use x="127.246094" xlink:href="#DejaVuSans-50"/>
       <use x="190.869141" xlink:href="#DejaVuSans-48"/>
       <use x="254.492188" xlink:href="#DejaVuSans-45"/>
       <use x="290.576172" xlink:href="#DejaVuSans-48"/>
       <use x="354.199219" xlink:href="#DejaVuSans-53"/>
       <use x="417.822266" xlink:href="#DejaVuSans-45"/>
       <use x="453.90625" xlink:href="#DejaVuSans-49"/>
       <use x="517.529297" xlink:href="#DejaVuSans-53"/>
      </g>
     </g>
    </g>
    <g id="xtick_13">
     <g id="line2d_13">
      <g>
       <use style="stroke:#000000;stroke-width:0.8;" x="801.634909" xlink:href="#m764afe5232" y="429.336"/>
      </g>
     </g>
     <g id="text_13">
      <!-- 2020-05-29 -->
      <g transform="translate(776.46575 467.783247)rotate(-25)scale(0.1 -0.1)">
       <use xlink:href="#DejaVuSans-50"/>
       <use x="63.623047" xlink:href="#DejaVuSans-48"/>
       <use x="127.246094" xlink:href="#DejaVuSans-50"/>
       <use x="190.869141" xlink:href="#DejaVuSans-48"/>
       <use x="254.492188" xlink:href="#DejaVuSans-45"/>
       <use x="290.576172" xlink:href="#DejaVuSans-48"/>
       <use x="354.199219" xlink:href="#DejaVuSans-53"/>
       <use x="417.822266" xlink:href="#DejaVuSans-45"/>
       <use x="453.90625" xlink:href="#DejaVuSans-50"/>
       <use x="517.529297" xlink:href="#DejaVuSans-57"/>
      </g>
     </g>
    </g>
    <g id="xtick_14">
     <g id="line2d_14">
      <g>
       <use style="stroke:#000000;stroke-width:0.8;" x="817.540364" xlink:href="#m764afe5232" y="429.336"/>
      </g>
     </g>
     <g id="text_14">
      <!-- 2020-06-01 -->
      <defs>
       <path d="M 33.015625 40.375 
Q 26.375 40.375 22.484375 35.828125 
Q 18.609375 31.296875 18.609375 23.390625 
Q 18.609375 15.53125 22.484375 10.953125 
Q 26.375 6.390625 33.015625 6.390625 
Q 39.65625 6.390625 43.53125 10.953125 
Q 47.40625 15.53125 47.40625 23.390625 
Q 47.40625 31.296875 43.53125 35.828125 
Q 39.65625 40.375 33.015625 40.375 
z
M 52.59375 71.296875 
L 52.59375 62.3125 
Q 48.875 64.0625 45.09375 64.984375 
Q 41.3125 65.921875 37.59375 65.921875 
Q 27.828125 65.921875 22.671875 59.328125 
Q 17.53125 52.734375 16.796875 39.40625 
Q 19.671875 43.65625 24.015625 45.921875 
Q 28.375 48.1875 33.59375 48.1875 
Q 44.578125 48.1875 50.953125 41.515625 
Q 57.328125 34.859375 57.328125 23.390625 
Q 57.328125 12.15625 50.6875 5.359375 
Q 44.046875 -1.421875 33.015625 -1.421875 
Q 20.359375 -1.421875 13.671875 8.265625 
Q 6.984375 17.96875 6.984375 36.375 
Q 6.984375 53.65625 15.1875 63.9375 
Q 23.390625 74.21875 37.203125 74.21875 
Q 40.921875 74.21875 44.703125 73.484375 
Q 48.484375 72.75 52.59375 71.296875 
z
" id="DejaVuSans-54"/>
      </defs>
      <g transform="translate(792.371204 467.783247)rotate(-25)scale(0.1 -0.1)">
       <use xlink:href="#DejaVuSans-50"/>
       <use x="63.623047" xlink:href="#DejaVuSans-48"/>
       <use x="127.246094" xlink:href="#DejaVuSans-50"/>
       <use x="190.869141" xlink:href="#DejaVuSans-48"/>
       <use x="254.492188" xlink:href="#DejaVuSans-45"/>
       <use x="290.576172" xlink:href="#DejaVuSans-48"/>
       <use x="354.199219" xlink:href="#DejaVuSans-54"/>
       <use x="417.822266" xlink:href="#DejaVuSans-45"/>
       <use x="453.90625" xlink:href="#DejaVuSans-48"/>
       <use x="517.529297" xlink:href="#DejaVuSans-49"/>
      </g>
     </g>
    </g>
   </g>
   <g id="matplotlib.axis_2">
    <g id="ytick_1">
     <g id="line2d_15">
      <defs>
       <path d="M 0 0 
L -3.5 0 
" id="m65c9e982ba" style="stroke:#000000;stroke-width:0.8;"/>
      </defs>
      <g>
       <use style="stroke:#000000;stroke-width:0.8;" x="116.64" xlink:href="#m65c9e982ba" y="412.454322"/>
      </g>
     </g>
     <g id="text_15">
      <!-- 0 -->
      <g transform="translate(103.2775 416.25354)scale(0.1 -0.1)">
       <use xlink:href="#DejaVuSans-48"/>
      </g>
     </g>
    </g>
    <g id="ytick_2">
     <g id="line2d_16">
      <g>
       <use style="stroke:#000000;stroke-width:0.8;" x="116.64" xlink:href="#m65c9e982ba" y="335.070273"/>
      </g>
     </g>
     <g id="text_16">
      <!-- 100000 -->
      <g transform="translate(71.465 338.869491)scale(0.1 -0.1)">
       <use xlink:href="#DejaVuSans-49"/>
       <use x="63.623047" xlink:href="#DejaVuSans-48"/>
       <use x="127.246094" xlink:href="#DejaVuSans-48"/>
       <use x="190.869141" xlink:href="#DejaVuSans-48"/>
       <use x="254.492188" xlink:href="#DejaVuSans-48"/>
       <use x="318.115234" xlink:href="#DejaVuSans-48"/>
      </g>
     </g>
    </g>
    <g id="ytick_3">
     <g id="line2d_17">
      <g>
       <use style="stroke:#000000;stroke-width:0.8;" x="116.64" xlink:href="#m65c9e982ba" y="257.686224"/>
      </g>
     </g>
     <g id="text_17">
      <!-- 200000 -->
      <g transform="translate(71.465 261.485443)scale(0.1 -0.1)">
       <use xlink:href="#DejaVuSans-50"/>
       <use x="63.623047" xlink:href="#DejaVuSans-48"/>
       <use x="127.246094" xlink:href="#DejaVuSans-48"/>
       <use x="190.869141" xlink:href="#DejaVuSans-48"/>
       <use x="254.492188" xlink:href="#DejaVuSans-48"/>
       <use x="318.115234" xlink:href="#DejaVuSans-48"/>
      </g>
     </g>
    </g>
    <g id="ytick_4">
     <g id="line2d_18">
      <g>
       <use style="stroke:#000000;stroke-width:0.8;" x="116.64" xlink:href="#m65c9e982ba" y="180.302175"/>
      </g>
     </g>
     <g id="text_18">
      <!-- 300000 -->
      <g transform="translate(71.465 184.101394)scale(0.1 -0.1)">
       <use xlink:href="#DejaVuSans-51"/>
       <use x="63.623047" xlink:href="#DejaVuSans-48"/>
       <use x="127.246094" xlink:href="#DejaVuSans-48"/>
       <use x="190.869141" xlink:href="#DejaVuSans-48"/>
       <use x="254.492188" xlink:href="#DejaVuSans-48"/>
       <use x="318.115234" xlink:href="#DejaVuSans-48"/>
      </g>
     </g>
    </g>
    <g id="ytick_5">
     <g id="line2d_19">
      <g>
       <use style="stroke:#000000;stroke-width:0.8;" x="116.64" xlink:href="#m65c9e982ba" y="102.918126"/>
      </g>
     </g>
     <g id="text_19">
      <!-- 400000 -->
      <g transform="translate(71.465 106.717345)scale(0.1 -0.1)">
       <use xlink:href="#DejaVuSans-52"/>
       <use x="63.623047" xlink:href="#DejaVuSans-48"/>
       <use x="127.246094" xlink:href="#DejaVuSans-48"/>
       <use x="190.869141" xlink:href="#DejaVuSans-48"/>
       <use x="254.492188" xlink:href="#DejaVuSans-48"/>
       <use x="318.115234" xlink:href="#DejaVuSans-48"/>
      </g>
     </g>
    </g>
   </g>
   <g id="line2d_20">
    <path clip-path="url(#p4213a49360)" d="M 335.074909 412.452 
L 340.376727 412.450452 
L 350.980364 412.448131 
L 356.282182 412.445035 
L 361.584 412.439619 
L 366.885818 412.434202 
L 372.187636 412.429559 
L 377.489455 412.423368 
L 382.791273 412.40557 
L 388.093091 412.381581 
L 393.394909 412.364556 
L 398.696727 412.338245 
L 403.998545 412.28872 
L 409.300364 412.223717 
L 414.602182 412.18812 
L 419.904 412.118475 
L 425.205818 412.050377 
L 430.507636 411.917276 
L 435.809455 411.75477 
L 441.111273 411.68435 
L 446.413091 411.552797 
L 451.714909 411.497855 
L 457.016727 411.375588 
L 462.318545 411.174389 
L 467.620364 410.858662 
L 472.922182 410.690739 
L 478.224 410.393584 
L 483.525818 410.265127 
L 488.827636 410.131252 
L 494.129455 409.894457 
L 499.431273 409.677008 
L 504.733091 409.468845 
L 510.034909 409.21193 
L 515.336727 408.993707 
L 520.638545 408.904715 
L 525.940364 408.722863 
L 531.242182 408.571964 
L 536.544 408.343681 
L 541.845818 408.144804 
L 547.147636 408.018668 
L 552.449455 407.887115 
L 557.751273 407.818243 
L 563.053091 407.765622 
L 568.354909 407.702167 
L 573.656727 407.576805 
L 578.958545 407.476206 
L 584.260364 407.38644 
L 589.562182 407.305187 
L 594.864 407.202266 
L 600.165818 407.103988 
L 605.467636 407.005711 
L 610.769455 406.932196 
L 616.071273 406.891956 
L 621.373091 406.82618 
L 626.674909 406.765046 
L 631.976727 406.724807 
L 637.278545 406.689984 
L 642.580364 406.647422 
L 647.882182 406.589384 
L 653.184 406.509679 
L 658.485818 406.467118 
L 663.787636 406.453189 
L 669.089455 406.433069 
L 674.391273 406.403663 
L 679.693091 406.344077 
L 684.994909 406.283717 
L 690.296727 406.239609 
L 695.598545 406.204012 
L 700.900364 406.190083 
L 706.202182 406.168415 
L 711.504 406.127402 
L 716.805818 406.092579 
L 722.107636 406.055435 
L 727.409455 405.99198 
L 732.711273 405.949418 
L 738.013091 405.9115 
L 743.314909 405.896023 
L 748.616727 405.810127 
L 753.918545 405.762923 
L 759.220364 405.705659 
L 764.522182 405.680122 
L 769.824 405.634465 
L 775.125818 405.57488 
L 780.427636 405.523032 
L 785.729455 405.486662 
L 791.031273 405.451065 
L 796.333091 405.423207 
L 801.634909 405.381419 
L 806.936727 405.338084 
" style="fill:none;stroke:#1f77b4;stroke-linecap:square;stroke-width:1.5;"/>
   </g>
   <g id="line2d_21">
    <path clip-path="url(#p4213a49360)" d="M 149.511273 412.438845 
L 154.813091 412.432654 
L 160.114909 412.428785 
L 165.416727 412.428011 
L 170.718545 412.425689 
L 176.020364 412.424916 
L 181.322182 412.421046 
L 186.624 412.417177 
L 191.925818 412.413308 
L 197.227636 412.413308 
L 202.529455 412.410986 
L 207.831273 412.406343 
L 213.133091 412.406343 
L 218.434909 412.404796 
L 223.736727 412.398605 
L 229.038545 412.397057 
L 234.340364 412.396283 
L 239.642182 412.39551 
L 244.944 412.39551 
L 250.245818 412.394736 
L 255.547636 412.393962 
L 260.849455 412.392414 
L 266.151273 412.392414 
L 271.453091 412.390867 
L 276.754909 412.390867 
L 282.056727 412.390867 
L 287.358545 412.390093 
L 292.660364 412.387771 
L 297.962182 412.378485 
L 303.264 412.367651 
L 308.565818 412.349853 
L 313.867636 412.322769 
L 319.169455 412.30497 
L 324.471273 412.299553 
L 329.773091 412.291041 
L 335.074909 412.251575 
L 340.376727 412.191216 
L 345.678545 412.139368 
L 350.980364 412.080557 
L 356.282182 411.99466 
L 361.584 411.845309 
L 366.885818 411.736198 
L 372.187636 411.53113 
L 377.489455 411.403446 
L 382.791273 411.049027 
L 388.093091 410.633475 
L 393.394909 409.97958 
L 398.696727 409.216573 
L 403.998545 408.421065 
L 409.300364 407.400369 
L 414.602182 406.39902 
L 419.904 405.040156 
L 425.205818 403.29205 
L 430.507636 401.650734 
L 435.809455 400.194367 
L 441.111273 398.80068 
L 446.413091 397.027811 
L 451.714909 394.658312 
L 457.016727 391.480149 
L 462.318545 387.894946 
L 467.620364 383.747935 
L 472.922182 380.479233 
L 478.224 378.275335 
L 483.525818 374.283092 
L 488.827636 369.12854 
L 494.129455 364.406566 
L 499.431273 359.242728 
L 504.733091 353.517856 
L 510.034909 349.000949 
L 515.336727 345.277229 
L 520.638545 340.297565 
L 525.940364 333.972967 
L 531.242182 327.419312 
L 536.544 321.089297 
L 541.845818 316.676858 
L 547.147636 312.892004 
L 552.449455 310.377023 
L 557.751273 307.889126 
L 563.053091 303.112208 
L 568.354909 296.553136 
L 573.656727 290.067579 
L 578.958545 283.653989 
L 584.260364 279.316613 
L 589.562182 276.200358 
L 594.864 271.118547 
L 600.165818 264.663944 
L 605.467636 257.840218 
L 610.769455 251.726104 
L 616.071273 246.209396 
L 621.373091 242.768901 
L 626.674909 240.152546 
L 631.976727 234.152187 
L 637.278545 227.388047 
L 642.580364 221.721987 
L 647.882182 215.998663 
L 653.184 212.583705 
L 658.485818 209.581204 
L 663.787636 206.577929 
L 669.089455 200.675847 
L 674.391273 193.365376 
L 679.693091 187.110424 
L 684.994909 181.243165 
L 690.296727 177.716774 
L 695.598545 174.790109 
L 700.900364 171.655281 
L 706.202182 165.615456 
L 711.504 158.842804 
L 716.805818 152.896614 
L 722.107636 147.565627 
L 727.409455 142.320536 
L 732.711273 139.078145 
L 738.013091 136.379763 
L 743.314909 130.610782 
L 748.616727 124.172429 
L 753.918545 118.356244 
L 759.220364 112.717268 
L 764.522182 106.736255 
L 769.824 102.831456 
L 775.125818 100.037892 
L 780.427636 94.295996 
L 785.729455 88.701129 
L 791.031273 83.562054 
L 796.333091 79.016515 
L 801.634909 74.772 
" style="fill:none;stroke:#ff7f0e;stroke-linecap:square;stroke-width:1.5;"/>
   </g>
   <g id="patch_3">
    <path d="M 116.64 429.336 
L 116.64 57.888 
" style="fill:none;stroke:#000000;stroke-linecap:square;stroke-linejoin:miter;stroke-width:0.8;"/>
   </g>
   <g id="patch_4">
    <path d="M 839.808 429.336 
L 839.808 57.888 
" style="fill:none;stroke:#000000;stroke-linecap:square;stroke-linejoin:miter;stroke-width:0.8;"/>
   </g>
   <g id="patch_5">
    <path d="M 116.64 429.336 
L 839.808 429.336 
" style="fill:none;stroke:#000000;stroke-linecap:square;stroke-linejoin:miter;stroke-width:0.8;"/>
   </g>
   <g id="patch_6">
    <path d="M 116.64 57.888 
L 839.808 57.888 
" style="fill:none;stroke:#000000;stroke-linecap:square;stroke-linejoin:miter;stroke-width:0.8;"/>
   </g>
   <g id="legend_1">
    <g id="patch_7">
     <path d="M 123.64 109.922375 
L 274.10875 109.922375 
Q 276.10875 109.922375 276.10875 107.922375 
L 276.10875 64.888 
Q 276.10875 62.888 274.10875 62.888 
L 123.64 62.888 
Q 121.64 62.888 121.64 64.888 
L 121.64 107.922375 
Q 121.64 109.922375 123.64 109.922375 
z
" style="fill:#ffffff;opacity:0.8;stroke:#cccccc;stroke-linejoin:miter;"/>
    </g>
    <g id="line2d_22">
     <path d="M 125.64 70.986437 
L 145.64 70.986437 
" style="fill:none;stroke:#1f77b4;stroke-linecap:square;stroke-width:1.5;"/>
    </g>
    <g id="line2d_23"/>
    <g id="text_20">
     <!-- Confirmed Cases -->
     <defs>
      <path d="M 64.40625 67.28125 
L 64.40625 56.890625 
Q 59.421875 61.53125 53.78125 63.8125 
Q 48.140625 66.109375 41.796875 66.109375 
Q 29.296875 66.109375 22.65625 58.46875 
Q 16.015625 50.828125 16.015625 36.375 
Q 16.015625 21.96875 22.65625 14.328125 
Q 29.296875 6.6875 41.796875 6.6875 
Q 48.140625 6.6875 53.78125 8.984375 
Q 59.421875 11.28125 64.40625 15.921875 
L 64.40625 5.609375 
Q 59.234375 2.09375 53.4375 0.328125 
Q 47.65625 -1.421875 41.21875 -1.421875 
Q 24.65625 -1.421875 15.125 8.703125 
Q 5.609375 18.84375 5.609375 36.375 
Q 5.609375 53.953125 15.125 64.078125 
Q 24.65625 74.21875 41.21875 74.21875 
Q 47.75 74.21875 53.53125 72.484375 
Q 59.328125 70.75 64.40625 67.28125 
z
" id="DejaVuSans-67"/>
      <path d="M 30.609375 48.390625 
Q 23.390625 48.390625 19.1875 42.75 
Q 14.984375 37.109375 14.984375 27.296875 
Q 14.984375 17.484375 19.15625 11.84375 
Q 23.34375 6.203125 30.609375 6.203125 
Q 37.796875 6.203125 41.984375 11.859375 
Q 46.1875 17.53125 46.1875 27.296875 
Q 46.1875 37.015625 41.984375 42.703125 
Q 37.796875 48.390625 30.609375 48.390625 
z
M 30.609375 56 
Q 42.328125 56 49.015625 48.375 
Q 55.71875 40.765625 55.71875 27.296875 
Q 55.71875 13.875 49.015625 6.21875 
Q 42.328125 -1.421875 30.609375 -1.421875 
Q 18.84375 -1.421875 12.171875 6.21875 
Q 5.515625 13.875 5.515625 27.296875 
Q 5.515625 40.765625 12.171875 48.375 
Q 18.84375 56 30.609375 56 
z
" id="DejaVuSans-111"/>
      <path d="M 54.890625 33.015625 
L 54.890625 0 
L 45.90625 0 
L 45.90625 32.71875 
Q 45.90625 40.484375 42.875 44.328125 
Q 39.84375 48.1875 33.796875 48.1875 
Q 26.515625 48.1875 22.3125 43.546875 
Q 18.109375 38.921875 18.109375 30.90625 
L 18.109375 0 
L 9.078125 0 
L 9.078125 54.6875 
L 18.109375 54.6875 
L 18.109375 46.1875 
Q 21.34375 51.125 25.703125 53.5625 
Q 30.078125 56 35.796875 56 
Q 45.21875 56 50.046875 50.171875 
Q 54.890625 44.34375 54.890625 33.015625 
z
" id="DejaVuSans-110"/>
      <path d="M 37.109375 75.984375 
L 37.109375 68.5 
L 28.515625 68.5 
Q 23.6875 68.5 21.796875 66.546875 
Q 19.921875 64.59375 19.921875 59.515625 
L 19.921875 54.6875 
L 34.71875 54.6875 
L 34.71875 47.703125 
L 19.921875 47.703125 
L 19.921875 0 
L 10.890625 0 
L 10.890625 47.703125 
L 2.296875 47.703125 
L 2.296875 54.6875 
L 10.890625 54.6875 
L 10.890625 58.5 
Q 10.890625 67.625 15.140625 71.796875 
Q 19.390625 75.984375 28.609375 75.984375 
z
" id="DejaVuSans-102"/>
      <path d="M 9.421875 54.6875 
L 18.40625 54.6875 
L 18.40625 0 
L 9.421875 0 
z
M 9.421875 75.984375 
L 18.40625 75.984375 
L 18.40625 64.59375 
L 9.421875 64.59375 
z
" id="DejaVuSans-105"/>
      <path d="M 41.109375 46.296875 
Q 39.59375 47.171875 37.8125 47.578125 
Q 36.03125 48 33.890625 48 
Q 26.265625 48 22.1875 43.046875 
Q 18.109375 38.09375 18.109375 28.8125 
L 18.109375 0 
L 9.078125 0 
L 9.078125 54.6875 
L 18.109375 54.6875 
L 18.109375 46.1875 
Q 20.953125 51.171875 25.484375 53.578125 
Q 30.03125 56 36.53125 56 
Q 37.453125 56 38.578125 55.875 
Q 39.703125 55.765625 41.0625 55.515625 
z
" id="DejaVuSans-114"/>
      <path d="M 52 44.1875 
Q 55.375 50.25 60.0625 53.125 
Q 64.75 56 71.09375 56 
Q 79.640625 56 84.28125 50.015625 
Q 88.921875 44.046875 88.921875 33.015625 
L 88.921875 0 
L 79.890625 0 
L 79.890625 32.71875 
Q 79.890625 40.578125 77.09375 44.375 
Q 74.3125 48.1875 68.609375 48.1875 
Q 61.625 48.1875 57.5625 43.546875 
Q 53.515625 38.921875 53.515625 30.90625 
L 53.515625 0 
L 44.484375 0 
L 44.484375 32.71875 
Q 44.484375 40.625 41.703125 44.40625 
Q 38.921875 48.1875 33.109375 48.1875 
Q 26.21875 48.1875 22.15625 43.53125 
Q 18.109375 38.875 18.109375 30.90625 
L 18.109375 0 
L 9.078125 0 
L 9.078125 54.6875 
L 18.109375 54.6875 
L 18.109375 46.1875 
Q 21.1875 51.21875 25.484375 53.609375 
Q 29.78125 56 35.6875 56 
Q 41.65625 56 45.828125 52.96875 
Q 50 49.953125 52 44.1875 
z
" id="DejaVuSans-109"/>
      <path d="M 56.203125 29.59375 
L 56.203125 25.203125 
L 14.890625 25.203125 
Q 15.484375 15.921875 20.484375 11.0625 
Q 25.484375 6.203125 34.421875 6.203125 
Q 39.59375 6.203125 44.453125 7.46875 
Q 49.3125 8.734375 54.109375 11.28125 
L 54.109375 2.78125 
Q 49.265625 0.734375 44.1875 -0.34375 
Q 39.109375 -1.421875 33.890625 -1.421875 
Q 20.796875 -1.421875 13.15625 6.1875 
Q 5.515625 13.8125 5.515625 26.8125 
Q 5.515625 40.234375 12.765625 48.109375 
Q 20.015625 56 32.328125 56 
Q 43.359375 56 49.78125 48.890625 
Q 56.203125 41.796875 56.203125 29.59375 
z
M 47.21875 32.234375 
Q 47.125 39.59375 43.09375 43.984375 
Q 39.0625 48.390625 32.421875 48.390625 
Q 24.90625 48.390625 20.390625 44.140625 
Q 15.875 39.890625 15.1875 32.171875 
z
" id="DejaVuSans-101"/>
      <path d="M 45.40625 46.390625 
L 45.40625 75.984375 
L 54.390625 75.984375 
L 54.390625 0 
L 45.40625 0 
L 45.40625 8.203125 
Q 42.578125 3.328125 38.25 0.953125 
Q 33.9375 -1.421875 27.875 -1.421875 
Q 17.96875 -1.421875 11.734375 6.484375 
Q 5.515625 14.40625 5.515625 27.296875 
Q 5.515625 40.1875 11.734375 48.09375 
Q 17.96875 56 27.875 56 
Q 33.9375 56 38.25 53.625 
Q 42.578125 51.265625 45.40625 46.390625 
z
M 14.796875 27.296875 
Q 14.796875 17.390625 18.875 11.75 
Q 22.953125 6.109375 30.078125 6.109375 
Q 37.203125 6.109375 41.296875 11.75 
Q 45.40625 17.390625 45.40625 27.296875 
Q 45.40625 37.203125 41.296875 42.84375 
Q 37.203125 48.484375 30.078125 48.484375 
Q 22.953125 48.484375 18.875 42.84375 
Q 14.796875 37.203125 14.796875 27.296875 
z
" id="DejaVuSans-100"/>
      <path id="DejaVuSans-32"/>
      <path d="M 34.28125 27.484375 
Q 23.390625 27.484375 19.1875 25 
Q 14.984375 22.515625 14.984375 16.5 
Q 14.984375 11.71875 18.140625 8.90625 
Q 21.296875 6.109375 26.703125 6.109375 
Q 34.1875 6.109375 38.703125 11.40625 
Q 43.21875 16.703125 43.21875 25.484375 
L 43.21875 27.484375 
z
M 52.203125 31.203125 
L 52.203125 0 
L 43.21875 0 
L 43.21875 8.296875 
Q 40.140625 3.328125 35.546875 0.953125 
Q 30.953125 -1.421875 24.3125 -1.421875 
Q 15.921875 -1.421875 10.953125 3.296875 
Q 6 8.015625 6 15.921875 
Q 6 25.140625 12.171875 29.828125 
Q 18.359375 34.515625 30.609375 34.515625 
L 43.21875 34.515625 
L 43.21875 35.40625 
Q 43.21875 41.609375 39.140625 45 
Q 35.0625 48.390625 27.6875 48.390625 
Q 23 48.390625 18.546875 47.265625 
Q 14.109375 46.140625 10.015625 43.890625 
L 10.015625 52.203125 
Q 14.9375 54.109375 19.578125 55.046875 
Q 24.21875 56 28.609375 56 
Q 40.484375 56 46.34375 49.84375 
Q 52.203125 43.703125 52.203125 31.203125 
z
" id="DejaVuSans-97"/>
      <path d="M 44.28125 53.078125 
L 44.28125 44.578125 
Q 40.484375 46.53125 36.375 47.5 
Q 32.28125 48.484375 27.875 48.484375 
Q 21.1875 48.484375 17.84375 46.4375 
Q 14.5 44.390625 14.5 40.28125 
Q 14.5 37.15625 16.890625 35.375 
Q 19.28125 33.59375 26.515625 31.984375 
L 29.59375 31.296875 
Q 39.15625 29.25 43.1875 25.515625 
Q 47.21875 21.78125 47.21875 15.09375 
Q 47.21875 7.46875 41.1875 3.015625 
Q 35.15625 -1.421875 24.609375 -1.421875 
Q 20.21875 -1.421875 15.453125 -0.5625 
Q 10.6875 0.296875 5.421875 2 
L 5.421875 11.28125 
Q 10.40625 8.6875 15.234375 7.390625 
Q 20.0625 6.109375 24.8125 6.109375 
Q 31.15625 6.109375 34.5625 8.28125 
Q 37.984375 10.453125 37.984375 14.40625 
Q 37.984375 18.0625 35.515625 20.015625 
Q 33.0625 21.96875 24.703125 23.78125 
L 21.578125 24.515625 
Q 13.234375 26.265625 9.515625 29.90625 
Q 5.8125 33.546875 5.8125 39.890625 
Q 5.8125 47.609375 11.28125 51.796875 
Q 16.75 56 26.8125 56 
Q 31.78125 56 36.171875 55.265625 
Q 40.578125 54.546875 44.28125 53.078125 
z
" id="DejaVuSans-115"/>
     </defs>
     <g transform="translate(153.64 74.486437)scale(0.1 -0.1)">
      <use xlink:href="#DejaVuSans-67"/>
      <use x="69.824219" xlink:href="#DejaVuSans-111"/>
      <use x="131.005859" xlink:href="#DejaVuSans-110"/>
      <use x="194.384766" xlink:href="#DejaVuSans-102"/>
      <use x="229.589844" xlink:href="#DejaVuSans-105"/>
      <use x="257.373047" xlink:href="#DejaVuSans-114"/>
      <use x="298.470703" xlink:href="#DejaVuSans-109"/>
      <use x="395.882812" xlink:href="#DejaVuSans-101"/>
      <use x="457.40625" xlink:href="#DejaVuSans-100"/>
      <use x="520.882812" xlink:href="#DejaVuSans-32"/>
      <use x="552.669922" xlink:href="#DejaVuSans-67"/>
      <use x="622.494141" xlink:href="#DejaVuSans-97"/>
      <use x="683.773438" xlink:href="#DejaVuSans-115"/>
      <use x="735.873047" xlink:href="#DejaVuSans-101"/>
      <use x="797.396484" xlink:href="#DejaVuSans-115"/>
     </g>
    </g>
    <g id="line2d_24">
     <path d="M 125.64 85.664562 
L 145.64 85.664562 
" style="fill:none;stroke:#ff7f0e;stroke-linecap:square;stroke-width:1.5;"/>
    </g>
    <g id="line2d_25"/>
    <g id="text_21">
     <!-- No. of test performed -->
     <defs>
      <path d="M 9.8125 72.90625 
L 23.09375 72.90625 
L 55.421875 11.921875 
L 55.421875 72.90625 
L 64.984375 72.90625 
L 64.984375 0 
L 51.703125 0 
L 19.390625 60.984375 
L 19.390625 0 
L 9.8125 0 
z
" id="DejaVuSans-78"/>
      <path d="M 10.6875 12.40625 
L 21 12.40625 
L 21 0 
L 10.6875 0 
z
" id="DejaVuSans-46"/>
      <path d="M 18.3125 70.21875 
L 18.3125 54.6875 
L 36.8125 54.6875 
L 36.8125 47.703125 
L 18.3125 47.703125 
L 18.3125 18.015625 
Q 18.3125 11.328125 20.140625 9.421875 
Q 21.96875 7.515625 27.59375 7.515625 
L 36.8125 7.515625 
L 36.8125 0 
L 27.59375 0 
Q 17.1875 0 13.234375 3.875 
Q 9.28125 7.765625 9.28125 18.015625 
L 9.28125 47.703125 
L 2.6875 47.703125 
L 2.6875 54.6875 
L 9.28125 54.6875 
L 9.28125 70.21875 
z
" id="DejaVuSans-116"/>
      <path d="M 18.109375 8.203125 
L 18.109375 -20.796875 
L 9.078125 -20.796875 
L 9.078125 54.6875 
L 18.109375 54.6875 
L 18.109375 46.390625 
Q 20.953125 51.265625 25.265625 53.625 
Q 29.59375 56 35.59375 56 
Q 45.5625 56 51.78125 48.09375 
Q 58.015625 40.1875 58.015625 27.296875 
Q 58.015625 14.40625 51.78125 6.484375 
Q 45.5625 -1.421875 35.59375 -1.421875 
Q 29.59375 -1.421875 25.265625 0.953125 
Q 20.953125 3.328125 18.109375 8.203125 
z
M 48.6875 27.296875 
Q 48.6875 37.203125 44.609375 42.84375 
Q 40.53125 48.484375 33.40625 48.484375 
Q 26.265625 48.484375 22.1875 42.84375 
Q 18.109375 37.203125 18.109375 27.296875 
Q 18.109375 17.390625 22.1875 11.75 
Q 26.265625 6.109375 33.40625 6.109375 
Q 40.53125 6.109375 44.609375 11.75 
Q 48.6875 17.390625 48.6875 27.296875 
z
" id="DejaVuSans-112"/>
     </defs>
     <g transform="translate(153.64 89.164562)scale(0.1 -0.1)">
      <use xlink:href="#DejaVuSans-78"/>
      <use x="74.804688" xlink:href="#DejaVuSans-111"/>
      <use x="135.970703" xlink:href="#DejaVuSans-46"/>
      <use x="167.757812" xlink:href="#DejaVuSans-32"/>
      <use x="199.544922" xlink:href="#DejaVuSans-111"/>
      <use x="260.726562" xlink:href="#DejaVuSans-102"/>
      <use x="295.931641" xlink:href="#DejaVuSans-32"/>
      <use x="327.71875" xlink:href="#DejaVuSans-116"/>
      <use x="366.927734" xlink:href="#DejaVuSans-101"/>
      <use x="428.451172" xlink:href="#DejaVuSans-115"/>
      <use x="480.550781" xlink:href="#DejaVuSans-116"/>
      <use x="519.759766" xlink:href="#DejaVuSans-32"/>
      <use x="551.546875" xlink:href="#DejaVuSans-112"/>
      <use x="615.023438" xlink:href="#DejaVuSans-101"/>
      <use x="676.546875" xlink:href="#DejaVuSans-114"/>
      <use x="717.660156" xlink:href="#DejaVuSans-102"/>
      <use x="752.865234" xlink:href="#DejaVuSans-111"/>
      <use x="814.046875" xlink:href="#DejaVuSans-114"/>
      <use x="855.144531" xlink:href="#DejaVuSans-109"/>
      <use x="952.556641" xlink:href="#DejaVuSans-101"/>
      <use x="1014.080078" xlink:href="#DejaVuSans-100"/>
     </g>
    </g>
    <g id="patch_8">
     <path d="M 125.64 103.842687 
L 145.64 103.842687 
L 145.64 96.842687 
L 125.64 96.842687 
z
" style="fill:#1f77b4;opacity:0.2;"/>
    </g>
    <g id="text_22">
     <!-- Estimated Cases Range -->
     <defs>
      <path d="M 9.8125 72.90625 
L 55.90625 72.90625 
L 55.90625 64.59375 
L 19.671875 64.59375 
L 19.671875 43.015625 
L 54.390625 43.015625 
L 54.390625 34.71875 
L 19.671875 34.71875 
L 19.671875 8.296875 
L 56.78125 8.296875 
L 56.78125 0 
L 9.8125 0 
z
" id="DejaVuSans-69"/>
      <path d="M 44.390625 34.1875 
Q 47.5625 33.109375 50.5625 29.59375 
Q 53.5625 26.078125 56.59375 19.921875 
L 66.609375 0 
L 56 0 
L 46.6875 18.703125 
Q 43.0625 26.03125 39.671875 28.421875 
Q 36.28125 30.8125 30.421875 30.8125 
L 19.671875 30.8125 
L 19.671875 0 
L 9.8125 0 
L 9.8125 72.90625 
L 32.078125 72.90625 
Q 44.578125 72.90625 50.734375 67.671875 
Q 56.890625 62.453125 56.890625 51.90625 
Q 56.890625 45.015625 53.6875 40.46875 
Q 50.484375 35.9375 44.390625 34.1875 
z
M 19.671875 64.796875 
L 19.671875 38.921875 
L 32.078125 38.921875 
Q 39.203125 38.921875 42.84375 42.21875 
Q 46.484375 45.515625 46.484375 51.90625 
Q 46.484375 58.296875 42.84375 61.546875 
Q 39.203125 64.796875 32.078125 64.796875 
z
" id="DejaVuSans-82"/>
      <path d="M 45.40625 27.984375 
Q 45.40625 37.75 41.375 43.109375 
Q 37.359375 48.484375 30.078125 48.484375 
Q 22.859375 48.484375 18.828125 43.109375 
Q 14.796875 37.75 14.796875 27.984375 
Q 14.796875 18.265625 18.828125 12.890625 
Q 22.859375 7.515625 30.078125 7.515625 
Q 37.359375 7.515625 41.375 12.890625 
Q 45.40625 18.265625 45.40625 27.984375 
z
M 54.390625 6.78125 
Q 54.390625 -7.171875 48.1875 -13.984375 
Q 42 -20.796875 29.203125 -20.796875 
Q 24.46875 -20.796875 20.265625 -20.09375 
Q 16.0625 -19.390625 12.109375 -17.921875 
L 12.109375 -9.1875 
Q 16.0625 -11.328125 19.921875 -12.34375 
Q 23.78125 -13.375 27.78125 -13.375 
Q 36.625 -13.375 41.015625 -8.765625 
Q 45.40625 -4.15625 45.40625 5.171875 
L 45.40625 9.625 
Q 42.625 4.78125 38.28125 2.390625 
Q 33.9375 0 27.875 0 
Q 17.828125 0 11.671875 7.65625 
Q 5.515625 15.328125 5.515625 27.984375 
Q 5.515625 40.671875 11.671875 48.328125 
Q 17.828125 56 27.875 56 
Q 33.9375 56 38.28125 53.609375 
Q 42.625 51.21875 45.40625 46.390625 
L 45.40625 54.6875 
L 54.390625 54.6875 
z
" id="DejaVuSans-103"/>
     </defs>
     <g transform="translate(153.64 103.842687)scale(0.1 -0.1)">
      <use xlink:href="#DejaVuSans-69"/>
      <use x="63.183594" xlink:href="#DejaVuSans-115"/>
      <use x="115.283203" xlink:href="#DejaVuSans-116"/>
      <use x="154.492188" xlink:href="#DejaVuSans-105"/>
      <use x="182.275391" xlink:href="#DejaVuSans-109"/>
      <use x="279.6875" xlink:href="#DejaVuSans-97"/>
      <use x="340.966797" xlink:href="#DejaVuSans-116"/>
      <use x="380.175781" xlink:href="#DejaVuSans-101"/>
      <use x="441.699219" xlink:href="#DejaVuSans-100"/>
      <use x="505.175781" xlink:href="#DejaVuSans-32"/>
      <use x="536.962891" xlink:href="#DejaVuSans-67"/>
      <use x="606.787109" xlink:href="#DejaVuSans-97"/>
      <use x="668.066406" xlink:href="#DejaVuSans-115"/>
      <use x="720.166016" xlink:href="#DejaVuSans-101"/>
      <use x="781.689453" xlink:href="#DejaVuSans-115"/>
      <use x="833.789062" xlink:href="#DejaVuSans-32"/>
      <use x="865.576172" xlink:href="#DejaVuSans-82"/>
      <use x="935.027344" xlink:href="#DejaVuSans-97"/>
      <use x="996.306641" xlink:href="#DejaVuSans-110"/>
      <use x="1059.685547" xlink:href="#DejaVuSans-103"/>
      <use x="1123.162109" xlink:href="#DejaVuSans-101"/>
     </g>
    </g>
   </g>
  </g>
  <g id="text_23">
   <!-- COVID-19 cases, Czech Republic, data from ecdc.europa.eu as of 2020-05-30 -->
   <defs>
    <path d="M 39.40625 66.21875 
Q 28.65625 66.21875 22.328125 58.203125 
Q 16.015625 50.203125 16.015625 36.375 
Q 16.015625 22.609375 22.328125 14.59375 
Q 28.65625 6.59375 39.40625 6.59375 
Q 50.140625 6.59375 56.421875 14.59375 
Q 62.703125 22.609375 62.703125 36.375 
Q 62.703125 50.203125 56.421875 58.203125 
Q 50.140625 66.21875 39.40625 66.21875 
z
M 39.40625 74.21875 
Q 54.734375 74.21875 63.90625 63.9375 
Q 73.09375 53.65625 73.09375 36.375 
Q 73.09375 19.140625 63.90625 8.859375 
Q 54.734375 -1.421875 39.40625 -1.421875 
Q 24.03125 -1.421875 14.8125 8.828125 
Q 5.609375 19.09375 5.609375 36.375 
Q 5.609375 53.65625 14.8125 63.9375 
Q 24.03125 74.21875 39.40625 74.21875 
z
" id="DejaVuSans-79"/>
    <path d="M 28.609375 0 
L 0.78125 72.90625 
L 11.078125 72.90625 
L 34.1875 11.53125 
L 57.328125 72.90625 
L 67.578125 72.90625 
L 39.796875 0 
z
" id="DejaVuSans-86"/>
    <path d="M 9.8125 72.90625 
L 19.671875 72.90625 
L 19.671875 0 
L 9.8125 0 
z
" id="DejaVuSans-73"/>
    <path d="M 19.671875 64.796875 
L 19.671875 8.109375 
L 31.59375 8.109375 
Q 46.6875 8.109375 53.6875 14.9375 
Q 60.6875 21.78125 60.6875 36.53125 
Q 60.6875 51.171875 53.6875 57.984375 
Q 46.6875 64.796875 31.59375 64.796875 
z
M 9.8125 72.90625 
L 30.078125 72.90625 
Q 51.265625 72.90625 61.171875 64.09375 
Q 71.09375 55.28125 71.09375 36.53125 
Q 71.09375 17.671875 61.125 8.828125 
Q 51.171875 0 30.078125 0 
L 9.8125 0 
z
" id="DejaVuSans-68"/>
    <path d="M 48.78125 52.59375 
L 48.78125 44.1875 
Q 44.96875 46.296875 41.140625 47.34375 
Q 37.3125 48.390625 33.40625 48.390625 
Q 24.65625 48.390625 19.8125 42.84375 
Q 14.984375 37.3125 14.984375 27.296875 
Q 14.984375 17.28125 19.8125 11.734375 
Q 24.65625 6.203125 33.40625 6.203125 
Q 37.3125 6.203125 41.140625 7.25 
Q 44.96875 8.296875 48.78125 10.40625 
L 48.78125 2.09375 
Q 45.015625 0.34375 40.984375 -0.53125 
Q 36.96875 -1.421875 32.421875 -1.421875 
Q 20.0625 -1.421875 12.78125 6.34375 
Q 5.515625 14.109375 5.515625 27.296875 
Q 5.515625 40.671875 12.859375 48.328125 
Q 20.21875 56 33.015625 56 
Q 37.15625 56 41.109375 55.140625 
Q 45.0625 54.296875 48.78125 52.59375 
z
" id="DejaVuSans-99"/>
    <path d="M 11.71875 12.40625 
L 22.015625 12.40625 
L 22.015625 4 
L 14.015625 -11.625 
L 7.71875 -11.625 
L 11.71875 4 
z
" id="DejaVuSans-44"/>
    <path d="M 5.515625 54.6875 
L 48.1875 54.6875 
L 48.1875 46.484375 
L 14.40625 7.171875 
L 48.1875 7.171875 
L 48.1875 0 
L 4.296875 0 
L 4.296875 8.203125 
L 38.09375 47.515625 
L 5.515625 47.515625 
z
" id="DejaVuSans-122"/>
    <path d="M 54.890625 33.015625 
L 54.890625 0 
L 45.90625 0 
L 45.90625 32.71875 
Q 45.90625 40.484375 42.875 44.328125 
Q 39.84375 48.1875 33.796875 48.1875 
Q 26.515625 48.1875 22.3125 43.546875 
Q 18.109375 38.921875 18.109375 30.90625 
L 18.109375 0 
L 9.078125 0 
L 9.078125 75.984375 
L 18.109375 75.984375 
L 18.109375 46.1875 
Q 21.34375 51.125 25.703125 53.5625 
Q 30.078125 56 35.796875 56 
Q 45.21875 56 50.046875 50.171875 
Q 54.890625 44.34375 54.890625 33.015625 
z
" id="DejaVuSans-104"/>
    <path d="M 8.5 21.578125 
L 8.5 54.6875 
L 17.484375 54.6875 
L 17.484375 21.921875 
Q 17.484375 14.15625 20.5 10.265625 
Q 23.53125 6.390625 29.59375 6.390625 
Q 36.859375 6.390625 41.078125 11.03125 
Q 45.3125 15.671875 45.3125 23.6875 
L 45.3125 54.6875 
L 54.296875 54.6875 
L 54.296875 0 
L 45.3125 0 
L 45.3125 8.40625 
Q 42.046875 3.421875 37.71875 1 
Q 33.40625 -1.421875 27.6875 -1.421875 
Q 18.265625 -1.421875 13.375 4.4375 
Q 8.5 10.296875 8.5 21.578125 
z
M 31.109375 56 
z
" id="DejaVuSans-117"/>
    <path d="M 48.6875 27.296875 
Q 48.6875 37.203125 44.609375 42.84375 
Q 40.53125 48.484375 33.40625 48.484375 
Q 26.265625 48.484375 22.1875 42.84375 
Q 18.109375 37.203125 18.109375 27.296875 
Q 18.109375 17.390625 22.1875 11.75 
Q 26.265625 6.109375 33.40625 6.109375 
Q 40.53125 6.109375 44.609375 11.75 
Q 48.6875 17.390625 48.6875 27.296875 
z
M 18.109375 46.390625 
Q 20.953125 51.265625 25.265625 53.625 
Q 29.59375 56 35.59375 56 
Q 45.5625 56 51.78125 48.09375 
Q 58.015625 40.1875 58.015625 27.296875 
Q 58.015625 14.40625 51.78125 6.484375 
Q 45.5625 -1.421875 35.59375 -1.421875 
Q 29.59375 -1.421875 25.265625 0.953125 
Q 20.953125 3.328125 18.109375 8.203125 
L 18.109375 0 
L 9.078125 0 
L 9.078125 75.984375 
L 18.109375 75.984375 
z
" id="DejaVuSans-98"/>
    <path d="M 9.421875 75.984375 
L 18.40625 75.984375 
L 18.40625 0 
L 9.421875 0 
z
" id="DejaVuSans-108"/>
   </defs>
   <g transform="translate(233.830313 18.766125)scale(0.12 -0.12)">
    <use xlink:href="#DejaVuSans-67"/>
    <use x="69.824219" xlink:href="#DejaVuSans-79"/>
    <use x="148.519531" xlink:href="#DejaVuSans-86"/>
    <use x="216.927734" xlink:href="#DejaVuSans-73"/>
    <use x="246.419922" xlink:href="#DejaVuSans-68"/>
    <use x="323.421875" xlink:href="#DejaVuSans-45"/>
    <use x="359.505859" xlink:href="#DejaVuSans-49"/>
    <use x="423.128906" xlink:href="#DejaVuSans-57"/>
    <use x="486.751953" xlink:href="#DejaVuSans-32"/>
    <use x="518.539062" xlink:href="#DejaVuSans-99"/>
    <use x="573.519531" xlink:href="#DejaVuSans-97"/>
    <use x="634.798828" xlink:href="#DejaVuSans-115"/>
    <use x="686.898438" xlink:href="#DejaVuSans-101"/>
    <use x="748.421875" xlink:href="#DejaVuSans-115"/>
    <use x="800.521484" xlink:href="#DejaVuSans-44"/>
    <use x="832.308594" xlink:href="#DejaVuSans-32"/>
    <use x="864.095703" xlink:href="#DejaVuSans-67"/>
    <use x="933.919922" xlink:href="#DejaVuSans-122"/>
    <use x="986.410156" xlink:href="#DejaVuSans-101"/>
    <use x="1047.933594" xlink:href="#DejaVuSans-99"/>
    <use x="1102.914062" xlink:href="#DejaVuSans-104"/>
    <use x="1166.292969" xlink:href="#DejaVuSans-32"/>
    <use x="1198.080078" xlink:href="#DejaVuSans-82"/>
    <use x="1267.5" xlink:href="#DejaVuSans-101"/>
    <use x="1329.023438" xlink:href="#DejaVuSans-112"/>
    <use x="1392.5" xlink:href="#DejaVuSans-117"/>
    <use x="1455.878906" xlink:href="#DejaVuSans-98"/>
    <use x="1519.355469" xlink:href="#DejaVuSans-108"/>
    <use x="1547.138672" xlink:href="#DejaVuSans-105"/>
    <use x="1574.921875" xlink:href="#DejaVuSans-99"/>
    <use x="1629.902344" xlink:href="#DejaVuSans-44"/>
    <use x="1661.689453" xlink:href="#DejaVuSans-32"/>
    <use x="1693.476562" xlink:href="#DejaVuSans-100"/>
    <use x="1756.953125" xlink:href="#DejaVuSans-97"/>
    <use x="1818.232422" xlink:href="#DejaVuSans-116"/>
    <use x="1857.441406" xlink:href="#DejaVuSans-97"/>
    <use x="1918.720703" xlink:href="#DejaVuSans-32"/>
    <use x="1950.507812" xlink:href="#DejaVuSans-102"/>
    <use x="1985.712891" xlink:href="#DejaVuSans-114"/>
    <use x="2026.794922" xlink:href="#DejaVuSans-111"/>
    <use x="2087.976562" xlink:href="#DejaVuSans-109"/>
    <use x="2185.388672" xlink:href="#DejaVuSans-32"/>
    <use x="2217.175781" xlink:href="#DejaVuSans-101"/>
    <use x="2278.699219" xlink:href="#DejaVuSans-99"/>
    <use x="2333.679688" xlink:href="#DejaVuSans-100"/>
    <use x="2397.15625" xlink:href="#DejaVuSans-99"/>
    <use x="2452.136719" xlink:href="#DejaVuSans-46"/>
    <use x="2483.923828" xlink:href="#DejaVuSans-101"/>
    <use x="2545.447266" xlink:href="#DejaVuSans-117"/>
    <use x="2608.826172" xlink:href="#DejaVuSans-114"/>
    <use x="2649.908203" xlink:href="#DejaVuSans-111"/>
    <use x="2711.089844" xlink:href="#DejaVuSans-112"/>
    <use x="2774.566406" xlink:href="#DejaVuSans-97"/>
    <use x="2835.845703" xlink:href="#DejaVuSans-46"/>
    <use x="2867.632812" xlink:href="#DejaVuSans-101"/>
    <use x="2929.15625" xlink:href="#DejaVuSans-117"/>
    <use x="2992.535156" xlink:href="#DejaVuSans-32"/>
    <use x="3024.322266" xlink:href="#DejaVuSans-97"/>
    <use x="3085.601562" xlink:href="#DejaVuSans-115"/>
    <use x="3137.701172" xlink:href="#DejaVuSans-32"/>
    <use x="3169.488281" xlink:href="#DejaVuSans-111"/>
    <use x="3230.669922" xlink:href="#DejaVuSans-102"/>
    <use x="3265.875" xlink:href="#DejaVuSans-32"/>
    <use x="3297.662109" xlink:href="#DejaVuSans-50"/>
    <use x="3361.285156" xlink:href="#DejaVuSans-48"/>
    <use x="3424.908203" xlink:href="#DejaVuSans-50"/>
    <use x="3488.53125" xlink:href="#DejaVuSans-48"/>
    <use x="3552.154297" xlink:href="#DejaVuSans-45"/>
    <use x="3588.238281" xlink:href="#DejaVuSans-48"/>
    <use x="3651.861328" xlink:href="#DejaVuSans-53"/>
    <use x="3715.484375" xlink:href="#DejaVuSans-45"/>
    <use x="3751.568359" xlink:href="#DejaVuSans-51"/>
    <use x="3815.191406" xlink:href="#DejaVuSans-48"/>
   </g>
   <!-- Estimation of Real Cases, Based on Mortality Data, -->
   <defs>
    <path d="M 19.671875 34.8125 
L 19.671875 8.109375 
L 35.5 8.109375 
Q 43.453125 8.109375 47.28125 11.40625 
Q 51.125 14.703125 51.125 21.484375 
Q 51.125 28.328125 47.28125 31.5625 
Q 43.453125 34.8125 35.5 34.8125 
z
M 19.671875 64.796875 
L 19.671875 42.828125 
L 34.28125 42.828125 
Q 41.5 42.828125 45.03125 45.53125 
Q 48.578125 48.25 48.578125 53.8125 
Q 48.578125 59.328125 45.03125 62.0625 
Q 41.5 64.796875 34.28125 64.796875 
z
M 9.8125 72.90625 
L 35.015625 72.90625 
Q 46.296875 72.90625 52.390625 68.21875 
Q 58.5 63.53125 58.5 54.890625 
Q 58.5 48.1875 55.375 44.234375 
Q 52.25 40.28125 46.1875 39.3125 
Q 53.46875 37.75 57.5 32.78125 
Q 61.53125 27.828125 61.53125 20.40625 
Q 61.53125 10.640625 54.890625 5.3125 
Q 48.25 0 35.984375 0 
L 9.8125 0 
z
" id="DejaVuSans-66"/>
    <path d="M 9.8125 72.90625 
L 24.515625 72.90625 
L 43.109375 23.296875 
L 61.8125 72.90625 
L 76.515625 72.90625 
L 76.515625 0 
L 66.890625 0 
L 66.890625 64.015625 
L 48.09375 14.015625 
L 38.1875 14.015625 
L 19.390625 64.015625 
L 19.390625 0 
L 9.8125 0 
z
" id="DejaVuSans-77"/>
    <path d="M 32.171875 -5.078125 
Q 28.375 -14.84375 24.75 -17.8125 
Q 21.140625 -20.796875 15.09375 -20.796875 
L 7.90625 -20.796875 
L 7.90625 -13.28125 
L 13.1875 -13.28125 
Q 16.890625 -13.28125 18.9375 -11.515625 
Q 21 -9.765625 23.484375 -3.21875 
L 25.09375 0.875 
L 2.984375 54.6875 
L 12.5 54.6875 
L 29.59375 11.921875 
L 46.6875 54.6875 
L 56.203125 54.6875 
z
" id="DejaVuSans-121"/>
   </defs>
   <g transform="translate(313.853438 32.2035)scale(0.12 -0.12)">
    <use xlink:href="#DejaVuSans-69"/>
    <use x="63.183594" xlink:href="#DejaVuSans-115"/>
    <use x="115.283203" xlink:href="#DejaVuSans-116"/>
    <use x="154.492188" xlink:href="#DejaVuSans-105"/>
    <use x="182.275391" xlink:href="#DejaVuSans-109"/>
    <use x="279.6875" xlink:href="#DejaVuSans-97"/>
    <use x="340.966797" xlink:href="#DejaVuSans-116"/>
    <use x="380.175781" xlink:href="#DejaVuSans-105"/>
    <use x="407.958984" xlink:href="#DejaVuSans-111"/>
    <use x="469.140625" xlink:href="#DejaVuSans-110"/>
    <use x="532.519531" xlink:href="#DejaVuSans-32"/>
    <use x="564.306641" xlink:href="#DejaVuSans-111"/>
    <use x="625.488281" xlink:href="#DejaVuSans-102"/>
    <use x="660.693359" xlink:href="#DejaVuSans-32"/>
    <use x="692.480469" xlink:href="#DejaVuSans-82"/>
    <use x="761.900391" xlink:href="#DejaVuSans-101"/>
    <use x="823.423828" xlink:href="#DejaVuSans-97"/>
    <use x="884.703125" xlink:href="#DejaVuSans-108"/>
    <use x="912.486328" xlink:href="#DejaVuSans-32"/>
    <use x="944.273438" xlink:href="#DejaVuSans-67"/>
    <use x="1014.097656" xlink:href="#DejaVuSans-97"/>
    <use x="1075.376953" xlink:href="#DejaVuSans-115"/>
    <use x="1127.476562" xlink:href="#DejaVuSans-101"/>
    <use x="1189" xlink:href="#DejaVuSans-115"/>
    <use x="1241.099609" xlink:href="#DejaVuSans-44"/>
    <use x="1272.886719" xlink:href="#DejaVuSans-32"/>
    <use x="1304.673828" xlink:href="#DejaVuSans-66"/>
    <use x="1373.277344" xlink:href="#DejaVuSans-97"/>
    <use x="1434.556641" xlink:href="#DejaVuSans-115"/>
    <use x="1486.65625" xlink:href="#DejaVuSans-101"/>
    <use x="1548.179688" xlink:href="#DejaVuSans-100"/>
    <use x="1611.65625" xlink:href="#DejaVuSans-32"/>
    <use x="1643.443359" xlink:href="#DejaVuSans-111"/>
    <use x="1704.625" xlink:href="#DejaVuSans-110"/>
    <use x="1768.003906" xlink:href="#DejaVuSans-32"/>
    <use x="1799.791016" xlink:href="#DejaVuSans-77"/>
    <use x="1886.070312" xlink:href="#DejaVuSans-111"/>
    <use x="1947.251953" xlink:href="#DejaVuSans-114"/>
    <use x="1988.365234" xlink:href="#DejaVuSans-116"/>
    <use x="2027.574219" xlink:href="#DejaVuSans-97"/>
    <use x="2088.853516" xlink:href="#DejaVuSans-108"/>
    <use x="2116.636719" xlink:href="#DejaVuSans-105"/>
    <use x="2144.419922" xlink:href="#DejaVuSans-116"/>
    <use x="2183.628906" xlink:href="#DejaVuSans-121"/>
    <use x="2242.808594" xlink:href="#DejaVuSans-32"/>
    <use x="2274.595703" xlink:href="#DejaVuSans-68"/>
    <use x="2351.597656" xlink:href="#DejaVuSans-97"/>
    <use x="2412.876953" xlink:href="#DejaVuSans-116"/>
    <use x="2452.085938" xlink:href="#DejaVuSans-97"/>
    <use x="2513.365234" xlink:href="#DejaVuSans-44"/>
   </g>
   <!-- code at https://github.com/PavelDusek/COVID-19 -->
   <defs>
    <path d="M 11.71875 12.40625 
L 22.015625 12.40625 
L 22.015625 0 
L 11.71875 0 
z
M 11.71875 51.703125 
L 22.015625 51.703125 
L 22.015625 39.3125 
L 11.71875 39.3125 
z
" id="DejaVuSans-58"/>
    <path d="M 25.390625 72.90625 
L 33.6875 72.90625 
L 8.296875 -9.28125 
L 0 -9.28125 
z
" id="DejaVuSans-47"/>
    <path d="M 19.671875 64.796875 
L 19.671875 37.40625 
L 32.078125 37.40625 
Q 38.96875 37.40625 42.71875 40.96875 
Q 46.484375 44.53125 46.484375 51.125 
Q 46.484375 57.671875 42.71875 61.234375 
Q 38.96875 64.796875 32.078125 64.796875 
z
M 9.8125 72.90625 
L 32.078125 72.90625 
Q 44.34375 72.90625 50.609375 67.359375 
Q 56.890625 61.8125 56.890625 51.125 
Q 56.890625 40.328125 50.609375 34.8125 
Q 44.34375 29.296875 32.078125 29.296875 
L 19.671875 29.296875 
L 19.671875 0 
L 9.8125 0 
z
" id="DejaVuSans-80"/>
    <path d="M 2.984375 54.6875 
L 12.5 54.6875 
L 29.59375 8.796875 
L 46.6875 54.6875 
L 56.203125 54.6875 
L 35.6875 0 
L 23.484375 0 
z
" id="DejaVuSans-118"/>
    <path d="M 9.078125 75.984375 
L 18.109375 75.984375 
L 18.109375 31.109375 
L 44.921875 54.6875 
L 56.390625 54.6875 
L 27.390625 29.109375 
L 57.625 0 
L 45.90625 0 
L 18.109375 26.703125 
L 18.109375 0 
L 9.078125 0 
z
" id="DejaVuSans-107"/>
   </defs>
   <g transform="translate(318.613125 45.640875)scale(0.12 -0.12)">
    <use xlink:href="#DejaVuSans-99"/>
    <use x="54.980469" xlink:href="#DejaVuSans-111"/>
    <use x="116.162109" xlink:href="#DejaVuSans-100"/>
    <use x="179.638672" xlink:href="#DejaVuSans-101"/>
    <use x="241.162109" xlink:href="#DejaVuSans-32"/>
    <use x="272.949219" xlink:href="#DejaVuSans-97"/>
    <use x="334.228516" xlink:href="#DejaVuSans-116"/>
    <use x="373.4375" xlink:href="#DejaVuSans-32"/>
    <use x="405.224609" xlink:href="#DejaVuSans-104"/>
    <use x="468.603516" xlink:href="#DejaVuSans-116"/>
    <use x="507.8125" xlink:href="#DejaVuSans-116"/>
    <use x="547.021484" xlink:href="#DejaVuSans-112"/>
    <use x="610.498047" xlink:href="#DejaVuSans-115"/>
    <use x="662.597656" xlink:href="#DejaVuSans-58"/>
    <use x="696.289062" xlink:href="#DejaVuSans-47"/>
    <use x="729.980469" xlink:href="#DejaVuSans-47"/>
    <use x="763.671875" xlink:href="#DejaVuSans-103"/>
    <use x="827.148438" xlink:href="#DejaVuSans-105"/>
    <use x="854.931641" xlink:href="#DejaVuSans-116"/>
    <use x="894.140625" xlink:href="#DejaVuSans-104"/>
    <use x="957.519531" xlink:href="#DejaVuSans-117"/>
    <use x="1020.898438" xlink:href="#DejaVuSans-98"/>
    <use x="1084.375" xlink:href="#DejaVuSans-46"/>
    <use x="1116.162109" xlink:href="#DejaVuSans-99"/>
    <use x="1171.142578" xlink:href="#DejaVuSans-111"/>
    <use x="1232.324219" xlink:href="#DejaVuSans-109"/>
    <use x="1329.736328" xlink:href="#DejaVuSans-47"/>
    <use x="1363.427734" xlink:href="#DejaVuSans-80"/>
    <use x="1423.667969" xlink:href="#DejaVuSans-97"/>
    <use x="1484.947266" xlink:href="#DejaVuSans-118"/>
    <use x="1544.126953" xlink:href="#DejaVuSans-101"/>
    <use x="1605.650391" xlink:href="#DejaVuSans-108"/>
    <use x="1633.433594" xlink:href="#DejaVuSans-68"/>
    <use x="1710.435547" xlink:href="#DejaVuSans-117"/>
    <use x="1773.814453" xlink:href="#DejaVuSans-115"/>
    <use x="1825.914062" xlink:href="#DejaVuSans-101"/>
    <use x="1887.4375" xlink:href="#DejaVuSans-107"/>
    <use x="1945.347656" xlink:href="#DejaVuSans-47"/>
    <use x="1979.039062" xlink:href="#DejaVuSans-67"/>
    <use x="2048.863281" xlink:href="#DejaVuSans-79"/>
    <use x="2127.558594" xlink:href="#DejaVuSans-86"/>
    <use x="2195.966797" xlink:href="#DejaVuSans-73"/>
    <use x="2225.458984" xlink:href="#DejaVuSans-68"/>
    <use x="2302.460938" xlink:href="#DejaVuSans-45"/>
    <use x="2338.544922" xlink:href="#DejaVuSans-49"/>
    <use x="2402.167969" xlink:href="#DejaVuSans-57"/>
   </g>
  </g>
 </g>
 <defs>
  <clipPath id="p4213a49360">
   <rect height="371.448" width="723.168" x="116.64" y="57.888"/>
  </clipPath>
 </defs>
</svg>
