<?xml version="1.0" encoding="utf-8" standalone="no"?>
<!DOCTYPE svg PUBLIC "-//W3C//DTD SVG 1.1//EN"
  "http://www.w3.org/Graphics/SVG/1.1/DTD/svg11.dtd">
<!-- Created with matplotlib (https://matplotlib.org/) -->
<svg height="482.4pt" version="1.1" viewBox="0 0 933.12 482.4" width="933.12pt" xmlns="http://www.w3.org/2000/svg" xmlns:xlink="http://www.w3.org/1999/xlink">
 <defs>
  <style type="text/css">
*{stroke-linecap:butt;stroke-linejoin:round;}
  </style>
 </defs>
 <g id="figure_1">
  <g id="patch_1">
   <path d="M 0 482.4 
L 933.12 482.4 
L 933.12 0 
L 0 0 
z
" style="fill:#ffffff;"/>
  </g>
  <g id="axes_1">
   <g id="patch_2">
    <path d="M 116.64 429.336 
L 839.808 429.336 
L 839.808 57.888 
L 116.64 57.888 
z
" style="fill:#ffffff;"/>
   </g>
   <g id="PolyCollection_1">
    <path clip-path="url(#p36f22b0044)" d="M 412.481455 410.005181 
L 412.481455 412.249969 
L 441.805468 412.045898 
L 471.129481 411.637754 
L 500.453494 410.821468 
L 529.777507 409.188895 
L 529.777507 373.272293 
L 529.777507 373.272293 
L 500.453494 392.863167 
L 471.129481 402.658604 
L 441.805468 407.556322 
L 412.481455 410.005181 
z
" style="fill:#1f77b4;fill-opacity:0.2;"/>
   </g>
   <g id="matplotlib.axis_1">
    <g id="xtick_1">
     <g id="line2d_1">
      <defs>
       <path d="M 0 0 
L 0 3.5 
" id="mf1a2965cc8" style="stroke:#000000;stroke-width:0.8;"/>
      </defs>
      <g>
       <use style="stroke:#000000;stroke-width:0.8;" x="173.15967" xlink:href="#mf1a2965cc8" y="429.336"/>
      </g>
     </g>
     <g id="text_1">
      <!-- 2020-02 -->
      <defs>
       <path d="M 19.1875 8.296875 
L 53.609375 8.296875 
L 53.609375 0 
L 7.328125 0 
L 7.328125 8.296875 
Q 12.9375 14.109375 22.625 23.890625 
Q 32.328125 33.6875 34.8125 36.53125 
Q 39.546875 41.84375 41.421875 45.53125 
Q 43.3125 49.21875 43.3125 52.78125 
Q 43.3125 58.59375 39.234375 62.25 
Q 35.15625 65.921875 28.609375 65.921875 
Q 23.96875 65.921875 18.8125 64.3125 
Q 13.671875 62.703125 7.8125 59.421875 
L 7.8125 69.390625 
Q 13.765625 71.78125 18.9375 73 
Q 24.125 74.21875 28.421875 74.21875 
Q 39.75 74.21875 46.484375 68.546875 
Q 53.21875 62.890625 53.21875 53.421875 
Q 53.21875 48.921875 51.53125 44.890625 
Q 49.859375 40.875 45.40625 35.40625 
Q 44.1875 33.984375 37.640625 27.21875 
Q 31.109375 20.453125 19.1875 8.296875 
z
" id="DejaVuSans-50"/>
       <path d="M 31.78125 66.40625 
Q 24.171875 66.40625 20.328125 58.90625 
Q 16.5 51.421875 16.5 36.375 
Q 16.5 21.390625 20.328125 13.890625 
Q 24.171875 6.390625 31.78125 6.390625 
Q 39.453125 6.390625 43.28125 13.890625 
Q 47.125 21.390625 47.125 36.375 
Q 47.125 51.421875 43.28125 58.90625 
Q 39.453125 66.40625 31.78125 66.40625 
z
M 31.78125 74.21875 
Q 44.046875 74.21875 50.515625 64.515625 
Q 56.984375 54.828125 56.984375 36.375 
Q 56.984375 17.96875 50.515625 8.265625 
Q 44.046875 -1.421875 31.78125 -1.421875 
Q 19.53125 -1.421875 13.0625 8.265625 
Q 6.59375 17.96875 6.59375 36.375 
Q 6.59375 54.828125 13.0625 64.515625 
Q 19.53125 74.21875 31.78125 74.21875 
z
" id="DejaVuSans-48"/>
       <path d="M 4.890625 31.390625 
L 31.203125 31.390625 
L 31.203125 23.390625 
L 4.890625 23.390625 
z
" id="DejaVuSans-45"/>
      </defs>
      <g transform="translate(155.391788 460.880703)rotate(-25)scale(0.1 -0.1)">
       <use xlink:href="#DejaVuSans-50"/>
       <use x="63.623047" xlink:href="#DejaVuSans-48"/>
       <use x="127.246094" xlink:href="#DejaVuSans-50"/>
       <use x="190.869141" xlink:href="#DejaVuSans-48"/>
       <use x="254.492188" xlink:href="#DejaVuSans-45"/>
       <use x="290.576172" xlink:href="#DejaVuSans-48"/>
       <use x="354.199219" xlink:href="#DejaVuSans-50"/>
      </g>
     </g>
    </g>
    <g id="xtick_2">
     <g id="line2d_2">
      <g>
       <use style="stroke:#000000;stroke-width:0.8;" x="310.320377" xlink:href="#mf1a2965cc8" y="429.336"/>
      </g>
     </g>
     <g id="text_2">
      <!-- 2020-03 -->
      <defs>
       <path d="M 40.578125 39.3125 
Q 47.65625 37.796875 51.625 33 
Q 55.609375 28.21875 55.609375 21.1875 
Q 55.609375 10.40625 48.1875 4.484375 
Q 40.765625 -1.421875 27.09375 -1.421875 
Q 22.515625 -1.421875 17.65625 -0.515625 
Q 12.796875 0.390625 7.625 2.203125 
L 7.625 11.71875 
Q 11.71875 9.328125 16.59375 8.109375 
Q 21.484375 6.890625 26.8125 6.890625 
Q 36.078125 6.890625 40.9375 10.546875 
Q 45.796875 14.203125 45.796875 21.1875 
Q 45.796875 27.640625 41.28125 31.265625 
Q 36.765625 34.90625 28.71875 34.90625 
L 20.21875 34.90625 
L 20.21875 43.015625 
L 29.109375 43.015625 
Q 36.375 43.015625 40.234375 45.921875 
Q 44.09375 48.828125 44.09375 54.296875 
Q 44.09375 59.90625 40.109375 62.90625 
Q 36.140625 65.921875 28.71875 65.921875 
Q 24.65625 65.921875 20.015625 65.03125 
Q 15.375 64.15625 9.8125 62.3125 
L 9.8125 71.09375 
Q 15.4375 72.65625 20.34375 73.4375 
Q 25.25 74.21875 29.59375 74.21875 
Q 40.828125 74.21875 47.359375 69.109375 
Q 53.90625 64.015625 53.90625 55.328125 
Q 53.90625 49.265625 50.4375 45.09375 
Q 46.96875 40.921875 40.578125 39.3125 
z
" id="DejaVuSans-51"/>
      </defs>
      <g transform="translate(292.552495 460.880703)rotate(-25)scale(0.1 -0.1)">
       <use xlink:href="#DejaVuSans-50"/>
       <use x="63.623047" xlink:href="#DejaVuSans-48"/>
       <use x="127.246094" xlink:href="#DejaVuSans-50"/>
       <use x="190.869141" xlink:href="#DejaVuSans-48"/>
       <use x="254.492188" xlink:href="#DejaVuSans-45"/>
       <use x="290.576172" xlink:href="#DejaVuSans-48"/>
       <use x="354.199219" xlink:href="#DejaVuSans-51"/>
      </g>
     </g>
    </g>
    <g id="xtick_3">
     <g id="line2d_3">
      <g>
       <use style="stroke:#000000;stroke-width:0.8;" x="456.940442" xlink:href="#mf1a2965cc8" y="429.336"/>
      </g>
     </g>
     <g id="text_3">
      <!-- 2020-04 -->
      <defs>
       <path d="M 37.796875 64.3125 
L 12.890625 25.390625 
L 37.796875 25.390625 
z
M 35.203125 72.90625 
L 47.609375 72.90625 
L 47.609375 25.390625 
L 58.015625 25.390625 
L 58.015625 17.1875 
L 47.609375 17.1875 
L 47.609375 0 
L 37.796875 0 
L 37.796875 17.1875 
L 4.890625 17.1875 
L 4.890625 26.703125 
z
" id="DejaVuSans-52"/>
      </defs>
      <g transform="translate(439.17256 460.880703)rotate(-25)scale(0.1 -0.1)">
       <use xlink:href="#DejaVuSans-50"/>
       <use x="63.623047" xlink:href="#DejaVuSans-48"/>
       <use x="127.246094" xlink:href="#DejaVuSans-50"/>
       <use x="190.869141" xlink:href="#DejaVuSans-48"/>
       <use x="254.492188" xlink:href="#DejaVuSans-45"/>
       <use x="290.576172" xlink:href="#DejaVuSans-48"/>
       <use x="354.199219" xlink:href="#DejaVuSans-52"/>
      </g>
     </g>
    </g>
    <g id="xtick_4">
     <g id="line2d_4">
      <g>
       <use style="stroke:#000000;stroke-width:0.8;" x="598.830828" xlink:href="#mf1a2965cc8" y="429.336"/>
      </g>
     </g>
     <g id="text_4">
      <!-- 2020-05 -->
      <defs>
       <path d="M 10.796875 72.90625 
L 49.515625 72.90625 
L 49.515625 64.59375 
L 19.828125 64.59375 
L 19.828125 46.734375 
Q 21.96875 47.46875 24.109375 47.828125 
Q 26.265625 48.1875 28.421875 48.1875 
Q 40.625 48.1875 47.75 41.5 
Q 54.890625 34.8125 54.890625 23.390625 
Q 54.890625 11.625 47.5625 5.09375 
Q 40.234375 -1.421875 26.90625 -1.421875 
Q 22.3125 -1.421875 17.546875 -0.640625 
Q 12.796875 0.140625 7.71875 1.703125 
L 7.71875 11.625 
Q 12.109375 9.234375 16.796875 8.0625 
Q 21.484375 6.890625 26.703125 6.890625 
Q 35.15625 6.890625 40.078125 11.328125 
Q 45.015625 15.765625 45.015625 23.390625 
Q 45.015625 31 40.078125 35.4375 
Q 35.15625 39.890625 26.703125 39.890625 
Q 22.75 39.890625 18.8125 39.015625 
Q 14.890625 38.140625 10.796875 36.28125 
z
" id="DejaVuSans-53"/>
      </defs>
      <g transform="translate(581.062946 460.880703)rotate(-25)scale(0.1 -0.1)">
       <use xlink:href="#DejaVuSans-50"/>
       <use x="63.623047" xlink:href="#DejaVuSans-48"/>
       <use x="127.246094" xlink:href="#DejaVuSans-50"/>
       <use x="190.869141" xlink:href="#DejaVuSans-48"/>
       <use x="254.492188" xlink:href="#DejaVuSans-45"/>
       <use x="290.576172" xlink:href="#DejaVuSans-48"/>
       <use x="354.199219" xlink:href="#DejaVuSans-53"/>
      </g>
     </g>
    </g>
    <g id="xtick_5">
     <g id="line2d_5">
      <g>
       <use style="stroke:#000000;stroke-width:0.8;" x="745.450893" xlink:href="#mf1a2965cc8" y="429.336"/>
      </g>
     </g>
     <g id="text_5">
      <!-- 2020-06 -->
      <defs>
       <path d="M 33.015625 40.375 
Q 26.375 40.375 22.484375 35.828125 
Q 18.609375 31.296875 18.609375 23.390625 
Q 18.609375 15.53125 22.484375 10.953125 
Q 26.375 6.390625 33.015625 6.390625 
Q 39.65625 6.390625 43.53125 10.953125 
Q 47.40625 15.53125 47.40625 23.390625 
Q 47.40625 31.296875 43.53125 35.828125 
Q 39.65625 40.375 33.015625 40.375 
z
M 52.59375 71.296875 
L 52.59375 62.3125 
Q 48.875 64.0625 45.09375 64.984375 
Q 41.3125 65.921875 37.59375 65.921875 
Q 27.828125 65.921875 22.671875 59.328125 
Q 17.53125 52.734375 16.796875 39.40625 
Q 19.671875 43.65625 24.015625 45.921875 
Q 28.375 48.1875 33.59375 48.1875 
Q 44.578125 48.1875 50.953125 41.515625 
Q 57.328125 34.859375 57.328125 23.390625 
Q 57.328125 12.15625 50.6875 5.359375 
Q 44.046875 -1.421875 33.015625 -1.421875 
Q 20.359375 -1.421875 13.671875 8.265625 
Q 6.984375 17.96875 6.984375 36.375 
Q 6.984375 53.65625 15.1875 63.9375 
Q 23.390625 74.21875 37.203125 74.21875 
Q 40.921875 74.21875 44.703125 73.484375 
Q 48.484375 72.75 52.59375 71.296875 
z
" id="DejaVuSans-54"/>
      </defs>
      <g transform="translate(727.683011 460.880703)rotate(-25)scale(0.1 -0.1)">
       <use xlink:href="#DejaVuSans-50"/>
       <use x="63.623047" xlink:href="#DejaVuSans-48"/>
       <use x="127.246094" xlink:href="#DejaVuSans-50"/>
       <use x="190.869141" xlink:href="#DejaVuSans-48"/>
       <use x="254.492188" xlink:href="#DejaVuSans-45"/>
       <use x="290.576172" xlink:href="#DejaVuSans-48"/>
       <use x="354.199219" xlink:href="#DejaVuSans-54"/>
      </g>
     </g>
    </g>
   </g>
   <g id="matplotlib.axis_2">
    <g id="ytick_1">
     <g id="line2d_6">
      <defs>
       <path d="M 0 0 
L -3.5 0 
" id="m433094339f" style="stroke:#000000;stroke-width:0.8;"/>
      </defs>
      <g>
       <use style="stroke:#000000;stroke-width:0.8;" x="116.64" xlink:href="#m433094339f" y="412.454041"/>
      </g>
     </g>
     <g id="text_6">
      <!-- 0 -->
      <g transform="translate(103.2775 416.253259)scale(0.1 -0.1)">
       <use xlink:href="#DejaVuSans-48"/>
      </g>
     </g>
    </g>
    <g id="ytick_2">
     <g id="line2d_7">
      <g>
       <use style="stroke:#000000;stroke-width:0.8;" x="116.64" xlink:href="#m433094339f" y="344.430174"/>
      </g>
     </g>
     <g id="text_7">
      <!-- 100000 -->
      <defs>
       <path d="M 12.40625 8.296875 
L 28.515625 8.296875 
L 28.515625 63.921875 
L 10.984375 60.40625 
L 10.984375 69.390625 
L 28.421875 72.90625 
L 38.28125 72.90625 
L 38.28125 8.296875 
L 54.390625 8.296875 
L 54.390625 0 
L 12.40625 0 
z
" id="DejaVuSans-49"/>
      </defs>
      <g transform="translate(71.465 348.229392)scale(0.1 -0.1)">
       <use xlink:href="#DejaVuSans-49"/>
       <use x="63.623047" xlink:href="#DejaVuSans-48"/>
       <use x="127.246094" xlink:href="#DejaVuSans-48"/>
       <use x="190.869141" xlink:href="#DejaVuSans-48"/>
       <use x="254.492188" xlink:href="#DejaVuSans-48"/>
       <use x="318.115234" xlink:href="#DejaVuSans-48"/>
      </g>
     </g>
    </g>
    <g id="ytick_3">
     <g id="line2d_8">
      <g>
       <use style="stroke:#000000;stroke-width:0.8;" x="116.64" xlink:href="#m433094339f" y="276.406306"/>
      </g>
     </g>
     <g id="text_8">
      <!-- 200000 -->
      <g transform="translate(71.465 280.205525)scale(0.1 -0.1)">
       <use xlink:href="#DejaVuSans-50"/>
       <use x="63.623047" xlink:href="#DejaVuSans-48"/>
       <use x="127.246094" xlink:href="#DejaVuSans-48"/>
       <use x="190.869141" xlink:href="#DejaVuSans-48"/>
       <use x="254.492188" xlink:href="#DejaVuSans-48"/>
       <use x="318.115234" xlink:href="#DejaVuSans-48"/>
      </g>
     </g>
    </g>
    <g id="ytick_4">
     <g id="line2d_9">
      <g>
       <use style="stroke:#000000;stroke-width:0.8;" x="116.64" xlink:href="#m433094339f" y="208.382439"/>
      </g>
     </g>
     <g id="text_9">
      <!-- 300000 -->
      <g transform="translate(71.465 212.181658)scale(0.1 -0.1)">
       <use xlink:href="#DejaVuSans-51"/>
       <use x="63.623047" xlink:href="#DejaVuSans-48"/>
       <use x="127.246094" xlink:href="#DejaVuSans-48"/>
       <use x="190.869141" xlink:href="#DejaVuSans-48"/>
       <use x="254.492188" xlink:href="#DejaVuSans-48"/>
       <use x="318.115234" xlink:href="#DejaVuSans-48"/>
      </g>
     </g>
    </g>
    <g id="ytick_5">
     <g id="line2d_10">
      <g>
       <use style="stroke:#000000;stroke-width:0.8;" x="116.64" xlink:href="#m433094339f" y="140.358572"/>
      </g>
     </g>
     <g id="text_10">
      <!-- 400000 -->
      <g transform="translate(71.465 144.157791)scale(0.1 -0.1)">
       <use xlink:href="#DejaVuSans-52"/>
       <use x="63.623047" xlink:href="#DejaVuSans-48"/>
       <use x="127.246094" xlink:href="#DejaVuSans-48"/>
       <use x="190.869141" xlink:href="#DejaVuSans-48"/>
       <use x="254.492188" xlink:href="#DejaVuSans-48"/>
       <use x="318.115234" xlink:href="#DejaVuSans-48"/>
      </g>
     </g>
    </g>
    <g id="ytick_6">
     <g id="line2d_11">
      <g>
       <use style="stroke:#000000;stroke-width:0.8;" x="116.64" xlink:href="#m433094339f" y="72.334705"/>
      </g>
     </g>
     <g id="text_11">
      <!-- 500000 -->
      <g transform="translate(71.465 76.133924)scale(0.1 -0.1)">
       <use xlink:href="#DejaVuSans-53"/>
       <use x="63.623047" xlink:href="#DejaVuSans-48"/>
       <use x="127.246094" xlink:href="#DejaVuSans-48"/>
       <use x="190.869141" xlink:href="#DejaVuSans-48"/>
       <use x="254.492188" xlink:href="#DejaVuSans-48"/>
       <use x="318.115234" xlink:href="#DejaVuSans-48"/>
      </g>
     </g>
    </g>
   </g>
   <g id="line2d_12">
    <path clip-path="url(#p36f22b0044)" d="M 315.050056 412.452 
L 319.779736 412.45064 
L 329.239095 412.448599 
L 333.968774 412.445878 
L 338.698454 412.441116 
L 343.428133 412.436355 
L 348.157813 412.432273 
L 352.887492 412.426831 
L 357.617172 412.411186 
L 362.346852 412.390098 
L 367.076531 412.375133 
L 371.806211 412.352005 
L 376.53589 412.30847 
L 381.26557 412.25133 
L 385.995249 412.220039 
L 390.724929 412.158817 
L 395.454608 412.098956 
L 400.184288 411.981955 
L 404.913967 411.839105 
L 409.643647 411.777203 
L 414.373326 411.661563 
L 419.103006 411.613266 
L 423.832685 411.505788 
L 428.562365 411.328926 
L 433.292044 411.051389 
L 438.021724 410.903777 
L 442.751404 410.642565 
L 447.481083 410.529646 
L 452.210763 410.411964 
L 456.940442 410.203811 
L 461.670122 410.012664 
L 466.399801 409.82968 
L 471.129481 409.603841 
L 475.85916 409.412013 
L 480.58884 409.333786 
L 485.318519 409.17393 
L 490.048199 409.041283 
L 494.777878 408.840613 
L 499.507558 408.665792 
L 504.237237 408.554913 
L 508.966917 408.439272 
L 513.696596 408.378731 
L 518.426276 408.332475 
L 523.155956 408.276695 
L 527.885635 408.166496 
L 532.615315 408.078065 
L 537.344994 407.999158 
L 542.074674 407.927733 
L 546.804353 407.837261 
L 551.534033 407.750871 
L 556.263712 407.66448 
L 560.993392 407.599858 
L 565.723071 407.564485 
L 570.452751 407.506665 
L 575.18243 407.452926 
L 579.91211 407.417554 
L 584.641789 407.386943 
L 589.371469 407.34953 
L 594.101148 407.298512 
L 598.830828 407.228447 
L 603.560508 407.191034 
L 608.290187 407.17879 
L 613.019867 407.161104 
L 617.749546 407.135255 
L 622.479226 407.082876 
L 627.208905 407.029818 
L 631.938585 406.991044 
L 636.668264 406.959753 
L 641.397944 406.947509 
L 646.127623 406.928462 
L 650.857303 406.892409 
L 655.586982 406.861799 
L 660.316662 406.829147 
L 665.046341 406.773368 
L 669.776021 406.735954 
L 674.5057 406.702623 
L 679.23538 406.689018 
L 683.96506 406.613511 
L 688.694739 406.572017 
L 693.424419 406.521679 
L 698.154098 406.499231 
L 702.883778 406.459097 
L 707.613457 406.406719 
L 712.343137 406.361143 
L 717.072816 406.329172 
L 721.802496 406.297881 
L 726.532175 406.273392 
L 731.261855 406.236659 
L 735.991534 406.198566 
L 740.721214 406.175438 
L 745.450893 406.146188 
L 750.180573 406.126461 
L 754.910252 406.084286 
L 759.639932 406.033948 
L 764.369612 405.995855 
L 769.099291 405.972046 
L 773.828971 405.946197 
L 778.55865 405.904703 
L 783.28833 405.857766 
L 788.018009 405.821033 
L 792.747689 405.771376 
L 797.477368 405.729201 
L 802.207048 405.693829 
L 806.936727 405.657776 
" style="fill:none;stroke:#1f77b4;stroke-linecap:square;stroke-width:1.5;"/>
   </g>
   <g id="line2d_13">
    <path clip-path="url(#p36f22b0044)" d="M 149.511273 412.440436 
L 329.239095 412.125485 
L 343.428133 411.822779 
L 357.617172 411.218727 
L 362.346852 410.853439 
L 371.806211 409.607922 
L 376.53589 408.908637 
L 385.995249 407.131173 
L 390.724929 405.936674 
L 400.184288 402.957229 
L 409.643647 400.45191 
L 414.373326 398.893483 
L 419.103006 396.810592 
L 423.832685 394.016852 
L 428.562365 390.865306 
L 433.292044 387.219907 
L 438.021724 384.346579 
L 442.751404 382.409259 
L 447.481083 378.899908 
L 452.210763 374.368838 
L 456.940442 370.218022 
L 461.670122 365.678789 
L 466.399801 360.646383 
L 471.129481 356.67583 
L 475.85916 353.402522 
L 480.58884 349.025186 
L 485.318519 343.465595 
L 490.048199 337.704654 
L 494.777878 332.140301 
L 499.507558 328.261581 
L 504.237237 324.934533 
L 513.696596 320.53679 
L 518.426276 316.337677 
L 527.885635 304.870894 
L 532.615315 299.233075 
L 537.344994 295.420338 
L 542.074674 292.681017 
L 546.804353 288.213889 
L 551.534033 282.540018 
L 556.263712 276.541674 
L 560.993392 271.167108 
L 565.723071 266.317687 
L 570.452751 263.293345 
L 575.18243 260.993459 
L 579.91211 255.718888 
L 584.641789 249.772922 
L 594.101148 239.761169 
L 598.830828 236.702136 
L 608.290187 231.419402 
L 613.019867 226.143471 
L 617.749546 219.760791 
L 622.479226 214.28351 
L 627.208905 209.114376 
L 631.938585 206.0465 
L 636.668264 203.469756 
L 641.397944 200.713428 
L 646.127623 195.401445 
L 650.857303 189.445955 
L 655.586982 184.21696 
L 665.046341 174.903132 
L 669.776021 172.048171 
L 674.5057 169.631283 
L 679.23538 164.558063 
L 683.96506 158.887593 
L 698.154098 143.54413 
L 702.883778 140.102802 
L 707.613457 137.484564 
L 712.343137 132.377332 
L 717.072816 127.451723 
L 721.802496 122.79481 
L 731.261855 114.546235 
L 735.991534 112.132749 
L 740.721214 110.676358 
L 745.450893 106.784712 
L 750.180573 102.378126 
L 754.910252 98.764018 
L 759.639932 95.355342 
L 764.369612 92.516706 
L 773.828971 89.607325 
L 783.28833 83.324641 
L 788.018009 80.55675 
L 797.477368 75.588286 
L 802.207048 74.772 
L 802.207048 74.772 
" style="fill:none;stroke:#ff7f0e;stroke-linecap:square;stroke-width:1.5;"/>
   </g>
   <g id="patch_3">
    <path d="M 116.64 429.336 
L 116.64 57.888 
" style="fill:none;stroke:#000000;stroke-linecap:square;stroke-linejoin:miter;stroke-width:0.8;"/>
   </g>
   <g id="patch_4">
    <path d="M 839.808 429.336 
L 839.808 57.888 
" style="fill:none;stroke:#000000;stroke-linecap:square;stroke-linejoin:miter;stroke-width:0.8;"/>
   </g>
   <g id="patch_5">
    <path d="M 116.64 429.336 
L 839.808 429.336 
" style="fill:none;stroke:#000000;stroke-linecap:square;stroke-linejoin:miter;stroke-width:0.8;"/>
   </g>
   <g id="patch_6">
    <path d="M 116.64 57.888 
L 839.808 57.888 
" style="fill:none;stroke:#000000;stroke-linecap:square;stroke-linejoin:miter;stroke-width:0.8;"/>
   </g>
   <g id="legend_1">
    <g id="patch_7">
     <path d="M 123.64 109.922375 
L 274.10875 109.922375 
Q 276.10875 109.922375 276.10875 107.922375 
L 276.10875 64.888 
Q 276.10875 62.888 274.10875 62.888 
L 123.64 62.888 
Q 121.64 62.888 121.64 64.888 
L 121.64 107.922375 
Q 121.64 109.922375 123.64 109.922375 
z
" style="fill:#ffffff;opacity:0.8;stroke:#cccccc;stroke-linejoin:miter;"/>
    </g>
    <g id="line2d_14">
     <path d="M 125.64 70.986437 
L 145.64 70.986437 
" style="fill:none;stroke:#1f77b4;stroke-linecap:square;stroke-width:1.5;"/>
    </g>
    <g id="line2d_15"/>
    <g id="text_12">
     <!-- Confirmed Cases -->
     <defs>
      <path d="M 64.40625 67.28125 
L 64.40625 56.890625 
Q 59.421875 61.53125 53.78125 63.8125 
Q 48.140625 66.109375 41.796875 66.109375 
Q 29.296875 66.109375 22.65625 58.46875 
Q 16.015625 50.828125 16.015625 36.375 
Q 16.015625 21.96875 22.65625 14.328125 
Q 29.296875 6.6875 41.796875 6.6875 
Q 48.140625 6.6875 53.78125 8.984375 
Q 59.421875 11.28125 64.40625 15.921875 
L 64.40625 5.609375 
Q 59.234375 2.09375 53.4375 0.328125 
Q 47.65625 -1.421875 41.21875 -1.421875 
Q 24.65625 -1.421875 15.125 8.703125 
Q 5.609375 18.84375 5.609375 36.375 
Q 5.609375 53.953125 15.125 64.078125 
Q 24.65625 74.21875 41.21875 74.21875 
Q 47.75 74.21875 53.53125 72.484375 
Q 59.328125 70.75 64.40625 67.28125 
z
" id="DejaVuSans-67"/>
      <path d="M 30.609375 48.390625 
Q 23.390625 48.390625 19.1875 42.75 
Q 14.984375 37.109375 14.984375 27.296875 
Q 14.984375 17.484375 19.15625 11.84375 
Q 23.34375 6.203125 30.609375 6.203125 
Q 37.796875 6.203125 41.984375 11.859375 
Q 46.1875 17.53125 46.1875 27.296875 
Q 46.1875 37.015625 41.984375 42.703125 
Q 37.796875 48.390625 30.609375 48.390625 
z
M 30.609375 56 
Q 42.328125 56 49.015625 48.375 
Q 55.71875 40.765625 55.71875 27.296875 
Q 55.71875 13.875 49.015625 6.21875 
Q 42.328125 -1.421875 30.609375 -1.421875 
Q 18.84375 -1.421875 12.171875 6.21875 
Q 5.515625 13.875 5.515625 27.296875 
Q 5.515625 40.765625 12.171875 48.375 
Q 18.84375 56 30.609375 56 
z
" id="DejaVuSans-111"/>
      <path d="M 54.890625 33.015625 
L 54.890625 0 
L 45.90625 0 
L 45.90625 32.71875 
Q 45.90625 40.484375 42.875 44.328125 
Q 39.84375 48.1875 33.796875 48.1875 
Q 26.515625 48.1875 22.3125 43.546875 
Q 18.109375 38.921875 18.109375 30.90625 
L 18.109375 0 
L 9.078125 0 
L 9.078125 54.6875 
L 18.109375 54.6875 
L 18.109375 46.1875 
Q 21.34375 51.125 25.703125 53.5625 
Q 30.078125 56 35.796875 56 
Q 45.21875 56 50.046875 50.171875 
Q 54.890625 44.34375 54.890625 33.015625 
z
" id="DejaVuSans-110"/>
      <path d="M 37.109375 75.984375 
L 37.109375 68.5 
L 28.515625 68.5 
Q 23.6875 68.5 21.796875 66.546875 
Q 19.921875 64.59375 19.921875 59.515625 
L 19.921875 54.6875 
L 34.71875 54.6875 
L 34.71875 47.703125 
L 19.921875 47.703125 
L 19.921875 0 
L 10.890625 0 
L 10.890625 47.703125 
L 2.296875 47.703125 
L 2.296875 54.6875 
L 10.890625 54.6875 
L 10.890625 58.5 
Q 10.890625 67.625 15.140625 71.796875 
Q 19.390625 75.984375 28.609375 75.984375 
z
" id="DejaVuSans-102"/>
      <path d="M 9.421875 54.6875 
L 18.40625 54.6875 
L 18.40625 0 
L 9.421875 0 
z
M 9.421875 75.984375 
L 18.40625 75.984375 
L 18.40625 64.59375 
L 9.421875 64.59375 
z
" id="DejaVuSans-105"/>
      <path d="M 41.109375 46.296875 
Q 39.59375 47.171875 37.8125 47.578125 
Q 36.03125 48 33.890625 48 
Q 26.265625 48 22.1875 43.046875 
Q 18.109375 38.09375 18.109375 28.8125 
L 18.109375 0 
L 9.078125 0 
L 9.078125 54.6875 
L 18.109375 54.6875 
L 18.109375 46.1875 
Q 20.953125 51.171875 25.484375 53.578125 
Q 30.03125 56 36.53125 56 
Q 37.453125 56 38.578125 55.875 
Q 39.703125 55.765625 41.0625 55.515625 
z
" id="DejaVuSans-114"/>
      <path d="M 52 44.1875 
Q 55.375 50.25 60.0625 53.125 
Q 64.75 56 71.09375 56 
Q 79.640625 56 84.28125 50.015625 
Q 88.921875 44.046875 88.921875 33.015625 
L 88.921875 0 
L 79.890625 0 
L 79.890625 32.71875 
Q 79.890625 40.578125 77.09375 44.375 
Q 74.3125 48.1875 68.609375 48.1875 
Q 61.625 48.1875 57.5625 43.546875 
Q 53.515625 38.921875 53.515625 30.90625 
L 53.515625 0 
L 44.484375 0 
L 44.484375 32.71875 
Q 44.484375 40.625 41.703125 44.40625 
Q 38.921875 48.1875 33.109375 48.1875 
Q 26.21875 48.1875 22.15625 43.53125 
Q 18.109375 38.875 18.109375 30.90625 
L 18.109375 0 
L 9.078125 0 
L 9.078125 54.6875 
L 18.109375 54.6875 
L 18.109375 46.1875 
Q 21.1875 51.21875 25.484375 53.609375 
Q 29.78125 56 35.6875 56 
Q 41.65625 56 45.828125 52.96875 
Q 50 49.953125 52 44.1875 
z
" id="DejaVuSans-109"/>
      <path d="M 56.203125 29.59375 
L 56.203125 25.203125 
L 14.890625 25.203125 
Q 15.484375 15.921875 20.484375 11.0625 
Q 25.484375 6.203125 34.421875 6.203125 
Q 39.59375 6.203125 44.453125 7.46875 
Q 49.3125 8.734375 54.109375 11.28125 
L 54.109375 2.78125 
Q 49.265625 0.734375 44.1875 -0.34375 
Q 39.109375 -1.421875 33.890625 -1.421875 
Q 20.796875 -1.421875 13.15625 6.1875 
Q 5.515625 13.8125 5.515625 26.8125 
Q 5.515625 40.234375 12.765625 48.109375 
Q 20.015625 56 32.328125 56 
Q 43.359375 56 49.78125 48.890625 
Q 56.203125 41.796875 56.203125 29.59375 
z
M 47.21875 32.234375 
Q 47.125 39.59375 43.09375 43.984375 
Q 39.0625 48.390625 32.421875 48.390625 
Q 24.90625 48.390625 20.390625 44.140625 
Q 15.875 39.890625 15.1875 32.171875 
z
" id="DejaVuSans-101"/>
      <path d="M 45.40625 46.390625 
L 45.40625 75.984375 
L 54.390625 75.984375 
L 54.390625 0 
L 45.40625 0 
L 45.40625 8.203125 
Q 42.578125 3.328125 38.25 0.953125 
Q 33.9375 -1.421875 27.875 -1.421875 
Q 17.96875 -1.421875 11.734375 6.484375 
Q 5.515625 14.40625 5.515625 27.296875 
Q 5.515625 40.1875 11.734375 48.09375 
Q 17.96875 56 27.875 56 
Q 33.9375 56 38.25 53.625 
Q 42.578125 51.265625 45.40625 46.390625 
z
M 14.796875 27.296875 
Q 14.796875 17.390625 18.875 11.75 
Q 22.953125 6.109375 30.078125 6.109375 
Q 37.203125 6.109375 41.296875 11.75 
Q 45.40625 17.390625 45.40625 27.296875 
Q 45.40625 37.203125 41.296875 42.84375 
Q 37.203125 48.484375 30.078125 48.484375 
Q 22.953125 48.484375 18.875 42.84375 
Q 14.796875 37.203125 14.796875 27.296875 
z
" id="DejaVuSans-100"/>
      <path id="DejaVuSans-32"/>
      <path d="M 34.28125 27.484375 
Q 23.390625 27.484375 19.1875 25 
Q 14.984375 22.515625 14.984375 16.5 
Q 14.984375 11.71875 18.140625 8.90625 
Q 21.296875 6.109375 26.703125 6.109375 
Q 34.1875 6.109375 38.703125 11.40625 
Q 43.21875 16.703125 43.21875 25.484375 
L 43.21875 27.484375 
z
M 52.203125 31.203125 
L 52.203125 0 
L 43.21875 0 
L 43.21875 8.296875 
Q 40.140625 3.328125 35.546875 0.953125 
Q 30.953125 -1.421875 24.3125 -1.421875 
Q 15.921875 -1.421875 10.953125 3.296875 
Q 6 8.015625 6 15.921875 
Q 6 25.140625 12.171875 29.828125 
Q 18.359375 34.515625 30.609375 34.515625 
L 43.21875 34.515625 
L 43.21875 35.40625 
Q 43.21875 41.609375 39.140625 45 
Q 35.0625 48.390625 27.6875 48.390625 
Q 23 48.390625 18.546875 47.265625 
Q 14.109375 46.140625 10.015625 43.890625 
L 10.015625 52.203125 
Q 14.9375 54.109375 19.578125 55.046875 
Q 24.21875 56 28.609375 56 
Q 40.484375 56 46.34375 49.84375 
Q 52.203125 43.703125 52.203125 31.203125 
z
" id="DejaVuSans-97"/>
      <path d="M 44.28125 53.078125 
L 44.28125 44.578125 
Q 40.484375 46.53125 36.375 47.5 
Q 32.28125 48.484375 27.875 48.484375 
Q 21.1875 48.484375 17.84375 46.4375 
Q 14.5 44.390625 14.5 40.28125 
Q 14.5 37.15625 16.890625 35.375 
Q 19.28125 33.59375 26.515625 31.984375 
L 29.59375 31.296875 
Q 39.15625 29.25 43.1875 25.515625 
Q 47.21875 21.78125 47.21875 15.09375 
Q 47.21875 7.46875 41.1875 3.015625 
Q 35.15625 -1.421875 24.609375 -1.421875 
Q 20.21875 -1.421875 15.453125 -0.5625 
Q 10.6875 0.296875 5.421875 2 
L 5.421875 11.28125 
Q 10.40625 8.6875 15.234375 7.390625 
Q 20.0625 6.109375 24.8125 6.109375 
Q 31.15625 6.109375 34.5625 8.28125 
Q 37.984375 10.453125 37.984375 14.40625 
Q 37.984375 18.0625 35.515625 20.015625 
Q 33.0625 21.96875 24.703125 23.78125 
L 21.578125 24.515625 
Q 13.234375 26.265625 9.515625 29.90625 
Q 5.8125 33.546875 5.8125 39.890625 
Q 5.8125 47.609375 11.28125 51.796875 
Q 16.75 56 26.8125 56 
Q 31.78125 56 36.171875 55.265625 
Q 40.578125 54.546875 44.28125 53.078125 
z
" id="DejaVuSans-115"/>
     </defs>
     <g transform="translate(153.64 74.486437)scale(0.1 -0.1)">
      <use xlink:href="#DejaVuSans-67"/>
      <use x="69.824219" xlink:href="#DejaVuSans-111"/>
      <use x="131.005859" xlink:href="#DejaVuSans-110"/>
      <use x="194.384766" xlink:href="#DejaVuSans-102"/>
      <use x="229.589844" xlink:href="#DejaVuSans-105"/>
      <use x="257.373047" xlink:href="#DejaVuSans-114"/>
      <use x="298.470703" xlink:href="#DejaVuSans-109"/>
      <use x="395.882812" xlink:href="#DejaVuSans-101"/>
      <use x="457.40625" xlink:href="#DejaVuSans-100"/>
      <use x="520.882812" xlink:href="#DejaVuSans-32"/>
      <use x="552.669922" xlink:href="#DejaVuSans-67"/>
      <use x="622.494141" xlink:href="#DejaVuSans-97"/>
      <use x="683.773438" xlink:href="#DejaVuSans-115"/>
      <use x="735.873047" xlink:href="#DejaVuSans-101"/>
      <use x="797.396484" xlink:href="#DejaVuSans-115"/>
     </g>
    </g>
    <g id="line2d_16">
     <path d="M 125.64 85.664562 
L 145.64 85.664562 
" style="fill:none;stroke:#ff7f0e;stroke-linecap:square;stroke-width:1.5;"/>
    </g>
    <g id="line2d_17"/>
    <g id="text_13">
     <!-- No. of test performed -->
     <defs>
      <path d="M 9.8125 72.90625 
L 23.09375 72.90625 
L 55.421875 11.921875 
L 55.421875 72.90625 
L 64.984375 72.90625 
L 64.984375 0 
L 51.703125 0 
L 19.390625 60.984375 
L 19.390625 0 
L 9.8125 0 
z
" id="DejaVuSans-78"/>
      <path d="M 10.6875 12.40625 
L 21 12.40625 
L 21 0 
L 10.6875 0 
z
" id="DejaVuSans-46"/>
      <path d="M 18.3125 70.21875 
L 18.3125 54.6875 
L 36.8125 54.6875 
L 36.8125 47.703125 
L 18.3125 47.703125 
L 18.3125 18.015625 
Q 18.3125 11.328125 20.140625 9.421875 
Q 21.96875 7.515625 27.59375 7.515625 
L 36.8125 7.515625 
L 36.8125 0 
L 27.59375 0 
Q 17.1875 0 13.234375 3.875 
Q 9.28125 7.765625 9.28125 18.015625 
L 9.28125 47.703125 
L 2.6875 47.703125 
L 2.6875 54.6875 
L 9.28125 54.6875 
L 9.28125 70.21875 
z
" id="DejaVuSans-116"/>
      <path d="M 18.109375 8.203125 
L 18.109375 -20.796875 
L 9.078125 -20.796875 
L 9.078125 54.6875 
L 18.109375 54.6875 
L 18.109375 46.390625 
Q 20.953125 51.265625 25.265625 53.625 
Q 29.59375 56 35.59375 56 
Q 45.5625 56 51.78125 48.09375 
Q 58.015625 40.1875 58.015625 27.296875 
Q 58.015625 14.40625 51.78125 6.484375 
Q 45.5625 -1.421875 35.59375 -1.421875 
Q 29.59375 -1.421875 25.265625 0.953125 
Q 20.953125 3.328125 18.109375 8.203125 
z
M 48.6875 27.296875 
Q 48.6875 37.203125 44.609375 42.84375 
Q 40.53125 48.484375 33.40625 48.484375 
Q 26.265625 48.484375 22.1875 42.84375 
Q 18.109375 37.203125 18.109375 27.296875 
Q 18.109375 17.390625 22.1875 11.75 
Q 26.265625 6.109375 33.40625 6.109375 
Q 40.53125 6.109375 44.609375 11.75 
Q 48.6875 17.390625 48.6875 27.296875 
z
" id="DejaVuSans-112"/>
     </defs>
     <g transform="translate(153.64 89.164562)scale(0.1 -0.1)">
      <use xlink:href="#DejaVuSans-78"/>
      <use x="74.804688" xlink:href="#DejaVuSans-111"/>
      <use x="135.970703" xlink:href="#DejaVuSans-46"/>
      <use x="167.757812" xlink:href="#DejaVuSans-32"/>
      <use x="199.544922" xlink:href="#DejaVuSans-111"/>
      <use x="260.726562" xlink:href="#DejaVuSans-102"/>
      <use x="295.931641" xlink:href="#DejaVuSans-32"/>
      <use x="327.71875" xlink:href="#DejaVuSans-116"/>
      <use x="366.927734" xlink:href="#DejaVuSans-101"/>
      <use x="428.451172" xlink:href="#DejaVuSans-115"/>
      <use x="480.550781" xlink:href="#DejaVuSans-116"/>
      <use x="519.759766" xlink:href="#DejaVuSans-32"/>
      <use x="551.546875" xlink:href="#DejaVuSans-112"/>
      <use x="615.023438" xlink:href="#DejaVuSans-101"/>
      <use x="676.546875" xlink:href="#DejaVuSans-114"/>
      <use x="717.660156" xlink:href="#DejaVuSans-102"/>
      <use x="752.865234" xlink:href="#DejaVuSans-111"/>
      <use x="814.046875" xlink:href="#DejaVuSans-114"/>
      <use x="855.144531" xlink:href="#DejaVuSans-109"/>
      <use x="952.556641" xlink:href="#DejaVuSans-101"/>
      <use x="1014.080078" xlink:href="#DejaVuSans-100"/>
     </g>
    </g>
    <g id="patch_8">
     <path d="M 125.64 103.842687 
L 145.64 103.842687 
L 145.64 96.842687 
L 125.64 96.842687 
z
" style="fill:#1f77b4;opacity:0.2;"/>
    </g>
    <g id="text_14">
     <!-- Estimated Cases Range -->
     <defs>
      <path d="M 9.8125 72.90625 
L 55.90625 72.90625 
L 55.90625 64.59375 
L 19.671875 64.59375 
L 19.671875 43.015625 
L 54.390625 43.015625 
L 54.390625 34.71875 
L 19.671875 34.71875 
L 19.671875 8.296875 
L 56.78125 8.296875 
L 56.78125 0 
L 9.8125 0 
z
" id="DejaVuSans-69"/>
      <path d="M 44.390625 34.1875 
Q 47.5625 33.109375 50.5625 29.59375 
Q 53.5625 26.078125 56.59375 19.921875 
L 66.609375 0 
L 56 0 
L 46.6875 18.703125 
Q 43.0625 26.03125 39.671875 28.421875 
Q 36.28125 30.8125 30.421875 30.8125 
L 19.671875 30.8125 
L 19.671875 0 
L 9.8125 0 
L 9.8125 72.90625 
L 32.078125 72.90625 
Q 44.578125 72.90625 50.734375 67.671875 
Q 56.890625 62.453125 56.890625 51.90625 
Q 56.890625 45.015625 53.6875 40.46875 
Q 50.484375 35.9375 44.390625 34.1875 
z
M 19.671875 64.796875 
L 19.671875 38.921875 
L 32.078125 38.921875 
Q 39.203125 38.921875 42.84375 42.21875 
Q 46.484375 45.515625 46.484375 51.90625 
Q 46.484375 58.296875 42.84375 61.546875 
Q 39.203125 64.796875 32.078125 64.796875 
z
" id="DejaVuSans-82"/>
      <path d="M 45.40625 27.984375 
Q 45.40625 37.75 41.375 43.109375 
Q 37.359375 48.484375 30.078125 48.484375 
Q 22.859375 48.484375 18.828125 43.109375 
Q 14.796875 37.75 14.796875 27.984375 
Q 14.796875 18.265625 18.828125 12.890625 
Q 22.859375 7.515625 30.078125 7.515625 
Q 37.359375 7.515625 41.375 12.890625 
Q 45.40625 18.265625 45.40625 27.984375 
z
M 54.390625 6.78125 
Q 54.390625 -7.171875 48.1875 -13.984375 
Q 42 -20.796875 29.203125 -20.796875 
Q 24.46875 -20.796875 20.265625 -20.09375 
Q 16.0625 -19.390625 12.109375 -17.921875 
L 12.109375 -9.1875 
Q 16.0625 -11.328125 19.921875 -12.34375 
Q 23.78125 -13.375 27.78125 -13.375 
Q 36.625 -13.375 41.015625 -8.765625 
Q 45.40625 -4.15625 45.40625 5.171875 
L 45.40625 9.625 
Q 42.625 4.78125 38.28125 2.390625 
Q 33.9375 0 27.875 0 
Q 17.828125 0 11.671875 7.65625 
Q 5.515625 15.328125 5.515625 27.984375 
Q 5.515625 40.671875 11.671875 48.328125 
Q 17.828125 56 27.875 56 
Q 33.9375 56 38.28125 53.609375 
Q 42.625 51.21875 45.40625 46.390625 
L 45.40625 54.6875 
L 54.390625 54.6875 
z
" id="DejaVuSans-103"/>
     </defs>
     <g transform="translate(153.64 103.842687)scale(0.1 -0.1)">
      <use xlink:href="#DejaVuSans-69"/>
      <use x="63.183594" xlink:href="#DejaVuSans-115"/>
      <use x="115.283203" xlink:href="#DejaVuSans-116"/>
      <use x="154.492188" xlink:href="#DejaVuSans-105"/>
      <use x="182.275391" xlink:href="#DejaVuSans-109"/>
      <use x="279.6875" xlink:href="#DejaVuSans-97"/>
      <use x="340.966797" xlink:href="#DejaVuSans-116"/>
      <use x="380.175781" xlink:href="#DejaVuSans-101"/>
      <use x="441.699219" xlink:href="#DejaVuSans-100"/>
      <use x="505.175781" xlink:href="#DejaVuSans-32"/>
      <use x="536.962891" xlink:href="#DejaVuSans-67"/>
      <use x="606.787109" xlink:href="#DejaVuSans-97"/>
      <use x="668.066406" xlink:href="#DejaVuSans-115"/>
      <use x="720.166016" xlink:href="#DejaVuSans-101"/>
      <use x="781.689453" xlink:href="#DejaVuSans-115"/>
      <use x="833.789062" xlink:href="#DejaVuSans-32"/>
      <use x="865.576172" xlink:href="#DejaVuSans-82"/>
      <use x="935.027344" xlink:href="#DejaVuSans-97"/>
      <use x="996.306641" xlink:href="#DejaVuSans-110"/>
      <use x="1059.685547" xlink:href="#DejaVuSans-103"/>
      <use x="1123.162109" xlink:href="#DejaVuSans-101"/>
     </g>
    </g>
   </g>
  </g>
  <g id="text_15">
   <!-- COVID-19 cases, Czech Republic, data from ecdc.europa.eu as of 2020-06-14 -->
   <defs>
    <path d="M 39.40625 66.21875 
Q 28.65625 66.21875 22.328125 58.203125 
Q 16.015625 50.203125 16.015625 36.375 
Q 16.015625 22.609375 22.328125 14.59375 
Q 28.65625 6.59375 39.40625 6.59375 
Q 50.140625 6.59375 56.421875 14.59375 
Q 62.703125 22.609375 62.703125 36.375 
Q 62.703125 50.203125 56.421875 58.203125 
Q 50.140625 66.21875 39.40625 66.21875 
z
M 39.40625 74.21875 
Q 54.734375 74.21875 63.90625 63.9375 
Q 73.09375 53.65625 73.09375 36.375 
Q 73.09375 19.140625 63.90625 8.859375 
Q 54.734375 -1.421875 39.40625 -1.421875 
Q 24.03125 -1.421875 14.8125 8.828125 
Q 5.609375 19.09375 5.609375 36.375 
Q 5.609375 53.65625 14.8125 63.9375 
Q 24.03125 74.21875 39.40625 74.21875 
z
" id="DejaVuSans-79"/>
    <path d="M 28.609375 0 
L 0.78125 72.90625 
L 11.078125 72.90625 
L 34.1875 11.53125 
L 57.328125 72.90625 
L 67.578125 72.90625 
L 39.796875 0 
z
" id="DejaVuSans-86"/>
    <path d="M 9.8125 72.90625 
L 19.671875 72.90625 
L 19.671875 0 
L 9.8125 0 
z
" id="DejaVuSans-73"/>
    <path d="M 19.671875 64.796875 
L 19.671875 8.109375 
L 31.59375 8.109375 
Q 46.6875 8.109375 53.6875 14.9375 
Q 60.6875 21.78125 60.6875 36.53125 
Q 60.6875 51.171875 53.6875 57.984375 
Q 46.6875 64.796875 31.59375 64.796875 
z
M 9.8125 72.90625 
L 30.078125 72.90625 
Q 51.265625 72.90625 61.171875 64.09375 
Q 71.09375 55.28125 71.09375 36.53125 
Q 71.09375 17.671875 61.125 8.828125 
Q 51.171875 0 30.078125 0 
L 9.8125 0 
z
" id="DejaVuSans-68"/>
    <path d="M 10.984375 1.515625 
L 10.984375 10.5 
Q 14.703125 8.734375 18.5 7.8125 
Q 22.3125 6.890625 25.984375 6.890625 
Q 35.75 6.890625 40.890625 13.453125 
Q 46.046875 20.015625 46.78125 33.40625 
Q 43.953125 29.203125 39.59375 26.953125 
Q 35.25 24.703125 29.984375 24.703125 
Q 19.046875 24.703125 12.671875 31.3125 
Q 6.296875 37.9375 6.296875 49.421875 
Q 6.296875 60.640625 12.9375 67.421875 
Q 19.578125 74.21875 30.609375 74.21875 
Q 43.265625 74.21875 49.921875 64.515625 
Q 56.59375 54.828125 56.59375 36.375 
Q 56.59375 19.140625 48.40625 8.859375 
Q 40.234375 -1.421875 26.421875 -1.421875 
Q 22.703125 -1.421875 18.890625 -0.6875 
Q 15.09375 0.046875 10.984375 1.515625 
z
M 30.609375 32.421875 
Q 37.25 32.421875 41.125 36.953125 
Q 45.015625 41.5 45.015625 49.421875 
Q 45.015625 57.28125 41.125 61.84375 
Q 37.25 66.40625 30.609375 66.40625 
Q 23.96875 66.40625 20.09375 61.84375 
Q 16.21875 57.28125 16.21875 49.421875 
Q 16.21875 41.5 20.09375 36.953125 
Q 23.96875 32.421875 30.609375 32.421875 
z
" id="DejaVuSans-57"/>
    <path d="M 48.78125 52.59375 
L 48.78125 44.1875 
Q 44.96875 46.296875 41.140625 47.34375 
Q 37.3125 48.390625 33.40625 48.390625 
Q 24.65625 48.390625 19.8125 42.84375 
Q 14.984375 37.3125 14.984375 27.296875 
Q 14.984375 17.28125 19.8125 11.734375 
Q 24.65625 6.203125 33.40625 6.203125 
Q 37.3125 6.203125 41.140625 7.25 
Q 44.96875 8.296875 48.78125 10.40625 
L 48.78125 2.09375 
Q 45.015625 0.34375 40.984375 -0.53125 
Q 36.96875 -1.421875 32.421875 -1.421875 
Q 20.0625 -1.421875 12.78125 6.34375 
Q 5.515625 14.109375 5.515625 27.296875 
Q 5.515625 40.671875 12.859375 48.328125 
Q 20.21875 56 33.015625 56 
Q 37.15625 56 41.109375 55.140625 
Q 45.0625 54.296875 48.78125 52.59375 
z
" id="DejaVuSans-99"/>
    <path d="M 11.71875 12.40625 
L 22.015625 12.40625 
L 22.015625 4 
L 14.015625 -11.625 
L 7.71875 -11.625 
L 11.71875 4 
z
" id="DejaVuSans-44"/>
    <path d="M 5.515625 54.6875 
L 48.1875 54.6875 
L 48.1875 46.484375 
L 14.40625 7.171875 
L 48.1875 7.171875 
L 48.1875 0 
L 4.296875 0 
L 4.296875 8.203125 
L 38.09375 47.515625 
L 5.515625 47.515625 
z
" id="DejaVuSans-122"/>
    <path d="M 54.890625 33.015625 
L 54.890625 0 
L 45.90625 0 
L 45.90625 32.71875 
Q 45.90625 40.484375 42.875 44.328125 
Q 39.84375 48.1875 33.796875 48.1875 
Q 26.515625 48.1875 22.3125 43.546875 
Q 18.109375 38.921875 18.109375 30.90625 
L 18.109375 0 
L 9.078125 0 
L 9.078125 75.984375 
L 18.109375 75.984375 
L 18.109375 46.1875 
Q 21.34375 51.125 25.703125 53.5625 
Q 30.078125 56 35.796875 56 
Q 45.21875 56 50.046875 50.171875 
Q 54.890625 44.34375 54.890625 33.015625 
z
" id="DejaVuSans-104"/>
    <path d="M 8.5 21.578125 
L 8.5 54.6875 
L 17.484375 54.6875 
L 17.484375 21.921875 
Q 17.484375 14.15625 20.5 10.265625 
Q 23.53125 6.390625 29.59375 6.390625 
Q 36.859375 6.390625 41.078125 11.03125 
Q 45.3125 15.671875 45.3125 23.6875 
L 45.3125 54.6875 
L 54.296875 54.6875 
L 54.296875 0 
L 45.3125 0 
L 45.3125 8.40625 
Q 42.046875 3.421875 37.71875 1 
Q 33.40625 -1.421875 27.6875 -1.421875 
Q 18.265625 -1.421875 13.375 4.4375 
Q 8.5 10.296875 8.5 21.578125 
z
M 31.109375 56 
z
" id="DejaVuSans-117"/>
    <path d="M 48.6875 27.296875 
Q 48.6875 37.203125 44.609375 42.84375 
Q 40.53125 48.484375 33.40625 48.484375 
Q 26.265625 48.484375 22.1875 42.84375 
Q 18.109375 37.203125 18.109375 27.296875 
Q 18.109375 17.390625 22.1875 11.75 
Q 26.265625 6.109375 33.40625 6.109375 
Q 40.53125 6.109375 44.609375 11.75 
Q 48.6875 17.390625 48.6875 27.296875 
z
M 18.109375 46.390625 
Q 20.953125 51.265625 25.265625 53.625 
Q 29.59375 56 35.59375 56 
Q 45.5625 56 51.78125 48.09375 
Q 58.015625 40.1875 58.015625 27.296875 
Q 58.015625 14.40625 51.78125 6.484375 
Q 45.5625 -1.421875 35.59375 -1.421875 
Q 29.59375 -1.421875 25.265625 0.953125 
Q 20.953125 3.328125 18.109375 8.203125 
L 18.109375 0 
L 9.078125 0 
L 9.078125 75.984375 
L 18.109375 75.984375 
z
" id="DejaVuSans-98"/>
    <path d="M 9.421875 75.984375 
L 18.40625 75.984375 
L 18.40625 0 
L 9.421875 0 
z
" id="DejaVuSans-108"/>
   </defs>
   <g transform="translate(233.830313 18.766125)scale(0.12 -0.12)">
    <use xlink:href="#DejaVuSans-67"/>
    <use x="69.824219" xlink:href="#DejaVuSans-79"/>
    <use x="148.519531" xlink:href="#DejaVuSans-86"/>
    <use x="216.927734" xlink:href="#DejaVuSans-73"/>
    <use x="246.419922" xlink:href="#DejaVuSans-68"/>
    <use x="323.421875" xlink:href="#DejaVuSans-45"/>
    <use x="359.505859" xlink:href="#DejaVuSans-49"/>
    <use x="423.128906" xlink:href="#DejaVuSans-57"/>
    <use x="486.751953" xlink:href="#DejaVuSans-32"/>
    <use x="518.539062" xlink:href="#DejaVuSans-99"/>
    <use x="573.519531" xlink:href="#DejaVuSans-97"/>
    <use x="634.798828" xlink:href="#DejaVuSans-115"/>
    <use x="686.898438" xlink:href="#DejaVuSans-101"/>
    <use x="748.421875" xlink:href="#DejaVuSans-115"/>
    <use x="800.521484" xlink:href="#DejaVuSans-44"/>
    <use x="832.308594" xlink:href="#DejaVuSans-32"/>
    <use x="864.095703" xlink:href="#DejaVuSans-67"/>
    <use x="933.919922" xlink:href="#DejaVuSans-122"/>
    <use x="986.410156" xlink:href="#DejaVuSans-101"/>
    <use x="1047.933594" xlink:href="#DejaVuSans-99"/>
    <use x="1102.914062" xlink:href="#DejaVuSans-104"/>
    <use x="1166.292969" xlink:href="#DejaVuSans-32"/>
    <use x="1198.080078" xlink:href="#DejaVuSans-82"/>
    <use x="1267.5" xlink:href="#DejaVuSans-101"/>
    <use x="1329.023438" xlink:href="#DejaVuSans-112"/>
    <use x="1392.5" xlink:href="#DejaVuSans-117"/>
    <use x="1455.878906" xlink:href="#DejaVuSans-98"/>
    <use x="1519.355469" xlink:href="#DejaVuSans-108"/>
    <use x="1547.138672" xlink:href="#DejaVuSans-105"/>
    <use x="1574.921875" xlink:href="#DejaVuSans-99"/>
    <use x="1629.902344" xlink:href="#DejaVuSans-44"/>
    <use x="1661.689453" xlink:href="#DejaVuSans-32"/>
    <use x="1693.476562" xlink:href="#DejaVuSans-100"/>
    <use x="1756.953125" xlink:href="#DejaVuSans-97"/>
    <use x="1818.232422" xlink:href="#DejaVuSans-116"/>
    <use x="1857.441406" xlink:href="#DejaVuSans-97"/>
    <use x="1918.720703" xlink:href="#DejaVuSans-32"/>
    <use x="1950.507812" xlink:href="#DejaVuSans-102"/>
    <use x="1985.712891" xlink:href="#DejaVuSans-114"/>
    <use x="2026.794922" xlink:href="#DejaVuSans-111"/>
    <use x="2087.976562" xlink:href="#DejaVuSans-109"/>
    <use x="2185.388672" xlink:href="#DejaVuSans-32"/>
    <use x="2217.175781" xlink:href="#DejaVuSans-101"/>
    <use x="2278.699219" xlink:href="#DejaVuSans-99"/>
    <use x="2333.679688" xlink:href="#DejaVuSans-100"/>
    <use x="2397.15625" xlink:href="#DejaVuSans-99"/>
    <use x="2452.136719" xlink:href="#DejaVuSans-46"/>
    <use x="2483.923828" xlink:href="#DejaVuSans-101"/>
    <use x="2545.447266" xlink:href="#DejaVuSans-117"/>
    <use x="2608.826172" xlink:href="#DejaVuSans-114"/>
    <use x="2649.908203" xlink:href="#DejaVuSans-111"/>
    <use x="2711.089844" xlink:href="#DejaVuSans-112"/>
    <use x="2774.566406" xlink:href="#DejaVuSans-97"/>
    <use x="2835.845703" xlink:href="#DejaVuSans-46"/>
    <use x="2867.632812" xlink:href="#DejaVuSans-101"/>
    <use x="2929.15625" xlink:href="#DejaVuSans-117"/>
    <use x="2992.535156" xlink:href="#DejaVuSans-32"/>
    <use x="3024.322266" xlink:href="#DejaVuSans-97"/>
    <use x="3085.601562" xlink:href="#DejaVuSans-115"/>
    <use x="3137.701172" xlink:href="#DejaVuSans-32"/>
    <use x="3169.488281" xlink:href="#DejaVuSans-111"/>
    <use x="3230.669922" xlink:href="#DejaVuSans-102"/>
    <use x="3265.875" xlink:href="#DejaVuSans-32"/>
    <use x="3297.662109" xlink:href="#DejaVuSans-50"/>
    <use x="3361.285156" xlink:href="#DejaVuSans-48"/>
    <use x="3424.908203" xlink:href="#DejaVuSans-50"/>
    <use x="3488.53125" xlink:href="#DejaVuSans-48"/>
    <use x="3552.154297" xlink:href="#DejaVuSans-45"/>
    <use x="3588.238281" xlink:href="#DejaVuSans-48"/>
    <use x="3651.861328" xlink:href="#DejaVuSans-54"/>
    <use x="3715.484375" xlink:href="#DejaVuSans-45"/>
    <use x="3751.568359" xlink:href="#DejaVuSans-49"/>
    <use x="3815.191406" xlink:href="#DejaVuSans-52"/>
   </g>
   <!-- Estimation of Real Cases, Based on Mortality Data, -->
   <defs>
    <path d="M 19.671875 34.8125 
L 19.671875 8.109375 
L 35.5 8.109375 
Q 43.453125 8.109375 47.28125 11.40625 
Q 51.125 14.703125 51.125 21.484375 
Q 51.125 28.328125 47.28125 31.5625 
Q 43.453125 34.8125 35.5 34.8125 
z
M 19.671875 64.796875 
L 19.671875 42.828125 
L 34.28125 42.828125 
Q 41.5 42.828125 45.03125 45.53125 
Q 48.578125 48.25 48.578125 53.8125 
Q 48.578125 59.328125 45.03125 62.0625 
Q 41.5 64.796875 34.28125 64.796875 
z
M 9.8125 72.90625 
L 35.015625 72.90625 
Q 46.296875 72.90625 52.390625 68.21875 
Q 58.5 63.53125 58.5 54.890625 
Q 58.5 48.1875 55.375 44.234375 
Q 52.25 40.28125 46.1875 39.3125 
Q 53.46875 37.75 57.5 32.78125 
Q 61.53125 27.828125 61.53125 20.40625 
Q 61.53125 10.640625 54.890625 5.3125 
Q 48.25 0 35.984375 0 
L 9.8125 0 
z
" id="DejaVuSans-66"/>
    <path d="M 9.8125 72.90625 
L 24.515625 72.90625 
L 43.109375 23.296875 
L 61.8125 72.90625 
L 76.515625 72.90625 
L 76.515625 0 
L 66.890625 0 
L 66.890625 64.015625 
L 48.09375 14.015625 
L 38.1875 14.015625 
L 19.390625 64.015625 
L 19.390625 0 
L 9.8125 0 
z
" id="DejaVuSans-77"/>
    <path d="M 32.171875 -5.078125 
Q 28.375 -14.84375 24.75 -17.8125 
Q 21.140625 -20.796875 15.09375 -20.796875 
L 7.90625 -20.796875 
L 7.90625 -13.28125 
L 13.1875 -13.28125 
Q 16.890625 -13.28125 18.9375 -11.515625 
Q 21 -9.765625 23.484375 -3.21875 
L 25.09375 0.875 
L 2.984375 54.6875 
L 12.5 54.6875 
L 29.59375 11.921875 
L 46.6875 54.6875 
L 56.203125 54.6875 
z
" id="DejaVuSans-121"/>
   </defs>
   <g transform="translate(313.853438 32.2035)scale(0.12 -0.12)">
    <use xlink:href="#DejaVuSans-69"/>
    <use x="63.183594" xlink:href="#DejaVuSans-115"/>
    <use x="115.283203" xlink:href="#DejaVuSans-116"/>
    <use x="154.492188" xlink:href="#DejaVuSans-105"/>
    <use x="182.275391" xlink:href="#DejaVuSans-109"/>
    <use x="279.6875" xlink:href="#DejaVuSans-97"/>
    <use x="340.966797" xlink:href="#DejaVuSans-116"/>
    <use x="380.175781" xlink:href="#DejaVuSans-105"/>
    <use x="407.958984" xlink:href="#DejaVuSans-111"/>
    <use x="469.140625" xlink:href="#DejaVuSans-110"/>
    <use x="532.519531" xlink:href="#DejaVuSans-32"/>
    <use x="564.306641" xlink:href="#DejaVuSans-111"/>
    <use x="625.488281" xlink:href="#DejaVuSans-102"/>
    <use x="660.693359" xlink:href="#DejaVuSans-32"/>
    <use x="692.480469" xlink:href="#DejaVuSans-82"/>
    <use x="761.900391" xlink:href="#DejaVuSans-101"/>
    <use x="823.423828" xlink:href="#DejaVuSans-97"/>
    <use x="884.703125" xlink:href="#DejaVuSans-108"/>
    <use x="912.486328" xlink:href="#DejaVuSans-32"/>
    <use x="944.273438" xlink:href="#DejaVuSans-67"/>
    <use x="1014.097656" xlink:href="#DejaVuSans-97"/>
    <use x="1075.376953" xlink:href="#DejaVuSans-115"/>
    <use x="1127.476562" xlink:href="#DejaVuSans-101"/>
    <use x="1189" xlink:href="#DejaVuSans-115"/>
    <use x="1241.099609" xlink:href="#DejaVuSans-44"/>
    <use x="1272.886719" xlink:href="#DejaVuSans-32"/>
    <use x="1304.673828" xlink:href="#DejaVuSans-66"/>
    <use x="1373.277344" xlink:href="#DejaVuSans-97"/>
    <use x="1434.556641" xlink:href="#DejaVuSans-115"/>
    <use x="1486.65625" xlink:href="#DejaVuSans-101"/>
    <use x="1548.179688" xlink:href="#DejaVuSans-100"/>
    <use x="1611.65625" xlink:href="#DejaVuSans-32"/>
    <use x="1643.443359" xlink:href="#DejaVuSans-111"/>
    <use x="1704.625" xlink:href="#DejaVuSans-110"/>
    <use x="1768.003906" xlink:href="#DejaVuSans-32"/>
    <use x="1799.791016" xlink:href="#DejaVuSans-77"/>
    <use x="1886.070312" xlink:href="#DejaVuSans-111"/>
    <use x="1947.251953" xlink:href="#DejaVuSans-114"/>
    <use x="1988.365234" xlink:href="#DejaVuSans-116"/>
    <use x="2027.574219" xlink:href="#DejaVuSans-97"/>
    <use x="2088.853516" xlink:href="#DejaVuSans-108"/>
    <use x="2116.636719" xlink:href="#DejaVuSans-105"/>
    <use x="2144.419922" xlink:href="#DejaVuSans-116"/>
    <use x="2183.628906" xlink:href="#DejaVuSans-121"/>
    <use x="2242.808594" xlink:href="#DejaVuSans-32"/>
    <use x="2274.595703" xlink:href="#DejaVuSans-68"/>
    <use x="2351.597656" xlink:href="#DejaVuSans-97"/>
    <use x="2412.876953" xlink:href="#DejaVuSans-116"/>
    <use x="2452.085938" xlink:href="#DejaVuSans-97"/>
    <use x="2513.365234" xlink:href="#DejaVuSans-44"/>
   </g>
   <!-- code at https://github.com/PavelDusek/COVID-19 -->
   <defs>
    <path d="M 11.71875 12.40625 
L 22.015625 12.40625 
L 22.015625 0 
L 11.71875 0 
z
M 11.71875 51.703125 
L 22.015625 51.703125 
L 22.015625 39.3125 
L 11.71875 39.3125 
z
" id="DejaVuSans-58"/>
    <path d="M 25.390625 72.90625 
L 33.6875 72.90625 
L 8.296875 -9.28125 
L 0 -9.28125 
z
" id="DejaVuSans-47"/>
    <path d="M 19.671875 64.796875 
L 19.671875 37.40625 
L 32.078125 37.40625 
Q 38.96875 37.40625 42.71875 40.96875 
Q 46.484375 44.53125 46.484375 51.125 
Q 46.484375 57.671875 42.71875 61.234375 
Q 38.96875 64.796875 32.078125 64.796875 
z
M 9.8125 72.90625 
L 32.078125 72.90625 
Q 44.34375 72.90625 50.609375 67.359375 
Q 56.890625 61.8125 56.890625 51.125 
Q 56.890625 40.328125 50.609375 34.8125 
Q 44.34375 29.296875 32.078125 29.296875 
L 19.671875 29.296875 
L 19.671875 0 
L 9.8125 0 
z
" id="DejaVuSans-80"/>
    <path d="M 2.984375 54.6875 
L 12.5 54.6875 
L 29.59375 8.796875 
L 46.6875 54.6875 
L 56.203125 54.6875 
L 35.6875 0 
L 23.484375 0 
z
" id="DejaVuSans-118"/>
    <path d="M 9.078125 75.984375 
L 18.109375 75.984375 
L 18.109375 31.109375 
L 44.921875 54.6875 
L 56.390625 54.6875 
L 27.390625 29.109375 
L 57.625 0 
L 45.90625 0 
L 18.109375 26.703125 
L 18.109375 0 
L 9.078125 0 
z
" id="DejaVuSans-107"/>
   </defs>
   <g transform="translate(318.613125 45.640875)scale(0.12 -0.12)">
    <use xlink:href="#DejaVuSans-99"/>
    <use x="54.980469" xlink:href="#DejaVuSans-111"/>
    <use x="116.162109" xlink:href="#DejaVuSans-100"/>
    <use x="179.638672" xlink:href="#DejaVuSans-101"/>
    <use x="241.162109" xlink:href="#DejaVuSans-32"/>
    <use x="272.949219" xlink:href="#DejaVuSans-97"/>
    <use x="334.228516" xlink:href="#DejaVuSans-116"/>
    <use x="373.4375" xlink:href="#DejaVuSans-32"/>
    <use x="405.224609" xlink:href="#DejaVuSans-104"/>
    <use x="468.603516" xlink:href="#DejaVuSans-116"/>
    <use x="507.8125" xlink:href="#DejaVuSans-116"/>
    <use x="547.021484" xlink:href="#DejaVuSans-112"/>
    <use x="610.498047" xlink:href="#DejaVuSans-115"/>
    <use x="662.597656" xlink:href="#DejaVuSans-58"/>
    <use x="696.289062" xlink:href="#DejaVuSans-47"/>
    <use x="729.980469" xlink:href="#DejaVuSans-47"/>
    <use x="763.671875" xlink:href="#DejaVuSans-103"/>
    <use x="827.148438" xlink:href="#DejaVuSans-105"/>
    <use x="854.931641" xlink:href="#DejaVuSans-116"/>
    <use x="894.140625" xlink:href="#DejaVuSans-104"/>
    <use x="957.519531" xlink:href="#DejaVuSans-117"/>
    <use x="1020.898438" xlink:href="#DejaVuSans-98"/>
    <use x="1084.375" xlink:href="#DejaVuSans-46"/>
    <use x="1116.162109" xlink:href="#DejaVuSans-99"/>
    <use x="1171.142578" xlink:href="#DejaVuSans-111"/>
    <use x="1232.324219" xlink:href="#DejaVuSans-109"/>
    <use x="1329.736328" xlink:href="#DejaVuSans-47"/>
    <use x="1363.427734" xlink:href="#DejaVuSans-80"/>
    <use x="1423.667969" xlink:href="#DejaVuSans-97"/>
    <use x="1484.947266" xlink:href="#DejaVuSans-118"/>
    <use x="1544.126953" xlink:href="#DejaVuSans-101"/>
    <use x="1605.650391" xlink:href="#DejaVuSans-108"/>
    <use x="1633.433594" xlink:href="#DejaVuSans-68"/>
    <use x="1710.435547" xlink:href="#DejaVuSans-117"/>
    <use x="1773.814453" xlink:href="#DejaVuSans-115"/>
    <use x="1825.914062" xlink:href="#DejaVuSans-101"/>
    <use x="1887.4375" xlink:href="#DejaVuSans-107"/>
    <use x="1945.347656" xlink:href="#DejaVuSans-47"/>
    <use x="1979.039062" xlink:href="#DejaVuSans-67"/>
    <use x="2048.863281" xlink:href="#DejaVuSans-79"/>
    <use x="2127.558594" xlink:href="#DejaVuSans-86"/>
    <use x="2195.966797" xlink:href="#DejaVuSans-73"/>
    <use x="2225.458984" xlink:href="#DejaVuSans-68"/>
    <use x="2302.460938" xlink:href="#DejaVuSans-45"/>
    <use x="2338.544922" xlink:href="#DejaVuSans-49"/>
    <use x="2402.167969" xlink:href="#DejaVuSans-57"/>
   </g>
  </g>
 </g>
 <defs>
  <clipPath id="p36f22b0044">
   <rect height="371.448" width="723.168" x="116.64" y="57.888"/>
  </clipPath>
 </defs>
</svg>
