<?xml version="1.0" encoding="utf-8" standalone="no"?>
<!DOCTYPE svg PUBLIC "-//W3C//DTD SVG 1.1//EN"
  "http://www.w3.org/Graphics/SVG/1.1/DTD/svg11.dtd">
<!-- Created with matplotlib (https://matplotlib.org/) -->
<svg height="482.4pt" version="1.1" viewBox="0 0 933.12 482.4" width="933.12pt" xmlns="http://www.w3.org/2000/svg" xmlns:xlink="http://www.w3.org/1999/xlink">
 <defs>
  <style type="text/css">
*{stroke-linecap:butt;stroke-linejoin:round;}
  </style>
 </defs>
 <g id="figure_1">
  <g id="patch_1">
   <path d="M 0 482.4 
L 933.12 482.4 
L 933.12 0 
L 0 0 
z
" style="fill:#ffffff;"/>
  </g>
  <g id="axes_1">
   <g id="patch_2">
    <path d="M 116.64 429.336 
L 839.808 429.336 
L 839.808 57.888 
L 116.64 57.888 
z
" style="fill:#ffffff;"/>
   </g>
   <g id="PathCollection_1">
    <path clip-path="url(#p505a7838ba)" d="M 146.898005 95.621771 
C 148.021561 95.621771 149.09925 95.175378 149.893723 94.380904 
C 150.688197 93.58643 151.134591 92.508741 151.134591 91.385186 
C 151.134591 90.26163 150.688197 89.183941 149.893723 88.389468 
C 149.09925 87.594994 148.021561 87.1486 146.898005 87.1486 
C 145.77445 87.1486 144.696761 87.594994 143.902287 88.389468 
C 143.107813 89.183941 142.66142 90.26163 142.66142 91.385186 
C 142.66142 92.508741 143.107813 93.58643 143.902287 94.380904 
C 144.696761 95.175378 145.77445 95.621771 146.898005 95.621771 
z
" style="fill:#1f77b4;stroke:#ffffff;stroke-width:0.75;"/>
    <path clip-path="url(#p505a7838ba)" d="M 179.539725 118.719816 
C 180.628196 118.719816 181.672232 118.287362 182.441897 117.517697 
C 183.211563 116.748032 183.644017 115.703995 183.644017 114.615524 
C 183.644017 113.527053 183.211563 112.483017 182.441897 111.713351 
C 181.672232 110.943686 180.628196 110.511232 179.539725 110.511232 
C 178.451254 110.511232 177.407217 110.943686 176.637552 111.713351 
C 175.867887 112.483017 175.435433 113.527053 175.435433 114.615524 
C 175.435433 115.703995 175.867887 116.748032 176.637552 117.517697 
C 177.407217 118.287362 178.451254 118.719816 179.539725 118.719816 
z
" style="fill:#1f77b4;stroke:#ffffff;stroke-width:0.75;"/>
    <path clip-path="url(#p505a7838ba)" d="M 217.41797 143.950488 
C 218.525206 143.950488 219.587242 143.510578 220.370177 142.727644 
C 221.153111 141.94471 221.593021 140.882674 221.593021 139.775437 
C 221.593021 138.668201 221.153111 137.606165 220.370177 136.82323 
C 219.587242 136.040296 218.525206 135.600386 217.41797 135.600386 
C 216.310734 135.600386 215.248698 136.040296 214.465763 136.82323 
C 213.682829 137.606165 213.242919 138.668201 213.242919 139.775437 
C 213.242919 140.882674 213.682829 141.94471 214.465763 142.727644 
C 215.248698 143.510578 216.310734 143.950488 217.41797 143.950488 
z
" style="fill:#1f77b4;stroke:#ffffff;stroke-width:0.75;"/>
    <path clip-path="url(#p505a7838ba)" d="M 248.852134 163.592659 
C 249.977295 163.592659 251.056524 163.145627 251.852134 162.350018 
C 252.647743 161.554409 253.094774 160.475179 253.094774 159.350018 
C 253.094774 158.224856 252.647743 157.145627 251.852134 156.350018 
C 251.056524 155.554409 249.977295 155.107377 248.852134 155.107377 
C 247.726972 155.107377 246.647743 155.554409 245.852134 156.350018 
C 245.056524 157.145627 244.609493 158.224856 244.609493 159.350018 
C 244.609493 160.475179 245.056524 161.554409 245.852134 162.350018 
C 246.647743 163.145627 247.726972 163.592659 248.852134 163.592659 
z
" style="fill:#1f77b4;stroke:#ffffff;stroke-width:0.75;"/>
    <path clip-path="url(#p505a7838ba)" d="M 277.022563 180.100258 
C 278.147007 180.100258 279.225548 179.653512 280.02065 178.85841 
C 280.815752 178.063307 281.262498 176.984766 281.262498 175.860322 
C 281.262498 174.735878 280.815752 173.657337 280.02065 172.862235 
C 279.225548 172.067133 278.147007 171.620386 277.022563 171.620386 
C 275.898118 171.620386 274.819577 172.067133 274.024475 172.862235 
C 273.229373 173.657337 272.782627 174.735878 272.782627 175.860322 
C 272.782627 176.984766 273.229373 178.063307 274.024475 178.85841 
C 274.819577 179.653512 275.898118 180.100258 277.022563 180.100258 
z
" style="fill:#1f77b4;stroke:#ffffff;stroke-width:0.75;"/>
    <path clip-path="url(#p505a7838ba)" d="M 316.974921 202.133074 
C 318.077658 202.133074 319.135377 201.694952 319.915129 200.9152 
C 320.694882 200.135448 321.133003 199.077728 321.133003 197.974992 
C 321.133003 196.872256 320.694882 195.814536 319.915129 195.034784 
C 319.135377 194.255032 318.077658 193.81691 316.974921 193.81691 
C 315.872185 193.81691 314.814466 194.255032 314.034713 195.034784 
C 313.254961 195.814536 312.816839 196.872256 312.816839 197.974992 
C 312.816839 199.077728 313.254961 200.135448 314.034713 200.9152 
C 314.814466 201.694952 315.872185 202.133074 316.974921 202.133074 
z
" style="fill:#1f77b4;stroke:#ffffff;stroke-width:0.75;"/>
    <path clip-path="url(#p505a7838ba)" d="M 360.001594 224.703753 
C 361.106397 224.703753 362.166098 224.26481 362.947311 223.483597 
C 363.728524 222.702384 364.167466 221.642683 364.167466 220.537881 
C 364.167466 219.433079 363.728524 218.373378 362.947311 217.592165 
C 362.166098 216.810952 361.106397 216.372009 360.001594 216.372009 
C 358.896792 216.372009 357.837091 216.810952 357.055878 217.592165 
C 356.274665 218.373378 355.835723 219.433079 355.835723 220.537881 
C 355.835723 221.642683 356.274665 222.702384 357.055878 223.483597 
C 357.837091 224.26481 358.896792 224.703753 360.001594 224.703753 
z
" style="fill:#1f77b4;stroke:#ffffff;stroke-width:0.75;"/>
    <path clip-path="url(#p505a7838ba)" d="M 412.686299 249.859851 
C 413.502024 249.859851 414.284449 249.53576 414.861254 248.958955 
C 415.438059 248.38215 415.76215 247.599725 415.76215 246.784 
C 415.76215 245.968275 415.438059 245.18585 414.861254 244.609045 
C 414.284449 244.03224 413.502024 243.708149 412.686299 243.708149 
C 411.870574 243.708149 411.088149 244.03224 410.511344 244.609045 
C 409.934539 245.18585 409.610448 245.968275 409.610448 246.784 
C 409.610448 247.599725 409.934539 248.38215 410.511344 248.958955 
C 411.088149 249.53576 411.870574 249.859851 412.686299 249.859851 
z
" style="fill:#1f77b4;stroke:#ffffff;stroke-width:0.75;"/>
    <path clip-path="url(#p505a7838ba)" d="M 467.455059 274.890406 
C 468.01764 274.890406 468.557255 274.66689 468.955059 274.269086 
C 469.352864 273.871281 469.57638 273.331667 469.57638 272.769086 
C 469.57638 272.206505 469.352864 271.66689 468.955059 271.269086 
C 468.557255 270.871281 468.01764 270.647765 467.455059 270.647765 
C 466.892478 270.647765 466.352864 270.871281 465.955059 271.269086 
C 465.557255 271.66689 465.333739 272.206505 465.333739 272.769086 
C 465.333739 273.331667 465.557255 273.871281 465.955059 274.269086 
C 466.352864 274.66689 466.892478 274.890406 467.455059 274.890406 
z
" style="fill:#1f77b4;stroke:#ffffff;stroke-width:0.75;"/>
    <path clip-path="url(#p505a7838ba)" d="M 519.529228 300.381009 
C 520.59755 300.381009 521.622261 299.95656 522.377679 299.201142 
C 523.133097 298.445724 523.557546 297.421014 523.557546 296.352692 
C 523.557546 295.284369 523.133097 294.259659 522.377679 293.504241 
C 521.622261 292.748823 520.59755 292.324374 519.529228 292.324374 
C 518.460906 292.324374 517.436195 292.748823 516.680777 293.504241 
C 515.925359 294.259659 515.50091 295.284369 515.50091 296.352692 
C 515.50091 297.421014 515.925359 298.445724 516.680777 299.201142 
C 517.436195 299.95656 518.460906 300.381009 519.529228 300.381009 
z
" style="fill:#1f77b4;stroke:#ffffff;stroke-width:0.75;"/>
    <path clip-path="url(#p505a7838ba)" d="M 565.494691 319.895505 
C 566.457601 319.895505 567.381202 319.512937 568.062082 318.832057 
C 568.742962 318.151177 569.12553 317.227577 569.12553 316.264667 
C 569.12553 315.301757 568.742962 314.378156 568.062082 313.697277 
C 567.381202 313.016397 566.457601 312.633829 565.494691 312.633829 
C 564.531782 312.633829 563.608181 313.016397 562.927301 313.697277 
C 562.246421 314.378156 561.863853 315.301757 561.863853 316.264667 
C 561.863853 317.227577 562.246421 318.151177 562.927301 318.832057 
C 563.608181 319.512937 564.531782 319.895505 565.494691 319.895505 
z
" style="fill:#1f77b4;stroke:#ffffff;stroke-width:0.75;"/>
    <path clip-path="url(#p505a7838ba)" d="M 614.56848 340.651077 
C 615.632925 340.651077 616.653916 340.228169 617.406592 339.475493 
C 618.159268 338.722817 618.582176 337.701826 618.582176 336.637381 
C 618.582176 335.572936 618.159268 334.551945 617.406592 333.799269 
C 616.653916 333.046593 615.632925 332.623685 614.56848 332.623685 
C 613.504035 332.623685 612.483044 333.046593 611.730368 333.799269 
C 610.977692 334.551945 610.554784 335.572936 610.554784 336.637381 
C 610.554784 337.701826 610.977692 338.722817 611.730368 339.475493 
C 612.483044 340.228169 613.504035 340.651077 614.56848 340.651077 
z
" style="fill:#1f77b4;stroke:#ffffff;stroke-width:0.75;"/>
    <path clip-path="url(#p505a7838ba)" d="M 769.205988 399.638788 
C 770.213753 399.638788 771.180378 399.238399 771.892975 398.525801 
C 772.605573 397.813204 773.005962 396.846579 773.005962 395.838814 
C 773.005962 394.831049 772.605573 393.864424 771.892975 393.151827 
C 771.180378 392.43923 770.213753 392.03884 769.205988 392.03884 
C 768.198223 392.03884 767.231598 392.43923 766.519001 393.151827 
C 765.806404 393.864424 765.406014 394.831049 765.406014 395.838814 
C 765.406014 396.846579 765.806404 397.813204 766.519001 398.525801 
C 767.231598 399.238399 768.198223 399.638788 769.205988 399.638788 
z
" style="fill:#1f77b4;stroke:#ffffff;stroke-width:0.75;"/>
   </g>
   <g id="PathCollection_2"/>
   <g id="PathCollection_3"/>
   <g id="PathCollection_4"/>
   <g id="PathCollection_5"/>
   <g id="PathCollection_6"/>
   <g id="patch_3">
    <path clip-path="url(#p505a7838ba)" d="z
" style="fill:#808080;stroke:#808080;stroke-linejoin:miter;"/>
   </g>
   <g id="patch_4">
    <path clip-path="url(#p505a7838ba)" d="M 174.167761 110.792425 
L 172.089672 111.026379 
L 172.190054 109.470582 
L 150.972937 94.370862 
L 150.983503 94.207094 
L 172.200621 109.306814 
L 172.301003 107.751017 
z
" style="fill:#808080;stroke:#808080;stroke-linejoin:miter;"/>
   </g>
   <g id="patch_5">
    <path clip-path="url(#p505a7838ba)" d="M 210.873393 135.428324 
L 208.796463 135.756791 
L 208.89042 134.196573 
L 184.26956 117.84263 
L 184.27945 117.678397 
L 208.90031 134.03234 
L 208.994266 132.472122 
z
" style="fill:#808080;stroke:#808080;stroke-linejoin:miter;"/>
   </g>
   <g id="patch_6">
    <path clip-path="url(#p505a7838ba)" d="M 243.762097 156.180367 
L 241.68651 156.59191 
L 241.7748 155.028046 
L 221.342594 142.304568 
L 221.351887 142.139951 
L 241.784094 154.863429 
L 241.872384 153.299565 
z
" style="fill:#808080;stroke:#808080;stroke-linejoin:miter;"/>
   </g>
   <g id="patch_7">
    <path clip-path="url(#p505a7838ba)" d="M 272.670722 173.309768 
L 270.596576 173.794878 
L 270.679834 172.227972 
L 252.369055 161.496275 
L 252.377819 161.331337 
L 270.688598 172.063035 
L 270.771856 170.49613 
z
" style="fill:#808080;stroke:#808080;stroke-linejoin:miter;"/>
   </g>
   <g id="patch_8">
    <path clip-path="url(#p505a7838ba)" d="M 309.975395 194.100572 
L 307.902734 194.651262 
L 307.981495 193.081795 
L 282.012462 178.707259 
L 282.020753 178.542052 
L 307.989786 192.916588 
L 308.068547 191.34712 
z
" style="fill:#808080;stroke:#808080;stroke-linejoin:miter;"/>
   </g>
   <g id="patch_9">
    <path clip-path="url(#p505a7838ba)" d="M 352.313109 216.506092 
L 350.241941 217.115595 
L 350.31666 215.543949 
L 322.349323 200.878071 
L 322.357188 200.712635 
L 350.324526 215.378513 
L 350.399245 213.806867 
z
" style="fill:#808080;stroke:#808080;stroke-linejoin:miter;"/>
   </g>
   <g id="patch_10">
    <path clip-path="url(#p505a7838ba)" d="M 402.827123 241.872421 
L 400.757432 242.534952 
L 400.8285 240.96144 
L 366.583442 223.901462 
L 366.590923 223.735829 
L 400.835981 240.795807 
L 400.907048 239.222294 
z
" style="fill:#808080;stroke:#808080;stroke-linejoin:miter;"/>
   </g>
   <g id="patch_11">
    <path clip-path="url(#p505a7838ba)" d="M 457.129015 267.869885 
L 455.060769 268.580468 
L 455.128522 267.005343 
L 419.528828 250.115037 
L 419.53596 249.949234 
L 455.135654 266.83954 
L 455.203407 265.264415 
z
" style="fill:#808080;stroke:#808080;stroke-linejoin:miter;"/>
   </g>
   <g id="patch_12">
    <path clip-path="url(#p505a7838ba)" d="M 509.811243 291.951563 
L 507.744402 292.705881 
L 507.809133 291.129355 
L 473.960923 275.800012 
L 473.967737 275.634061 
L 507.815947 290.963405 
L 507.880678 289.386879 
z
" style="fill:#808080;stroke:#808080;stroke-linejoin:miter;"/>
   </g>
   <g id="patch_13">
    <path clip-path="url(#p505a7838ba)" d="M 557.152719 312.650972 
L 555.087236 313.445264 
L 555.149201 311.867512 
L 525.27165 298.924728 
L 525.278172 298.758649 
L 555.155723 311.701433 
L 555.217688 310.123681 
z
" style="fill:#808080;stroke:#808080;stroke-linejoin:miter;"/>
   </g>
   <g id="patch_14">
    <path clip-path="url(#p505a7838ba)" d="M 605.528501 332.884483 
L 603.464327 333.715446 
L 603.52375 332.136617 
L 571.625787 318.894352 
L 571.632043 318.72816 
L 603.530005 331.970424 
L 603.589428 330.391594 
z
" style="fill:#808080;stroke:#808080;stroke-linejoin:miter;"/>
   </g>
   <g id="patch_15">
    <path clip-path="url(#p505a7838ba)" d="M 736.416479 383.285676 
L 734.354799 384.182333 
L 734.409661 382.601684 
L 633.895281 344.120752 
L 633.901056 343.954368 
L 734.415436 382.4353 
L 734.470299 380.85465 
z
" style="fill:#808080;stroke:#808080;stroke-linejoin:miter;"/>
   </g>
   <g id="matplotlib.axis_1">
    <g id="xtick_1">
     <g id="line2d_1">
      <defs>
       <path d="M 0 0 
L 0 3.5 
" id="mfd2169f051" style="stroke:#000000;stroke-width:0.8;"/>
      </defs>
      <g>
       <use style="stroke:#000000;stroke-width:0.8;" x="137.834063" xlink:href="#mfd2169f051" y="429.336"/>
      </g>
     </g>
     <g id="text_1">
      <!-- 1.4 -->
      <defs>
       <path d="M 12.40625 8.296875 
L 28.515625 8.296875 
L 28.515625 63.921875 
L 10.984375 60.40625 
L 10.984375 69.390625 
L 28.421875 72.90625 
L 38.28125 72.90625 
L 38.28125 8.296875 
L 54.390625 8.296875 
L 54.390625 0 
L 12.40625 0 
z
" id="DejaVuSans-49"/>
       <path d="M 10.6875 12.40625 
L 21 12.40625 
L 21 0 
L 10.6875 0 
z
" id="DejaVuSans-46"/>
       <path d="M 37.796875 64.3125 
L 12.890625 25.390625 
L 37.796875 25.390625 
z
M 35.203125 72.90625 
L 47.609375 72.90625 
L 47.609375 25.390625 
L 58.015625 25.390625 
L 58.015625 17.1875 
L 47.609375 17.1875 
L 47.609375 0 
L 37.796875 0 
L 37.796875 17.1875 
L 4.890625 17.1875 
L 4.890625 26.703125 
z
" id="DejaVuSans-52"/>
      </defs>
      <g transform="translate(129.882501 443.934438)scale(0.1 -0.1)">
       <use xlink:href="#DejaVuSans-49"/>
       <use x="63.623047" xlink:href="#DejaVuSans-46"/>
       <use x="95.410156" xlink:href="#DejaVuSans-52"/>
      </g>
     </g>
    </g>
    <g id="xtick_2">
     <g id="line2d_2">
      <g>
       <use style="stroke:#000000;stroke-width:0.8;" x="238.69408" xlink:href="#mfd2169f051" y="429.336"/>
      </g>
     </g>
     <g id="text_2">
      <!-- 1.5 -->
      <defs>
       <path d="M 10.796875 72.90625 
L 49.515625 72.90625 
L 49.515625 64.59375 
L 19.828125 64.59375 
L 19.828125 46.734375 
Q 21.96875 47.46875 24.109375 47.828125 
Q 26.265625 48.1875 28.421875 48.1875 
Q 40.625 48.1875 47.75 41.5 
Q 54.890625 34.8125 54.890625 23.390625 
Q 54.890625 11.625 47.5625 5.09375 
Q 40.234375 -1.421875 26.90625 -1.421875 
Q 22.3125 -1.421875 17.546875 -0.640625 
Q 12.796875 0.140625 7.71875 1.703125 
L 7.71875 11.625 
Q 12.109375 9.234375 16.796875 8.0625 
Q 21.484375 6.890625 26.703125 6.890625 
Q 35.15625 6.890625 40.078125 11.328125 
Q 45.015625 15.765625 45.015625 23.390625 
Q 45.015625 31 40.078125 35.4375 
Q 35.15625 39.890625 26.703125 39.890625 
Q 22.75 39.890625 18.8125 39.015625 
Q 14.890625 38.140625 10.796875 36.28125 
z
" id="DejaVuSans-53"/>
      </defs>
      <g transform="translate(230.742518 443.934438)scale(0.1 -0.1)">
       <use xlink:href="#DejaVuSans-49"/>
       <use x="63.623047" xlink:href="#DejaVuSans-46"/>
       <use x="95.410156" xlink:href="#DejaVuSans-53"/>
      </g>
     </g>
    </g>
    <g id="xtick_3">
     <g id="line2d_3">
      <g>
       <use style="stroke:#000000;stroke-width:0.8;" x="339.554098" xlink:href="#mfd2169f051" y="429.336"/>
      </g>
     </g>
     <g id="text_3">
      <!-- 1.6 -->
      <defs>
       <path d="M 33.015625 40.375 
Q 26.375 40.375 22.484375 35.828125 
Q 18.609375 31.296875 18.609375 23.390625 
Q 18.609375 15.53125 22.484375 10.953125 
Q 26.375 6.390625 33.015625 6.390625 
Q 39.65625 6.390625 43.53125 10.953125 
Q 47.40625 15.53125 47.40625 23.390625 
Q 47.40625 31.296875 43.53125 35.828125 
Q 39.65625 40.375 33.015625 40.375 
z
M 52.59375 71.296875 
L 52.59375 62.3125 
Q 48.875 64.0625 45.09375 64.984375 
Q 41.3125 65.921875 37.59375 65.921875 
Q 27.828125 65.921875 22.671875 59.328125 
Q 17.53125 52.734375 16.796875 39.40625 
Q 19.671875 43.65625 24.015625 45.921875 
Q 28.375 48.1875 33.59375 48.1875 
Q 44.578125 48.1875 50.953125 41.515625 
Q 57.328125 34.859375 57.328125 23.390625 
Q 57.328125 12.15625 50.6875 5.359375 
Q 44.046875 -1.421875 33.015625 -1.421875 
Q 20.359375 -1.421875 13.671875 8.265625 
Q 6.984375 17.96875 6.984375 36.375 
Q 6.984375 53.65625 15.1875 63.9375 
Q 23.390625 74.21875 37.203125 74.21875 
Q 40.921875 74.21875 44.703125 73.484375 
Q 48.484375 72.75 52.59375 71.296875 
z
" id="DejaVuSans-54"/>
      </defs>
      <g transform="translate(331.602535 443.934438)scale(0.1 -0.1)">
       <use xlink:href="#DejaVuSans-49"/>
       <use x="63.623047" xlink:href="#DejaVuSans-46"/>
       <use x="95.410156" xlink:href="#DejaVuSans-54"/>
      </g>
     </g>
    </g>
    <g id="xtick_4">
     <g id="line2d_4">
      <g>
       <use style="stroke:#000000;stroke-width:0.8;" x="440.414115" xlink:href="#mfd2169f051" y="429.336"/>
      </g>
     </g>
     <g id="text_4">
      <!-- 1.7 -->
      <defs>
       <path d="M 8.203125 72.90625 
L 55.078125 72.90625 
L 55.078125 68.703125 
L 28.609375 0 
L 18.3125 0 
L 43.21875 64.59375 
L 8.203125 64.59375 
z
" id="DejaVuSans-55"/>
      </defs>
      <g transform="translate(432.462552 443.934438)scale(0.1 -0.1)">
       <use xlink:href="#DejaVuSans-49"/>
       <use x="63.623047" xlink:href="#DejaVuSans-46"/>
       <use x="95.410156" xlink:href="#DejaVuSans-55"/>
      </g>
     </g>
    </g>
    <g id="xtick_5">
     <g id="line2d_5">
      <g>
       <use style="stroke:#000000;stroke-width:0.8;" x="541.274132" xlink:href="#mfd2169f051" y="429.336"/>
      </g>
     </g>
     <g id="text_5">
      <!-- 1.8 -->
      <defs>
       <path d="M 31.78125 34.625 
Q 24.75 34.625 20.71875 30.859375 
Q 16.703125 27.09375 16.703125 20.515625 
Q 16.703125 13.921875 20.71875 10.15625 
Q 24.75 6.390625 31.78125 6.390625 
Q 38.8125 6.390625 42.859375 10.171875 
Q 46.921875 13.96875 46.921875 20.515625 
Q 46.921875 27.09375 42.890625 30.859375 
Q 38.875 34.625 31.78125 34.625 
z
M 21.921875 38.8125 
Q 15.578125 40.375 12.03125 44.71875 
Q 8.5 49.078125 8.5 55.328125 
Q 8.5 64.0625 14.71875 69.140625 
Q 20.953125 74.21875 31.78125 74.21875 
Q 42.671875 74.21875 48.875 69.140625 
Q 55.078125 64.0625 55.078125 55.328125 
Q 55.078125 49.078125 51.53125 44.71875 
Q 48 40.375 41.703125 38.8125 
Q 48.828125 37.15625 52.796875 32.3125 
Q 56.78125 27.484375 56.78125 20.515625 
Q 56.78125 9.90625 50.3125 4.234375 
Q 43.84375 -1.421875 31.78125 -1.421875 
Q 19.734375 -1.421875 13.25 4.234375 
Q 6.78125 9.90625 6.78125 20.515625 
Q 6.78125 27.484375 10.78125 32.3125 
Q 14.796875 37.15625 21.921875 38.8125 
z
M 18.3125 54.390625 
Q 18.3125 48.734375 21.84375 45.5625 
Q 25.390625 42.390625 31.78125 42.390625 
Q 38.140625 42.390625 41.71875 45.5625 
Q 45.3125 48.734375 45.3125 54.390625 
Q 45.3125 60.0625 41.71875 63.234375 
Q 38.140625 66.40625 31.78125 66.40625 
Q 25.390625 66.40625 21.84375 63.234375 
Q 18.3125 60.0625 18.3125 54.390625 
z
" id="DejaVuSans-56"/>
      </defs>
      <g transform="translate(533.322569 443.934438)scale(0.1 -0.1)">
       <use xlink:href="#DejaVuSans-49"/>
       <use x="63.623047" xlink:href="#DejaVuSans-46"/>
       <use x="95.410156" xlink:href="#DejaVuSans-56"/>
      </g>
     </g>
    </g>
    <g id="xtick_6">
     <g id="line2d_6">
      <g>
       <use style="stroke:#000000;stroke-width:0.8;" x="642.134149" xlink:href="#mfd2169f051" y="429.336"/>
      </g>
     </g>
     <g id="text_6">
      <!-- 1.9 -->
      <defs>
       <path d="M 10.984375 1.515625 
L 10.984375 10.5 
Q 14.703125 8.734375 18.5 7.8125 
Q 22.3125 6.890625 25.984375 6.890625 
Q 35.75 6.890625 40.890625 13.453125 
Q 46.046875 20.015625 46.78125 33.40625 
Q 43.953125 29.203125 39.59375 26.953125 
Q 35.25 24.703125 29.984375 24.703125 
Q 19.046875 24.703125 12.671875 31.3125 
Q 6.296875 37.9375 6.296875 49.421875 
Q 6.296875 60.640625 12.9375 67.421875 
Q 19.578125 74.21875 30.609375 74.21875 
Q 43.265625 74.21875 49.921875 64.515625 
Q 56.59375 54.828125 56.59375 36.375 
Q 56.59375 19.140625 48.40625 8.859375 
Q 40.234375 -1.421875 26.421875 -1.421875 
Q 22.703125 -1.421875 18.890625 -0.6875 
Q 15.09375 0.046875 10.984375 1.515625 
z
M 30.609375 32.421875 
Q 37.25 32.421875 41.125 36.953125 
Q 45.015625 41.5 45.015625 49.421875 
Q 45.015625 57.28125 41.125 61.84375 
Q 37.25 66.40625 30.609375 66.40625 
Q 23.96875 66.40625 20.09375 61.84375 
Q 16.21875 57.28125 16.21875 49.421875 
Q 16.21875 41.5 20.09375 36.953125 
Q 23.96875 32.421875 30.609375 32.421875 
z
" id="DejaVuSans-57"/>
      </defs>
      <g transform="translate(634.182586 443.934438)scale(0.1 -0.1)">
       <use xlink:href="#DejaVuSans-49"/>
       <use x="63.623047" xlink:href="#DejaVuSans-46"/>
       <use x="95.410156" xlink:href="#DejaVuSans-57"/>
      </g>
     </g>
    </g>
    <g id="xtick_7">
     <g id="line2d_7">
      <g>
       <use style="stroke:#000000;stroke-width:0.8;" x="742.994166" xlink:href="#mfd2169f051" y="429.336"/>
      </g>
     </g>
     <g id="text_7">
      <!-- 2.0 -->
      <defs>
       <path d="M 19.1875 8.296875 
L 53.609375 8.296875 
L 53.609375 0 
L 7.328125 0 
L 7.328125 8.296875 
Q 12.9375 14.109375 22.625 23.890625 
Q 32.328125 33.6875 34.8125 36.53125 
Q 39.546875 41.84375 41.421875 45.53125 
Q 43.3125 49.21875 43.3125 52.78125 
Q 43.3125 58.59375 39.234375 62.25 
Q 35.15625 65.921875 28.609375 65.921875 
Q 23.96875 65.921875 18.8125 64.3125 
Q 13.671875 62.703125 7.8125 59.421875 
L 7.8125 69.390625 
Q 13.765625 71.78125 18.9375 73 
Q 24.125 74.21875 28.421875 74.21875 
Q 39.75 74.21875 46.484375 68.546875 
Q 53.21875 62.890625 53.21875 53.421875 
Q 53.21875 48.921875 51.53125 44.890625 
Q 49.859375 40.875 45.40625 35.40625 
Q 44.1875 33.984375 37.640625 27.21875 
Q 31.109375 20.453125 19.1875 8.296875 
z
" id="DejaVuSans-50"/>
       <path d="M 31.78125 66.40625 
Q 24.171875 66.40625 20.328125 58.90625 
Q 16.5 51.421875 16.5 36.375 
Q 16.5 21.390625 20.328125 13.890625 
Q 24.171875 6.390625 31.78125 6.390625 
Q 39.453125 6.390625 43.28125 13.890625 
Q 47.125 21.390625 47.125 36.375 
Q 47.125 51.421875 43.28125 58.90625 
Q 39.453125 66.40625 31.78125 66.40625 
z
M 31.78125 74.21875 
Q 44.046875 74.21875 50.515625 64.515625 
Q 56.984375 54.828125 56.984375 36.375 
Q 56.984375 17.96875 50.515625 8.265625 
Q 44.046875 -1.421875 31.78125 -1.421875 
Q 19.53125 -1.421875 13.0625 8.265625 
Q 6.59375 17.96875 6.59375 36.375 
Q 6.59375 54.828125 13.0625 64.515625 
Q 19.53125 74.21875 31.78125 74.21875 
z
" id="DejaVuSans-48"/>
      </defs>
      <g transform="translate(735.042604 443.934438)scale(0.1 -0.1)">
       <use xlink:href="#DejaVuSans-50"/>
       <use x="63.623047" xlink:href="#DejaVuSans-46"/>
       <use x="95.410156" xlink:href="#DejaVuSans-48"/>
      </g>
     </g>
    </g>
    <g id="text_8">
     <!-- intercept -->
     <defs>
      <path d="M 9.421875 54.6875 
L 18.40625 54.6875 
L 18.40625 0 
L 9.421875 0 
z
M 9.421875 75.984375 
L 18.40625 75.984375 
L 18.40625 64.59375 
L 9.421875 64.59375 
z
" id="DejaVuSans-105"/>
      <path d="M 54.890625 33.015625 
L 54.890625 0 
L 45.90625 0 
L 45.90625 32.71875 
Q 45.90625 40.484375 42.875 44.328125 
Q 39.84375 48.1875 33.796875 48.1875 
Q 26.515625 48.1875 22.3125 43.546875 
Q 18.109375 38.921875 18.109375 30.90625 
L 18.109375 0 
L 9.078125 0 
L 9.078125 54.6875 
L 18.109375 54.6875 
L 18.109375 46.1875 
Q 21.34375 51.125 25.703125 53.5625 
Q 30.078125 56 35.796875 56 
Q 45.21875 56 50.046875 50.171875 
Q 54.890625 44.34375 54.890625 33.015625 
z
" id="DejaVuSans-110"/>
      <path d="M 18.3125 70.21875 
L 18.3125 54.6875 
L 36.8125 54.6875 
L 36.8125 47.703125 
L 18.3125 47.703125 
L 18.3125 18.015625 
Q 18.3125 11.328125 20.140625 9.421875 
Q 21.96875 7.515625 27.59375 7.515625 
L 36.8125 7.515625 
L 36.8125 0 
L 27.59375 0 
Q 17.1875 0 13.234375 3.875 
Q 9.28125 7.765625 9.28125 18.015625 
L 9.28125 47.703125 
L 2.6875 47.703125 
L 2.6875 54.6875 
L 9.28125 54.6875 
L 9.28125 70.21875 
z
" id="DejaVuSans-116"/>
      <path d="M 56.203125 29.59375 
L 56.203125 25.203125 
L 14.890625 25.203125 
Q 15.484375 15.921875 20.484375 11.0625 
Q 25.484375 6.203125 34.421875 6.203125 
Q 39.59375 6.203125 44.453125 7.46875 
Q 49.3125 8.734375 54.109375 11.28125 
L 54.109375 2.78125 
Q 49.265625 0.734375 44.1875 -0.34375 
Q 39.109375 -1.421875 33.890625 -1.421875 
Q 20.796875 -1.421875 13.15625 6.1875 
Q 5.515625 13.8125 5.515625 26.8125 
Q 5.515625 40.234375 12.765625 48.109375 
Q 20.015625 56 32.328125 56 
Q 43.359375 56 49.78125 48.890625 
Q 56.203125 41.796875 56.203125 29.59375 
z
M 47.21875 32.234375 
Q 47.125 39.59375 43.09375 43.984375 
Q 39.0625 48.390625 32.421875 48.390625 
Q 24.90625 48.390625 20.390625 44.140625 
Q 15.875 39.890625 15.1875 32.171875 
z
" id="DejaVuSans-101"/>
      <path d="M 41.109375 46.296875 
Q 39.59375 47.171875 37.8125 47.578125 
Q 36.03125 48 33.890625 48 
Q 26.265625 48 22.1875 43.046875 
Q 18.109375 38.09375 18.109375 28.8125 
L 18.109375 0 
L 9.078125 0 
L 9.078125 54.6875 
L 18.109375 54.6875 
L 18.109375 46.1875 
Q 20.953125 51.171875 25.484375 53.578125 
Q 30.03125 56 36.53125 56 
Q 37.453125 56 38.578125 55.875 
Q 39.703125 55.765625 41.0625 55.515625 
z
" id="DejaVuSans-114"/>
      <path d="M 48.78125 52.59375 
L 48.78125 44.1875 
Q 44.96875 46.296875 41.140625 47.34375 
Q 37.3125 48.390625 33.40625 48.390625 
Q 24.65625 48.390625 19.8125 42.84375 
Q 14.984375 37.3125 14.984375 27.296875 
Q 14.984375 17.28125 19.8125 11.734375 
Q 24.65625 6.203125 33.40625 6.203125 
Q 37.3125 6.203125 41.140625 7.25 
Q 44.96875 8.296875 48.78125 10.40625 
L 48.78125 2.09375 
Q 45.015625 0.34375 40.984375 -0.53125 
Q 36.96875 -1.421875 32.421875 -1.421875 
Q 20.0625 -1.421875 12.78125 6.34375 
Q 5.515625 14.109375 5.515625 27.296875 
Q 5.515625 40.671875 12.859375 48.328125 
Q 20.21875 56 33.015625 56 
Q 37.15625 56 41.109375 55.140625 
Q 45.0625 54.296875 48.78125 52.59375 
z
" id="DejaVuSans-99"/>
      <path d="M 18.109375 8.203125 
L 18.109375 -20.796875 
L 9.078125 -20.796875 
L 9.078125 54.6875 
L 18.109375 54.6875 
L 18.109375 46.390625 
Q 20.953125 51.265625 25.265625 53.625 
Q 29.59375 56 35.59375 56 
Q 45.5625 56 51.78125 48.09375 
Q 58.015625 40.1875 58.015625 27.296875 
Q 58.015625 14.40625 51.78125 6.484375 
Q 45.5625 -1.421875 35.59375 -1.421875 
Q 29.59375 -1.421875 25.265625 0.953125 
Q 20.953125 3.328125 18.109375 8.203125 
z
M 48.6875 27.296875 
Q 48.6875 37.203125 44.609375 42.84375 
Q 40.53125 48.484375 33.40625 48.484375 
Q 26.265625 48.484375 22.1875 42.84375 
Q 18.109375 37.203125 18.109375 27.296875 
Q 18.109375 17.390625 22.1875 11.75 
Q 26.265625 6.109375 33.40625 6.109375 
Q 40.53125 6.109375 44.609375 11.75 
Q 48.6875 17.390625 48.6875 27.296875 
z
" id="DejaVuSans-112"/>
     </defs>
     <g transform="translate(455.615406 457.612563)scale(0.1 -0.1)">
      <use xlink:href="#DejaVuSans-105"/>
      <use x="27.783203" xlink:href="#DejaVuSans-110"/>
      <use x="91.162109" xlink:href="#DejaVuSans-116"/>
      <use x="130.371094" xlink:href="#DejaVuSans-101"/>
      <use x="191.894531" xlink:href="#DejaVuSans-114"/>
      <use x="232.976562" xlink:href="#DejaVuSans-99"/>
      <use x="287.957031" xlink:href="#DejaVuSans-101"/>
      <use x="349.480469" xlink:href="#DejaVuSans-112"/>
      <use x="412.957031" xlink:href="#DejaVuSans-116"/>
     </g>
    </g>
   </g>
   <g id="matplotlib.axis_2">
    <g id="ytick_1">
     <g id="line2d_8">
      <defs>
       <path d="M 0 0 
L -3.5 0 
" id="m1d4146ff8b" style="stroke:#000000;stroke-width:0.8;"/>
      </defs>
      <g>
       <use style="stroke:#000000;stroke-width:0.8;" x="116.64" xlink:href="#m1d4146ff8b" y="399.212061"/>
      </g>
     </g>
     <g id="text_9">
      <!-- 0.24 -->
      <g transform="translate(87.374375 403.01128)scale(0.1 -0.1)">
       <use xlink:href="#DejaVuSans-48"/>
       <use x="63.623047" xlink:href="#DejaVuSans-46"/>
       <use x="95.410156" xlink:href="#DejaVuSans-50"/>
       <use x="159.033203" xlink:href="#DejaVuSans-52"/>
      </g>
     </g>
    </g>
    <g id="ytick_2">
     <g id="line2d_9">
      <g>
       <use style="stroke:#000000;stroke-width:0.8;" x="116.64" xlink:href="#m1d4146ff8b" y="332.217689"/>
      </g>
     </g>
     <g id="text_10">
      <!-- 0.26 -->
      <g transform="translate(87.374375 336.016908)scale(0.1 -0.1)">
       <use xlink:href="#DejaVuSans-48"/>
       <use x="63.623047" xlink:href="#DejaVuSans-46"/>
       <use x="95.410156" xlink:href="#DejaVuSans-50"/>
       <use x="159.033203" xlink:href="#DejaVuSans-54"/>
      </g>
     </g>
    </g>
    <g id="ytick_3">
     <g id="line2d_10">
      <g>
       <use style="stroke:#000000;stroke-width:0.8;" x="116.64" xlink:href="#m1d4146ff8b" y="265.223317"/>
      </g>
     </g>
     <g id="text_11">
      <!-- 0.28 -->
      <g transform="translate(87.374375 269.022536)scale(0.1 -0.1)">
       <use xlink:href="#DejaVuSans-48"/>
       <use x="63.623047" xlink:href="#DejaVuSans-46"/>
       <use x="95.410156" xlink:href="#DejaVuSans-50"/>
       <use x="159.033203" xlink:href="#DejaVuSans-56"/>
      </g>
     </g>
    </g>
    <g id="ytick_4">
     <g id="line2d_11">
      <g>
       <use style="stroke:#000000;stroke-width:0.8;" x="116.64" xlink:href="#m1d4146ff8b" y="198.228946"/>
      </g>
     </g>
     <g id="text_12">
      <!-- 0.30 -->
      <defs>
       <path d="M 40.578125 39.3125 
Q 47.65625 37.796875 51.625 33 
Q 55.609375 28.21875 55.609375 21.1875 
Q 55.609375 10.40625 48.1875 4.484375 
Q 40.765625 -1.421875 27.09375 -1.421875 
Q 22.515625 -1.421875 17.65625 -0.515625 
Q 12.796875 0.390625 7.625 2.203125 
L 7.625 11.71875 
Q 11.71875 9.328125 16.59375 8.109375 
Q 21.484375 6.890625 26.8125 6.890625 
Q 36.078125 6.890625 40.9375 10.546875 
Q 45.796875 14.203125 45.796875 21.1875 
Q 45.796875 27.640625 41.28125 31.265625 
Q 36.765625 34.90625 28.71875 34.90625 
L 20.21875 34.90625 
L 20.21875 43.015625 
L 29.109375 43.015625 
Q 36.375 43.015625 40.234375 45.921875 
Q 44.09375 48.828125 44.09375 54.296875 
Q 44.09375 59.90625 40.109375 62.90625 
Q 36.140625 65.921875 28.71875 65.921875 
Q 24.65625 65.921875 20.015625 65.03125 
Q 15.375 64.15625 9.8125 62.3125 
L 9.8125 71.09375 
Q 15.4375 72.65625 20.34375 73.4375 
Q 25.25 74.21875 29.59375 74.21875 
Q 40.828125 74.21875 47.359375 69.109375 
Q 53.90625 64.015625 53.90625 55.328125 
Q 53.90625 49.265625 50.4375 45.09375 
Q 46.96875 40.921875 40.578125 39.3125 
z
" id="DejaVuSans-51"/>
      </defs>
      <g transform="translate(87.374375 202.028164)scale(0.1 -0.1)">
       <use xlink:href="#DejaVuSans-48"/>
       <use x="63.623047" xlink:href="#DejaVuSans-46"/>
       <use x="95.410156" xlink:href="#DejaVuSans-51"/>
       <use x="159.033203" xlink:href="#DejaVuSans-48"/>
      </g>
     </g>
    </g>
    <g id="ytick_5">
     <g id="line2d_12">
      <g>
       <use style="stroke:#000000;stroke-width:0.8;" x="116.64" xlink:href="#m1d4146ff8b" y="131.234574"/>
      </g>
     </g>
     <g id="text_13">
      <!-- 0.32 -->
      <g transform="translate(87.374375 135.033792)scale(0.1 -0.1)">
       <use xlink:href="#DejaVuSans-48"/>
       <use x="63.623047" xlink:href="#DejaVuSans-46"/>
       <use x="95.410156" xlink:href="#DejaVuSans-51"/>
       <use x="159.033203" xlink:href="#DejaVuSans-50"/>
      </g>
     </g>
    </g>
    <g id="ytick_6">
     <g id="line2d_13">
      <g>
       <use style="stroke:#000000;stroke-width:0.8;" x="116.64" xlink:href="#m1d4146ff8b" y="64.240202"/>
      </g>
     </g>
     <g id="text_14">
      <!-- 0.34 -->
      <g transform="translate(87.374375 68.039421)scale(0.1 -0.1)">
       <use xlink:href="#DejaVuSans-48"/>
       <use x="63.623047" xlink:href="#DejaVuSans-46"/>
       <use x="95.410156" xlink:href="#DejaVuSans-51"/>
       <use x="159.033203" xlink:href="#DejaVuSans-52"/>
      </g>
     </g>
    </g>
    <g id="text_15">
     <!-- exponent -->
     <defs>
      <path d="M 54.890625 54.6875 
L 35.109375 28.078125 
L 55.90625 0 
L 45.3125 0 
L 29.390625 21.484375 
L 13.484375 0 
L 2.875 0 
L 24.125 28.609375 
L 4.6875 54.6875 
L 15.28125 54.6875 
L 29.78125 35.203125 
L 44.28125 54.6875 
z
" id="DejaVuSans-120"/>
      <path d="M 30.609375 48.390625 
Q 23.390625 48.390625 19.1875 42.75 
Q 14.984375 37.109375 14.984375 27.296875 
Q 14.984375 17.484375 19.15625 11.84375 
Q 23.34375 6.203125 30.609375 6.203125 
Q 37.796875 6.203125 41.984375 11.859375 
Q 46.1875 17.53125 46.1875 27.296875 
Q 46.1875 37.015625 41.984375 42.703125 
Q 37.796875 48.390625 30.609375 48.390625 
z
M 30.609375 56 
Q 42.328125 56 49.015625 48.375 
Q 55.71875 40.765625 55.71875 27.296875 
Q 55.71875 13.875 49.015625 6.21875 
Q 42.328125 -1.421875 30.609375 -1.421875 
Q 18.84375 -1.421875 12.171875 6.21875 
Q 5.515625 13.875 5.515625 27.296875 
Q 5.515625 40.765625 12.171875 48.375 
Q 18.84375 56 30.609375 56 
z
" id="DejaVuSans-111"/>
     </defs>
     <g transform="translate(81.294688 267.254969)rotate(-90)scale(0.1 -0.1)">
      <use xlink:href="#DejaVuSans-101"/>
      <use x="61.507812" xlink:href="#DejaVuSans-120"/>
      <use x="120.6875" xlink:href="#DejaVuSans-112"/>
      <use x="184.164062" xlink:href="#DejaVuSans-111"/>
      <use x="245.345703" xlink:href="#DejaVuSans-110"/>
      <use x="308.724609" xlink:href="#DejaVuSans-101"/>
      <use x="370.248047" xlink:href="#DejaVuSans-110"/>
      <use x="433.626953" xlink:href="#DejaVuSans-116"/>
     </g>
    </g>
   </g>
   <g id="patch_16">
    <path d="M 116.64 429.336 
L 116.64 57.888 
" style="fill:none;stroke:#000000;stroke-linecap:square;stroke-linejoin:miter;stroke-width:0.8;"/>
   </g>
   <g id="patch_17">
    <path d="M 839.808 429.336 
L 839.808 57.888 
" style="fill:none;stroke:#000000;stroke-linecap:square;stroke-linejoin:miter;stroke-width:0.8;"/>
   </g>
   <g id="patch_18">
    <path d="M 116.64 429.336 
L 839.808 429.336 
" style="fill:none;stroke:#000000;stroke-linecap:square;stroke-linejoin:miter;stroke-width:0.8;"/>
   </g>
   <g id="patch_19">
    <path d="M 116.64 57.888 
L 839.808 57.888 
" style="fill:none;stroke:#000000;stroke-linecap:square;stroke-linejoin:miter;stroke-width:0.8;"/>
   </g>
   <g id="text_16">
    <!-- 2020-03-17 -->
    <defs>
     <path d="M 4.890625 31.390625 
L 31.203125 31.390625 
L 31.203125 23.390625 
L 4.890625 23.390625 
z
" id="DejaVuSans-45"/>
    </defs>
    <g transform="translate(147.906605 88.035467)scale(0.1 -0.1)">
     <use xlink:href="#DejaVuSans-50"/>
     <use x="63.623047" xlink:href="#DejaVuSans-48"/>
     <use x="127.246094" xlink:href="#DejaVuSans-50"/>
     <use x="190.869141" xlink:href="#DejaVuSans-48"/>
     <use x="254.492188" xlink:href="#DejaVuSans-45"/>
     <use x="290.576172" xlink:href="#DejaVuSans-48"/>
     <use x="354.199219" xlink:href="#DejaVuSans-51"/>
     <use x="417.822266" xlink:href="#DejaVuSans-45"/>
     <use x="453.90625" xlink:href="#DejaVuSans-49"/>
     <use x="517.529297" xlink:href="#DejaVuSans-55"/>
    </g>
   </g>
   <g id="text_17">
    <!-- 2020-03-18 -->
    <g transform="translate(180.548325 111.265806)scale(0.1 -0.1)">
     <use xlink:href="#DejaVuSans-50"/>
     <use x="63.623047" xlink:href="#DejaVuSans-48"/>
     <use x="127.246094" xlink:href="#DejaVuSans-50"/>
     <use x="190.869141" xlink:href="#DejaVuSans-48"/>
     <use x="254.492188" xlink:href="#DejaVuSans-45"/>
     <use x="290.576172" xlink:href="#DejaVuSans-48"/>
     <use x="354.199219" xlink:href="#DejaVuSans-51"/>
     <use x="417.822266" xlink:href="#DejaVuSans-45"/>
     <use x="453.90625" xlink:href="#DejaVuSans-49"/>
     <use x="517.529297" xlink:href="#DejaVuSans-56"/>
    </g>
   </g>
   <g id="text_18">
    <!-- 2020-03-19 -->
    <g transform="translate(218.42657 136.425719)scale(0.1 -0.1)">
     <use xlink:href="#DejaVuSans-50"/>
     <use x="63.623047" xlink:href="#DejaVuSans-48"/>
     <use x="127.246094" xlink:href="#DejaVuSans-50"/>
     <use x="190.869141" xlink:href="#DejaVuSans-48"/>
     <use x="254.492188" xlink:href="#DejaVuSans-45"/>
     <use x="290.576172" xlink:href="#DejaVuSans-48"/>
     <use x="354.199219" xlink:href="#DejaVuSans-51"/>
     <use x="417.822266" xlink:href="#DejaVuSans-45"/>
     <use x="453.90625" xlink:href="#DejaVuSans-49"/>
     <use x="517.529297" xlink:href="#DejaVuSans-57"/>
    </g>
   </g>
   <g id="text_19">
    <!-- 2020-03-20 -->
    <g transform="translate(249.860734 156.000299)scale(0.1 -0.1)">
     <use xlink:href="#DejaVuSans-50"/>
     <use x="63.623047" xlink:href="#DejaVuSans-48"/>
     <use x="127.246094" xlink:href="#DejaVuSans-50"/>
     <use x="190.869141" xlink:href="#DejaVuSans-48"/>
     <use x="254.492188" xlink:href="#DejaVuSans-45"/>
     <use x="290.576172" xlink:href="#DejaVuSans-48"/>
     <use x="354.199219" xlink:href="#DejaVuSans-51"/>
     <use x="417.822266" xlink:href="#DejaVuSans-45"/>
     <use x="453.90625" xlink:href="#DejaVuSans-50"/>
     <use x="517.529297" xlink:href="#DejaVuSans-48"/>
    </g>
   </g>
   <g id="text_20">
    <!-- 2020-03-21 -->
    <g transform="translate(278.031163 172.510604)scale(0.1 -0.1)">
     <use xlink:href="#DejaVuSans-50"/>
     <use x="63.623047" xlink:href="#DejaVuSans-48"/>
     <use x="127.246094" xlink:href="#DejaVuSans-50"/>
     <use x="190.869141" xlink:href="#DejaVuSans-48"/>
     <use x="254.492188" xlink:href="#DejaVuSans-45"/>
     <use x="290.576172" xlink:href="#DejaVuSans-48"/>
     <use x="354.199219" xlink:href="#DejaVuSans-51"/>
     <use x="417.822266" xlink:href="#DejaVuSans-45"/>
     <use x="453.90625" xlink:href="#DejaVuSans-50"/>
     <use x="517.529297" xlink:href="#DejaVuSans-49"/>
    </g>
   </g>
   <g id="text_21">
    <!-- 2020-03-22 -->
    <g transform="translate(317.983522 194.625273)scale(0.1 -0.1)">
     <use xlink:href="#DejaVuSans-50"/>
     <use x="63.623047" xlink:href="#DejaVuSans-48"/>
     <use x="127.246094" xlink:href="#DejaVuSans-50"/>
     <use x="190.869141" xlink:href="#DejaVuSans-48"/>
     <use x="254.492188" xlink:href="#DejaVuSans-45"/>
     <use x="290.576172" xlink:href="#DejaVuSans-48"/>
     <use x="354.199219" xlink:href="#DejaVuSans-51"/>
     <use x="417.822266" xlink:href="#DejaVuSans-45"/>
     <use x="453.90625" xlink:href="#DejaVuSans-50"/>
     <use x="517.529297" xlink:href="#DejaVuSans-50"/>
    </g>
   </g>
   <g id="text_22">
    <!-- 2020-03-23 -->
    <g transform="translate(361.010195 217.188162)scale(0.1 -0.1)">
     <use xlink:href="#DejaVuSans-50"/>
     <use x="63.623047" xlink:href="#DejaVuSans-48"/>
     <use x="127.246094" xlink:href="#DejaVuSans-50"/>
     <use x="190.869141" xlink:href="#DejaVuSans-48"/>
     <use x="254.492188" xlink:href="#DejaVuSans-45"/>
     <use x="290.576172" xlink:href="#DejaVuSans-48"/>
     <use x="354.199219" xlink:href="#DejaVuSans-51"/>
     <use x="417.822266" xlink:href="#DejaVuSans-45"/>
     <use x="453.90625" xlink:href="#DejaVuSans-50"/>
     <use x="517.529297" xlink:href="#DejaVuSans-51"/>
    </g>
   </g>
   <g id="text_23">
    <!-- 2020-03-24 -->
    <g transform="translate(413.694899 243.434281)scale(0.1 -0.1)">
     <use xlink:href="#DejaVuSans-50"/>
     <use x="63.623047" xlink:href="#DejaVuSans-48"/>
     <use x="127.246094" xlink:href="#DejaVuSans-50"/>
     <use x="190.869141" xlink:href="#DejaVuSans-48"/>
     <use x="254.492188" xlink:href="#DejaVuSans-45"/>
     <use x="290.576172" xlink:href="#DejaVuSans-48"/>
     <use x="354.199219" xlink:href="#DejaVuSans-51"/>
     <use x="417.822266" xlink:href="#DejaVuSans-45"/>
     <use x="453.90625" xlink:href="#DejaVuSans-50"/>
     <use x="517.529297" xlink:href="#DejaVuSans-52"/>
    </g>
   </g>
   <g id="text_24">
    <!-- 2020-03-25 -->
    <g transform="translate(468.463659 269.419367)scale(0.1 -0.1)">
     <use xlink:href="#DejaVuSans-50"/>
     <use x="63.623047" xlink:href="#DejaVuSans-48"/>
     <use x="127.246094" xlink:href="#DejaVuSans-50"/>
     <use x="190.869141" xlink:href="#DejaVuSans-48"/>
     <use x="254.492188" xlink:href="#DejaVuSans-45"/>
     <use x="290.576172" xlink:href="#DejaVuSans-48"/>
     <use x="354.199219" xlink:href="#DejaVuSans-51"/>
     <use x="417.822266" xlink:href="#DejaVuSans-45"/>
     <use x="453.90625" xlink:href="#DejaVuSans-50"/>
     <use x="517.529297" xlink:href="#DejaVuSans-53"/>
    </g>
   </g>
   <g id="text_25">
    <!-- 2020-03-26 -->
    <g transform="translate(520.537828 293.002973)scale(0.1 -0.1)">
     <use xlink:href="#DejaVuSans-50"/>
     <use x="63.623047" xlink:href="#DejaVuSans-48"/>
     <use x="127.246094" xlink:href="#DejaVuSans-50"/>
     <use x="190.869141" xlink:href="#DejaVuSans-48"/>
     <use x="254.492188" xlink:href="#DejaVuSans-45"/>
     <use x="290.576172" xlink:href="#DejaVuSans-48"/>
     <use x="354.199219" xlink:href="#DejaVuSans-51"/>
     <use x="417.822266" xlink:href="#DejaVuSans-45"/>
     <use x="453.90625" xlink:href="#DejaVuSans-50"/>
     <use x="517.529297" xlink:href="#DejaVuSans-54"/>
    </g>
   </g>
   <g id="text_26">
    <!-- 2020-03-27 -->
    <g transform="translate(566.503292 312.914948)scale(0.1 -0.1)">
     <use xlink:href="#DejaVuSans-50"/>
     <use x="63.623047" xlink:href="#DejaVuSans-48"/>
     <use x="127.246094" xlink:href="#DejaVuSans-50"/>
     <use x="190.869141" xlink:href="#DejaVuSans-48"/>
     <use x="254.492188" xlink:href="#DejaVuSans-45"/>
     <use x="290.576172" xlink:href="#DejaVuSans-48"/>
     <use x="354.199219" xlink:href="#DejaVuSans-51"/>
     <use x="417.822266" xlink:href="#DejaVuSans-45"/>
     <use x="453.90625" xlink:href="#DejaVuSans-50"/>
     <use x="517.529297" xlink:href="#DejaVuSans-55"/>
    </g>
   </g>
   <g id="text_27">
    <!-- 2020-03-28 -->
    <g transform="translate(615.57708 333.287662)scale(0.1 -0.1)">
     <use xlink:href="#DejaVuSans-50"/>
     <use x="63.623047" xlink:href="#DejaVuSans-48"/>
     <use x="127.246094" xlink:href="#DejaVuSans-50"/>
     <use x="190.869141" xlink:href="#DejaVuSans-48"/>
     <use x="254.492188" xlink:href="#DejaVuSans-45"/>
     <use x="290.576172" xlink:href="#DejaVuSans-48"/>
     <use x="354.199219" xlink:href="#DejaVuSans-51"/>
     <use x="417.822266" xlink:href="#DejaVuSans-45"/>
     <use x="453.90625" xlink:href="#DejaVuSans-50"/>
     <use x="517.529297" xlink:href="#DejaVuSans-56"/>
    </g>
   </g>
   <g id="text_28">
    <!-- 2020-03-31 -->
    <g transform="translate(770.214588 392.489096)scale(0.1 -0.1)">
     <use xlink:href="#DejaVuSans-50"/>
     <use x="63.623047" xlink:href="#DejaVuSans-48"/>
     <use x="127.246094" xlink:href="#DejaVuSans-50"/>
     <use x="190.869141" xlink:href="#DejaVuSans-48"/>
     <use x="254.492188" xlink:href="#DejaVuSans-45"/>
     <use x="290.576172" xlink:href="#DejaVuSans-48"/>
     <use x="354.199219" xlink:href="#DejaVuSans-51"/>
     <use x="417.822266" xlink:href="#DejaVuSans-45"/>
     <use x="453.90625" xlink:href="#DejaVuSans-51"/>
     <use x="517.529297" xlink:href="#DejaVuSans-49"/>
    </g>
   </g>
   <g id="text_29">
    <!-- https://github.com/PavelDusek/COVID-19 -->
    <defs>
     <path d="M 54.890625 33.015625 
L 54.890625 0 
L 45.90625 0 
L 45.90625 32.71875 
Q 45.90625 40.484375 42.875 44.328125 
Q 39.84375 48.1875 33.796875 48.1875 
Q 26.515625 48.1875 22.3125 43.546875 
Q 18.109375 38.921875 18.109375 30.90625 
L 18.109375 0 
L 9.078125 0 
L 9.078125 75.984375 
L 18.109375 75.984375 
L 18.109375 46.1875 
Q 21.34375 51.125 25.703125 53.5625 
Q 30.078125 56 35.796875 56 
Q 45.21875 56 50.046875 50.171875 
Q 54.890625 44.34375 54.890625 33.015625 
z
" id="DejaVuSans-104"/>
     <path d="M 44.28125 53.078125 
L 44.28125 44.578125 
Q 40.484375 46.53125 36.375 47.5 
Q 32.28125 48.484375 27.875 48.484375 
Q 21.1875 48.484375 17.84375 46.4375 
Q 14.5 44.390625 14.5 40.28125 
Q 14.5 37.15625 16.890625 35.375 
Q 19.28125 33.59375 26.515625 31.984375 
L 29.59375 31.296875 
Q 39.15625 29.25 43.1875 25.515625 
Q 47.21875 21.78125 47.21875 15.09375 
Q 47.21875 7.46875 41.1875 3.015625 
Q 35.15625 -1.421875 24.609375 -1.421875 
Q 20.21875 -1.421875 15.453125 -0.5625 
Q 10.6875 0.296875 5.421875 2 
L 5.421875 11.28125 
Q 10.40625 8.6875 15.234375 7.390625 
Q 20.0625 6.109375 24.8125 6.109375 
Q 31.15625 6.109375 34.5625 8.28125 
Q 37.984375 10.453125 37.984375 14.40625 
Q 37.984375 18.0625 35.515625 20.015625 
Q 33.0625 21.96875 24.703125 23.78125 
L 21.578125 24.515625 
Q 13.234375 26.265625 9.515625 29.90625 
Q 5.8125 33.546875 5.8125 39.890625 
Q 5.8125 47.609375 11.28125 51.796875 
Q 16.75 56 26.8125 56 
Q 31.78125 56 36.171875 55.265625 
Q 40.578125 54.546875 44.28125 53.078125 
z
" id="DejaVuSans-115"/>
     <path d="M 11.71875 12.40625 
L 22.015625 12.40625 
L 22.015625 0 
L 11.71875 0 
z
M 11.71875 51.703125 
L 22.015625 51.703125 
L 22.015625 39.3125 
L 11.71875 39.3125 
z
" id="DejaVuSans-58"/>
     <path d="M 25.390625 72.90625 
L 33.6875 72.90625 
L 8.296875 -9.28125 
L 0 -9.28125 
z
" id="DejaVuSans-47"/>
     <path d="M 45.40625 27.984375 
Q 45.40625 37.75 41.375 43.109375 
Q 37.359375 48.484375 30.078125 48.484375 
Q 22.859375 48.484375 18.828125 43.109375 
Q 14.796875 37.75 14.796875 27.984375 
Q 14.796875 18.265625 18.828125 12.890625 
Q 22.859375 7.515625 30.078125 7.515625 
Q 37.359375 7.515625 41.375 12.890625 
Q 45.40625 18.265625 45.40625 27.984375 
z
M 54.390625 6.78125 
Q 54.390625 -7.171875 48.1875 -13.984375 
Q 42 -20.796875 29.203125 -20.796875 
Q 24.46875 -20.796875 20.265625 -20.09375 
Q 16.0625 -19.390625 12.109375 -17.921875 
L 12.109375 -9.1875 
Q 16.0625 -11.328125 19.921875 -12.34375 
Q 23.78125 -13.375 27.78125 -13.375 
Q 36.625 -13.375 41.015625 -8.765625 
Q 45.40625 -4.15625 45.40625 5.171875 
L 45.40625 9.625 
Q 42.625 4.78125 38.28125 2.390625 
Q 33.9375 0 27.875 0 
Q 17.828125 0 11.671875 7.65625 
Q 5.515625 15.328125 5.515625 27.984375 
Q 5.515625 40.671875 11.671875 48.328125 
Q 17.828125 56 27.875 56 
Q 33.9375 56 38.28125 53.609375 
Q 42.625 51.21875 45.40625 46.390625 
L 45.40625 54.6875 
L 54.390625 54.6875 
z
" id="DejaVuSans-103"/>
     <path d="M 8.5 21.578125 
L 8.5 54.6875 
L 17.484375 54.6875 
L 17.484375 21.921875 
Q 17.484375 14.15625 20.5 10.265625 
Q 23.53125 6.390625 29.59375 6.390625 
Q 36.859375 6.390625 41.078125 11.03125 
Q 45.3125 15.671875 45.3125 23.6875 
L 45.3125 54.6875 
L 54.296875 54.6875 
L 54.296875 0 
L 45.3125 0 
L 45.3125 8.40625 
Q 42.046875 3.421875 37.71875 1 
Q 33.40625 -1.421875 27.6875 -1.421875 
Q 18.265625 -1.421875 13.375 4.4375 
Q 8.5 10.296875 8.5 21.578125 
z
M 31.109375 56 
z
" id="DejaVuSans-117"/>
     <path d="M 48.6875 27.296875 
Q 48.6875 37.203125 44.609375 42.84375 
Q 40.53125 48.484375 33.40625 48.484375 
Q 26.265625 48.484375 22.1875 42.84375 
Q 18.109375 37.203125 18.109375 27.296875 
Q 18.109375 17.390625 22.1875 11.75 
Q 26.265625 6.109375 33.40625 6.109375 
Q 40.53125 6.109375 44.609375 11.75 
Q 48.6875 17.390625 48.6875 27.296875 
z
M 18.109375 46.390625 
Q 20.953125 51.265625 25.265625 53.625 
Q 29.59375 56 35.59375 56 
Q 45.5625 56 51.78125 48.09375 
Q 58.015625 40.1875 58.015625 27.296875 
Q 58.015625 14.40625 51.78125 6.484375 
Q 45.5625 -1.421875 35.59375 -1.421875 
Q 29.59375 -1.421875 25.265625 0.953125 
Q 20.953125 3.328125 18.109375 8.203125 
L 18.109375 0 
L 9.078125 0 
L 9.078125 75.984375 
L 18.109375 75.984375 
z
" id="DejaVuSans-98"/>
     <path d="M 52 44.1875 
Q 55.375 50.25 60.0625 53.125 
Q 64.75 56 71.09375 56 
Q 79.640625 56 84.28125 50.015625 
Q 88.921875 44.046875 88.921875 33.015625 
L 88.921875 0 
L 79.890625 0 
L 79.890625 32.71875 
Q 79.890625 40.578125 77.09375 44.375 
Q 74.3125 48.1875 68.609375 48.1875 
Q 61.625 48.1875 57.5625 43.546875 
Q 53.515625 38.921875 53.515625 30.90625 
L 53.515625 0 
L 44.484375 0 
L 44.484375 32.71875 
Q 44.484375 40.625 41.703125 44.40625 
Q 38.921875 48.1875 33.109375 48.1875 
Q 26.21875 48.1875 22.15625 43.53125 
Q 18.109375 38.875 18.109375 30.90625 
L 18.109375 0 
L 9.078125 0 
L 9.078125 54.6875 
L 18.109375 54.6875 
L 18.109375 46.1875 
Q 21.1875 51.21875 25.484375 53.609375 
Q 29.78125 56 35.6875 56 
Q 41.65625 56 45.828125 52.96875 
Q 50 49.953125 52 44.1875 
z
" id="DejaVuSans-109"/>
     <path d="M 19.671875 64.796875 
L 19.671875 37.40625 
L 32.078125 37.40625 
Q 38.96875 37.40625 42.71875 40.96875 
Q 46.484375 44.53125 46.484375 51.125 
Q 46.484375 57.671875 42.71875 61.234375 
Q 38.96875 64.796875 32.078125 64.796875 
z
M 9.8125 72.90625 
L 32.078125 72.90625 
Q 44.34375 72.90625 50.609375 67.359375 
Q 56.890625 61.8125 56.890625 51.125 
Q 56.890625 40.328125 50.609375 34.8125 
Q 44.34375 29.296875 32.078125 29.296875 
L 19.671875 29.296875 
L 19.671875 0 
L 9.8125 0 
z
" id="DejaVuSans-80"/>
     <path d="M 34.28125 27.484375 
Q 23.390625 27.484375 19.1875 25 
Q 14.984375 22.515625 14.984375 16.5 
Q 14.984375 11.71875 18.140625 8.90625 
Q 21.296875 6.109375 26.703125 6.109375 
Q 34.1875 6.109375 38.703125 11.40625 
Q 43.21875 16.703125 43.21875 25.484375 
L 43.21875 27.484375 
z
M 52.203125 31.203125 
L 52.203125 0 
L 43.21875 0 
L 43.21875 8.296875 
Q 40.140625 3.328125 35.546875 0.953125 
Q 30.953125 -1.421875 24.3125 -1.421875 
Q 15.921875 -1.421875 10.953125 3.296875 
Q 6 8.015625 6 15.921875 
Q 6 25.140625 12.171875 29.828125 
Q 18.359375 34.515625 30.609375 34.515625 
L 43.21875 34.515625 
L 43.21875 35.40625 
Q 43.21875 41.609375 39.140625 45 
Q 35.0625 48.390625 27.6875 48.390625 
Q 23 48.390625 18.546875 47.265625 
Q 14.109375 46.140625 10.015625 43.890625 
L 10.015625 52.203125 
Q 14.9375 54.109375 19.578125 55.046875 
Q 24.21875 56 28.609375 56 
Q 40.484375 56 46.34375 49.84375 
Q 52.203125 43.703125 52.203125 31.203125 
z
" id="DejaVuSans-97"/>
     <path d="M 2.984375 54.6875 
L 12.5 54.6875 
L 29.59375 8.796875 
L 46.6875 54.6875 
L 56.203125 54.6875 
L 35.6875 0 
L 23.484375 0 
z
" id="DejaVuSans-118"/>
     <path d="M 9.421875 75.984375 
L 18.40625 75.984375 
L 18.40625 0 
L 9.421875 0 
z
" id="DejaVuSans-108"/>
     <path d="M 19.671875 64.796875 
L 19.671875 8.109375 
L 31.59375 8.109375 
Q 46.6875 8.109375 53.6875 14.9375 
Q 60.6875 21.78125 60.6875 36.53125 
Q 60.6875 51.171875 53.6875 57.984375 
Q 46.6875 64.796875 31.59375 64.796875 
z
M 9.8125 72.90625 
L 30.078125 72.90625 
Q 51.265625 72.90625 61.171875 64.09375 
Q 71.09375 55.28125 71.09375 36.53125 
Q 71.09375 17.671875 61.125 8.828125 
Q 51.171875 0 30.078125 0 
L 9.8125 0 
z
" id="DejaVuSans-68"/>
     <path d="M 9.078125 75.984375 
L 18.109375 75.984375 
L 18.109375 31.109375 
L 44.921875 54.6875 
L 56.390625 54.6875 
L 27.390625 29.109375 
L 57.625 0 
L 45.90625 0 
L 18.109375 26.703125 
L 18.109375 0 
L 9.078125 0 
z
" id="DejaVuSans-107"/>
     <path d="M 64.40625 67.28125 
L 64.40625 56.890625 
Q 59.421875 61.53125 53.78125 63.8125 
Q 48.140625 66.109375 41.796875 66.109375 
Q 29.296875 66.109375 22.65625 58.46875 
Q 16.015625 50.828125 16.015625 36.375 
Q 16.015625 21.96875 22.65625 14.328125 
Q 29.296875 6.6875 41.796875 6.6875 
Q 48.140625 6.6875 53.78125 8.984375 
Q 59.421875 11.28125 64.40625 15.921875 
L 64.40625 5.609375 
Q 59.234375 2.09375 53.4375 0.328125 
Q 47.65625 -1.421875 41.21875 -1.421875 
Q 24.65625 -1.421875 15.125 8.703125 
Q 5.609375 18.84375 5.609375 36.375 
Q 5.609375 53.953125 15.125 64.078125 
Q 24.65625 74.21875 41.21875 74.21875 
Q 47.75 74.21875 53.53125 72.484375 
Q 59.328125 70.75 64.40625 67.28125 
z
" id="DejaVuSans-67"/>
     <path d="M 39.40625 66.21875 
Q 28.65625 66.21875 22.328125 58.203125 
Q 16.015625 50.203125 16.015625 36.375 
Q 16.015625 22.609375 22.328125 14.59375 
Q 28.65625 6.59375 39.40625 6.59375 
Q 50.140625 6.59375 56.421875 14.59375 
Q 62.703125 22.609375 62.703125 36.375 
Q 62.703125 50.203125 56.421875 58.203125 
Q 50.140625 66.21875 39.40625 66.21875 
z
M 39.40625 74.21875 
Q 54.734375 74.21875 63.90625 63.9375 
Q 73.09375 53.65625 73.09375 36.375 
Q 73.09375 19.140625 63.90625 8.859375 
Q 54.734375 -1.421875 39.40625 -1.421875 
Q 24.03125 -1.421875 14.8125 8.828125 
Q 5.609375 19.09375 5.609375 36.375 
Q 5.609375 53.65625 14.8125 63.9375 
Q 24.03125 74.21875 39.40625 74.21875 
z
" id="DejaVuSans-79"/>
     <path d="M 28.609375 0 
L 0.78125 72.90625 
L 11.078125 72.90625 
L 34.1875 11.53125 
L 57.328125 72.90625 
L 67.578125 72.90625 
L 39.796875 0 
z
" id="DejaVuSans-86"/>
     <path d="M 9.8125 72.90625 
L 19.671875 72.90625 
L 19.671875 0 
L 9.8125 0 
z
" id="DejaVuSans-73"/>
    </defs>
    <g transform="translate(354.591188 25.01325)scale(0.12 -0.12)">
     <use xlink:href="#DejaVuSans-104"/>
     <use x="63.378906" xlink:href="#DejaVuSans-116"/>
     <use x="102.587891" xlink:href="#DejaVuSans-116"/>
     <use x="141.796875" xlink:href="#DejaVuSans-112"/>
     <use x="205.273438" xlink:href="#DejaVuSans-115"/>
     <use x="257.373047" xlink:href="#DejaVuSans-58"/>
     <use x="291.064453" xlink:href="#DejaVuSans-47"/>
     <use x="324.755859" xlink:href="#DejaVuSans-47"/>
     <use x="358.447266" xlink:href="#DejaVuSans-103"/>
     <use x="421.923828" xlink:href="#DejaVuSans-105"/>
     <use x="449.707031" xlink:href="#DejaVuSans-116"/>
     <use x="488.916016" xlink:href="#DejaVuSans-104"/>
     <use x="552.294922" xlink:href="#DejaVuSans-117"/>
     <use x="615.673828" xlink:href="#DejaVuSans-98"/>
     <use x="679.150391" xlink:href="#DejaVuSans-46"/>
     <use x="710.9375" xlink:href="#DejaVuSans-99"/>
     <use x="765.917969" xlink:href="#DejaVuSans-111"/>
     <use x="827.099609" xlink:href="#DejaVuSans-109"/>
     <use x="924.511719" xlink:href="#DejaVuSans-47"/>
     <use x="958.203125" xlink:href="#DejaVuSans-80"/>
     <use x="1018.443359" xlink:href="#DejaVuSans-97"/>
     <use x="1079.722656" xlink:href="#DejaVuSans-118"/>
     <use x="1138.902344" xlink:href="#DejaVuSans-101"/>
     <use x="1200.425781" xlink:href="#DejaVuSans-108"/>
     <use x="1228.208984" xlink:href="#DejaVuSans-68"/>
     <use x="1305.210938" xlink:href="#DejaVuSans-117"/>
     <use x="1368.589844" xlink:href="#DejaVuSans-115"/>
     <use x="1420.689453" xlink:href="#DejaVuSans-101"/>
     <use x="1482.212891" xlink:href="#DejaVuSans-107"/>
     <use x="1540.123047" xlink:href="#DejaVuSans-47"/>
     <use x="1573.814453" xlink:href="#DejaVuSans-67"/>
     <use x="1643.638672" xlink:href="#DejaVuSans-79"/>
     <use x="1722.333984" xlink:href="#DejaVuSans-86"/>
     <use x="1790.742188" xlink:href="#DejaVuSans-73"/>
     <use x="1820.234375" xlink:href="#DejaVuSans-68"/>
     <use x="1897.236328" xlink:href="#DejaVuSans-45"/>
     <use x="1933.320312" xlink:href="#DejaVuSans-49"/>
     <use x="1996.943359" xlink:href="#DejaVuSans-57"/>
    </g>
    <!-- COVID-19 in the Czech Republic -->
    <defs>
     <path id="DejaVuSans-32"/>
     <path d="M 5.515625 54.6875 
L 48.1875 54.6875 
L 48.1875 46.484375 
L 14.40625 7.171875 
L 48.1875 7.171875 
L 48.1875 0 
L 4.296875 0 
L 4.296875 8.203125 
L 38.09375 47.515625 
L 5.515625 47.515625 
z
" id="DejaVuSans-122"/>
     <path d="M 44.390625 34.1875 
Q 47.5625 33.109375 50.5625 29.59375 
Q 53.5625 26.078125 56.59375 19.921875 
L 66.609375 0 
L 56 0 
L 46.6875 18.703125 
Q 43.0625 26.03125 39.671875 28.421875 
Q 36.28125 30.8125 30.421875 30.8125 
L 19.671875 30.8125 
L 19.671875 0 
L 9.8125 0 
L 9.8125 72.90625 
L 32.078125 72.90625 
Q 44.578125 72.90625 50.734375 67.671875 
Q 56.890625 62.453125 56.890625 51.90625 
Q 56.890625 45.015625 53.6875 40.46875 
Q 50.484375 35.9375 44.390625 34.1875 
z
M 19.671875 64.796875 
L 19.671875 38.921875 
L 32.078125 38.921875 
Q 39.203125 38.921875 42.84375 42.21875 
Q 46.484375 45.515625 46.484375 51.90625 
Q 46.484375 58.296875 42.84375 61.546875 
Q 39.203125 64.796875 32.078125 64.796875 
z
" id="DejaVuSans-82"/>
    </defs>
    <g transform="translate(382.031813 38.450625)scale(0.12 -0.12)">
     <use xlink:href="#DejaVuSans-67"/>
     <use x="69.824219" xlink:href="#DejaVuSans-79"/>
     <use x="148.519531" xlink:href="#DejaVuSans-86"/>
     <use x="216.927734" xlink:href="#DejaVuSans-73"/>
     <use x="246.419922" xlink:href="#DejaVuSans-68"/>
     <use x="323.421875" xlink:href="#DejaVuSans-45"/>
     <use x="359.505859" xlink:href="#DejaVuSans-49"/>
     <use x="423.128906" xlink:href="#DejaVuSans-57"/>
     <use x="486.751953" xlink:href="#DejaVuSans-32"/>
     <use x="518.539062" xlink:href="#DejaVuSans-105"/>
     <use x="546.322266" xlink:href="#DejaVuSans-110"/>
     <use x="609.701172" xlink:href="#DejaVuSans-32"/>
     <use x="641.488281" xlink:href="#DejaVuSans-116"/>
     <use x="680.697266" xlink:href="#DejaVuSans-104"/>
     <use x="744.076172" xlink:href="#DejaVuSans-101"/>
     <use x="805.599609" xlink:href="#DejaVuSans-32"/>
     <use x="837.386719" xlink:href="#DejaVuSans-67"/>
     <use x="907.210938" xlink:href="#DejaVuSans-122"/>
     <use x="959.701172" xlink:href="#DejaVuSans-101"/>
     <use x="1021.224609" xlink:href="#DejaVuSans-99"/>
     <use x="1076.205078" xlink:href="#DejaVuSans-104"/>
     <use x="1139.583984" xlink:href="#DejaVuSans-32"/>
     <use x="1171.371094" xlink:href="#DejaVuSans-82"/>
     <use x="1240.791016" xlink:href="#DejaVuSans-101"/>
     <use x="1302.314453" xlink:href="#DejaVuSans-112"/>
     <use x="1365.791016" xlink:href="#DejaVuSans-117"/>
     <use x="1429.169922" xlink:href="#DejaVuSans-98"/>
     <use x="1492.646484" xlink:href="#DejaVuSans-108"/>
     <use x="1520.429688" xlink:href="#DejaVuSans-105"/>
     <use x="1548.212891" xlink:href="#DejaVuSans-99"/>
    </g>
    <!-- Evolution of the Exponential Model Parameters by Date -->
    <defs>
     <path d="M 9.8125 72.90625 
L 55.90625 72.90625 
L 55.90625 64.59375 
L 19.671875 64.59375 
L 19.671875 43.015625 
L 54.390625 43.015625 
L 54.390625 34.71875 
L 19.671875 34.71875 
L 19.671875 8.296875 
L 56.78125 8.296875 
L 56.78125 0 
L 9.8125 0 
z
" id="DejaVuSans-69"/>
     <path d="M 37.109375 75.984375 
L 37.109375 68.5 
L 28.515625 68.5 
Q 23.6875 68.5 21.796875 66.546875 
Q 19.921875 64.59375 19.921875 59.515625 
L 19.921875 54.6875 
L 34.71875 54.6875 
L 34.71875 47.703125 
L 19.921875 47.703125 
L 19.921875 0 
L 10.890625 0 
L 10.890625 47.703125 
L 2.296875 47.703125 
L 2.296875 54.6875 
L 10.890625 54.6875 
L 10.890625 58.5 
Q 10.890625 67.625 15.140625 71.796875 
Q 19.390625 75.984375 28.609375 75.984375 
z
" id="DejaVuSans-102"/>
     <path d="M 9.8125 72.90625 
L 24.515625 72.90625 
L 43.109375 23.296875 
L 61.8125 72.90625 
L 76.515625 72.90625 
L 76.515625 0 
L 66.890625 0 
L 66.890625 64.015625 
L 48.09375 14.015625 
L 38.1875 14.015625 
L 19.390625 64.015625 
L 19.390625 0 
L 9.8125 0 
z
" id="DejaVuSans-77"/>
     <path d="M 45.40625 46.390625 
L 45.40625 75.984375 
L 54.390625 75.984375 
L 54.390625 0 
L 45.40625 0 
L 45.40625 8.203125 
Q 42.578125 3.328125 38.25 0.953125 
Q 33.9375 -1.421875 27.875 -1.421875 
Q 17.96875 -1.421875 11.734375 6.484375 
Q 5.515625 14.40625 5.515625 27.296875 
Q 5.515625 40.1875 11.734375 48.09375 
Q 17.96875 56 27.875 56 
Q 33.9375 56 38.25 53.625 
Q 42.578125 51.265625 45.40625 46.390625 
z
M 14.796875 27.296875 
Q 14.796875 17.390625 18.875 11.75 
Q 22.953125 6.109375 30.078125 6.109375 
Q 37.203125 6.109375 41.296875 11.75 
Q 45.40625 17.390625 45.40625 27.296875 
Q 45.40625 37.203125 41.296875 42.84375 
Q 37.203125 48.484375 30.078125 48.484375 
Q 22.953125 48.484375 18.875 42.84375 
Q 14.796875 37.203125 14.796875 27.296875 
z
" id="DejaVuSans-100"/>
     <path d="M 32.171875 -5.078125 
Q 28.375 -14.84375 24.75 -17.8125 
Q 21.140625 -20.796875 15.09375 -20.796875 
L 7.90625 -20.796875 
L 7.90625 -13.28125 
L 13.1875 -13.28125 
Q 16.890625 -13.28125 18.9375 -11.515625 
Q 21 -9.765625 23.484375 -3.21875 
L 25.09375 0.875 
L 2.984375 54.6875 
L 12.5 54.6875 
L 29.59375 11.921875 
L 46.6875 54.6875 
L 56.203125 54.6875 
z
" id="DejaVuSans-121"/>
    </defs>
    <g transform="translate(311.463375 51.888)scale(0.12 -0.12)">
     <use xlink:href="#DejaVuSans-69"/>
     <use x="63.183594" xlink:href="#DejaVuSans-118"/>
     <use x="122.363281" xlink:href="#DejaVuSans-111"/>
     <use x="183.544922" xlink:href="#DejaVuSans-108"/>
     <use x="211.328125" xlink:href="#DejaVuSans-117"/>
     <use x="274.707031" xlink:href="#DejaVuSans-116"/>
     <use x="313.916016" xlink:href="#DejaVuSans-105"/>
     <use x="341.699219" xlink:href="#DejaVuSans-111"/>
     <use x="402.880859" xlink:href="#DejaVuSans-110"/>
     <use x="466.259766" xlink:href="#DejaVuSans-32"/>
     <use x="498.046875" xlink:href="#DejaVuSans-111"/>
     <use x="559.228516" xlink:href="#DejaVuSans-102"/>
     <use x="594.433594" xlink:href="#DejaVuSans-32"/>
     <use x="626.220703" xlink:href="#DejaVuSans-116"/>
     <use x="665.429688" xlink:href="#DejaVuSans-104"/>
     <use x="728.808594" xlink:href="#DejaVuSans-101"/>
     <use x="790.332031" xlink:href="#DejaVuSans-32"/>
     <use x="822.119141" xlink:href="#DejaVuSans-69"/>
     <use x="885.302734" xlink:href="#DejaVuSans-120"/>
     <use x="944.482422" xlink:href="#DejaVuSans-112"/>
     <use x="1007.958984" xlink:href="#DejaVuSans-111"/>
     <use x="1069.140625" xlink:href="#DejaVuSans-110"/>
     <use x="1132.519531" xlink:href="#DejaVuSans-101"/>
     <use x="1194.042969" xlink:href="#DejaVuSans-110"/>
     <use x="1257.421875" xlink:href="#DejaVuSans-116"/>
     <use x="1296.630859" xlink:href="#DejaVuSans-105"/>
     <use x="1324.414062" xlink:href="#DejaVuSans-97"/>
     <use x="1385.693359" xlink:href="#DejaVuSans-108"/>
     <use x="1413.476562" xlink:href="#DejaVuSans-32"/>
     <use x="1445.263672" xlink:href="#DejaVuSans-77"/>
     <use x="1531.542969" xlink:href="#DejaVuSans-111"/>
     <use x="1592.724609" xlink:href="#DejaVuSans-100"/>
     <use x="1656.201172" xlink:href="#DejaVuSans-101"/>
     <use x="1717.724609" xlink:href="#DejaVuSans-108"/>
     <use x="1745.507812" xlink:href="#DejaVuSans-32"/>
     <use x="1777.294922" xlink:href="#DejaVuSans-80"/>
     <use x="1837.535156" xlink:href="#DejaVuSans-97"/>
     <use x="1898.814453" xlink:href="#DejaVuSans-114"/>
     <use x="1939.927734" xlink:href="#DejaVuSans-97"/>
     <use x="2001.207031" xlink:href="#DejaVuSans-109"/>
     <use x="2098.619141" xlink:href="#DejaVuSans-101"/>
     <use x="2160.142578" xlink:href="#DejaVuSans-116"/>
     <use x="2199.351562" xlink:href="#DejaVuSans-101"/>
     <use x="2260.875" xlink:href="#DejaVuSans-114"/>
     <use x="2301.988281" xlink:href="#DejaVuSans-115"/>
     <use x="2354.087891" xlink:href="#DejaVuSans-32"/>
     <use x="2385.875" xlink:href="#DejaVuSans-98"/>
     <use x="2449.351562" xlink:href="#DejaVuSans-121"/>
     <use x="2508.53125" xlink:href="#DejaVuSans-32"/>
     <use x="2540.318359" xlink:href="#DejaVuSans-68"/>
     <use x="2617.320312" xlink:href="#DejaVuSans-97"/>
     <use x="2678.599609" xlink:href="#DejaVuSans-116"/>
     <use x="2717.808594" xlink:href="#DejaVuSans-101"/>
    </g>
   </g>
   <g id="legend_1">
    <g id="patch_20">
     <path d="M 555.883 139.278625 
L 832.808 139.278625 
Q 834.808 139.278625 834.808 137.278625 
L 834.808 64.888 
Q 834.808 62.888 832.808 62.888 
L 555.883 62.888 
Q 553.883 62.888 553.883 64.888 
L 553.883 137.278625 
Q 553.883 139.278625 555.883 139.278625 
z
" style="fill:#ffffff;opacity:0.8;stroke:#cccccc;stroke-linejoin:miter;"/>
    </g>
    <g id="PathCollection_7">
     <defs>
      <path id="ma3ebfcaff6" style="stroke:#ffffff;stroke-width:1.5;"/>
     </defs>
     <g>
      <use style="fill:#ffffff;stroke:#ffffff;stroke-width:1.5;" x="567.883" xlink:href="#ma3ebfcaff6" y="71.861437"/>
     </g>
    </g>
    <g id="text_30">
     <!-- Exponential model fit (R2) [%] for last week data -->
     <defs>
      <path d="M 31 75.875 
Q 24.46875 64.65625 21.28125 53.65625 
Q 18.109375 42.671875 18.109375 31.390625 
Q 18.109375 20.125 21.3125 9.0625 
Q 24.515625 -2 31 -13.1875 
L 23.1875 -13.1875 
Q 15.875 -1.703125 12.234375 9.375 
Q 8.59375 20.453125 8.59375 31.390625 
Q 8.59375 42.28125 12.203125 53.3125 
Q 15.828125 64.359375 23.1875 75.875 
z
" id="DejaVuSans-40"/>
      <path d="M 8.015625 75.875 
L 15.828125 75.875 
Q 23.140625 64.359375 26.78125 53.3125 
Q 30.421875 42.28125 30.421875 31.390625 
Q 30.421875 20.453125 26.78125 9.375 
Q 23.140625 -1.703125 15.828125 -13.1875 
L 8.015625 -13.1875 
Q 14.5 -2 17.703125 9.0625 
Q 20.90625 20.125 20.90625 31.390625 
Q 20.90625 42.671875 17.703125 53.65625 
Q 14.5 64.65625 8.015625 75.875 
z
" id="DejaVuSans-41"/>
      <path d="M 8.59375 75.984375 
L 29.296875 75.984375 
L 29.296875 69 
L 17.578125 69 
L 17.578125 -6.203125 
L 29.296875 -6.203125 
L 29.296875 -13.1875 
L 8.59375 -13.1875 
z
" id="DejaVuSans-91"/>
      <path d="M 72.703125 32.078125 
Q 68.453125 32.078125 66.03125 28.46875 
Q 63.625 24.859375 63.625 18.40625 
Q 63.625 12.0625 66.03125 8.421875 
Q 68.453125 4.78125 72.703125 4.78125 
Q 76.859375 4.78125 79.265625 8.421875 
Q 81.6875 12.0625 81.6875 18.40625 
Q 81.6875 24.8125 79.265625 28.4375 
Q 76.859375 32.078125 72.703125 32.078125 
z
M 72.703125 38.28125 
Q 80.421875 38.28125 84.953125 32.90625 
Q 89.5 27.546875 89.5 18.40625 
Q 89.5 9.28125 84.9375 3.921875 
Q 80.375 -1.421875 72.703125 -1.421875 
Q 64.890625 -1.421875 60.34375 3.921875 
Q 55.8125 9.28125 55.8125 18.40625 
Q 55.8125 27.59375 60.375 32.9375 
Q 64.9375 38.28125 72.703125 38.28125 
z
M 22.3125 68.015625 
Q 18.109375 68.015625 15.6875 64.375 
Q 13.28125 60.75 13.28125 54.390625 
Q 13.28125 47.953125 15.671875 44.328125 
Q 18.0625 40.71875 22.3125 40.71875 
Q 26.5625 40.71875 28.96875 44.328125 
Q 31.390625 47.953125 31.390625 54.390625 
Q 31.390625 60.6875 28.953125 64.34375 
Q 26.515625 68.015625 22.3125 68.015625 
z
M 66.40625 74.21875 
L 74.21875 74.21875 
L 28.609375 -1.421875 
L 20.796875 -1.421875 
z
M 22.3125 74.21875 
Q 30.03125 74.21875 34.609375 68.875 
Q 39.203125 63.53125 39.203125 54.390625 
Q 39.203125 45.171875 34.640625 39.84375 
Q 30.078125 34.515625 22.3125 34.515625 
Q 14.546875 34.515625 10.03125 39.859375 
Q 5.515625 45.21875 5.515625 54.390625 
Q 5.515625 63.484375 10.046875 68.84375 
Q 14.59375 74.21875 22.3125 74.21875 
z
" id="DejaVuSans-37"/>
      <path d="M 30.421875 75.984375 
L 30.421875 -13.1875 
L 9.71875 -13.1875 
L 9.71875 -6.203125 
L 21.390625 -6.203125 
L 21.390625 69 
L 9.71875 69 
L 9.71875 75.984375 
z
" id="DejaVuSans-93"/>
      <path d="M 4.203125 54.6875 
L 13.1875 54.6875 
L 24.421875 12.015625 
L 35.59375 54.6875 
L 46.1875 54.6875 
L 57.421875 12.015625 
L 68.609375 54.6875 
L 77.59375 54.6875 
L 63.28125 0 
L 52.6875 0 
L 40.921875 44.828125 
L 29.109375 0 
L 18.5 0 
z
" id="DejaVuSans-119"/>
     </defs>
     <g transform="translate(585.883 74.486437)scale(0.1 -0.1)">
      <use xlink:href="#DejaVuSans-69"/>
      <use x="63.183594" xlink:href="#DejaVuSans-120"/>
      <use x="122.363281" xlink:href="#DejaVuSans-112"/>
      <use x="185.839844" xlink:href="#DejaVuSans-111"/>
      <use x="247.021484" xlink:href="#DejaVuSans-110"/>
      <use x="310.400391" xlink:href="#DejaVuSans-101"/>
      <use x="371.923828" xlink:href="#DejaVuSans-110"/>
      <use x="435.302734" xlink:href="#DejaVuSans-116"/>
      <use x="474.511719" xlink:href="#DejaVuSans-105"/>
      <use x="502.294922" xlink:href="#DejaVuSans-97"/>
      <use x="563.574219" xlink:href="#DejaVuSans-108"/>
      <use x="591.357422" xlink:href="#DejaVuSans-32"/>
      <use x="623.144531" xlink:href="#DejaVuSans-109"/>
      <use x="720.556641" xlink:href="#DejaVuSans-111"/>
      <use x="781.738281" xlink:href="#DejaVuSans-100"/>
      <use x="845.214844" xlink:href="#DejaVuSans-101"/>
      <use x="906.738281" xlink:href="#DejaVuSans-108"/>
      <use x="934.521484" xlink:href="#DejaVuSans-32"/>
      <use x="966.308594" xlink:href="#DejaVuSans-102"/>
      <use x="1001.513672" xlink:href="#DejaVuSans-105"/>
      <use x="1029.296875" xlink:href="#DejaVuSans-116"/>
      <use x="1068.505859" xlink:href="#DejaVuSans-32"/>
      <use x="1100.292969" xlink:href="#DejaVuSans-40"/>
      <use x="1139.306641" xlink:href="#DejaVuSans-82"/>
      <use x="1208.789062" xlink:href="#DejaVuSans-50"/>
      <use x="1272.412109" xlink:href="#DejaVuSans-41"/>
      <use x="1311.425781" xlink:href="#DejaVuSans-32"/>
      <use x="1343.212891" xlink:href="#DejaVuSans-91"/>
      <use x="1382.226562" xlink:href="#DejaVuSans-37"/>
      <use x="1477.246094" xlink:href="#DejaVuSans-93"/>
      <use x="1516.259766" xlink:href="#DejaVuSans-32"/>
      <use x="1548.046875" xlink:href="#DejaVuSans-102"/>
      <use x="1583.251953" xlink:href="#DejaVuSans-111"/>
      <use x="1644.433594" xlink:href="#DejaVuSans-114"/>
      <use x="1685.546875" xlink:href="#DejaVuSans-32"/>
      <use x="1717.333984" xlink:href="#DejaVuSans-108"/>
      <use x="1745.117188" xlink:href="#DejaVuSans-97"/>
      <use x="1806.396484" xlink:href="#DejaVuSans-115"/>
      <use x="1858.496094" xlink:href="#DejaVuSans-116"/>
      <use x="1897.705078" xlink:href="#DejaVuSans-32"/>
      <use x="1929.492188" xlink:href="#DejaVuSans-119"/>
      <use x="2011.279297" xlink:href="#DejaVuSans-101"/>
      <use x="2072.802734" xlink:href="#DejaVuSans-101"/>
      <use x="2134.326172" xlink:href="#DejaVuSans-107"/>
      <use x="2192.236328" xlink:href="#DejaVuSans-32"/>
      <use x="2224.023438" xlink:href="#DejaVuSans-100"/>
      <use x="2287.5" xlink:href="#DejaVuSans-97"/>
      <use x="2348.779297" xlink:href="#DejaVuSans-116"/>
      <use x="2387.988281" xlink:href="#DejaVuSans-97"/>
     </g>
    </g>
    <g id="PathCollection_8">
     <defs>
      <path d="M 0 2.12132 
C 0.562581 2.12132 1.102195 1.897805 1.5 1.5 
C 1.897805 1.102195 2.12132 0.562581 2.12132 0 
C 2.12132 -0.562581 1.897805 -1.102195 1.5 -1.5 
C 1.102195 -1.897805 0.562581 -2.12132 0 -2.12132 
C -0.562581 -2.12132 -1.102195 -1.897805 -1.5 -1.5 
C -1.897805 -1.102195 -2.12132 -0.562581 -2.12132 0 
C -2.12132 0.562581 -1.897805 1.102195 -1.5 1.5 
C -1.102195 1.897805 -0.562581 2.12132 0 2.12132 
z
" id="m9c362bd14a" style="stroke:#333333;"/>
     </defs>
     <g>
      <use style="fill:#333333;stroke:#333333;" x="567.883" xlink:href="#m9c362bd14a" y="86.539562"/>
     </g>
    </g>
    <g id="text_31">
     <!-- 92.5 -->
     <g transform="translate(585.883 89.164562)scale(0.1 -0.1)">
      <use xlink:href="#DejaVuSans-57"/>
      <use x="63.623047" xlink:href="#DejaVuSans-50"/>
      <use x="127.246094" xlink:href="#DejaVuSans-46"/>
      <use x="159.033203" xlink:href="#DejaVuSans-53"/>
     </g>
    </g>
    <g id="PathCollection_9">
     <defs>
      <path d="M 0 2.985808 
C 0.791846 2.985808 1.551366 2.671204 2.111285 2.111285 
C 2.671204 1.551366 2.985808 0.791846 2.985808 0 
C 2.985808 -0.791846 2.671204 -1.551366 2.111285 -2.111285 
C 1.551366 -2.671204 0.791846 -2.985808 0 -2.985808 
C -0.791846 -2.985808 -1.551366 -2.671204 -2.111285 -2.111285 
C -2.671204 -1.551366 -2.985808 -0.791846 -2.985808 0 
C -2.985808 0.791846 -2.671204 1.551366 -2.111285 2.111285 
C -1.551366 2.671204 -0.791846 2.985808 0 2.985808 
z
" id="m19377d73ed" style="stroke:#333333;"/>
     </defs>
     <g>
      <use style="fill:#333333;stroke:#333333;" x="567.883" xlink:href="#m19377d73ed" y="101.217687"/>
     </g>
    </g>
    <g id="text_32">
     <!-- 95.0 -->
     <g transform="translate(585.883 103.842687)scale(0.1 -0.1)">
      <use xlink:href="#DejaVuSans-57"/>
      <use x="63.623047" xlink:href="#DejaVuSans-53"/>
      <use x="127.246094" xlink:href="#DejaVuSans-46"/>
      <use x="159.033203" xlink:href="#DejaVuSans-48"/>
     </g>
    </g>
    <g id="PathCollection_10">
     <defs>
      <path d="M 0 3.809179 
C 1.010206 3.809179 1.979173 3.40782 2.693496 2.693496 
C 3.40782 1.979173 3.809179 1.010206 3.809179 0 
C 3.809179 -1.010206 3.40782 -1.979173 2.693496 -2.693496 
C 1.979173 -3.40782 1.010206 -3.809179 0 -3.809179 
C -1.010206 -3.809179 -1.979173 -3.40782 -2.693496 -2.693496 
C -3.40782 -1.979173 -3.809179 -1.010206 -3.809179 0 
C -3.809179 1.010206 -3.40782 1.979173 -2.693496 2.693496 
C -1.979173 3.40782 -1.010206 3.809179 0 3.809179 
z
" id="mcd54592f49" style="stroke:#333333;"/>
     </defs>
     <g>
      <use style="fill:#333333;stroke:#333333;" x="567.883" xlink:href="#mcd54592f49" y="115.895812"/>
     </g>
    </g>
    <g id="text_33">
     <!-- 97.5 -->
     <g transform="translate(585.883 118.520812)scale(0.1 -0.1)">
      <use xlink:href="#DejaVuSans-57"/>
      <use x="63.623047" xlink:href="#DejaVuSans-55"/>
      <use x="127.246094" xlink:href="#DejaVuSans-46"/>
      <use x="159.033203" xlink:href="#DejaVuSans-53"/>
     </g>
    </g>
    <g id="PathCollection_11">
     <defs>
      <path d="M 0 4.242641 
C 1.125161 4.242641 2.204391 3.795609 3 3 
C 3.795609 2.204391 4.242641 1.125161 4.242641 0 
C 4.242641 -1.125161 3.795609 -2.204391 3 -3 
C 2.204391 -3.795609 1.125161 -4.242641 0 -4.242641 
C -1.125161 -4.242641 -2.204391 -3.795609 -3 -3 
C -3.795609 -2.204391 -4.242641 -1.125161 -4.242641 0 
C -4.242641 1.125161 -3.795609 2.204391 -3 3 
C -2.204391 3.795609 -1.125161 4.242641 0 4.242641 
z
" id="m2952f835e3" style="stroke:#333333;"/>
     </defs>
     <g>
      <use style="fill:#333333;stroke:#333333;" x="567.883" xlink:href="#m2952f835e3" y="130.573937"/>
     </g>
    </g>
    <g id="text_34">
     <!-- 100.0 -->
     <g transform="translate(585.883 133.198937)scale(0.1 -0.1)">
      <use xlink:href="#DejaVuSans-49"/>
      <use x="63.623047" xlink:href="#DejaVuSans-48"/>
      <use x="127.246094" xlink:href="#DejaVuSans-48"/>
      <use x="190.869141" xlink:href="#DejaVuSans-46"/>
      <use x="222.65625" xlink:href="#DejaVuSans-48"/>
     </g>
    </g>
   </g>
  </g>
 </g>
 <defs>
  <clipPath id="p505a7838ba">
   <rect height="371.448" width="723.168" x="116.64" y="57.888"/>
  </clipPath>
 </defs>
</svg>
