<?xml version="1.0" encoding="utf-8" standalone="no"?>
<!DOCTYPE svg PUBLIC "-//W3C//DTD SVG 1.1//EN"
  "http://www.w3.org/Graphics/SVG/1.1/DTD/svg11.dtd">
<!-- Created with matplotlib (https://matplotlib.org/) -->
<svg height="482.4pt" version="1.1" viewBox="0 0 933.12 482.4" width="933.12pt" xmlns="http://www.w3.org/2000/svg" xmlns:xlink="http://www.w3.org/1999/xlink">
 <defs>
  <style type="text/css">
*{stroke-linecap:butt;stroke-linejoin:round;}
  </style>
 </defs>
 <g id="figure_1">
  <g id="patch_1">
   <path d="M 0 482.4 
L 933.12 482.4 
L 933.12 0 
L 0 0 
z
" style="fill:#ffffff;"/>
  </g>
  <g id="axes_1">
   <g id="patch_2">
    <path d="M 116.64 429.336 
L 839.808 429.336 
L 839.808 57.888 
L 116.64 57.888 
z
" style="fill:#ffffff;"/>
   </g>
   <g id="PathCollection_1">
    <path clip-path="url(#p7ef30ba54b)" d="M 299.788218 207.032788 
C 300.884508 207.032788 301.936044 206.597227 302.711238 205.822033 
C 303.486432 205.046839 303.921992 203.995303 303.921992 202.899013 
C 303.921992 201.802723 303.486432 200.751187 302.711238 199.975993 
C 301.936044 199.200799 300.884508 198.765238 299.788218 198.765238 
C 298.691928 198.765238 297.640392 199.200799 296.865198 199.975993 
C 296.090004 200.751187 295.654443 201.802723 295.654443 202.899013 
C 295.654443 203.995303 296.090004 205.046839 296.865198 205.822033 
C 297.640392 206.597227 298.691928 207.032788 299.788218 207.032788 
z
" style="fill:#1f77b4;stroke:#ffffff;stroke-width:0.75;"/>
    <path clip-path="url(#p7ef30ba54b)" d="M 808.799006 414.429567 
C 809.883384 414.429567 810.923495 413.998738 811.690267 413.231967 
C 812.457038 412.465196 812.887866 411.425084 812.887866 410.340706 
C 812.887866 409.256327 812.457038 408.216216 811.690267 407.449445 
C 810.923495 406.682673 809.883384 406.251845 808.799006 406.251845 
C 807.714627 406.251845 806.674516 406.682673 805.907745 407.449445 
C 805.140973 408.216216 804.710145 409.256327 804.710145 410.340706 
C 804.710145 411.425084 805.140973 412.465196 805.907745 413.231967 
C 806.674516 413.998738 807.714627 414.429567 808.799006 414.429567 
z
" style="fill:#1f77b4;stroke:#ffffff;stroke-width:0.75;"/>
    <path clip-path="url(#p7ef30ba54b)" d="M 469.855913 296.610578 
C 470.940192 296.610578 471.980208 296.179789 472.746909 295.413088 
C 473.513609 294.646388 473.944398 293.606372 473.944398 292.522093 
C 473.944398 291.437815 473.513609 290.397799 472.746909 289.631098 
C 471.980208 288.864397 470.940192 288.433609 469.855913 288.433609 
C 468.771635 288.433609 467.731619 288.864397 466.964918 289.631098 
C 466.198217 290.397799 465.767429 291.437815 465.767429 292.522093 
C 465.767429 293.606372 466.198217 294.646388 466.964918 295.413088 
C 467.731619 296.179789 468.771635 296.610578 469.855913 296.610578 
z
" style="fill:#1f77b4;stroke:#ffffff;stroke-width:0.75;"/>
    <path clip-path="url(#p7ef30ba54b)" d="M 647.991719 364.375857 
C 649.085732 364.375857 650.135084 363.941201 650.908668 363.167617 
C 651.682252 362.394033 652.116907 361.344681 652.116907 360.250668 
C 652.116907 359.156655 651.682252 358.107303 650.908668 357.333719 
C 650.135084 356.560135 649.085732 356.125479 647.991719 356.125479 
C 646.897706 356.125479 645.848354 356.560135 645.07477 357.333719 
C 644.301186 358.107303 643.86653 359.156655 643.86653 360.250668 
C 643.86653 361.344681 644.301186 362.394033 645.07477 363.167617 
C 645.848354 363.941201 646.897706 364.375857 647.991719 364.375857 
z
" style="fill:#1f77b4;stroke:#ffffff;stroke-width:0.75;"/>
    <path clip-path="url(#p7ef30ba54b)" d="M 206.281653 147.753884 
C 207.398036 147.753884 208.468845 147.31034 209.258247 146.520938 
C 210.047649 145.731536 210.491193 144.660727 210.491193 143.544344 
C 210.491193 142.427961 210.047649 141.357151 209.258247 140.567749 
C 208.468845 139.778347 207.398036 139.334804 206.281653 139.334804 
C 205.16527 139.334804 204.094461 139.778347 203.305059 140.567749 
C 202.515657 141.357151 202.072113 142.427961 202.072113 143.544344 
C 202.072113 144.660727 202.515657 145.731536 203.305059 146.520938 
C 204.094461 147.31034 205.16527 147.753884 206.281653 147.753884 
z
" style="fill:#1f77b4;stroke:#ffffff;stroke-width:0.75;"/>
    <path clip-path="url(#p7ef30ba54b)" d="M 140.046802 94.404805 
C 141.126976 94.404805 142.163054 93.975647 142.926852 93.211849 
C 143.69065 92.448051 144.119808 91.411973 144.119808 90.331799 
C 144.119808 89.251626 143.69065 88.215548 142.926852 87.45175 
C 142.163054 86.687952 141.126976 86.258794 140.046802 86.258794 
C 138.966629 86.258794 137.930551 86.687952 137.166753 87.45175 
C 136.402954 88.215548 135.973797 89.251626 135.973797 90.331799 
C 135.973797 91.411973 136.402954 92.448051 137.166753 93.211849 
C 137.930551 93.975647 138.966629 94.404805 140.046802 94.404805 
z
" style="fill:#1f77b4;stroke:#ffffff;stroke-width:0.75;"/>
    <path clip-path="url(#p7ef30ba54b)" d="M 488.64434 304.791039 
C 489.644891 304.791039 490.604597 304.393516 491.312093 303.68602 
C 492.019589 302.978524 492.417112 302.018818 492.417112 301.018267 
C 492.417112 300.017716 492.019589 299.058011 491.312093 298.350515 
C 490.604597 297.643018 489.644891 297.245495 488.64434 297.245495 
C 487.643789 297.245495 486.684084 297.643018 485.976588 298.350515 
C 485.269091 299.058011 484.871568 300.017716 484.871568 301.018267 
C 484.871568 302.018818 485.269091 302.978524 485.976588 303.68602 
C 486.684084 304.393516 487.643789 304.791039 488.64434 304.791039 
z
" style="fill:#1f77b4;stroke:#ffffff;stroke-width:0.75;"/>
    <path clip-path="url(#p7ef30ba54b)" d="M 420.08495 271.609867 
C 420.647531 271.609867 421.187145 271.386351 421.58495 270.988547 
C 421.982755 270.590742 422.20627 270.051127 422.20627 269.488547 
C 422.20627 268.925966 421.982755 268.386351 421.58495 267.988547 
C 421.187145 267.590742 420.647531 267.367226 420.08495 267.367226 
C 419.522369 267.367226 418.982755 267.590742 418.58495 267.988547 
C 418.187145 268.386351 417.96363 268.925966 417.96363 269.488547 
C 417.96363 270.051127 418.187145 270.590742 418.58495 270.988547 
C 418.982755 271.386351 419.522369 271.609867 420.08495 271.609867 
z
" style="fill:#1f77b4;stroke:#ffffff;stroke-width:0.75;"/>
    <path clip-path="url(#p7ef30ba54b)" d="M 210.623998 150.817076 
C 211.739673 150.817076 212.809803 150.373813 213.598705 149.584912 
C 214.387606 148.796011 214.830869 147.72588 214.830869 146.610205 
C 214.830869 145.49453 214.387606 144.4244 213.598705 143.635499 
C 212.809803 142.846597 211.739673 142.403335 210.623998 142.403335 
C 209.508323 142.403335 208.438193 142.846597 207.649292 143.635499 
C 206.86039 144.4244 206.417128 145.49453 206.417128 146.610205 
C 206.417128 147.72588 206.86039 148.796011 207.649292 149.584912 
C 208.438193 150.373813 209.508323 150.817076 210.623998 150.817076 
z
" style="fill:#1f77b4;stroke:#ffffff;stroke-width:0.75;"/>
    <path clip-path="url(#p7ef30ba54b)" d="M 527.164277 324.021456 
C 528.224569 324.021456 529.241577 323.600198 529.991316 322.850458 
C 530.741056 322.100718 531.162315 321.08371 531.162315 320.023418 
C 531.162315 318.963126 530.741056 317.946118 529.991316 317.196379 
C 529.241577 316.446639 528.224569 316.02538 527.164277 316.02538 
C 526.103985 316.02538 525.086977 316.446639 524.337237 317.196379 
C 523.587497 317.946118 523.166239 318.963126 523.166239 320.023418 
C 523.166239 321.08371 523.587497 322.100718 524.337237 322.850458 
C 525.086977 323.600198 526.103985 324.021456 527.164277 324.021456 
z
" style="fill:#1f77b4;stroke:#ffffff;stroke-width:0.75;"/>
    <path clip-path="url(#p7ef30ba54b)" d="M 737.000817 393.204073 
C 737.960868 393.204073 738.881728 392.822641 739.560587 392.143782 
C 740.239446 391.464923 740.620878 390.544063 740.620878 389.584012 
C 740.620878 388.62396 740.239446 387.703101 739.560587 387.024242 
C 738.881728 386.345383 737.960868 385.963951 737.000817 385.963951 
C 736.040765 385.963951 735.119906 386.345383 734.441047 387.024242 
C 733.762188 387.703101 733.380755 388.62396 733.380755 389.584012 
C 733.380755 390.544063 733.762188 391.464923 734.441047 392.143782 
C 735.119906 392.822641 736.040765 393.204073 737.000817 393.204073 
z
" style="fill:#1f77b4;stroke:#ffffff;stroke-width:0.75;"/>
    <path clip-path="url(#p7ef30ba54b)" d="M 354.114756 237.467325 
C 354.926037 237.467325 355.704199 237.145 356.277862 236.571337 
C 356.851524 235.997675 357.173849 235.219513 357.173849 234.408232 
C 357.173849 233.596951 356.851524 232.818789 356.277862 232.245127 
C 355.704199 231.671464 354.926037 231.349139 354.114756 231.349139 
C 353.303475 231.349139 352.525313 231.671464 351.951651 232.245127 
C 351.377989 232.818789 351.055663 233.596951 351.055663 234.408232 
C 351.055663 235.219513 351.377989 235.997675 351.951651 236.571337 
C 352.525313 237.145 353.303475 237.467325 354.114756 237.467325 
z
" style="fill:#1f77b4;stroke:#ffffff;stroke-width:0.75;"/>
    <path clip-path="url(#p7ef30ba54b)" d="M 600.811538 347.280112 
C 601.689898 347.280112 602.532402 346.931136 603.153497 346.310041 
C 603.774591 345.688946 604.123568 344.846443 604.123568 343.968082 
C 604.123568 343.089722 603.774591 342.247218 603.153497 341.626124 
C 602.532402 341.005029 601.689898 340.656053 600.811538 340.656053 
C 599.933177 340.656053 599.090674 341.005029 598.469579 341.626124 
C 597.848485 342.247218 597.499508 343.089722 597.499508 343.968082 
C 597.499508 344.846443 597.848485 345.688946 598.469579 346.310041 
C 599.090674 346.931136 599.933177 347.280112 600.811538 347.280112 
z
" style="fill:#1f77b4;stroke:#ffffff;stroke-width:0.75;"/>
    <path clip-path="url(#p7ef30ba54b)" d="M 120.647201 75.172652 
C 121.762 75.172652 122.831289 74.729738 123.61957 73.941457 
C 124.407851 73.153175 124.850765 72.083886 124.850765 70.969088 
C 124.850765 69.85429 124.407851 68.785001 123.61957 67.99672 
C 122.831289 67.208439 121.762 66.765525 120.647201 66.765525 
C 119.532403 66.765525 118.463114 67.208439 117.674833 67.99672 
C 116.886552 68.785001 116.443638 69.85429 116.443638 70.969088 
C 116.443638 72.083886 116.886552 73.153175 117.674833 73.941457 
C 118.463114 74.729738 119.532403 75.172652 120.647201 75.172652 
z
" style="fill:#1f77b4;stroke:#ffffff;stroke-width:0.75;"/>
    <path clip-path="url(#p7ef30ba54b)" d="M 668.208886 371.281927 
C 669.322299 371.281927 670.390259 370.839564 671.177561 370.052262 
C 671.964862 369.264961 672.407226 368.197001 672.407226 367.083588 
C 672.407226 365.970176 671.964862 364.902216 671.177561 364.114914 
C 670.390259 363.327612 669.322299 362.885249 668.208886 362.885249 
C 667.095474 362.885249 666.027514 363.327612 665.240212 364.114914 
C 664.452911 364.902216 664.010547 365.970176 664.010547 367.083588 
C 664.010547 368.197001 664.452911 369.264961 665.240212 370.052262 
C 666.027514 370.839564 667.095474 371.281927 668.208886 371.281927 
z
" style="fill:#1f77b4;stroke:#ffffff;stroke-width:0.75;"/>
    <path clip-path="url(#p7ef30ba54b)" d="M 830.457863 420.497552 
C 831.583025 420.497552 832.662254 420.050521 833.457863 419.254912 
C 834.253473 418.459302 834.700504 417.380073 834.700504 416.254912 
C 834.700504 415.12975 834.253473 414.050521 833.457863 413.254912 
C 832.662254 412.459302 831.583025 412.012271 830.457863 412.012271 
C 829.332702 412.012271 828.253473 412.459302 827.457863 413.254912 
C 826.662254 414.050521 826.215223 415.12975 826.215223 416.254912 
C 826.215223 417.380073 826.662254 418.459302 827.457863 419.254912 
C 828.253473 420.050521 829.332702 420.497552 830.457863 420.497552 
z
" style="fill:#1f77b4;stroke:#ffffff;stroke-width:0.75;"/>
    <path clip-path="url(#p7ef30ba54b)" d="M 765.402483 401.804739 
C 766.404926 401.804739 767.366447 401.406464 768.075281 400.69763 
C 768.784115 399.988795 769.18239 399.027274 769.18239 398.024831 
C 769.18239 397.022388 768.784115 396.060867 768.075281 395.352033 
C 767.366447 394.643199 766.404926 394.244924 765.402483 394.244924 
C 764.40004 394.244924 763.438519 394.643199 762.729684 395.352033 
C 762.02085 396.060867 761.622575 397.022388 761.622575 398.024831 
C 761.622575 399.027274 762.02085 399.988795 762.729684 400.69763 
C 763.438519 401.406464 764.40004 401.804739 765.402483 401.804739 
z
" style="fill:#1f77b4;stroke:#ffffff;stroke-width:0.75;"/>
    <path clip-path="url(#p7ef30ba54b)" d="M 786.945134 408.171723 
C 787.996733 408.171723 789.005404 407.753918 789.748997 407.010325 
C 790.49259 406.266731 790.910395 405.258061 790.910395 404.206461 
C 790.910395 403.154862 790.49259 402.146191 789.748997 401.402598 
C 789.005404 400.659005 787.996733 400.2412 786.945134 400.2412 
C 785.893534 400.2412 784.884863 400.659005 784.14127 401.402598 
C 783.397677 402.146191 782.979872 403.154862 782.979872 404.206461 
C 782.979872 405.258061 783.397677 406.266731 784.14127 407.010325 
C 784.884863 407.753918 785.893534 408.171723 786.945134 408.171723 
z
" style="fill:#1f77b4;stroke:#ffffff;stroke-width:0.75;"/>
    <path clip-path="url(#p7ef30ba54b)" d="M 182.947812 130.256261 
C 184.046504 130.256261 185.100345 129.819746 185.877238 129.042853 
C 186.65413 128.26596 187.090645 127.212119 187.090645 126.113427 
C 187.090645 125.014735 186.65413 123.960894 185.877238 123.184002 
C 185.100345 122.407109 184.046504 121.970594 182.947812 121.970594 
C 181.84912 121.970594 180.795279 122.407109 180.018387 123.184002 
C 179.241494 123.960894 178.804979 125.014735 178.804979 126.113427 
C 178.804979 127.212119 179.241494 128.26596 180.018387 129.042853 
C 180.795279 129.819746 181.84912 130.256261 182.947812 130.256261 
z
" style="fill:#1f77b4;stroke:#ffffff;stroke-width:0.75;"/>
    <path clip-path="url(#p7ef30ba54b)" d="M 473.019411 297.332596 
C 474.09766 297.332596 475.131892 296.904204 475.894329 296.141766 
C 476.656766 295.379329 477.085159 294.345097 477.085159 293.266848 
C 477.085159 292.188599 476.656766 291.154368 475.894329 290.39193 
C 475.131892 289.629493 474.09766 289.2011 473.019411 289.2011 
C 471.941162 289.2011 470.90693 289.629493 470.144493 290.39193 
C 469.382056 291.154368 468.953663 292.188599 468.953663 293.266848 
C 468.953663 294.345097 469.382056 295.379329 470.144493 296.141766 
C 470.90693 296.904204 471.941162 297.332596 473.019411 297.332596 
z
" style="fill:#1f77b4;stroke:#ffffff;stroke-width:0.75;"/>
    <path clip-path="url(#p7ef30ba54b)" d="M 504.224818 311.359398 
C 505.134087 311.359398 506.006238 310.998142 506.649188 310.355192 
C 507.292138 309.712241 507.653395 308.840091 507.653395 307.930822 
C 507.653395 307.021553 507.292138 306.149402 506.649188 305.506452 
C 506.006238 304.863502 505.134087 304.502245 504.224818 304.502245 
C 503.315549 304.502245 502.443399 304.863502 501.800449 305.506452 
C 501.157498 306.149402 500.796242 307.021553 500.796242 307.930822 
C 500.796242 308.840091 501.157498 309.712241 501.800449 310.355192 
C 502.443399 310.998142 503.315549 311.359398 504.224818 311.359398 
z
" style="fill:#1f77b4;stroke:#ffffff;stroke-width:0.75;"/>
    <path clip-path="url(#p7ef30ba54b)" d="M 241.558047 171.862864 
C 242.652298 171.862864 243.701879 171.428114 244.475631 170.654362 
C 245.249384 169.880609 245.684134 168.831028 245.684134 167.736777 
C 245.684134 166.642526 245.249384 165.592946 244.475631 164.819193 
C 243.701879 164.045441 242.652298 163.61069 241.558047 163.61069 
C 240.463796 163.61069 239.414215 164.045441 238.640463 164.819193 
C 237.866711 165.592946 237.43196 166.642526 237.43196 167.736777 
C 237.43196 168.831028 237.866711 169.880609 238.640463 170.654362 
C 239.414215 171.428114 240.463796 171.862864 241.558047 171.862864 
z
" style="fill:#1f77b4;stroke:#ffffff;stroke-width:0.75;"/>
    <path clip-path="url(#p7ef30ba54b)" d="M 489.954726 305.100577 
C 490.911041 305.100577 491.828317 304.720629 492.504534 304.044412 
C 493.180751 303.368195 493.560699 302.450919 493.560699 301.494604 
C 493.560699 300.538289 493.180751 299.621013 492.504534 298.944796 
C 491.828317 298.268579 490.911041 297.888631 489.954726 297.888631 
C 488.99841 297.888631 488.081135 298.268579 487.404918 298.944796 
C 486.728701 299.621013 486.348753 300.538289 486.348753 301.494604 
C 486.348753 302.450919 486.728701 303.368195 487.404918 304.044412 
C 488.081135 304.720629 488.99841 305.100577 489.954726 305.100577 
z
" style="fill:#1f77b4;stroke:#ffffff;stroke-width:0.75;"/>
    <path clip-path="url(#p7ef30ba54b)" d="M 713.574118 386.151109 
C 714.627092 386.151109 715.63708 385.732758 716.381645 384.988194 
C 717.12621 384.243629 717.544561 383.23364 717.544561 382.180666 
C 717.544561 381.127693 717.12621 380.117704 716.381645 379.373139 
C 715.63708 378.628574 714.627092 378.210224 713.574118 378.210224 
C 712.521144 378.210224 711.511156 378.628574 710.766591 379.373139 
C 710.022026 380.117704 709.603675 381.127693 709.603675 382.180666 
C 709.603675 383.23364 710.022026 384.243629 710.766591 384.988194 
C 711.511156 385.732758 712.521144 386.151109 713.574118 386.151109 
z
" style="fill:#1f77b4;stroke:#ffffff;stroke-width:0.75;"/>
    <path clip-path="url(#p7ef30ba54b)" d="M 700.22034 381.887439 
C 701.338058 381.887439 702.410148 381.443365 703.200494 380.653019 
C 703.99084 379.862673 704.434914 378.790583 704.434914 377.672865 
C 704.434914 376.555147 703.99084 375.483057 703.200494 374.692711 
C 702.410148 373.902365 701.338058 373.458291 700.22034 373.458291 
C 699.102621 373.458291 698.030532 373.902365 697.240186 374.692711 
C 696.449839 375.483057 696.005765 376.555147 696.005765 377.672865 
C 696.005765 378.790583 696.449839 379.862673 697.240186 380.653019 
C 698.030532 381.443365 699.102621 381.887439 700.22034 381.887439 
z
" style="fill:#1f77b4;stroke:#ffffff;stroke-width:0.75;"/>
    <path clip-path="url(#p7ef30ba54b)" d="M 462.769678 293.222137 
C 463.826144 293.222137 464.839482 292.802398 465.586517 292.055364 
C 466.333551 291.30833 466.753289 290.294992 466.753289 289.238526 
C 466.753289 288.18206 466.333551 287.168721 465.586517 286.421687 
C 464.839482 285.674653 463.826144 285.254914 462.769678 285.254914 
C 461.713212 285.254914 460.699874 285.674653 459.95284 286.421687 
C 459.205805 287.168721 458.786067 288.18206 458.786067 289.238526 
C 458.786067 290.294992 459.205805 291.30833 459.95284 292.055364 
C 460.699874 292.802398 461.713212 293.222137 462.769678 293.222137 
z
" style="fill:#1f77b4;stroke:#ffffff;stroke-width:0.75;"/>
    <path clip-path="url(#p7ef30ba54b)" d="M 545.958175 327.090456 
C 546.767867 327.090456 547.544506 326.768762 548.117045 326.196223 
C 548.689583 325.623684 549.011278 324.847046 549.011278 324.037354 
C 549.011278 323.227661 548.689583 322.451023 548.117045 321.878484 
C 547.544506 321.305945 546.767867 320.984251 545.958175 320.984251 
C 545.148483 320.984251 544.371844 321.305945 543.799305 321.878484 
C 543.226766 322.451023 542.905072 323.227661 542.905072 324.037354 
C 542.905072 324.847046 543.226766 325.623684 543.799305 326.196223 
C 544.371844 326.768762 545.148483 327.090456 545.958175 327.090456 
z
" style="fill:#1f77b4;stroke:#ffffff;stroke-width:0.75;"/>
   </g>
   <g id="PathCollection_2"/>
   <g id="PathCollection_3"/>
   <g id="PathCollection_4"/>
   <g id="PathCollection_5"/>
   <g id="PathCollection_6"/>
   <g id="patch_3">
    <path clip-path="url(#p7ef30ba54b)" d="z
" style="fill:#808080;stroke:#808080;stroke-linejoin:miter;"/>
   </g>
   <g id="patch_4">
    <path clip-path="url(#p7ef30ba54b)" d="M 135.947662 86.240454 
L 135.67512 86.625873 
L 135.681553 86.007724 
L 123.071813 73.421961 
L 123.07249 73.356893 
L 135.682231 85.942655 
L 135.688664 85.324506 
z
" style="fill:#808080;stroke:#808080;stroke-linejoin:miter;"/>
   </g>
   <g id="patch_5">
    <path clip-path="url(#p7ef30ba54b)" d="M 173.561268 118.284571 
L 173.289417 118.714256 
L 173.294802 118.095146 
L 145.409145 94.837088 
L 145.409712 94.771918 
L 173.295368 118.029976 
L 173.300752 117.410866 
z
" style="fill:#808080;stroke:#808080;stroke-linejoin:miter;"/>
   </g>
   <g id="patch_6">
    <path clip-path="url(#p7ef30ba54b)" d="M 201.297912 139.821374 
L 201.026459 140.274547 
L 201.031285 139.654995 
L 185.864288 128.3249 
L 185.864796 128.259684 
L 201.031793 139.589779 
L 201.036618 138.970228 
z
" style="fill:#808080;stroke:#808080;stroke-linejoin:miter;"/>
   </g>
   <g id="patch_7">
    <path clip-path="url(#p7ef30ba54b)" d="M 209.913426 146.108514 
L 209.642168 146.572748 
L 209.64673 145.953004 
L 206.824206 143.960194 
L 206.824686 143.894958 
L 209.647211 145.887768 
L 209.651773 145.268025 
z
" style="fill:#808080;stroke:#808080;stroke-linejoin:miter;"/>
   </g>
   <g id="patch_8">
    <path clip-path="url(#p7ef30ba54b)" d="M 234.864386 163.165306 
L 234.59324 163.635768 
L 234.597654 163.015922 
L 214.490522 149.28365 
L 214.490987 149.218403 
L 234.598118 162.950675 
L 234.602532 162.330829 
z
" style="fill:#808080;stroke:#808080;stroke-linejoin:miter;"/>
   </g>
   <g id="patch_9">
    <path clip-path="url(#p7ef30ba54b)" d="M 286.95307 195.14852 
L 286.682319 195.640325 
L 286.686224 195.020151 
L 248.836613 172.164698 
L 248.837024 172.099416 
L 286.686635 194.954869 
L 286.69054 194.334695 
z
" style="fill:#808080;stroke:#808080;stroke-linejoin:miter;"/>
   </g>
   <g id="patch_10">
    <path clip-path="url(#p7ef30ba54b)" d="M 342.157965 227.473331 
L 341.887337 227.971568 
L 341.891088 227.351303 
L 306.578838 206.870311 
L 306.579232 206.80502 
L 341.891482 227.286012 
L 341.895234 226.665747 
z
" style="fill:#808080;stroke:#808080;stroke-linejoin:miter;"/>
   </g>
   <g id="patch_11">
    <path clip-path="url(#p7ef30ba54b)" d="M 405.50841 261.737325 
L 405.238035 262.248568 
L 405.241475 261.628131 
L 362.360849 238.825926 
L 362.361212 238.760617 
L 405.241837 261.562821 
L 405.245278 260.942384 
z
" style="fill:#808080;stroke:#808080;stroke-linejoin:miter;"/>
   </g>
   <g id="patch_12">
    <path clip-path="url(#p7ef30ba54b)" d="M 503.338265 308.779003 
L 503.068213 309.306369 
L 503.071267 308.685737 
L 433.469705 275.83807 
L 433.470027 275.772741 
L 503.071589 308.620407 
L 503.074643 307.999776 
z
" style="fill:#808080;stroke:#808080;stroke-linejoin:miter;"/>
   </g>
   <g id="patch_13">
    <path clip-path="url(#p7ef30ba54b)" d="M 498.060073 305.530731 
L 498.330266 305.010377 
L 498.327044 305.630927 
L 522.513252 317.674656 
L 522.512913 317.739977 
L 498.326705 305.696248 
L 498.323483 306.316798 
z
" style="fill:#808080;stroke:#808080;stroke-linejoin:miter;"/>
   </g>
   <g id="patch_14">
    <path clip-path="url(#p7ef30ba54b)" d="M 468.61945 291.875831 
L 468.889385 291.342781 
L 468.886468 291.963475 
L 486.556748 299.929926 
L 486.556441 299.995262 
L 468.88616 292.028811 
L 468.883243 292.649506 
z
" style="fill:#808080;stroke:#808080;stroke-linejoin:miter;"/>
   </g>
   <g id="patch_15">
    <path clip-path="url(#p7ef30ba54b)" d="M 470.980153 292.465385 
L 470.710543 293.014004 
L 470.713087 292.393152 
L 464.050761 289.774742 
L 464.051029 289.70939 
L 470.713355 292.327799 
L 470.715899 291.706947 
z
" style="fill:#808080;stroke:#808080;stroke-linejoin:miter;"/>
   </g>
   <g id="patch_16">
    <path clip-path="url(#p7ef30ba54b)" d="M 470.300631 292.626789 
L 470.569305 292.035798 
L 470.567781 292.65697 
L 472.624054 293.141061 
L 472.623894 293.206447 
L 470.56762 292.722356 
L 470.566095 293.343529 
z
" style="fill:#808080;stroke:#808080;stroke-linejoin:miter;"/>
   </g>
   <g id="patch_17">
    <path clip-path="url(#p7ef30ba54b)" d="M 484.683807 299.227304 
L 484.413864 299.759986 
L 484.41679 299.139296 
L 472.204313 293.616783 
L 472.204621 293.551447 
L 484.417098 299.07396 
L 484.420025 298.45327 
z
" style="fill:#808080;stroke:#808080;stroke-linejoin:miter;"/>
   </g>
   <g id="patch_18">
    <path clip-path="url(#p7ef30ba54b)" d="M 500.986084 306.4939 
L 500.716188 307.028881 
L 500.71906 306.408166 
L 490.591749 301.915006 
L 490.592051 301.849667 
L 500.719362 306.342828 
L 500.722233 305.722113 
z
" style="fill:#808080;stroke:#808080;stroke-linejoin:miter;"/>
   </g>
   <g id="patch_19">
    <path clip-path="url(#p7ef30ba54b)" d="M 536.835109 320.516406 
L 536.56554 321.066931 
L 536.568038 320.446061 
L 509.441356 309.976816 
L 509.441619 309.911461 
L 536.568301 320.380707 
L 536.5708 319.759837 
z
" style="fill:#808080;stroke:#808080;stroke-linejoin:miter;"/>
   </g>
   <g id="patch_20">
    <path clip-path="url(#p7ef30ba54b)" d="M 588.736494 339.580668 
L 588.467055 340.137273 
L 588.469407 339.516349 
L 552.814721 326.561375 
L 552.814969 326.496015 
L 588.469655 339.450988 
L 588.472007 338.830064 
z
" style="fill:#808080;stroke:#808080;stroke-linejoin:miter;"/>
   </g>
   <g id="patch_21">
    <path clip-path="url(#p7ef30ba54b)" d="M 637.643159 356.679225 
L 637.373826 357.240735 
L 637.37606 356.619769 
L 606.708943 346.036088 
L 606.709178 345.970723 
L 637.376296 356.554404 
L 637.37853 355.933437 
z
" style="fill:#808080;stroke:#808080;stroke-linejoin:miter;"/>
   </g>
   <g id="patch_22">
    <path clip-path="url(#p7ef30ba54b)" d="M 663.927012 365.636417 
L 663.65772 366.199846 
L 663.659909 365.578864 
L 650.518749 361.137466 
L 650.51898 361.0721 
L 663.660139 365.513498 
L 663.662327 364.892516 
z
" style="fill:#808080;stroke:#808080;stroke-linejoin:miter;"/>
   </g>
   <g id="patch_23">
    <path clip-path="url(#p7ef30ba54b)" d="M 693.284757 375.378599 
L 693.015508 375.94396 
L 693.01765 375.322962 
L 672.210205 368.439932 
L 672.210431 368.374564 
L 693.017875 375.257594 
L 693.020017 374.636596 
z
" style="fill:#808080;stroke:#808080;stroke-linejoin:miter;"/>
   </g>
   <g id="patch_24">
    <path clip-path="url(#p7ef30ba54b)" d="M 710.836506 381.256538 
L 710.567217 381.820077 
L 710.569403 381.199094 
L 701.889447 378.269024 
L 701.889677 378.203657 
L 710.569633 381.133728 
L 710.571819 380.512745 
z
" style="fill:#808080;stroke:#808080;stroke-linejoin:miter;"/>
   </g>
   <g id="patch_25">
    <path clip-path="url(#p7ef30ba54b)" d="M 731.996817 388.002639 
L 731.727655 388.571973 
L 731.729702 387.950945 
L 716.502348 383.13877 
L 716.502563 383.073399 
L 731.729917 387.885574 
L 731.731964 387.264545 
z
" style="fill:#808080;stroke:#808080;stroke-linejoin:miter;"/>
   </g>
   <g id="patch_26">
    <path clip-path="url(#p7ef30ba54b)" d="M 759.279132 396.205005 
L 759.010082 396.7794 
L 759.012007 396.158335 
L 740.550924 390.671802 
L 740.551126 390.606427 
L 759.012209 396.092959 
L 759.014134 395.471893 
z
" style="fill:#808080;stroke:#808080;stroke-linejoin:miter;"/>
   </g>
   <g id="patch_27">
    <path clip-path="url(#p7ef30ba54b)" d="M 782.365069 402.892219 
L 782.096081 403.469368 
L 782.097939 402.848283 
L 768.095216 398.830224 
L 768.095412 398.764846 
L 782.098135 402.782906 
L 782.099993 402.161821 
z
" style="fill:#808080;stroke:#808080;stroke-linejoin:miter;"/>
   </g>
   <g id="patch_28">
    <path clip-path="url(#p7ef30ba54b)" d="M 804.148922 409.035457 
L 803.879971 409.614287 
L 803.881789 408.99319 
L 789.676772 405.005931 
L 789.676963 404.940553 
L 803.88198 408.927812 
L 803.883798 408.306715 
z
" style="fill:#808080;stroke:#808080;stroke-linejoin:miter;"/>
   </g>
   <g id="patch_29">
    <path clip-path="url(#p7ef30ba54b)" d="M 825.851663 414.997135 
L 825.582759 415.578016 
L 825.584527 414.956905 
L 811.50627 411.112672 
L 811.506456 411.047292 
L 825.584713 414.891525 
L 825.586482 414.270415 
z
" style="fill:#808080;stroke:#808080;stroke-linejoin:miter;"/>
   </g>
   <g id="matplotlib.axis_1">
    <g id="xtick_1">
     <g id="line2d_1">
      <defs>
       <path d="M 0 0 
L 0 3.5 
" id="m50ebec7f5b" style="stroke:#000000;stroke-width:0.8;"/>
      </defs>
      <g>
       <use style="stroke:#000000;stroke-width:0.8;" x="167.35263" xlink:href="#m50ebec7f5b" y="429.336"/>
      </g>
     </g>
     <g id="text_1">
      <!-- 2 -->
      <defs>
       <path d="M 19.1875 8.296875 
L 53.609375 8.296875 
L 53.609375 0 
L 7.328125 0 
L 7.328125 8.296875 
Q 12.9375 14.109375 22.625 23.890625 
Q 32.328125 33.6875 34.8125 36.53125 
Q 39.546875 41.84375 41.421875 45.53125 
Q 43.3125 49.21875 43.3125 52.78125 
Q 43.3125 58.59375 39.234375 62.25 
Q 35.15625 65.921875 28.609375 65.921875 
Q 23.96875 65.921875 18.8125 64.3125 
Q 13.671875 62.703125 7.8125 59.421875 
L 7.8125 69.390625 
Q 13.765625 71.78125 18.9375 73 
Q 24.125 74.21875 28.421875 74.21875 
Q 39.75 74.21875 46.484375 68.546875 
Q 53.21875 62.890625 53.21875 53.421875 
Q 53.21875 48.921875 51.53125 44.890625 
Q 49.859375 40.875 45.40625 35.40625 
Q 44.1875 33.984375 37.640625 27.21875 
Q 31.109375 20.453125 19.1875 8.296875 
z
" id="DejaVuSans-50"/>
      </defs>
      <g transform="translate(164.17138 443.934438)scale(0.1 -0.1)">
       <use xlink:href="#DejaVuSans-50"/>
      </g>
     </g>
    </g>
    <g id="xtick_2">
     <g id="line2d_2">
      <g>
       <use style="stroke:#000000;stroke-width:0.8;" x="300.926012" xlink:href="#m50ebec7f5b" y="429.336"/>
      </g>
     </g>
     <g id="text_2">
      <!-- 3 -->
      <defs>
       <path d="M 40.578125 39.3125 
Q 47.65625 37.796875 51.625 33 
Q 55.609375 28.21875 55.609375 21.1875 
Q 55.609375 10.40625 48.1875 4.484375 
Q 40.765625 -1.421875 27.09375 -1.421875 
Q 22.515625 -1.421875 17.65625 -0.515625 
Q 12.796875 0.390625 7.625 2.203125 
L 7.625 11.71875 
Q 11.71875 9.328125 16.59375 8.109375 
Q 21.484375 6.890625 26.8125 6.890625 
Q 36.078125 6.890625 40.9375 10.546875 
Q 45.796875 14.203125 45.796875 21.1875 
Q 45.796875 27.640625 41.28125 31.265625 
Q 36.765625 34.90625 28.71875 34.90625 
L 20.21875 34.90625 
L 20.21875 43.015625 
L 29.109375 43.015625 
Q 36.375 43.015625 40.234375 45.921875 
Q 44.09375 48.828125 44.09375 54.296875 
Q 44.09375 59.90625 40.109375 62.90625 
Q 36.140625 65.921875 28.71875 65.921875 
Q 24.65625 65.921875 20.015625 65.03125 
Q 15.375 64.15625 9.8125 62.3125 
L 9.8125 71.09375 
Q 15.4375 72.65625 20.34375 73.4375 
Q 25.25 74.21875 29.59375 74.21875 
Q 40.828125 74.21875 47.359375 69.109375 
Q 53.90625 64.015625 53.90625 55.328125 
Q 53.90625 49.265625 50.4375 45.09375 
Q 46.96875 40.921875 40.578125 39.3125 
z
" id="DejaVuSans-51"/>
      </defs>
      <g transform="translate(297.744762 443.934438)scale(0.1 -0.1)">
       <use xlink:href="#DejaVuSans-51"/>
      </g>
     </g>
    </g>
    <g id="xtick_3">
     <g id="line2d_3">
      <g>
       <use style="stroke:#000000;stroke-width:0.8;" x="434.499393" xlink:href="#m50ebec7f5b" y="429.336"/>
      </g>
     </g>
     <g id="text_3">
      <!-- 4 -->
      <defs>
       <path d="M 37.796875 64.3125 
L 12.890625 25.390625 
L 37.796875 25.390625 
z
M 35.203125 72.90625 
L 47.609375 72.90625 
L 47.609375 25.390625 
L 58.015625 25.390625 
L 58.015625 17.1875 
L 47.609375 17.1875 
L 47.609375 0 
L 37.796875 0 
L 37.796875 17.1875 
L 4.890625 17.1875 
L 4.890625 26.703125 
z
" id="DejaVuSans-52"/>
      </defs>
      <g transform="translate(431.318143 443.934438)scale(0.1 -0.1)">
       <use xlink:href="#DejaVuSans-52"/>
      </g>
     </g>
    </g>
    <g id="xtick_4">
     <g id="line2d_4">
      <g>
       <use style="stroke:#000000;stroke-width:0.8;" x="568.072774" xlink:href="#m50ebec7f5b" y="429.336"/>
      </g>
     </g>
     <g id="text_4">
      <!-- 5 -->
      <defs>
       <path d="M 10.796875 72.90625 
L 49.515625 72.90625 
L 49.515625 64.59375 
L 19.828125 64.59375 
L 19.828125 46.734375 
Q 21.96875 47.46875 24.109375 47.828125 
Q 26.265625 48.1875 28.421875 48.1875 
Q 40.625 48.1875 47.75 41.5 
Q 54.890625 34.8125 54.890625 23.390625 
Q 54.890625 11.625 47.5625 5.09375 
Q 40.234375 -1.421875 26.90625 -1.421875 
Q 22.3125 -1.421875 17.546875 -0.640625 
Q 12.796875 0.140625 7.71875 1.703125 
L 7.71875 11.625 
Q 12.109375 9.234375 16.796875 8.0625 
Q 21.484375 6.890625 26.703125 6.890625 
Q 35.15625 6.890625 40.078125 11.328125 
Q 45.015625 15.765625 45.015625 23.390625 
Q 45.015625 31 40.078125 35.4375 
Q 35.15625 39.890625 26.703125 39.890625 
Q 22.75 39.890625 18.8125 39.015625 
Q 14.890625 38.140625 10.796875 36.28125 
z
" id="DejaVuSans-53"/>
      </defs>
      <g transform="translate(564.891524 443.934438)scale(0.1 -0.1)">
       <use xlink:href="#DejaVuSans-53"/>
      </g>
     </g>
    </g>
    <g id="xtick_5">
     <g id="line2d_5">
      <g>
       <use style="stroke:#000000;stroke-width:0.8;" x="701.646156" xlink:href="#m50ebec7f5b" y="429.336"/>
      </g>
     </g>
     <g id="text_5">
      <!-- 6 -->
      <defs>
       <path d="M 33.015625 40.375 
Q 26.375 40.375 22.484375 35.828125 
Q 18.609375 31.296875 18.609375 23.390625 
Q 18.609375 15.53125 22.484375 10.953125 
Q 26.375 6.390625 33.015625 6.390625 
Q 39.65625 6.390625 43.53125 10.953125 
Q 47.40625 15.53125 47.40625 23.390625 
Q 47.40625 31.296875 43.53125 35.828125 
Q 39.65625 40.375 33.015625 40.375 
z
M 52.59375 71.296875 
L 52.59375 62.3125 
Q 48.875 64.0625 45.09375 64.984375 
Q 41.3125 65.921875 37.59375 65.921875 
Q 27.828125 65.921875 22.671875 59.328125 
Q 17.53125 52.734375 16.796875 39.40625 
Q 19.671875 43.65625 24.015625 45.921875 
Q 28.375 48.1875 33.59375 48.1875 
Q 44.578125 48.1875 50.953125 41.515625 
Q 57.328125 34.859375 57.328125 23.390625 
Q 57.328125 12.15625 50.6875 5.359375 
Q 44.046875 -1.421875 33.015625 -1.421875 
Q 20.359375 -1.421875 13.671875 8.265625 
Q 6.984375 17.96875 6.984375 36.375 
Q 6.984375 53.65625 15.1875 63.9375 
Q 23.390625 74.21875 37.203125 74.21875 
Q 40.921875 74.21875 44.703125 73.484375 
Q 48.484375 72.75 52.59375 71.296875 
z
" id="DejaVuSans-54"/>
      </defs>
      <g transform="translate(698.464906 443.934438)scale(0.1 -0.1)">
       <use xlink:href="#DejaVuSans-54"/>
      </g>
     </g>
    </g>
    <g id="xtick_6">
     <g id="line2d_6">
      <g>
       <use style="stroke:#000000;stroke-width:0.8;" x="835.219537" xlink:href="#m50ebec7f5b" y="429.336"/>
      </g>
     </g>
     <g id="text_6">
      <!-- 7 -->
      <defs>
       <path d="M 8.203125 72.90625 
L 55.078125 72.90625 
L 55.078125 68.703125 
L 28.609375 0 
L 18.3125 0 
L 43.21875 64.59375 
L 8.203125 64.59375 
z
" id="DejaVuSans-55"/>
      </defs>
      <g transform="translate(832.038287 443.934438)scale(0.1 -0.1)">
       <use xlink:href="#DejaVuSans-55"/>
      </g>
     </g>
    </g>
    <g id="text_7">
     <!-- Intercept_last_week -->
     <defs>
      <path d="M 9.8125 72.90625 
L 19.671875 72.90625 
L 19.671875 0 
L 9.8125 0 
z
" id="DejaVuSans-73"/>
      <path d="M 54.890625 33.015625 
L 54.890625 0 
L 45.90625 0 
L 45.90625 32.71875 
Q 45.90625 40.484375 42.875 44.328125 
Q 39.84375 48.1875 33.796875 48.1875 
Q 26.515625 48.1875 22.3125 43.546875 
Q 18.109375 38.921875 18.109375 30.90625 
L 18.109375 0 
L 9.078125 0 
L 9.078125 54.6875 
L 18.109375 54.6875 
L 18.109375 46.1875 
Q 21.34375 51.125 25.703125 53.5625 
Q 30.078125 56 35.796875 56 
Q 45.21875 56 50.046875 50.171875 
Q 54.890625 44.34375 54.890625 33.015625 
z
" id="DejaVuSans-110"/>
      <path d="M 18.3125 70.21875 
L 18.3125 54.6875 
L 36.8125 54.6875 
L 36.8125 47.703125 
L 18.3125 47.703125 
L 18.3125 18.015625 
Q 18.3125 11.328125 20.140625 9.421875 
Q 21.96875 7.515625 27.59375 7.515625 
L 36.8125 7.515625 
L 36.8125 0 
L 27.59375 0 
Q 17.1875 0 13.234375 3.875 
Q 9.28125 7.765625 9.28125 18.015625 
L 9.28125 47.703125 
L 2.6875 47.703125 
L 2.6875 54.6875 
L 9.28125 54.6875 
L 9.28125 70.21875 
z
" id="DejaVuSans-116"/>
      <path d="M 56.203125 29.59375 
L 56.203125 25.203125 
L 14.890625 25.203125 
Q 15.484375 15.921875 20.484375 11.0625 
Q 25.484375 6.203125 34.421875 6.203125 
Q 39.59375 6.203125 44.453125 7.46875 
Q 49.3125 8.734375 54.109375 11.28125 
L 54.109375 2.78125 
Q 49.265625 0.734375 44.1875 -0.34375 
Q 39.109375 -1.421875 33.890625 -1.421875 
Q 20.796875 -1.421875 13.15625 6.1875 
Q 5.515625 13.8125 5.515625 26.8125 
Q 5.515625 40.234375 12.765625 48.109375 
Q 20.015625 56 32.328125 56 
Q 43.359375 56 49.78125 48.890625 
Q 56.203125 41.796875 56.203125 29.59375 
z
M 47.21875 32.234375 
Q 47.125 39.59375 43.09375 43.984375 
Q 39.0625 48.390625 32.421875 48.390625 
Q 24.90625 48.390625 20.390625 44.140625 
Q 15.875 39.890625 15.1875 32.171875 
z
" id="DejaVuSans-101"/>
      <path d="M 41.109375 46.296875 
Q 39.59375 47.171875 37.8125 47.578125 
Q 36.03125 48 33.890625 48 
Q 26.265625 48 22.1875 43.046875 
Q 18.109375 38.09375 18.109375 28.8125 
L 18.109375 0 
L 9.078125 0 
L 9.078125 54.6875 
L 18.109375 54.6875 
L 18.109375 46.1875 
Q 20.953125 51.171875 25.484375 53.578125 
Q 30.03125 56 36.53125 56 
Q 37.453125 56 38.578125 55.875 
Q 39.703125 55.765625 41.0625 55.515625 
z
" id="DejaVuSans-114"/>
      <path d="M 48.78125 52.59375 
L 48.78125 44.1875 
Q 44.96875 46.296875 41.140625 47.34375 
Q 37.3125 48.390625 33.40625 48.390625 
Q 24.65625 48.390625 19.8125 42.84375 
Q 14.984375 37.3125 14.984375 27.296875 
Q 14.984375 17.28125 19.8125 11.734375 
Q 24.65625 6.203125 33.40625 6.203125 
Q 37.3125 6.203125 41.140625 7.25 
Q 44.96875 8.296875 48.78125 10.40625 
L 48.78125 2.09375 
Q 45.015625 0.34375 40.984375 -0.53125 
Q 36.96875 -1.421875 32.421875 -1.421875 
Q 20.0625 -1.421875 12.78125 6.34375 
Q 5.515625 14.109375 5.515625 27.296875 
Q 5.515625 40.671875 12.859375 48.328125 
Q 20.21875 56 33.015625 56 
Q 37.15625 56 41.109375 55.140625 
Q 45.0625 54.296875 48.78125 52.59375 
z
" id="DejaVuSans-99"/>
      <path d="M 18.109375 8.203125 
L 18.109375 -20.796875 
L 9.078125 -20.796875 
L 9.078125 54.6875 
L 18.109375 54.6875 
L 18.109375 46.390625 
Q 20.953125 51.265625 25.265625 53.625 
Q 29.59375 56 35.59375 56 
Q 45.5625 56 51.78125 48.09375 
Q 58.015625 40.1875 58.015625 27.296875 
Q 58.015625 14.40625 51.78125 6.484375 
Q 45.5625 -1.421875 35.59375 -1.421875 
Q 29.59375 -1.421875 25.265625 0.953125 
Q 20.953125 3.328125 18.109375 8.203125 
z
M 48.6875 27.296875 
Q 48.6875 37.203125 44.609375 42.84375 
Q 40.53125 48.484375 33.40625 48.484375 
Q 26.265625 48.484375 22.1875 42.84375 
Q 18.109375 37.203125 18.109375 27.296875 
Q 18.109375 17.390625 22.1875 11.75 
Q 26.265625 6.109375 33.40625 6.109375 
Q 40.53125 6.109375 44.609375 11.75 
Q 48.6875 17.390625 48.6875 27.296875 
z
" id="DejaVuSans-112"/>
      <path d="M 50.984375 -16.609375 
L 50.984375 -23.578125 
L -0.984375 -23.578125 
L -0.984375 -16.609375 
z
" id="DejaVuSans-95"/>
      <path d="M 9.421875 75.984375 
L 18.40625 75.984375 
L 18.40625 0 
L 9.421875 0 
z
" id="DejaVuSans-108"/>
      <path d="M 34.28125 27.484375 
Q 23.390625 27.484375 19.1875 25 
Q 14.984375 22.515625 14.984375 16.5 
Q 14.984375 11.71875 18.140625 8.90625 
Q 21.296875 6.109375 26.703125 6.109375 
Q 34.1875 6.109375 38.703125 11.40625 
Q 43.21875 16.703125 43.21875 25.484375 
L 43.21875 27.484375 
z
M 52.203125 31.203125 
L 52.203125 0 
L 43.21875 0 
L 43.21875 8.296875 
Q 40.140625 3.328125 35.546875 0.953125 
Q 30.953125 -1.421875 24.3125 -1.421875 
Q 15.921875 -1.421875 10.953125 3.296875 
Q 6 8.015625 6 15.921875 
Q 6 25.140625 12.171875 29.828125 
Q 18.359375 34.515625 30.609375 34.515625 
L 43.21875 34.515625 
L 43.21875 35.40625 
Q 43.21875 41.609375 39.140625 45 
Q 35.0625 48.390625 27.6875 48.390625 
Q 23 48.390625 18.546875 47.265625 
Q 14.109375 46.140625 10.015625 43.890625 
L 10.015625 52.203125 
Q 14.9375 54.109375 19.578125 55.046875 
Q 24.21875 56 28.609375 56 
Q 40.484375 56 46.34375 49.84375 
Q 52.203125 43.703125 52.203125 31.203125 
z
" id="DejaVuSans-97"/>
      <path d="M 44.28125 53.078125 
L 44.28125 44.578125 
Q 40.484375 46.53125 36.375 47.5 
Q 32.28125 48.484375 27.875 48.484375 
Q 21.1875 48.484375 17.84375 46.4375 
Q 14.5 44.390625 14.5 40.28125 
Q 14.5 37.15625 16.890625 35.375 
Q 19.28125 33.59375 26.515625 31.984375 
L 29.59375 31.296875 
Q 39.15625 29.25 43.1875 25.515625 
Q 47.21875 21.78125 47.21875 15.09375 
Q 47.21875 7.46875 41.1875 3.015625 
Q 35.15625 -1.421875 24.609375 -1.421875 
Q 20.21875 -1.421875 15.453125 -0.5625 
Q 10.6875 0.296875 5.421875 2 
L 5.421875 11.28125 
Q 10.40625 8.6875 15.234375 7.390625 
Q 20.0625 6.109375 24.8125 6.109375 
Q 31.15625 6.109375 34.5625 8.28125 
Q 37.984375 10.453125 37.984375 14.40625 
Q 37.984375 18.0625 35.515625 20.015625 
Q 33.0625 21.96875 24.703125 23.78125 
L 21.578125 24.515625 
Q 13.234375 26.265625 9.515625 29.90625 
Q 5.8125 33.546875 5.8125 39.890625 
Q 5.8125 47.609375 11.28125 51.796875 
Q 16.75 56 26.8125 56 
Q 31.78125 56 36.171875 55.265625 
Q 40.578125 54.546875 44.28125 53.078125 
z
" id="DejaVuSans-115"/>
      <path d="M 4.203125 54.6875 
L 13.1875 54.6875 
L 24.421875 12.015625 
L 35.59375 54.6875 
L 46.1875 54.6875 
L 57.421875 12.015625 
L 68.609375 54.6875 
L 77.59375 54.6875 
L 63.28125 0 
L 52.6875 0 
L 40.921875 44.828125 
L 29.109375 0 
L 18.5 0 
z
" id="DejaVuSans-119"/>
      <path d="M 9.078125 75.984375 
L 18.109375 75.984375 
L 18.109375 31.109375 
L 44.921875 54.6875 
L 56.390625 54.6875 
L 27.390625 29.109375 
L 57.625 0 
L 45.90625 0 
L 18.109375 26.703125 
L 18.109375 0 
L 9.078125 0 
z
" id="DejaVuSans-107"/>
     </defs>
     <g transform="translate(428.374 457.612563)scale(0.1 -0.1)">
      <use xlink:href="#DejaVuSans-73"/>
      <use x="29.492188" xlink:href="#DejaVuSans-110"/>
      <use x="92.871094" xlink:href="#DejaVuSans-116"/>
      <use x="132.080078" xlink:href="#DejaVuSans-101"/>
      <use x="193.603516" xlink:href="#DejaVuSans-114"/>
      <use x="234.685547" xlink:href="#DejaVuSans-99"/>
      <use x="289.666016" xlink:href="#DejaVuSans-101"/>
      <use x="351.189453" xlink:href="#DejaVuSans-112"/>
      <use x="414.666016" xlink:href="#DejaVuSans-116"/>
      <use x="453.875" xlink:href="#DejaVuSans-95"/>
      <use x="503.875" xlink:href="#DejaVuSans-108"/>
      <use x="531.658203" xlink:href="#DejaVuSans-97"/>
      <use x="592.9375" xlink:href="#DejaVuSans-115"/>
      <use x="645.037109" xlink:href="#DejaVuSans-116"/>
      <use x="684.246094" xlink:href="#DejaVuSans-95"/>
      <use x="734.246094" xlink:href="#DejaVuSans-119"/>
      <use x="816.033203" xlink:href="#DejaVuSans-101"/>
      <use x="877.556641" xlink:href="#DejaVuSans-101"/>
      <use x="939.080078" xlink:href="#DejaVuSans-107"/>
     </g>
    </g>
   </g>
   <g id="matplotlib.axis_2">
    <g id="ytick_1">
     <g id="line2d_7">
      <defs>
       <path d="M 0 0 
L -3.5 0 
" id="mf158637779" style="stroke:#000000;stroke-width:0.8;"/>
      </defs>
      <g>
       <use style="stroke:#000000;stroke-width:0.8;" x="116.64" xlink:href="#mf158637779" y="407.529972"/>
      </g>
     </g>
     <g id="text_8">
      <!-- 0.05 -->
      <defs>
       <path d="M 31.78125 66.40625 
Q 24.171875 66.40625 20.328125 58.90625 
Q 16.5 51.421875 16.5 36.375 
Q 16.5 21.390625 20.328125 13.890625 
Q 24.171875 6.390625 31.78125 6.390625 
Q 39.453125 6.390625 43.28125 13.890625 
Q 47.125 21.390625 47.125 36.375 
Q 47.125 51.421875 43.28125 58.90625 
Q 39.453125 66.40625 31.78125 66.40625 
z
M 31.78125 74.21875 
Q 44.046875 74.21875 50.515625 64.515625 
Q 56.984375 54.828125 56.984375 36.375 
Q 56.984375 17.96875 50.515625 8.265625 
Q 44.046875 -1.421875 31.78125 -1.421875 
Q 19.53125 -1.421875 13.0625 8.265625 
Q 6.59375 17.96875 6.59375 36.375 
Q 6.59375 54.828125 13.0625 64.515625 
Q 19.53125 74.21875 31.78125 74.21875 
z
" id="DejaVuSans-48"/>
       <path d="M 10.6875 12.40625 
L 21 12.40625 
L 21 0 
L 10.6875 0 
z
" id="DejaVuSans-46"/>
      </defs>
      <g transform="translate(87.374375 411.329191)scale(0.1 -0.1)">
       <use xlink:href="#DejaVuSans-48"/>
       <use x="63.623047" xlink:href="#DejaVuSans-46"/>
       <use x="95.410156" xlink:href="#DejaVuSans-48"/>
       <use x="159.033203" xlink:href="#DejaVuSans-53"/>
      </g>
     </g>
    </g>
    <g id="ytick_2">
     <g id="line2d_8">
      <g>
       <use style="stroke:#000000;stroke-width:0.8;" x="116.64" xlink:href="#mf158637779" y="342.12453"/>
      </g>
     </g>
     <g id="text_9">
      <!-- 0.10 -->
      <defs>
       <path d="M 12.40625 8.296875 
L 28.515625 8.296875 
L 28.515625 63.921875 
L 10.984375 60.40625 
L 10.984375 69.390625 
L 28.421875 72.90625 
L 38.28125 72.90625 
L 38.28125 8.296875 
L 54.390625 8.296875 
L 54.390625 0 
L 12.40625 0 
z
" id="DejaVuSans-49"/>
      </defs>
      <g transform="translate(87.374375 345.923749)scale(0.1 -0.1)">
       <use xlink:href="#DejaVuSans-48"/>
       <use x="63.623047" xlink:href="#DejaVuSans-46"/>
       <use x="95.410156" xlink:href="#DejaVuSans-49"/>
       <use x="159.033203" xlink:href="#DejaVuSans-48"/>
      </g>
     </g>
    </g>
    <g id="ytick_3">
     <g id="line2d_9">
      <g>
       <use style="stroke:#000000;stroke-width:0.8;" x="116.64" xlink:href="#mf158637779" y="276.719089"/>
      </g>
     </g>
     <g id="text_10">
      <!-- 0.15 -->
      <g transform="translate(87.374375 280.518308)scale(0.1 -0.1)">
       <use xlink:href="#DejaVuSans-48"/>
       <use x="63.623047" xlink:href="#DejaVuSans-46"/>
       <use x="95.410156" xlink:href="#DejaVuSans-49"/>
       <use x="159.033203" xlink:href="#DejaVuSans-53"/>
      </g>
     </g>
    </g>
    <g id="ytick_4">
     <g id="line2d_10">
      <g>
       <use style="stroke:#000000;stroke-width:0.8;" x="116.64" xlink:href="#mf158637779" y="211.313647"/>
      </g>
     </g>
     <g id="text_11">
      <!-- 0.20 -->
      <g transform="translate(87.374375 215.112866)scale(0.1 -0.1)">
       <use xlink:href="#DejaVuSans-48"/>
       <use x="63.623047" xlink:href="#DejaVuSans-46"/>
       <use x="95.410156" xlink:href="#DejaVuSans-50"/>
       <use x="159.033203" xlink:href="#DejaVuSans-48"/>
      </g>
     </g>
    </g>
    <g id="ytick_5">
     <g id="line2d_11">
      <g>
       <use style="stroke:#000000;stroke-width:0.8;" x="116.64" xlink:href="#mf158637779" y="145.908206"/>
      </g>
     </g>
     <g id="text_12">
      <!-- 0.25 -->
      <g transform="translate(87.374375 149.707425)scale(0.1 -0.1)">
       <use xlink:href="#DejaVuSans-48"/>
       <use x="63.623047" xlink:href="#DejaVuSans-46"/>
       <use x="95.410156" xlink:href="#DejaVuSans-50"/>
       <use x="159.033203" xlink:href="#DejaVuSans-53"/>
      </g>
     </g>
    </g>
    <g id="ytick_6">
     <g id="line2d_12">
      <g>
       <use style="stroke:#000000;stroke-width:0.8;" x="116.64" xlink:href="#mf158637779" y="80.502764"/>
      </g>
     </g>
     <g id="text_13">
      <!-- 0.30 -->
      <g transform="translate(87.374375 84.301983)scale(0.1 -0.1)">
       <use xlink:href="#DejaVuSans-48"/>
       <use x="63.623047" xlink:href="#DejaVuSans-46"/>
       <use x="95.410156" xlink:href="#DejaVuSans-51"/>
       <use x="159.033203" xlink:href="#DejaVuSans-48"/>
      </g>
     </g>
    </g>
    <g id="text_14">
     <!-- exponent_last_week -->
     <defs>
      <path d="M 54.890625 54.6875 
L 35.109375 28.078125 
L 55.90625 0 
L 45.3125 0 
L 29.390625 21.484375 
L 13.484375 0 
L 2.875 0 
L 24.125 28.609375 
L 4.6875 54.6875 
L 15.28125 54.6875 
L 29.78125 35.203125 
L 44.28125 54.6875 
z
" id="DejaVuSans-120"/>
      <path d="M 30.609375 48.390625 
Q 23.390625 48.390625 19.1875 42.75 
Q 14.984375 37.109375 14.984375 27.296875 
Q 14.984375 17.484375 19.15625 11.84375 
Q 23.34375 6.203125 30.609375 6.203125 
Q 37.796875 6.203125 41.984375 11.859375 
Q 46.1875 17.53125 46.1875 27.296875 
Q 46.1875 37.015625 41.984375 42.703125 
Q 37.796875 48.390625 30.609375 48.390625 
z
M 30.609375 56 
Q 42.328125 56 49.015625 48.375 
Q 55.71875 40.765625 55.71875 27.296875 
Q 55.71875 13.875 49.015625 6.21875 
Q 42.328125 -1.421875 30.609375 -1.421875 
Q 18.84375 -1.421875 12.171875 6.21875 
Q 5.515625 13.875 5.515625 27.296875 
Q 5.515625 40.765625 12.171875 48.375 
Q 18.84375 56 30.609375 56 
z
" id="DejaVuSans-111"/>
     </defs>
     <g transform="translate(81.016563 294.410438)rotate(-90)scale(0.1 -0.1)">
      <use xlink:href="#DejaVuSans-101"/>
      <use x="61.507812" xlink:href="#DejaVuSans-120"/>
      <use x="120.6875" xlink:href="#DejaVuSans-112"/>
      <use x="184.164062" xlink:href="#DejaVuSans-111"/>
      <use x="245.345703" xlink:href="#DejaVuSans-110"/>
      <use x="308.724609" xlink:href="#DejaVuSans-101"/>
      <use x="370.248047" xlink:href="#DejaVuSans-110"/>
      <use x="433.626953" xlink:href="#DejaVuSans-116"/>
      <use x="472.835938" xlink:href="#DejaVuSans-95"/>
      <use x="522.835938" xlink:href="#DejaVuSans-108"/>
      <use x="550.619141" xlink:href="#DejaVuSans-97"/>
      <use x="611.898438" xlink:href="#DejaVuSans-115"/>
      <use x="663.998047" xlink:href="#DejaVuSans-116"/>
      <use x="703.207031" xlink:href="#DejaVuSans-95"/>
      <use x="753.207031" xlink:href="#DejaVuSans-119"/>
      <use x="834.994141" xlink:href="#DejaVuSans-101"/>
      <use x="896.517578" xlink:href="#DejaVuSans-101"/>
      <use x="958.041016" xlink:href="#DejaVuSans-107"/>
     </g>
    </g>
   </g>
   <g id="patch_30">
    <path d="M 116.64 429.336 
L 116.64 57.888 
" style="fill:none;stroke:#000000;stroke-linecap:square;stroke-linejoin:miter;stroke-width:0.8;"/>
   </g>
   <g id="patch_31">
    <path d="M 839.808 429.336 
L 839.808 57.888 
" style="fill:none;stroke:#000000;stroke-linecap:square;stroke-linejoin:miter;stroke-width:0.8;"/>
   </g>
   <g id="patch_32">
    <path d="M 116.64 429.336 
L 839.808 429.336 
" style="fill:none;stroke:#000000;stroke-linecap:square;stroke-linejoin:miter;stroke-width:0.8;"/>
   </g>
   <g id="patch_33">
    <path d="M 116.64 57.888 
L 839.808 57.888 
" style="fill:none;stroke:#000000;stroke-linecap:square;stroke-linejoin:miter;stroke-width:0.8;"/>
   </g>
   <g id="text_15">
    <!-- 2020-03-17 -->
    <defs>
     <path d="M 4.890625 31.390625 
L 31.203125 31.390625 
L 31.203125 23.390625 
L 4.890625 23.390625 
z
" id="DejaVuSans-45"/>
    </defs>
    <g transform="translate(120.780775 69.660979)scale(0.1 -0.1)">
     <use xlink:href="#DejaVuSans-50"/>
     <use x="63.623047" xlink:href="#DejaVuSans-48"/>
     <use x="127.246094" xlink:href="#DejaVuSans-50"/>
     <use x="190.869141" xlink:href="#DejaVuSans-48"/>
     <use x="254.492188" xlink:href="#DejaVuSans-45"/>
     <use x="290.576172" xlink:href="#DejaVuSans-48"/>
     <use x="354.199219" xlink:href="#DejaVuSans-51"/>
     <use x="417.822266" xlink:href="#DejaVuSans-45"/>
     <use x="453.90625" xlink:href="#DejaVuSans-49"/>
     <use x="517.529297" xlink:href="#DejaVuSans-55"/>
    </g>
   </g>
   <g id="text_16">
    <!-- 2020-03-18 -->
    <defs>
     <path d="M 31.78125 34.625 
Q 24.75 34.625 20.71875 30.859375 
Q 16.703125 27.09375 16.703125 20.515625 
Q 16.703125 13.921875 20.71875 10.15625 
Q 24.75 6.390625 31.78125 6.390625 
Q 38.8125 6.390625 42.859375 10.171875 
Q 46.921875 13.96875 46.921875 20.515625 
Q 46.921875 27.09375 42.890625 30.859375 
Q 38.875 34.625 31.78125 34.625 
z
M 21.921875 38.8125 
Q 15.578125 40.375 12.03125 44.71875 
Q 8.5 49.078125 8.5 55.328125 
Q 8.5 64.0625 14.71875 69.140625 
Q 20.953125 74.21875 31.78125 74.21875 
Q 42.671875 74.21875 48.875 69.140625 
Q 55.078125 64.0625 55.078125 55.328125 
Q 55.078125 49.078125 51.53125 44.71875 
Q 48 40.375 41.703125 38.8125 
Q 48.828125 37.15625 52.796875 32.3125 
Q 56.78125 27.484375 56.78125 20.515625 
Q 56.78125 9.90625 50.3125 4.234375 
Q 43.84375 -1.421875 31.78125 -1.421875 
Q 19.734375 -1.421875 13.25 4.234375 
Q 6.78125 9.90625 6.78125 20.515625 
Q 6.78125 27.484375 10.78125 32.3125 
Q 14.796875 37.15625 21.921875 38.8125 
z
M 18.3125 54.390625 
Q 18.3125 48.734375 21.84375 45.5625 
Q 25.390625 42.390625 31.78125 42.390625 
Q 38.140625 42.390625 41.71875 45.5625 
Q 45.3125 48.734375 45.3125 54.390625 
Q 45.3125 60.0625 41.71875 63.234375 
Q 38.140625 66.40625 31.78125 66.40625 
Q 25.390625 66.40625 21.84375 63.234375 
Q 18.3125 60.0625 18.3125 54.390625 
z
" id="DejaVuSans-56"/>
    </defs>
    <g transform="translate(140.180376 89.023691)scale(0.1 -0.1)">
     <use xlink:href="#DejaVuSans-50"/>
     <use x="63.623047" xlink:href="#DejaVuSans-48"/>
     <use x="127.246094" xlink:href="#DejaVuSans-50"/>
     <use x="190.869141" xlink:href="#DejaVuSans-48"/>
     <use x="254.492188" xlink:href="#DejaVuSans-45"/>
     <use x="290.576172" xlink:href="#DejaVuSans-48"/>
     <use x="354.199219" xlink:href="#DejaVuSans-51"/>
     <use x="417.822266" xlink:href="#DejaVuSans-45"/>
     <use x="453.90625" xlink:href="#DejaVuSans-49"/>
     <use x="517.529297" xlink:href="#DejaVuSans-56"/>
    </g>
   </g>
   <g id="text_17">
    <!-- 2020-03-19 -->
    <defs>
     <path d="M 10.984375 1.515625 
L 10.984375 10.5 
Q 14.703125 8.734375 18.5 7.8125 
Q 22.3125 6.890625 25.984375 6.890625 
Q 35.75 6.890625 40.890625 13.453125 
Q 46.046875 20.015625 46.78125 33.40625 
Q 43.953125 29.203125 39.59375 26.953125 
Q 35.25 24.703125 29.984375 24.703125 
Q 19.046875 24.703125 12.671875 31.3125 
Q 6.296875 37.9375 6.296875 49.421875 
Q 6.296875 60.640625 12.9375 67.421875 
Q 19.578125 74.21875 30.609375 74.21875 
Q 43.265625 74.21875 49.921875 64.515625 
Q 56.59375 54.828125 56.59375 36.375 
Q 56.59375 19.140625 48.40625 8.859375 
Q 40.234375 -1.421875 26.421875 -1.421875 
Q 22.703125 -1.421875 18.890625 -0.6875 
Q 15.09375 0.046875 10.984375 1.515625 
z
M 30.609375 32.421875 
Q 37.25 32.421875 41.125 36.953125 
Q 45.015625 41.5 45.015625 49.421875 
Q 45.015625 57.28125 41.125 61.84375 
Q 37.25 66.40625 30.609375 66.40625 
Q 23.96875 66.40625 20.09375 61.84375 
Q 16.21875 57.28125 16.21875 49.421875 
Q 16.21875 41.5 20.09375 36.953125 
Q 23.96875 32.421875 30.609375 32.421875 
z
" id="DejaVuSans-57"/>
    </defs>
    <g transform="translate(183.081385 124.805318)scale(0.1 -0.1)">
     <use xlink:href="#DejaVuSans-50"/>
     <use x="63.623047" xlink:href="#DejaVuSans-48"/>
     <use x="127.246094" xlink:href="#DejaVuSans-50"/>
     <use x="190.869141" xlink:href="#DejaVuSans-48"/>
     <use x="254.492188" xlink:href="#DejaVuSans-45"/>
     <use x="290.576172" xlink:href="#DejaVuSans-48"/>
     <use x="354.199219" xlink:href="#DejaVuSans-51"/>
     <use x="417.822266" xlink:href="#DejaVuSans-45"/>
     <use x="453.90625" xlink:href="#DejaVuSans-49"/>
     <use x="517.529297" xlink:href="#DejaVuSans-57"/>
    </g>
   </g>
   <g id="text_18">
    <!-- 2020-03-20 -->
    <g transform="translate(206.415226 142.236235)scale(0.1 -0.1)">
     <use xlink:href="#DejaVuSans-50"/>
     <use x="63.623047" xlink:href="#DejaVuSans-48"/>
     <use x="127.246094" xlink:href="#DejaVuSans-50"/>
     <use x="190.869141" xlink:href="#DejaVuSans-48"/>
     <use x="254.492188" xlink:href="#DejaVuSans-45"/>
     <use x="290.576172" xlink:href="#DejaVuSans-48"/>
     <use x="354.199219" xlink:href="#DejaVuSans-51"/>
     <use x="417.822266" xlink:href="#DejaVuSans-45"/>
     <use x="453.90625" xlink:href="#DejaVuSans-50"/>
     <use x="517.529297" xlink:href="#DejaVuSans-48"/>
    </g>
   </g>
   <g id="text_19">
    <!-- 2020-03-21 -->
    <g transform="translate(210.757572 145.302096)scale(0.1 -0.1)">
     <use xlink:href="#DejaVuSans-50"/>
     <use x="63.623047" xlink:href="#DejaVuSans-48"/>
     <use x="127.246094" xlink:href="#DejaVuSans-50"/>
     <use x="190.869141" xlink:href="#DejaVuSans-48"/>
     <use x="254.492188" xlink:href="#DejaVuSans-45"/>
     <use x="290.576172" xlink:href="#DejaVuSans-48"/>
     <use x="354.199219" xlink:href="#DejaVuSans-51"/>
     <use x="417.822266" xlink:href="#DejaVuSans-45"/>
     <use x="453.90625" xlink:href="#DejaVuSans-50"/>
     <use x="517.529297" xlink:href="#DejaVuSans-49"/>
    </g>
   </g>
   <g id="text_20">
    <!-- 2020-03-22 -->
    <g transform="translate(241.691621 166.428669)scale(0.1 -0.1)">
     <use xlink:href="#DejaVuSans-50"/>
     <use x="63.623047" xlink:href="#DejaVuSans-48"/>
     <use x="127.246094" xlink:href="#DejaVuSans-50"/>
     <use x="190.869141" xlink:href="#DejaVuSans-48"/>
     <use x="254.492188" xlink:href="#DejaVuSans-45"/>
     <use x="290.576172" xlink:href="#DejaVuSans-48"/>
     <use x="354.199219" xlink:href="#DejaVuSans-51"/>
     <use x="417.822266" xlink:href="#DejaVuSans-45"/>
     <use x="453.90625" xlink:href="#DejaVuSans-50"/>
     <use x="517.529297" xlink:href="#DejaVuSans-50"/>
    </g>
   </g>
   <g id="text_21">
    <!-- 2020-03-23 -->
    <g transform="translate(299.921791 201.590904)scale(0.1 -0.1)">
     <use xlink:href="#DejaVuSans-50"/>
     <use x="63.623047" xlink:href="#DejaVuSans-48"/>
     <use x="127.246094" xlink:href="#DejaVuSans-50"/>
     <use x="190.869141" xlink:href="#DejaVuSans-48"/>
     <use x="254.492188" xlink:href="#DejaVuSans-45"/>
     <use x="290.576172" xlink:href="#DejaVuSans-48"/>
     <use x="354.199219" xlink:href="#DejaVuSans-51"/>
     <use x="417.822266" xlink:href="#DejaVuSans-45"/>
     <use x="453.90625" xlink:href="#DejaVuSans-50"/>
     <use x="517.529297" xlink:href="#DejaVuSans-51"/>
    </g>
   </g>
   <g id="text_22">
    <!-- 2020-03-24 -->
    <g transform="translate(354.24833 233.100123)scale(0.1 -0.1)">
     <use xlink:href="#DejaVuSans-50"/>
     <use x="63.623047" xlink:href="#DejaVuSans-48"/>
     <use x="127.246094" xlink:href="#DejaVuSans-50"/>
     <use x="190.869141" xlink:href="#DejaVuSans-48"/>
     <use x="254.492188" xlink:href="#DejaVuSans-45"/>
     <use x="290.576172" xlink:href="#DejaVuSans-48"/>
     <use x="354.199219" xlink:href="#DejaVuSans-51"/>
     <use x="417.822266" xlink:href="#DejaVuSans-45"/>
     <use x="453.90625" xlink:href="#DejaVuSans-50"/>
     <use x="517.529297" xlink:href="#DejaVuSans-52"/>
    </g>
   </g>
   <g id="text_23">
    <!-- 2020-03-25 -->
    <g transform="translate(420.218523 268.180438)scale(0.1 -0.1)">
     <use xlink:href="#DejaVuSans-50"/>
     <use x="63.623047" xlink:href="#DejaVuSans-48"/>
     <use x="127.246094" xlink:href="#DejaVuSans-50"/>
     <use x="190.869141" xlink:href="#DejaVuSans-48"/>
     <use x="254.492188" xlink:href="#DejaVuSans-45"/>
     <use x="290.576172" xlink:href="#DejaVuSans-48"/>
     <use x="354.199219" xlink:href="#DejaVuSans-51"/>
     <use x="417.822266" xlink:href="#DejaVuSans-45"/>
     <use x="453.90625" xlink:href="#DejaVuSans-50"/>
     <use x="517.529297" xlink:href="#DejaVuSans-53"/>
    </g>
   </g>
   <g id="text_24">
    <!-- 2020-03-26 -->
    <g transform="translate(527.29785 318.71531)scale(0.1 -0.1)">
     <use xlink:href="#DejaVuSans-50"/>
     <use x="63.623047" xlink:href="#DejaVuSans-48"/>
     <use x="127.246094" xlink:href="#DejaVuSans-50"/>
     <use x="190.869141" xlink:href="#DejaVuSans-48"/>
     <use x="254.492188" xlink:href="#DejaVuSans-45"/>
     <use x="290.576172" xlink:href="#DejaVuSans-48"/>
     <use x="354.199219" xlink:href="#DejaVuSans-51"/>
     <use x="417.822266" xlink:href="#DejaVuSans-45"/>
     <use x="453.90625" xlink:href="#DejaVuSans-50"/>
     <use x="517.529297" xlink:href="#DejaVuSans-54"/>
    </g>
   </g>
   <g id="text_25">
    <!-- 2020-03-27 -->
    <g transform="translate(490.088299 300.186495)scale(0.1 -0.1)">
     <use xlink:href="#DejaVuSans-50"/>
     <use x="63.623047" xlink:href="#DejaVuSans-48"/>
     <use x="127.246094" xlink:href="#DejaVuSans-50"/>
     <use x="190.869141" xlink:href="#DejaVuSans-48"/>
     <use x="254.492188" xlink:href="#DejaVuSans-45"/>
     <use x="290.576172" xlink:href="#DejaVuSans-48"/>
     <use x="354.199219" xlink:href="#DejaVuSans-51"/>
     <use x="417.822266" xlink:href="#DejaVuSans-45"/>
     <use x="453.90625" xlink:href="#DejaVuSans-50"/>
     <use x="517.529297" xlink:href="#DejaVuSans-55"/>
    </g>
   </g>
   <g id="text_26">
    <!-- 2020-03-28 -->
    <g transform="translate(462.903252 287.930417)scale(0.1 -0.1)">
     <use xlink:href="#DejaVuSans-50"/>
     <use x="63.623047" xlink:href="#DejaVuSans-48"/>
     <use x="127.246094" xlink:href="#DejaVuSans-50"/>
     <use x="190.869141" xlink:href="#DejaVuSans-48"/>
     <use x="254.492188" xlink:href="#DejaVuSans-45"/>
     <use x="290.576172" xlink:href="#DejaVuSans-48"/>
     <use x="354.199219" xlink:href="#DejaVuSans-51"/>
     <use x="417.822266" xlink:href="#DejaVuSans-45"/>
     <use x="453.90625" xlink:href="#DejaVuSans-50"/>
     <use x="517.529297" xlink:href="#DejaVuSans-56"/>
    </g>
   </g>
   <g id="text_27">
    <!-- 2020-03-29 -->
    <g transform="translate(473.152985 291.95874)scale(0.1 -0.1)">
     <use xlink:href="#DejaVuSans-50"/>
     <use x="63.623047" xlink:href="#DejaVuSans-48"/>
     <use x="127.246094" xlink:href="#DejaVuSans-50"/>
     <use x="190.869141" xlink:href="#DejaVuSans-48"/>
     <use x="254.492188" xlink:href="#DejaVuSans-45"/>
     <use x="290.576172" xlink:href="#DejaVuSans-48"/>
     <use x="354.199219" xlink:href="#DejaVuSans-51"/>
     <use x="417.822266" xlink:href="#DejaVuSans-45"/>
     <use x="453.90625" xlink:href="#DejaVuSans-50"/>
     <use x="517.529297" xlink:href="#DejaVuSans-57"/>
    </g>
   </g>
   <g id="text_28">
    <!-- 2020-03-30 -->
    <g transform="translate(469.989487 291.213984)scale(0.1 -0.1)">
     <use xlink:href="#DejaVuSans-50"/>
     <use x="63.623047" xlink:href="#DejaVuSans-48"/>
     <use x="127.246094" xlink:href="#DejaVuSans-50"/>
     <use x="190.869141" xlink:href="#DejaVuSans-48"/>
     <use x="254.492188" xlink:href="#DejaVuSans-45"/>
     <use x="290.576172" xlink:href="#DejaVuSans-48"/>
     <use x="354.199219" xlink:href="#DejaVuSans-51"/>
     <use x="417.822266" xlink:href="#DejaVuSans-45"/>
     <use x="453.90625" xlink:href="#DejaVuSans-51"/>
     <use x="517.529297" xlink:href="#DejaVuSans-48"/>
    </g>
   </g>
   <g id="text_29">
    <!-- 2020-03-31 -->
    <g transform="translate(488.777914 299.710158)scale(0.1 -0.1)">
     <use xlink:href="#DejaVuSans-50"/>
     <use x="63.623047" xlink:href="#DejaVuSans-48"/>
     <use x="127.246094" xlink:href="#DejaVuSans-50"/>
     <use x="190.869141" xlink:href="#DejaVuSans-48"/>
     <use x="254.492188" xlink:href="#DejaVuSans-45"/>
     <use x="290.576172" xlink:href="#DejaVuSans-48"/>
     <use x="354.199219" xlink:href="#DejaVuSans-51"/>
     <use x="417.822266" xlink:href="#DejaVuSans-45"/>
     <use x="453.90625" xlink:href="#DejaVuSans-51"/>
     <use x="517.529297" xlink:href="#DejaVuSans-49"/>
    </g>
   </g>
   <g id="text_30">
    <!-- 2020-04-01 -->
    <g transform="translate(504.358392 306.622713)scale(0.1 -0.1)">
     <use xlink:href="#DejaVuSans-50"/>
     <use x="63.623047" xlink:href="#DejaVuSans-48"/>
     <use x="127.246094" xlink:href="#DejaVuSans-50"/>
     <use x="190.869141" xlink:href="#DejaVuSans-48"/>
     <use x="254.492188" xlink:href="#DejaVuSans-45"/>
     <use x="290.576172" xlink:href="#DejaVuSans-48"/>
     <use x="354.199219" xlink:href="#DejaVuSans-52"/>
     <use x="417.822266" xlink:href="#DejaVuSans-45"/>
     <use x="453.90625" xlink:href="#DejaVuSans-48"/>
     <use x="517.529297" xlink:href="#DejaVuSans-49"/>
    </g>
   </g>
   <g id="text_31">
    <!-- 2020-04-02 -->
    <g transform="translate(546.091748 322.729245)scale(0.1 -0.1)">
     <use xlink:href="#DejaVuSans-50"/>
     <use x="63.623047" xlink:href="#DejaVuSans-48"/>
     <use x="127.246094" xlink:href="#DejaVuSans-50"/>
     <use x="190.869141" xlink:href="#DejaVuSans-48"/>
     <use x="254.492188" xlink:href="#DejaVuSans-45"/>
     <use x="290.576172" xlink:href="#DejaVuSans-48"/>
     <use x="354.199219" xlink:href="#DejaVuSans-52"/>
     <use x="417.822266" xlink:href="#DejaVuSans-45"/>
     <use x="453.90625" xlink:href="#DejaVuSans-48"/>
     <use x="517.529297" xlink:href="#DejaVuSans-50"/>
    </g>
   </g>
   <g id="text_32">
    <!-- 2020-04-03 -->
    <g transform="translate(600.945111 342.659974)scale(0.1 -0.1)">
     <use xlink:href="#DejaVuSans-50"/>
     <use x="63.623047" xlink:href="#DejaVuSans-48"/>
     <use x="127.246094" xlink:href="#DejaVuSans-50"/>
     <use x="190.869141" xlink:href="#DejaVuSans-48"/>
     <use x="254.492188" xlink:href="#DejaVuSans-45"/>
     <use x="290.576172" xlink:href="#DejaVuSans-48"/>
     <use x="354.199219" xlink:href="#DejaVuSans-52"/>
     <use x="417.822266" xlink:href="#DejaVuSans-45"/>
     <use x="453.90625" xlink:href="#DejaVuSans-48"/>
     <use x="517.529297" xlink:href="#DejaVuSans-51"/>
    </g>
   </g>
   <g id="text_33">
    <!-- 2020-04-04 -->
    <g transform="translate(648.125292 358.942559)scale(0.1 -0.1)">
     <use xlink:href="#DejaVuSans-50"/>
     <use x="63.623047" xlink:href="#DejaVuSans-48"/>
     <use x="127.246094" xlink:href="#DejaVuSans-50"/>
     <use x="190.869141" xlink:href="#DejaVuSans-48"/>
     <use x="254.492188" xlink:href="#DejaVuSans-45"/>
     <use x="290.576172" xlink:href="#DejaVuSans-48"/>
     <use x="354.199219" xlink:href="#DejaVuSans-52"/>
     <use x="417.822266" xlink:href="#DejaVuSans-45"/>
     <use x="453.90625" xlink:href="#DejaVuSans-48"/>
     <use x="517.529297" xlink:href="#DejaVuSans-52"/>
    </g>
   </g>
   <g id="text_34">
    <!-- 2020-04-05 -->
    <g transform="translate(668.34246 365.775479)scale(0.1 -0.1)">
     <use xlink:href="#DejaVuSans-50"/>
     <use x="63.623047" xlink:href="#DejaVuSans-48"/>
     <use x="127.246094" xlink:href="#DejaVuSans-50"/>
     <use x="190.869141" xlink:href="#DejaVuSans-48"/>
     <use x="254.492188" xlink:href="#DejaVuSans-45"/>
     <use x="290.576172" xlink:href="#DejaVuSans-48"/>
     <use x="354.199219" xlink:href="#DejaVuSans-52"/>
     <use x="417.822266" xlink:href="#DejaVuSans-45"/>
     <use x="453.90625" xlink:href="#DejaVuSans-48"/>
     <use x="517.529297" xlink:href="#DejaVuSans-53"/>
    </g>
   </g>
   <g id="text_35">
    <!-- 2020-04-06 -->
    <g transform="translate(700.353913 376.364756)scale(0.1 -0.1)">
     <use xlink:href="#DejaVuSans-50"/>
     <use x="63.623047" xlink:href="#DejaVuSans-48"/>
     <use x="127.246094" xlink:href="#DejaVuSans-50"/>
     <use x="190.869141" xlink:href="#DejaVuSans-48"/>
     <use x="254.492188" xlink:href="#DejaVuSans-45"/>
     <use x="290.576172" xlink:href="#DejaVuSans-48"/>
     <use x="354.199219" xlink:href="#DejaVuSans-52"/>
     <use x="417.822266" xlink:href="#DejaVuSans-45"/>
     <use x="453.90625" xlink:href="#DejaVuSans-48"/>
     <use x="517.529297" xlink:href="#DejaVuSans-54"/>
    </g>
   </g>
   <g id="text_36">
    <!-- 2020-04-07 -->
    <g transform="translate(713.707692 380.872558)scale(0.1 -0.1)">
     <use xlink:href="#DejaVuSans-50"/>
     <use x="63.623047" xlink:href="#DejaVuSans-48"/>
     <use x="127.246094" xlink:href="#DejaVuSans-50"/>
     <use x="190.869141" xlink:href="#DejaVuSans-48"/>
     <use x="254.492188" xlink:href="#DejaVuSans-45"/>
     <use x="290.576172" xlink:href="#DejaVuSans-48"/>
     <use x="354.199219" xlink:href="#DejaVuSans-52"/>
     <use x="417.822266" xlink:href="#DejaVuSans-45"/>
     <use x="453.90625" xlink:href="#DejaVuSans-48"/>
     <use x="517.529297" xlink:href="#DejaVuSans-55"/>
    </g>
   </g>
   <g id="text_37">
    <!-- 2020-04-08 -->
    <g transform="translate(737.13439 388.275903)scale(0.1 -0.1)">
     <use xlink:href="#DejaVuSans-50"/>
     <use x="63.623047" xlink:href="#DejaVuSans-48"/>
     <use x="127.246094" xlink:href="#DejaVuSans-50"/>
     <use x="190.869141" xlink:href="#DejaVuSans-48"/>
     <use x="254.492188" xlink:href="#DejaVuSans-45"/>
     <use x="290.576172" xlink:href="#DejaVuSans-48"/>
     <use x="354.199219" xlink:href="#DejaVuSans-52"/>
     <use x="417.822266" xlink:href="#DejaVuSans-45"/>
     <use x="453.90625" xlink:href="#DejaVuSans-48"/>
     <use x="517.529297" xlink:href="#DejaVuSans-56"/>
    </g>
   </g>
   <g id="text_38">
    <!-- 2020-04-09 -->
    <g transform="translate(765.536056 396.716722)scale(0.1 -0.1)">
     <use xlink:href="#DejaVuSans-50"/>
     <use x="63.623047" xlink:href="#DejaVuSans-48"/>
     <use x="127.246094" xlink:href="#DejaVuSans-50"/>
     <use x="190.869141" xlink:href="#DejaVuSans-48"/>
     <use x="254.492188" xlink:href="#DejaVuSans-45"/>
     <use x="290.576172" xlink:href="#DejaVuSans-48"/>
     <use x="354.199219" xlink:href="#DejaVuSans-52"/>
     <use x="417.822266" xlink:href="#DejaVuSans-45"/>
     <use x="453.90625" xlink:href="#DejaVuSans-48"/>
     <use x="517.529297" xlink:href="#DejaVuSans-57"/>
    </g>
   </g>
   <g id="text_39">
    <!-- 2020-04-10 -->
    <g transform="translate(787.078707 402.898353)scale(0.1 -0.1)">
     <use xlink:href="#DejaVuSans-50"/>
     <use x="63.623047" xlink:href="#DejaVuSans-48"/>
     <use x="127.246094" xlink:href="#DejaVuSans-50"/>
     <use x="190.869141" xlink:href="#DejaVuSans-48"/>
     <use x="254.492188" xlink:href="#DejaVuSans-45"/>
     <use x="290.576172" xlink:href="#DejaVuSans-48"/>
     <use x="354.199219" xlink:href="#DejaVuSans-52"/>
     <use x="417.822266" xlink:href="#DejaVuSans-45"/>
     <use x="453.90625" xlink:href="#DejaVuSans-49"/>
     <use x="517.529297" xlink:href="#DejaVuSans-48"/>
    </g>
   </g>
   <g id="text_40">
    <!-- 2020-04-11 -->
    <g transform="translate(808.932579 409.032597)scale(0.1 -0.1)">
     <use xlink:href="#DejaVuSans-50"/>
     <use x="63.623047" xlink:href="#DejaVuSans-48"/>
     <use x="127.246094" xlink:href="#DejaVuSans-50"/>
     <use x="190.869141" xlink:href="#DejaVuSans-48"/>
     <use x="254.492188" xlink:href="#DejaVuSans-45"/>
     <use x="290.576172" xlink:href="#DejaVuSans-48"/>
     <use x="354.199219" xlink:href="#DejaVuSans-52"/>
     <use x="417.822266" xlink:href="#DejaVuSans-45"/>
     <use x="453.90625" xlink:href="#DejaVuSans-49"/>
     <use x="517.529297" xlink:href="#DejaVuSans-49"/>
    </g>
   </g>
   <g id="text_41">
    <!-- 2020-04-12 -->
    <g transform="translate(830.591437 414.946803)scale(0.1 -0.1)">
     <use xlink:href="#DejaVuSans-50"/>
     <use x="63.623047" xlink:href="#DejaVuSans-48"/>
     <use x="127.246094" xlink:href="#DejaVuSans-50"/>
     <use x="190.869141" xlink:href="#DejaVuSans-48"/>
     <use x="254.492188" xlink:href="#DejaVuSans-45"/>
     <use x="290.576172" xlink:href="#DejaVuSans-48"/>
     <use x="354.199219" xlink:href="#DejaVuSans-52"/>
     <use x="417.822266" xlink:href="#DejaVuSans-45"/>
     <use x="453.90625" xlink:href="#DejaVuSans-49"/>
     <use x="517.529297" xlink:href="#DejaVuSans-50"/>
    </g>
   </g>
   <g id="text_42">
    <!-- https://github.com/PavelDusek/COVID-19 -->
    <defs>
     <path d="M 54.890625 33.015625 
L 54.890625 0 
L 45.90625 0 
L 45.90625 32.71875 
Q 45.90625 40.484375 42.875 44.328125 
Q 39.84375 48.1875 33.796875 48.1875 
Q 26.515625 48.1875 22.3125 43.546875 
Q 18.109375 38.921875 18.109375 30.90625 
L 18.109375 0 
L 9.078125 0 
L 9.078125 75.984375 
L 18.109375 75.984375 
L 18.109375 46.1875 
Q 21.34375 51.125 25.703125 53.5625 
Q 30.078125 56 35.796875 56 
Q 45.21875 56 50.046875 50.171875 
Q 54.890625 44.34375 54.890625 33.015625 
z
" id="DejaVuSans-104"/>
     <path d="M 11.71875 12.40625 
L 22.015625 12.40625 
L 22.015625 0 
L 11.71875 0 
z
M 11.71875 51.703125 
L 22.015625 51.703125 
L 22.015625 39.3125 
L 11.71875 39.3125 
z
" id="DejaVuSans-58"/>
     <path d="M 25.390625 72.90625 
L 33.6875 72.90625 
L 8.296875 -9.28125 
L 0 -9.28125 
z
" id="DejaVuSans-47"/>
     <path d="M 45.40625 27.984375 
Q 45.40625 37.75 41.375 43.109375 
Q 37.359375 48.484375 30.078125 48.484375 
Q 22.859375 48.484375 18.828125 43.109375 
Q 14.796875 37.75 14.796875 27.984375 
Q 14.796875 18.265625 18.828125 12.890625 
Q 22.859375 7.515625 30.078125 7.515625 
Q 37.359375 7.515625 41.375 12.890625 
Q 45.40625 18.265625 45.40625 27.984375 
z
M 54.390625 6.78125 
Q 54.390625 -7.171875 48.1875 -13.984375 
Q 42 -20.796875 29.203125 -20.796875 
Q 24.46875 -20.796875 20.265625 -20.09375 
Q 16.0625 -19.390625 12.109375 -17.921875 
L 12.109375 -9.1875 
Q 16.0625 -11.328125 19.921875 -12.34375 
Q 23.78125 -13.375 27.78125 -13.375 
Q 36.625 -13.375 41.015625 -8.765625 
Q 45.40625 -4.15625 45.40625 5.171875 
L 45.40625 9.625 
Q 42.625 4.78125 38.28125 2.390625 
Q 33.9375 0 27.875 0 
Q 17.828125 0 11.671875 7.65625 
Q 5.515625 15.328125 5.515625 27.984375 
Q 5.515625 40.671875 11.671875 48.328125 
Q 17.828125 56 27.875 56 
Q 33.9375 56 38.28125 53.609375 
Q 42.625 51.21875 45.40625 46.390625 
L 45.40625 54.6875 
L 54.390625 54.6875 
z
" id="DejaVuSans-103"/>
     <path d="M 9.421875 54.6875 
L 18.40625 54.6875 
L 18.40625 0 
L 9.421875 0 
z
M 9.421875 75.984375 
L 18.40625 75.984375 
L 18.40625 64.59375 
L 9.421875 64.59375 
z
" id="DejaVuSans-105"/>
     <path d="M 8.5 21.578125 
L 8.5 54.6875 
L 17.484375 54.6875 
L 17.484375 21.921875 
Q 17.484375 14.15625 20.5 10.265625 
Q 23.53125 6.390625 29.59375 6.390625 
Q 36.859375 6.390625 41.078125 11.03125 
Q 45.3125 15.671875 45.3125 23.6875 
L 45.3125 54.6875 
L 54.296875 54.6875 
L 54.296875 0 
L 45.3125 0 
L 45.3125 8.40625 
Q 42.046875 3.421875 37.71875 1 
Q 33.40625 -1.421875 27.6875 -1.421875 
Q 18.265625 -1.421875 13.375 4.4375 
Q 8.5 10.296875 8.5 21.578125 
z
M 31.109375 56 
z
" id="DejaVuSans-117"/>
     <path d="M 48.6875 27.296875 
Q 48.6875 37.203125 44.609375 42.84375 
Q 40.53125 48.484375 33.40625 48.484375 
Q 26.265625 48.484375 22.1875 42.84375 
Q 18.109375 37.203125 18.109375 27.296875 
Q 18.109375 17.390625 22.1875 11.75 
Q 26.265625 6.109375 33.40625 6.109375 
Q 40.53125 6.109375 44.609375 11.75 
Q 48.6875 17.390625 48.6875 27.296875 
z
M 18.109375 46.390625 
Q 20.953125 51.265625 25.265625 53.625 
Q 29.59375 56 35.59375 56 
Q 45.5625 56 51.78125 48.09375 
Q 58.015625 40.1875 58.015625 27.296875 
Q 58.015625 14.40625 51.78125 6.484375 
Q 45.5625 -1.421875 35.59375 -1.421875 
Q 29.59375 -1.421875 25.265625 0.953125 
Q 20.953125 3.328125 18.109375 8.203125 
L 18.109375 0 
L 9.078125 0 
L 9.078125 75.984375 
L 18.109375 75.984375 
z
" id="DejaVuSans-98"/>
     <path d="M 52 44.1875 
Q 55.375 50.25 60.0625 53.125 
Q 64.75 56 71.09375 56 
Q 79.640625 56 84.28125 50.015625 
Q 88.921875 44.046875 88.921875 33.015625 
L 88.921875 0 
L 79.890625 0 
L 79.890625 32.71875 
Q 79.890625 40.578125 77.09375 44.375 
Q 74.3125 48.1875 68.609375 48.1875 
Q 61.625 48.1875 57.5625 43.546875 
Q 53.515625 38.921875 53.515625 30.90625 
L 53.515625 0 
L 44.484375 0 
L 44.484375 32.71875 
Q 44.484375 40.625 41.703125 44.40625 
Q 38.921875 48.1875 33.109375 48.1875 
Q 26.21875 48.1875 22.15625 43.53125 
Q 18.109375 38.875 18.109375 30.90625 
L 18.109375 0 
L 9.078125 0 
L 9.078125 54.6875 
L 18.109375 54.6875 
L 18.109375 46.1875 
Q 21.1875 51.21875 25.484375 53.609375 
Q 29.78125 56 35.6875 56 
Q 41.65625 56 45.828125 52.96875 
Q 50 49.953125 52 44.1875 
z
" id="DejaVuSans-109"/>
     <path d="M 19.671875 64.796875 
L 19.671875 37.40625 
L 32.078125 37.40625 
Q 38.96875 37.40625 42.71875 40.96875 
Q 46.484375 44.53125 46.484375 51.125 
Q 46.484375 57.671875 42.71875 61.234375 
Q 38.96875 64.796875 32.078125 64.796875 
z
M 9.8125 72.90625 
L 32.078125 72.90625 
Q 44.34375 72.90625 50.609375 67.359375 
Q 56.890625 61.8125 56.890625 51.125 
Q 56.890625 40.328125 50.609375 34.8125 
Q 44.34375 29.296875 32.078125 29.296875 
L 19.671875 29.296875 
L 19.671875 0 
L 9.8125 0 
z
" id="DejaVuSans-80"/>
     <path d="M 2.984375 54.6875 
L 12.5 54.6875 
L 29.59375 8.796875 
L 46.6875 54.6875 
L 56.203125 54.6875 
L 35.6875 0 
L 23.484375 0 
z
" id="DejaVuSans-118"/>
     <path d="M 19.671875 64.796875 
L 19.671875 8.109375 
L 31.59375 8.109375 
Q 46.6875 8.109375 53.6875 14.9375 
Q 60.6875 21.78125 60.6875 36.53125 
Q 60.6875 51.171875 53.6875 57.984375 
Q 46.6875 64.796875 31.59375 64.796875 
z
M 9.8125 72.90625 
L 30.078125 72.90625 
Q 51.265625 72.90625 61.171875 64.09375 
Q 71.09375 55.28125 71.09375 36.53125 
Q 71.09375 17.671875 61.125 8.828125 
Q 51.171875 0 30.078125 0 
L 9.8125 0 
z
" id="DejaVuSans-68"/>
     <path d="M 64.40625 67.28125 
L 64.40625 56.890625 
Q 59.421875 61.53125 53.78125 63.8125 
Q 48.140625 66.109375 41.796875 66.109375 
Q 29.296875 66.109375 22.65625 58.46875 
Q 16.015625 50.828125 16.015625 36.375 
Q 16.015625 21.96875 22.65625 14.328125 
Q 29.296875 6.6875 41.796875 6.6875 
Q 48.140625 6.6875 53.78125 8.984375 
Q 59.421875 11.28125 64.40625 15.921875 
L 64.40625 5.609375 
Q 59.234375 2.09375 53.4375 0.328125 
Q 47.65625 -1.421875 41.21875 -1.421875 
Q 24.65625 -1.421875 15.125 8.703125 
Q 5.609375 18.84375 5.609375 36.375 
Q 5.609375 53.953125 15.125 64.078125 
Q 24.65625 74.21875 41.21875 74.21875 
Q 47.75 74.21875 53.53125 72.484375 
Q 59.328125 70.75 64.40625 67.28125 
z
" id="DejaVuSans-67"/>
     <path d="M 39.40625 66.21875 
Q 28.65625 66.21875 22.328125 58.203125 
Q 16.015625 50.203125 16.015625 36.375 
Q 16.015625 22.609375 22.328125 14.59375 
Q 28.65625 6.59375 39.40625 6.59375 
Q 50.140625 6.59375 56.421875 14.59375 
Q 62.703125 22.609375 62.703125 36.375 
Q 62.703125 50.203125 56.421875 58.203125 
Q 50.140625 66.21875 39.40625 66.21875 
z
M 39.40625 74.21875 
Q 54.734375 74.21875 63.90625 63.9375 
Q 73.09375 53.65625 73.09375 36.375 
Q 73.09375 19.140625 63.90625 8.859375 
Q 54.734375 -1.421875 39.40625 -1.421875 
Q 24.03125 -1.421875 14.8125 8.828125 
Q 5.609375 19.09375 5.609375 36.375 
Q 5.609375 53.65625 14.8125 63.9375 
Q 24.03125 74.21875 39.40625 74.21875 
z
" id="DejaVuSans-79"/>
     <path d="M 28.609375 0 
L 0.78125 72.90625 
L 11.078125 72.90625 
L 34.1875 11.53125 
L 57.328125 72.90625 
L 67.578125 72.90625 
L 39.796875 0 
z
" id="DejaVuSans-86"/>
    </defs>
    <g transform="translate(354.591188 11.575875)scale(0.12 -0.12)">
     <use xlink:href="#DejaVuSans-104"/>
     <use x="63.378906" xlink:href="#DejaVuSans-116"/>
     <use x="102.587891" xlink:href="#DejaVuSans-116"/>
     <use x="141.796875" xlink:href="#DejaVuSans-112"/>
     <use x="205.273438" xlink:href="#DejaVuSans-115"/>
     <use x="257.373047" xlink:href="#DejaVuSans-58"/>
     <use x="291.064453" xlink:href="#DejaVuSans-47"/>
     <use x="324.755859" xlink:href="#DejaVuSans-47"/>
     <use x="358.447266" xlink:href="#DejaVuSans-103"/>
     <use x="421.923828" xlink:href="#DejaVuSans-105"/>
     <use x="449.707031" xlink:href="#DejaVuSans-116"/>
     <use x="488.916016" xlink:href="#DejaVuSans-104"/>
     <use x="552.294922" xlink:href="#DejaVuSans-117"/>
     <use x="615.673828" xlink:href="#DejaVuSans-98"/>
     <use x="679.150391" xlink:href="#DejaVuSans-46"/>
     <use x="710.9375" xlink:href="#DejaVuSans-99"/>
     <use x="765.917969" xlink:href="#DejaVuSans-111"/>
     <use x="827.099609" xlink:href="#DejaVuSans-109"/>
     <use x="924.511719" xlink:href="#DejaVuSans-47"/>
     <use x="958.203125" xlink:href="#DejaVuSans-80"/>
     <use x="1018.443359" xlink:href="#DejaVuSans-97"/>
     <use x="1079.722656" xlink:href="#DejaVuSans-118"/>
     <use x="1138.902344" xlink:href="#DejaVuSans-101"/>
     <use x="1200.425781" xlink:href="#DejaVuSans-108"/>
     <use x="1228.208984" xlink:href="#DejaVuSans-68"/>
     <use x="1305.210938" xlink:href="#DejaVuSans-117"/>
     <use x="1368.589844" xlink:href="#DejaVuSans-115"/>
     <use x="1420.689453" xlink:href="#DejaVuSans-101"/>
     <use x="1482.212891" xlink:href="#DejaVuSans-107"/>
     <use x="1540.123047" xlink:href="#DejaVuSans-47"/>
     <use x="1573.814453" xlink:href="#DejaVuSans-67"/>
     <use x="1643.638672" xlink:href="#DejaVuSans-79"/>
     <use x="1722.333984" xlink:href="#DejaVuSans-86"/>
     <use x="1790.742188" xlink:href="#DejaVuSans-73"/>
     <use x="1820.234375" xlink:href="#DejaVuSans-68"/>
     <use x="1897.236328" xlink:href="#DejaVuSans-45"/>
     <use x="1933.320312" xlink:href="#DejaVuSans-49"/>
     <use x="1996.943359" xlink:href="#DejaVuSans-57"/>
    </g>
    <!-- COVID-19 in the Czech Republic -->
    <defs>
     <path id="DejaVuSans-32"/>
     <path d="M 5.515625 54.6875 
L 48.1875 54.6875 
L 48.1875 46.484375 
L 14.40625 7.171875 
L 48.1875 7.171875 
L 48.1875 0 
L 4.296875 0 
L 4.296875 8.203125 
L 38.09375 47.515625 
L 5.515625 47.515625 
z
" id="DejaVuSans-122"/>
     <path d="M 44.390625 34.1875 
Q 47.5625 33.109375 50.5625 29.59375 
Q 53.5625 26.078125 56.59375 19.921875 
L 66.609375 0 
L 56 0 
L 46.6875 18.703125 
Q 43.0625 26.03125 39.671875 28.421875 
Q 36.28125 30.8125 30.421875 30.8125 
L 19.671875 30.8125 
L 19.671875 0 
L 9.8125 0 
L 9.8125 72.90625 
L 32.078125 72.90625 
Q 44.578125 72.90625 50.734375 67.671875 
Q 56.890625 62.453125 56.890625 51.90625 
Q 56.890625 45.015625 53.6875 40.46875 
Q 50.484375 35.9375 44.390625 34.1875 
z
M 19.671875 64.796875 
L 19.671875 38.921875 
L 32.078125 38.921875 
Q 39.203125 38.921875 42.84375 42.21875 
Q 46.484375 45.515625 46.484375 51.90625 
Q 46.484375 58.296875 42.84375 61.546875 
Q 39.203125 64.796875 32.078125 64.796875 
z
" id="DejaVuSans-82"/>
    </defs>
    <g transform="translate(382.031813 25.01325)scale(0.12 -0.12)">
     <use xlink:href="#DejaVuSans-67"/>
     <use x="69.824219" xlink:href="#DejaVuSans-79"/>
     <use x="148.519531" xlink:href="#DejaVuSans-86"/>
     <use x="216.927734" xlink:href="#DejaVuSans-73"/>
     <use x="246.419922" xlink:href="#DejaVuSans-68"/>
     <use x="323.421875" xlink:href="#DejaVuSans-45"/>
     <use x="359.505859" xlink:href="#DejaVuSans-49"/>
     <use x="423.128906" xlink:href="#DejaVuSans-57"/>
     <use x="486.751953" xlink:href="#DejaVuSans-32"/>
     <use x="518.539062" xlink:href="#DejaVuSans-105"/>
     <use x="546.322266" xlink:href="#DejaVuSans-110"/>
     <use x="609.701172" xlink:href="#DejaVuSans-32"/>
     <use x="641.488281" xlink:href="#DejaVuSans-116"/>
     <use x="680.697266" xlink:href="#DejaVuSans-104"/>
     <use x="744.076172" xlink:href="#DejaVuSans-101"/>
     <use x="805.599609" xlink:href="#DejaVuSans-32"/>
     <use x="837.386719" xlink:href="#DejaVuSans-67"/>
     <use x="907.210938" xlink:href="#DejaVuSans-122"/>
     <use x="959.701172" xlink:href="#DejaVuSans-101"/>
     <use x="1021.224609" xlink:href="#DejaVuSans-99"/>
     <use x="1076.205078" xlink:href="#DejaVuSans-104"/>
     <use x="1139.583984" xlink:href="#DejaVuSans-32"/>
     <use x="1171.371094" xlink:href="#DejaVuSans-82"/>
     <use x="1240.791016" xlink:href="#DejaVuSans-101"/>
     <use x="1302.314453" xlink:href="#DejaVuSans-112"/>
     <use x="1365.791016" xlink:href="#DejaVuSans-117"/>
     <use x="1429.169922" xlink:href="#DejaVuSans-98"/>
     <use x="1492.646484" xlink:href="#DejaVuSans-108"/>
     <use x="1520.429688" xlink:href="#DejaVuSans-105"/>
     <use x="1548.212891" xlink:href="#DejaVuSans-99"/>
    </g>
    <!-- Evolution of the Exponential Model Parameters by Date -->
    <defs>
     <path d="M 9.8125 72.90625 
L 55.90625 72.90625 
L 55.90625 64.59375 
L 19.671875 64.59375 
L 19.671875 43.015625 
L 54.390625 43.015625 
L 54.390625 34.71875 
L 19.671875 34.71875 
L 19.671875 8.296875 
L 56.78125 8.296875 
L 56.78125 0 
L 9.8125 0 
z
" id="DejaVuSans-69"/>
     <path d="M 37.109375 75.984375 
L 37.109375 68.5 
L 28.515625 68.5 
Q 23.6875 68.5 21.796875 66.546875 
Q 19.921875 64.59375 19.921875 59.515625 
L 19.921875 54.6875 
L 34.71875 54.6875 
L 34.71875 47.703125 
L 19.921875 47.703125 
L 19.921875 0 
L 10.890625 0 
L 10.890625 47.703125 
L 2.296875 47.703125 
L 2.296875 54.6875 
L 10.890625 54.6875 
L 10.890625 58.5 
Q 10.890625 67.625 15.140625 71.796875 
Q 19.390625 75.984375 28.609375 75.984375 
z
" id="DejaVuSans-102"/>
     <path d="M 9.8125 72.90625 
L 24.515625 72.90625 
L 43.109375 23.296875 
L 61.8125 72.90625 
L 76.515625 72.90625 
L 76.515625 0 
L 66.890625 0 
L 66.890625 64.015625 
L 48.09375 14.015625 
L 38.1875 14.015625 
L 19.390625 64.015625 
L 19.390625 0 
L 9.8125 0 
z
" id="DejaVuSans-77"/>
     <path d="M 45.40625 46.390625 
L 45.40625 75.984375 
L 54.390625 75.984375 
L 54.390625 0 
L 45.40625 0 
L 45.40625 8.203125 
Q 42.578125 3.328125 38.25 0.953125 
Q 33.9375 -1.421875 27.875 -1.421875 
Q 17.96875 -1.421875 11.734375 6.484375 
Q 5.515625 14.40625 5.515625 27.296875 
Q 5.515625 40.1875 11.734375 48.09375 
Q 17.96875 56 27.875 56 
Q 33.9375 56 38.25 53.625 
Q 42.578125 51.265625 45.40625 46.390625 
z
M 14.796875 27.296875 
Q 14.796875 17.390625 18.875 11.75 
Q 22.953125 6.109375 30.078125 6.109375 
Q 37.203125 6.109375 41.296875 11.75 
Q 45.40625 17.390625 45.40625 27.296875 
Q 45.40625 37.203125 41.296875 42.84375 
Q 37.203125 48.484375 30.078125 48.484375 
Q 22.953125 48.484375 18.875 42.84375 
Q 14.796875 37.203125 14.796875 27.296875 
z
" id="DejaVuSans-100"/>
     <path d="M 32.171875 -5.078125 
Q 28.375 -14.84375 24.75 -17.8125 
Q 21.140625 -20.796875 15.09375 -20.796875 
L 7.90625 -20.796875 
L 7.90625 -13.28125 
L 13.1875 -13.28125 
Q 16.890625 -13.28125 18.9375 -11.515625 
Q 21 -9.765625 23.484375 -3.21875 
L 25.09375 0.875 
L 2.984375 54.6875 
L 12.5 54.6875 
L 29.59375 11.921875 
L 46.6875 54.6875 
L 56.203125 54.6875 
z
" id="DejaVuSans-121"/>
    </defs>
    <g transform="translate(311.463375 38.450625)scale(0.12 -0.12)">
     <use xlink:href="#DejaVuSans-69"/>
     <use x="63.183594" xlink:href="#DejaVuSans-118"/>
     <use x="122.363281" xlink:href="#DejaVuSans-111"/>
     <use x="183.544922" xlink:href="#DejaVuSans-108"/>
     <use x="211.328125" xlink:href="#DejaVuSans-117"/>
     <use x="274.707031" xlink:href="#DejaVuSans-116"/>
     <use x="313.916016" xlink:href="#DejaVuSans-105"/>
     <use x="341.699219" xlink:href="#DejaVuSans-111"/>
     <use x="402.880859" xlink:href="#DejaVuSans-110"/>
     <use x="466.259766" xlink:href="#DejaVuSans-32"/>
     <use x="498.046875" xlink:href="#DejaVuSans-111"/>
     <use x="559.228516" xlink:href="#DejaVuSans-102"/>
     <use x="594.433594" xlink:href="#DejaVuSans-32"/>
     <use x="626.220703" xlink:href="#DejaVuSans-116"/>
     <use x="665.429688" xlink:href="#DejaVuSans-104"/>
     <use x="728.808594" xlink:href="#DejaVuSans-101"/>
     <use x="790.332031" xlink:href="#DejaVuSans-32"/>
     <use x="822.119141" xlink:href="#DejaVuSans-69"/>
     <use x="885.302734" xlink:href="#DejaVuSans-120"/>
     <use x="944.482422" xlink:href="#DejaVuSans-112"/>
     <use x="1007.958984" xlink:href="#DejaVuSans-111"/>
     <use x="1069.140625" xlink:href="#DejaVuSans-110"/>
     <use x="1132.519531" xlink:href="#DejaVuSans-101"/>
     <use x="1194.042969" xlink:href="#DejaVuSans-110"/>
     <use x="1257.421875" xlink:href="#DejaVuSans-116"/>
     <use x="1296.630859" xlink:href="#DejaVuSans-105"/>
     <use x="1324.414062" xlink:href="#DejaVuSans-97"/>
     <use x="1385.693359" xlink:href="#DejaVuSans-108"/>
     <use x="1413.476562" xlink:href="#DejaVuSans-32"/>
     <use x="1445.263672" xlink:href="#DejaVuSans-77"/>
     <use x="1531.542969" xlink:href="#DejaVuSans-111"/>
     <use x="1592.724609" xlink:href="#DejaVuSans-100"/>
     <use x="1656.201172" xlink:href="#DejaVuSans-101"/>
     <use x="1717.724609" xlink:href="#DejaVuSans-108"/>
     <use x="1745.507812" xlink:href="#DejaVuSans-32"/>
     <use x="1777.294922" xlink:href="#DejaVuSans-80"/>
     <use x="1837.535156" xlink:href="#DejaVuSans-97"/>
     <use x="1898.814453" xlink:href="#DejaVuSans-114"/>
     <use x="1939.927734" xlink:href="#DejaVuSans-97"/>
     <use x="2001.207031" xlink:href="#DejaVuSans-109"/>
     <use x="2098.619141" xlink:href="#DejaVuSans-101"/>
     <use x="2160.142578" xlink:href="#DejaVuSans-116"/>
     <use x="2199.351562" xlink:href="#DejaVuSans-101"/>
     <use x="2260.875" xlink:href="#DejaVuSans-114"/>
     <use x="2301.988281" xlink:href="#DejaVuSans-115"/>
     <use x="2354.087891" xlink:href="#DejaVuSans-32"/>
     <use x="2385.875" xlink:href="#DejaVuSans-98"/>
     <use x="2449.351562" xlink:href="#DejaVuSans-121"/>
     <use x="2508.53125" xlink:href="#DejaVuSans-32"/>
     <use x="2540.318359" xlink:href="#DejaVuSans-68"/>
     <use x="2617.320312" xlink:href="#DejaVuSans-97"/>
     <use x="2678.599609" xlink:href="#DejaVuSans-116"/>
     <use x="2717.808594" xlink:href="#DejaVuSans-101"/>
    </g>
    <!-- Model based on last week data -->
    <g transform="translate(384.985875 51.888)scale(0.12 -0.12)">
     <use xlink:href="#DejaVuSans-77"/>
     <use x="86.279297" xlink:href="#DejaVuSans-111"/>
     <use x="147.460938" xlink:href="#DejaVuSans-100"/>
     <use x="210.9375" xlink:href="#DejaVuSans-101"/>
     <use x="272.460938" xlink:href="#DejaVuSans-108"/>
     <use x="300.244141" xlink:href="#DejaVuSans-32"/>
     <use x="332.03125" xlink:href="#DejaVuSans-98"/>
     <use x="395.507812" xlink:href="#DejaVuSans-97"/>
     <use x="456.787109" xlink:href="#DejaVuSans-115"/>
     <use x="508.886719" xlink:href="#DejaVuSans-101"/>
     <use x="570.410156" xlink:href="#DejaVuSans-100"/>
     <use x="633.886719" xlink:href="#DejaVuSans-32"/>
     <use x="665.673828" xlink:href="#DejaVuSans-111"/>
     <use x="726.855469" xlink:href="#DejaVuSans-110"/>
     <use x="790.234375" xlink:href="#DejaVuSans-32"/>
     <use x="822.021484" xlink:href="#DejaVuSans-108"/>
     <use x="849.804688" xlink:href="#DejaVuSans-97"/>
     <use x="911.083984" xlink:href="#DejaVuSans-115"/>
     <use x="963.183594" xlink:href="#DejaVuSans-116"/>
     <use x="1002.392578" xlink:href="#DejaVuSans-32"/>
     <use x="1034.179688" xlink:href="#DejaVuSans-119"/>
     <use x="1115.966797" xlink:href="#DejaVuSans-101"/>
     <use x="1177.490234" xlink:href="#DejaVuSans-101"/>
     <use x="1239.013672" xlink:href="#DejaVuSans-107"/>
     <use x="1296.923828" xlink:href="#DejaVuSans-32"/>
     <use x="1328.710938" xlink:href="#DejaVuSans-100"/>
     <use x="1392.1875" xlink:href="#DejaVuSans-97"/>
     <use x="1453.466797" xlink:href="#DejaVuSans-116"/>
     <use x="1492.675781" xlink:href="#DejaVuSans-97"/>
    </g>
   </g>
   <g id="legend_1">
    <g id="patch_34">
     <path d="M 555.883 139.278625 
L 832.808 139.278625 
Q 834.808 139.278625 834.808 137.278625 
L 834.808 64.888 
Q 834.808 62.888 832.808 62.888 
L 555.883 62.888 
Q 553.883 62.888 553.883 64.888 
L 553.883 137.278625 
Q 553.883 139.278625 555.883 139.278625 
z
" style="fill:#ffffff;opacity:0.8;stroke:#cccccc;stroke-linejoin:miter;"/>
    </g>
    <g id="PathCollection_7">
     <defs>
      <path id="md399114cea" style="stroke:#ffffff;stroke-width:1.5;"/>
     </defs>
     <g>
      <use style="fill:#ffffff;stroke:#ffffff;stroke-width:1.5;" x="567.883" xlink:href="#md399114cea" y="71.861437"/>
     </g>
    </g>
    <g id="text_43">
     <!-- Exponential model fit (R2) [%] for last week data -->
     <defs>
      <path d="M 31 75.875 
Q 24.46875 64.65625 21.28125 53.65625 
Q 18.109375 42.671875 18.109375 31.390625 
Q 18.109375 20.125 21.3125 9.0625 
Q 24.515625 -2 31 -13.1875 
L 23.1875 -13.1875 
Q 15.875 -1.703125 12.234375 9.375 
Q 8.59375 20.453125 8.59375 31.390625 
Q 8.59375 42.28125 12.203125 53.3125 
Q 15.828125 64.359375 23.1875 75.875 
z
" id="DejaVuSans-40"/>
      <path d="M 8.015625 75.875 
L 15.828125 75.875 
Q 23.140625 64.359375 26.78125 53.3125 
Q 30.421875 42.28125 30.421875 31.390625 
Q 30.421875 20.453125 26.78125 9.375 
Q 23.140625 -1.703125 15.828125 -13.1875 
L 8.015625 -13.1875 
Q 14.5 -2 17.703125 9.0625 
Q 20.90625 20.125 20.90625 31.390625 
Q 20.90625 42.671875 17.703125 53.65625 
Q 14.5 64.65625 8.015625 75.875 
z
" id="DejaVuSans-41"/>
      <path d="M 8.59375 75.984375 
L 29.296875 75.984375 
L 29.296875 69 
L 17.578125 69 
L 17.578125 -6.203125 
L 29.296875 -6.203125 
L 29.296875 -13.1875 
L 8.59375 -13.1875 
z
" id="DejaVuSans-91"/>
      <path d="M 72.703125 32.078125 
Q 68.453125 32.078125 66.03125 28.46875 
Q 63.625 24.859375 63.625 18.40625 
Q 63.625 12.0625 66.03125 8.421875 
Q 68.453125 4.78125 72.703125 4.78125 
Q 76.859375 4.78125 79.265625 8.421875 
Q 81.6875 12.0625 81.6875 18.40625 
Q 81.6875 24.8125 79.265625 28.4375 
Q 76.859375 32.078125 72.703125 32.078125 
z
M 72.703125 38.28125 
Q 80.421875 38.28125 84.953125 32.90625 
Q 89.5 27.546875 89.5 18.40625 
Q 89.5 9.28125 84.9375 3.921875 
Q 80.375 -1.421875 72.703125 -1.421875 
Q 64.890625 -1.421875 60.34375 3.921875 
Q 55.8125 9.28125 55.8125 18.40625 
Q 55.8125 27.59375 60.375 32.9375 
Q 64.9375 38.28125 72.703125 38.28125 
z
M 22.3125 68.015625 
Q 18.109375 68.015625 15.6875 64.375 
Q 13.28125 60.75 13.28125 54.390625 
Q 13.28125 47.953125 15.671875 44.328125 
Q 18.0625 40.71875 22.3125 40.71875 
Q 26.5625 40.71875 28.96875 44.328125 
Q 31.390625 47.953125 31.390625 54.390625 
Q 31.390625 60.6875 28.953125 64.34375 
Q 26.515625 68.015625 22.3125 68.015625 
z
M 66.40625 74.21875 
L 74.21875 74.21875 
L 28.609375 -1.421875 
L 20.796875 -1.421875 
z
M 22.3125 74.21875 
Q 30.03125 74.21875 34.609375 68.875 
Q 39.203125 63.53125 39.203125 54.390625 
Q 39.203125 45.171875 34.640625 39.84375 
Q 30.078125 34.515625 22.3125 34.515625 
Q 14.546875 34.515625 10.03125 39.859375 
Q 5.515625 45.21875 5.515625 54.390625 
Q 5.515625 63.484375 10.046875 68.84375 
Q 14.59375 74.21875 22.3125 74.21875 
z
" id="DejaVuSans-37"/>
      <path d="M 30.421875 75.984375 
L 30.421875 -13.1875 
L 9.71875 -13.1875 
L 9.71875 -6.203125 
L 21.390625 -6.203125 
L 21.390625 69 
L 9.71875 69 
L 9.71875 75.984375 
z
" id="DejaVuSans-93"/>
     </defs>
     <g transform="translate(585.883 74.486437)scale(0.1 -0.1)">
      <use xlink:href="#DejaVuSans-69"/>
      <use x="63.183594" xlink:href="#DejaVuSans-120"/>
      <use x="122.363281" xlink:href="#DejaVuSans-112"/>
      <use x="185.839844" xlink:href="#DejaVuSans-111"/>
      <use x="247.021484" xlink:href="#DejaVuSans-110"/>
      <use x="310.400391" xlink:href="#DejaVuSans-101"/>
      <use x="371.923828" xlink:href="#DejaVuSans-110"/>
      <use x="435.302734" xlink:href="#DejaVuSans-116"/>
      <use x="474.511719" xlink:href="#DejaVuSans-105"/>
      <use x="502.294922" xlink:href="#DejaVuSans-97"/>
      <use x="563.574219" xlink:href="#DejaVuSans-108"/>
      <use x="591.357422" xlink:href="#DejaVuSans-32"/>
      <use x="623.144531" xlink:href="#DejaVuSans-109"/>
      <use x="720.556641" xlink:href="#DejaVuSans-111"/>
      <use x="781.738281" xlink:href="#DejaVuSans-100"/>
      <use x="845.214844" xlink:href="#DejaVuSans-101"/>
      <use x="906.738281" xlink:href="#DejaVuSans-108"/>
      <use x="934.521484" xlink:href="#DejaVuSans-32"/>
      <use x="966.308594" xlink:href="#DejaVuSans-102"/>
      <use x="1001.513672" xlink:href="#DejaVuSans-105"/>
      <use x="1029.296875" xlink:href="#DejaVuSans-116"/>
      <use x="1068.505859" xlink:href="#DejaVuSans-32"/>
      <use x="1100.292969" xlink:href="#DejaVuSans-40"/>
      <use x="1139.306641" xlink:href="#DejaVuSans-82"/>
      <use x="1208.789062" xlink:href="#DejaVuSans-50"/>
      <use x="1272.412109" xlink:href="#DejaVuSans-41"/>
      <use x="1311.425781" xlink:href="#DejaVuSans-32"/>
      <use x="1343.212891" xlink:href="#DejaVuSans-91"/>
      <use x="1382.226562" xlink:href="#DejaVuSans-37"/>
      <use x="1477.246094" xlink:href="#DejaVuSans-93"/>
      <use x="1516.259766" xlink:href="#DejaVuSans-32"/>
      <use x="1548.046875" xlink:href="#DejaVuSans-102"/>
      <use x="1583.251953" xlink:href="#DejaVuSans-111"/>
      <use x="1644.433594" xlink:href="#DejaVuSans-114"/>
      <use x="1685.546875" xlink:href="#DejaVuSans-32"/>
      <use x="1717.333984" xlink:href="#DejaVuSans-108"/>
      <use x="1745.117188" xlink:href="#DejaVuSans-97"/>
      <use x="1806.396484" xlink:href="#DejaVuSans-115"/>
      <use x="1858.496094" xlink:href="#DejaVuSans-116"/>
      <use x="1897.705078" xlink:href="#DejaVuSans-32"/>
      <use x="1929.492188" xlink:href="#DejaVuSans-119"/>
      <use x="2011.279297" xlink:href="#DejaVuSans-101"/>
      <use x="2072.802734" xlink:href="#DejaVuSans-101"/>
      <use x="2134.326172" xlink:href="#DejaVuSans-107"/>
      <use x="2192.236328" xlink:href="#DejaVuSans-32"/>
      <use x="2224.023438" xlink:href="#DejaVuSans-100"/>
      <use x="2287.5" xlink:href="#DejaVuSans-97"/>
      <use x="2348.779297" xlink:href="#DejaVuSans-116"/>
      <use x="2387.988281" xlink:href="#DejaVuSans-97"/>
     </g>
    </g>
    <g id="PathCollection_8">
     <defs>
      <path d="M 0 2.12132 
C 0.562581 2.12132 1.102195 1.897805 1.5 1.5 
C 1.897805 1.102195 2.12132 0.562581 2.12132 0 
C 2.12132 -0.562581 1.897805 -1.102195 1.5 -1.5 
C 1.102195 -1.897805 0.562581 -2.12132 0 -2.12132 
C -0.562581 -2.12132 -1.102195 -1.897805 -1.5 -1.5 
C -1.897805 -1.102195 -2.12132 -0.562581 -2.12132 0 
C -2.12132 0.562581 -1.897805 1.102195 -1.5 1.5 
C -1.102195 1.897805 -0.562581 2.12132 0 2.12132 
z
" id="m0d0f27684a" style="stroke:#333333;"/>
     </defs>
     <g>
      <use style="fill:#333333;stroke:#333333;" x="567.883" xlink:href="#m0d0f27684a" y="86.539562"/>
     </g>
    </g>
    <g id="text_44">
     <!-- 92.5 -->
     <g transform="translate(585.883 89.164562)scale(0.1 -0.1)">
      <use xlink:href="#DejaVuSans-57"/>
      <use x="63.623047" xlink:href="#DejaVuSans-50"/>
      <use x="127.246094" xlink:href="#DejaVuSans-46"/>
      <use x="159.033203" xlink:href="#DejaVuSans-53"/>
     </g>
    </g>
    <g id="PathCollection_9">
     <defs>
      <path d="M 0 2.970446 
C 0.787772 2.970446 1.543384 2.657461 2.100423 2.100423 
C 2.657461 1.543384 2.970446 0.787772 2.970446 0 
C 2.970446 -0.787772 2.657461 -1.543384 2.100423 -2.100423 
C 1.543384 -2.657461 0.787772 -2.970446 0 -2.970446 
C -0.787772 -2.970446 -1.543384 -2.657461 -2.100423 -2.100423 
C -2.657461 -1.543384 -2.970446 -0.787772 -2.970446 0 
C -2.970446 0.787772 -2.657461 1.543384 -2.100423 2.100423 
C -1.543384 2.657461 -0.787772 2.970446 0 2.970446 
z
" id="mac0febd0c2" style="stroke:#333333;"/>
     </defs>
     <g>
      <use style="fill:#333333;stroke:#333333;" x="567.883" xlink:href="#mac0febd0c2" y="101.217687"/>
     </g>
    </g>
    <g id="text_45">
     <!-- 95.0 -->
     <g transform="translate(585.883 103.842687)scale(0.1 -0.1)">
      <use xlink:href="#DejaVuSans-57"/>
      <use x="63.623047" xlink:href="#DejaVuSans-53"/>
      <use x="127.246094" xlink:href="#DejaVuSans-46"/>
      <use x="159.033203" xlink:href="#DejaVuSans-48"/>
     </g>
    </g>
    <g id="PathCollection_10">
     <defs>
      <path d="M 0 3.781851 
C 1.002959 3.781851 1.964974 3.383372 2.674173 2.674173 
C 3.383372 1.964974 3.781851 1.002959 3.781851 0 
C 3.781851 -1.002959 3.383372 -1.964974 2.674173 -2.674173 
C 1.964974 -3.383372 1.002959 -3.781851 0 -3.781851 
C -1.002959 -3.781851 -1.964974 -3.383372 -2.674173 -2.674173 
C -3.383372 -1.964974 -3.781851 -1.002959 -3.781851 0 
C -3.781851 1.002959 -3.383372 1.964974 -2.674173 2.674173 
C -1.964974 3.383372 -1.002959 3.781851 0 3.781851 
z
" id="m1abc16368f" style="stroke:#333333;"/>
     </defs>
     <g>
      <use style="fill:#333333;stroke:#333333;" x="567.883" xlink:href="#m1abc16368f" y="115.895812"/>
     </g>
    </g>
    <g id="text_46">
     <!-- 97.5 -->
     <g transform="translate(585.883 118.520812)scale(0.1 -0.1)">
      <use xlink:href="#DejaVuSans-57"/>
      <use x="63.623047" xlink:href="#DejaVuSans-55"/>
      <use x="127.246094" xlink:href="#DejaVuSans-46"/>
      <use x="159.033203" xlink:href="#DejaVuSans-53"/>
     </g>
    </g>
    <g id="PathCollection_11">
     <defs>
      <path d="M 0 4.242641 
C 1.125161 4.242641 2.204391 3.795609 3 3 
C 3.795609 2.204391 4.242641 1.125161 4.242641 0 
C 4.242641 -1.125161 3.795609 -2.204391 3 -3 
C 2.204391 -3.795609 1.125161 -4.242641 0 -4.242641 
C -1.125161 -4.242641 -2.204391 -3.795609 -3 -3 
C -3.795609 -2.204391 -4.242641 -1.125161 -4.242641 0 
C -4.242641 1.125161 -3.795609 2.204391 -3 3 
C -2.204391 3.795609 -1.125161 4.242641 0 4.242641 
z
" id="m7ed118bcd0" style="stroke:#333333;"/>
     </defs>
     <g>
      <use style="fill:#333333;stroke:#333333;" x="567.883" xlink:href="#m7ed118bcd0" y="130.573937"/>
     </g>
    </g>
    <g id="text_47">
     <!-- 100.0 -->
     <g transform="translate(585.883 133.198937)scale(0.1 -0.1)">
      <use xlink:href="#DejaVuSans-49"/>
      <use x="63.623047" xlink:href="#DejaVuSans-48"/>
      <use x="127.246094" xlink:href="#DejaVuSans-48"/>
      <use x="190.869141" xlink:href="#DejaVuSans-46"/>
      <use x="222.65625" xlink:href="#DejaVuSans-48"/>
     </g>
    </g>
   </g>
  </g>
 </g>
 <defs>
  <clipPath id="p7ef30ba54b">
   <rect height="371.448" width="723.168" x="116.64" y="57.888"/>
  </clipPath>
 </defs>
</svg>
