<?xml version="1.0" encoding="utf-8" standalone="no"?>
<!DOCTYPE svg PUBLIC "-//W3C//DTD SVG 1.1//EN"
  "http://www.w3.org/Graphics/SVG/1.1/DTD/svg11.dtd">
<!-- Created with matplotlib (https://matplotlib.org/) -->
<svg height="482.4pt" version="1.1" viewBox="0 0 933.12 482.4" width="933.12pt" xmlns="http://www.w3.org/2000/svg" xmlns:xlink="http://www.w3.org/1999/xlink">
 <defs>
  <style type="text/css">
*{stroke-linecap:butt;stroke-linejoin:round;}
  </style>
 </defs>
 <g id="figure_1">
  <g id="patch_1">
   <path d="M 0 482.4 
L 933.12 482.4 
L 933.12 0 
L 0 0 
z
" style="fill:#ffffff;"/>
  </g>
  <g id="axes_1">
   <g id="patch_2">
    <path d="M 116.64 429.336 
L 839.808 429.336 
L 839.808 57.888 
L 116.64 57.888 
z
" style="fill:#ffffff;"/>
   </g>
   <g id="PathCollection_1">
    <path clip-path="url(#p83c87394d5)" d="M 135.13866 86.1701 
C 136.260868 86.1701 137.337266 85.724242 138.130787 84.93072 
C 138.924308 84.137199 139.370167 83.060802 139.370167 81.938593 
C 139.370167 80.816384 138.924308 79.739987 138.130787 78.946466 
C 137.337266 78.152944 136.260868 77.707086 135.13866 77.707086 
C 134.016451 77.707086 132.940054 78.152944 132.146532 78.946466 
C 131.353011 79.739987 130.907152 80.816384 130.907152 81.938593 
C 130.907152 83.060802 131.353011 84.137199 132.146532 84.93072 
C 132.940054 85.724242 134.016451 86.1701 135.13866 86.1701 
z
" style="fill:#1f77b4;stroke:#ffffff;stroke-width:0.75;"/>
    <path clip-path="url(#p83c87394d5)" d="M 155.094637 102.717188 
C 156.181832 102.717188 157.224644 102.285241 157.993407 101.516478 
C 158.76217 100.747715 159.194117 99.704903 159.194117 98.617708 
C 159.194117 97.530513 158.76217 96.4877 157.993407 95.718937 
C 157.224644 94.950175 156.181832 94.518227 155.094637 94.518227 
C 154.007442 94.518227 152.964629 94.950175 152.195866 95.718937 
C 151.427103 96.4877 150.995156 97.530513 150.995156 98.617708 
C 150.995156 99.704903 151.427103 100.747715 152.195866 101.516478 
C 152.964629 102.285241 154.007442 102.717188 155.094637 102.717188 
z
" style="fill:#1f77b4;stroke:#ffffff;stroke-width:0.75;"/>
    <path clip-path="url(#p83c87394d5)" d="M 178.252038 120.852331 
C 179.35796 120.852331 180.418736 120.412944 181.200741 119.630938 
C 181.982746 118.848933 182.422134 117.788157 182.422134 116.682235 
C 182.422134 115.576313 181.982746 114.515537 181.200741 113.733532 
C 180.418736 112.951526 179.35796 112.512139 178.252038 112.512139 
C 177.146116 112.512139 176.08534 112.951526 175.303335 113.733532 
C 174.521329 114.515537 174.081942 115.576313 174.081942 116.682235 
C 174.081942 117.788157 174.521329 118.848933 175.303335 119.630938 
C 176.08534 120.412944 177.146116 120.852331 178.252038 120.852331 
z
" style="fill:#1f77b4;stroke:#ffffff;stroke-width:0.75;"/>
    <path clip-path="url(#p83c87394d5)" d="M 197.469759 134.974108 
C 198.59357 134.974108 199.671505 134.527613 200.466159 133.732959 
C 201.260814 132.938304 201.707309 131.86037 201.707309 130.736558 
C 201.707309 129.612747 201.260814 128.534812 200.466159 127.740158 
C 199.671505 126.945503 198.59357 126.499008 197.469759 126.499008 
C 196.345947 126.499008 195.268013 126.945503 194.473358 127.740158 
C 193.678703 128.534812 193.232208 129.612747 193.232208 130.736558 
C 193.232208 131.86037 193.678703 132.938304 194.473358 133.732959 
C 195.268013 134.527613 196.345947 134.974108 197.469759 134.974108 
z
" style="fill:#1f77b4;stroke:#ffffff;stroke-width:0.75;"/>
    <path clip-path="url(#p83c87394d5)" d="M 214.692149 146.825617 
C 215.815245 146.825617 216.892492 146.379406 217.686641 145.585258 
C 218.480789 144.791109 218.927 143.713862 218.927 142.590766 
C 218.927 141.46767 218.480789 140.390423 217.686641 139.596274 
C 216.892492 138.802126 215.815245 138.355915 214.692149 138.355915 
C 213.569053 138.355915 212.491806 138.802126 211.697657 139.596274 
C 210.903509 140.390423 210.457298 141.46767 210.457298 142.590766 
C 210.457298 143.713862 210.903509 144.791109 211.697657 145.585258 
C 212.491806 146.379406 213.569053 146.825617 214.692149 146.825617 
z
" style="fill:#1f77b4;stroke:#ffffff;stroke-width:0.75;"/>
    <path clip-path="url(#p83c87394d5)" d="M 239.117589 162.622005 
C 240.21902 162.622005 241.275488 162.184402 242.054318 161.405573 
C 242.833147 160.626743 243.27075 159.570275 243.27075 158.468844 
C 243.27075 157.367413 242.833147 156.310945 242.054318 155.532115 
C 241.275488 154.753286 240.21902 154.315682 239.117589 154.315682 
C 238.016158 154.315682 236.95969 154.753286 236.18086 155.532115 
C 235.402031 156.310945 234.964427 157.367413 234.964427 158.468844 
C 234.964427 159.570275 235.402031 160.626743 236.18086 161.405573 
C 236.95969 162.184402 238.016158 162.622005 239.117589 162.622005 
z
" style="fill:#1f77b4;stroke:#ffffff;stroke-width:0.75;"/>
    <path clip-path="url(#p83c87394d5)" d="M 265.422554 178.829673 
C 266.526047 178.829673 267.584493 178.391251 268.36478 177.610964 
C 269.145067 176.830676 269.58349 175.772231 269.58349 174.668738 
C 269.58349 173.565245 269.145067 172.506799 268.36478 171.726512 
C 267.584493 170.946225 266.526047 170.507802 265.422554 170.507802 
C 264.319061 170.507802 263.260616 170.946225 262.480328 171.726512 
C 261.700041 172.506799 261.261619 173.565245 261.261619 174.668738 
C 261.261619 175.772231 261.700041 176.830676 262.480328 177.610964 
C 263.260616 178.391251 264.319061 178.829673 265.422554 178.829673 
z
" style="fill:#1f77b4;stroke:#ffffff;stroke-width:0.75;"/>
    <path clip-path="url(#p83c87394d5)" d="M 297.632094 196.58642 
C 298.447135 196.58642 299.228904 196.2626 299.805225 195.686279 
C 300.381546 195.109958 300.705365 194.328189 300.705365 193.513148 
C 300.705365 192.698107 300.381546 191.916339 299.805225 191.340018 
C 299.228904 190.763696 298.447135 190.439877 297.632094 190.439877 
C 296.817053 190.439877 296.035284 190.763696 295.458963 191.340018 
C 294.882642 191.916339 294.558823 192.698107 294.558823 193.513148 
C 294.558823 194.328189 294.882642 195.109958 295.458963 195.686279 
C 296.035284 196.2626 296.817053 196.58642 297.632094 196.58642 
z
" style="fill:#1f77b4;stroke:#ffffff;stroke-width:0.75;"/>
    <path clip-path="url(#p83c87394d5)" d="M 331.11575 214.291461 
C 331.678331 214.291461 332.217946 214.067945 332.61575 213.67014 
C 333.013555 213.272336 333.237071 212.732721 333.237071 212.17014 
C 333.237071 211.60756 333.013555 211.067945 332.61575 210.67014 
C 332.217946 210.272336 331.678331 210.04882 331.11575 210.04882 
C 330.55317 210.04882 330.013555 210.272336 329.61575 210.67014 
C 329.217946 211.067945 328.99443 211.60756 328.99443 212.17014 
C 328.99443 212.732721 329.217946 213.272336 329.61575 213.67014 
C 330.013555 214.067945 330.55317 214.291461 331.11575 214.291461 
z
" style="fill:#1f77b4;stroke:#ffffff;stroke-width:0.75;"/>
    <path clip-path="url(#p83c87394d5)" d="M 362.95203 233.126558 
C 364.019118 233.126558 365.042643 232.702599 365.797188 231.948055 
C 366.551733 231.19351 366.975691 230.169984 366.975691 229.102897 
C 366.975691 228.03581 366.551733 227.012284 365.797188 226.257739 
C 365.042643 225.503195 364.019118 225.079236 362.95203 225.079236 
C 361.884943 225.079236 360.861417 225.503195 360.106873 226.257739 
C 359.352328 227.012284 358.92837 228.03581 358.92837 229.102897 
C 358.92837 230.169984 359.352328 231.19351 360.106873 231.948055 
C 360.861417 232.702599 361.884943 233.126558 362.95203 233.126558 
z
" style="fill:#1f77b4;stroke:#ffffff;stroke-width:0.75;"/>
    <path clip-path="url(#p83c87394d5)" d="M 391.053667 247.026478 
C 392.015562 247.026478 392.93819 246.644314 393.618352 245.964151 
C 394.298515 245.283989 394.680679 244.361361 394.680679 243.399466 
C 394.680679 242.437571 394.298515 241.514943 393.618352 240.83478 
C 392.93819 240.154618 392.015562 239.772453 391.053667 239.772453 
C 390.091772 239.772453 389.169144 240.154618 388.488981 240.83478 
C 387.808819 241.514943 387.426654 242.437571 387.426654 243.399466 
C 387.426654 244.361361 387.808819 245.283989 388.488981 245.964151 
C 389.169144 246.644314 390.091772 247.026478 391.053667 247.026478 
z
" style="fill:#1f77b4;stroke:#ffffff;stroke-width:0.75;"/>
    <path clip-path="url(#p83c87394d5)" d="M 421.055622 262.035908 
C 422.118839 262.035908 423.138653 261.613487 423.890462 260.861679 
C 424.64227 260.109871 425.064691 259.090057 425.064691 258.026839 
C 425.064691 256.963622 424.64227 255.943808 423.890462 255.191999 
C 423.138653 254.440191 422.118839 254.01777 421.055622 254.01777 
C 419.992404 254.01777 418.97259 254.440191 418.220782 255.191999 
C 417.468974 255.943808 417.046553 256.963622 417.046553 258.026839 
C 417.046553 259.090057 417.468974 260.109871 418.220782 260.861679 
C 418.97259 261.613487 419.992404 262.035908 421.055622 262.035908 
z
" style="fill:#1f77b4;stroke:#ffffff;stroke-width:0.75;"/>
    <path clip-path="url(#p83c87394d5)" d="M 450.057891 275.69336 
C 451.14314 275.69336 452.184085 275.262187 452.951472 274.4948 
C 453.718858 273.727414 454.150032 272.686468 454.150032 271.60122 
C 454.150032 270.515971 453.718858 269.475026 452.951472 268.707639 
C 452.184085 267.940253 451.14314 267.509079 450.057891 267.509079 
C 448.972643 267.509079 447.931697 267.940253 447.164311 268.707639 
C 446.396924 269.475026 445.965751 270.515971 445.965751 271.60122 
C 445.965751 272.686468 446.396924 273.727414 447.164311 274.4948 
C 447.931697 275.262187 448.972643 275.69336 450.057891 275.69336 
z
" style="fill:#1f77b4;stroke:#ffffff;stroke-width:0.75;"/>
    <path clip-path="url(#p83c87394d5)" d="M 481.806725 290.004717 
C 482.898071 290.004717 483.944866 289.57112 484.716564 288.799422 
C 485.488263 288.027723 485.921859 286.980929 485.921859 285.889582 
C 485.921859 284.798236 485.488263 283.751441 484.716564 282.979743 
C 483.944866 282.208044 482.898071 281.774448 481.806725 281.774448 
C 480.715378 281.774448 479.668584 282.208044 478.896885 282.979743 
C 478.125187 283.751441 477.69159 284.798236 477.69159 285.889582 
C 477.69159 286.980929 478.125187 288.027723 478.896885 288.799422 
C 479.668584 289.57112 480.715378 290.004717 481.806725 290.004717 
z
" style="fill:#1f77b4;stroke:#ffffff;stroke-width:0.75;"/>
    <path clip-path="url(#p83c87394d5)" d="M 515.59545 304.328575 
C 516.602105 304.328575 517.567666 303.928626 518.279479 303.216814 
C 518.991291 302.505001 519.39124 301.53944 519.39124 300.532785 
C 519.39124 299.52613 518.991291 298.560569 518.279479 297.848757 
C 517.567666 297.136944 516.602105 296.736996 515.59545 296.736996 
C 514.588795 296.736996 513.623235 297.136944 512.911422 297.848757 
C 512.199609 298.560569 511.799661 299.52613 511.799661 300.532785 
C 511.799661 301.53944 512.199609 302.505001 512.911422 303.216814 
C 513.623235 303.928626 514.588795 304.328575 515.59545 304.328575 
z
" style="fill:#1f77b4;stroke:#ffffff;stroke-width:0.75;"/>
    <path clip-path="url(#p83c87394d5)" d="M 549.424264 318.11723 
C 550.338542 318.11723 551.215495 317.753984 551.861987 317.107492 
C 552.508479 316.461001 552.871725 315.584047 552.871725 314.66977 
C 552.871725 313.755492 552.508479 312.878539 551.861987 312.232047 
C 551.215495 311.585555 550.338542 311.222309 549.424264 311.222309 
C 548.509987 311.222309 547.633033 311.585555 546.986542 312.232047 
C 546.34005 312.878539 545.976804 313.755492 545.976804 314.66977 
C 545.976804 315.584047 546.34005 316.461001 546.986542 317.107492 
C 547.633033 317.753984 548.509987 318.11723 549.424264 318.11723 
z
" style="fill:#1f77b4;stroke:#ffffff;stroke-width:0.75;"/>
    <path clip-path="url(#p83c87394d5)" d="M 583.641366 331.543143 
C 584.454797 331.543143 585.235022 331.219963 585.810205 330.64478 
C 586.385388 330.069597 586.708568 329.289372 586.708568 328.475941 
C 586.708568 327.66251 586.385388 326.882285 585.810205 326.307102 
C 585.235022 325.731919 584.454797 325.408739 583.641366 325.408739 
C 582.827935 325.408739 582.04771 325.731919 581.472527 326.307102 
C 580.897344 326.882285 580.574164 327.66251 580.574164 328.475941 
C 580.574164 329.289372 580.897344 330.069597 581.472527 330.64478 
C 582.04771 331.219963 582.827935 331.543143 583.641366 331.543143 
z
" style="fill:#1f77b4;stroke:#ffffff;stroke-width:0.75;"/>
    <path clip-path="url(#p83c87394d5)" d="M 618.308184 345.326776 
C 619.191168 345.326776 620.038106 344.975963 620.66247 344.351599 
C 621.286834 343.727235 621.637648 342.880297 621.637648 341.997313 
C 621.637648 341.114329 621.286834 340.267391 620.66247 339.643027 
C 620.038106 339.018663 619.191168 338.66785 618.308184 338.66785 
C 617.4252 338.66785 616.578262 339.018663 615.953898 339.643027 
C 615.329534 340.267391 614.978721 341.114329 614.978721 341.997313 
C 614.978721 342.880297 615.329534 343.727235 615.953898 344.351599 
C 616.578262 344.975963 617.4252 345.326776 618.308184 345.326776 
z
" style="fill:#1f77b4;stroke:#ffffff;stroke-width:0.75;"/>
    <path clip-path="url(#p83c87394d5)" d="M 652.81222 359.173322 
C 653.91341 359.173322 654.969647 358.735814 655.748306 357.957155 
C 656.526965 357.178496 656.964473 356.122259 656.964473 355.021069 
C 656.964473 353.919878 656.526965 352.863642 655.748306 352.084983 
C 654.969647 351.306323 653.91341 350.868816 652.81222 350.868816 
C 651.71103 350.868816 650.654793 351.306323 649.876134 352.084983 
C 649.097475 352.863642 648.659967 353.919878 648.659967 355.021069 
C 648.659967 356.122259 649.097475 357.178496 649.876134 357.957155 
C 650.654793 358.735814 651.71103 359.173322 652.81222 359.173322 
z
" style="fill:#1f77b4;stroke:#ffffff;stroke-width:0.75;"/>
    <path clip-path="url(#p83c87394d5)" d="M 687.58418 371.962026 
C 688.704988 371.962026 689.780041 371.516724 690.572572 370.724193 
C 691.365103 369.931662 691.810404 368.856609 691.810404 367.735801 
C 691.810404 366.614994 691.365103 365.53994 690.572572 364.747409 
C 689.780041 363.954879 688.704988 363.509577 687.58418 363.509577 
C 686.463372 363.509577 685.388319 363.954879 684.595788 364.747409 
C 683.803257 365.53994 683.357956 366.614994 683.357956 367.735801 
C 683.357956 368.856609 683.803257 369.931662 684.595788 370.724193 
C 685.388319 371.516724 686.463372 371.962026 687.58418 371.962026 
z
" style="fill:#1f77b4;stroke:#ffffff;stroke-width:0.75;"/>
    <path clip-path="url(#p83c87394d5)" d="M 723.698823 384.783968 
C 724.823985 384.783968 725.903214 384.336937 726.698823 383.541327 
C 727.494433 382.745718 727.941464 381.666489 727.941464 380.541327 
C 727.941464 379.416166 727.494433 378.336937 726.698823 377.541327 
C 725.903214 376.745718 724.823985 376.298687 723.698823 376.298687 
C 722.573662 376.298687 721.494433 376.745718 720.698823 377.541327 
C 719.903214 378.336937 719.456183 379.416166 719.456183 380.541327 
C 719.456183 381.666489 719.903214 382.745718 720.698823 383.541327 
C 721.494433 384.336937 722.573662 384.783968 723.698823 384.783968 
z
" style="fill:#1f77b4;stroke:#ffffff;stroke-width:0.75;"/>
    <path clip-path="url(#p83c87394d5)" d="M 760.008278 397.033015 
C 761.067963 397.033015 762.084389 396.611998 762.8337 395.862687 
C 763.58301 395.113376 764.004028 394.09695 764.004028 393.037265 
C 764.004028 391.97758 763.58301 390.961154 762.8337 390.211843 
C 762.084389 389.462532 761.067963 389.041515 760.008278 389.041515 
C 758.948592 389.041515 757.932166 389.462532 757.182856 390.211843 
C 756.433545 390.961154 756.012527 391.97758 756.012527 393.037265 
C 756.012527 394.09695 756.433545 395.113376 757.182856 395.862687 
C 757.932166 396.611998 758.948592 397.033015 760.008278 397.033015 
z
" style="fill:#1f77b4;stroke:#ffffff;stroke-width:0.75;"/>
    <path clip-path="url(#p83c87394d5)" d="M 796.644461 408.926677 
C 797.610137 408.926677 798.536392 408.54301 799.219228 407.860174 
C 799.902064 407.177338 800.285731 406.251083 800.285731 405.285407 
C 800.285731 404.319731 799.902064 403.393476 799.219228 402.71064 
C 798.536392 402.027804 797.610137 401.644137 796.644461 401.644137 
C 795.678785 401.644137 794.75253 402.027804 794.069694 402.71064 
C 793.386858 403.393476 793.003191 404.319731 793.003191 405.285407 
C 793.003191 406.251083 793.386858 407.177338 794.069694 407.860174 
C 794.75253 408.54301 795.678785 408.926677 796.644461 408.926677 
z
" style="fill:#1f77b4;stroke:#ffffff;stroke-width:0.75;"/>
   </g>
   <g id="PathCollection_2"/>
   <g id="PathCollection_3"/>
   <g id="PathCollection_4"/>
   <g id="PathCollection_5"/>
   <g id="PathCollection_6"/>
   <g id="patch_3">
    <path clip-path="url(#p83c87394d5)" d="z
" style="fill:#808080;stroke:#808080;stroke-linejoin:miter;"/>
   </g>
   <g id="patch_4">
    <path clip-path="url(#p83c87394d5)" d="M 151.810411 95.872767 
L 150.539942 96.040743 
L 150.601312 94.923699 
L 137.629927 84.082274 
L 137.636387 83.964691 
L 150.607772 94.806115 
L 150.669142 93.689071 
z
" style="fill:#808080;stroke:#808080;stroke-linejoin:miter;"/>
   </g>
   <g id="patch_5">
    <path clip-path="url(#p83c87394d5)" d="M 174.250918 113.561058 
L 172.981158 113.796894 
L 173.038599 112.676675 
L 157.986289 100.934733 
L 157.992335 100.816815 
L 173.044646 112.558758 
L 173.102087 111.438539 
z
" style="fill:#808080;stroke:#808080;stroke-linejoin:miter;"/>
   </g>
   <g id="patch_6">
    <path clip-path="url(#p83c87394d5)" d="M 194.357893 128.460785 
L 193.088953 128.756268 
L 193.142931 127.633432 
L 180.651412 118.498122 
L 180.657094 118.379929 
L 193.148612 127.515239 
L 193.20259 126.392402 
z
" style="fill:#808080;stroke:#808080;stroke-linejoin:miter;"/>
   </g>
   <g id="patch_7">
    <path clip-path="url(#p83c87394d5)" d="M 212.03159 140.759497 
L 210.763531 141.107801 
L 210.814432 139.982781 
L 199.619879 132.277546 
L 199.625237 132.159123 
L 210.81979 139.864358 
L 210.870691 138.739338 
z
" style="fill:#808080;stroke:#808080;stroke-linejoin:miter;"/>
   </g>
   <g id="patch_8">
    <path clip-path="url(#p83c87394d5)" d="M 234.838329 155.687055 
L 233.571179 156.082444 
L 233.619331 154.955585 
L 217.742795 144.634834 
L 217.747863 144.516217 
L 233.624399 154.836968 
L 233.672551 153.710108 
z
" style="fill:#808080;stroke:#808080;stroke-linejoin:miter;"/>
   </g>
   <g id="patch_9">
    <path clip-path="url(#p83c87394d5)" d="M 260.72209 171.77396 
L 259.455852 172.211576 
L 259.501533 171.083152 
L 242.403305 160.553221 
L 242.408114 160.43444 
L 259.506341 170.964371 
L 259.552022 169.835947 
z
" style="fill:#808080;stroke:#808080;stroke-linejoin:miter;"/>
   </g>
   <g id="patch_10">
    <path clip-path="url(#p83c87394d5)" d="M 291.604547 189.986691 
L 290.339212 190.462381 
L 290.382661 189.332617 
L 269.44646 177.08375 
L 269.451033 176.964828 
L 290.387234 189.213695 
L 290.430682 188.083931 
z
" style="fill:#808080;stroke:#808080;stroke-linejoin:miter;"/>
   </g>
   <g id="patch_11">
    <path clip-path="url(#p83c87394d5)" d="M 324.802777 208.652571 
L 323.538326 209.162761 
L 323.579747 208.031839 
L 301.815371 195.904795 
L 301.819731 195.78575 
L 323.584108 207.912795 
L 323.625529 206.781873 
z
" style="fill:#808080;stroke:#808080;stroke-linejoin:miter;"/>
   </g>
   <g id="patch_12">
    <path clip-path="url(#p83c87394d5)" d="M 357.010803 225.942937 
L 355.74721 226.484529 
L 355.786784 225.352602 
L 335.093202 214.34631 
L 335.097368 214.22716 
L 355.79095 225.233452 
L 355.830524 224.101524 
z
" style="fill:#808080;stroke:#808080;stroke-linejoin:miter;"/>
   </g>
   <g id="patch_13">
    <path clip-path="url(#p83c87394d5)" d="M 385.953684 240.804875 
L 384.690922 241.375167 
L 384.728805 240.242359 
L 366.462741 230.94959 
L 366.466729 230.830347 
L 384.732792 240.123116 
L 384.770675 238.990309 
z
" style="fill:#808080;stroke:#808080;stroke-linejoin:miter;"/>
   </g>
   <g id="patch_14">
    <path clip-path="url(#p83c87394d5)" d="M 415.528903 255.332302 
L 414.266941 255.928924 
L 414.30327 254.795342 
L 394.801999 245.28755 
L 394.805823 245.168225 
L 414.307094 254.676018 
L 414.343423 253.542437 
z
" style="fill:#808080;stroke:#808080;stroke-linejoin:miter;"/>
   </g>
   <g id="patch_15">
    <path clip-path="url(#p83c87394d5)" d="M 444.75684 269.120087 
L 443.495647 269.740948 
L 443.530544 268.606682 
L 424.679069 259.783335 
L 424.682742 259.663939 
L 443.534217 268.487286 
L 443.569115 267.35302 
z
" style="fill:#808080;stroke:#808080;stroke-linejoin:miter;"/>
   </g>
   <g id="patch_16">
    <path clip-path="url(#p83c87394d5)" d="M 475.888353 283.226056 
L 474.627897 283.869304 
L 474.66147 282.734431 
L 454.024729 273.446995 
L 454.028263 273.327535 
L 474.665004 282.61497 
L 474.698577 281.480097 
z
" style="fill:#808080;stroke:#808080;stroke-linejoin:miter;"/>
   </g>
   <g id="patch_17">
    <path clip-path="url(#p83c87394d5)" d="M 509.218688 297.769253 
L 507.95894 298.433239 
L 507.991285 297.297823 
L 486.028613 287.779741 
L 486.032018 287.660224 
L 507.994689 297.178306 
L 508.027034 296.04289 
z
" style="fill:#808080;stroke:#808080;stroke-linejoin:miter;"/>
   </g>
   <g id="patch_18">
    <path clip-path="url(#p83c87394d5)" d="M 543.039007 312.001385 
L 541.779936 312.684634 
L 541.811139 311.548732 
L 519.82241 302.359693 
L 519.825694 302.240124 
L 541.814423 311.429164 
L 541.845627 310.293262 
z
" style="fill:#808080;stroke:#808080;stroke-linejoin:miter;"/>
   </g>
   <g id="patch_19">
    <path clip-path="url(#p83c87394d5)" d="M 577.169216 325.86451 
L 575.910793 326.565699 
L 575.940932 325.42936 
L 553.699816 316.455348 
L 553.702988 316.335734 
L 575.944104 325.309745 
L 575.974243 324.173406 
z
" style="fill:#808080;stroke:#808080;stroke-linejoin:miter;"/>
   </g>
   <g id="patch_20">
    <path clip-path="url(#p83c87394d5)" d="M 611.735274 339.433629 
L 610.477472 340.151566 
L 610.506616 339.014832 
L 587.973184 330.225941 
L 587.976252 330.106284 
L 610.509684 338.895176 
L 610.538828 337.758443 
z
" style="fill:#808080;stroke:#808080;stroke-linejoin:miter;"/>
   </g>
   <g id="patch_21">
    <path clip-path="url(#p83c87394d5)" d="M 646.276321 352.554055 
L 645.019114 353.287662 
L 645.047327 352.150571 
L 622.619704 343.685129 
L 622.622674 343.565436 
L 645.050297 352.030877 
L 645.07851 350.893786 
z
" style="fill:#808080;stroke:#808080;stroke-linejoin:miter;"/>
   </g>
   <g id="patch_22">
    <path clip-path="url(#p83c87394d5)" d="M 680.988349 365.323966 
L 679.731711 366.072266 
L 679.75905 364.93485 
L 657.157276 356.670274 
L 657.160154 356.550546 
L 679.761928 364.815123 
L 679.789267 363.677707 
z
" style="fill:#808080;stroke:#808080;stroke-linejoin:miter;"/>
   </g>
   <g id="patch_23">
    <path clip-path="url(#p83c87394d5)" d="M 716.801208 378.095572 
L 715.545115 378.857675 
L 715.571633 377.719964 
L 692.097115 369.396372 
L 692.099906 369.276613 
L 715.574424 377.600205 
L 715.600942 376.462493 
z
" style="fill:#808080;stroke:#808080;stroke-linejoin:miter;"/>
   </g>
   <g id="patch_24">
    <path clip-path="url(#p83c87394d5)" d="M 753.067121 390.648459 
L 751.811552 391.423555 
L 751.837295 390.285573 
L 728.23615 382.163213 
L 728.23886 382.043426 
L 751.840005 390.165785 
L 751.865749 389.027803 
z
" style="fill:#808080;stroke:#808080;stroke-linejoin:miter;"/>
   </g>
   <g id="patch_25">
    <path clip-path="url(#p83c87394d5)" d="M 789.630058 402.940365 
L 788.37499 403.727711 
L 788.400003 402.589482 
L 764.586484 394.628189 
L 764.589117 394.508376 
L 788.402636 402.469668 
L 788.42765 401.331439 
z
" style="fill:#808080;stroke:#808080;stroke-linejoin:miter;"/>
   </g>
   <g id="matplotlib.axis_1">
    <g id="xtick_1">
     <g id="line2d_1">
      <defs>
       <path d="M 0 0 
L 0 3.5 
" id="m6c4ccfb140" style="stroke:#000000;stroke-width:0.8;"/>
      </defs>
      <g>
       <use style="stroke:#000000;stroke-width:0.8;" x="129.597291" xlink:href="#m6c4ccfb140" y="429.336"/>
      </g>
     </g>
     <g id="text_1">
      <!-- 1.4 -->
      <defs>
       <path d="M 12.40625 8.296875 
L 28.515625 8.296875 
L 28.515625 63.921875 
L 10.984375 60.40625 
L 10.984375 69.390625 
L 28.421875 72.90625 
L 38.28125 72.90625 
L 38.28125 8.296875 
L 54.390625 8.296875 
L 54.390625 0 
L 12.40625 0 
z
" id="DejaVuSans-49"/>
       <path d="M 10.6875 12.40625 
L 21 12.40625 
L 21 0 
L 10.6875 0 
z
" id="DejaVuSans-46"/>
       <path d="M 37.796875 64.3125 
L 12.890625 25.390625 
L 37.796875 25.390625 
z
M 35.203125 72.90625 
L 47.609375 72.90625 
L 47.609375 25.390625 
L 58.015625 25.390625 
L 58.015625 17.1875 
L 47.609375 17.1875 
L 47.609375 0 
L 37.796875 0 
L 37.796875 17.1875 
L 4.890625 17.1875 
L 4.890625 26.703125 
z
" id="DejaVuSans-52"/>
      </defs>
      <g transform="translate(121.645728 443.934438)scale(0.1 -0.1)">
       <use xlink:href="#DejaVuSans-49"/>
       <use x="63.623047" xlink:href="#DejaVuSans-46"/>
       <use x="95.410156" xlink:href="#DejaVuSans-52"/>
      </g>
     </g>
    </g>
    <g id="xtick_2">
     <g id="line2d_2">
      <g>
       <use style="stroke:#000000;stroke-width:0.8;" x="252.921688" xlink:href="#m6c4ccfb140" y="429.336"/>
      </g>
     </g>
     <g id="text_2">
      <!-- 1.6 -->
      <defs>
       <path d="M 33.015625 40.375 
Q 26.375 40.375 22.484375 35.828125 
Q 18.609375 31.296875 18.609375 23.390625 
Q 18.609375 15.53125 22.484375 10.953125 
Q 26.375 6.390625 33.015625 6.390625 
Q 39.65625 6.390625 43.53125 10.953125 
Q 47.40625 15.53125 47.40625 23.390625 
Q 47.40625 31.296875 43.53125 35.828125 
Q 39.65625 40.375 33.015625 40.375 
z
M 52.59375 71.296875 
L 52.59375 62.3125 
Q 48.875 64.0625 45.09375 64.984375 
Q 41.3125 65.921875 37.59375 65.921875 
Q 27.828125 65.921875 22.671875 59.328125 
Q 17.53125 52.734375 16.796875 39.40625 
Q 19.671875 43.65625 24.015625 45.921875 
Q 28.375 48.1875 33.59375 48.1875 
Q 44.578125 48.1875 50.953125 41.515625 
Q 57.328125 34.859375 57.328125 23.390625 
Q 57.328125 12.15625 50.6875 5.359375 
Q 44.046875 -1.421875 33.015625 -1.421875 
Q 20.359375 -1.421875 13.671875 8.265625 
Q 6.984375 17.96875 6.984375 36.375 
Q 6.984375 53.65625 15.1875 63.9375 
Q 23.390625 74.21875 37.203125 74.21875 
Q 40.921875 74.21875 44.703125 73.484375 
Q 48.484375 72.75 52.59375 71.296875 
z
" id="DejaVuSans-54"/>
      </defs>
      <g transform="translate(244.970125 443.934438)scale(0.1 -0.1)">
       <use xlink:href="#DejaVuSans-49"/>
       <use x="63.623047" xlink:href="#DejaVuSans-46"/>
       <use x="95.410156" xlink:href="#DejaVuSans-54"/>
      </g>
     </g>
    </g>
    <g id="xtick_3">
     <g id="line2d_3">
      <g>
       <use style="stroke:#000000;stroke-width:0.8;" x="376.246085" xlink:href="#m6c4ccfb140" y="429.336"/>
      </g>
     </g>
     <g id="text_3">
      <!-- 1.8 -->
      <defs>
       <path d="M 31.78125 34.625 
Q 24.75 34.625 20.71875 30.859375 
Q 16.703125 27.09375 16.703125 20.515625 
Q 16.703125 13.921875 20.71875 10.15625 
Q 24.75 6.390625 31.78125 6.390625 
Q 38.8125 6.390625 42.859375 10.171875 
Q 46.921875 13.96875 46.921875 20.515625 
Q 46.921875 27.09375 42.890625 30.859375 
Q 38.875 34.625 31.78125 34.625 
z
M 21.921875 38.8125 
Q 15.578125 40.375 12.03125 44.71875 
Q 8.5 49.078125 8.5 55.328125 
Q 8.5 64.0625 14.71875 69.140625 
Q 20.953125 74.21875 31.78125 74.21875 
Q 42.671875 74.21875 48.875 69.140625 
Q 55.078125 64.0625 55.078125 55.328125 
Q 55.078125 49.078125 51.53125 44.71875 
Q 48 40.375 41.703125 38.8125 
Q 48.828125 37.15625 52.796875 32.3125 
Q 56.78125 27.484375 56.78125 20.515625 
Q 56.78125 9.90625 50.3125 4.234375 
Q 43.84375 -1.421875 31.78125 -1.421875 
Q 19.734375 -1.421875 13.25 4.234375 
Q 6.78125 9.90625 6.78125 20.515625 
Q 6.78125 27.484375 10.78125 32.3125 
Q 14.796875 37.15625 21.921875 38.8125 
z
M 18.3125 54.390625 
Q 18.3125 48.734375 21.84375 45.5625 
Q 25.390625 42.390625 31.78125 42.390625 
Q 38.140625 42.390625 41.71875 45.5625 
Q 45.3125 48.734375 45.3125 54.390625 
Q 45.3125 60.0625 41.71875 63.234375 
Q 38.140625 66.40625 31.78125 66.40625 
Q 25.390625 66.40625 21.84375 63.234375 
Q 18.3125 60.0625 18.3125 54.390625 
z
" id="DejaVuSans-56"/>
      </defs>
      <g transform="translate(368.294522 443.934438)scale(0.1 -0.1)">
       <use xlink:href="#DejaVuSans-49"/>
       <use x="63.623047" xlink:href="#DejaVuSans-46"/>
       <use x="95.410156" xlink:href="#DejaVuSans-56"/>
      </g>
     </g>
    </g>
    <g id="xtick_4">
     <g id="line2d_4">
      <g>
       <use style="stroke:#000000;stroke-width:0.8;" x="499.570482" xlink:href="#m6c4ccfb140" y="429.336"/>
      </g>
     </g>
     <g id="text_4">
      <!-- 2.0 -->
      <defs>
       <path d="M 19.1875 8.296875 
L 53.609375 8.296875 
L 53.609375 0 
L 7.328125 0 
L 7.328125 8.296875 
Q 12.9375 14.109375 22.625 23.890625 
Q 32.328125 33.6875 34.8125 36.53125 
Q 39.546875 41.84375 41.421875 45.53125 
Q 43.3125 49.21875 43.3125 52.78125 
Q 43.3125 58.59375 39.234375 62.25 
Q 35.15625 65.921875 28.609375 65.921875 
Q 23.96875 65.921875 18.8125 64.3125 
Q 13.671875 62.703125 7.8125 59.421875 
L 7.8125 69.390625 
Q 13.765625 71.78125 18.9375 73 
Q 24.125 74.21875 28.421875 74.21875 
Q 39.75 74.21875 46.484375 68.546875 
Q 53.21875 62.890625 53.21875 53.421875 
Q 53.21875 48.921875 51.53125 44.890625 
Q 49.859375 40.875 45.40625 35.40625 
Q 44.1875 33.984375 37.640625 27.21875 
Q 31.109375 20.453125 19.1875 8.296875 
z
" id="DejaVuSans-50"/>
       <path d="M 31.78125 66.40625 
Q 24.171875 66.40625 20.328125 58.90625 
Q 16.5 51.421875 16.5 36.375 
Q 16.5 21.390625 20.328125 13.890625 
Q 24.171875 6.390625 31.78125 6.390625 
Q 39.453125 6.390625 43.28125 13.890625 
Q 47.125 21.390625 47.125 36.375 
Q 47.125 51.421875 43.28125 58.90625 
Q 39.453125 66.40625 31.78125 66.40625 
z
M 31.78125 74.21875 
Q 44.046875 74.21875 50.515625 64.515625 
Q 56.984375 54.828125 56.984375 36.375 
Q 56.984375 17.96875 50.515625 8.265625 
Q 44.046875 -1.421875 31.78125 -1.421875 
Q 19.53125 -1.421875 13.0625 8.265625 
Q 6.59375 17.96875 6.59375 36.375 
Q 6.59375 54.828125 13.0625 64.515625 
Q 19.53125 74.21875 31.78125 74.21875 
z
" id="DejaVuSans-48"/>
      </defs>
      <g transform="translate(491.61892 443.934438)scale(0.1 -0.1)">
       <use xlink:href="#DejaVuSans-50"/>
       <use x="63.623047" xlink:href="#DejaVuSans-46"/>
       <use x="95.410156" xlink:href="#DejaVuSans-48"/>
      </g>
     </g>
    </g>
    <g id="xtick_5">
     <g id="line2d_5">
      <g>
       <use style="stroke:#000000;stroke-width:0.8;" x="622.894879" xlink:href="#m6c4ccfb140" y="429.336"/>
      </g>
     </g>
     <g id="text_5">
      <!-- 2.2 -->
      <g transform="translate(614.943317 443.934438)scale(0.1 -0.1)">
       <use xlink:href="#DejaVuSans-50"/>
       <use x="63.623047" xlink:href="#DejaVuSans-46"/>
       <use x="95.410156" xlink:href="#DejaVuSans-50"/>
      </g>
     </g>
    </g>
    <g id="xtick_6">
     <g id="line2d_6">
      <g>
       <use style="stroke:#000000;stroke-width:0.8;" x="746.219277" xlink:href="#m6c4ccfb140" y="429.336"/>
      </g>
     </g>
     <g id="text_6">
      <!-- 2.4 -->
      <g transform="translate(738.267714 443.934438)scale(0.1 -0.1)">
       <use xlink:href="#DejaVuSans-50"/>
       <use x="63.623047" xlink:href="#DejaVuSans-46"/>
       <use x="95.410156" xlink:href="#DejaVuSans-52"/>
      </g>
     </g>
    </g>
    <g id="text_7">
     <!-- intercept -->
     <defs>
      <path d="M 9.421875 54.6875 
L 18.40625 54.6875 
L 18.40625 0 
L 9.421875 0 
z
M 9.421875 75.984375 
L 18.40625 75.984375 
L 18.40625 64.59375 
L 9.421875 64.59375 
z
" id="DejaVuSans-105"/>
      <path d="M 54.890625 33.015625 
L 54.890625 0 
L 45.90625 0 
L 45.90625 32.71875 
Q 45.90625 40.484375 42.875 44.328125 
Q 39.84375 48.1875 33.796875 48.1875 
Q 26.515625 48.1875 22.3125 43.546875 
Q 18.109375 38.921875 18.109375 30.90625 
L 18.109375 0 
L 9.078125 0 
L 9.078125 54.6875 
L 18.109375 54.6875 
L 18.109375 46.1875 
Q 21.34375 51.125 25.703125 53.5625 
Q 30.078125 56 35.796875 56 
Q 45.21875 56 50.046875 50.171875 
Q 54.890625 44.34375 54.890625 33.015625 
z
" id="DejaVuSans-110"/>
      <path d="M 18.3125 70.21875 
L 18.3125 54.6875 
L 36.8125 54.6875 
L 36.8125 47.703125 
L 18.3125 47.703125 
L 18.3125 18.015625 
Q 18.3125 11.328125 20.140625 9.421875 
Q 21.96875 7.515625 27.59375 7.515625 
L 36.8125 7.515625 
L 36.8125 0 
L 27.59375 0 
Q 17.1875 0 13.234375 3.875 
Q 9.28125 7.765625 9.28125 18.015625 
L 9.28125 47.703125 
L 2.6875 47.703125 
L 2.6875 54.6875 
L 9.28125 54.6875 
L 9.28125 70.21875 
z
" id="DejaVuSans-116"/>
      <path d="M 56.203125 29.59375 
L 56.203125 25.203125 
L 14.890625 25.203125 
Q 15.484375 15.921875 20.484375 11.0625 
Q 25.484375 6.203125 34.421875 6.203125 
Q 39.59375 6.203125 44.453125 7.46875 
Q 49.3125 8.734375 54.109375 11.28125 
L 54.109375 2.78125 
Q 49.265625 0.734375 44.1875 -0.34375 
Q 39.109375 -1.421875 33.890625 -1.421875 
Q 20.796875 -1.421875 13.15625 6.1875 
Q 5.515625 13.8125 5.515625 26.8125 
Q 5.515625 40.234375 12.765625 48.109375 
Q 20.015625 56 32.328125 56 
Q 43.359375 56 49.78125 48.890625 
Q 56.203125 41.796875 56.203125 29.59375 
z
M 47.21875 32.234375 
Q 47.125 39.59375 43.09375 43.984375 
Q 39.0625 48.390625 32.421875 48.390625 
Q 24.90625 48.390625 20.390625 44.140625 
Q 15.875 39.890625 15.1875 32.171875 
z
" id="DejaVuSans-101"/>
      <path d="M 41.109375 46.296875 
Q 39.59375 47.171875 37.8125 47.578125 
Q 36.03125 48 33.890625 48 
Q 26.265625 48 22.1875 43.046875 
Q 18.109375 38.09375 18.109375 28.8125 
L 18.109375 0 
L 9.078125 0 
L 9.078125 54.6875 
L 18.109375 54.6875 
L 18.109375 46.1875 
Q 20.953125 51.171875 25.484375 53.578125 
Q 30.03125 56 36.53125 56 
Q 37.453125 56 38.578125 55.875 
Q 39.703125 55.765625 41.0625 55.515625 
z
" id="DejaVuSans-114"/>
      <path d="M 48.78125 52.59375 
L 48.78125 44.1875 
Q 44.96875 46.296875 41.140625 47.34375 
Q 37.3125 48.390625 33.40625 48.390625 
Q 24.65625 48.390625 19.8125 42.84375 
Q 14.984375 37.3125 14.984375 27.296875 
Q 14.984375 17.28125 19.8125 11.734375 
Q 24.65625 6.203125 33.40625 6.203125 
Q 37.3125 6.203125 41.140625 7.25 
Q 44.96875 8.296875 48.78125 10.40625 
L 48.78125 2.09375 
Q 45.015625 0.34375 40.984375 -0.53125 
Q 36.96875 -1.421875 32.421875 -1.421875 
Q 20.0625 -1.421875 12.78125 6.34375 
Q 5.515625 14.109375 5.515625 27.296875 
Q 5.515625 40.671875 12.859375 48.328125 
Q 20.21875 56 33.015625 56 
Q 37.15625 56 41.109375 55.140625 
Q 45.0625 54.296875 48.78125 52.59375 
z
" id="DejaVuSans-99"/>
      <path d="M 18.109375 8.203125 
L 18.109375 -20.796875 
L 9.078125 -20.796875 
L 9.078125 54.6875 
L 18.109375 54.6875 
L 18.109375 46.390625 
Q 20.953125 51.265625 25.265625 53.625 
Q 29.59375 56 35.59375 56 
Q 45.5625 56 51.78125 48.09375 
Q 58.015625 40.1875 58.015625 27.296875 
Q 58.015625 14.40625 51.78125 6.484375 
Q 45.5625 -1.421875 35.59375 -1.421875 
Q 29.59375 -1.421875 25.265625 0.953125 
Q 20.953125 3.328125 18.109375 8.203125 
z
M 48.6875 27.296875 
Q 48.6875 37.203125 44.609375 42.84375 
Q 40.53125 48.484375 33.40625 48.484375 
Q 26.265625 48.484375 22.1875 42.84375 
Q 18.109375 37.203125 18.109375 27.296875 
Q 18.109375 17.390625 22.1875 11.75 
Q 26.265625 6.109375 33.40625 6.109375 
Q 40.53125 6.109375 44.609375 11.75 
Q 48.6875 17.390625 48.6875 27.296875 
z
" id="DejaVuSans-112"/>
     </defs>
     <g transform="translate(455.615406 457.612563)scale(0.1 -0.1)">
      <use xlink:href="#DejaVuSans-105"/>
      <use x="27.783203" xlink:href="#DejaVuSans-110"/>
      <use x="91.162109" xlink:href="#DejaVuSans-116"/>
      <use x="130.371094" xlink:href="#DejaVuSans-101"/>
      <use x="191.894531" xlink:href="#DejaVuSans-114"/>
      <use x="232.976562" xlink:href="#DejaVuSans-99"/>
      <use x="287.957031" xlink:href="#DejaVuSans-101"/>
      <use x="349.480469" xlink:href="#DejaVuSans-112"/>
      <use x="412.957031" xlink:href="#DejaVuSans-116"/>
     </g>
    </g>
   </g>
   <g id="matplotlib.axis_2">
    <g id="ytick_1">
     <g id="line2d_7">
      <defs>
       <path d="M 0 0 
L -3.5 0 
" id="md5e8f6611a" style="stroke:#000000;stroke-width:0.8;"/>
      </defs>
      <g>
       <use style="stroke:#000000;stroke-width:0.8;" x="116.64" xlink:href="#md5e8f6611a" y="399.157109"/>
      </g>
     </g>
     <g id="text_8">
      <!-- 0.20 -->
      <g transform="translate(87.374375 402.956328)scale(0.1 -0.1)">
       <use xlink:href="#DejaVuSans-48"/>
       <use x="63.623047" xlink:href="#DejaVuSans-46"/>
       <use x="95.410156" xlink:href="#DejaVuSans-50"/>
       <use x="159.033203" xlink:href="#DejaVuSans-48"/>
      </g>
     </g>
    </g>
    <g id="ytick_2">
     <g id="line2d_8">
      <g>
       <use style="stroke:#000000;stroke-width:0.8;" x="116.64" xlink:href="#md5e8f6611a" y="351.055923"/>
      </g>
     </g>
     <g id="text_9">
      <!-- 0.22 -->
      <g transform="translate(87.374375 354.855142)scale(0.1 -0.1)">
       <use xlink:href="#DejaVuSans-48"/>
       <use x="63.623047" xlink:href="#DejaVuSans-46"/>
       <use x="95.410156" xlink:href="#DejaVuSans-50"/>
       <use x="159.033203" xlink:href="#DejaVuSans-50"/>
      </g>
     </g>
    </g>
    <g id="ytick_3">
     <g id="line2d_9">
      <g>
       <use style="stroke:#000000;stroke-width:0.8;" x="116.64" xlink:href="#md5e8f6611a" y="302.954737"/>
      </g>
     </g>
     <g id="text_10">
      <!-- 0.24 -->
      <g transform="translate(87.374375 306.753956)scale(0.1 -0.1)">
       <use xlink:href="#DejaVuSans-48"/>
       <use x="63.623047" xlink:href="#DejaVuSans-46"/>
       <use x="95.410156" xlink:href="#DejaVuSans-50"/>
       <use x="159.033203" xlink:href="#DejaVuSans-52"/>
      </g>
     </g>
    </g>
    <g id="ytick_4">
     <g id="line2d_10">
      <g>
       <use style="stroke:#000000;stroke-width:0.8;" x="116.64" xlink:href="#md5e8f6611a" y="254.853551"/>
      </g>
     </g>
     <g id="text_11">
      <!-- 0.26 -->
      <g transform="translate(87.374375 258.65277)scale(0.1 -0.1)">
       <use xlink:href="#DejaVuSans-48"/>
       <use x="63.623047" xlink:href="#DejaVuSans-46"/>
       <use x="95.410156" xlink:href="#DejaVuSans-50"/>
       <use x="159.033203" xlink:href="#DejaVuSans-54"/>
      </g>
     </g>
    </g>
    <g id="ytick_5">
     <g id="line2d_11">
      <g>
       <use style="stroke:#000000;stroke-width:0.8;" x="116.64" xlink:href="#md5e8f6611a" y="206.752366"/>
      </g>
     </g>
     <g id="text_12">
      <!-- 0.28 -->
      <g transform="translate(87.374375 210.551584)scale(0.1 -0.1)">
       <use xlink:href="#DejaVuSans-48"/>
       <use x="63.623047" xlink:href="#DejaVuSans-46"/>
       <use x="95.410156" xlink:href="#DejaVuSans-50"/>
       <use x="159.033203" xlink:href="#DejaVuSans-56"/>
      </g>
     </g>
    </g>
    <g id="ytick_6">
     <g id="line2d_12">
      <g>
       <use style="stroke:#000000;stroke-width:0.8;" x="116.64" xlink:href="#md5e8f6611a" y="158.65118"/>
      </g>
     </g>
     <g id="text_13">
      <!-- 0.30 -->
      <defs>
       <path d="M 40.578125 39.3125 
Q 47.65625 37.796875 51.625 33 
Q 55.609375 28.21875 55.609375 21.1875 
Q 55.609375 10.40625 48.1875 4.484375 
Q 40.765625 -1.421875 27.09375 -1.421875 
Q 22.515625 -1.421875 17.65625 -0.515625 
Q 12.796875 0.390625 7.625 2.203125 
L 7.625 11.71875 
Q 11.71875 9.328125 16.59375 8.109375 
Q 21.484375 6.890625 26.8125 6.890625 
Q 36.078125 6.890625 40.9375 10.546875 
Q 45.796875 14.203125 45.796875 21.1875 
Q 45.796875 27.640625 41.28125 31.265625 
Q 36.765625 34.90625 28.71875 34.90625 
L 20.21875 34.90625 
L 20.21875 43.015625 
L 29.109375 43.015625 
Q 36.375 43.015625 40.234375 45.921875 
Q 44.09375 48.828125 44.09375 54.296875 
Q 44.09375 59.90625 40.109375 62.90625 
Q 36.140625 65.921875 28.71875 65.921875 
Q 24.65625 65.921875 20.015625 65.03125 
Q 15.375 64.15625 9.8125 62.3125 
L 9.8125 71.09375 
Q 15.4375 72.65625 20.34375 73.4375 
Q 25.25 74.21875 29.59375 74.21875 
Q 40.828125 74.21875 47.359375 69.109375 
Q 53.90625 64.015625 53.90625 55.328125 
Q 53.90625 49.265625 50.4375 45.09375 
Q 46.96875 40.921875 40.578125 39.3125 
z
" id="DejaVuSans-51"/>
      </defs>
      <g transform="translate(87.374375 162.450398)scale(0.1 -0.1)">
       <use xlink:href="#DejaVuSans-48"/>
       <use x="63.623047" xlink:href="#DejaVuSans-46"/>
       <use x="95.410156" xlink:href="#DejaVuSans-51"/>
       <use x="159.033203" xlink:href="#DejaVuSans-48"/>
      </g>
     </g>
    </g>
    <g id="ytick_7">
     <g id="line2d_13">
      <g>
       <use style="stroke:#000000;stroke-width:0.8;" x="116.64" xlink:href="#md5e8f6611a" y="110.549994"/>
      </g>
     </g>
     <g id="text_14">
      <!-- 0.32 -->
      <g transform="translate(87.374375 114.349212)scale(0.1 -0.1)">
       <use xlink:href="#DejaVuSans-48"/>
       <use x="63.623047" xlink:href="#DejaVuSans-46"/>
       <use x="95.410156" xlink:href="#DejaVuSans-51"/>
       <use x="159.033203" xlink:href="#DejaVuSans-50"/>
      </g>
     </g>
    </g>
    <g id="ytick_8">
     <g id="line2d_14">
      <g>
       <use style="stroke:#000000;stroke-width:0.8;" x="116.64" xlink:href="#md5e8f6611a" y="62.448808"/>
      </g>
     </g>
     <g id="text_15">
      <!-- 0.34 -->
      <g transform="translate(87.374375 66.248026)scale(0.1 -0.1)">
       <use xlink:href="#DejaVuSans-48"/>
       <use x="63.623047" xlink:href="#DejaVuSans-46"/>
       <use x="95.410156" xlink:href="#DejaVuSans-51"/>
       <use x="159.033203" xlink:href="#DejaVuSans-52"/>
      </g>
     </g>
    </g>
    <g id="text_16">
     <!-- exponent -->
     <defs>
      <path d="M 54.890625 54.6875 
L 35.109375 28.078125 
L 55.90625 0 
L 45.3125 0 
L 29.390625 21.484375 
L 13.484375 0 
L 2.875 0 
L 24.125 28.609375 
L 4.6875 54.6875 
L 15.28125 54.6875 
L 29.78125 35.203125 
L 44.28125 54.6875 
z
" id="DejaVuSans-120"/>
      <path d="M 30.609375 48.390625 
Q 23.390625 48.390625 19.1875 42.75 
Q 14.984375 37.109375 14.984375 27.296875 
Q 14.984375 17.484375 19.15625 11.84375 
Q 23.34375 6.203125 30.609375 6.203125 
Q 37.796875 6.203125 41.984375 11.859375 
Q 46.1875 17.53125 46.1875 27.296875 
Q 46.1875 37.015625 41.984375 42.703125 
Q 37.796875 48.390625 30.609375 48.390625 
z
M 30.609375 56 
Q 42.328125 56 49.015625 48.375 
Q 55.71875 40.765625 55.71875 27.296875 
Q 55.71875 13.875 49.015625 6.21875 
Q 42.328125 -1.421875 30.609375 -1.421875 
Q 18.84375 -1.421875 12.171875 6.21875 
Q 5.515625 13.875 5.515625 27.296875 
Q 5.515625 40.765625 12.171875 48.375 
Q 18.84375 56 30.609375 56 
z
" id="DejaVuSans-111"/>
     </defs>
     <g transform="translate(81.294688 267.254969)rotate(-90)scale(0.1 -0.1)">
      <use xlink:href="#DejaVuSans-101"/>
      <use x="61.507812" xlink:href="#DejaVuSans-120"/>
      <use x="120.6875" xlink:href="#DejaVuSans-112"/>
      <use x="184.164062" xlink:href="#DejaVuSans-111"/>
      <use x="245.345703" xlink:href="#DejaVuSans-110"/>
      <use x="308.724609" xlink:href="#DejaVuSans-101"/>
      <use x="370.248047" xlink:href="#DejaVuSans-110"/>
      <use x="433.626953" xlink:href="#DejaVuSans-116"/>
     </g>
    </g>
   </g>
   <g id="patch_26">
    <path d="M 116.64 429.336 
L 116.64 57.888 
" style="fill:none;stroke:#000000;stroke-linecap:square;stroke-linejoin:miter;stroke-width:0.8;"/>
   </g>
   <g id="patch_27">
    <path d="M 839.808 429.336 
L 839.808 57.888 
" style="fill:none;stroke:#000000;stroke-linecap:square;stroke-linejoin:miter;stroke-width:0.8;"/>
   </g>
   <g id="patch_28">
    <path d="M 116.64 429.336 
L 839.808 429.336 
" style="fill:none;stroke:#000000;stroke-linecap:square;stroke-linejoin:miter;stroke-width:0.8;"/>
   </g>
   <g id="patch_29">
    <path d="M 116.64 57.888 
L 839.808 57.888 
" style="fill:none;stroke:#000000;stroke-linecap:square;stroke-linejoin:miter;stroke-width:0.8;"/>
   </g>
   <g id="text_17">
    <!-- 2020-03-17 -->
    <defs>
     <path d="M 4.890625 31.390625 
L 31.203125 31.390625 
L 31.203125 23.390625 
L 4.890625 23.390625 
z
" id="DejaVuSans-45"/>
     <path d="M 8.203125 72.90625 
L 55.078125 72.90625 
L 55.078125 68.703125 
L 28.609375 0 
L 18.3125 0 
L 43.21875 64.59375 
L 8.203125 64.59375 
z
" id="DejaVuSans-55"/>
    </defs>
    <g transform="translate(135.755282 79.533534)scale(0.1 -0.1)">
     <use xlink:href="#DejaVuSans-50"/>
     <use x="63.623047" xlink:href="#DejaVuSans-48"/>
     <use x="127.246094" xlink:href="#DejaVuSans-50"/>
     <use x="190.869141" xlink:href="#DejaVuSans-48"/>
     <use x="254.492188" xlink:href="#DejaVuSans-45"/>
     <use x="290.576172" xlink:href="#DejaVuSans-48"/>
     <use x="354.199219" xlink:href="#DejaVuSans-51"/>
     <use x="417.822266" xlink:href="#DejaVuSans-45"/>
     <use x="453.90625" xlink:href="#DejaVuSans-49"/>
     <use x="517.529297" xlink:href="#DejaVuSans-55"/>
    </g>
   </g>
   <g id="text_18">
    <!-- 2020-03-18 -->
    <g transform="translate(155.711259 96.212649)scale(0.1 -0.1)">
     <use xlink:href="#DejaVuSans-50"/>
     <use x="63.623047" xlink:href="#DejaVuSans-48"/>
     <use x="127.246094" xlink:href="#DejaVuSans-50"/>
     <use x="190.869141" xlink:href="#DejaVuSans-48"/>
     <use x="254.492188" xlink:href="#DejaVuSans-45"/>
     <use x="290.576172" xlink:href="#DejaVuSans-48"/>
     <use x="354.199219" xlink:href="#DejaVuSans-51"/>
     <use x="417.822266" xlink:href="#DejaVuSans-45"/>
     <use x="453.90625" xlink:href="#DejaVuSans-49"/>
     <use x="517.529297" xlink:href="#DejaVuSans-56"/>
    </g>
   </g>
   <g id="text_19">
    <!-- 2020-03-19 -->
    <defs>
     <path d="M 10.984375 1.515625 
L 10.984375 10.5 
Q 14.703125 8.734375 18.5 7.8125 
Q 22.3125 6.890625 25.984375 6.890625 
Q 35.75 6.890625 40.890625 13.453125 
Q 46.046875 20.015625 46.78125 33.40625 
Q 43.953125 29.203125 39.59375 26.953125 
Q 35.25 24.703125 29.984375 24.703125 
Q 19.046875 24.703125 12.671875 31.3125 
Q 6.296875 37.9375 6.296875 49.421875 
Q 6.296875 60.640625 12.9375 67.421875 
Q 19.578125 74.21875 30.609375 74.21875 
Q 43.265625 74.21875 49.921875 64.515625 
Q 56.59375 54.828125 56.59375 36.375 
Q 56.59375 19.140625 48.40625 8.859375 
Q 40.234375 -1.421875 26.421875 -1.421875 
Q 22.703125 -1.421875 18.890625 -0.6875 
Q 15.09375 0.046875 10.984375 1.515625 
z
M 30.609375 32.421875 
Q 37.25 32.421875 41.125 36.953125 
Q 45.015625 41.5 45.015625 49.421875 
Q 45.015625 57.28125 41.125 61.84375 
Q 37.25 66.40625 30.609375 66.40625 
Q 23.96875 66.40625 20.09375 61.84375 
Q 16.21875 57.28125 16.21875 49.421875 
Q 16.21875 41.5 20.09375 36.953125 
Q 23.96875 32.421875 30.609375 32.421875 
z
" id="DejaVuSans-57"/>
    </defs>
    <g transform="translate(178.86866 114.277176)scale(0.1 -0.1)">
     <use xlink:href="#DejaVuSans-50"/>
     <use x="63.623047" xlink:href="#DejaVuSans-48"/>
     <use x="127.246094" xlink:href="#DejaVuSans-50"/>
     <use x="190.869141" xlink:href="#DejaVuSans-48"/>
     <use x="254.492188" xlink:href="#DejaVuSans-45"/>
     <use x="290.576172" xlink:href="#DejaVuSans-48"/>
     <use x="354.199219" xlink:href="#DejaVuSans-51"/>
     <use x="417.822266" xlink:href="#DejaVuSans-45"/>
     <use x="453.90625" xlink:href="#DejaVuSans-49"/>
     <use x="517.529297" xlink:href="#DejaVuSans-57"/>
    </g>
   </g>
   <g id="text_20">
    <!-- 2020-03-20 -->
    <g transform="translate(198.086381 128.331499)scale(0.1 -0.1)">
     <use xlink:href="#DejaVuSans-50"/>
     <use x="63.623047" xlink:href="#DejaVuSans-48"/>
     <use x="127.246094" xlink:href="#DejaVuSans-50"/>
     <use x="190.869141" xlink:href="#DejaVuSans-48"/>
     <use x="254.492188" xlink:href="#DejaVuSans-45"/>
     <use x="290.576172" xlink:href="#DejaVuSans-48"/>
     <use x="354.199219" xlink:href="#DejaVuSans-51"/>
     <use x="417.822266" xlink:href="#DejaVuSans-45"/>
     <use x="453.90625" xlink:href="#DejaVuSans-50"/>
     <use x="517.529297" xlink:href="#DejaVuSans-48"/>
    </g>
   </g>
   <g id="text_21">
    <!-- 2020-03-21 -->
    <g transform="translate(215.308771 140.185707)scale(0.1 -0.1)">
     <use xlink:href="#DejaVuSans-50"/>
     <use x="63.623047" xlink:href="#DejaVuSans-48"/>
     <use x="127.246094" xlink:href="#DejaVuSans-50"/>
     <use x="190.869141" xlink:href="#DejaVuSans-48"/>
     <use x="254.492188" xlink:href="#DejaVuSans-45"/>
     <use x="290.576172" xlink:href="#DejaVuSans-48"/>
     <use x="354.199219" xlink:href="#DejaVuSans-51"/>
     <use x="417.822266" xlink:href="#DejaVuSans-45"/>
     <use x="453.90625" xlink:href="#DejaVuSans-50"/>
     <use x="517.529297" xlink:href="#DejaVuSans-49"/>
    </g>
   </g>
   <g id="text_22">
    <!-- 2020-03-22 -->
    <g transform="translate(239.734211 156.063785)scale(0.1 -0.1)">
     <use xlink:href="#DejaVuSans-50"/>
     <use x="63.623047" xlink:href="#DejaVuSans-48"/>
     <use x="127.246094" xlink:href="#DejaVuSans-50"/>
     <use x="190.869141" xlink:href="#DejaVuSans-48"/>
     <use x="254.492188" xlink:href="#DejaVuSans-45"/>
     <use x="290.576172" xlink:href="#DejaVuSans-48"/>
     <use x="354.199219" xlink:href="#DejaVuSans-51"/>
     <use x="417.822266" xlink:href="#DejaVuSans-45"/>
     <use x="453.90625" xlink:href="#DejaVuSans-50"/>
     <use x="517.529297" xlink:href="#DejaVuSans-50"/>
    </g>
   </g>
   <g id="text_23">
    <!-- 2020-03-23 -->
    <g transform="translate(266.039176 172.263679)scale(0.1 -0.1)">
     <use xlink:href="#DejaVuSans-50"/>
     <use x="63.623047" xlink:href="#DejaVuSans-48"/>
     <use x="127.246094" xlink:href="#DejaVuSans-50"/>
     <use x="190.869141" xlink:href="#DejaVuSans-48"/>
     <use x="254.492188" xlink:href="#DejaVuSans-45"/>
     <use x="290.576172" xlink:href="#DejaVuSans-48"/>
     <use x="354.199219" xlink:href="#DejaVuSans-51"/>
     <use x="417.822266" xlink:href="#DejaVuSans-45"/>
     <use x="453.90625" xlink:href="#DejaVuSans-50"/>
     <use x="517.529297" xlink:href="#DejaVuSans-51"/>
    </g>
   </g>
   <g id="text_24">
    <!-- 2020-03-24 -->
    <g transform="translate(298.248716 191.108089)scale(0.1 -0.1)">
     <use xlink:href="#DejaVuSans-50"/>
     <use x="63.623047" xlink:href="#DejaVuSans-48"/>
     <use x="127.246094" xlink:href="#DejaVuSans-50"/>
     <use x="190.869141" xlink:href="#DejaVuSans-48"/>
     <use x="254.492188" xlink:href="#DejaVuSans-45"/>
     <use x="290.576172" xlink:href="#DejaVuSans-48"/>
     <use x="354.199219" xlink:href="#DejaVuSans-51"/>
     <use x="417.822266" xlink:href="#DejaVuSans-45"/>
     <use x="453.90625" xlink:href="#DejaVuSans-50"/>
     <use x="517.529297" xlink:href="#DejaVuSans-52"/>
    </g>
   </g>
   <g id="text_25">
    <!-- 2020-03-25 -->
    <defs>
     <path d="M 10.796875 72.90625 
L 49.515625 72.90625 
L 49.515625 64.59375 
L 19.828125 64.59375 
L 19.828125 46.734375 
Q 21.96875 47.46875 24.109375 47.828125 
Q 26.265625 48.1875 28.421875 48.1875 
Q 40.625 48.1875 47.75 41.5 
Q 54.890625 34.8125 54.890625 23.390625 
Q 54.890625 11.625 47.5625 5.09375 
Q 40.234375 -1.421875 26.90625 -1.421875 
Q 22.3125 -1.421875 17.546875 -0.640625 
Q 12.796875 0.140625 7.71875 1.703125 
L 7.71875 11.625 
Q 12.109375 9.234375 16.796875 8.0625 
Q 21.484375 6.890625 26.703125 6.890625 
Q 35.15625 6.890625 40.078125 11.328125 
Q 45.015625 15.765625 45.015625 23.390625 
Q 45.015625 31 40.078125 35.4375 
Q 35.15625 39.890625 26.703125 39.890625 
Q 22.75 39.890625 18.8125 39.015625 
Q 14.890625 38.140625 10.796875 36.28125 
z
" id="DejaVuSans-53"/>
    </defs>
    <g transform="translate(331.732372 209.765081)scale(0.1 -0.1)">
     <use xlink:href="#DejaVuSans-50"/>
     <use x="63.623047" xlink:href="#DejaVuSans-48"/>
     <use x="127.246094" xlink:href="#DejaVuSans-50"/>
     <use x="190.869141" xlink:href="#DejaVuSans-48"/>
     <use x="254.492188" xlink:href="#DejaVuSans-45"/>
     <use x="290.576172" xlink:href="#DejaVuSans-48"/>
     <use x="354.199219" xlink:href="#DejaVuSans-51"/>
     <use x="417.822266" xlink:href="#DejaVuSans-45"/>
     <use x="453.90625" xlink:href="#DejaVuSans-50"/>
     <use x="517.529297" xlink:href="#DejaVuSans-53"/>
    </g>
   </g>
   <g id="text_26">
    <!-- 2020-03-26 -->
    <g transform="translate(363.568652 226.697838)scale(0.1 -0.1)">
     <use xlink:href="#DejaVuSans-50"/>
     <use x="63.623047" xlink:href="#DejaVuSans-48"/>
     <use x="127.246094" xlink:href="#DejaVuSans-50"/>
     <use x="190.869141" xlink:href="#DejaVuSans-48"/>
     <use x="254.492188" xlink:href="#DejaVuSans-45"/>
     <use x="290.576172" xlink:href="#DejaVuSans-48"/>
     <use x="354.199219" xlink:href="#DejaVuSans-51"/>
     <use x="417.822266" xlink:href="#DejaVuSans-45"/>
     <use x="453.90625" xlink:href="#DejaVuSans-50"/>
     <use x="517.529297" xlink:href="#DejaVuSans-54"/>
    </g>
   </g>
   <g id="text_27">
    <!-- 2020-03-27 -->
    <g transform="translate(391.670289 240.994406)scale(0.1 -0.1)">
     <use xlink:href="#DejaVuSans-50"/>
     <use x="63.623047" xlink:href="#DejaVuSans-48"/>
     <use x="127.246094" xlink:href="#DejaVuSans-50"/>
     <use x="190.869141" xlink:href="#DejaVuSans-48"/>
     <use x="254.492188" xlink:href="#DejaVuSans-45"/>
     <use x="290.576172" xlink:href="#DejaVuSans-48"/>
     <use x="354.199219" xlink:href="#DejaVuSans-51"/>
     <use x="417.822266" xlink:href="#DejaVuSans-45"/>
     <use x="453.90625" xlink:href="#DejaVuSans-50"/>
     <use x="517.529297" xlink:href="#DejaVuSans-55"/>
    </g>
   </g>
   <g id="text_28">
    <!-- 2020-03-28 -->
    <g transform="translate(421.672244 255.62178)scale(0.1 -0.1)">
     <use xlink:href="#DejaVuSans-50"/>
     <use x="63.623047" xlink:href="#DejaVuSans-48"/>
     <use x="127.246094" xlink:href="#DejaVuSans-50"/>
     <use x="190.869141" xlink:href="#DejaVuSans-48"/>
     <use x="254.492188" xlink:href="#DejaVuSans-45"/>
     <use x="290.576172" xlink:href="#DejaVuSans-48"/>
     <use x="354.199219" xlink:href="#DejaVuSans-51"/>
     <use x="417.822266" xlink:href="#DejaVuSans-45"/>
     <use x="453.90625" xlink:href="#DejaVuSans-50"/>
     <use x="517.529297" xlink:href="#DejaVuSans-56"/>
    </g>
   </g>
   <g id="text_29">
    <!-- 2020-03-29 -->
    <g transform="translate(450.674513 269.19616)scale(0.1 -0.1)">
     <use xlink:href="#DejaVuSans-50"/>
     <use x="63.623047" xlink:href="#DejaVuSans-48"/>
     <use x="127.246094" xlink:href="#DejaVuSans-50"/>
     <use x="190.869141" xlink:href="#DejaVuSans-48"/>
     <use x="254.492188" xlink:href="#DejaVuSans-45"/>
     <use x="290.576172" xlink:href="#DejaVuSans-48"/>
     <use x="354.199219" xlink:href="#DejaVuSans-51"/>
     <use x="417.822266" xlink:href="#DejaVuSans-45"/>
     <use x="453.90625" xlink:href="#DejaVuSans-50"/>
     <use x="517.529297" xlink:href="#DejaVuSans-57"/>
    </g>
   </g>
   <g id="text_30">
    <!-- 2020-03-30 -->
    <g transform="translate(482.423347 283.484523)scale(0.1 -0.1)">
     <use xlink:href="#DejaVuSans-50"/>
     <use x="63.623047" xlink:href="#DejaVuSans-48"/>
     <use x="127.246094" xlink:href="#DejaVuSans-50"/>
     <use x="190.869141" xlink:href="#DejaVuSans-48"/>
     <use x="254.492188" xlink:href="#DejaVuSans-45"/>
     <use x="290.576172" xlink:href="#DejaVuSans-48"/>
     <use x="354.199219" xlink:href="#DejaVuSans-51"/>
     <use x="417.822266" xlink:href="#DejaVuSans-45"/>
     <use x="453.90625" xlink:href="#DejaVuSans-51"/>
     <use x="517.529297" xlink:href="#DejaVuSans-48"/>
    </g>
   </g>
   <g id="text_31">
    <!-- 2020-03-31 -->
    <g transform="translate(516.212072 298.127726)scale(0.1 -0.1)">
     <use xlink:href="#DejaVuSans-50"/>
     <use x="63.623047" xlink:href="#DejaVuSans-48"/>
     <use x="127.246094" xlink:href="#DejaVuSans-50"/>
     <use x="190.869141" xlink:href="#DejaVuSans-48"/>
     <use x="254.492188" xlink:href="#DejaVuSans-45"/>
     <use x="290.576172" xlink:href="#DejaVuSans-48"/>
     <use x="354.199219" xlink:href="#DejaVuSans-51"/>
     <use x="417.822266" xlink:href="#DejaVuSans-45"/>
     <use x="453.90625" xlink:href="#DejaVuSans-51"/>
     <use x="517.529297" xlink:href="#DejaVuSans-49"/>
    </g>
   </g>
   <g id="text_32">
    <!-- 2020-04-01 -->
    <g transform="translate(550.040886 312.26471)scale(0.1 -0.1)">
     <use xlink:href="#DejaVuSans-50"/>
     <use x="63.623047" xlink:href="#DejaVuSans-48"/>
     <use x="127.246094" xlink:href="#DejaVuSans-50"/>
     <use x="190.869141" xlink:href="#DejaVuSans-48"/>
     <use x="254.492188" xlink:href="#DejaVuSans-45"/>
     <use x="290.576172" xlink:href="#DejaVuSans-48"/>
     <use x="354.199219" xlink:href="#DejaVuSans-52"/>
     <use x="417.822266" xlink:href="#DejaVuSans-45"/>
     <use x="453.90625" xlink:href="#DejaVuSans-48"/>
     <use x="517.529297" xlink:href="#DejaVuSans-49"/>
    </g>
   </g>
   <g id="text_33">
    <!-- 2020-04-02 -->
    <g transform="translate(584.257988 326.070882)scale(0.1 -0.1)">
     <use xlink:href="#DejaVuSans-50"/>
     <use x="63.623047" xlink:href="#DejaVuSans-48"/>
     <use x="127.246094" xlink:href="#DejaVuSans-50"/>
     <use x="190.869141" xlink:href="#DejaVuSans-48"/>
     <use x="254.492188" xlink:href="#DejaVuSans-45"/>
     <use x="290.576172" xlink:href="#DejaVuSans-48"/>
     <use x="354.199219" xlink:href="#DejaVuSans-52"/>
     <use x="417.822266" xlink:href="#DejaVuSans-45"/>
     <use x="453.90625" xlink:href="#DejaVuSans-48"/>
     <use x="517.529297" xlink:href="#DejaVuSans-50"/>
    </g>
   </g>
   <g id="text_34">
    <!-- 2020-04-03 -->
    <g transform="translate(618.924806 339.592254)scale(0.1 -0.1)">
     <use xlink:href="#DejaVuSans-50"/>
     <use x="63.623047" xlink:href="#DejaVuSans-48"/>
     <use x="127.246094" xlink:href="#DejaVuSans-50"/>
     <use x="190.869141" xlink:href="#DejaVuSans-48"/>
     <use x="254.492188" xlink:href="#DejaVuSans-45"/>
     <use x="290.576172" xlink:href="#DejaVuSans-48"/>
     <use x="354.199219" xlink:href="#DejaVuSans-52"/>
     <use x="417.822266" xlink:href="#DejaVuSans-45"/>
     <use x="453.90625" xlink:href="#DejaVuSans-48"/>
     <use x="517.529297" xlink:href="#DejaVuSans-51"/>
    </g>
   </g>
   <g id="text_35">
    <!-- 2020-04-04 -->
    <g transform="translate(653.428842 352.616009)scale(0.1 -0.1)">
     <use xlink:href="#DejaVuSans-50"/>
     <use x="63.623047" xlink:href="#DejaVuSans-48"/>
     <use x="127.246094" xlink:href="#DejaVuSans-50"/>
     <use x="190.869141" xlink:href="#DejaVuSans-48"/>
     <use x="254.492188" xlink:href="#DejaVuSans-45"/>
     <use x="290.576172" xlink:href="#DejaVuSans-48"/>
     <use x="354.199219" xlink:href="#DejaVuSans-52"/>
     <use x="417.822266" xlink:href="#DejaVuSans-45"/>
     <use x="453.90625" xlink:href="#DejaVuSans-48"/>
     <use x="517.529297" xlink:href="#DejaVuSans-52"/>
    </g>
   </g>
   <g id="text_36">
    <!-- 2020-04-05 -->
    <g transform="translate(688.200802 365.330742)scale(0.1 -0.1)">
     <use xlink:href="#DejaVuSans-50"/>
     <use x="63.623047" xlink:href="#DejaVuSans-48"/>
     <use x="127.246094" xlink:href="#DejaVuSans-50"/>
     <use x="190.869141" xlink:href="#DejaVuSans-48"/>
     <use x="254.492188" xlink:href="#DejaVuSans-45"/>
     <use x="290.576172" xlink:href="#DejaVuSans-48"/>
     <use x="354.199219" xlink:href="#DejaVuSans-52"/>
     <use x="417.822266" xlink:href="#DejaVuSans-45"/>
     <use x="453.90625" xlink:href="#DejaVuSans-48"/>
     <use x="517.529297" xlink:href="#DejaVuSans-53"/>
    </g>
   </g>
   <g id="text_37">
    <!-- 2020-04-06 -->
    <g transform="translate(724.315445 378.136268)scale(0.1 -0.1)">
     <use xlink:href="#DejaVuSans-50"/>
     <use x="63.623047" xlink:href="#DejaVuSans-48"/>
     <use x="127.246094" xlink:href="#DejaVuSans-50"/>
     <use x="190.869141" xlink:href="#DejaVuSans-48"/>
     <use x="254.492188" xlink:href="#DejaVuSans-45"/>
     <use x="290.576172" xlink:href="#DejaVuSans-48"/>
     <use x="354.199219" xlink:href="#DejaVuSans-52"/>
     <use x="417.822266" xlink:href="#DejaVuSans-45"/>
     <use x="453.90625" xlink:href="#DejaVuSans-48"/>
     <use x="517.529297" xlink:href="#DejaVuSans-54"/>
    </g>
   </g>
   <g id="text_38">
    <!-- 2020-04-07 -->
    <g transform="translate(760.6249 390.632206)scale(0.1 -0.1)">
     <use xlink:href="#DejaVuSans-50"/>
     <use x="63.623047" xlink:href="#DejaVuSans-48"/>
     <use x="127.246094" xlink:href="#DejaVuSans-50"/>
     <use x="190.869141" xlink:href="#DejaVuSans-48"/>
     <use x="254.492188" xlink:href="#DejaVuSans-45"/>
     <use x="290.576172" xlink:href="#DejaVuSans-48"/>
     <use x="354.199219" xlink:href="#DejaVuSans-52"/>
     <use x="417.822266" xlink:href="#DejaVuSans-45"/>
     <use x="453.90625" xlink:href="#DejaVuSans-48"/>
     <use x="517.529297" xlink:href="#DejaVuSans-55"/>
    </g>
   </g>
   <g id="text_39">
    <!-- 2020-04-08 -->
    <g transform="translate(797.261083 402.880348)scale(0.1 -0.1)">
     <use xlink:href="#DejaVuSans-50"/>
     <use x="63.623047" xlink:href="#DejaVuSans-48"/>
     <use x="127.246094" xlink:href="#DejaVuSans-50"/>
     <use x="190.869141" xlink:href="#DejaVuSans-48"/>
     <use x="254.492188" xlink:href="#DejaVuSans-45"/>
     <use x="290.576172" xlink:href="#DejaVuSans-48"/>
     <use x="354.199219" xlink:href="#DejaVuSans-52"/>
     <use x="417.822266" xlink:href="#DejaVuSans-45"/>
     <use x="453.90625" xlink:href="#DejaVuSans-48"/>
     <use x="517.529297" xlink:href="#DejaVuSans-56"/>
    </g>
   </g>
   <g id="text_40">
    <!-- https://github.com/PavelDusek/COVID-19 -->
    <defs>
     <path d="M 54.890625 33.015625 
L 54.890625 0 
L 45.90625 0 
L 45.90625 32.71875 
Q 45.90625 40.484375 42.875 44.328125 
Q 39.84375 48.1875 33.796875 48.1875 
Q 26.515625 48.1875 22.3125 43.546875 
Q 18.109375 38.921875 18.109375 30.90625 
L 18.109375 0 
L 9.078125 0 
L 9.078125 75.984375 
L 18.109375 75.984375 
L 18.109375 46.1875 
Q 21.34375 51.125 25.703125 53.5625 
Q 30.078125 56 35.796875 56 
Q 45.21875 56 50.046875 50.171875 
Q 54.890625 44.34375 54.890625 33.015625 
z
" id="DejaVuSans-104"/>
     <path d="M 44.28125 53.078125 
L 44.28125 44.578125 
Q 40.484375 46.53125 36.375 47.5 
Q 32.28125 48.484375 27.875 48.484375 
Q 21.1875 48.484375 17.84375 46.4375 
Q 14.5 44.390625 14.5 40.28125 
Q 14.5 37.15625 16.890625 35.375 
Q 19.28125 33.59375 26.515625 31.984375 
L 29.59375 31.296875 
Q 39.15625 29.25 43.1875 25.515625 
Q 47.21875 21.78125 47.21875 15.09375 
Q 47.21875 7.46875 41.1875 3.015625 
Q 35.15625 -1.421875 24.609375 -1.421875 
Q 20.21875 -1.421875 15.453125 -0.5625 
Q 10.6875 0.296875 5.421875 2 
L 5.421875 11.28125 
Q 10.40625 8.6875 15.234375 7.390625 
Q 20.0625 6.109375 24.8125 6.109375 
Q 31.15625 6.109375 34.5625 8.28125 
Q 37.984375 10.453125 37.984375 14.40625 
Q 37.984375 18.0625 35.515625 20.015625 
Q 33.0625 21.96875 24.703125 23.78125 
L 21.578125 24.515625 
Q 13.234375 26.265625 9.515625 29.90625 
Q 5.8125 33.546875 5.8125 39.890625 
Q 5.8125 47.609375 11.28125 51.796875 
Q 16.75 56 26.8125 56 
Q 31.78125 56 36.171875 55.265625 
Q 40.578125 54.546875 44.28125 53.078125 
z
" id="DejaVuSans-115"/>
     <path d="M 11.71875 12.40625 
L 22.015625 12.40625 
L 22.015625 0 
L 11.71875 0 
z
M 11.71875 51.703125 
L 22.015625 51.703125 
L 22.015625 39.3125 
L 11.71875 39.3125 
z
" id="DejaVuSans-58"/>
     <path d="M 25.390625 72.90625 
L 33.6875 72.90625 
L 8.296875 -9.28125 
L 0 -9.28125 
z
" id="DejaVuSans-47"/>
     <path d="M 45.40625 27.984375 
Q 45.40625 37.75 41.375 43.109375 
Q 37.359375 48.484375 30.078125 48.484375 
Q 22.859375 48.484375 18.828125 43.109375 
Q 14.796875 37.75 14.796875 27.984375 
Q 14.796875 18.265625 18.828125 12.890625 
Q 22.859375 7.515625 30.078125 7.515625 
Q 37.359375 7.515625 41.375 12.890625 
Q 45.40625 18.265625 45.40625 27.984375 
z
M 54.390625 6.78125 
Q 54.390625 -7.171875 48.1875 -13.984375 
Q 42 -20.796875 29.203125 -20.796875 
Q 24.46875 -20.796875 20.265625 -20.09375 
Q 16.0625 -19.390625 12.109375 -17.921875 
L 12.109375 -9.1875 
Q 16.0625 -11.328125 19.921875 -12.34375 
Q 23.78125 -13.375 27.78125 -13.375 
Q 36.625 -13.375 41.015625 -8.765625 
Q 45.40625 -4.15625 45.40625 5.171875 
L 45.40625 9.625 
Q 42.625 4.78125 38.28125 2.390625 
Q 33.9375 0 27.875 0 
Q 17.828125 0 11.671875 7.65625 
Q 5.515625 15.328125 5.515625 27.984375 
Q 5.515625 40.671875 11.671875 48.328125 
Q 17.828125 56 27.875 56 
Q 33.9375 56 38.28125 53.609375 
Q 42.625 51.21875 45.40625 46.390625 
L 45.40625 54.6875 
L 54.390625 54.6875 
z
" id="DejaVuSans-103"/>
     <path d="M 8.5 21.578125 
L 8.5 54.6875 
L 17.484375 54.6875 
L 17.484375 21.921875 
Q 17.484375 14.15625 20.5 10.265625 
Q 23.53125 6.390625 29.59375 6.390625 
Q 36.859375 6.390625 41.078125 11.03125 
Q 45.3125 15.671875 45.3125 23.6875 
L 45.3125 54.6875 
L 54.296875 54.6875 
L 54.296875 0 
L 45.3125 0 
L 45.3125 8.40625 
Q 42.046875 3.421875 37.71875 1 
Q 33.40625 -1.421875 27.6875 -1.421875 
Q 18.265625 -1.421875 13.375 4.4375 
Q 8.5 10.296875 8.5 21.578125 
z
M 31.109375 56 
z
" id="DejaVuSans-117"/>
     <path d="M 48.6875 27.296875 
Q 48.6875 37.203125 44.609375 42.84375 
Q 40.53125 48.484375 33.40625 48.484375 
Q 26.265625 48.484375 22.1875 42.84375 
Q 18.109375 37.203125 18.109375 27.296875 
Q 18.109375 17.390625 22.1875 11.75 
Q 26.265625 6.109375 33.40625 6.109375 
Q 40.53125 6.109375 44.609375 11.75 
Q 48.6875 17.390625 48.6875 27.296875 
z
M 18.109375 46.390625 
Q 20.953125 51.265625 25.265625 53.625 
Q 29.59375 56 35.59375 56 
Q 45.5625 56 51.78125 48.09375 
Q 58.015625 40.1875 58.015625 27.296875 
Q 58.015625 14.40625 51.78125 6.484375 
Q 45.5625 -1.421875 35.59375 -1.421875 
Q 29.59375 -1.421875 25.265625 0.953125 
Q 20.953125 3.328125 18.109375 8.203125 
L 18.109375 0 
L 9.078125 0 
L 9.078125 75.984375 
L 18.109375 75.984375 
z
" id="DejaVuSans-98"/>
     <path d="M 52 44.1875 
Q 55.375 50.25 60.0625 53.125 
Q 64.75 56 71.09375 56 
Q 79.640625 56 84.28125 50.015625 
Q 88.921875 44.046875 88.921875 33.015625 
L 88.921875 0 
L 79.890625 0 
L 79.890625 32.71875 
Q 79.890625 40.578125 77.09375 44.375 
Q 74.3125 48.1875 68.609375 48.1875 
Q 61.625 48.1875 57.5625 43.546875 
Q 53.515625 38.921875 53.515625 30.90625 
L 53.515625 0 
L 44.484375 0 
L 44.484375 32.71875 
Q 44.484375 40.625 41.703125 44.40625 
Q 38.921875 48.1875 33.109375 48.1875 
Q 26.21875 48.1875 22.15625 43.53125 
Q 18.109375 38.875 18.109375 30.90625 
L 18.109375 0 
L 9.078125 0 
L 9.078125 54.6875 
L 18.109375 54.6875 
L 18.109375 46.1875 
Q 21.1875 51.21875 25.484375 53.609375 
Q 29.78125 56 35.6875 56 
Q 41.65625 56 45.828125 52.96875 
Q 50 49.953125 52 44.1875 
z
" id="DejaVuSans-109"/>
     <path d="M 19.671875 64.796875 
L 19.671875 37.40625 
L 32.078125 37.40625 
Q 38.96875 37.40625 42.71875 40.96875 
Q 46.484375 44.53125 46.484375 51.125 
Q 46.484375 57.671875 42.71875 61.234375 
Q 38.96875 64.796875 32.078125 64.796875 
z
M 9.8125 72.90625 
L 32.078125 72.90625 
Q 44.34375 72.90625 50.609375 67.359375 
Q 56.890625 61.8125 56.890625 51.125 
Q 56.890625 40.328125 50.609375 34.8125 
Q 44.34375 29.296875 32.078125 29.296875 
L 19.671875 29.296875 
L 19.671875 0 
L 9.8125 0 
z
" id="DejaVuSans-80"/>
     <path d="M 34.28125 27.484375 
Q 23.390625 27.484375 19.1875 25 
Q 14.984375 22.515625 14.984375 16.5 
Q 14.984375 11.71875 18.140625 8.90625 
Q 21.296875 6.109375 26.703125 6.109375 
Q 34.1875 6.109375 38.703125 11.40625 
Q 43.21875 16.703125 43.21875 25.484375 
L 43.21875 27.484375 
z
M 52.203125 31.203125 
L 52.203125 0 
L 43.21875 0 
L 43.21875 8.296875 
Q 40.140625 3.328125 35.546875 0.953125 
Q 30.953125 -1.421875 24.3125 -1.421875 
Q 15.921875 -1.421875 10.953125 3.296875 
Q 6 8.015625 6 15.921875 
Q 6 25.140625 12.171875 29.828125 
Q 18.359375 34.515625 30.609375 34.515625 
L 43.21875 34.515625 
L 43.21875 35.40625 
Q 43.21875 41.609375 39.140625 45 
Q 35.0625 48.390625 27.6875 48.390625 
Q 23 48.390625 18.546875 47.265625 
Q 14.109375 46.140625 10.015625 43.890625 
L 10.015625 52.203125 
Q 14.9375 54.109375 19.578125 55.046875 
Q 24.21875 56 28.609375 56 
Q 40.484375 56 46.34375 49.84375 
Q 52.203125 43.703125 52.203125 31.203125 
z
" id="DejaVuSans-97"/>
     <path d="M 2.984375 54.6875 
L 12.5 54.6875 
L 29.59375 8.796875 
L 46.6875 54.6875 
L 56.203125 54.6875 
L 35.6875 0 
L 23.484375 0 
z
" id="DejaVuSans-118"/>
     <path d="M 9.421875 75.984375 
L 18.40625 75.984375 
L 18.40625 0 
L 9.421875 0 
z
" id="DejaVuSans-108"/>
     <path d="M 19.671875 64.796875 
L 19.671875 8.109375 
L 31.59375 8.109375 
Q 46.6875 8.109375 53.6875 14.9375 
Q 60.6875 21.78125 60.6875 36.53125 
Q 60.6875 51.171875 53.6875 57.984375 
Q 46.6875 64.796875 31.59375 64.796875 
z
M 9.8125 72.90625 
L 30.078125 72.90625 
Q 51.265625 72.90625 61.171875 64.09375 
Q 71.09375 55.28125 71.09375 36.53125 
Q 71.09375 17.671875 61.125 8.828125 
Q 51.171875 0 30.078125 0 
L 9.8125 0 
z
" id="DejaVuSans-68"/>
     <path d="M 9.078125 75.984375 
L 18.109375 75.984375 
L 18.109375 31.109375 
L 44.921875 54.6875 
L 56.390625 54.6875 
L 27.390625 29.109375 
L 57.625 0 
L 45.90625 0 
L 18.109375 26.703125 
L 18.109375 0 
L 9.078125 0 
z
" id="DejaVuSans-107"/>
     <path d="M 64.40625 67.28125 
L 64.40625 56.890625 
Q 59.421875 61.53125 53.78125 63.8125 
Q 48.140625 66.109375 41.796875 66.109375 
Q 29.296875 66.109375 22.65625 58.46875 
Q 16.015625 50.828125 16.015625 36.375 
Q 16.015625 21.96875 22.65625 14.328125 
Q 29.296875 6.6875 41.796875 6.6875 
Q 48.140625 6.6875 53.78125 8.984375 
Q 59.421875 11.28125 64.40625 15.921875 
L 64.40625 5.609375 
Q 59.234375 2.09375 53.4375 0.328125 
Q 47.65625 -1.421875 41.21875 -1.421875 
Q 24.65625 -1.421875 15.125 8.703125 
Q 5.609375 18.84375 5.609375 36.375 
Q 5.609375 53.953125 15.125 64.078125 
Q 24.65625 74.21875 41.21875 74.21875 
Q 47.75 74.21875 53.53125 72.484375 
Q 59.328125 70.75 64.40625 67.28125 
z
" id="DejaVuSans-67"/>
     <path d="M 39.40625 66.21875 
Q 28.65625 66.21875 22.328125 58.203125 
Q 16.015625 50.203125 16.015625 36.375 
Q 16.015625 22.609375 22.328125 14.59375 
Q 28.65625 6.59375 39.40625 6.59375 
Q 50.140625 6.59375 56.421875 14.59375 
Q 62.703125 22.609375 62.703125 36.375 
Q 62.703125 50.203125 56.421875 58.203125 
Q 50.140625 66.21875 39.40625 66.21875 
z
M 39.40625 74.21875 
Q 54.734375 74.21875 63.90625 63.9375 
Q 73.09375 53.65625 73.09375 36.375 
Q 73.09375 19.140625 63.90625 8.859375 
Q 54.734375 -1.421875 39.40625 -1.421875 
Q 24.03125 -1.421875 14.8125 8.828125 
Q 5.609375 19.09375 5.609375 36.375 
Q 5.609375 53.65625 14.8125 63.9375 
Q 24.03125 74.21875 39.40625 74.21875 
z
" id="DejaVuSans-79"/>
     <path d="M 28.609375 0 
L 0.78125 72.90625 
L 11.078125 72.90625 
L 34.1875 11.53125 
L 57.328125 72.90625 
L 67.578125 72.90625 
L 39.796875 0 
z
" id="DejaVuSans-86"/>
     <path d="M 9.8125 72.90625 
L 19.671875 72.90625 
L 19.671875 0 
L 9.8125 0 
z
" id="DejaVuSans-73"/>
    </defs>
    <g transform="translate(354.591188 25.01325)scale(0.12 -0.12)">
     <use xlink:href="#DejaVuSans-104"/>
     <use x="63.378906" xlink:href="#DejaVuSans-116"/>
     <use x="102.587891" xlink:href="#DejaVuSans-116"/>
     <use x="141.796875" xlink:href="#DejaVuSans-112"/>
     <use x="205.273438" xlink:href="#DejaVuSans-115"/>
     <use x="257.373047" xlink:href="#DejaVuSans-58"/>
     <use x="291.064453" xlink:href="#DejaVuSans-47"/>
     <use x="324.755859" xlink:href="#DejaVuSans-47"/>
     <use x="358.447266" xlink:href="#DejaVuSans-103"/>
     <use x="421.923828" xlink:href="#DejaVuSans-105"/>
     <use x="449.707031" xlink:href="#DejaVuSans-116"/>
     <use x="488.916016" xlink:href="#DejaVuSans-104"/>
     <use x="552.294922" xlink:href="#DejaVuSans-117"/>
     <use x="615.673828" xlink:href="#DejaVuSans-98"/>
     <use x="679.150391" xlink:href="#DejaVuSans-46"/>
     <use x="710.9375" xlink:href="#DejaVuSans-99"/>
     <use x="765.917969" xlink:href="#DejaVuSans-111"/>
     <use x="827.099609" xlink:href="#DejaVuSans-109"/>
     <use x="924.511719" xlink:href="#DejaVuSans-47"/>
     <use x="958.203125" xlink:href="#DejaVuSans-80"/>
     <use x="1018.443359" xlink:href="#DejaVuSans-97"/>
     <use x="1079.722656" xlink:href="#DejaVuSans-118"/>
     <use x="1138.902344" xlink:href="#DejaVuSans-101"/>
     <use x="1200.425781" xlink:href="#DejaVuSans-108"/>
     <use x="1228.208984" xlink:href="#DejaVuSans-68"/>
     <use x="1305.210938" xlink:href="#DejaVuSans-117"/>
     <use x="1368.589844" xlink:href="#DejaVuSans-115"/>
     <use x="1420.689453" xlink:href="#DejaVuSans-101"/>
     <use x="1482.212891" xlink:href="#DejaVuSans-107"/>
     <use x="1540.123047" xlink:href="#DejaVuSans-47"/>
     <use x="1573.814453" xlink:href="#DejaVuSans-67"/>
     <use x="1643.638672" xlink:href="#DejaVuSans-79"/>
     <use x="1722.333984" xlink:href="#DejaVuSans-86"/>
     <use x="1790.742188" xlink:href="#DejaVuSans-73"/>
     <use x="1820.234375" xlink:href="#DejaVuSans-68"/>
     <use x="1897.236328" xlink:href="#DejaVuSans-45"/>
     <use x="1933.320312" xlink:href="#DejaVuSans-49"/>
     <use x="1996.943359" xlink:href="#DejaVuSans-57"/>
    </g>
    <!-- COVID-19 in the Czech Republic -->
    <defs>
     <path id="DejaVuSans-32"/>
     <path d="M 5.515625 54.6875 
L 48.1875 54.6875 
L 48.1875 46.484375 
L 14.40625 7.171875 
L 48.1875 7.171875 
L 48.1875 0 
L 4.296875 0 
L 4.296875 8.203125 
L 38.09375 47.515625 
L 5.515625 47.515625 
z
" id="DejaVuSans-122"/>
     <path d="M 44.390625 34.1875 
Q 47.5625 33.109375 50.5625 29.59375 
Q 53.5625 26.078125 56.59375 19.921875 
L 66.609375 0 
L 56 0 
L 46.6875 18.703125 
Q 43.0625 26.03125 39.671875 28.421875 
Q 36.28125 30.8125 30.421875 30.8125 
L 19.671875 30.8125 
L 19.671875 0 
L 9.8125 0 
L 9.8125 72.90625 
L 32.078125 72.90625 
Q 44.578125 72.90625 50.734375 67.671875 
Q 56.890625 62.453125 56.890625 51.90625 
Q 56.890625 45.015625 53.6875 40.46875 
Q 50.484375 35.9375 44.390625 34.1875 
z
M 19.671875 64.796875 
L 19.671875 38.921875 
L 32.078125 38.921875 
Q 39.203125 38.921875 42.84375 42.21875 
Q 46.484375 45.515625 46.484375 51.90625 
Q 46.484375 58.296875 42.84375 61.546875 
Q 39.203125 64.796875 32.078125 64.796875 
z
" id="DejaVuSans-82"/>
    </defs>
    <g transform="translate(382.031813 38.450625)scale(0.12 -0.12)">
     <use xlink:href="#DejaVuSans-67"/>
     <use x="69.824219" xlink:href="#DejaVuSans-79"/>
     <use x="148.519531" xlink:href="#DejaVuSans-86"/>
     <use x="216.927734" xlink:href="#DejaVuSans-73"/>
     <use x="246.419922" xlink:href="#DejaVuSans-68"/>
     <use x="323.421875" xlink:href="#DejaVuSans-45"/>
     <use x="359.505859" xlink:href="#DejaVuSans-49"/>
     <use x="423.128906" xlink:href="#DejaVuSans-57"/>
     <use x="486.751953" xlink:href="#DejaVuSans-32"/>
     <use x="518.539062" xlink:href="#DejaVuSans-105"/>
     <use x="546.322266" xlink:href="#DejaVuSans-110"/>
     <use x="609.701172" xlink:href="#DejaVuSans-32"/>
     <use x="641.488281" xlink:href="#DejaVuSans-116"/>
     <use x="680.697266" xlink:href="#DejaVuSans-104"/>
     <use x="744.076172" xlink:href="#DejaVuSans-101"/>
     <use x="805.599609" xlink:href="#DejaVuSans-32"/>
     <use x="837.386719" xlink:href="#DejaVuSans-67"/>
     <use x="907.210938" xlink:href="#DejaVuSans-122"/>
     <use x="959.701172" xlink:href="#DejaVuSans-101"/>
     <use x="1021.224609" xlink:href="#DejaVuSans-99"/>
     <use x="1076.205078" xlink:href="#DejaVuSans-104"/>
     <use x="1139.583984" xlink:href="#DejaVuSans-32"/>
     <use x="1171.371094" xlink:href="#DejaVuSans-82"/>
     <use x="1240.791016" xlink:href="#DejaVuSans-101"/>
     <use x="1302.314453" xlink:href="#DejaVuSans-112"/>
     <use x="1365.791016" xlink:href="#DejaVuSans-117"/>
     <use x="1429.169922" xlink:href="#DejaVuSans-98"/>
     <use x="1492.646484" xlink:href="#DejaVuSans-108"/>
     <use x="1520.429688" xlink:href="#DejaVuSans-105"/>
     <use x="1548.212891" xlink:href="#DejaVuSans-99"/>
    </g>
    <!-- Evolution of the Exponential Model Parameters by Date -->
    <defs>
     <path d="M 9.8125 72.90625 
L 55.90625 72.90625 
L 55.90625 64.59375 
L 19.671875 64.59375 
L 19.671875 43.015625 
L 54.390625 43.015625 
L 54.390625 34.71875 
L 19.671875 34.71875 
L 19.671875 8.296875 
L 56.78125 8.296875 
L 56.78125 0 
L 9.8125 0 
z
" id="DejaVuSans-69"/>
     <path d="M 37.109375 75.984375 
L 37.109375 68.5 
L 28.515625 68.5 
Q 23.6875 68.5 21.796875 66.546875 
Q 19.921875 64.59375 19.921875 59.515625 
L 19.921875 54.6875 
L 34.71875 54.6875 
L 34.71875 47.703125 
L 19.921875 47.703125 
L 19.921875 0 
L 10.890625 0 
L 10.890625 47.703125 
L 2.296875 47.703125 
L 2.296875 54.6875 
L 10.890625 54.6875 
L 10.890625 58.5 
Q 10.890625 67.625 15.140625 71.796875 
Q 19.390625 75.984375 28.609375 75.984375 
z
" id="DejaVuSans-102"/>
     <path d="M 9.8125 72.90625 
L 24.515625 72.90625 
L 43.109375 23.296875 
L 61.8125 72.90625 
L 76.515625 72.90625 
L 76.515625 0 
L 66.890625 0 
L 66.890625 64.015625 
L 48.09375 14.015625 
L 38.1875 14.015625 
L 19.390625 64.015625 
L 19.390625 0 
L 9.8125 0 
z
" id="DejaVuSans-77"/>
     <path d="M 45.40625 46.390625 
L 45.40625 75.984375 
L 54.390625 75.984375 
L 54.390625 0 
L 45.40625 0 
L 45.40625 8.203125 
Q 42.578125 3.328125 38.25 0.953125 
Q 33.9375 -1.421875 27.875 -1.421875 
Q 17.96875 -1.421875 11.734375 6.484375 
Q 5.515625 14.40625 5.515625 27.296875 
Q 5.515625 40.1875 11.734375 48.09375 
Q 17.96875 56 27.875 56 
Q 33.9375 56 38.25 53.625 
Q 42.578125 51.265625 45.40625 46.390625 
z
M 14.796875 27.296875 
Q 14.796875 17.390625 18.875 11.75 
Q 22.953125 6.109375 30.078125 6.109375 
Q 37.203125 6.109375 41.296875 11.75 
Q 45.40625 17.390625 45.40625 27.296875 
Q 45.40625 37.203125 41.296875 42.84375 
Q 37.203125 48.484375 30.078125 48.484375 
Q 22.953125 48.484375 18.875 42.84375 
Q 14.796875 37.203125 14.796875 27.296875 
z
" id="DejaVuSans-100"/>
     <path d="M 32.171875 -5.078125 
Q 28.375 -14.84375 24.75 -17.8125 
Q 21.140625 -20.796875 15.09375 -20.796875 
L 7.90625 -20.796875 
L 7.90625 -13.28125 
L 13.1875 -13.28125 
Q 16.890625 -13.28125 18.9375 -11.515625 
Q 21 -9.765625 23.484375 -3.21875 
L 25.09375 0.875 
L 2.984375 54.6875 
L 12.5 54.6875 
L 29.59375 11.921875 
L 46.6875 54.6875 
L 56.203125 54.6875 
z
" id="DejaVuSans-121"/>
    </defs>
    <g transform="translate(311.463375 51.888)scale(0.12 -0.12)">
     <use xlink:href="#DejaVuSans-69"/>
     <use x="63.183594" xlink:href="#DejaVuSans-118"/>
     <use x="122.363281" xlink:href="#DejaVuSans-111"/>
     <use x="183.544922" xlink:href="#DejaVuSans-108"/>
     <use x="211.328125" xlink:href="#DejaVuSans-117"/>
     <use x="274.707031" xlink:href="#DejaVuSans-116"/>
     <use x="313.916016" xlink:href="#DejaVuSans-105"/>
     <use x="341.699219" xlink:href="#DejaVuSans-111"/>
     <use x="402.880859" xlink:href="#DejaVuSans-110"/>
     <use x="466.259766" xlink:href="#DejaVuSans-32"/>
     <use x="498.046875" xlink:href="#DejaVuSans-111"/>
     <use x="559.228516" xlink:href="#DejaVuSans-102"/>
     <use x="594.433594" xlink:href="#DejaVuSans-32"/>
     <use x="626.220703" xlink:href="#DejaVuSans-116"/>
     <use x="665.429688" xlink:href="#DejaVuSans-104"/>
     <use x="728.808594" xlink:href="#DejaVuSans-101"/>
     <use x="790.332031" xlink:href="#DejaVuSans-32"/>
     <use x="822.119141" xlink:href="#DejaVuSans-69"/>
     <use x="885.302734" xlink:href="#DejaVuSans-120"/>
     <use x="944.482422" xlink:href="#DejaVuSans-112"/>
     <use x="1007.958984" xlink:href="#DejaVuSans-111"/>
     <use x="1069.140625" xlink:href="#DejaVuSans-110"/>
     <use x="1132.519531" xlink:href="#DejaVuSans-101"/>
     <use x="1194.042969" xlink:href="#DejaVuSans-110"/>
     <use x="1257.421875" xlink:href="#DejaVuSans-116"/>
     <use x="1296.630859" xlink:href="#DejaVuSans-105"/>
     <use x="1324.414062" xlink:href="#DejaVuSans-97"/>
     <use x="1385.693359" xlink:href="#DejaVuSans-108"/>
     <use x="1413.476562" xlink:href="#DejaVuSans-32"/>
     <use x="1445.263672" xlink:href="#DejaVuSans-77"/>
     <use x="1531.542969" xlink:href="#DejaVuSans-111"/>
     <use x="1592.724609" xlink:href="#DejaVuSans-100"/>
     <use x="1656.201172" xlink:href="#DejaVuSans-101"/>
     <use x="1717.724609" xlink:href="#DejaVuSans-108"/>
     <use x="1745.507812" xlink:href="#DejaVuSans-32"/>
     <use x="1777.294922" xlink:href="#DejaVuSans-80"/>
     <use x="1837.535156" xlink:href="#DejaVuSans-97"/>
     <use x="1898.814453" xlink:href="#DejaVuSans-114"/>
     <use x="1939.927734" xlink:href="#DejaVuSans-97"/>
     <use x="2001.207031" xlink:href="#DejaVuSans-109"/>
     <use x="2098.619141" xlink:href="#DejaVuSans-101"/>
     <use x="2160.142578" xlink:href="#DejaVuSans-116"/>
     <use x="2199.351562" xlink:href="#DejaVuSans-101"/>
     <use x="2260.875" xlink:href="#DejaVuSans-114"/>
     <use x="2301.988281" xlink:href="#DejaVuSans-115"/>
     <use x="2354.087891" xlink:href="#DejaVuSans-32"/>
     <use x="2385.875" xlink:href="#DejaVuSans-98"/>
     <use x="2449.351562" xlink:href="#DejaVuSans-121"/>
     <use x="2508.53125" xlink:href="#DejaVuSans-32"/>
     <use x="2540.318359" xlink:href="#DejaVuSans-68"/>
     <use x="2617.320312" xlink:href="#DejaVuSans-97"/>
     <use x="2678.599609" xlink:href="#DejaVuSans-116"/>
     <use x="2717.808594" xlink:href="#DejaVuSans-101"/>
    </g>
   </g>
   <g id="legend_1">
    <g id="patch_30">
     <path d="M 555.883 139.278625 
L 832.808 139.278625 
Q 834.808 139.278625 834.808 137.278625 
L 834.808 64.888 
Q 834.808 62.888 832.808 62.888 
L 555.883 62.888 
Q 553.883 62.888 553.883 64.888 
L 553.883 137.278625 
Q 553.883 139.278625 555.883 139.278625 
z
" style="fill:#ffffff;opacity:0.8;stroke:#cccccc;stroke-linejoin:miter;"/>
    </g>
    <g id="PathCollection_7">
     <defs>
      <path id="m5ab96b8241" style="stroke:#ffffff;stroke-width:1.5;"/>
     </defs>
     <g>
      <use style="fill:#ffffff;stroke:#ffffff;stroke-width:1.5;" x="567.883" xlink:href="#m5ab96b8241" y="71.861437"/>
     </g>
    </g>
    <g id="text_41">
     <!-- Exponential model fit (R2) [%] for last week data -->
     <defs>
      <path d="M 31 75.875 
Q 24.46875 64.65625 21.28125 53.65625 
Q 18.109375 42.671875 18.109375 31.390625 
Q 18.109375 20.125 21.3125 9.0625 
Q 24.515625 -2 31 -13.1875 
L 23.1875 -13.1875 
Q 15.875 -1.703125 12.234375 9.375 
Q 8.59375 20.453125 8.59375 31.390625 
Q 8.59375 42.28125 12.203125 53.3125 
Q 15.828125 64.359375 23.1875 75.875 
z
" id="DejaVuSans-40"/>
      <path d="M 8.015625 75.875 
L 15.828125 75.875 
Q 23.140625 64.359375 26.78125 53.3125 
Q 30.421875 42.28125 30.421875 31.390625 
Q 30.421875 20.453125 26.78125 9.375 
Q 23.140625 -1.703125 15.828125 -13.1875 
L 8.015625 -13.1875 
Q 14.5 -2 17.703125 9.0625 
Q 20.90625 20.125 20.90625 31.390625 
Q 20.90625 42.671875 17.703125 53.65625 
Q 14.5 64.65625 8.015625 75.875 
z
" id="DejaVuSans-41"/>
      <path d="M 8.59375 75.984375 
L 29.296875 75.984375 
L 29.296875 69 
L 17.578125 69 
L 17.578125 -6.203125 
L 29.296875 -6.203125 
L 29.296875 -13.1875 
L 8.59375 -13.1875 
z
" id="DejaVuSans-91"/>
      <path d="M 72.703125 32.078125 
Q 68.453125 32.078125 66.03125 28.46875 
Q 63.625 24.859375 63.625 18.40625 
Q 63.625 12.0625 66.03125 8.421875 
Q 68.453125 4.78125 72.703125 4.78125 
Q 76.859375 4.78125 79.265625 8.421875 
Q 81.6875 12.0625 81.6875 18.40625 
Q 81.6875 24.8125 79.265625 28.4375 
Q 76.859375 32.078125 72.703125 32.078125 
z
M 72.703125 38.28125 
Q 80.421875 38.28125 84.953125 32.90625 
Q 89.5 27.546875 89.5 18.40625 
Q 89.5 9.28125 84.9375 3.921875 
Q 80.375 -1.421875 72.703125 -1.421875 
Q 64.890625 -1.421875 60.34375 3.921875 
Q 55.8125 9.28125 55.8125 18.40625 
Q 55.8125 27.59375 60.375 32.9375 
Q 64.9375 38.28125 72.703125 38.28125 
z
M 22.3125 68.015625 
Q 18.109375 68.015625 15.6875 64.375 
Q 13.28125 60.75 13.28125 54.390625 
Q 13.28125 47.953125 15.671875 44.328125 
Q 18.0625 40.71875 22.3125 40.71875 
Q 26.5625 40.71875 28.96875 44.328125 
Q 31.390625 47.953125 31.390625 54.390625 
Q 31.390625 60.6875 28.953125 64.34375 
Q 26.515625 68.015625 22.3125 68.015625 
z
M 66.40625 74.21875 
L 74.21875 74.21875 
L 28.609375 -1.421875 
L 20.796875 -1.421875 
z
M 22.3125 74.21875 
Q 30.03125 74.21875 34.609375 68.875 
Q 39.203125 63.53125 39.203125 54.390625 
Q 39.203125 45.171875 34.640625 39.84375 
Q 30.078125 34.515625 22.3125 34.515625 
Q 14.546875 34.515625 10.03125 39.859375 
Q 5.515625 45.21875 5.515625 54.390625 
Q 5.515625 63.484375 10.046875 68.84375 
Q 14.59375 74.21875 22.3125 74.21875 
z
" id="DejaVuSans-37"/>
      <path d="M 30.421875 75.984375 
L 30.421875 -13.1875 
L 9.71875 -13.1875 
L 9.71875 -6.203125 
L 21.390625 -6.203125 
L 21.390625 69 
L 9.71875 69 
L 9.71875 75.984375 
z
" id="DejaVuSans-93"/>
      <path d="M 4.203125 54.6875 
L 13.1875 54.6875 
L 24.421875 12.015625 
L 35.59375 54.6875 
L 46.1875 54.6875 
L 57.421875 12.015625 
L 68.609375 54.6875 
L 77.59375 54.6875 
L 63.28125 0 
L 52.6875 0 
L 40.921875 44.828125 
L 29.109375 0 
L 18.5 0 
z
" id="DejaVuSans-119"/>
     </defs>
     <g transform="translate(585.883 74.486437)scale(0.1 -0.1)">
      <use xlink:href="#DejaVuSans-69"/>
      <use x="63.183594" xlink:href="#DejaVuSans-120"/>
      <use x="122.363281" xlink:href="#DejaVuSans-112"/>
      <use x="185.839844" xlink:href="#DejaVuSans-111"/>
      <use x="247.021484" xlink:href="#DejaVuSans-110"/>
      <use x="310.400391" xlink:href="#DejaVuSans-101"/>
      <use x="371.923828" xlink:href="#DejaVuSans-110"/>
      <use x="435.302734" xlink:href="#DejaVuSans-116"/>
      <use x="474.511719" xlink:href="#DejaVuSans-105"/>
      <use x="502.294922" xlink:href="#DejaVuSans-97"/>
      <use x="563.574219" xlink:href="#DejaVuSans-108"/>
      <use x="591.357422" xlink:href="#DejaVuSans-32"/>
      <use x="623.144531" xlink:href="#DejaVuSans-109"/>
      <use x="720.556641" xlink:href="#DejaVuSans-111"/>
      <use x="781.738281" xlink:href="#DejaVuSans-100"/>
      <use x="845.214844" xlink:href="#DejaVuSans-101"/>
      <use x="906.738281" xlink:href="#DejaVuSans-108"/>
      <use x="934.521484" xlink:href="#DejaVuSans-32"/>
      <use x="966.308594" xlink:href="#DejaVuSans-102"/>
      <use x="1001.513672" xlink:href="#DejaVuSans-105"/>
      <use x="1029.296875" xlink:href="#DejaVuSans-116"/>
      <use x="1068.505859" xlink:href="#DejaVuSans-32"/>
      <use x="1100.292969" xlink:href="#DejaVuSans-40"/>
      <use x="1139.306641" xlink:href="#DejaVuSans-82"/>
      <use x="1208.789062" xlink:href="#DejaVuSans-50"/>
      <use x="1272.412109" xlink:href="#DejaVuSans-41"/>
      <use x="1311.425781" xlink:href="#DejaVuSans-32"/>
      <use x="1343.212891" xlink:href="#DejaVuSans-91"/>
      <use x="1382.226562" xlink:href="#DejaVuSans-37"/>
      <use x="1477.246094" xlink:href="#DejaVuSans-93"/>
      <use x="1516.259766" xlink:href="#DejaVuSans-32"/>
      <use x="1548.046875" xlink:href="#DejaVuSans-102"/>
      <use x="1583.251953" xlink:href="#DejaVuSans-111"/>
      <use x="1644.433594" xlink:href="#DejaVuSans-114"/>
      <use x="1685.546875" xlink:href="#DejaVuSans-32"/>
      <use x="1717.333984" xlink:href="#DejaVuSans-108"/>
      <use x="1745.117188" xlink:href="#DejaVuSans-97"/>
      <use x="1806.396484" xlink:href="#DejaVuSans-115"/>
      <use x="1858.496094" xlink:href="#DejaVuSans-116"/>
      <use x="1897.705078" xlink:href="#DejaVuSans-32"/>
      <use x="1929.492188" xlink:href="#DejaVuSans-119"/>
      <use x="2011.279297" xlink:href="#DejaVuSans-101"/>
      <use x="2072.802734" xlink:href="#DejaVuSans-101"/>
      <use x="2134.326172" xlink:href="#DejaVuSans-107"/>
      <use x="2192.236328" xlink:href="#DejaVuSans-32"/>
      <use x="2224.023438" xlink:href="#DejaVuSans-100"/>
      <use x="2287.5" xlink:href="#DejaVuSans-97"/>
      <use x="2348.779297" xlink:href="#DejaVuSans-116"/>
      <use x="2387.988281" xlink:href="#DejaVuSans-97"/>
     </g>
    </g>
    <g id="PathCollection_8">
     <defs>
      <path d="M 0 2.12132 
C 0.562581 2.12132 1.102195 1.897805 1.5 1.5 
C 1.897805 1.102195 2.12132 0.562581 2.12132 0 
C 2.12132 -0.562581 1.897805 -1.102195 1.5 -1.5 
C 1.102195 -1.897805 0.562581 -2.12132 0 -2.12132 
C -0.562581 -2.12132 -1.102195 -1.897805 -1.5 -1.5 
C -1.897805 -1.102195 -2.12132 -0.562581 -2.12132 0 
C -2.12132 0.562581 -1.897805 1.102195 -1.5 1.5 
C -1.102195 1.897805 -0.562581 2.12132 0 2.12132 
z
" id="m2cd364ae13" style="stroke:#333333;"/>
     </defs>
     <g>
      <use style="fill:#333333;stroke:#333333;" x="567.883" xlink:href="#m2cd364ae13" y="86.539562"/>
     </g>
    </g>
    <g id="text_42">
     <!-- 92.5 -->
     <g transform="translate(585.883 89.164562)scale(0.1 -0.1)">
      <use xlink:href="#DejaVuSans-57"/>
      <use x="63.623047" xlink:href="#DejaVuSans-50"/>
      <use x="127.246094" xlink:href="#DejaVuSans-46"/>
      <use x="159.033203" xlink:href="#DejaVuSans-53"/>
     </g>
    </g>
    <g id="PathCollection_9">
     <defs>
      <path d="M 0 2.983443 
C 0.791218 2.983443 1.550137 2.669089 2.109613 2.109613 
C 2.669089 1.550137 2.983443 0.791218 2.983443 0 
C 2.983443 -0.791218 2.669089 -1.550137 2.109613 -2.109613 
C 1.550137 -2.669089 0.791218 -2.983443 0 -2.983443 
C -0.791218 -2.983443 -1.550137 -2.669089 -2.109613 -2.109613 
C -2.669089 -1.550137 -2.983443 -0.791218 -2.983443 0 
C -2.983443 0.791218 -2.669089 1.550137 -2.109613 2.109613 
C -1.550137 2.669089 -0.791218 2.983443 0 2.983443 
z
" id="m59f6ba4ce3" style="stroke:#333333;"/>
     </defs>
     <g>
      <use style="fill:#333333;stroke:#333333;" x="567.883" xlink:href="#m59f6ba4ce3" y="101.217687"/>
     </g>
    </g>
    <g id="text_43">
     <!-- 95.0 -->
     <g transform="translate(585.883 103.842687)scale(0.1 -0.1)">
      <use xlink:href="#DejaVuSans-57"/>
      <use x="63.623047" xlink:href="#DejaVuSans-53"/>
      <use x="127.246094" xlink:href="#DejaVuSans-46"/>
      <use x="159.033203" xlink:href="#DejaVuSans-48"/>
     </g>
    </g>
    <g id="PathCollection_10">
     <defs>
      <path d="M 0 3.804975 
C 1.009091 3.804975 1.976988 3.404059 2.690524 2.690524 
C 3.404059 1.976988 3.804975 1.009091 3.804975 0 
C 3.804975 -1.009091 3.404059 -1.976988 2.690524 -2.690524 
C 1.976988 -3.404059 1.009091 -3.804975 0 -3.804975 
C -1.009091 -3.804975 -1.976988 -3.404059 -2.690524 -2.690524 
C -3.404059 -1.976988 -3.804975 -1.009091 -3.804975 0 
C -3.804975 1.009091 -3.404059 1.976988 -2.690524 2.690524 
C -1.976988 3.404059 -1.009091 3.804975 0 3.804975 
z
" id="m98d86769d3" style="stroke:#333333;"/>
     </defs>
     <g>
      <use style="fill:#333333;stroke:#333333;" x="567.883" xlink:href="#m98d86769d3" y="115.895812"/>
     </g>
    </g>
    <g id="text_44">
     <!-- 97.5 -->
     <g transform="translate(585.883 118.520812)scale(0.1 -0.1)">
      <use xlink:href="#DejaVuSans-57"/>
      <use x="63.623047" xlink:href="#DejaVuSans-55"/>
      <use x="127.246094" xlink:href="#DejaVuSans-46"/>
      <use x="159.033203" xlink:href="#DejaVuSans-53"/>
     </g>
    </g>
    <g id="PathCollection_11">
     <defs>
      <path d="M 0 4.242641 
C 1.125161 4.242641 2.204391 3.795609 3 3 
C 3.795609 2.204391 4.242641 1.125161 4.242641 0 
C 4.242641 -1.125161 3.795609 -2.204391 3 -3 
C 2.204391 -3.795609 1.125161 -4.242641 0 -4.242641 
C -1.125161 -4.242641 -2.204391 -3.795609 -3 -3 
C -3.795609 -2.204391 -4.242641 -1.125161 -4.242641 0 
C -4.242641 1.125161 -3.795609 2.204391 -3 3 
C -2.204391 3.795609 -1.125161 4.242641 0 4.242641 
z
" id="mef89a613c7" style="stroke:#333333;"/>
     </defs>
     <g>
      <use style="fill:#333333;stroke:#333333;" x="567.883" xlink:href="#mef89a613c7" y="130.573937"/>
     </g>
    </g>
    <g id="text_45">
     <!-- 100.0 -->
     <g transform="translate(585.883 133.198937)scale(0.1 -0.1)">
      <use xlink:href="#DejaVuSans-49"/>
      <use x="63.623047" xlink:href="#DejaVuSans-48"/>
      <use x="127.246094" xlink:href="#DejaVuSans-48"/>
      <use x="190.869141" xlink:href="#DejaVuSans-46"/>
      <use x="222.65625" xlink:href="#DejaVuSans-48"/>
     </g>
    </g>
   </g>
  </g>
 </g>
 <defs>
  <clipPath id="p83c87394d5">
   <rect height="371.448" width="723.168" x="116.64" y="57.888"/>
  </clipPath>
 </defs>
</svg>
