<?xml version="1.0" encoding="utf-8" standalone="no"?>
<!DOCTYPE svg PUBLIC "-//W3C//DTD SVG 1.1//EN"
  "http://www.w3.org/Graphics/SVG/1.1/DTD/svg11.dtd">
<!-- Created with matplotlib (https://matplotlib.org/) -->
<svg height="482.4pt" version="1.1" viewBox="0 0 933.12 482.4" width="933.12pt" xmlns="http://www.w3.org/2000/svg" xmlns:xlink="http://www.w3.org/1999/xlink">
 <defs>
  <style type="text/css">
*{stroke-linecap:butt;stroke-linejoin:round;}
  </style>
 </defs>
 <g id="figure_1">
  <g id="patch_1">
   <path d="M 0 482.4 
L 933.12 482.4 
L 933.12 0 
L 0 0 
z
" style="fill:#ffffff;"/>
  </g>
  <g id="axes_1">
   <g id="patch_2">
    <path d="M 116.64 429.336 
L 839.808 429.336 
L 839.808 57.888 
L 116.64 57.888 
z
" style="fill:#ffffff;"/>
   </g>
   <g id="PathCollection_1">
    <path clip-path="url(#p990615585a)" d="M 141.193707 91.11455 
C 142.317263 91.11455 143.394952 90.668156 144.189426 89.873683 
C 144.983899 89.079209 145.430293 88.00152 145.430293 86.877964 
C 145.430293 85.754409 144.983899 84.67672 144.189426 83.882246 
C 143.394952 83.087772 142.317263 82.641379 141.193707 82.641379 
C 140.070152 82.641379 138.992463 83.087772 138.197989 83.882246 
C 137.403515 84.67672 136.957122 85.754409 136.957122 86.877964 
C 136.957122 88.00152 137.403515 89.079209 138.197989 89.873683 
C 138.992463 90.668156 140.070152 91.11455 141.193707 91.11455 
z
" style="fill:#1f77b4;stroke:#ffffff;stroke-width:0.75;"/>
    <path clip-path="url(#p990615585a)" d="M 443.575769 268.294337 
C 444.644091 268.294337 445.668802 267.869888 446.42422 267.11447 
C 447.179638 266.359052 447.604087 265.334342 447.604087 264.266019 
C 447.604087 263.197697 447.179638 262.172987 446.42422 261.417569 
C 445.668802 260.662151 444.644091 260.237702 443.575769 260.237702 
C 442.507446 260.237702 441.482736 260.662151 440.727318 261.417569 
C 439.9719 262.172987 439.547451 263.197697 439.547451 264.266019 
C 439.547451 265.334342 439.9719 266.359052 440.727318 267.11447 
C 441.482736 267.869888 442.507446 268.294337 443.575769 268.294337 
z
" style="fill:#1f77b4;stroke:#ffffff;stroke-width:0.75;"/>
    <path clip-path="url(#p990615585a)" d="M 520.698037 303.143889 
C 521.762481 303.143889 522.783472 302.720981 523.536148 301.968305 
C 524.288824 301.215629 524.711733 300.194638 524.711733 299.130193 
C 524.711733 298.065748 524.288824 297.044757 523.536148 296.292081 
C 522.783472 295.539405 521.762481 295.116497 520.698037 295.116497 
C 519.633592 295.116497 518.612601 295.539405 517.859925 296.292081 
C 517.107249 297.044757 516.68434 298.065748 516.68434 299.130193 
C 516.68434 300.194638 517.107249 301.215629 517.859925 301.968305 
C 518.612601 302.720981 519.633592 303.143889 520.698037 303.143889 
z
" style="fill:#1f77b4;stroke:#ffffff;stroke-width:0.75;"/>
    <path clip-path="url(#p990615585a)" d="M 480.875734 285.129573 
C 481.838643 285.129573 482.762244 284.747005 483.443124 284.066125 
C 484.124004 283.385245 484.506572 282.461644 484.506572 281.498734 
C 484.506572 280.535825 484.124004 279.612224 483.443124 278.931344 
C 482.762244 278.250464 481.838643 277.867896 480.875734 277.867896 
C 479.912824 277.867896 478.989223 278.250464 478.308343 278.931344 
C 477.627464 279.612224 477.244896 280.535825 477.244896 281.498734 
C 477.244896 282.461644 477.627464 283.385245 478.308343 284.066125 
C 478.989223 284.747005 479.912824 285.129573 480.875734 285.129573 
z
" style="fill:#1f77b4;stroke:#ffffff;stroke-width:0.75;"/>
    <path clip-path="url(#p990615585a)" d="M 279.207393 183.283636 
C 280.310129 183.283636 281.367849 182.845514 282.147601 182.065762 
C 282.927354 181.28601 283.365475 180.22829 283.365475 179.125554 
C 283.365475 178.022818 282.927354 176.965098 282.147601 176.185346 
C 281.367849 175.405594 280.310129 174.967472 279.207393 174.967472 
C 278.104657 174.967472 277.046938 175.405594 276.267185 176.185346 
C 275.487433 176.965098 275.049311 178.022818 275.049311 179.125554 
C 275.049311 180.22829 275.487433 181.28601 276.267185 182.065762 
C 277.046938 182.845514 278.104657 183.283636 279.207393 183.283636 
z
" style="fill:#1f77b4;stroke:#ffffff;stroke-width:0.75;"/>
    <path clip-path="url(#p990615585a)" d="M 401.318723 245.977032 
C 401.881304 245.977032 402.420919 245.753516 402.818723 245.355711 
C 403.216528 244.957907 403.440044 244.418292 403.440044 243.855711 
C 403.440044 243.293131 403.216528 242.753516 402.818723 242.355711 
C 402.420919 241.957907 401.881304 241.734391 401.318723 241.734391 
C 400.756143 241.734391 400.216528 241.957907 399.818723 242.355711 
C 399.420919 242.753516 399.197403 243.293131 399.197403 243.855711 
C 399.197403 244.418292 399.420919 244.957907 399.818723 245.355711 
C 400.216528 245.753516 400.756143 245.977032 401.318723 245.977032 
z
" style="fill:#1f77b4;stroke:#ffffff;stroke-width:0.75;"/>
    <path clip-path="url(#p990615585a)" d="M 356.875076 224.442905 
C 357.690801 224.442905 358.473226 224.118814 359.050031 223.54201 
C 359.626836 222.965205 359.950927 222.18278 359.950927 221.367055 
C 359.950927 220.551329 359.626836 219.768904 359.050031 219.1921 
C 358.473226 218.615295 357.690801 218.291204 356.875076 218.291204 
C 356.059351 218.291204 355.276926 218.615295 354.700121 219.1921 
C 354.123316 219.768904 353.799225 220.551329 353.799225 221.367055 
C 353.799225 222.18278 354.123316 222.965205 354.700121 223.54201 
C 355.276926 224.118814 356.059351 224.442905 356.875076 224.442905 
z
" style="fill:#1f77b4;stroke:#ffffff;stroke-width:0.75;"/>
    <path clip-path="url(#p990615585a)" d="M 314.122594 202.81836 
C 315.227396 202.81836 316.287098 202.379418 317.068311 201.598205 
C 317.849524 200.816992 318.288466 199.757291 318.288466 198.652488 
C 318.288466 197.547686 317.849524 196.487985 317.068311 195.706772 
C 316.287098 194.925559 315.227396 194.486617 314.122594 194.486617 
C 313.017792 194.486617 311.958091 194.925559 311.176878 195.706772 
C 310.395665 196.487985 309.956723 197.547686 309.956723 198.652488 
C 309.956723 199.757291 310.395665 200.816992 311.176878 201.598205 
C 311.958091 202.379418 313.017792 202.81836 314.122594 202.81836 
z
" style="fill:#1f77b4;stroke:#ffffff;stroke-width:0.75;"/>
    <path clip-path="url(#p990615585a)" d="M 736.501931 387.11749 
C 737.316043 387.11749 738.09692 386.79404 738.672584 386.218376 
C 739.248248 385.642712 739.571698 384.861834 739.571698 384.047723 
C 739.571698 383.233611 739.248248 382.452734 738.672584 381.87707 
C 738.09692 381.301406 737.316043 380.977956 736.501931 380.977956 
C 735.687819 380.977956 734.906942 381.301406 734.331278 381.87707 
C 733.755614 382.452734 733.432164 383.233611 733.432164 384.047723 
C 733.432164 384.861834 733.755614 385.642712 734.331278 386.218376 
C 734.906942 386.79404 735.687819 387.11749 736.501931 387.11749 
z
" style="fill:#1f77b4;stroke:#ffffff;stroke-width:0.75;"/>
    <path clip-path="url(#p990615585a)" d="M 198.419112 132.932105 
C 199.526348 132.932105 200.588384 132.492195 201.371318 131.709261 
C 202.154253 130.926326 202.594162 129.86429 202.594162 128.757054 
C 202.594162 127.649818 202.154253 126.587782 201.371318 125.804847 
C 200.588384 125.021913 199.526348 124.582003 198.419112 124.582003 
C 197.311875 124.582003 196.249839 125.021913 195.466905 125.804847 
C 194.68397 126.587782 194.244061 127.649818 194.244061 128.757054 
C 194.244061 129.86429 194.68397 130.926326 195.466905 131.709261 
C 196.249839 132.492195 197.311875 132.932105 198.419112 132.932105 
z
" style="fill:#1f77b4;stroke:#ffffff;stroke-width:0.75;"/>
    <path clip-path="url(#p990615585a)" d="M 559.193433 319.589339 
C 560.279954 319.589339 561.32212 319.157659 562.090406 318.389373 
C 562.858692 317.621087 563.290371 316.578922 563.290371 315.492401 
C 563.290371 314.40588 562.858692 313.363715 562.090406 312.595429 
C 561.32212 311.827143 560.279954 311.395463 559.193433 311.395463 
C 558.106913 311.395463 557.064747 311.827143 556.296461 312.595429 
C 555.528175 313.363715 555.096496 314.40588 555.096496 315.492401 
C 555.096496 316.578922 555.528175 317.621087 556.296461 318.389373 
C 557.064747 319.157659 558.106913 319.589339 559.193433 319.589339 
z
" style="fill:#1f77b4;stroke:#ffffff;stroke-width:0.75;"/>
    <path clip-path="url(#p990615585a)" d="M 646.182981 354.165737 
C 647.190746 354.165737 648.157371 353.765348 648.869969 353.052751 
C 649.582566 352.340153 649.982955 351.373528 649.982955 350.365764 
C 649.982955 349.357999 649.582566 348.391374 648.869969 347.678776 
C 648.157371 346.966179 647.190746 346.56579 646.182981 346.56579 
C 645.175217 346.56579 644.208592 346.966179 643.495994 347.678776 
C 642.783397 348.391374 642.383008 349.357999 642.383008 350.365764 
C 642.383008 351.373528 642.783397 352.340153 643.495994 353.052751 
C 644.208592 353.765348 645.175217 354.165737 646.182981 354.165737 
z
" style="fill:#1f77b4;stroke:#ffffff;stroke-width:0.75;"/>
    <path clip-path="url(#p990615585a)" d="M 782.516016 403.67867 
C 783.399841 403.67867 784.247586 403.327523 784.872545 402.702564 
C 785.497503 402.077605 785.848651 401.229861 785.848651 400.346036 
C 785.848651 399.462211 785.497503 398.614466 784.872545 397.989507 
C 784.247586 397.364549 783.399841 397.013401 782.516016 397.013401 
C 781.632191 397.013401 780.784447 397.364549 780.159488 397.989507 
C 779.534529 398.614466 779.183382 399.462211 779.183382 400.346036 
C 779.183382 401.229861 779.534529 402.077605 780.159488 402.702564 
C 780.784447 403.327523 781.632191 403.67867 782.516016 403.67867 
z
" style="fill:#1f77b4;stroke:#ffffff;stroke-width:0.75;"/>
    <path clip-path="url(#p990615585a)" d="M 167.681746 111.086831 
C 168.770217 111.086831 169.814254 110.654377 170.583919 109.884712 
C 171.353584 109.115046 171.786039 108.07101 171.786039 106.982539 
C 171.786039 105.894068 171.353584 104.850031 170.583919 104.080366 
C 169.814254 103.310701 168.770217 102.878247 167.681746 102.878247 
C 166.593275 102.878247 165.549239 103.310701 164.779574 104.080366 
C 164.009908 104.850031 163.577454 105.894068 163.577454 106.982539 
C 163.577454 108.07101 164.009908 109.115046 164.779574 109.884712 
C 165.549239 110.654377 166.593275 111.086831 167.681746 111.086831 
z
" style="fill:#1f77b4;stroke:#ffffff;stroke-width:0.75;"/>
    <path clip-path="url(#p990615585a)" d="M 601.334409 336.835203 
C 602.42704 336.835203 603.475067 336.401096 604.247673 335.628489 
C 605.02028 334.855882 605.454387 333.807855 605.454387 332.715224 
C 605.454387 331.622593 605.02028 330.574567 604.247673 329.80196 
C 603.475067 329.029353 602.42704 328.595246 601.334409 328.595246 
C 600.241778 328.595246 599.193751 329.029353 598.421144 329.80196 
C 597.648538 330.574567 597.214431 331.622593 597.214431 332.715224 
C 597.214431 333.807855 597.648538 334.855882 598.421144 335.628489 
C 599.193751 336.401096 600.241778 336.835203 601.334409 336.835203 
z
" style="fill:#1f77b4;stroke:#ffffff;stroke-width:0.75;"/>
    <path clip-path="url(#p990615585a)" d="M 223.927246 149.940413 
C 225.052407 149.940413 226.131636 149.493382 226.927246 148.697772 
C 227.722855 147.902163 228.169886 146.822934 228.169886 145.697772 
C 228.169886 144.572611 227.722855 143.493382 226.927246 142.697772 
C 226.131636 141.902163 225.052407 141.455132 223.927246 141.455132 
C 222.802084 141.455132 221.722855 141.902163 220.927246 142.697772 
C 220.131636 143.493382 219.684605 144.572611 219.684605 145.697772 
C 219.684605 146.822934 220.131636 147.902163 220.927246 148.697772 
C 221.722855 149.493382 222.802084 149.940413 223.927246 149.940413 
z
" style="fill:#1f77b4;stroke:#ffffff;stroke-width:0.75;"/>
    <path clip-path="url(#p990615585a)" d="M 691.084764 370.857015 
C 691.999952 370.857015 692.87778 370.493406 693.524915 369.846271 
C 694.172051 369.199135 694.535659 368.321308 694.535659 367.40612 
C 694.535659 366.490932 694.172051 365.613105 693.524915 364.965969 
C 692.87778 364.318833 691.999952 363.955225 691.084764 363.955225 
C 690.169577 363.955225 689.291749 364.318833 688.644613 364.965969 
C 687.997478 365.613105 687.63387 366.490932 687.63387 367.40612 
C 687.63387 368.321308 687.997478 369.199135 688.644613 369.846271 
C 689.291749 370.493406 690.169577 370.857015 691.084764 370.857015 
z
" style="fill:#1f77b4;stroke:#ffffff;stroke-width:0.75;"/>
    <path clip-path="url(#p990615585a)" d="M 246.786931 164.226465 
C 247.911375 164.226465 248.989916 163.779718 249.785018 162.984616 
C 250.58012 162.189514 251.026866 161.110973 251.026866 159.986529 
C 251.026866 158.862085 250.58012 157.783544 249.785018 156.988441 
C 248.989916 156.193339 247.911375 155.746593 246.786931 155.746593 
C 245.662486 155.746593 244.583945 156.193339 243.788843 156.988441 
C 242.993741 157.783544 242.546995 158.862085 242.546995 159.986529 
C 242.546995 161.110973 242.993741 162.189514 243.788843 162.984616 
C 244.583945 163.779718 245.662486 164.226465 246.786931 164.226465 
z
" style="fill:#1f77b4;stroke:#ffffff;stroke-width:0.75;"/>
   </g>
   <g id="PathCollection_2"/>
   <g id="PathCollection_3"/>
   <g id="PathCollection_4"/>
   <g id="PathCollection_5"/>
   <g id="PathCollection_6"/>
   <g id="patch_3">
    <path clip-path="url(#p990615585a)" d="z
" style="fill:#808080;stroke:#808080;stroke-linejoin:miter;"/>
   </g>
   <g id="patch_4">
    <path clip-path="url(#p990615585a)" d="M 163.322516 103.673858 
L 161.636192 103.876332 
L 161.71765 102.529876 
L 144.500425 89.461902 
L 144.508999 89.32017 
L 161.726225 102.388143 
L 161.807683 101.041687 
z
" style="fill:#808080;stroke:#808080;stroke-linejoin:miter;"/>
   </g>
   <g id="patch_5">
    <path clip-path="url(#p990615585a)" d="M 193.10833 124.994868 
L 191.422948 125.279138 
L 191.499192 123.928856 
L 171.519904 109.775421 
L 171.52793 109.633286 
L 191.507217 123.786721 
L 191.583461 122.436438 
z
" style="fill:#808080;stroke:#808080;stroke-linejoin:miter;"/>
   </g>
   <g id="patch_6">
    <path clip-path="url(#p990615585a)" d="M 219.796793 142.954614 
L 218.112499 143.310782 
L 218.184145 141.957344 
L 201.603858 130.945877 
L 201.611399 130.80341 
L 218.191686 141.814877 
L 218.263332 140.461439 
z
" style="fill:#808080;stroke:#808080;stroke-linejoin:miter;"/>
   </g>
   <g id="patch_7">
    <path clip-path="url(#p990615585a)" d="M 243.255507 157.779165 
L 241.572384 158.199001 
L 241.639946 156.842931 
L 226.78115 147.555239 
L 226.788262 147.412495 
L 241.647057 156.700187 
L 241.714619 155.344117 
z
" style="fill:#808080;stroke:#808080;stroke-linejoin:miter;"/>
   </g>
   <g id="patch_8">
    <path clip-path="url(#p990615585a)" d="M 273.527431 175.772458 
L 271.845512 176.24905 
L 271.909425 174.890762 
L 250.836125 162.450396 
L 250.842852 162.307418 
L 271.916153 174.747785 
L 271.980066 173.389497 
z
" style="fill:#808080;stroke:#808080;stroke-linejoin:miter;"/>
   </g>
   <g id="patch_9">
    <path clip-path="url(#p990615585a)" d="M 307.883557 195.163198 
L 306.20285 195.690689 
L 306.263483 194.330516 
L 283.568602 181.638009 
L 283.574985 181.494833 
L 306.269865 194.18734 
L 306.330498 192.827168 
z
" style="fill:#808080;stroke:#808080;stroke-linejoin:miter;"/>
   </g>
   <g id="patch_10">
    <path clip-path="url(#p990615585a)" d="M 348.874571 217.116354 
L 347.195062 217.689739 
L 347.252732 216.32795 
L 319.463619 201.563482 
L 319.46969 201.420136 
L 347.258803 216.184604 
L 347.316473 214.822816 
z
" style="fill:#808080;stroke:#808080;stroke-linejoin:miter;"/>
   </g>
   <g id="patch_11">
    <path clip-path="url(#p990615585a)" d="M 392.939365 239.615724 
L 391.261029 240.230694 
L 391.316009 238.86751 
L 362.427638 224.249883 
L 362.433426 224.10639 
L 391.321796 238.724017 
L 391.376776 237.360834 
z
" style="fill:#808080;stroke:#808080;stroke-linejoin:miter;"/>
   </g>
   <g id="patch_12">
    <path clip-path="url(#p990615585a)" d="M 435.689837 260.457086 
L 434.012641 261.109907 
L 434.065169 259.74551 
L 406.598089 246.47881 
L 406.603619 246.335189 
L 434.070698 259.60189 
L 434.123226 258.237494 
z
" style="fill:#808080;stroke:#808080;stroke-linejoin:miter;"/>
   </g>
   <g id="patch_13">
    <path clip-path="url(#p990615585a)" d="M 474.106406 278.371281 
L 472.430312 279.058697 
L 472.480595 277.69324 
L 448.235618 266.491975 
L 448.240911 266.348243 
L 472.485888 277.549507 
L 472.536171 276.184051 
z
" style="fill:#808080;stroke:#808080;stroke-linejoin:miter;"/>
   </g>
   <g id="patch_14">
    <path clip-path="url(#p990615585a)" d="M 513.362292 295.882267 
L 511.68726 296.60142 
L 511.735481 295.23503 
L 485.850984 283.774582 
L 485.85606 283.630751 
L 511.740556 295.0912 
L 511.788777 293.72481 
z
" style="fill:#808080;stroke:#808080;stroke-linejoin:miter;"/>
   </g>
   <g id="patch_15">
    <path clip-path="url(#p990615585a)" d="M 552.157223 312.501707 
L 550.483211 313.250077 
L 550.529531 311.882863 
L 525.507523 301.247428 
L 525.512399 301.10351 
L 550.534407 311.738946 
L 550.580727 310.371731 
z
" style="fill:#808080;stroke:#808080;stroke-linejoin:miter;"/>
   </g>
   <g id="patch_16">
    <path clip-path="url(#p990615585a)" d="M 593.478814 329.504679 
L 591.805782 330.280034 
L 591.850344 328.912086 
L 564.45871 317.717251 
L 564.463401 317.573257 
L 591.855035 328.768092 
L 591.899597 327.400145 
z
" style="fill:#808080;stroke:#808080;stroke-linejoin:miter;"/>
   </g>
   <g id="patch_17">
    <path clip-path="url(#p990615585a)" d="M 637.718955 347.034674 
L 636.046861 347.835025 
L 636.089793 346.466424 
L 606.938221 334.993574 
L 606.94274 334.84951 
L 636.094312 346.322361 
L 636.137244 344.95376 
z
" style="fill:#808080;stroke:#808080;stroke-linejoin:miter;"/>
   </g>
   <g id="patch_18">
    <path clip-path="url(#p990615585a)" d="M 682.609462 364.189718 
L 680.938267 365.013289 
L 680.979683 363.644102 
L 651.793525 352.567871 
L 651.797884 352.423746 
L 680.984043 363.499977 
L 681.02546 362.13079 
z
" style="fill:#808080;stroke:#808080;stroke-linejoin:miter;"/>
   </g>
   <g id="patch_19">
    <path clip-path="url(#p990615585a)" d="M 727.911293 380.899971 
L 726.240959 381.745166 
L 726.280963 380.375452 
L 696.759805 369.55841 
L 696.764016 369.41423 
L 726.285174 380.231272 
L 726.325178 378.861558 
z
" style="fill:#808080;stroke:#808080;stroke-linejoin:miter;"/>
   </g>
   <g id="patch_20">
    <path clip-path="url(#p990615585a)" d="M 773.791637 397.255837 
L 772.122127 398.12122 
L 772.160811 396.751031 
L 742.251655 386.157127 
L 742.255727 386.012897 
L 772.164883 396.6068 
L 772.203567 395.236611 
z
" style="fill:#808080;stroke:#808080;stroke-linejoin:miter;"/>
   </g>
   <g id="matplotlib.axis_1">
    <g id="xtick_1">
     <g id="line2d_1">
      <defs>
       <path d="M 0 0 
L 0 3.5 
" id="mabe1311308" style="stroke:#000000;stroke-width:0.8;"/>
      </defs>
      <g>
       <use style="stroke:#000000;stroke-width:0.8;" x="133.838517" xlink:href="#mabe1311308" y="429.336"/>
      </g>
     </g>
     <g id="text_1">
      <!-- 1.4 -->
      <defs>
       <path d="M 12.40625 8.296875 
L 28.515625 8.296875 
L 28.515625 63.921875 
L 10.984375 60.40625 
L 10.984375 69.390625 
L 28.421875 72.90625 
L 38.28125 72.90625 
L 38.28125 8.296875 
L 54.390625 8.296875 
L 54.390625 0 
L 12.40625 0 
z
" id="DejaVuSans-49"/>
       <path d="M 10.6875 12.40625 
L 21 12.40625 
L 21 0 
L 10.6875 0 
z
" id="DejaVuSans-46"/>
       <path d="M 37.796875 64.3125 
L 12.890625 25.390625 
L 37.796875 25.390625 
z
M 35.203125 72.90625 
L 47.609375 72.90625 
L 47.609375 25.390625 
L 58.015625 25.390625 
L 58.015625 17.1875 
L 47.609375 17.1875 
L 47.609375 0 
L 37.796875 0 
L 37.796875 17.1875 
L 4.890625 17.1875 
L 4.890625 26.703125 
z
" id="DejaVuSans-52"/>
      </defs>
      <g transform="translate(125.886955 443.934438)scale(0.1 -0.1)">
       <use xlink:href="#DejaVuSans-49"/>
       <use x="63.623047" xlink:href="#DejaVuSans-46"/>
       <use x="95.410156" xlink:href="#DejaVuSans-52"/>
      </g>
     </g>
    </g>
    <g id="xtick_2">
     <g id="line2d_2">
      <g>
       <use style="stroke:#000000;stroke-width:0.8;" x="215.684208" xlink:href="#mabe1311308" y="429.336"/>
      </g>
     </g>
     <g id="text_2">
      <!-- 1.5 -->
      <defs>
       <path d="M 10.796875 72.90625 
L 49.515625 72.90625 
L 49.515625 64.59375 
L 19.828125 64.59375 
L 19.828125 46.734375 
Q 21.96875 47.46875 24.109375 47.828125 
Q 26.265625 48.1875 28.421875 48.1875 
Q 40.625 48.1875 47.75 41.5 
Q 54.890625 34.8125 54.890625 23.390625 
Q 54.890625 11.625 47.5625 5.09375 
Q 40.234375 -1.421875 26.90625 -1.421875 
Q 22.3125 -1.421875 17.546875 -0.640625 
Q 12.796875 0.140625 7.71875 1.703125 
L 7.71875 11.625 
Q 12.109375 9.234375 16.796875 8.0625 
Q 21.484375 6.890625 26.703125 6.890625 
Q 35.15625 6.890625 40.078125 11.328125 
Q 45.015625 15.765625 45.015625 23.390625 
Q 45.015625 31 40.078125 35.4375 
Q 35.15625 39.890625 26.703125 39.890625 
Q 22.75 39.890625 18.8125 39.015625 
Q 14.890625 38.140625 10.796875 36.28125 
z
" id="DejaVuSans-53"/>
      </defs>
      <g transform="translate(207.732646 443.934438)scale(0.1 -0.1)">
       <use xlink:href="#DejaVuSans-49"/>
       <use x="63.623047" xlink:href="#DejaVuSans-46"/>
       <use x="95.410156" xlink:href="#DejaVuSans-53"/>
      </g>
     </g>
    </g>
    <g id="xtick_3">
     <g id="line2d_3">
      <g>
       <use style="stroke:#000000;stroke-width:0.8;" x="297.529899" xlink:href="#mabe1311308" y="429.336"/>
      </g>
     </g>
     <g id="text_3">
      <!-- 1.6 -->
      <defs>
       <path d="M 33.015625 40.375 
Q 26.375 40.375 22.484375 35.828125 
Q 18.609375 31.296875 18.609375 23.390625 
Q 18.609375 15.53125 22.484375 10.953125 
Q 26.375 6.390625 33.015625 6.390625 
Q 39.65625 6.390625 43.53125 10.953125 
Q 47.40625 15.53125 47.40625 23.390625 
Q 47.40625 31.296875 43.53125 35.828125 
Q 39.65625 40.375 33.015625 40.375 
z
M 52.59375 71.296875 
L 52.59375 62.3125 
Q 48.875 64.0625 45.09375 64.984375 
Q 41.3125 65.921875 37.59375 65.921875 
Q 27.828125 65.921875 22.671875 59.328125 
Q 17.53125 52.734375 16.796875 39.40625 
Q 19.671875 43.65625 24.015625 45.921875 
Q 28.375 48.1875 33.59375 48.1875 
Q 44.578125 48.1875 50.953125 41.515625 
Q 57.328125 34.859375 57.328125 23.390625 
Q 57.328125 12.15625 50.6875 5.359375 
Q 44.046875 -1.421875 33.015625 -1.421875 
Q 20.359375 -1.421875 13.671875 8.265625 
Q 6.984375 17.96875 6.984375 36.375 
Q 6.984375 53.65625 15.1875 63.9375 
Q 23.390625 74.21875 37.203125 74.21875 
Q 40.921875 74.21875 44.703125 73.484375 
Q 48.484375 72.75 52.59375 71.296875 
z
" id="DejaVuSans-54"/>
      </defs>
      <g transform="translate(289.578337 443.934438)scale(0.1 -0.1)">
       <use xlink:href="#DejaVuSans-49"/>
       <use x="63.623047" xlink:href="#DejaVuSans-46"/>
       <use x="95.410156" xlink:href="#DejaVuSans-54"/>
      </g>
     </g>
    </g>
    <g id="xtick_4">
     <g id="line2d_4">
      <g>
       <use style="stroke:#000000;stroke-width:0.8;" x="379.37559" xlink:href="#mabe1311308" y="429.336"/>
      </g>
     </g>
     <g id="text_4">
      <!-- 1.7 -->
      <defs>
       <path d="M 8.203125 72.90625 
L 55.078125 72.90625 
L 55.078125 68.703125 
L 28.609375 0 
L 18.3125 0 
L 43.21875 64.59375 
L 8.203125 64.59375 
z
" id="DejaVuSans-55"/>
      </defs>
      <g transform="translate(371.424028 443.934438)scale(0.1 -0.1)">
       <use xlink:href="#DejaVuSans-49"/>
       <use x="63.623047" xlink:href="#DejaVuSans-46"/>
       <use x="95.410156" xlink:href="#DejaVuSans-55"/>
      </g>
     </g>
    </g>
    <g id="xtick_5">
     <g id="line2d_5">
      <g>
       <use style="stroke:#000000;stroke-width:0.8;" x="461.221281" xlink:href="#mabe1311308" y="429.336"/>
      </g>
     </g>
     <g id="text_5">
      <!-- 1.8 -->
      <defs>
       <path d="M 31.78125 34.625 
Q 24.75 34.625 20.71875 30.859375 
Q 16.703125 27.09375 16.703125 20.515625 
Q 16.703125 13.921875 20.71875 10.15625 
Q 24.75 6.390625 31.78125 6.390625 
Q 38.8125 6.390625 42.859375 10.171875 
Q 46.921875 13.96875 46.921875 20.515625 
Q 46.921875 27.09375 42.890625 30.859375 
Q 38.875 34.625 31.78125 34.625 
z
M 21.921875 38.8125 
Q 15.578125 40.375 12.03125 44.71875 
Q 8.5 49.078125 8.5 55.328125 
Q 8.5 64.0625 14.71875 69.140625 
Q 20.953125 74.21875 31.78125 74.21875 
Q 42.671875 74.21875 48.875 69.140625 
Q 55.078125 64.0625 55.078125 55.328125 
Q 55.078125 49.078125 51.53125 44.71875 
Q 48 40.375 41.703125 38.8125 
Q 48.828125 37.15625 52.796875 32.3125 
Q 56.78125 27.484375 56.78125 20.515625 
Q 56.78125 9.90625 50.3125 4.234375 
Q 43.84375 -1.421875 31.78125 -1.421875 
Q 19.734375 -1.421875 13.25 4.234375 
Q 6.78125 9.90625 6.78125 20.515625 
Q 6.78125 27.484375 10.78125 32.3125 
Q 14.796875 37.15625 21.921875 38.8125 
z
M 18.3125 54.390625 
Q 18.3125 48.734375 21.84375 45.5625 
Q 25.390625 42.390625 31.78125 42.390625 
Q 38.140625 42.390625 41.71875 45.5625 
Q 45.3125 48.734375 45.3125 54.390625 
Q 45.3125 60.0625 41.71875 63.234375 
Q 38.140625 66.40625 31.78125 66.40625 
Q 25.390625 66.40625 21.84375 63.234375 
Q 18.3125 60.0625 18.3125 54.390625 
z
" id="DejaVuSans-56"/>
      </defs>
      <g transform="translate(453.269719 443.934438)scale(0.1 -0.1)">
       <use xlink:href="#DejaVuSans-49"/>
       <use x="63.623047" xlink:href="#DejaVuSans-46"/>
       <use x="95.410156" xlink:href="#DejaVuSans-56"/>
      </g>
     </g>
    </g>
    <g id="xtick_6">
     <g id="line2d_6">
      <g>
       <use style="stroke:#000000;stroke-width:0.8;" x="543.066972" xlink:href="#mabe1311308" y="429.336"/>
      </g>
     </g>
     <g id="text_6">
      <!-- 1.9 -->
      <defs>
       <path d="M 10.984375 1.515625 
L 10.984375 10.5 
Q 14.703125 8.734375 18.5 7.8125 
Q 22.3125 6.890625 25.984375 6.890625 
Q 35.75 6.890625 40.890625 13.453125 
Q 46.046875 20.015625 46.78125 33.40625 
Q 43.953125 29.203125 39.59375 26.953125 
Q 35.25 24.703125 29.984375 24.703125 
Q 19.046875 24.703125 12.671875 31.3125 
Q 6.296875 37.9375 6.296875 49.421875 
Q 6.296875 60.640625 12.9375 67.421875 
Q 19.578125 74.21875 30.609375 74.21875 
Q 43.265625 74.21875 49.921875 64.515625 
Q 56.59375 54.828125 56.59375 36.375 
Q 56.59375 19.140625 48.40625 8.859375 
Q 40.234375 -1.421875 26.421875 -1.421875 
Q 22.703125 -1.421875 18.890625 -0.6875 
Q 15.09375 0.046875 10.984375 1.515625 
z
M 30.609375 32.421875 
Q 37.25 32.421875 41.125 36.953125 
Q 45.015625 41.5 45.015625 49.421875 
Q 45.015625 57.28125 41.125 61.84375 
Q 37.25 66.40625 30.609375 66.40625 
Q 23.96875 66.40625 20.09375 61.84375 
Q 16.21875 57.28125 16.21875 49.421875 
Q 16.21875 41.5 20.09375 36.953125 
Q 23.96875 32.421875 30.609375 32.421875 
z
" id="DejaVuSans-57"/>
      </defs>
      <g transform="translate(535.11541 443.934438)scale(0.1 -0.1)">
       <use xlink:href="#DejaVuSans-49"/>
       <use x="63.623047" xlink:href="#DejaVuSans-46"/>
       <use x="95.410156" xlink:href="#DejaVuSans-57"/>
      </g>
     </g>
    </g>
    <g id="xtick_7">
     <g id="line2d_7">
      <g>
       <use style="stroke:#000000;stroke-width:0.8;" x="624.912663" xlink:href="#mabe1311308" y="429.336"/>
      </g>
     </g>
     <g id="text_7">
      <!-- 2.0 -->
      <defs>
       <path d="M 19.1875 8.296875 
L 53.609375 8.296875 
L 53.609375 0 
L 7.328125 0 
L 7.328125 8.296875 
Q 12.9375 14.109375 22.625 23.890625 
Q 32.328125 33.6875 34.8125 36.53125 
Q 39.546875 41.84375 41.421875 45.53125 
Q 43.3125 49.21875 43.3125 52.78125 
Q 43.3125 58.59375 39.234375 62.25 
Q 35.15625 65.921875 28.609375 65.921875 
Q 23.96875 65.921875 18.8125 64.3125 
Q 13.671875 62.703125 7.8125 59.421875 
L 7.8125 69.390625 
Q 13.765625 71.78125 18.9375 73 
Q 24.125 74.21875 28.421875 74.21875 
Q 39.75 74.21875 46.484375 68.546875 
Q 53.21875 62.890625 53.21875 53.421875 
Q 53.21875 48.921875 51.53125 44.890625 
Q 49.859375 40.875 45.40625 35.40625 
Q 44.1875 33.984375 37.640625 27.21875 
Q 31.109375 20.453125 19.1875 8.296875 
z
" id="DejaVuSans-50"/>
       <path d="M 31.78125 66.40625 
Q 24.171875 66.40625 20.328125 58.90625 
Q 16.5 51.421875 16.5 36.375 
Q 16.5 21.390625 20.328125 13.890625 
Q 24.171875 6.390625 31.78125 6.390625 
Q 39.453125 6.390625 43.28125 13.890625 
Q 47.125 21.390625 47.125 36.375 
Q 47.125 51.421875 43.28125 58.90625 
Q 39.453125 66.40625 31.78125 66.40625 
z
M 31.78125 74.21875 
Q 44.046875 74.21875 50.515625 64.515625 
Q 56.984375 54.828125 56.984375 36.375 
Q 56.984375 17.96875 50.515625 8.265625 
Q 44.046875 -1.421875 31.78125 -1.421875 
Q 19.53125 -1.421875 13.0625 8.265625 
Q 6.59375 17.96875 6.59375 36.375 
Q 6.59375 54.828125 13.0625 64.515625 
Q 19.53125 74.21875 31.78125 74.21875 
z
" id="DejaVuSans-48"/>
      </defs>
      <g transform="translate(616.961101 443.934438)scale(0.1 -0.1)">
       <use xlink:href="#DejaVuSans-50"/>
       <use x="63.623047" xlink:href="#DejaVuSans-46"/>
       <use x="95.410156" xlink:href="#DejaVuSans-48"/>
      </g>
     </g>
    </g>
    <g id="xtick_8">
     <g id="line2d_8">
      <g>
       <use style="stroke:#000000;stroke-width:0.8;" x="706.758354" xlink:href="#mabe1311308" y="429.336"/>
      </g>
     </g>
     <g id="text_8">
      <!-- 2.1 -->
      <g transform="translate(698.806792 443.934438)scale(0.1 -0.1)">
       <use xlink:href="#DejaVuSans-50"/>
       <use x="63.623047" xlink:href="#DejaVuSans-46"/>
       <use x="95.410156" xlink:href="#DejaVuSans-49"/>
      </g>
     </g>
    </g>
    <g id="xtick_9">
     <g id="line2d_9">
      <g>
       <use style="stroke:#000000;stroke-width:0.8;" x="788.604045" xlink:href="#mabe1311308" y="429.336"/>
      </g>
     </g>
     <g id="text_9">
      <!-- 2.2 -->
      <g transform="translate(780.652482 443.934438)scale(0.1 -0.1)">
       <use xlink:href="#DejaVuSans-50"/>
       <use x="63.623047" xlink:href="#DejaVuSans-46"/>
       <use x="95.410156" xlink:href="#DejaVuSans-50"/>
      </g>
     </g>
    </g>
    <g id="text_10">
     <!-- intercept -->
     <defs>
      <path d="M 9.421875 54.6875 
L 18.40625 54.6875 
L 18.40625 0 
L 9.421875 0 
z
M 9.421875 75.984375 
L 18.40625 75.984375 
L 18.40625 64.59375 
L 9.421875 64.59375 
z
" id="DejaVuSans-105"/>
      <path d="M 54.890625 33.015625 
L 54.890625 0 
L 45.90625 0 
L 45.90625 32.71875 
Q 45.90625 40.484375 42.875 44.328125 
Q 39.84375 48.1875 33.796875 48.1875 
Q 26.515625 48.1875 22.3125 43.546875 
Q 18.109375 38.921875 18.109375 30.90625 
L 18.109375 0 
L 9.078125 0 
L 9.078125 54.6875 
L 18.109375 54.6875 
L 18.109375 46.1875 
Q 21.34375 51.125 25.703125 53.5625 
Q 30.078125 56 35.796875 56 
Q 45.21875 56 50.046875 50.171875 
Q 54.890625 44.34375 54.890625 33.015625 
z
" id="DejaVuSans-110"/>
      <path d="M 18.3125 70.21875 
L 18.3125 54.6875 
L 36.8125 54.6875 
L 36.8125 47.703125 
L 18.3125 47.703125 
L 18.3125 18.015625 
Q 18.3125 11.328125 20.140625 9.421875 
Q 21.96875 7.515625 27.59375 7.515625 
L 36.8125 7.515625 
L 36.8125 0 
L 27.59375 0 
Q 17.1875 0 13.234375 3.875 
Q 9.28125 7.765625 9.28125 18.015625 
L 9.28125 47.703125 
L 2.6875 47.703125 
L 2.6875 54.6875 
L 9.28125 54.6875 
L 9.28125 70.21875 
z
" id="DejaVuSans-116"/>
      <path d="M 56.203125 29.59375 
L 56.203125 25.203125 
L 14.890625 25.203125 
Q 15.484375 15.921875 20.484375 11.0625 
Q 25.484375 6.203125 34.421875 6.203125 
Q 39.59375 6.203125 44.453125 7.46875 
Q 49.3125 8.734375 54.109375 11.28125 
L 54.109375 2.78125 
Q 49.265625 0.734375 44.1875 -0.34375 
Q 39.109375 -1.421875 33.890625 -1.421875 
Q 20.796875 -1.421875 13.15625 6.1875 
Q 5.515625 13.8125 5.515625 26.8125 
Q 5.515625 40.234375 12.765625 48.109375 
Q 20.015625 56 32.328125 56 
Q 43.359375 56 49.78125 48.890625 
Q 56.203125 41.796875 56.203125 29.59375 
z
M 47.21875 32.234375 
Q 47.125 39.59375 43.09375 43.984375 
Q 39.0625 48.390625 32.421875 48.390625 
Q 24.90625 48.390625 20.390625 44.140625 
Q 15.875 39.890625 15.1875 32.171875 
z
" id="DejaVuSans-101"/>
      <path d="M 41.109375 46.296875 
Q 39.59375 47.171875 37.8125 47.578125 
Q 36.03125 48 33.890625 48 
Q 26.265625 48 22.1875 43.046875 
Q 18.109375 38.09375 18.109375 28.8125 
L 18.109375 0 
L 9.078125 0 
L 9.078125 54.6875 
L 18.109375 54.6875 
L 18.109375 46.1875 
Q 20.953125 51.171875 25.484375 53.578125 
Q 30.03125 56 36.53125 56 
Q 37.453125 56 38.578125 55.875 
Q 39.703125 55.765625 41.0625 55.515625 
z
" id="DejaVuSans-114"/>
      <path d="M 48.78125 52.59375 
L 48.78125 44.1875 
Q 44.96875 46.296875 41.140625 47.34375 
Q 37.3125 48.390625 33.40625 48.390625 
Q 24.65625 48.390625 19.8125 42.84375 
Q 14.984375 37.3125 14.984375 27.296875 
Q 14.984375 17.28125 19.8125 11.734375 
Q 24.65625 6.203125 33.40625 6.203125 
Q 37.3125 6.203125 41.140625 7.25 
Q 44.96875 8.296875 48.78125 10.40625 
L 48.78125 2.09375 
Q 45.015625 0.34375 40.984375 -0.53125 
Q 36.96875 -1.421875 32.421875 -1.421875 
Q 20.0625 -1.421875 12.78125 6.34375 
Q 5.515625 14.109375 5.515625 27.296875 
Q 5.515625 40.671875 12.859375 48.328125 
Q 20.21875 56 33.015625 56 
Q 37.15625 56 41.109375 55.140625 
Q 45.0625 54.296875 48.78125 52.59375 
z
" id="DejaVuSans-99"/>
      <path d="M 18.109375 8.203125 
L 18.109375 -20.796875 
L 9.078125 -20.796875 
L 9.078125 54.6875 
L 18.109375 54.6875 
L 18.109375 46.390625 
Q 20.953125 51.265625 25.265625 53.625 
Q 29.59375 56 35.59375 56 
Q 45.5625 56 51.78125 48.09375 
Q 58.015625 40.1875 58.015625 27.296875 
Q 58.015625 14.40625 51.78125 6.484375 
Q 45.5625 -1.421875 35.59375 -1.421875 
Q 29.59375 -1.421875 25.265625 0.953125 
Q 20.953125 3.328125 18.109375 8.203125 
z
M 48.6875 27.296875 
Q 48.6875 37.203125 44.609375 42.84375 
Q 40.53125 48.484375 33.40625 48.484375 
Q 26.265625 48.484375 22.1875 42.84375 
Q 18.109375 37.203125 18.109375 27.296875 
Q 18.109375 17.390625 22.1875 11.75 
Q 26.265625 6.109375 33.40625 6.109375 
Q 40.53125 6.109375 44.609375 11.75 
Q 48.6875 17.390625 48.6875 27.296875 
z
" id="DejaVuSans-112"/>
     </defs>
     <g transform="translate(455.615406 457.612563)scale(0.1 -0.1)">
      <use xlink:href="#DejaVuSans-105"/>
      <use x="27.783203" xlink:href="#DejaVuSans-110"/>
      <use x="91.162109" xlink:href="#DejaVuSans-116"/>
      <use x="130.371094" xlink:href="#DejaVuSans-101"/>
      <use x="191.894531" xlink:href="#DejaVuSans-114"/>
      <use x="232.976562" xlink:href="#DejaVuSans-99"/>
      <use x="287.957031" xlink:href="#DejaVuSans-101"/>
      <use x="349.480469" xlink:href="#DejaVuSans-112"/>
      <use x="412.957031" xlink:href="#DejaVuSans-116"/>
     </g>
    </g>
   </g>
   <g id="matplotlib.axis_2">
    <g id="ytick_1">
     <g id="line2d_10">
      <defs>
       <path d="M 0 0 
L -3.5 0 
" id="mae92c03761" style="stroke:#000000;stroke-width:0.8;"/>
      </defs>
      <g>
       <use style="stroke:#000000;stroke-width:0.8;" x="116.64" xlink:href="#mae92c03761" y="411.265051"/>
      </g>
     </g>
     <g id="text_11">
      <!-- 0.22 -->
      <g transform="translate(87.374375 415.06427)scale(0.1 -0.1)">
       <use xlink:href="#DejaVuSans-48"/>
       <use x="63.623047" xlink:href="#DejaVuSans-46"/>
       <use x="95.410156" xlink:href="#DejaVuSans-50"/>
       <use x="159.033203" xlink:href="#DejaVuSans-50"/>
      </g>
     </g>
    </g>
    <g id="ytick_2">
     <g id="line2d_11">
      <g>
       <use style="stroke:#000000;stroke-width:0.8;" x="116.64" xlink:href="#mae92c03761" y="353.285122"/>
      </g>
     </g>
     <g id="text_12">
      <!-- 0.24 -->
      <g transform="translate(87.374375 357.084341)scale(0.1 -0.1)">
       <use xlink:href="#DejaVuSans-48"/>
       <use x="63.623047" xlink:href="#DejaVuSans-46"/>
       <use x="95.410156" xlink:href="#DejaVuSans-50"/>
       <use x="159.033203" xlink:href="#DejaVuSans-52"/>
      </g>
     </g>
    </g>
    <g id="ytick_3">
     <g id="line2d_12">
      <g>
       <use style="stroke:#000000;stroke-width:0.8;" x="116.64" xlink:href="#mae92c03761" y="295.305194"/>
      </g>
     </g>
     <g id="text_13">
      <!-- 0.26 -->
      <g transform="translate(87.374375 299.104413)scale(0.1 -0.1)">
       <use xlink:href="#DejaVuSans-48"/>
       <use x="63.623047" xlink:href="#DejaVuSans-46"/>
       <use x="95.410156" xlink:href="#DejaVuSans-50"/>
       <use x="159.033203" xlink:href="#DejaVuSans-54"/>
      </g>
     </g>
    </g>
    <g id="ytick_4">
     <g id="line2d_13">
      <g>
       <use style="stroke:#000000;stroke-width:0.8;" x="116.64" xlink:href="#mae92c03761" y="237.325265"/>
      </g>
     </g>
     <g id="text_14">
      <!-- 0.28 -->
      <g transform="translate(87.374375 241.124484)scale(0.1 -0.1)">
       <use xlink:href="#DejaVuSans-48"/>
       <use x="63.623047" xlink:href="#DejaVuSans-46"/>
       <use x="95.410156" xlink:href="#DejaVuSans-50"/>
       <use x="159.033203" xlink:href="#DejaVuSans-56"/>
      </g>
     </g>
    </g>
    <g id="ytick_5">
     <g id="line2d_14">
      <g>
       <use style="stroke:#000000;stroke-width:0.8;" x="116.64" xlink:href="#mae92c03761" y="179.345337"/>
      </g>
     </g>
     <g id="text_15">
      <!-- 0.30 -->
      <defs>
       <path d="M 40.578125 39.3125 
Q 47.65625 37.796875 51.625 33 
Q 55.609375 28.21875 55.609375 21.1875 
Q 55.609375 10.40625 48.1875 4.484375 
Q 40.765625 -1.421875 27.09375 -1.421875 
Q 22.515625 -1.421875 17.65625 -0.515625 
Q 12.796875 0.390625 7.625 2.203125 
L 7.625 11.71875 
Q 11.71875 9.328125 16.59375 8.109375 
Q 21.484375 6.890625 26.8125 6.890625 
Q 36.078125 6.890625 40.9375 10.546875 
Q 45.796875 14.203125 45.796875 21.1875 
Q 45.796875 27.640625 41.28125 31.265625 
Q 36.765625 34.90625 28.71875 34.90625 
L 20.21875 34.90625 
L 20.21875 43.015625 
L 29.109375 43.015625 
Q 36.375 43.015625 40.234375 45.921875 
Q 44.09375 48.828125 44.09375 54.296875 
Q 44.09375 59.90625 40.109375 62.90625 
Q 36.140625 65.921875 28.71875 65.921875 
Q 24.65625 65.921875 20.015625 65.03125 
Q 15.375 64.15625 9.8125 62.3125 
L 9.8125 71.09375 
Q 15.4375 72.65625 20.34375 73.4375 
Q 25.25 74.21875 29.59375 74.21875 
Q 40.828125 74.21875 47.359375 69.109375 
Q 53.90625 64.015625 53.90625 55.328125 
Q 53.90625 49.265625 50.4375 45.09375 
Q 46.96875 40.921875 40.578125 39.3125 
z
" id="DejaVuSans-51"/>
      </defs>
      <g transform="translate(87.374375 183.144556)scale(0.1 -0.1)">
       <use xlink:href="#DejaVuSans-48"/>
       <use x="63.623047" xlink:href="#DejaVuSans-46"/>
       <use x="95.410156" xlink:href="#DejaVuSans-51"/>
       <use x="159.033203" xlink:href="#DejaVuSans-48"/>
      </g>
     </g>
    </g>
    <g id="ytick_6">
     <g id="line2d_15">
      <g>
       <use style="stroke:#000000;stroke-width:0.8;" x="116.64" xlink:href="#mae92c03761" y="121.365408"/>
      </g>
     </g>
     <g id="text_16">
      <!-- 0.32 -->
      <g transform="translate(87.374375 125.164627)scale(0.1 -0.1)">
       <use xlink:href="#DejaVuSans-48"/>
       <use x="63.623047" xlink:href="#DejaVuSans-46"/>
       <use x="95.410156" xlink:href="#DejaVuSans-51"/>
       <use x="159.033203" xlink:href="#DejaVuSans-50"/>
      </g>
     </g>
    </g>
    <g id="ytick_7">
     <g id="line2d_16">
      <g>
       <use style="stroke:#000000;stroke-width:0.8;" x="116.64" xlink:href="#mae92c03761" y="63.38548"/>
      </g>
     </g>
     <g id="text_17">
      <!-- 0.34 -->
      <g transform="translate(87.374375 67.184699)scale(0.1 -0.1)">
       <use xlink:href="#DejaVuSans-48"/>
       <use x="63.623047" xlink:href="#DejaVuSans-46"/>
       <use x="95.410156" xlink:href="#DejaVuSans-51"/>
       <use x="159.033203" xlink:href="#DejaVuSans-52"/>
      </g>
     </g>
    </g>
    <g id="text_18">
     <!-- exponent -->
     <defs>
      <path d="M 54.890625 54.6875 
L 35.109375 28.078125 
L 55.90625 0 
L 45.3125 0 
L 29.390625 21.484375 
L 13.484375 0 
L 2.875 0 
L 24.125 28.609375 
L 4.6875 54.6875 
L 15.28125 54.6875 
L 29.78125 35.203125 
L 44.28125 54.6875 
z
" id="DejaVuSans-120"/>
      <path d="M 30.609375 48.390625 
Q 23.390625 48.390625 19.1875 42.75 
Q 14.984375 37.109375 14.984375 27.296875 
Q 14.984375 17.484375 19.15625 11.84375 
Q 23.34375 6.203125 30.609375 6.203125 
Q 37.796875 6.203125 41.984375 11.859375 
Q 46.1875 17.53125 46.1875 27.296875 
Q 46.1875 37.015625 41.984375 42.703125 
Q 37.796875 48.390625 30.609375 48.390625 
z
M 30.609375 56 
Q 42.328125 56 49.015625 48.375 
Q 55.71875 40.765625 55.71875 27.296875 
Q 55.71875 13.875 49.015625 6.21875 
Q 42.328125 -1.421875 30.609375 -1.421875 
Q 18.84375 -1.421875 12.171875 6.21875 
Q 5.515625 13.875 5.515625 27.296875 
Q 5.515625 40.765625 12.171875 48.375 
Q 18.84375 56 30.609375 56 
z
" id="DejaVuSans-111"/>
     </defs>
     <g transform="translate(81.294688 267.254969)rotate(-90)scale(0.1 -0.1)">
      <use xlink:href="#DejaVuSans-101"/>
      <use x="61.507812" xlink:href="#DejaVuSans-120"/>
      <use x="120.6875" xlink:href="#DejaVuSans-112"/>
      <use x="184.164062" xlink:href="#DejaVuSans-111"/>
      <use x="245.345703" xlink:href="#DejaVuSans-110"/>
      <use x="308.724609" xlink:href="#DejaVuSans-101"/>
      <use x="370.248047" xlink:href="#DejaVuSans-110"/>
      <use x="433.626953" xlink:href="#DejaVuSans-116"/>
     </g>
    </g>
   </g>
   <g id="patch_21">
    <path d="M 116.64 429.336 
L 116.64 57.888 
" style="fill:none;stroke:#000000;stroke-linecap:square;stroke-linejoin:miter;stroke-width:0.8;"/>
   </g>
   <g id="patch_22">
    <path d="M 839.808 429.336 
L 839.808 57.888 
" style="fill:none;stroke:#000000;stroke-linecap:square;stroke-linejoin:miter;stroke-width:0.8;"/>
   </g>
   <g id="patch_23">
    <path d="M 116.64 429.336 
L 839.808 429.336 
" style="fill:none;stroke:#000000;stroke-linecap:square;stroke-linejoin:miter;stroke-width:0.8;"/>
   </g>
   <g id="patch_24">
    <path d="M 116.64 57.888 
L 839.808 57.888 
" style="fill:none;stroke:#000000;stroke-linecap:square;stroke-linejoin:miter;stroke-width:0.8;"/>
   </g>
   <g id="text_19">
    <!-- 2020-03-17 -->
    <defs>
     <path d="M 4.890625 31.390625 
L 31.203125 31.390625 
L 31.203125 23.390625 
L 4.890625 23.390625 
z
" id="DejaVuSans-45"/>
    </defs>
    <g transform="translate(142.012164 83.978968)scale(0.1 -0.1)">
     <use xlink:href="#DejaVuSans-50"/>
     <use x="63.623047" xlink:href="#DejaVuSans-48"/>
     <use x="127.246094" xlink:href="#DejaVuSans-50"/>
     <use x="190.869141" xlink:href="#DejaVuSans-48"/>
     <use x="254.492188" xlink:href="#DejaVuSans-45"/>
     <use x="290.576172" xlink:href="#DejaVuSans-48"/>
     <use x="354.199219" xlink:href="#DejaVuSans-51"/>
     <use x="417.822266" xlink:href="#DejaVuSans-45"/>
     <use x="453.90625" xlink:href="#DejaVuSans-49"/>
     <use x="517.529297" xlink:href="#DejaVuSans-55"/>
    </g>
   </g>
   <g id="text_20">
    <!-- 2020-03-18 -->
    <g transform="translate(168.500203 104.083543)scale(0.1 -0.1)">
     <use xlink:href="#DejaVuSans-50"/>
     <use x="63.623047" xlink:href="#DejaVuSans-48"/>
     <use x="127.246094" xlink:href="#DejaVuSans-50"/>
     <use x="190.869141" xlink:href="#DejaVuSans-48"/>
     <use x="254.492188" xlink:href="#DejaVuSans-45"/>
     <use x="290.576172" xlink:href="#DejaVuSans-48"/>
     <use x="354.199219" xlink:href="#DejaVuSans-51"/>
     <use x="417.822266" xlink:href="#DejaVuSans-45"/>
     <use x="453.90625" xlink:href="#DejaVuSans-49"/>
     <use x="517.529297" xlink:href="#DejaVuSans-56"/>
    </g>
   </g>
   <g id="text_21">
    <!-- 2020-03-19 -->
    <g transform="translate(199.237568 125.858058)scale(0.1 -0.1)">
     <use xlink:href="#DejaVuSans-50"/>
     <use x="63.623047" xlink:href="#DejaVuSans-48"/>
     <use x="127.246094" xlink:href="#DejaVuSans-50"/>
     <use x="190.869141" xlink:href="#DejaVuSans-48"/>
     <use x="254.492188" xlink:href="#DejaVuSans-45"/>
     <use x="290.576172" xlink:href="#DejaVuSans-48"/>
     <use x="354.199219" xlink:href="#DejaVuSans-51"/>
     <use x="417.822266" xlink:href="#DejaVuSans-45"/>
     <use x="453.90625" xlink:href="#DejaVuSans-49"/>
     <use x="517.529297" xlink:href="#DejaVuSans-57"/>
    </g>
   </g>
   <g id="text_22">
    <!-- 2020-03-20 -->
    <g transform="translate(224.745703 142.798776)scale(0.1 -0.1)">
     <use xlink:href="#DejaVuSans-50"/>
     <use x="63.623047" xlink:href="#DejaVuSans-48"/>
     <use x="127.246094" xlink:href="#DejaVuSans-50"/>
     <use x="190.869141" xlink:href="#DejaVuSans-48"/>
     <use x="254.492188" xlink:href="#DejaVuSans-45"/>
     <use x="290.576172" xlink:href="#DejaVuSans-48"/>
     <use x="354.199219" xlink:href="#DejaVuSans-51"/>
     <use x="417.822266" xlink:href="#DejaVuSans-45"/>
     <use x="453.90625" xlink:href="#DejaVuSans-50"/>
     <use x="517.529297" xlink:href="#DejaVuSans-48"/>
    </g>
   </g>
   <g id="text_23">
    <!-- 2020-03-21 -->
    <g transform="translate(247.605388 157.087532)scale(0.1 -0.1)">
     <use xlink:href="#DejaVuSans-50"/>
     <use x="63.623047" xlink:href="#DejaVuSans-48"/>
     <use x="127.246094" xlink:href="#DejaVuSans-50"/>
     <use x="190.869141" xlink:href="#DejaVuSans-48"/>
     <use x="254.492188" xlink:href="#DejaVuSans-45"/>
     <use x="290.576172" xlink:href="#DejaVuSans-48"/>
     <use x="354.199219" xlink:href="#DejaVuSans-51"/>
     <use x="417.822266" xlink:href="#DejaVuSans-45"/>
     <use x="453.90625" xlink:href="#DejaVuSans-50"/>
     <use x="517.529297" xlink:href="#DejaVuSans-49"/>
    </g>
   </g>
   <g id="text_24">
    <!-- 2020-03-22 -->
    <g transform="translate(280.02585 176.226558)scale(0.1 -0.1)">
     <use xlink:href="#DejaVuSans-50"/>
     <use x="63.623047" xlink:href="#DejaVuSans-48"/>
     <use x="127.246094" xlink:href="#DejaVuSans-50"/>
     <use x="190.869141" xlink:href="#DejaVuSans-48"/>
     <use x="254.492188" xlink:href="#DejaVuSans-45"/>
     <use x="290.576172" xlink:href="#DejaVuSans-48"/>
     <use x="354.199219" xlink:href="#DejaVuSans-51"/>
     <use x="417.822266" xlink:href="#DejaVuSans-45"/>
     <use x="453.90625" xlink:href="#DejaVuSans-50"/>
     <use x="517.529297" xlink:href="#DejaVuSans-50"/>
    </g>
   </g>
   <g id="text_25">
    <!-- 2020-03-23 -->
    <g transform="translate(314.941051 195.753492)scale(0.1 -0.1)">
     <use xlink:href="#DejaVuSans-50"/>
     <use x="63.623047" xlink:href="#DejaVuSans-48"/>
     <use x="127.246094" xlink:href="#DejaVuSans-50"/>
     <use x="190.869141" xlink:href="#DejaVuSans-48"/>
     <use x="254.492188" xlink:href="#DejaVuSans-45"/>
     <use x="290.576172" xlink:href="#DejaVuSans-48"/>
     <use x="354.199219" xlink:href="#DejaVuSans-51"/>
     <use x="417.822266" xlink:href="#DejaVuSans-45"/>
     <use x="453.90625" xlink:href="#DejaVuSans-50"/>
     <use x="517.529297" xlink:href="#DejaVuSans-51"/>
    </g>
   </g>
   <g id="text_26">
    <!-- 2020-03-24 -->
    <g transform="translate(357.693533 218.468058)scale(0.1 -0.1)">
     <use xlink:href="#DejaVuSans-50"/>
     <use x="63.623047" xlink:href="#DejaVuSans-48"/>
     <use x="127.246094" xlink:href="#DejaVuSans-50"/>
     <use x="190.869141" xlink:href="#DejaVuSans-48"/>
     <use x="254.492188" xlink:href="#DejaVuSans-45"/>
     <use x="290.576172" xlink:href="#DejaVuSans-48"/>
     <use x="354.199219" xlink:href="#DejaVuSans-51"/>
     <use x="417.822266" xlink:href="#DejaVuSans-45"/>
     <use x="453.90625" xlink:href="#DejaVuSans-50"/>
     <use x="517.529297" xlink:href="#DejaVuSans-52"/>
    </g>
   </g>
   <g id="text_27">
    <!-- 2020-03-25 -->
    <g transform="translate(402.13718 240.956715)scale(0.1 -0.1)">
     <use xlink:href="#DejaVuSans-50"/>
     <use x="63.623047" xlink:href="#DejaVuSans-48"/>
     <use x="127.246094" xlink:href="#DejaVuSans-50"/>
     <use x="190.869141" xlink:href="#DejaVuSans-48"/>
     <use x="254.492188" xlink:href="#DejaVuSans-45"/>
     <use x="290.576172" xlink:href="#DejaVuSans-48"/>
     <use x="354.199219" xlink:href="#DejaVuSans-51"/>
     <use x="417.822266" xlink:href="#DejaVuSans-45"/>
     <use x="453.90625" xlink:href="#DejaVuSans-50"/>
     <use x="517.529297" xlink:href="#DejaVuSans-53"/>
    </g>
   </g>
   <g id="text_28">
    <!-- 2020-03-26 -->
    <g transform="translate(444.394226 261.367023)scale(0.1 -0.1)">
     <use xlink:href="#DejaVuSans-50"/>
     <use x="63.623047" xlink:href="#DejaVuSans-48"/>
     <use x="127.246094" xlink:href="#DejaVuSans-50"/>
     <use x="190.869141" xlink:href="#DejaVuSans-48"/>
     <use x="254.492188" xlink:href="#DejaVuSans-45"/>
     <use x="290.576172" xlink:href="#DejaVuSans-48"/>
     <use x="354.199219" xlink:href="#DejaVuSans-51"/>
     <use x="417.822266" xlink:href="#DejaVuSans-45"/>
     <use x="453.90625" xlink:href="#DejaVuSans-50"/>
     <use x="517.529297" xlink:href="#DejaVuSans-54"/>
    </g>
   </g>
   <g id="text_29">
    <!-- 2020-03-27 -->
    <g transform="translate(481.694191 278.599738)scale(0.1 -0.1)">
     <use xlink:href="#DejaVuSans-50"/>
     <use x="63.623047" xlink:href="#DejaVuSans-48"/>
     <use x="127.246094" xlink:href="#DejaVuSans-50"/>
     <use x="190.869141" xlink:href="#DejaVuSans-48"/>
     <use x="254.492188" xlink:href="#DejaVuSans-45"/>
     <use x="290.576172" xlink:href="#DejaVuSans-48"/>
     <use x="354.199219" xlink:href="#DejaVuSans-51"/>
     <use x="417.822266" xlink:href="#DejaVuSans-45"/>
     <use x="453.90625" xlink:href="#DejaVuSans-50"/>
     <use x="517.529297" xlink:href="#DejaVuSans-55"/>
    </g>
   </g>
   <g id="text_30">
    <!-- 2020-03-28 -->
    <g transform="translate(521.516494 296.231197)scale(0.1 -0.1)">
     <use xlink:href="#DejaVuSans-50"/>
     <use x="63.623047" xlink:href="#DejaVuSans-48"/>
     <use x="127.246094" xlink:href="#DejaVuSans-50"/>
     <use x="190.869141" xlink:href="#DejaVuSans-48"/>
     <use x="254.492188" xlink:href="#DejaVuSans-45"/>
     <use x="290.576172" xlink:href="#DejaVuSans-48"/>
     <use x="354.199219" xlink:href="#DejaVuSans-51"/>
     <use x="417.822266" xlink:href="#DejaVuSans-45"/>
     <use x="453.90625" xlink:href="#DejaVuSans-50"/>
     <use x="517.529297" xlink:href="#DejaVuSans-56"/>
    </g>
   </g>
   <g id="text_31">
    <!-- 2020-03-29 -->
    <g transform="translate(560.01189 312.593405)scale(0.1 -0.1)">
     <use xlink:href="#DejaVuSans-50"/>
     <use x="63.623047" xlink:href="#DejaVuSans-48"/>
     <use x="127.246094" xlink:href="#DejaVuSans-50"/>
     <use x="190.869141" xlink:href="#DejaVuSans-48"/>
     <use x="254.492188" xlink:href="#DejaVuSans-45"/>
     <use x="290.576172" xlink:href="#DejaVuSans-48"/>
     <use x="354.199219" xlink:href="#DejaVuSans-51"/>
     <use x="417.822266" xlink:href="#DejaVuSans-45"/>
     <use x="453.90625" xlink:href="#DejaVuSans-50"/>
     <use x="517.529297" xlink:href="#DejaVuSans-57"/>
    </g>
   </g>
   <g id="text_32">
    <!-- 2020-03-30 -->
    <g transform="translate(602.152866 329.816228)scale(0.1 -0.1)">
     <use xlink:href="#DejaVuSans-50"/>
     <use x="63.623047" xlink:href="#DejaVuSans-48"/>
     <use x="127.246094" xlink:href="#DejaVuSans-50"/>
     <use x="190.869141" xlink:href="#DejaVuSans-48"/>
     <use x="254.492188" xlink:href="#DejaVuSans-45"/>
     <use x="290.576172" xlink:href="#DejaVuSans-48"/>
     <use x="354.199219" xlink:href="#DejaVuSans-51"/>
     <use x="417.822266" xlink:href="#DejaVuSans-45"/>
     <use x="453.90625" xlink:href="#DejaVuSans-51"/>
     <use x="517.529297" xlink:href="#DejaVuSans-48"/>
    </g>
   </g>
   <g id="text_33">
    <!-- 2020-03-31 -->
    <g transform="translate(647.001438 347.466767)scale(0.1 -0.1)">
     <use xlink:href="#DejaVuSans-50"/>
     <use x="63.623047" xlink:href="#DejaVuSans-48"/>
     <use x="127.246094" xlink:href="#DejaVuSans-50"/>
     <use x="190.869141" xlink:href="#DejaVuSans-48"/>
     <use x="254.492188" xlink:href="#DejaVuSans-45"/>
     <use x="290.576172" xlink:href="#DejaVuSans-48"/>
     <use x="354.199219" xlink:href="#DejaVuSans-51"/>
     <use x="417.822266" xlink:href="#DejaVuSans-45"/>
     <use x="453.90625" xlink:href="#DejaVuSans-51"/>
     <use x="517.529297" xlink:href="#DejaVuSans-49"/>
    </g>
   </g>
   <g id="text_34">
    <!-- 2020-04-01 -->
    <g transform="translate(691.903221 364.507123)scale(0.1 -0.1)">
     <use xlink:href="#DejaVuSans-50"/>
     <use x="63.623047" xlink:href="#DejaVuSans-48"/>
     <use x="127.246094" xlink:href="#DejaVuSans-50"/>
     <use x="190.869141" xlink:href="#DejaVuSans-48"/>
     <use x="254.492188" xlink:href="#DejaVuSans-45"/>
     <use x="290.576172" xlink:href="#DejaVuSans-48"/>
     <use x="354.199219" xlink:href="#DejaVuSans-52"/>
     <use x="417.822266" xlink:href="#DejaVuSans-45"/>
     <use x="453.90625" xlink:href="#DejaVuSans-48"/>
     <use x="517.529297" xlink:href="#DejaVuSans-49"/>
    </g>
   </g>
   <g id="text_35">
    <!-- 2020-04-02 -->
    <g transform="translate(737.320388 381.148726)scale(0.1 -0.1)">
     <use xlink:href="#DejaVuSans-50"/>
     <use x="63.623047" xlink:href="#DejaVuSans-48"/>
     <use x="127.246094" xlink:href="#DejaVuSans-50"/>
     <use x="190.869141" xlink:href="#DejaVuSans-48"/>
     <use x="254.492188" xlink:href="#DejaVuSans-45"/>
     <use x="290.576172" xlink:href="#DejaVuSans-48"/>
     <use x="354.199219" xlink:href="#DejaVuSans-52"/>
     <use x="417.822266" xlink:href="#DejaVuSans-45"/>
     <use x="453.90625" xlink:href="#DejaVuSans-48"/>
     <use x="517.529297" xlink:href="#DejaVuSans-50"/>
    </g>
   </g>
   <g id="text_36">
    <!-- 2020-04-03 -->
    <g transform="translate(783.334473 397.447039)scale(0.1 -0.1)">
     <use xlink:href="#DejaVuSans-50"/>
     <use x="63.623047" xlink:href="#DejaVuSans-48"/>
     <use x="127.246094" xlink:href="#DejaVuSans-50"/>
     <use x="190.869141" xlink:href="#DejaVuSans-48"/>
     <use x="254.492188" xlink:href="#DejaVuSans-45"/>
     <use x="290.576172" xlink:href="#DejaVuSans-48"/>
     <use x="354.199219" xlink:href="#DejaVuSans-52"/>
     <use x="417.822266" xlink:href="#DejaVuSans-45"/>
     <use x="453.90625" xlink:href="#DejaVuSans-48"/>
     <use x="517.529297" xlink:href="#DejaVuSans-51"/>
    </g>
   </g>
   <g id="text_37">
    <!-- https://github.com/PavelDusek/COVID-19 -->
    <defs>
     <path d="M 54.890625 33.015625 
L 54.890625 0 
L 45.90625 0 
L 45.90625 32.71875 
Q 45.90625 40.484375 42.875 44.328125 
Q 39.84375 48.1875 33.796875 48.1875 
Q 26.515625 48.1875 22.3125 43.546875 
Q 18.109375 38.921875 18.109375 30.90625 
L 18.109375 0 
L 9.078125 0 
L 9.078125 75.984375 
L 18.109375 75.984375 
L 18.109375 46.1875 
Q 21.34375 51.125 25.703125 53.5625 
Q 30.078125 56 35.796875 56 
Q 45.21875 56 50.046875 50.171875 
Q 54.890625 44.34375 54.890625 33.015625 
z
" id="DejaVuSans-104"/>
     <path d="M 44.28125 53.078125 
L 44.28125 44.578125 
Q 40.484375 46.53125 36.375 47.5 
Q 32.28125 48.484375 27.875 48.484375 
Q 21.1875 48.484375 17.84375 46.4375 
Q 14.5 44.390625 14.5 40.28125 
Q 14.5 37.15625 16.890625 35.375 
Q 19.28125 33.59375 26.515625 31.984375 
L 29.59375 31.296875 
Q 39.15625 29.25 43.1875 25.515625 
Q 47.21875 21.78125 47.21875 15.09375 
Q 47.21875 7.46875 41.1875 3.015625 
Q 35.15625 -1.421875 24.609375 -1.421875 
Q 20.21875 -1.421875 15.453125 -0.5625 
Q 10.6875 0.296875 5.421875 2 
L 5.421875 11.28125 
Q 10.40625 8.6875 15.234375 7.390625 
Q 20.0625 6.109375 24.8125 6.109375 
Q 31.15625 6.109375 34.5625 8.28125 
Q 37.984375 10.453125 37.984375 14.40625 
Q 37.984375 18.0625 35.515625 20.015625 
Q 33.0625 21.96875 24.703125 23.78125 
L 21.578125 24.515625 
Q 13.234375 26.265625 9.515625 29.90625 
Q 5.8125 33.546875 5.8125 39.890625 
Q 5.8125 47.609375 11.28125 51.796875 
Q 16.75 56 26.8125 56 
Q 31.78125 56 36.171875 55.265625 
Q 40.578125 54.546875 44.28125 53.078125 
z
" id="DejaVuSans-115"/>
     <path d="M 11.71875 12.40625 
L 22.015625 12.40625 
L 22.015625 0 
L 11.71875 0 
z
M 11.71875 51.703125 
L 22.015625 51.703125 
L 22.015625 39.3125 
L 11.71875 39.3125 
z
" id="DejaVuSans-58"/>
     <path d="M 25.390625 72.90625 
L 33.6875 72.90625 
L 8.296875 -9.28125 
L 0 -9.28125 
z
" id="DejaVuSans-47"/>
     <path d="M 45.40625 27.984375 
Q 45.40625 37.75 41.375 43.109375 
Q 37.359375 48.484375 30.078125 48.484375 
Q 22.859375 48.484375 18.828125 43.109375 
Q 14.796875 37.75 14.796875 27.984375 
Q 14.796875 18.265625 18.828125 12.890625 
Q 22.859375 7.515625 30.078125 7.515625 
Q 37.359375 7.515625 41.375 12.890625 
Q 45.40625 18.265625 45.40625 27.984375 
z
M 54.390625 6.78125 
Q 54.390625 -7.171875 48.1875 -13.984375 
Q 42 -20.796875 29.203125 -20.796875 
Q 24.46875 -20.796875 20.265625 -20.09375 
Q 16.0625 -19.390625 12.109375 -17.921875 
L 12.109375 -9.1875 
Q 16.0625 -11.328125 19.921875 -12.34375 
Q 23.78125 -13.375 27.78125 -13.375 
Q 36.625 -13.375 41.015625 -8.765625 
Q 45.40625 -4.15625 45.40625 5.171875 
L 45.40625 9.625 
Q 42.625 4.78125 38.28125 2.390625 
Q 33.9375 0 27.875 0 
Q 17.828125 0 11.671875 7.65625 
Q 5.515625 15.328125 5.515625 27.984375 
Q 5.515625 40.671875 11.671875 48.328125 
Q 17.828125 56 27.875 56 
Q 33.9375 56 38.28125 53.609375 
Q 42.625 51.21875 45.40625 46.390625 
L 45.40625 54.6875 
L 54.390625 54.6875 
z
" id="DejaVuSans-103"/>
     <path d="M 8.5 21.578125 
L 8.5 54.6875 
L 17.484375 54.6875 
L 17.484375 21.921875 
Q 17.484375 14.15625 20.5 10.265625 
Q 23.53125 6.390625 29.59375 6.390625 
Q 36.859375 6.390625 41.078125 11.03125 
Q 45.3125 15.671875 45.3125 23.6875 
L 45.3125 54.6875 
L 54.296875 54.6875 
L 54.296875 0 
L 45.3125 0 
L 45.3125 8.40625 
Q 42.046875 3.421875 37.71875 1 
Q 33.40625 -1.421875 27.6875 -1.421875 
Q 18.265625 -1.421875 13.375 4.4375 
Q 8.5 10.296875 8.5 21.578125 
z
M 31.109375 56 
z
" id="DejaVuSans-117"/>
     <path d="M 48.6875 27.296875 
Q 48.6875 37.203125 44.609375 42.84375 
Q 40.53125 48.484375 33.40625 48.484375 
Q 26.265625 48.484375 22.1875 42.84375 
Q 18.109375 37.203125 18.109375 27.296875 
Q 18.109375 17.390625 22.1875 11.75 
Q 26.265625 6.109375 33.40625 6.109375 
Q 40.53125 6.109375 44.609375 11.75 
Q 48.6875 17.390625 48.6875 27.296875 
z
M 18.109375 46.390625 
Q 20.953125 51.265625 25.265625 53.625 
Q 29.59375 56 35.59375 56 
Q 45.5625 56 51.78125 48.09375 
Q 58.015625 40.1875 58.015625 27.296875 
Q 58.015625 14.40625 51.78125 6.484375 
Q 45.5625 -1.421875 35.59375 -1.421875 
Q 29.59375 -1.421875 25.265625 0.953125 
Q 20.953125 3.328125 18.109375 8.203125 
L 18.109375 0 
L 9.078125 0 
L 9.078125 75.984375 
L 18.109375 75.984375 
z
" id="DejaVuSans-98"/>
     <path d="M 52 44.1875 
Q 55.375 50.25 60.0625 53.125 
Q 64.75 56 71.09375 56 
Q 79.640625 56 84.28125 50.015625 
Q 88.921875 44.046875 88.921875 33.015625 
L 88.921875 0 
L 79.890625 0 
L 79.890625 32.71875 
Q 79.890625 40.578125 77.09375 44.375 
Q 74.3125 48.1875 68.609375 48.1875 
Q 61.625 48.1875 57.5625 43.546875 
Q 53.515625 38.921875 53.515625 30.90625 
L 53.515625 0 
L 44.484375 0 
L 44.484375 32.71875 
Q 44.484375 40.625 41.703125 44.40625 
Q 38.921875 48.1875 33.109375 48.1875 
Q 26.21875 48.1875 22.15625 43.53125 
Q 18.109375 38.875 18.109375 30.90625 
L 18.109375 0 
L 9.078125 0 
L 9.078125 54.6875 
L 18.109375 54.6875 
L 18.109375 46.1875 
Q 21.1875 51.21875 25.484375 53.609375 
Q 29.78125 56 35.6875 56 
Q 41.65625 56 45.828125 52.96875 
Q 50 49.953125 52 44.1875 
z
" id="DejaVuSans-109"/>
     <path d="M 19.671875 64.796875 
L 19.671875 37.40625 
L 32.078125 37.40625 
Q 38.96875 37.40625 42.71875 40.96875 
Q 46.484375 44.53125 46.484375 51.125 
Q 46.484375 57.671875 42.71875 61.234375 
Q 38.96875 64.796875 32.078125 64.796875 
z
M 9.8125 72.90625 
L 32.078125 72.90625 
Q 44.34375 72.90625 50.609375 67.359375 
Q 56.890625 61.8125 56.890625 51.125 
Q 56.890625 40.328125 50.609375 34.8125 
Q 44.34375 29.296875 32.078125 29.296875 
L 19.671875 29.296875 
L 19.671875 0 
L 9.8125 0 
z
" id="DejaVuSans-80"/>
     <path d="M 34.28125 27.484375 
Q 23.390625 27.484375 19.1875 25 
Q 14.984375 22.515625 14.984375 16.5 
Q 14.984375 11.71875 18.140625 8.90625 
Q 21.296875 6.109375 26.703125 6.109375 
Q 34.1875 6.109375 38.703125 11.40625 
Q 43.21875 16.703125 43.21875 25.484375 
L 43.21875 27.484375 
z
M 52.203125 31.203125 
L 52.203125 0 
L 43.21875 0 
L 43.21875 8.296875 
Q 40.140625 3.328125 35.546875 0.953125 
Q 30.953125 -1.421875 24.3125 -1.421875 
Q 15.921875 -1.421875 10.953125 3.296875 
Q 6 8.015625 6 15.921875 
Q 6 25.140625 12.171875 29.828125 
Q 18.359375 34.515625 30.609375 34.515625 
L 43.21875 34.515625 
L 43.21875 35.40625 
Q 43.21875 41.609375 39.140625 45 
Q 35.0625 48.390625 27.6875 48.390625 
Q 23 48.390625 18.546875 47.265625 
Q 14.109375 46.140625 10.015625 43.890625 
L 10.015625 52.203125 
Q 14.9375 54.109375 19.578125 55.046875 
Q 24.21875 56 28.609375 56 
Q 40.484375 56 46.34375 49.84375 
Q 52.203125 43.703125 52.203125 31.203125 
z
" id="DejaVuSans-97"/>
     <path d="M 2.984375 54.6875 
L 12.5 54.6875 
L 29.59375 8.796875 
L 46.6875 54.6875 
L 56.203125 54.6875 
L 35.6875 0 
L 23.484375 0 
z
" id="DejaVuSans-118"/>
     <path d="M 9.421875 75.984375 
L 18.40625 75.984375 
L 18.40625 0 
L 9.421875 0 
z
" id="DejaVuSans-108"/>
     <path d="M 19.671875 64.796875 
L 19.671875 8.109375 
L 31.59375 8.109375 
Q 46.6875 8.109375 53.6875 14.9375 
Q 60.6875 21.78125 60.6875 36.53125 
Q 60.6875 51.171875 53.6875 57.984375 
Q 46.6875 64.796875 31.59375 64.796875 
z
M 9.8125 72.90625 
L 30.078125 72.90625 
Q 51.265625 72.90625 61.171875 64.09375 
Q 71.09375 55.28125 71.09375 36.53125 
Q 71.09375 17.671875 61.125 8.828125 
Q 51.171875 0 30.078125 0 
L 9.8125 0 
z
" id="DejaVuSans-68"/>
     <path d="M 9.078125 75.984375 
L 18.109375 75.984375 
L 18.109375 31.109375 
L 44.921875 54.6875 
L 56.390625 54.6875 
L 27.390625 29.109375 
L 57.625 0 
L 45.90625 0 
L 18.109375 26.703125 
L 18.109375 0 
L 9.078125 0 
z
" id="DejaVuSans-107"/>
     <path d="M 64.40625 67.28125 
L 64.40625 56.890625 
Q 59.421875 61.53125 53.78125 63.8125 
Q 48.140625 66.109375 41.796875 66.109375 
Q 29.296875 66.109375 22.65625 58.46875 
Q 16.015625 50.828125 16.015625 36.375 
Q 16.015625 21.96875 22.65625 14.328125 
Q 29.296875 6.6875 41.796875 6.6875 
Q 48.140625 6.6875 53.78125 8.984375 
Q 59.421875 11.28125 64.40625 15.921875 
L 64.40625 5.609375 
Q 59.234375 2.09375 53.4375 0.328125 
Q 47.65625 -1.421875 41.21875 -1.421875 
Q 24.65625 -1.421875 15.125 8.703125 
Q 5.609375 18.84375 5.609375 36.375 
Q 5.609375 53.953125 15.125 64.078125 
Q 24.65625 74.21875 41.21875 74.21875 
Q 47.75 74.21875 53.53125 72.484375 
Q 59.328125 70.75 64.40625 67.28125 
z
" id="DejaVuSans-67"/>
     <path d="M 39.40625 66.21875 
Q 28.65625 66.21875 22.328125 58.203125 
Q 16.015625 50.203125 16.015625 36.375 
Q 16.015625 22.609375 22.328125 14.59375 
Q 28.65625 6.59375 39.40625 6.59375 
Q 50.140625 6.59375 56.421875 14.59375 
Q 62.703125 22.609375 62.703125 36.375 
Q 62.703125 50.203125 56.421875 58.203125 
Q 50.140625 66.21875 39.40625 66.21875 
z
M 39.40625 74.21875 
Q 54.734375 74.21875 63.90625 63.9375 
Q 73.09375 53.65625 73.09375 36.375 
Q 73.09375 19.140625 63.90625 8.859375 
Q 54.734375 -1.421875 39.40625 -1.421875 
Q 24.03125 -1.421875 14.8125 8.828125 
Q 5.609375 19.09375 5.609375 36.375 
Q 5.609375 53.65625 14.8125 63.9375 
Q 24.03125 74.21875 39.40625 74.21875 
z
" id="DejaVuSans-79"/>
     <path d="M 28.609375 0 
L 0.78125 72.90625 
L 11.078125 72.90625 
L 34.1875 11.53125 
L 57.328125 72.90625 
L 67.578125 72.90625 
L 39.796875 0 
z
" id="DejaVuSans-86"/>
     <path d="M 9.8125 72.90625 
L 19.671875 72.90625 
L 19.671875 0 
L 9.8125 0 
z
" id="DejaVuSans-73"/>
    </defs>
    <g transform="translate(354.591188 25.01325)scale(0.12 -0.12)">
     <use xlink:href="#DejaVuSans-104"/>
     <use x="63.378906" xlink:href="#DejaVuSans-116"/>
     <use x="102.587891" xlink:href="#DejaVuSans-116"/>
     <use x="141.796875" xlink:href="#DejaVuSans-112"/>
     <use x="205.273438" xlink:href="#DejaVuSans-115"/>
     <use x="257.373047" xlink:href="#DejaVuSans-58"/>
     <use x="291.064453" xlink:href="#DejaVuSans-47"/>
     <use x="324.755859" xlink:href="#DejaVuSans-47"/>
     <use x="358.447266" xlink:href="#DejaVuSans-103"/>
     <use x="421.923828" xlink:href="#DejaVuSans-105"/>
     <use x="449.707031" xlink:href="#DejaVuSans-116"/>
     <use x="488.916016" xlink:href="#DejaVuSans-104"/>
     <use x="552.294922" xlink:href="#DejaVuSans-117"/>
     <use x="615.673828" xlink:href="#DejaVuSans-98"/>
     <use x="679.150391" xlink:href="#DejaVuSans-46"/>
     <use x="710.9375" xlink:href="#DejaVuSans-99"/>
     <use x="765.917969" xlink:href="#DejaVuSans-111"/>
     <use x="827.099609" xlink:href="#DejaVuSans-109"/>
     <use x="924.511719" xlink:href="#DejaVuSans-47"/>
     <use x="958.203125" xlink:href="#DejaVuSans-80"/>
     <use x="1018.443359" xlink:href="#DejaVuSans-97"/>
     <use x="1079.722656" xlink:href="#DejaVuSans-118"/>
     <use x="1138.902344" xlink:href="#DejaVuSans-101"/>
     <use x="1200.425781" xlink:href="#DejaVuSans-108"/>
     <use x="1228.208984" xlink:href="#DejaVuSans-68"/>
     <use x="1305.210938" xlink:href="#DejaVuSans-117"/>
     <use x="1368.589844" xlink:href="#DejaVuSans-115"/>
     <use x="1420.689453" xlink:href="#DejaVuSans-101"/>
     <use x="1482.212891" xlink:href="#DejaVuSans-107"/>
     <use x="1540.123047" xlink:href="#DejaVuSans-47"/>
     <use x="1573.814453" xlink:href="#DejaVuSans-67"/>
     <use x="1643.638672" xlink:href="#DejaVuSans-79"/>
     <use x="1722.333984" xlink:href="#DejaVuSans-86"/>
     <use x="1790.742188" xlink:href="#DejaVuSans-73"/>
     <use x="1820.234375" xlink:href="#DejaVuSans-68"/>
     <use x="1897.236328" xlink:href="#DejaVuSans-45"/>
     <use x="1933.320312" xlink:href="#DejaVuSans-49"/>
     <use x="1996.943359" xlink:href="#DejaVuSans-57"/>
    </g>
    <!-- COVID-19 in the Czech Republic -->
    <defs>
     <path id="DejaVuSans-32"/>
     <path d="M 5.515625 54.6875 
L 48.1875 54.6875 
L 48.1875 46.484375 
L 14.40625 7.171875 
L 48.1875 7.171875 
L 48.1875 0 
L 4.296875 0 
L 4.296875 8.203125 
L 38.09375 47.515625 
L 5.515625 47.515625 
z
" id="DejaVuSans-122"/>
     <path d="M 44.390625 34.1875 
Q 47.5625 33.109375 50.5625 29.59375 
Q 53.5625 26.078125 56.59375 19.921875 
L 66.609375 0 
L 56 0 
L 46.6875 18.703125 
Q 43.0625 26.03125 39.671875 28.421875 
Q 36.28125 30.8125 30.421875 30.8125 
L 19.671875 30.8125 
L 19.671875 0 
L 9.8125 0 
L 9.8125 72.90625 
L 32.078125 72.90625 
Q 44.578125 72.90625 50.734375 67.671875 
Q 56.890625 62.453125 56.890625 51.90625 
Q 56.890625 45.015625 53.6875 40.46875 
Q 50.484375 35.9375 44.390625 34.1875 
z
M 19.671875 64.796875 
L 19.671875 38.921875 
L 32.078125 38.921875 
Q 39.203125 38.921875 42.84375 42.21875 
Q 46.484375 45.515625 46.484375 51.90625 
Q 46.484375 58.296875 42.84375 61.546875 
Q 39.203125 64.796875 32.078125 64.796875 
z
" id="DejaVuSans-82"/>
    </defs>
    <g transform="translate(382.031813 38.450625)scale(0.12 -0.12)">
     <use xlink:href="#DejaVuSans-67"/>
     <use x="69.824219" xlink:href="#DejaVuSans-79"/>
     <use x="148.519531" xlink:href="#DejaVuSans-86"/>
     <use x="216.927734" xlink:href="#DejaVuSans-73"/>
     <use x="246.419922" xlink:href="#DejaVuSans-68"/>
     <use x="323.421875" xlink:href="#DejaVuSans-45"/>
     <use x="359.505859" xlink:href="#DejaVuSans-49"/>
     <use x="423.128906" xlink:href="#DejaVuSans-57"/>
     <use x="486.751953" xlink:href="#DejaVuSans-32"/>
     <use x="518.539062" xlink:href="#DejaVuSans-105"/>
     <use x="546.322266" xlink:href="#DejaVuSans-110"/>
     <use x="609.701172" xlink:href="#DejaVuSans-32"/>
     <use x="641.488281" xlink:href="#DejaVuSans-116"/>
     <use x="680.697266" xlink:href="#DejaVuSans-104"/>
     <use x="744.076172" xlink:href="#DejaVuSans-101"/>
     <use x="805.599609" xlink:href="#DejaVuSans-32"/>
     <use x="837.386719" xlink:href="#DejaVuSans-67"/>
     <use x="907.210938" xlink:href="#DejaVuSans-122"/>
     <use x="959.701172" xlink:href="#DejaVuSans-101"/>
     <use x="1021.224609" xlink:href="#DejaVuSans-99"/>
     <use x="1076.205078" xlink:href="#DejaVuSans-104"/>
     <use x="1139.583984" xlink:href="#DejaVuSans-32"/>
     <use x="1171.371094" xlink:href="#DejaVuSans-82"/>
     <use x="1240.791016" xlink:href="#DejaVuSans-101"/>
     <use x="1302.314453" xlink:href="#DejaVuSans-112"/>
     <use x="1365.791016" xlink:href="#DejaVuSans-117"/>
     <use x="1429.169922" xlink:href="#DejaVuSans-98"/>
     <use x="1492.646484" xlink:href="#DejaVuSans-108"/>
     <use x="1520.429688" xlink:href="#DejaVuSans-105"/>
     <use x="1548.212891" xlink:href="#DejaVuSans-99"/>
    </g>
    <!-- Evolution of the Exponential Model Parameters by Date -->
    <defs>
     <path d="M 9.8125 72.90625 
L 55.90625 72.90625 
L 55.90625 64.59375 
L 19.671875 64.59375 
L 19.671875 43.015625 
L 54.390625 43.015625 
L 54.390625 34.71875 
L 19.671875 34.71875 
L 19.671875 8.296875 
L 56.78125 8.296875 
L 56.78125 0 
L 9.8125 0 
z
" id="DejaVuSans-69"/>
     <path d="M 37.109375 75.984375 
L 37.109375 68.5 
L 28.515625 68.5 
Q 23.6875 68.5 21.796875 66.546875 
Q 19.921875 64.59375 19.921875 59.515625 
L 19.921875 54.6875 
L 34.71875 54.6875 
L 34.71875 47.703125 
L 19.921875 47.703125 
L 19.921875 0 
L 10.890625 0 
L 10.890625 47.703125 
L 2.296875 47.703125 
L 2.296875 54.6875 
L 10.890625 54.6875 
L 10.890625 58.5 
Q 10.890625 67.625 15.140625 71.796875 
Q 19.390625 75.984375 28.609375 75.984375 
z
" id="DejaVuSans-102"/>
     <path d="M 9.8125 72.90625 
L 24.515625 72.90625 
L 43.109375 23.296875 
L 61.8125 72.90625 
L 76.515625 72.90625 
L 76.515625 0 
L 66.890625 0 
L 66.890625 64.015625 
L 48.09375 14.015625 
L 38.1875 14.015625 
L 19.390625 64.015625 
L 19.390625 0 
L 9.8125 0 
z
" id="DejaVuSans-77"/>
     <path d="M 45.40625 46.390625 
L 45.40625 75.984375 
L 54.390625 75.984375 
L 54.390625 0 
L 45.40625 0 
L 45.40625 8.203125 
Q 42.578125 3.328125 38.25 0.953125 
Q 33.9375 -1.421875 27.875 -1.421875 
Q 17.96875 -1.421875 11.734375 6.484375 
Q 5.515625 14.40625 5.515625 27.296875 
Q 5.515625 40.1875 11.734375 48.09375 
Q 17.96875 56 27.875 56 
Q 33.9375 56 38.25 53.625 
Q 42.578125 51.265625 45.40625 46.390625 
z
M 14.796875 27.296875 
Q 14.796875 17.390625 18.875 11.75 
Q 22.953125 6.109375 30.078125 6.109375 
Q 37.203125 6.109375 41.296875 11.75 
Q 45.40625 17.390625 45.40625 27.296875 
Q 45.40625 37.203125 41.296875 42.84375 
Q 37.203125 48.484375 30.078125 48.484375 
Q 22.953125 48.484375 18.875 42.84375 
Q 14.796875 37.203125 14.796875 27.296875 
z
" id="DejaVuSans-100"/>
     <path d="M 32.171875 -5.078125 
Q 28.375 -14.84375 24.75 -17.8125 
Q 21.140625 -20.796875 15.09375 -20.796875 
L 7.90625 -20.796875 
L 7.90625 -13.28125 
L 13.1875 -13.28125 
Q 16.890625 -13.28125 18.9375 -11.515625 
Q 21 -9.765625 23.484375 -3.21875 
L 25.09375 0.875 
L 2.984375 54.6875 
L 12.5 54.6875 
L 29.59375 11.921875 
L 46.6875 54.6875 
L 56.203125 54.6875 
z
" id="DejaVuSans-121"/>
    </defs>
    <g transform="translate(311.463375 51.888)scale(0.12 -0.12)">
     <use xlink:href="#DejaVuSans-69"/>
     <use x="63.183594" xlink:href="#DejaVuSans-118"/>
     <use x="122.363281" xlink:href="#DejaVuSans-111"/>
     <use x="183.544922" xlink:href="#DejaVuSans-108"/>
     <use x="211.328125" xlink:href="#DejaVuSans-117"/>
     <use x="274.707031" xlink:href="#DejaVuSans-116"/>
     <use x="313.916016" xlink:href="#DejaVuSans-105"/>
     <use x="341.699219" xlink:href="#DejaVuSans-111"/>
     <use x="402.880859" xlink:href="#DejaVuSans-110"/>
     <use x="466.259766" xlink:href="#DejaVuSans-32"/>
     <use x="498.046875" xlink:href="#DejaVuSans-111"/>
     <use x="559.228516" xlink:href="#DejaVuSans-102"/>
     <use x="594.433594" xlink:href="#DejaVuSans-32"/>
     <use x="626.220703" xlink:href="#DejaVuSans-116"/>
     <use x="665.429688" xlink:href="#DejaVuSans-104"/>
     <use x="728.808594" xlink:href="#DejaVuSans-101"/>
     <use x="790.332031" xlink:href="#DejaVuSans-32"/>
     <use x="822.119141" xlink:href="#DejaVuSans-69"/>
     <use x="885.302734" xlink:href="#DejaVuSans-120"/>
     <use x="944.482422" xlink:href="#DejaVuSans-112"/>
     <use x="1007.958984" xlink:href="#DejaVuSans-111"/>
     <use x="1069.140625" xlink:href="#DejaVuSans-110"/>
     <use x="1132.519531" xlink:href="#DejaVuSans-101"/>
     <use x="1194.042969" xlink:href="#DejaVuSans-110"/>
     <use x="1257.421875" xlink:href="#DejaVuSans-116"/>
     <use x="1296.630859" xlink:href="#DejaVuSans-105"/>
     <use x="1324.414062" xlink:href="#DejaVuSans-97"/>
     <use x="1385.693359" xlink:href="#DejaVuSans-108"/>
     <use x="1413.476562" xlink:href="#DejaVuSans-32"/>
     <use x="1445.263672" xlink:href="#DejaVuSans-77"/>
     <use x="1531.542969" xlink:href="#DejaVuSans-111"/>
     <use x="1592.724609" xlink:href="#DejaVuSans-100"/>
     <use x="1656.201172" xlink:href="#DejaVuSans-101"/>
     <use x="1717.724609" xlink:href="#DejaVuSans-108"/>
     <use x="1745.507812" xlink:href="#DejaVuSans-32"/>
     <use x="1777.294922" xlink:href="#DejaVuSans-80"/>
     <use x="1837.535156" xlink:href="#DejaVuSans-97"/>
     <use x="1898.814453" xlink:href="#DejaVuSans-114"/>
     <use x="1939.927734" xlink:href="#DejaVuSans-97"/>
     <use x="2001.207031" xlink:href="#DejaVuSans-109"/>
     <use x="2098.619141" xlink:href="#DejaVuSans-101"/>
     <use x="2160.142578" xlink:href="#DejaVuSans-116"/>
     <use x="2199.351562" xlink:href="#DejaVuSans-101"/>
     <use x="2260.875" xlink:href="#DejaVuSans-114"/>
     <use x="2301.988281" xlink:href="#DejaVuSans-115"/>
     <use x="2354.087891" xlink:href="#DejaVuSans-32"/>
     <use x="2385.875" xlink:href="#DejaVuSans-98"/>
     <use x="2449.351562" xlink:href="#DejaVuSans-121"/>
     <use x="2508.53125" xlink:href="#DejaVuSans-32"/>
     <use x="2540.318359" xlink:href="#DejaVuSans-68"/>
     <use x="2617.320312" xlink:href="#DejaVuSans-97"/>
     <use x="2678.599609" xlink:href="#DejaVuSans-116"/>
     <use x="2717.808594" xlink:href="#DejaVuSans-101"/>
    </g>
   </g>
   <g id="legend_1">
    <g id="patch_25">
     <path d="M 555.883 139.278625 
L 832.808 139.278625 
Q 834.808 139.278625 834.808 137.278625 
L 834.808 64.888 
Q 834.808 62.888 832.808 62.888 
L 555.883 62.888 
Q 553.883 62.888 553.883 64.888 
L 553.883 137.278625 
Q 553.883 139.278625 555.883 139.278625 
z
" style="fill:#ffffff;opacity:0.8;stroke:#cccccc;stroke-linejoin:miter;"/>
    </g>
    <g id="PathCollection_7">
     <defs>
      <path id="m314091627b" style="stroke:#ffffff;stroke-width:1.5;"/>
     </defs>
     <g>
      <use style="fill:#ffffff;stroke:#ffffff;stroke-width:1.5;" x="567.883" xlink:href="#m314091627b" y="71.861437"/>
     </g>
    </g>
    <g id="text_38">
     <!-- Exponential model fit (R2) [%] for last week data -->
     <defs>
      <path d="M 31 75.875 
Q 24.46875 64.65625 21.28125 53.65625 
Q 18.109375 42.671875 18.109375 31.390625 
Q 18.109375 20.125 21.3125 9.0625 
Q 24.515625 -2 31 -13.1875 
L 23.1875 -13.1875 
Q 15.875 -1.703125 12.234375 9.375 
Q 8.59375 20.453125 8.59375 31.390625 
Q 8.59375 42.28125 12.203125 53.3125 
Q 15.828125 64.359375 23.1875 75.875 
z
" id="DejaVuSans-40"/>
      <path d="M 8.015625 75.875 
L 15.828125 75.875 
Q 23.140625 64.359375 26.78125 53.3125 
Q 30.421875 42.28125 30.421875 31.390625 
Q 30.421875 20.453125 26.78125 9.375 
Q 23.140625 -1.703125 15.828125 -13.1875 
L 8.015625 -13.1875 
Q 14.5 -2 17.703125 9.0625 
Q 20.90625 20.125 20.90625 31.390625 
Q 20.90625 42.671875 17.703125 53.65625 
Q 14.5 64.65625 8.015625 75.875 
z
" id="DejaVuSans-41"/>
      <path d="M 8.59375 75.984375 
L 29.296875 75.984375 
L 29.296875 69 
L 17.578125 69 
L 17.578125 -6.203125 
L 29.296875 -6.203125 
L 29.296875 -13.1875 
L 8.59375 -13.1875 
z
" id="DejaVuSans-91"/>
      <path d="M 72.703125 32.078125 
Q 68.453125 32.078125 66.03125 28.46875 
Q 63.625 24.859375 63.625 18.40625 
Q 63.625 12.0625 66.03125 8.421875 
Q 68.453125 4.78125 72.703125 4.78125 
Q 76.859375 4.78125 79.265625 8.421875 
Q 81.6875 12.0625 81.6875 18.40625 
Q 81.6875 24.8125 79.265625 28.4375 
Q 76.859375 32.078125 72.703125 32.078125 
z
M 72.703125 38.28125 
Q 80.421875 38.28125 84.953125 32.90625 
Q 89.5 27.546875 89.5 18.40625 
Q 89.5 9.28125 84.9375 3.921875 
Q 80.375 -1.421875 72.703125 -1.421875 
Q 64.890625 -1.421875 60.34375 3.921875 
Q 55.8125 9.28125 55.8125 18.40625 
Q 55.8125 27.59375 60.375 32.9375 
Q 64.9375 38.28125 72.703125 38.28125 
z
M 22.3125 68.015625 
Q 18.109375 68.015625 15.6875 64.375 
Q 13.28125 60.75 13.28125 54.390625 
Q 13.28125 47.953125 15.671875 44.328125 
Q 18.0625 40.71875 22.3125 40.71875 
Q 26.5625 40.71875 28.96875 44.328125 
Q 31.390625 47.953125 31.390625 54.390625 
Q 31.390625 60.6875 28.953125 64.34375 
Q 26.515625 68.015625 22.3125 68.015625 
z
M 66.40625 74.21875 
L 74.21875 74.21875 
L 28.609375 -1.421875 
L 20.796875 -1.421875 
z
M 22.3125 74.21875 
Q 30.03125 74.21875 34.609375 68.875 
Q 39.203125 63.53125 39.203125 54.390625 
Q 39.203125 45.171875 34.640625 39.84375 
Q 30.078125 34.515625 22.3125 34.515625 
Q 14.546875 34.515625 10.03125 39.859375 
Q 5.515625 45.21875 5.515625 54.390625 
Q 5.515625 63.484375 10.046875 68.84375 
Q 14.59375 74.21875 22.3125 74.21875 
z
" id="DejaVuSans-37"/>
      <path d="M 30.421875 75.984375 
L 30.421875 -13.1875 
L 9.71875 -13.1875 
L 9.71875 -6.203125 
L 21.390625 -6.203125 
L 21.390625 69 
L 9.71875 69 
L 9.71875 75.984375 
z
" id="DejaVuSans-93"/>
      <path d="M 4.203125 54.6875 
L 13.1875 54.6875 
L 24.421875 12.015625 
L 35.59375 54.6875 
L 46.1875 54.6875 
L 57.421875 12.015625 
L 68.609375 54.6875 
L 77.59375 54.6875 
L 63.28125 0 
L 52.6875 0 
L 40.921875 44.828125 
L 29.109375 0 
L 18.5 0 
z
" id="DejaVuSans-119"/>
     </defs>
     <g transform="translate(585.883 74.486437)scale(0.1 -0.1)">
      <use xlink:href="#DejaVuSans-69"/>
      <use x="63.183594" xlink:href="#DejaVuSans-120"/>
      <use x="122.363281" xlink:href="#DejaVuSans-112"/>
      <use x="185.839844" xlink:href="#DejaVuSans-111"/>
      <use x="247.021484" xlink:href="#DejaVuSans-110"/>
      <use x="310.400391" xlink:href="#DejaVuSans-101"/>
      <use x="371.923828" xlink:href="#DejaVuSans-110"/>
      <use x="435.302734" xlink:href="#DejaVuSans-116"/>
      <use x="474.511719" xlink:href="#DejaVuSans-105"/>
      <use x="502.294922" xlink:href="#DejaVuSans-97"/>
      <use x="563.574219" xlink:href="#DejaVuSans-108"/>
      <use x="591.357422" xlink:href="#DejaVuSans-32"/>
      <use x="623.144531" xlink:href="#DejaVuSans-109"/>
      <use x="720.556641" xlink:href="#DejaVuSans-111"/>
      <use x="781.738281" xlink:href="#DejaVuSans-100"/>
      <use x="845.214844" xlink:href="#DejaVuSans-101"/>
      <use x="906.738281" xlink:href="#DejaVuSans-108"/>
      <use x="934.521484" xlink:href="#DejaVuSans-32"/>
      <use x="966.308594" xlink:href="#DejaVuSans-102"/>
      <use x="1001.513672" xlink:href="#DejaVuSans-105"/>
      <use x="1029.296875" xlink:href="#DejaVuSans-116"/>
      <use x="1068.505859" xlink:href="#DejaVuSans-32"/>
      <use x="1100.292969" xlink:href="#DejaVuSans-40"/>
      <use x="1139.306641" xlink:href="#DejaVuSans-82"/>
      <use x="1208.789062" xlink:href="#DejaVuSans-50"/>
      <use x="1272.412109" xlink:href="#DejaVuSans-41"/>
      <use x="1311.425781" xlink:href="#DejaVuSans-32"/>
      <use x="1343.212891" xlink:href="#DejaVuSans-91"/>
      <use x="1382.226562" xlink:href="#DejaVuSans-37"/>
      <use x="1477.246094" xlink:href="#DejaVuSans-93"/>
      <use x="1516.259766" xlink:href="#DejaVuSans-32"/>
      <use x="1548.046875" xlink:href="#DejaVuSans-102"/>
      <use x="1583.251953" xlink:href="#DejaVuSans-111"/>
      <use x="1644.433594" xlink:href="#DejaVuSans-114"/>
      <use x="1685.546875" xlink:href="#DejaVuSans-32"/>
      <use x="1717.333984" xlink:href="#DejaVuSans-108"/>
      <use x="1745.117188" xlink:href="#DejaVuSans-97"/>
      <use x="1806.396484" xlink:href="#DejaVuSans-115"/>
      <use x="1858.496094" xlink:href="#DejaVuSans-116"/>
      <use x="1897.705078" xlink:href="#DejaVuSans-32"/>
      <use x="1929.492188" xlink:href="#DejaVuSans-119"/>
      <use x="2011.279297" xlink:href="#DejaVuSans-101"/>
      <use x="2072.802734" xlink:href="#DejaVuSans-101"/>
      <use x="2134.326172" xlink:href="#DejaVuSans-107"/>
      <use x="2192.236328" xlink:href="#DejaVuSans-32"/>
      <use x="2224.023438" xlink:href="#DejaVuSans-100"/>
      <use x="2287.5" xlink:href="#DejaVuSans-97"/>
      <use x="2348.779297" xlink:href="#DejaVuSans-116"/>
      <use x="2387.988281" xlink:href="#DejaVuSans-97"/>
     </g>
    </g>
    <g id="PathCollection_8">
     <defs>
      <path d="M 0 2.12132 
C 0.562581 2.12132 1.102195 1.897805 1.5 1.5 
C 1.897805 1.102195 2.12132 0.562581 2.12132 0 
C 2.12132 -0.562581 1.897805 -1.102195 1.5 -1.5 
C 1.102195 -1.897805 0.562581 -2.12132 0 -2.12132 
C -0.562581 -2.12132 -1.102195 -1.897805 -1.5 -1.5 
C -1.897805 -1.102195 -2.12132 -0.562581 -2.12132 0 
C -2.12132 0.562581 -1.897805 1.102195 -1.5 1.5 
C -1.102195 1.897805 -0.562581 2.12132 0 2.12132 
z
" id="m486de5dbaf" style="stroke:#333333;"/>
     </defs>
     <g>
      <use style="fill:#333333;stroke:#333333;" x="567.883" xlink:href="#m486de5dbaf" y="86.539562"/>
     </g>
    </g>
    <g id="text_39">
     <!-- 92.5 -->
     <g transform="translate(585.883 89.164562)scale(0.1 -0.1)">
      <use xlink:href="#DejaVuSans-57"/>
      <use x="63.623047" xlink:href="#DejaVuSans-50"/>
      <use x="127.246094" xlink:href="#DejaVuSans-46"/>
      <use x="159.033203" xlink:href="#DejaVuSans-53"/>
     </g>
    </g>
    <g id="PathCollection_9">
     <defs>
      <path d="M 0 2.985808 
C 0.791846 2.985808 1.551366 2.671204 2.111285 2.111285 
C 2.671204 1.551366 2.985808 0.791846 2.985808 0 
C 2.985808 -0.791846 2.671204 -1.551366 2.111285 -2.111285 
C 1.551366 -2.671204 0.791846 -2.985808 0 -2.985808 
C -0.791846 -2.985808 -1.551366 -2.671204 -2.111285 -2.111285 
C -2.671204 -1.551366 -2.985808 -0.791846 -2.985808 0 
C -2.985808 0.791846 -2.671204 1.551366 -2.111285 2.111285 
C -1.551366 2.671204 -0.791846 2.985808 0 2.985808 
z
" id="mf68c8bc8e5" style="stroke:#333333;"/>
     </defs>
     <g>
      <use style="fill:#333333;stroke:#333333;" x="567.883" xlink:href="#mf68c8bc8e5" y="101.217687"/>
     </g>
    </g>
    <g id="text_40">
     <!-- 95.0 -->
     <g transform="translate(585.883 103.842687)scale(0.1 -0.1)">
      <use xlink:href="#DejaVuSans-57"/>
      <use x="63.623047" xlink:href="#DejaVuSans-53"/>
      <use x="127.246094" xlink:href="#DejaVuSans-46"/>
      <use x="159.033203" xlink:href="#DejaVuSans-48"/>
     </g>
    </g>
    <g id="PathCollection_10">
     <defs>
      <path d="M 0 3.809179 
C 1.010206 3.809179 1.979173 3.40782 2.693496 2.693496 
C 3.40782 1.979173 3.809179 1.010206 3.809179 0 
C 3.809179 -1.010206 3.40782 -1.979173 2.693496 -2.693496 
C 1.979173 -3.40782 1.010206 -3.809179 0 -3.809179 
C -1.010206 -3.809179 -1.979173 -3.40782 -2.693496 -2.693496 
C -3.40782 -1.979173 -3.809179 -1.010206 -3.809179 0 
C -3.809179 1.010206 -3.40782 1.979173 -2.693496 2.693496 
C -1.979173 3.40782 -1.010206 3.809179 0 3.809179 
z
" id="m3574583413" style="stroke:#333333;"/>
     </defs>
     <g>
      <use style="fill:#333333;stroke:#333333;" x="567.883" xlink:href="#m3574583413" y="115.895812"/>
     </g>
    </g>
    <g id="text_41">
     <!-- 97.5 -->
     <g transform="translate(585.883 118.520812)scale(0.1 -0.1)">
      <use xlink:href="#DejaVuSans-57"/>
      <use x="63.623047" xlink:href="#DejaVuSans-55"/>
      <use x="127.246094" xlink:href="#DejaVuSans-46"/>
      <use x="159.033203" xlink:href="#DejaVuSans-53"/>
     </g>
    </g>
    <g id="PathCollection_11">
     <defs>
      <path d="M 0 4.242641 
C 1.125161 4.242641 2.204391 3.795609 3 3 
C 3.795609 2.204391 4.242641 1.125161 4.242641 0 
C 4.242641 -1.125161 3.795609 -2.204391 3 -3 
C 2.204391 -3.795609 1.125161 -4.242641 0 -4.242641 
C -1.125161 -4.242641 -2.204391 -3.795609 -3 -3 
C -3.795609 -2.204391 -4.242641 -1.125161 -4.242641 0 
C -4.242641 1.125161 -3.795609 2.204391 -3 3 
C -2.204391 3.795609 -1.125161 4.242641 0 4.242641 
z
" id="mcc045d62d5" style="stroke:#333333;"/>
     </defs>
     <g>
      <use style="fill:#333333;stroke:#333333;" x="567.883" xlink:href="#mcc045d62d5" y="130.573937"/>
     </g>
    </g>
    <g id="text_42">
     <!-- 100.0 -->
     <g transform="translate(585.883 133.198937)scale(0.1 -0.1)">
      <use xlink:href="#DejaVuSans-49"/>
      <use x="63.623047" xlink:href="#DejaVuSans-48"/>
      <use x="127.246094" xlink:href="#DejaVuSans-48"/>
      <use x="190.869141" xlink:href="#DejaVuSans-46"/>
      <use x="222.65625" xlink:href="#DejaVuSans-48"/>
     </g>
    </g>
   </g>
  </g>
 </g>
 <defs>
  <clipPath id="p990615585a">
   <rect height="371.448" width="723.168" x="116.64" y="57.888"/>
  </clipPath>
 </defs>
</svg>
