<?xml version="1.0" encoding="utf-8" standalone="no"?>
<!DOCTYPE svg PUBLIC "-//W3C//DTD SVG 1.1//EN"
  "http://www.w3.org/Graphics/SVG/1.1/DTD/svg11.dtd">
<!-- Created with matplotlib (https://matplotlib.org/) -->
<svg height="482.4pt" version="1.1" viewBox="0 0 933.12 482.4" width="933.12pt" xmlns="http://www.w3.org/2000/svg" xmlns:xlink="http://www.w3.org/1999/xlink">
 <defs>
  <style type="text/css">
*{stroke-linecap:butt;stroke-linejoin:round;}
  </style>
 </defs>
 <g id="figure_1">
  <g id="patch_1">
   <path d="M 0 482.4 
L 933.12 482.4 
L 933.12 0 
L 0 0 
z
" style="fill:#ffffff;"/>
  </g>
  <g id="axes_1">
   <g id="patch_2">
    <path d="M 116.64 429.336 
L 839.808 429.336 
L 839.808 57.888 
L 116.64 57.888 
z
" style="fill:#ffffff;"/>
   </g>
   <g id="PathCollection_1">
    <path clip-path="url(#p6e359dc7a2)" d="M 217.53744 146.379793 
C 218.662601 146.379793 219.741831 145.932762 220.53744 145.137152 
C 221.333049 144.341543 221.780081 143.262314 221.780081 142.137152 
C 221.780081 141.011991 221.333049 139.932762 220.53744 139.137152 
C 219.741831 138.341543 218.662601 137.894512 217.53744 137.894512 
C 216.412279 137.894512 215.333049 138.341543 214.53744 139.137152 
C 213.741831 139.932762 213.294799 141.011991 213.294799 142.137152 
C 213.294799 143.262314 213.741831 144.341543 214.53744 145.137152 
C 215.333049 145.932762 216.412279 146.379793 217.53744 146.379793 
z
" style="fill:#1f77b4;stroke:#ffffff;stroke-width:0.75;"/>
    <path clip-path="url(#p6e359dc7a2)" d="M 532.835869 309.143674 
C 533.92239 309.143674 534.964555 308.711995 535.732841 307.943709 
C 536.501127 307.175423 536.932807 306.133257 536.932807 305.046736 
C 536.932807 303.960216 536.501127 302.91805 535.732841 302.149764 
C 534.964555 301.381478 533.92239 300.949799 532.835869 300.949799 
C 531.749349 300.949799 530.707183 301.381478 529.938897 302.149764 
C 529.170611 302.91805 528.738931 303.960216 528.738931 305.046736 
C 528.738931 306.133257 529.170611 307.175423 529.938897 307.943709 
C 530.707183 308.711995 531.749349 309.143674 532.835869 309.143674 
z
" style="fill:#1f77b4;stroke:#ffffff;stroke-width:0.75;"/>
    <path clip-path="url(#p6e359dc7a2)" d="M 614.6445 342.305984 
C 615.652265 342.305984 616.61889 341.905595 617.331487 341.192998 
C 618.044085 340.4804 618.444474 339.513775 618.444474 338.506011 
C 618.444474 337.498246 618.044085 336.531621 617.331487 335.819023 
C 616.61889 335.106426 615.652265 334.706037 614.6445 334.706037 
C 613.636735 334.706037 612.67011 335.106426 611.957513 335.819023 
C 611.244916 336.531621 610.844526 337.498246 610.844526 338.506011 
C 610.844526 339.513775 611.244916 340.4804 611.957513 341.192998 
C 612.67011 341.905595 613.636735 342.305984 614.6445 342.305984 
z
" style="fill:#1f77b4;stroke:#ffffff;stroke-width:0.75;"/>
    <path clip-path="url(#p6e359dc7a2)" d="M 139.731339 89.939028 
C 140.854895 89.939028 141.932584 89.492635 142.727058 88.698161 
C 143.521532 87.903688 143.967925 86.825999 143.967925 85.702443 
C 143.967925 84.578887 143.521532 83.501198 142.727058 82.706725 
C 141.932584 81.912251 140.854895 81.465858 139.731339 81.465858 
C 138.607784 81.465858 137.530095 81.912251 136.735621 82.706725 
C 135.941147 83.501198 135.494754 84.578887 135.494754 85.702443 
C 135.494754 86.825999 135.941147 87.903688 136.735621 88.698161 
C 137.530095 89.492635 138.607784 89.939028 139.731339 89.939028 
z
" style="fill:#1f77b4;stroke:#ffffff;stroke-width:0.75;"/>
    <path clip-path="url(#p6e359dc7a2)" d="M 342.567173 217.813953 
C 343.382898 217.813953 344.165323 217.489862 344.742128 216.913057 
C 345.318933 216.336252 345.643024 215.553827 345.643024 214.738102 
C 345.643024 213.922377 345.318933 213.139952 344.742128 212.563147 
C 344.165323 211.986342 343.382898 211.662251 342.567173 211.662251 
C 341.751448 211.662251 340.969023 211.986342 340.392218 212.563147 
C 339.815413 213.139952 339.491322 213.922377 339.491322 214.738102 
C 339.491322 215.553827 339.815413 216.336252 340.392218 216.913057 
C 340.969023 217.489862 341.751448 217.813953 342.567173 217.813953 
z
" style="fill:#1f77b4;stroke:#ffffff;stroke-width:0.75;"/>
    <path clip-path="url(#p6e359dc7a2)" d="M 459.182609 276.062326 
C 460.145519 276.062326 461.06912 275.679758 461.75 274.998878 
C 462.430879 274.317998 462.813447 273.394397 462.813447 272.431487 
C 462.813447 271.468578 462.430879 270.544977 461.75 269.864097 
C 461.06912 269.183217 460.145519 268.800649 459.182609 268.800649 
C 458.2197 268.800649 457.296099 269.183217 456.615219 269.864097 
C 455.934339 270.544977 455.551771 271.468578 455.551771 272.431487 
C 455.551771 273.394397 455.934339 274.317998 456.615219 274.998878 
C 457.296099 275.679758 458.2197 276.062326 459.182609 276.062326 
z
" style="fill:#1f77b4;stroke:#ffffff;stroke-width:0.75;"/>
    <path clip-path="url(#p6e359dc7a2)" d="M 384.363849 238.436181 
C 384.92643 238.436181 385.466045 238.212665 385.863849 237.814861 
C 386.261654 237.417056 386.48517 236.877441 386.48517 236.314861 
C 386.48517 235.75228 386.261654 235.212665 385.863849 234.814861 
C 385.466045 234.417056 384.92643 234.19354 384.363849 234.19354 
C 383.801268 234.19354 383.261654 234.417056 382.863849 234.814861 
C 382.466045 235.212665 382.242529 235.75228 382.242529 236.314861 
C 382.242529 236.877441 382.466045 237.417056 382.863849 237.814861 
C 383.261654 238.212665 383.801268 238.436181 384.363849 238.436181 
z
" style="fill:#1f77b4;stroke:#ffffff;stroke-width:0.75;"/>
    <path clip-path="url(#p6e359dc7a2)" d="M 239.035649 160.086446 
C 240.160094 160.086446 241.238635 159.6397 242.033737 158.844598 
C 242.828839 158.049496 243.275585 156.970955 243.275585 155.84651 
C 243.275585 154.722066 242.828839 153.643525 242.033737 152.848423 
C 241.238635 152.053321 240.160094 151.606574 239.035649 151.606574 
C 237.911205 151.606574 236.832664 152.053321 236.037562 152.848423 
C 235.24246 153.643525 234.795714 154.722066 234.795714 155.84651 
C 234.795714 156.970955 235.24246 158.049496 236.037562 158.844598 
C 236.832664 159.6397 237.911205 160.086446 239.035649 160.086446 
z
" style="fill:#1f77b4;stroke:#ffffff;stroke-width:0.75;"/>
    <path clip-path="url(#p6e359dc7a2)" d="M 785.928208 405.678729 
C 787.030703 405.678729 788.088191 405.240703 788.867772 404.461121 
C 789.647354 403.68154 790.08538 402.624052 790.08538 401.521557 
C 790.08538 400.419062 789.647354 399.361574 788.867772 398.581993 
C 788.088191 397.802411 787.030703 397.364385 785.928208 397.364385 
C 784.825713 397.364385 783.768225 397.802411 782.988644 398.581993 
C 782.209062 399.361574 781.771036 400.419062 781.771036 401.521557 
C 781.771036 402.624052 782.209062 403.68154 782.988644 404.461121 
C 783.768225 405.240703 784.825713 405.678729 785.928208 405.678729 
z
" style="fill:#1f77b4;stroke:#ffffff;stroke-width:0.75;"/>
    <path clip-path="url(#p6e359dc7a2)" d="M 269.525217 178.367545 
C 270.627953 178.367545 271.685672 177.929423 272.465425 177.149671 
C 273.245177 176.369918 273.683299 175.312199 273.683299 174.209463 
C 273.683299 173.106726 273.245177 172.049007 272.465425 171.269255 
C 271.685672 170.489502 270.627953 170.051381 269.525217 170.051381 
C 268.42248 170.051381 267.364761 170.489502 266.585009 171.269255 
C 265.805256 172.049007 265.367135 173.106726 265.367135 174.209463 
C 265.367135 175.312199 265.805256 176.369918 266.585009 177.149671 
C 267.364761 177.929423 268.42248 178.367545 269.525217 178.367545 
z
" style="fill:#1f77b4;stroke:#ffffff;stroke-width:0.75;"/>
    <path clip-path="url(#p6e359dc7a2)" d="M 302.360941 197.110466 
C 303.465743 197.110466 304.525444 196.671524 305.306657 195.890311 
C 306.08787 195.109098 306.526813 194.049396 306.526813 192.944594 
C 306.526813 191.839792 306.08787 190.780091 305.306657 189.998878 
C 304.525444 189.217665 303.465743 188.778723 302.360941 188.778723 
C 301.256139 188.778723 300.196438 189.217665 299.415225 189.998878 
C 298.634011 190.780091 298.195069 191.839792 298.195069 192.944594 
C 298.195069 194.049396 298.634011 195.109098 299.415225 195.890311 
C 300.196438 196.671524 301.256139 197.110466 302.360941 197.110466 
z
" style="fill:#1f77b4;stroke:#ffffff;stroke-width:0.75;"/>
    <path clip-path="url(#p6e359dc7a2)" d="M 193.548517 130.058418 
C 194.655754 130.058418 195.71779 129.618508 196.500724 128.835574 
C 197.283659 128.05264 197.723568 126.990604 197.723568 125.883367 
C 197.723568 124.776131 197.283659 123.714095 196.500724 122.93116 
C 195.71779 122.148226 194.655754 121.708316 193.548517 121.708316 
C 192.441281 121.708316 191.379245 122.148226 190.596311 122.93116 
C 189.813376 123.714095 189.373466 124.776131 189.373466 125.883367 
C 189.373466 126.990604 189.813376 128.05264 190.596311 128.835574 
C 191.379245 129.618508 192.441281 130.058418 193.548517 130.058418 
z
" style="fill:#1f77b4;stroke:#ffffff;stroke-width:0.75;"/>
    <path clip-path="url(#p6e359dc7a2)" d="M 699.58424 373.891959 
C 700.398352 373.891959 701.179229 373.568508 701.754893 372.992845 
C 702.330557 372.417181 702.654007 371.636303 702.654007 370.822191 
C 702.654007 370.00808 702.330557 369.227202 701.754893 368.651538 
C 701.179229 368.075874 700.398352 367.752424 699.58424 367.752424 
C 698.770128 367.752424 697.989251 368.075874 697.413587 368.651538 
C 696.837923 369.227202 696.514473 370.00808 696.514473 370.822191 
C 696.514473 371.636303 696.837923 372.417181 697.413587 372.992845 
C 697.989251 373.568508 698.770128 373.891959 699.58424 373.891959 
z
" style="fill:#1f77b4;stroke:#ffffff;stroke-width:0.75;"/>
    <path clip-path="url(#p6e359dc7a2)" d="M 742.857822 389.792255 
C 743.741647 389.792255 744.589392 389.441107 745.214351 388.816149 
C 745.839309 388.19119 746.190457 387.343445 746.190457 386.45962 
C 746.190457 385.575795 745.839309 384.728051 745.214351 384.103092 
C 744.589392 383.478133 743.741647 383.126986 742.857822 383.126986 
C 741.973997 383.126986 741.126253 383.478133 740.501294 384.103092 
C 739.876335 384.728051 739.525188 385.575795 739.525188 386.45962 
C 739.525188 387.343445 739.876335 388.19119 740.501294 388.816149 
C 741.126253 389.441107 741.973997 389.792255 742.857822 389.792255 
z
" style="fill:#1f77b4;stroke:#ffffff;stroke-width:0.75;"/>
    <path clip-path="url(#p6e359dc7a2)" d="M 572.467015 325.691166 
C 573.559646 325.691166 574.607673 325.257059 575.38028 324.484452 
C 576.152887 323.711845 576.586994 322.663818 576.586994 321.571187 
C 576.586994 320.478556 576.152887 319.43053 575.38028 318.657923 
C 574.607673 317.885316 573.559646 317.451209 572.467015 317.451209 
C 571.374384 317.451209 570.326358 317.885316 569.553751 318.657923 
C 568.781144 319.43053 568.347037 320.478556 568.347037 321.571187 
C 568.347037 322.663818 568.781144 323.711845 569.553751 324.484452 
C 570.326358 325.257059 571.374384 325.691166 572.467015 325.691166 
z
" style="fill:#1f77b4;stroke:#ffffff;stroke-width:0.75;"/>
    <path clip-path="url(#p6e359dc7a2)" d="M 656.872026 358.306288 
C 657.787214 358.306288 658.665041 357.94268 659.312177 357.295544 
C 659.959313 356.648409 660.322921 355.770581 660.322921 354.855393 
C 660.322921 353.940205 659.959313 353.062378 659.312177 352.415242 
C 658.665041 351.768107 657.787214 351.404499 656.872026 351.404499 
C 655.956838 351.404499 655.079011 351.768107 654.431875 352.415242 
C 653.78474 353.062378 653.421131 353.940205 653.421131 354.855393 
C 653.421131 355.770581 653.78474 356.648409 654.431875 357.295544 
C 655.079011 357.94268 655.956838 358.306288 656.872026 358.306288 
z
" style="fill:#1f77b4;stroke:#ffffff;stroke-width:0.75;"/>
    <path clip-path="url(#p6e359dc7a2)" d="M 164.641806 109.096084 
C 165.730277 109.096084 166.774314 108.66363 167.543979 107.893965 
C 168.313644 107.1243 168.746098 106.080263 168.746098 104.991792 
C 168.746098 103.903321 168.313644 102.859285 167.543979 102.08962 
C 166.774314 101.319954 165.730277 100.8875 164.641806 100.8875 
C 163.553335 100.8875 162.509298 101.319954 161.739633 102.08962 
C 160.969968 102.859285 160.537514 103.903321 160.537514 104.991792 
C 160.537514 106.080263 160.969968 107.1243 161.739633 107.893965 
C 162.509298 108.66363 163.553335 109.096084 164.641806 109.096084 
z
" style="fill:#1f77b4;stroke:#ffffff;stroke-width:0.75;"/>
    <path clip-path="url(#p6e359dc7a2)" d="M 496.633178 293.3617 
C 497.697623 293.3617 498.718614 292.938792 499.47129 292.186116 
C 500.223966 291.43344 500.646874 290.412448 500.646874 289.348004 
C 500.646874 288.283559 500.223966 287.262568 499.47129 286.509892 
C 498.718614 285.757216 497.697623 285.334308 496.633178 285.334308 
C 495.568734 285.334308 494.547742 285.757216 493.795066 286.509892 
C 493.04239 287.262568 492.619482 288.283559 492.619482 289.348004 
C 492.619482 290.412448 493.04239 291.43344 493.795066 292.186116 
C 494.547742 292.938792 495.568734 293.3617 496.633178 293.3617 
z
" style="fill:#1f77b4;stroke:#ffffff;stroke-width:0.75;"/>
    <path clip-path="url(#p6e359dc7a2)" d="M 424.104153 259.925864 
C 425.172475 259.925864 426.197186 259.501415 426.952603 258.745997 
C 427.708021 257.990579 428.13247 256.965869 428.13247 255.897546 
C 428.13247 254.829224 427.708021 253.804513 426.952603 253.049095 
C 426.197186 252.293677 425.172475 251.869228 424.104153 251.869228 
C 423.03583 251.869228 422.01112 252.293677 421.255702 253.049095 
C 420.500284 253.804513 420.075835 254.829224 420.075835 255.897546 
C 420.075835 256.965869 420.500284 257.990579 421.255702 258.745997 
C 422.01112 259.501415 423.03583 259.925864 424.104153 259.925864 
z
" style="fill:#1f77b4;stroke:#ffffff;stroke-width:0.75;"/>
   </g>
   <g id="PathCollection_2"/>
   <g id="PathCollection_3"/>
   <g id="PathCollection_4"/>
   <g id="PathCollection_5"/>
   <g id="PathCollection_6"/>
   <g id="patch_3">
    <path clip-path="url(#p6e359dc7a2)" d="z
" style="fill:#808080;stroke:#808080;stroke-linejoin:miter;"/>
   </g>
   <g id="patch_4">
    <path clip-path="url(#p6e359dc7a2)" d="M 160.542202 101.817276 
L 158.956313 102.01154 
L 159.032919 100.719681 
L 142.841116 88.181604 
L 142.84918 88.045619 
L 159.040983 100.583696 
L 159.117589 99.291837 
z
" style="fill:#808080;stroke:#808080;stroke-linejoin:miter;"/>
   </g>
   <g id="patch_5">
    <path clip-path="url(#p6e359dc7a2)" d="M 188.554035 122.273735 
L 186.969031 122.546478 
L 187.040733 121.250949 
L 168.251371 107.671425 
L 168.258919 107.535053 
L 187.048281 121.114577 
L 187.119984 119.819048 
z
" style="fill:#808080;stroke:#808080;stroke-linejoin:miter;"/>
   </g>
   <g id="patch_6">
    <path clip-path="url(#p6e359dc7a2)" d="M 213.652988 139.505227 
L 212.069008 139.846953 
L 212.136386 138.548396 
L 196.543586 127.983435 
L 196.550679 127.846745 
L 212.143479 138.411706 
L 212.210857 137.113149 
z
" style="fill:#808080;stroke:#808080;stroke-linejoin:miter;"/>
   </g>
   <g id="patch_7">
    <path clip-path="url(#p6e359dc7a2)" d="M 235.71455 153.728653 
L 234.13167 154.131465 
L 234.195208 152.830383 
L 220.221372 143.9193 
L 220.22806 143.782344 
L 234.201896 152.693427 
L 234.265435 151.392344 
z
" style="fill:#808080;stroke:#808080;stroke-linejoin:miter;"/>
   </g>
   <g id="patch_8">
    <path clip-path="url(#p6e359dc7a2)" d="M 264.183541 170.992332 
L 262.601794 171.449598 
L 262.6619 170.146388 
L 242.843682 158.210469 
L 242.850009 158.073289 
L 262.668227 170.009208 
L 262.728334 168.705999 
z
" style="fill:#808080;stroke:#808080;stroke-linejoin:miter;"/>
   </g>
   <g id="patch_9">
    <path clip-path="url(#p6e359dc7a2)" d="M 296.493487 189.596792 
L 294.91288 190.102894 
L 294.969902 188.797875 
L 273.626681 176.620039 
L 273.632683 176.482669 
L 294.975904 188.660505 
L 295.032926 187.355486 
z
" style="fill:#808080;stroke:#808080;stroke-linejoin:miter;"/>
   </g>
   <g id="patch_10">
    <path clip-path="url(#p6e359dc7a2)" d="M 335.043162 210.659764 
L 333.463681 211.209899 
L 333.517916 209.90333 
L 307.383865 195.73755 
L 307.389574 195.600016 
L 333.523625 209.765796 
L 333.577861 208.459227 
z
" style="fill:#808080;stroke:#808080;stroke-linejoin:miter;"/>
   </g>
   <g id="patch_11">
    <path clip-path="url(#p6e359dc7a2)" d="M 376.483548 232.246801 
L 374.90517 232.836835 
L 374.956876 231.528927 
L 347.789036 217.504034 
L 347.794479 217.36636 
L 374.962318 231.391253 
L 375.014024 230.083345 
z
" style="fill:#808080;stroke:#808080;stroke-linejoin:miter;"/>
   </g>
   <g id="patch_12">
    <path clip-path="url(#p6e359dc7a2)" d="M 416.687891 252.243062 
L 415.110585 252.869411 
L 415.159984 251.56034 
L 389.328787 238.831595 
L 389.333987 238.693798 
L 415.165184 251.422543 
L 415.214584 250.113472 
z
" style="fill:#808080;stroke:#808080;stroke-linejoin:miter;"/>
   </g>
   <g id="patch_13">
    <path clip-path="url(#p6e359dc7a2)" d="M 452.816449 269.43085 
L 451.24018 270.090391 
L 451.287468 268.780303 
L 428.486471 258.033241 
L 428.491449 257.895337 
L 451.292445 268.642399 
L 451.339733 267.33231 
z
" style="fill:#808080;stroke:#808080;stroke-linejoin:miter;"/>
   </g>
   <g id="patch_14">
    <path clip-path="url(#p6e359dc7a2)" d="M 489.734335 286.231779 
L 488.159065 286.92177 
L 488.204413 285.610787 
L 463.861544 274.615051 
L 463.866317 274.477053 
L 488.209187 285.472788 
L 488.254536 284.161805 
z
" style="fill:#808080;stroke:#808080;stroke-linejoin:miter;"/>
   </g>
   <g id="patch_15">
    <path clip-path="url(#p6e359dc7a2)" d="M 526.218721 302.177313 
L 524.64441 302.895337 
L 524.687971 301.583562 
L 501.156222 291.379386 
L 501.160807 291.241305 
L 524.692556 301.445481 
L 524.736117 300.133706 
z
" style="fill:#808080;stroke:#808080;stroke-linejoin:miter;"/>
   </g>
   <g id="patch_16">
    <path clip-path="url(#p6e359dc7a2)" d="M 565.079284 318.490827 
L 563.505894 319.234742 
L 563.547802 317.922264 
L 537.787557 307.181371 
L 537.791968 307.043215 
L 563.552213 317.784108 
L 563.594121 316.47163 
z
" style="fill:#808080;stroke:#808080;stroke-linejoin:miter;"/>
   </g>
   <g id="patch_17">
    <path clip-path="url(#p6e359dc7a2)" d="M 606.684573 335.309994 
L 605.112066 336.077891 
L 605.152441 334.764786 
L 577.737076 323.757151 
L 577.741326 323.61893 
L 605.156691 334.626565 
L 605.197066 333.313459 
z
" style="fill:#808080;stroke:#808080;stroke-linejoin:miter;"/>
   </g>
   <g id="patch_18">
    <path clip-path="url(#p6e359dc7a2)" d="M 648.901495 351.769414 
L 647.329833 352.55959 
L 647.368783 351.245922 
L 619.920891 340.618824 
L 619.924991 340.480543 
L 647.372883 351.107642 
L 647.411833 349.793974 
z
" style="fill:#808080;stroke:#808080;stroke-linejoin:miter;"/>
   </g>
   <g id="patch_19">
    <path clip-path="url(#p6e359dc7a2)" d="M 691.505243 367.802078 
L 689.934391 368.613002 
L 689.972012 367.298829 
L 662.209073 356.92041 
L 662.213033 356.782076 
L 689.975972 367.160495 
L 690.013593 365.846322 
z
" style="fill:#808080;stroke:#808080;stroke-linejoin:miter;"/>
   </g>
   <g id="patch_20">
    <path clip-path="url(#p6e359dc7a2)" d="M 734.653049 383.494727 
L 733.082972 384.325019 
L 733.119352 383.01039 
L 704.991523 372.846061 
L 704.995353 372.707679 
L 733.123181 382.872008 
L 733.159561 381.557379 
z
" style="fill:#808080;stroke:#808080;stroke-linejoin:miter;"/>
   </g>
   <g id="patch_21">
    <path clip-path="url(#p6e359dc7a2)" d="M 777.769636 398.668462 
L 776.2003 399.516877 
L 776.235518 398.201834 
L 748.239767 388.411575 
L 748.243474 388.27315 
L 776.239225 398.063408 
L 776.274442 396.748366 
z
" style="fill:#808080;stroke:#808080;stroke-linejoin:miter;"/>
   </g>
   <g id="matplotlib.axis_1">
    <g id="xtick_1">
     <g id="line2d_1">
      <defs>
       <path d="M 0 0 
L 0 3.5 
" id="m531ee3157d" style="stroke:#000000;stroke-width:0.8;"/>
      </defs>
      <g>
       <use style="stroke:#000000;stroke-width:0.8;" x="132.814209" xlink:href="#m531ee3157d" y="429.336"/>
      </g>
     </g>
     <g id="text_1">
      <!-- 1.4 -->
      <defs>
       <path d="M 12.40625 8.296875 
L 28.515625 8.296875 
L 28.515625 63.921875 
L 10.984375 60.40625 
L 10.984375 69.390625 
L 28.421875 72.90625 
L 38.28125 72.90625 
L 38.28125 8.296875 
L 54.390625 8.296875 
L 54.390625 0 
L 12.40625 0 
z
" id="DejaVuSans-49"/>
       <path d="M 10.6875 12.40625 
L 21 12.40625 
L 21 0 
L 10.6875 0 
z
" id="DejaVuSans-46"/>
       <path d="M 37.796875 64.3125 
L 12.890625 25.390625 
L 37.796875 25.390625 
z
M 35.203125 72.90625 
L 47.609375 72.90625 
L 47.609375 25.390625 
L 58.015625 25.390625 
L 58.015625 17.1875 
L 47.609375 17.1875 
L 47.609375 0 
L 37.796875 0 
L 37.796875 17.1875 
L 4.890625 17.1875 
L 4.890625 26.703125 
z
" id="DejaVuSans-52"/>
      </defs>
      <g transform="translate(124.862647 443.934438)scale(0.1 -0.1)">
       <use xlink:href="#DejaVuSans-49"/>
       <use x="63.623047" xlink:href="#DejaVuSans-46"/>
       <use x="95.410156" xlink:href="#DejaVuSans-52"/>
      </g>
     </g>
    </g>
    <g id="xtick_2">
     <g id="line2d_2">
      <g>
       <use style="stroke:#000000;stroke-width:0.8;" x="286.756472" xlink:href="#m531ee3157d" y="429.336"/>
      </g>
     </g>
     <g id="text_2">
      <!-- 1.6 -->
      <defs>
       <path d="M 33.015625 40.375 
Q 26.375 40.375 22.484375 35.828125 
Q 18.609375 31.296875 18.609375 23.390625 
Q 18.609375 15.53125 22.484375 10.953125 
Q 26.375 6.390625 33.015625 6.390625 
Q 39.65625 6.390625 43.53125 10.953125 
Q 47.40625 15.53125 47.40625 23.390625 
Q 47.40625 31.296875 43.53125 35.828125 
Q 39.65625 40.375 33.015625 40.375 
z
M 52.59375 71.296875 
L 52.59375 62.3125 
Q 48.875 64.0625 45.09375 64.984375 
Q 41.3125 65.921875 37.59375 65.921875 
Q 27.828125 65.921875 22.671875 59.328125 
Q 17.53125 52.734375 16.796875 39.40625 
Q 19.671875 43.65625 24.015625 45.921875 
Q 28.375 48.1875 33.59375 48.1875 
Q 44.578125 48.1875 50.953125 41.515625 
Q 57.328125 34.859375 57.328125 23.390625 
Q 57.328125 12.15625 50.6875 5.359375 
Q 44.046875 -1.421875 33.015625 -1.421875 
Q 20.359375 -1.421875 13.671875 8.265625 
Q 6.984375 17.96875 6.984375 36.375 
Q 6.984375 53.65625 15.1875 63.9375 
Q 23.390625 74.21875 37.203125 74.21875 
Q 40.921875 74.21875 44.703125 73.484375 
Q 48.484375 72.75 52.59375 71.296875 
z
" id="DejaVuSans-54"/>
      </defs>
      <g transform="translate(278.80491 443.934438)scale(0.1 -0.1)">
       <use xlink:href="#DejaVuSans-49"/>
       <use x="63.623047" xlink:href="#DejaVuSans-46"/>
       <use x="95.410156" xlink:href="#DejaVuSans-54"/>
      </g>
     </g>
    </g>
    <g id="xtick_3">
     <g id="line2d_3">
      <g>
       <use style="stroke:#000000;stroke-width:0.8;" x="440.698735" xlink:href="#m531ee3157d" y="429.336"/>
      </g>
     </g>
     <g id="text_3">
      <!-- 1.8 -->
      <defs>
       <path d="M 31.78125 34.625 
Q 24.75 34.625 20.71875 30.859375 
Q 16.703125 27.09375 16.703125 20.515625 
Q 16.703125 13.921875 20.71875 10.15625 
Q 24.75 6.390625 31.78125 6.390625 
Q 38.8125 6.390625 42.859375 10.171875 
Q 46.921875 13.96875 46.921875 20.515625 
Q 46.921875 27.09375 42.890625 30.859375 
Q 38.875 34.625 31.78125 34.625 
z
M 21.921875 38.8125 
Q 15.578125 40.375 12.03125 44.71875 
Q 8.5 49.078125 8.5 55.328125 
Q 8.5 64.0625 14.71875 69.140625 
Q 20.953125 74.21875 31.78125 74.21875 
Q 42.671875 74.21875 48.875 69.140625 
Q 55.078125 64.0625 55.078125 55.328125 
Q 55.078125 49.078125 51.53125 44.71875 
Q 48 40.375 41.703125 38.8125 
Q 48.828125 37.15625 52.796875 32.3125 
Q 56.78125 27.484375 56.78125 20.515625 
Q 56.78125 9.90625 50.3125 4.234375 
Q 43.84375 -1.421875 31.78125 -1.421875 
Q 19.734375 -1.421875 13.25 4.234375 
Q 6.78125 9.90625 6.78125 20.515625 
Q 6.78125 27.484375 10.78125 32.3125 
Q 14.796875 37.15625 21.921875 38.8125 
z
M 18.3125 54.390625 
Q 18.3125 48.734375 21.84375 45.5625 
Q 25.390625 42.390625 31.78125 42.390625 
Q 38.140625 42.390625 41.71875 45.5625 
Q 45.3125 48.734375 45.3125 54.390625 
Q 45.3125 60.0625 41.71875 63.234375 
Q 38.140625 66.40625 31.78125 66.40625 
Q 25.390625 66.40625 21.84375 63.234375 
Q 18.3125 60.0625 18.3125 54.390625 
z
" id="DejaVuSans-56"/>
      </defs>
      <g transform="translate(432.747172 443.934438)scale(0.1 -0.1)">
       <use xlink:href="#DejaVuSans-49"/>
       <use x="63.623047" xlink:href="#DejaVuSans-46"/>
       <use x="95.410156" xlink:href="#DejaVuSans-56"/>
      </g>
     </g>
    </g>
    <g id="xtick_4">
     <g id="line2d_4">
      <g>
       <use style="stroke:#000000;stroke-width:0.8;" x="594.640998" xlink:href="#m531ee3157d" y="429.336"/>
      </g>
     </g>
     <g id="text_4">
      <!-- 2.0 -->
      <defs>
       <path d="M 19.1875 8.296875 
L 53.609375 8.296875 
L 53.609375 0 
L 7.328125 0 
L 7.328125 8.296875 
Q 12.9375 14.109375 22.625 23.890625 
Q 32.328125 33.6875 34.8125 36.53125 
Q 39.546875 41.84375 41.421875 45.53125 
Q 43.3125 49.21875 43.3125 52.78125 
Q 43.3125 58.59375 39.234375 62.25 
Q 35.15625 65.921875 28.609375 65.921875 
Q 23.96875 65.921875 18.8125 64.3125 
Q 13.671875 62.703125 7.8125 59.421875 
L 7.8125 69.390625 
Q 13.765625 71.78125 18.9375 73 
Q 24.125 74.21875 28.421875 74.21875 
Q 39.75 74.21875 46.484375 68.546875 
Q 53.21875 62.890625 53.21875 53.421875 
Q 53.21875 48.921875 51.53125 44.890625 
Q 49.859375 40.875 45.40625 35.40625 
Q 44.1875 33.984375 37.640625 27.21875 
Q 31.109375 20.453125 19.1875 8.296875 
z
" id="DejaVuSans-50"/>
       <path d="M 31.78125 66.40625 
Q 24.171875 66.40625 20.328125 58.90625 
Q 16.5 51.421875 16.5 36.375 
Q 16.5 21.390625 20.328125 13.890625 
Q 24.171875 6.390625 31.78125 6.390625 
Q 39.453125 6.390625 43.28125 13.890625 
Q 47.125 21.390625 47.125 36.375 
Q 47.125 51.421875 43.28125 58.90625 
Q 39.453125 66.40625 31.78125 66.40625 
z
M 31.78125 74.21875 
Q 44.046875 74.21875 50.515625 64.515625 
Q 56.984375 54.828125 56.984375 36.375 
Q 56.984375 17.96875 50.515625 8.265625 
Q 44.046875 -1.421875 31.78125 -1.421875 
Q 19.53125 -1.421875 13.0625 8.265625 
Q 6.59375 17.96875 6.59375 36.375 
Q 6.59375 54.828125 13.0625 64.515625 
Q 19.53125 74.21875 31.78125 74.21875 
z
" id="DejaVuSans-48"/>
      </defs>
      <g transform="translate(586.689435 443.934438)scale(0.1 -0.1)">
       <use xlink:href="#DejaVuSans-50"/>
       <use x="63.623047" xlink:href="#DejaVuSans-46"/>
       <use x="95.410156" xlink:href="#DejaVuSans-48"/>
      </g>
     </g>
    </g>
    <g id="xtick_5">
     <g id="line2d_5">
      <g>
       <use style="stroke:#000000;stroke-width:0.8;" x="748.583261" xlink:href="#m531ee3157d" y="429.336"/>
      </g>
     </g>
     <g id="text_5">
      <!-- 2.2 -->
      <g transform="translate(740.631698 443.934438)scale(0.1 -0.1)">
       <use xlink:href="#DejaVuSans-50"/>
       <use x="63.623047" xlink:href="#DejaVuSans-46"/>
       <use x="95.410156" xlink:href="#DejaVuSans-50"/>
      </g>
     </g>
    </g>
    <g id="text_6">
     <!-- intercept -->
     <defs>
      <path d="M 9.421875 54.6875 
L 18.40625 54.6875 
L 18.40625 0 
L 9.421875 0 
z
M 9.421875 75.984375 
L 18.40625 75.984375 
L 18.40625 64.59375 
L 9.421875 64.59375 
z
" id="DejaVuSans-105"/>
      <path d="M 54.890625 33.015625 
L 54.890625 0 
L 45.90625 0 
L 45.90625 32.71875 
Q 45.90625 40.484375 42.875 44.328125 
Q 39.84375 48.1875 33.796875 48.1875 
Q 26.515625 48.1875 22.3125 43.546875 
Q 18.109375 38.921875 18.109375 30.90625 
L 18.109375 0 
L 9.078125 0 
L 9.078125 54.6875 
L 18.109375 54.6875 
L 18.109375 46.1875 
Q 21.34375 51.125 25.703125 53.5625 
Q 30.078125 56 35.796875 56 
Q 45.21875 56 50.046875 50.171875 
Q 54.890625 44.34375 54.890625 33.015625 
z
" id="DejaVuSans-110"/>
      <path d="M 18.3125 70.21875 
L 18.3125 54.6875 
L 36.8125 54.6875 
L 36.8125 47.703125 
L 18.3125 47.703125 
L 18.3125 18.015625 
Q 18.3125 11.328125 20.140625 9.421875 
Q 21.96875 7.515625 27.59375 7.515625 
L 36.8125 7.515625 
L 36.8125 0 
L 27.59375 0 
Q 17.1875 0 13.234375 3.875 
Q 9.28125 7.765625 9.28125 18.015625 
L 9.28125 47.703125 
L 2.6875 47.703125 
L 2.6875 54.6875 
L 9.28125 54.6875 
L 9.28125 70.21875 
z
" id="DejaVuSans-116"/>
      <path d="M 56.203125 29.59375 
L 56.203125 25.203125 
L 14.890625 25.203125 
Q 15.484375 15.921875 20.484375 11.0625 
Q 25.484375 6.203125 34.421875 6.203125 
Q 39.59375 6.203125 44.453125 7.46875 
Q 49.3125 8.734375 54.109375 11.28125 
L 54.109375 2.78125 
Q 49.265625 0.734375 44.1875 -0.34375 
Q 39.109375 -1.421875 33.890625 -1.421875 
Q 20.796875 -1.421875 13.15625 6.1875 
Q 5.515625 13.8125 5.515625 26.8125 
Q 5.515625 40.234375 12.765625 48.109375 
Q 20.015625 56 32.328125 56 
Q 43.359375 56 49.78125 48.890625 
Q 56.203125 41.796875 56.203125 29.59375 
z
M 47.21875 32.234375 
Q 47.125 39.59375 43.09375 43.984375 
Q 39.0625 48.390625 32.421875 48.390625 
Q 24.90625 48.390625 20.390625 44.140625 
Q 15.875 39.890625 15.1875 32.171875 
z
" id="DejaVuSans-101"/>
      <path d="M 41.109375 46.296875 
Q 39.59375 47.171875 37.8125 47.578125 
Q 36.03125 48 33.890625 48 
Q 26.265625 48 22.1875 43.046875 
Q 18.109375 38.09375 18.109375 28.8125 
L 18.109375 0 
L 9.078125 0 
L 9.078125 54.6875 
L 18.109375 54.6875 
L 18.109375 46.1875 
Q 20.953125 51.171875 25.484375 53.578125 
Q 30.03125 56 36.53125 56 
Q 37.453125 56 38.578125 55.875 
Q 39.703125 55.765625 41.0625 55.515625 
z
" id="DejaVuSans-114"/>
      <path d="M 48.78125 52.59375 
L 48.78125 44.1875 
Q 44.96875 46.296875 41.140625 47.34375 
Q 37.3125 48.390625 33.40625 48.390625 
Q 24.65625 48.390625 19.8125 42.84375 
Q 14.984375 37.3125 14.984375 27.296875 
Q 14.984375 17.28125 19.8125 11.734375 
Q 24.65625 6.203125 33.40625 6.203125 
Q 37.3125 6.203125 41.140625 7.25 
Q 44.96875 8.296875 48.78125 10.40625 
L 48.78125 2.09375 
Q 45.015625 0.34375 40.984375 -0.53125 
Q 36.96875 -1.421875 32.421875 -1.421875 
Q 20.0625 -1.421875 12.78125 6.34375 
Q 5.515625 14.109375 5.515625 27.296875 
Q 5.515625 40.671875 12.859375 48.328125 
Q 20.21875 56 33.015625 56 
Q 37.15625 56 41.109375 55.140625 
Q 45.0625 54.296875 48.78125 52.59375 
z
" id="DejaVuSans-99"/>
      <path d="M 18.109375 8.203125 
L 18.109375 -20.796875 
L 9.078125 -20.796875 
L 9.078125 54.6875 
L 18.109375 54.6875 
L 18.109375 46.390625 
Q 20.953125 51.265625 25.265625 53.625 
Q 29.59375 56 35.59375 56 
Q 45.5625 56 51.78125 48.09375 
Q 58.015625 40.1875 58.015625 27.296875 
Q 58.015625 14.40625 51.78125 6.484375 
Q 45.5625 -1.421875 35.59375 -1.421875 
Q 29.59375 -1.421875 25.265625 0.953125 
Q 20.953125 3.328125 18.109375 8.203125 
z
M 48.6875 27.296875 
Q 48.6875 37.203125 44.609375 42.84375 
Q 40.53125 48.484375 33.40625 48.484375 
Q 26.265625 48.484375 22.1875 42.84375 
Q 18.109375 37.203125 18.109375 27.296875 
Q 18.109375 17.390625 22.1875 11.75 
Q 26.265625 6.109375 33.40625 6.109375 
Q 40.53125 6.109375 44.609375 11.75 
Q 48.6875 17.390625 48.6875 27.296875 
z
" id="DejaVuSans-112"/>
     </defs>
     <g transform="translate(455.615406 457.612563)scale(0.1 -0.1)">
      <use xlink:href="#DejaVuSans-105"/>
      <use x="27.783203" xlink:href="#DejaVuSans-110"/>
      <use x="91.162109" xlink:href="#DejaVuSans-116"/>
      <use x="130.371094" xlink:href="#DejaVuSans-101"/>
      <use x="191.894531" xlink:href="#DejaVuSans-114"/>
      <use x="232.976562" xlink:href="#DejaVuSans-99"/>
      <use x="287.957031" xlink:href="#DejaVuSans-101"/>
      <use x="349.480469" xlink:href="#DejaVuSans-112"/>
      <use x="412.957031" xlink:href="#DejaVuSans-116"/>
     </g>
    </g>
   </g>
   <g id="matplotlib.axis_2">
    <g id="ytick_1">
     <g id="line2d_6">
      <defs>
       <path d="M 0 0 
L -3.5 0 
" id="m112f3594ac" style="stroke:#000000;stroke-width:0.8;"/>
      </defs>
      <g>
       <use style="stroke:#000000;stroke-width:0.8;" x="116.64" xlink:href="#m112f3594ac" y="396.935878"/>
      </g>
     </g>
     <g id="text_7">
      <!-- 0.22 -->
      <g transform="translate(87.374375 400.735096)scale(0.1 -0.1)">
       <use xlink:href="#DejaVuSans-48"/>
       <use x="63.623047" xlink:href="#DejaVuSans-46"/>
       <use x="95.410156" xlink:href="#DejaVuSans-50"/>
       <use x="159.033203" xlink:href="#DejaVuSans-50"/>
      </g>
     </g>
    </g>
    <g id="ytick_2">
     <g id="line2d_7">
      <g>
       <use style="stroke:#000000;stroke-width:0.8;" x="116.64" xlink:href="#m112f3594ac" y="341.306991"/>
      </g>
     </g>
     <g id="text_8">
      <!-- 0.24 -->
      <g transform="translate(87.374375 345.10621)scale(0.1 -0.1)">
       <use xlink:href="#DejaVuSans-48"/>
       <use x="63.623047" xlink:href="#DejaVuSans-46"/>
       <use x="95.410156" xlink:href="#DejaVuSans-50"/>
       <use x="159.033203" xlink:href="#DejaVuSans-52"/>
      </g>
     </g>
    </g>
    <g id="ytick_3">
     <g id="line2d_8">
      <g>
       <use style="stroke:#000000;stroke-width:0.8;" x="116.64" xlink:href="#m112f3594ac" y="285.678105"/>
      </g>
     </g>
     <g id="text_9">
      <!-- 0.26 -->
      <g transform="translate(87.374375 289.477324)scale(0.1 -0.1)">
       <use xlink:href="#DejaVuSans-48"/>
       <use x="63.623047" xlink:href="#DejaVuSans-46"/>
       <use x="95.410156" xlink:href="#DejaVuSans-50"/>
       <use x="159.033203" xlink:href="#DejaVuSans-54"/>
      </g>
     </g>
    </g>
    <g id="ytick_4">
     <g id="line2d_9">
      <g>
       <use style="stroke:#000000;stroke-width:0.8;" x="116.64" xlink:href="#m112f3594ac" y="230.049219"/>
      </g>
     </g>
     <g id="text_10">
      <!-- 0.28 -->
      <g transform="translate(87.374375 233.848438)scale(0.1 -0.1)">
       <use xlink:href="#DejaVuSans-48"/>
       <use x="63.623047" xlink:href="#DejaVuSans-46"/>
       <use x="95.410156" xlink:href="#DejaVuSans-50"/>
       <use x="159.033203" xlink:href="#DejaVuSans-56"/>
      </g>
     </g>
    </g>
    <g id="ytick_5">
     <g id="line2d_10">
      <g>
       <use style="stroke:#000000;stroke-width:0.8;" x="116.64" xlink:href="#m112f3594ac" y="174.420333"/>
      </g>
     </g>
     <g id="text_11">
      <!-- 0.30 -->
      <defs>
       <path d="M 40.578125 39.3125 
Q 47.65625 37.796875 51.625 33 
Q 55.609375 28.21875 55.609375 21.1875 
Q 55.609375 10.40625 48.1875 4.484375 
Q 40.765625 -1.421875 27.09375 -1.421875 
Q 22.515625 -1.421875 17.65625 -0.515625 
Q 12.796875 0.390625 7.625 2.203125 
L 7.625 11.71875 
Q 11.71875 9.328125 16.59375 8.109375 
Q 21.484375 6.890625 26.8125 6.890625 
Q 36.078125 6.890625 40.9375 10.546875 
Q 45.796875 14.203125 45.796875 21.1875 
Q 45.796875 27.640625 41.28125 31.265625 
Q 36.765625 34.90625 28.71875 34.90625 
L 20.21875 34.90625 
L 20.21875 43.015625 
L 29.109375 43.015625 
Q 36.375 43.015625 40.234375 45.921875 
Q 44.09375 48.828125 44.09375 54.296875 
Q 44.09375 59.90625 40.109375 62.90625 
Q 36.140625 65.921875 28.71875 65.921875 
Q 24.65625 65.921875 20.015625 65.03125 
Q 15.375 64.15625 9.8125 62.3125 
L 9.8125 71.09375 
Q 15.4375 72.65625 20.34375 73.4375 
Q 25.25 74.21875 29.59375 74.21875 
Q 40.828125 74.21875 47.359375 69.109375 
Q 53.90625 64.015625 53.90625 55.328125 
Q 53.90625 49.265625 50.4375 45.09375 
Q 46.96875 40.921875 40.578125 39.3125 
z
" id="DejaVuSans-51"/>
      </defs>
      <g transform="translate(87.374375 178.219552)scale(0.1 -0.1)">
       <use xlink:href="#DejaVuSans-48"/>
       <use x="63.623047" xlink:href="#DejaVuSans-46"/>
       <use x="95.410156" xlink:href="#DejaVuSans-51"/>
       <use x="159.033203" xlink:href="#DejaVuSans-48"/>
      </g>
     </g>
    </g>
    <g id="ytick_6">
     <g id="line2d_11">
      <g>
       <use style="stroke:#000000;stroke-width:0.8;" x="116.64" xlink:href="#m112f3594ac" y="118.791447"/>
      </g>
     </g>
     <g id="text_12">
      <!-- 0.32 -->
      <g transform="translate(87.374375 122.590666)scale(0.1 -0.1)">
       <use xlink:href="#DejaVuSans-48"/>
       <use x="63.623047" xlink:href="#DejaVuSans-46"/>
       <use x="95.410156" xlink:href="#DejaVuSans-51"/>
       <use x="159.033203" xlink:href="#DejaVuSans-50"/>
      </g>
     </g>
    </g>
    <g id="ytick_7">
     <g id="line2d_12">
      <g>
       <use style="stroke:#000000;stroke-width:0.8;" x="116.64" xlink:href="#m112f3594ac" y="63.162561"/>
      </g>
     </g>
     <g id="text_13">
      <!-- 0.34 -->
      <g transform="translate(87.374375 66.96178)scale(0.1 -0.1)">
       <use xlink:href="#DejaVuSans-48"/>
       <use x="63.623047" xlink:href="#DejaVuSans-46"/>
       <use x="95.410156" xlink:href="#DejaVuSans-51"/>
       <use x="159.033203" xlink:href="#DejaVuSans-52"/>
      </g>
     </g>
    </g>
    <g id="text_14">
     <!-- exponent -->
     <defs>
      <path d="M 54.890625 54.6875 
L 35.109375 28.078125 
L 55.90625 0 
L 45.3125 0 
L 29.390625 21.484375 
L 13.484375 0 
L 2.875 0 
L 24.125 28.609375 
L 4.6875 54.6875 
L 15.28125 54.6875 
L 29.78125 35.203125 
L 44.28125 54.6875 
z
" id="DejaVuSans-120"/>
      <path d="M 30.609375 48.390625 
Q 23.390625 48.390625 19.1875 42.75 
Q 14.984375 37.109375 14.984375 27.296875 
Q 14.984375 17.484375 19.15625 11.84375 
Q 23.34375 6.203125 30.609375 6.203125 
Q 37.796875 6.203125 41.984375 11.859375 
Q 46.1875 17.53125 46.1875 27.296875 
Q 46.1875 37.015625 41.984375 42.703125 
Q 37.796875 48.390625 30.609375 48.390625 
z
M 30.609375 56 
Q 42.328125 56 49.015625 48.375 
Q 55.71875 40.765625 55.71875 27.296875 
Q 55.71875 13.875 49.015625 6.21875 
Q 42.328125 -1.421875 30.609375 -1.421875 
Q 18.84375 -1.421875 12.171875 6.21875 
Q 5.515625 13.875 5.515625 27.296875 
Q 5.515625 40.765625 12.171875 48.375 
Q 18.84375 56 30.609375 56 
z
" id="DejaVuSans-111"/>
     </defs>
     <g transform="translate(81.294688 267.254969)rotate(-90)scale(0.1 -0.1)">
      <use xlink:href="#DejaVuSans-101"/>
      <use x="61.507812" xlink:href="#DejaVuSans-120"/>
      <use x="120.6875" xlink:href="#DejaVuSans-112"/>
      <use x="184.164062" xlink:href="#DejaVuSans-111"/>
      <use x="245.345703" xlink:href="#DejaVuSans-110"/>
      <use x="308.724609" xlink:href="#DejaVuSans-101"/>
      <use x="370.248047" xlink:href="#DejaVuSans-110"/>
      <use x="433.626953" xlink:href="#DejaVuSans-116"/>
     </g>
    </g>
   </g>
   <g id="patch_22">
    <path d="M 116.64 429.336 
L 116.64 57.888 
" style="fill:none;stroke:#000000;stroke-linecap:square;stroke-linejoin:miter;stroke-width:0.8;"/>
   </g>
   <g id="patch_23">
    <path d="M 839.808 429.336 
L 839.808 57.888 
" style="fill:none;stroke:#000000;stroke-linecap:square;stroke-linejoin:miter;stroke-width:0.8;"/>
   </g>
   <g id="patch_24">
    <path d="M 116.64 429.336 
L 839.808 429.336 
" style="fill:none;stroke:#000000;stroke-linecap:square;stroke-linejoin:miter;stroke-width:0.8;"/>
   </g>
   <g id="patch_25">
    <path d="M 116.64 57.888 
L 839.808 57.888 
" style="fill:none;stroke:#000000;stroke-linecap:square;stroke-linejoin:miter;stroke-width:0.8;"/>
   </g>
   <g id="text_15">
    <!-- 2020-03-17 -->
    <defs>
     <path d="M 4.890625 31.390625 
L 31.203125 31.390625 
L 31.203125 23.390625 
L 4.890625 23.390625 
z
" id="DejaVuSans-45"/>
     <path d="M 8.203125 72.90625 
L 55.078125 72.90625 
L 55.078125 68.703125 
L 28.609375 0 
L 18.3125 0 
L 43.21875 64.59375 
L 8.203125 64.59375 
z
" id="DejaVuSans-55"/>
    </defs>
    <g transform="translate(140.501051 82.920999)scale(0.1 -0.1)">
     <use xlink:href="#DejaVuSans-50"/>
     <use x="63.623047" xlink:href="#DejaVuSans-48"/>
     <use x="127.246094" xlink:href="#DejaVuSans-50"/>
     <use x="190.869141" xlink:href="#DejaVuSans-48"/>
     <use x="254.492188" xlink:href="#DejaVuSans-45"/>
     <use x="290.576172" xlink:href="#DejaVuSans-48"/>
     <use x="354.199219" xlink:href="#DejaVuSans-51"/>
     <use x="417.822266" xlink:href="#DejaVuSans-45"/>
     <use x="453.90625" xlink:href="#DejaVuSans-49"/>
     <use x="517.529297" xlink:href="#DejaVuSans-55"/>
    </g>
   </g>
   <g id="text_16">
    <!-- 2020-03-18 -->
    <g transform="translate(165.411517 102.210348)scale(0.1 -0.1)">
     <use xlink:href="#DejaVuSans-50"/>
     <use x="63.623047" xlink:href="#DejaVuSans-48"/>
     <use x="127.246094" xlink:href="#DejaVuSans-50"/>
     <use x="190.869141" xlink:href="#DejaVuSans-48"/>
     <use x="254.492188" xlink:href="#DejaVuSans-45"/>
     <use x="290.576172" xlink:href="#DejaVuSans-48"/>
     <use x="354.199219" xlink:href="#DejaVuSans-51"/>
     <use x="417.822266" xlink:href="#DejaVuSans-45"/>
     <use x="453.90625" xlink:href="#DejaVuSans-49"/>
     <use x="517.529297" xlink:href="#DejaVuSans-56"/>
    </g>
   </g>
   <g id="text_17">
    <!-- 2020-03-19 -->
    <defs>
     <path d="M 10.984375 1.515625 
L 10.984375 10.5 
Q 14.703125 8.734375 18.5 7.8125 
Q 22.3125 6.890625 25.984375 6.890625 
Q 35.75 6.890625 40.890625 13.453125 
Q 46.046875 20.015625 46.78125 33.40625 
Q 43.953125 29.203125 39.59375 26.953125 
Q 35.25 24.703125 29.984375 24.703125 
Q 19.046875 24.703125 12.671875 31.3125 
Q 6.296875 37.9375 6.296875 49.421875 
Q 6.296875 60.640625 12.9375 67.421875 
Q 19.578125 74.21875 30.609375 74.21875 
Q 43.265625 74.21875 49.921875 64.515625 
Q 56.59375 54.828125 56.59375 36.375 
Q 56.59375 19.140625 48.40625 8.859375 
Q 40.234375 -1.421875 26.421875 -1.421875 
Q 22.703125 -1.421875 18.890625 -0.6875 
Q 15.09375 0.046875 10.984375 1.515625 
z
M 30.609375 32.421875 
Q 37.25 32.421875 41.125 36.953125 
Q 45.015625 41.5 45.015625 49.421875 
Q 45.015625 57.28125 41.125 61.84375 
Q 37.25 66.40625 30.609375 66.40625 
Q 23.96875 66.40625 20.09375 61.84375 
Q 16.21875 57.28125 16.21875 49.421875 
Q 16.21875 41.5 20.09375 36.953125 
Q 23.96875 32.421875 30.609375 32.421875 
z
" id="DejaVuSans-57"/>
    </defs>
    <g transform="translate(194.318229 123.101923)scale(0.1 -0.1)">
     <use xlink:href="#DejaVuSans-50"/>
     <use x="63.623047" xlink:href="#DejaVuSans-48"/>
     <use x="127.246094" xlink:href="#DejaVuSans-50"/>
     <use x="190.869141" xlink:href="#DejaVuSans-48"/>
     <use x="254.492188" xlink:href="#DejaVuSans-45"/>
     <use x="290.576172" xlink:href="#DejaVuSans-48"/>
     <use x="354.199219" xlink:href="#DejaVuSans-51"/>
     <use x="417.822266" xlink:href="#DejaVuSans-45"/>
     <use x="453.90625" xlink:href="#DejaVuSans-49"/>
     <use x="517.529297" xlink:href="#DejaVuSans-57"/>
    </g>
   </g>
   <g id="text_18">
    <!-- 2020-03-20 -->
    <g transform="translate(218.307151 139.355708)scale(0.1 -0.1)">
     <use xlink:href="#DejaVuSans-50"/>
     <use x="63.623047" xlink:href="#DejaVuSans-48"/>
     <use x="127.246094" xlink:href="#DejaVuSans-50"/>
     <use x="190.869141" xlink:href="#DejaVuSans-48"/>
     <use x="254.492188" xlink:href="#DejaVuSans-45"/>
     <use x="290.576172" xlink:href="#DejaVuSans-48"/>
     <use x="354.199219" xlink:href="#DejaVuSans-51"/>
     <use x="417.822266" xlink:href="#DejaVuSans-45"/>
     <use x="453.90625" xlink:href="#DejaVuSans-50"/>
     <use x="517.529297" xlink:href="#DejaVuSans-48"/>
    </g>
   </g>
   <g id="text_19">
    <!-- 2020-03-21 -->
    <g transform="translate(239.805361 153.065066)scale(0.1 -0.1)">
     <use xlink:href="#DejaVuSans-50"/>
     <use x="63.623047" xlink:href="#DejaVuSans-48"/>
     <use x="127.246094" xlink:href="#DejaVuSans-50"/>
     <use x="190.869141" xlink:href="#DejaVuSans-48"/>
     <use x="254.492188" xlink:href="#DejaVuSans-45"/>
     <use x="290.576172" xlink:href="#DejaVuSans-48"/>
     <use x="354.199219" xlink:href="#DejaVuSans-51"/>
     <use x="417.822266" xlink:href="#DejaVuSans-45"/>
     <use x="453.90625" xlink:href="#DejaVuSans-50"/>
     <use x="517.529297" xlink:href="#DejaVuSans-49"/>
    </g>
   </g>
   <g id="text_20">
    <!-- 2020-03-22 -->
    <g transform="translate(270.294928 171.428018)scale(0.1 -0.1)">
     <use xlink:href="#DejaVuSans-50"/>
     <use x="63.623047" xlink:href="#DejaVuSans-48"/>
     <use x="127.246094" xlink:href="#DejaVuSans-50"/>
     <use x="190.869141" xlink:href="#DejaVuSans-48"/>
     <use x="254.492188" xlink:href="#DejaVuSans-45"/>
     <use x="290.576172" xlink:href="#DejaVuSans-48"/>
     <use x="354.199219" xlink:href="#DejaVuSans-51"/>
     <use x="417.822266" xlink:href="#DejaVuSans-45"/>
     <use x="453.90625" xlink:href="#DejaVuSans-50"/>
     <use x="517.529297" xlink:href="#DejaVuSans-50"/>
    </g>
   </g>
   <g id="text_21">
    <!-- 2020-03-23 -->
    <g transform="translate(303.130652 190.16315)scale(0.1 -0.1)">
     <use xlink:href="#DejaVuSans-50"/>
     <use x="63.623047" xlink:href="#DejaVuSans-48"/>
     <use x="127.246094" xlink:href="#DejaVuSans-50"/>
     <use x="190.869141" xlink:href="#DejaVuSans-48"/>
     <use x="254.492188" xlink:href="#DejaVuSans-45"/>
     <use x="290.576172" xlink:href="#DejaVuSans-48"/>
     <use x="354.199219" xlink:href="#DejaVuSans-51"/>
     <use x="417.822266" xlink:href="#DejaVuSans-45"/>
     <use x="453.90625" xlink:href="#DejaVuSans-50"/>
     <use x="517.529297" xlink:href="#DejaVuSans-51"/>
    </g>
   </g>
   <g id="text_22">
    <!-- 2020-03-24 -->
    <g transform="translate(343.336885 211.956658)scale(0.1 -0.1)">
     <use xlink:href="#DejaVuSans-50"/>
     <use x="63.623047" xlink:href="#DejaVuSans-48"/>
     <use x="127.246094" xlink:href="#DejaVuSans-50"/>
     <use x="190.869141" xlink:href="#DejaVuSans-48"/>
     <use x="254.492188" xlink:href="#DejaVuSans-45"/>
     <use x="290.576172" xlink:href="#DejaVuSans-48"/>
     <use x="354.199219" xlink:href="#DejaVuSans-51"/>
     <use x="417.822266" xlink:href="#DejaVuSans-45"/>
     <use x="453.90625" xlink:href="#DejaVuSans-50"/>
     <use x="517.529297" xlink:href="#DejaVuSans-52"/>
    </g>
   </g>
   <g id="text_23">
    <!-- 2020-03-25 -->
    <defs>
     <path d="M 10.796875 72.90625 
L 49.515625 72.90625 
L 49.515625 64.59375 
L 19.828125 64.59375 
L 19.828125 46.734375 
Q 21.96875 47.46875 24.109375 47.828125 
Q 26.265625 48.1875 28.421875 48.1875 
Q 40.625 48.1875 47.75 41.5 
Q 54.890625 34.8125 54.890625 23.390625 
Q 54.890625 11.625 47.5625 5.09375 
Q 40.234375 -1.421875 26.90625 -1.421875 
Q 22.3125 -1.421875 17.546875 -0.640625 
Q 12.796875 0.140625 7.71875 1.703125 
L 7.71875 11.625 
Q 12.109375 9.234375 16.796875 8.0625 
Q 21.484375 6.890625 26.703125 6.890625 
Q 35.15625 6.890625 40.078125 11.328125 
Q 45.015625 15.765625 45.015625 23.390625 
Q 45.015625 31 40.078125 35.4375 
Q 35.15625 39.890625 26.703125 39.890625 
Q 22.75 39.890625 18.8125 39.015625 
Q 14.890625 38.140625 10.796875 36.28125 
z
" id="DejaVuSans-53"/>
    </defs>
    <g transform="translate(385.133561 233.533416)scale(0.1 -0.1)">
     <use xlink:href="#DejaVuSans-50"/>
     <use x="63.623047" xlink:href="#DejaVuSans-48"/>
     <use x="127.246094" xlink:href="#DejaVuSans-50"/>
     <use x="190.869141" xlink:href="#DejaVuSans-48"/>
     <use x="254.492188" xlink:href="#DejaVuSans-45"/>
     <use x="290.576172" xlink:href="#DejaVuSans-48"/>
     <use x="354.199219" xlink:href="#DejaVuSans-51"/>
     <use x="417.822266" xlink:href="#DejaVuSans-45"/>
     <use x="453.90625" xlink:href="#DejaVuSans-50"/>
     <use x="517.529297" xlink:href="#DejaVuSans-53"/>
    </g>
   </g>
   <g id="text_24">
    <!-- 2020-03-26 -->
    <g transform="translate(424.873864 253.116102)scale(0.1 -0.1)">
     <use xlink:href="#DejaVuSans-50"/>
     <use x="63.623047" xlink:href="#DejaVuSans-48"/>
     <use x="127.246094" xlink:href="#DejaVuSans-50"/>
     <use x="190.869141" xlink:href="#DejaVuSans-48"/>
     <use x="254.492188" xlink:href="#DejaVuSans-45"/>
     <use x="290.576172" xlink:href="#DejaVuSans-48"/>
     <use x="354.199219" xlink:href="#DejaVuSans-51"/>
     <use x="417.822266" xlink:href="#DejaVuSans-45"/>
     <use x="453.90625" xlink:href="#DejaVuSans-50"/>
     <use x="517.529297" xlink:href="#DejaVuSans-54"/>
    </g>
   </g>
   <g id="text_25">
    <!-- 2020-03-27 -->
    <g transform="translate(459.952321 269.650043)scale(0.1 -0.1)">
     <use xlink:href="#DejaVuSans-50"/>
     <use x="63.623047" xlink:href="#DejaVuSans-48"/>
     <use x="127.246094" xlink:href="#DejaVuSans-50"/>
     <use x="190.869141" xlink:href="#DejaVuSans-48"/>
     <use x="254.492188" xlink:href="#DejaVuSans-45"/>
     <use x="290.576172" xlink:href="#DejaVuSans-48"/>
     <use x="354.199219" xlink:href="#DejaVuSans-51"/>
     <use x="417.822266" xlink:href="#DejaVuSans-45"/>
     <use x="453.90625" xlink:href="#DejaVuSans-50"/>
     <use x="517.529297" xlink:href="#DejaVuSans-55"/>
    </g>
   </g>
   <g id="text_26">
    <!-- 2020-03-28 -->
    <g transform="translate(497.40289 286.566559)scale(0.1 -0.1)">
     <use xlink:href="#DejaVuSans-50"/>
     <use x="63.623047" xlink:href="#DejaVuSans-48"/>
     <use x="127.246094" xlink:href="#DejaVuSans-50"/>
     <use x="190.869141" xlink:href="#DejaVuSans-48"/>
     <use x="254.492188" xlink:href="#DejaVuSans-45"/>
     <use x="290.576172" xlink:href="#DejaVuSans-48"/>
     <use x="354.199219" xlink:href="#DejaVuSans-51"/>
     <use x="417.822266" xlink:href="#DejaVuSans-45"/>
     <use x="453.90625" xlink:href="#DejaVuSans-50"/>
     <use x="517.529297" xlink:href="#DejaVuSans-56"/>
    </g>
   </g>
   <g id="text_27">
    <!-- 2020-03-29 -->
    <g transform="translate(533.60558 302.265292)scale(0.1 -0.1)">
     <use xlink:href="#DejaVuSans-50"/>
     <use x="63.623047" xlink:href="#DejaVuSans-48"/>
     <use x="127.246094" xlink:href="#DejaVuSans-50"/>
     <use x="190.869141" xlink:href="#DejaVuSans-48"/>
     <use x="254.492188" xlink:href="#DejaVuSans-45"/>
     <use x="290.576172" xlink:href="#DejaVuSans-48"/>
     <use x="354.199219" xlink:href="#DejaVuSans-51"/>
     <use x="417.822266" xlink:href="#DejaVuSans-45"/>
     <use x="453.90625" xlink:href="#DejaVuSans-50"/>
     <use x="517.529297" xlink:href="#DejaVuSans-57"/>
    </g>
   </g>
   <g id="text_28">
    <!-- 2020-03-30 -->
    <g transform="translate(573.236727 318.789743)scale(0.1 -0.1)">
     <use xlink:href="#DejaVuSans-50"/>
     <use x="63.623047" xlink:href="#DejaVuSans-48"/>
     <use x="127.246094" xlink:href="#DejaVuSans-50"/>
     <use x="190.869141" xlink:href="#DejaVuSans-48"/>
     <use x="254.492188" xlink:href="#DejaVuSans-45"/>
     <use x="290.576172" xlink:href="#DejaVuSans-48"/>
     <use x="354.199219" xlink:href="#DejaVuSans-51"/>
     <use x="417.822266" xlink:href="#DejaVuSans-45"/>
     <use x="453.90625" xlink:href="#DejaVuSans-51"/>
     <use x="517.529297" xlink:href="#DejaVuSans-48"/>
    </g>
   </g>
   <g id="text_29">
    <!-- 2020-03-31 -->
    <g transform="translate(615.414211 335.724566)scale(0.1 -0.1)">
     <use xlink:href="#DejaVuSans-50"/>
     <use x="63.623047" xlink:href="#DejaVuSans-48"/>
     <use x="127.246094" xlink:href="#DejaVuSans-50"/>
     <use x="190.869141" xlink:href="#DejaVuSans-48"/>
     <use x="254.492188" xlink:href="#DejaVuSans-45"/>
     <use x="290.576172" xlink:href="#DejaVuSans-48"/>
     <use x="354.199219" xlink:href="#DejaVuSans-51"/>
     <use x="417.822266" xlink:href="#DejaVuSans-45"/>
     <use x="453.90625" xlink:href="#DejaVuSans-51"/>
     <use x="517.529297" xlink:href="#DejaVuSans-49"/>
    </g>
   </g>
   <g id="text_30">
    <!-- 2020-04-01 -->
    <g transform="translate(657.641737 352.073949)scale(0.1 -0.1)">
     <use xlink:href="#DejaVuSans-50"/>
     <use x="63.623047" xlink:href="#DejaVuSans-48"/>
     <use x="127.246094" xlink:href="#DejaVuSans-50"/>
     <use x="190.869141" xlink:href="#DejaVuSans-48"/>
     <use x="254.492188" xlink:href="#DejaVuSans-45"/>
     <use x="290.576172" xlink:href="#DejaVuSans-48"/>
     <use x="354.199219" xlink:href="#DejaVuSans-52"/>
     <use x="417.822266" xlink:href="#DejaVuSans-45"/>
     <use x="453.90625" xlink:href="#DejaVuSans-48"/>
     <use x="517.529297" xlink:href="#DejaVuSans-49"/>
    </g>
   </g>
   <g id="text_31">
    <!-- 2020-04-02 -->
    <g transform="translate(700.353952 368.040747)scale(0.1 -0.1)">
     <use xlink:href="#DejaVuSans-50"/>
     <use x="63.623047" xlink:href="#DejaVuSans-48"/>
     <use x="127.246094" xlink:href="#DejaVuSans-50"/>
     <use x="190.869141" xlink:href="#DejaVuSans-48"/>
     <use x="254.492188" xlink:href="#DejaVuSans-45"/>
     <use x="290.576172" xlink:href="#DejaVuSans-48"/>
     <use x="354.199219" xlink:href="#DejaVuSans-52"/>
     <use x="417.822266" xlink:href="#DejaVuSans-45"/>
     <use x="453.90625" xlink:href="#DejaVuSans-48"/>
     <use x="517.529297" xlink:href="#DejaVuSans-50"/>
    </g>
   </g>
   <g id="text_32">
    <!-- 2020-04-03 -->
    <g transform="translate(743.627534 383.678176)scale(0.1 -0.1)">
     <use xlink:href="#DejaVuSans-50"/>
     <use x="63.623047" xlink:href="#DejaVuSans-48"/>
     <use x="127.246094" xlink:href="#DejaVuSans-50"/>
     <use x="190.869141" xlink:href="#DejaVuSans-48"/>
     <use x="254.492188" xlink:href="#DejaVuSans-45"/>
     <use x="290.576172" xlink:href="#DejaVuSans-48"/>
     <use x="354.199219" xlink:href="#DejaVuSans-52"/>
     <use x="417.822266" xlink:href="#DejaVuSans-45"/>
     <use x="453.90625" xlink:href="#DejaVuSans-48"/>
     <use x="517.529297" xlink:href="#DejaVuSans-51"/>
    </g>
   </g>
   <g id="text_33">
    <!-- 2020-04-04 -->
    <g transform="translate(786.697919 398.740113)scale(0.1 -0.1)">
     <use xlink:href="#DejaVuSans-50"/>
     <use x="63.623047" xlink:href="#DejaVuSans-48"/>
     <use x="127.246094" xlink:href="#DejaVuSans-50"/>
     <use x="190.869141" xlink:href="#DejaVuSans-48"/>
     <use x="254.492188" xlink:href="#DejaVuSans-45"/>
     <use x="290.576172" xlink:href="#DejaVuSans-48"/>
     <use x="354.199219" xlink:href="#DejaVuSans-52"/>
     <use x="417.822266" xlink:href="#DejaVuSans-45"/>
     <use x="453.90625" xlink:href="#DejaVuSans-48"/>
     <use x="517.529297" xlink:href="#DejaVuSans-52"/>
    </g>
   </g>
   <g id="text_34">
    <!-- https://github.com/PavelDusek/COVID-19 -->
    <defs>
     <path d="M 54.890625 33.015625 
L 54.890625 0 
L 45.90625 0 
L 45.90625 32.71875 
Q 45.90625 40.484375 42.875 44.328125 
Q 39.84375 48.1875 33.796875 48.1875 
Q 26.515625 48.1875 22.3125 43.546875 
Q 18.109375 38.921875 18.109375 30.90625 
L 18.109375 0 
L 9.078125 0 
L 9.078125 75.984375 
L 18.109375 75.984375 
L 18.109375 46.1875 
Q 21.34375 51.125 25.703125 53.5625 
Q 30.078125 56 35.796875 56 
Q 45.21875 56 50.046875 50.171875 
Q 54.890625 44.34375 54.890625 33.015625 
z
" id="DejaVuSans-104"/>
     <path d="M 44.28125 53.078125 
L 44.28125 44.578125 
Q 40.484375 46.53125 36.375 47.5 
Q 32.28125 48.484375 27.875 48.484375 
Q 21.1875 48.484375 17.84375 46.4375 
Q 14.5 44.390625 14.5 40.28125 
Q 14.5 37.15625 16.890625 35.375 
Q 19.28125 33.59375 26.515625 31.984375 
L 29.59375 31.296875 
Q 39.15625 29.25 43.1875 25.515625 
Q 47.21875 21.78125 47.21875 15.09375 
Q 47.21875 7.46875 41.1875 3.015625 
Q 35.15625 -1.421875 24.609375 -1.421875 
Q 20.21875 -1.421875 15.453125 -0.5625 
Q 10.6875 0.296875 5.421875 2 
L 5.421875 11.28125 
Q 10.40625 8.6875 15.234375 7.390625 
Q 20.0625 6.109375 24.8125 6.109375 
Q 31.15625 6.109375 34.5625 8.28125 
Q 37.984375 10.453125 37.984375 14.40625 
Q 37.984375 18.0625 35.515625 20.015625 
Q 33.0625 21.96875 24.703125 23.78125 
L 21.578125 24.515625 
Q 13.234375 26.265625 9.515625 29.90625 
Q 5.8125 33.546875 5.8125 39.890625 
Q 5.8125 47.609375 11.28125 51.796875 
Q 16.75 56 26.8125 56 
Q 31.78125 56 36.171875 55.265625 
Q 40.578125 54.546875 44.28125 53.078125 
z
" id="DejaVuSans-115"/>
     <path d="M 11.71875 12.40625 
L 22.015625 12.40625 
L 22.015625 0 
L 11.71875 0 
z
M 11.71875 51.703125 
L 22.015625 51.703125 
L 22.015625 39.3125 
L 11.71875 39.3125 
z
" id="DejaVuSans-58"/>
     <path d="M 25.390625 72.90625 
L 33.6875 72.90625 
L 8.296875 -9.28125 
L 0 -9.28125 
z
" id="DejaVuSans-47"/>
     <path d="M 45.40625 27.984375 
Q 45.40625 37.75 41.375 43.109375 
Q 37.359375 48.484375 30.078125 48.484375 
Q 22.859375 48.484375 18.828125 43.109375 
Q 14.796875 37.75 14.796875 27.984375 
Q 14.796875 18.265625 18.828125 12.890625 
Q 22.859375 7.515625 30.078125 7.515625 
Q 37.359375 7.515625 41.375 12.890625 
Q 45.40625 18.265625 45.40625 27.984375 
z
M 54.390625 6.78125 
Q 54.390625 -7.171875 48.1875 -13.984375 
Q 42 -20.796875 29.203125 -20.796875 
Q 24.46875 -20.796875 20.265625 -20.09375 
Q 16.0625 -19.390625 12.109375 -17.921875 
L 12.109375 -9.1875 
Q 16.0625 -11.328125 19.921875 -12.34375 
Q 23.78125 -13.375 27.78125 -13.375 
Q 36.625 -13.375 41.015625 -8.765625 
Q 45.40625 -4.15625 45.40625 5.171875 
L 45.40625 9.625 
Q 42.625 4.78125 38.28125 2.390625 
Q 33.9375 0 27.875 0 
Q 17.828125 0 11.671875 7.65625 
Q 5.515625 15.328125 5.515625 27.984375 
Q 5.515625 40.671875 11.671875 48.328125 
Q 17.828125 56 27.875 56 
Q 33.9375 56 38.28125 53.609375 
Q 42.625 51.21875 45.40625 46.390625 
L 45.40625 54.6875 
L 54.390625 54.6875 
z
" id="DejaVuSans-103"/>
     <path d="M 8.5 21.578125 
L 8.5 54.6875 
L 17.484375 54.6875 
L 17.484375 21.921875 
Q 17.484375 14.15625 20.5 10.265625 
Q 23.53125 6.390625 29.59375 6.390625 
Q 36.859375 6.390625 41.078125 11.03125 
Q 45.3125 15.671875 45.3125 23.6875 
L 45.3125 54.6875 
L 54.296875 54.6875 
L 54.296875 0 
L 45.3125 0 
L 45.3125 8.40625 
Q 42.046875 3.421875 37.71875 1 
Q 33.40625 -1.421875 27.6875 -1.421875 
Q 18.265625 -1.421875 13.375 4.4375 
Q 8.5 10.296875 8.5 21.578125 
z
M 31.109375 56 
z
" id="DejaVuSans-117"/>
     <path d="M 48.6875 27.296875 
Q 48.6875 37.203125 44.609375 42.84375 
Q 40.53125 48.484375 33.40625 48.484375 
Q 26.265625 48.484375 22.1875 42.84375 
Q 18.109375 37.203125 18.109375 27.296875 
Q 18.109375 17.390625 22.1875 11.75 
Q 26.265625 6.109375 33.40625 6.109375 
Q 40.53125 6.109375 44.609375 11.75 
Q 48.6875 17.390625 48.6875 27.296875 
z
M 18.109375 46.390625 
Q 20.953125 51.265625 25.265625 53.625 
Q 29.59375 56 35.59375 56 
Q 45.5625 56 51.78125 48.09375 
Q 58.015625 40.1875 58.015625 27.296875 
Q 58.015625 14.40625 51.78125 6.484375 
Q 45.5625 -1.421875 35.59375 -1.421875 
Q 29.59375 -1.421875 25.265625 0.953125 
Q 20.953125 3.328125 18.109375 8.203125 
L 18.109375 0 
L 9.078125 0 
L 9.078125 75.984375 
L 18.109375 75.984375 
z
" id="DejaVuSans-98"/>
     <path d="M 52 44.1875 
Q 55.375 50.25 60.0625 53.125 
Q 64.75 56 71.09375 56 
Q 79.640625 56 84.28125 50.015625 
Q 88.921875 44.046875 88.921875 33.015625 
L 88.921875 0 
L 79.890625 0 
L 79.890625 32.71875 
Q 79.890625 40.578125 77.09375 44.375 
Q 74.3125 48.1875 68.609375 48.1875 
Q 61.625 48.1875 57.5625 43.546875 
Q 53.515625 38.921875 53.515625 30.90625 
L 53.515625 0 
L 44.484375 0 
L 44.484375 32.71875 
Q 44.484375 40.625 41.703125 44.40625 
Q 38.921875 48.1875 33.109375 48.1875 
Q 26.21875 48.1875 22.15625 43.53125 
Q 18.109375 38.875 18.109375 30.90625 
L 18.109375 0 
L 9.078125 0 
L 9.078125 54.6875 
L 18.109375 54.6875 
L 18.109375 46.1875 
Q 21.1875 51.21875 25.484375 53.609375 
Q 29.78125 56 35.6875 56 
Q 41.65625 56 45.828125 52.96875 
Q 50 49.953125 52 44.1875 
z
" id="DejaVuSans-109"/>
     <path d="M 19.671875 64.796875 
L 19.671875 37.40625 
L 32.078125 37.40625 
Q 38.96875 37.40625 42.71875 40.96875 
Q 46.484375 44.53125 46.484375 51.125 
Q 46.484375 57.671875 42.71875 61.234375 
Q 38.96875 64.796875 32.078125 64.796875 
z
M 9.8125 72.90625 
L 32.078125 72.90625 
Q 44.34375 72.90625 50.609375 67.359375 
Q 56.890625 61.8125 56.890625 51.125 
Q 56.890625 40.328125 50.609375 34.8125 
Q 44.34375 29.296875 32.078125 29.296875 
L 19.671875 29.296875 
L 19.671875 0 
L 9.8125 0 
z
" id="DejaVuSans-80"/>
     <path d="M 34.28125 27.484375 
Q 23.390625 27.484375 19.1875 25 
Q 14.984375 22.515625 14.984375 16.5 
Q 14.984375 11.71875 18.140625 8.90625 
Q 21.296875 6.109375 26.703125 6.109375 
Q 34.1875 6.109375 38.703125 11.40625 
Q 43.21875 16.703125 43.21875 25.484375 
L 43.21875 27.484375 
z
M 52.203125 31.203125 
L 52.203125 0 
L 43.21875 0 
L 43.21875 8.296875 
Q 40.140625 3.328125 35.546875 0.953125 
Q 30.953125 -1.421875 24.3125 -1.421875 
Q 15.921875 -1.421875 10.953125 3.296875 
Q 6 8.015625 6 15.921875 
Q 6 25.140625 12.171875 29.828125 
Q 18.359375 34.515625 30.609375 34.515625 
L 43.21875 34.515625 
L 43.21875 35.40625 
Q 43.21875 41.609375 39.140625 45 
Q 35.0625 48.390625 27.6875 48.390625 
Q 23 48.390625 18.546875 47.265625 
Q 14.109375 46.140625 10.015625 43.890625 
L 10.015625 52.203125 
Q 14.9375 54.109375 19.578125 55.046875 
Q 24.21875 56 28.609375 56 
Q 40.484375 56 46.34375 49.84375 
Q 52.203125 43.703125 52.203125 31.203125 
z
" id="DejaVuSans-97"/>
     <path d="M 2.984375 54.6875 
L 12.5 54.6875 
L 29.59375 8.796875 
L 46.6875 54.6875 
L 56.203125 54.6875 
L 35.6875 0 
L 23.484375 0 
z
" id="DejaVuSans-118"/>
     <path d="M 9.421875 75.984375 
L 18.40625 75.984375 
L 18.40625 0 
L 9.421875 0 
z
" id="DejaVuSans-108"/>
     <path d="M 19.671875 64.796875 
L 19.671875 8.109375 
L 31.59375 8.109375 
Q 46.6875 8.109375 53.6875 14.9375 
Q 60.6875 21.78125 60.6875 36.53125 
Q 60.6875 51.171875 53.6875 57.984375 
Q 46.6875 64.796875 31.59375 64.796875 
z
M 9.8125 72.90625 
L 30.078125 72.90625 
Q 51.265625 72.90625 61.171875 64.09375 
Q 71.09375 55.28125 71.09375 36.53125 
Q 71.09375 17.671875 61.125 8.828125 
Q 51.171875 0 30.078125 0 
L 9.8125 0 
z
" id="DejaVuSans-68"/>
     <path d="M 9.078125 75.984375 
L 18.109375 75.984375 
L 18.109375 31.109375 
L 44.921875 54.6875 
L 56.390625 54.6875 
L 27.390625 29.109375 
L 57.625 0 
L 45.90625 0 
L 18.109375 26.703125 
L 18.109375 0 
L 9.078125 0 
z
" id="DejaVuSans-107"/>
     <path d="M 64.40625 67.28125 
L 64.40625 56.890625 
Q 59.421875 61.53125 53.78125 63.8125 
Q 48.140625 66.109375 41.796875 66.109375 
Q 29.296875 66.109375 22.65625 58.46875 
Q 16.015625 50.828125 16.015625 36.375 
Q 16.015625 21.96875 22.65625 14.328125 
Q 29.296875 6.6875 41.796875 6.6875 
Q 48.140625 6.6875 53.78125 8.984375 
Q 59.421875 11.28125 64.40625 15.921875 
L 64.40625 5.609375 
Q 59.234375 2.09375 53.4375 0.328125 
Q 47.65625 -1.421875 41.21875 -1.421875 
Q 24.65625 -1.421875 15.125 8.703125 
Q 5.609375 18.84375 5.609375 36.375 
Q 5.609375 53.953125 15.125 64.078125 
Q 24.65625 74.21875 41.21875 74.21875 
Q 47.75 74.21875 53.53125 72.484375 
Q 59.328125 70.75 64.40625 67.28125 
z
" id="DejaVuSans-67"/>
     <path d="M 39.40625 66.21875 
Q 28.65625 66.21875 22.328125 58.203125 
Q 16.015625 50.203125 16.015625 36.375 
Q 16.015625 22.609375 22.328125 14.59375 
Q 28.65625 6.59375 39.40625 6.59375 
Q 50.140625 6.59375 56.421875 14.59375 
Q 62.703125 22.609375 62.703125 36.375 
Q 62.703125 50.203125 56.421875 58.203125 
Q 50.140625 66.21875 39.40625 66.21875 
z
M 39.40625 74.21875 
Q 54.734375 74.21875 63.90625 63.9375 
Q 73.09375 53.65625 73.09375 36.375 
Q 73.09375 19.140625 63.90625 8.859375 
Q 54.734375 -1.421875 39.40625 -1.421875 
Q 24.03125 -1.421875 14.8125 8.828125 
Q 5.609375 19.09375 5.609375 36.375 
Q 5.609375 53.65625 14.8125 63.9375 
Q 24.03125 74.21875 39.40625 74.21875 
z
" id="DejaVuSans-79"/>
     <path d="M 28.609375 0 
L 0.78125 72.90625 
L 11.078125 72.90625 
L 34.1875 11.53125 
L 57.328125 72.90625 
L 67.578125 72.90625 
L 39.796875 0 
z
" id="DejaVuSans-86"/>
     <path d="M 9.8125 72.90625 
L 19.671875 72.90625 
L 19.671875 0 
L 9.8125 0 
z
" id="DejaVuSans-73"/>
    </defs>
    <g transform="translate(354.591188 25.01325)scale(0.12 -0.12)">
     <use xlink:href="#DejaVuSans-104"/>
     <use x="63.378906" xlink:href="#DejaVuSans-116"/>
     <use x="102.587891" xlink:href="#DejaVuSans-116"/>
     <use x="141.796875" xlink:href="#DejaVuSans-112"/>
     <use x="205.273438" xlink:href="#DejaVuSans-115"/>
     <use x="257.373047" xlink:href="#DejaVuSans-58"/>
     <use x="291.064453" xlink:href="#DejaVuSans-47"/>
     <use x="324.755859" xlink:href="#DejaVuSans-47"/>
     <use x="358.447266" xlink:href="#DejaVuSans-103"/>
     <use x="421.923828" xlink:href="#DejaVuSans-105"/>
     <use x="449.707031" xlink:href="#DejaVuSans-116"/>
     <use x="488.916016" xlink:href="#DejaVuSans-104"/>
     <use x="552.294922" xlink:href="#DejaVuSans-117"/>
     <use x="615.673828" xlink:href="#DejaVuSans-98"/>
     <use x="679.150391" xlink:href="#DejaVuSans-46"/>
     <use x="710.9375" xlink:href="#DejaVuSans-99"/>
     <use x="765.917969" xlink:href="#DejaVuSans-111"/>
     <use x="827.099609" xlink:href="#DejaVuSans-109"/>
     <use x="924.511719" xlink:href="#DejaVuSans-47"/>
     <use x="958.203125" xlink:href="#DejaVuSans-80"/>
     <use x="1018.443359" xlink:href="#DejaVuSans-97"/>
     <use x="1079.722656" xlink:href="#DejaVuSans-118"/>
     <use x="1138.902344" xlink:href="#DejaVuSans-101"/>
     <use x="1200.425781" xlink:href="#DejaVuSans-108"/>
     <use x="1228.208984" xlink:href="#DejaVuSans-68"/>
     <use x="1305.210938" xlink:href="#DejaVuSans-117"/>
     <use x="1368.589844" xlink:href="#DejaVuSans-115"/>
     <use x="1420.689453" xlink:href="#DejaVuSans-101"/>
     <use x="1482.212891" xlink:href="#DejaVuSans-107"/>
     <use x="1540.123047" xlink:href="#DejaVuSans-47"/>
     <use x="1573.814453" xlink:href="#DejaVuSans-67"/>
     <use x="1643.638672" xlink:href="#DejaVuSans-79"/>
     <use x="1722.333984" xlink:href="#DejaVuSans-86"/>
     <use x="1790.742188" xlink:href="#DejaVuSans-73"/>
     <use x="1820.234375" xlink:href="#DejaVuSans-68"/>
     <use x="1897.236328" xlink:href="#DejaVuSans-45"/>
     <use x="1933.320312" xlink:href="#DejaVuSans-49"/>
     <use x="1996.943359" xlink:href="#DejaVuSans-57"/>
    </g>
    <!-- COVID-19 in the Czech Republic -->
    <defs>
     <path id="DejaVuSans-32"/>
     <path d="M 5.515625 54.6875 
L 48.1875 54.6875 
L 48.1875 46.484375 
L 14.40625 7.171875 
L 48.1875 7.171875 
L 48.1875 0 
L 4.296875 0 
L 4.296875 8.203125 
L 38.09375 47.515625 
L 5.515625 47.515625 
z
" id="DejaVuSans-122"/>
     <path d="M 44.390625 34.1875 
Q 47.5625 33.109375 50.5625 29.59375 
Q 53.5625 26.078125 56.59375 19.921875 
L 66.609375 0 
L 56 0 
L 46.6875 18.703125 
Q 43.0625 26.03125 39.671875 28.421875 
Q 36.28125 30.8125 30.421875 30.8125 
L 19.671875 30.8125 
L 19.671875 0 
L 9.8125 0 
L 9.8125 72.90625 
L 32.078125 72.90625 
Q 44.578125 72.90625 50.734375 67.671875 
Q 56.890625 62.453125 56.890625 51.90625 
Q 56.890625 45.015625 53.6875 40.46875 
Q 50.484375 35.9375 44.390625 34.1875 
z
M 19.671875 64.796875 
L 19.671875 38.921875 
L 32.078125 38.921875 
Q 39.203125 38.921875 42.84375 42.21875 
Q 46.484375 45.515625 46.484375 51.90625 
Q 46.484375 58.296875 42.84375 61.546875 
Q 39.203125 64.796875 32.078125 64.796875 
z
" id="DejaVuSans-82"/>
    </defs>
    <g transform="translate(382.031813 38.450625)scale(0.12 -0.12)">
     <use xlink:href="#DejaVuSans-67"/>
     <use x="69.824219" xlink:href="#DejaVuSans-79"/>
     <use x="148.519531" xlink:href="#DejaVuSans-86"/>
     <use x="216.927734" xlink:href="#DejaVuSans-73"/>
     <use x="246.419922" xlink:href="#DejaVuSans-68"/>
     <use x="323.421875" xlink:href="#DejaVuSans-45"/>
     <use x="359.505859" xlink:href="#DejaVuSans-49"/>
     <use x="423.128906" xlink:href="#DejaVuSans-57"/>
     <use x="486.751953" xlink:href="#DejaVuSans-32"/>
     <use x="518.539062" xlink:href="#DejaVuSans-105"/>
     <use x="546.322266" xlink:href="#DejaVuSans-110"/>
     <use x="609.701172" xlink:href="#DejaVuSans-32"/>
     <use x="641.488281" xlink:href="#DejaVuSans-116"/>
     <use x="680.697266" xlink:href="#DejaVuSans-104"/>
     <use x="744.076172" xlink:href="#DejaVuSans-101"/>
     <use x="805.599609" xlink:href="#DejaVuSans-32"/>
     <use x="837.386719" xlink:href="#DejaVuSans-67"/>
     <use x="907.210938" xlink:href="#DejaVuSans-122"/>
     <use x="959.701172" xlink:href="#DejaVuSans-101"/>
     <use x="1021.224609" xlink:href="#DejaVuSans-99"/>
     <use x="1076.205078" xlink:href="#DejaVuSans-104"/>
     <use x="1139.583984" xlink:href="#DejaVuSans-32"/>
     <use x="1171.371094" xlink:href="#DejaVuSans-82"/>
     <use x="1240.791016" xlink:href="#DejaVuSans-101"/>
     <use x="1302.314453" xlink:href="#DejaVuSans-112"/>
     <use x="1365.791016" xlink:href="#DejaVuSans-117"/>
     <use x="1429.169922" xlink:href="#DejaVuSans-98"/>
     <use x="1492.646484" xlink:href="#DejaVuSans-108"/>
     <use x="1520.429688" xlink:href="#DejaVuSans-105"/>
     <use x="1548.212891" xlink:href="#DejaVuSans-99"/>
    </g>
    <!-- Evolution of the Exponential Model Parameters by Date -->
    <defs>
     <path d="M 9.8125 72.90625 
L 55.90625 72.90625 
L 55.90625 64.59375 
L 19.671875 64.59375 
L 19.671875 43.015625 
L 54.390625 43.015625 
L 54.390625 34.71875 
L 19.671875 34.71875 
L 19.671875 8.296875 
L 56.78125 8.296875 
L 56.78125 0 
L 9.8125 0 
z
" id="DejaVuSans-69"/>
     <path d="M 37.109375 75.984375 
L 37.109375 68.5 
L 28.515625 68.5 
Q 23.6875 68.5 21.796875 66.546875 
Q 19.921875 64.59375 19.921875 59.515625 
L 19.921875 54.6875 
L 34.71875 54.6875 
L 34.71875 47.703125 
L 19.921875 47.703125 
L 19.921875 0 
L 10.890625 0 
L 10.890625 47.703125 
L 2.296875 47.703125 
L 2.296875 54.6875 
L 10.890625 54.6875 
L 10.890625 58.5 
Q 10.890625 67.625 15.140625 71.796875 
Q 19.390625 75.984375 28.609375 75.984375 
z
" id="DejaVuSans-102"/>
     <path d="M 9.8125 72.90625 
L 24.515625 72.90625 
L 43.109375 23.296875 
L 61.8125 72.90625 
L 76.515625 72.90625 
L 76.515625 0 
L 66.890625 0 
L 66.890625 64.015625 
L 48.09375 14.015625 
L 38.1875 14.015625 
L 19.390625 64.015625 
L 19.390625 0 
L 9.8125 0 
z
" id="DejaVuSans-77"/>
     <path d="M 45.40625 46.390625 
L 45.40625 75.984375 
L 54.390625 75.984375 
L 54.390625 0 
L 45.40625 0 
L 45.40625 8.203125 
Q 42.578125 3.328125 38.25 0.953125 
Q 33.9375 -1.421875 27.875 -1.421875 
Q 17.96875 -1.421875 11.734375 6.484375 
Q 5.515625 14.40625 5.515625 27.296875 
Q 5.515625 40.1875 11.734375 48.09375 
Q 17.96875 56 27.875 56 
Q 33.9375 56 38.25 53.625 
Q 42.578125 51.265625 45.40625 46.390625 
z
M 14.796875 27.296875 
Q 14.796875 17.390625 18.875 11.75 
Q 22.953125 6.109375 30.078125 6.109375 
Q 37.203125 6.109375 41.296875 11.75 
Q 45.40625 17.390625 45.40625 27.296875 
Q 45.40625 37.203125 41.296875 42.84375 
Q 37.203125 48.484375 30.078125 48.484375 
Q 22.953125 48.484375 18.875 42.84375 
Q 14.796875 37.203125 14.796875 27.296875 
z
" id="DejaVuSans-100"/>
     <path d="M 32.171875 -5.078125 
Q 28.375 -14.84375 24.75 -17.8125 
Q 21.140625 -20.796875 15.09375 -20.796875 
L 7.90625 -20.796875 
L 7.90625 -13.28125 
L 13.1875 -13.28125 
Q 16.890625 -13.28125 18.9375 -11.515625 
Q 21 -9.765625 23.484375 -3.21875 
L 25.09375 0.875 
L 2.984375 54.6875 
L 12.5 54.6875 
L 29.59375 11.921875 
L 46.6875 54.6875 
L 56.203125 54.6875 
z
" id="DejaVuSans-121"/>
    </defs>
    <g transform="translate(311.463375 51.888)scale(0.12 -0.12)">
     <use xlink:href="#DejaVuSans-69"/>
     <use x="63.183594" xlink:href="#DejaVuSans-118"/>
     <use x="122.363281" xlink:href="#DejaVuSans-111"/>
     <use x="183.544922" xlink:href="#DejaVuSans-108"/>
     <use x="211.328125" xlink:href="#DejaVuSans-117"/>
     <use x="274.707031" xlink:href="#DejaVuSans-116"/>
     <use x="313.916016" xlink:href="#DejaVuSans-105"/>
     <use x="341.699219" xlink:href="#DejaVuSans-111"/>
     <use x="402.880859" xlink:href="#DejaVuSans-110"/>
     <use x="466.259766" xlink:href="#DejaVuSans-32"/>
     <use x="498.046875" xlink:href="#DejaVuSans-111"/>
     <use x="559.228516" xlink:href="#DejaVuSans-102"/>
     <use x="594.433594" xlink:href="#DejaVuSans-32"/>
     <use x="626.220703" xlink:href="#DejaVuSans-116"/>
     <use x="665.429688" xlink:href="#DejaVuSans-104"/>
     <use x="728.808594" xlink:href="#DejaVuSans-101"/>
     <use x="790.332031" xlink:href="#DejaVuSans-32"/>
     <use x="822.119141" xlink:href="#DejaVuSans-69"/>
     <use x="885.302734" xlink:href="#DejaVuSans-120"/>
     <use x="944.482422" xlink:href="#DejaVuSans-112"/>
     <use x="1007.958984" xlink:href="#DejaVuSans-111"/>
     <use x="1069.140625" xlink:href="#DejaVuSans-110"/>
     <use x="1132.519531" xlink:href="#DejaVuSans-101"/>
     <use x="1194.042969" xlink:href="#DejaVuSans-110"/>
     <use x="1257.421875" xlink:href="#DejaVuSans-116"/>
     <use x="1296.630859" xlink:href="#DejaVuSans-105"/>
     <use x="1324.414062" xlink:href="#DejaVuSans-97"/>
     <use x="1385.693359" xlink:href="#DejaVuSans-108"/>
     <use x="1413.476562" xlink:href="#DejaVuSans-32"/>
     <use x="1445.263672" xlink:href="#DejaVuSans-77"/>
     <use x="1531.542969" xlink:href="#DejaVuSans-111"/>
     <use x="1592.724609" xlink:href="#DejaVuSans-100"/>
     <use x="1656.201172" xlink:href="#DejaVuSans-101"/>
     <use x="1717.724609" xlink:href="#DejaVuSans-108"/>
     <use x="1745.507812" xlink:href="#DejaVuSans-32"/>
     <use x="1777.294922" xlink:href="#DejaVuSans-80"/>
     <use x="1837.535156" xlink:href="#DejaVuSans-97"/>
     <use x="1898.814453" xlink:href="#DejaVuSans-114"/>
     <use x="1939.927734" xlink:href="#DejaVuSans-97"/>
     <use x="2001.207031" xlink:href="#DejaVuSans-109"/>
     <use x="2098.619141" xlink:href="#DejaVuSans-101"/>
     <use x="2160.142578" xlink:href="#DejaVuSans-116"/>
     <use x="2199.351562" xlink:href="#DejaVuSans-101"/>
     <use x="2260.875" xlink:href="#DejaVuSans-114"/>
     <use x="2301.988281" xlink:href="#DejaVuSans-115"/>
     <use x="2354.087891" xlink:href="#DejaVuSans-32"/>
     <use x="2385.875" xlink:href="#DejaVuSans-98"/>
     <use x="2449.351562" xlink:href="#DejaVuSans-121"/>
     <use x="2508.53125" xlink:href="#DejaVuSans-32"/>
     <use x="2540.318359" xlink:href="#DejaVuSans-68"/>
     <use x="2617.320312" xlink:href="#DejaVuSans-97"/>
     <use x="2678.599609" xlink:href="#DejaVuSans-116"/>
     <use x="2717.808594" xlink:href="#DejaVuSans-101"/>
    </g>
   </g>
   <g id="legend_1">
    <g id="patch_26">
     <path d="M 555.883 139.278625 
L 832.808 139.278625 
Q 834.808 139.278625 834.808 137.278625 
L 834.808 64.888 
Q 834.808 62.888 832.808 62.888 
L 555.883 62.888 
Q 553.883 62.888 553.883 64.888 
L 553.883 137.278625 
Q 553.883 139.278625 555.883 139.278625 
z
" style="fill:#ffffff;opacity:0.8;stroke:#cccccc;stroke-linejoin:miter;"/>
    </g>
    <g id="PathCollection_7">
     <defs>
      <path id="m15b76a3941" style="stroke:#ffffff;stroke-width:1.5;"/>
     </defs>
     <g>
      <use style="fill:#ffffff;stroke:#ffffff;stroke-width:1.5;" x="567.883" xlink:href="#m15b76a3941" y="71.861437"/>
     </g>
    </g>
    <g id="text_35">
     <!-- Exponential model fit (R2) [%] for last week data -->
     <defs>
      <path d="M 31 75.875 
Q 24.46875 64.65625 21.28125 53.65625 
Q 18.109375 42.671875 18.109375 31.390625 
Q 18.109375 20.125 21.3125 9.0625 
Q 24.515625 -2 31 -13.1875 
L 23.1875 -13.1875 
Q 15.875 -1.703125 12.234375 9.375 
Q 8.59375 20.453125 8.59375 31.390625 
Q 8.59375 42.28125 12.203125 53.3125 
Q 15.828125 64.359375 23.1875 75.875 
z
" id="DejaVuSans-40"/>
      <path d="M 8.015625 75.875 
L 15.828125 75.875 
Q 23.140625 64.359375 26.78125 53.3125 
Q 30.421875 42.28125 30.421875 31.390625 
Q 30.421875 20.453125 26.78125 9.375 
Q 23.140625 -1.703125 15.828125 -13.1875 
L 8.015625 -13.1875 
Q 14.5 -2 17.703125 9.0625 
Q 20.90625 20.125 20.90625 31.390625 
Q 20.90625 42.671875 17.703125 53.65625 
Q 14.5 64.65625 8.015625 75.875 
z
" id="DejaVuSans-41"/>
      <path d="M 8.59375 75.984375 
L 29.296875 75.984375 
L 29.296875 69 
L 17.578125 69 
L 17.578125 -6.203125 
L 29.296875 -6.203125 
L 29.296875 -13.1875 
L 8.59375 -13.1875 
z
" id="DejaVuSans-91"/>
      <path d="M 72.703125 32.078125 
Q 68.453125 32.078125 66.03125 28.46875 
Q 63.625 24.859375 63.625 18.40625 
Q 63.625 12.0625 66.03125 8.421875 
Q 68.453125 4.78125 72.703125 4.78125 
Q 76.859375 4.78125 79.265625 8.421875 
Q 81.6875 12.0625 81.6875 18.40625 
Q 81.6875 24.8125 79.265625 28.4375 
Q 76.859375 32.078125 72.703125 32.078125 
z
M 72.703125 38.28125 
Q 80.421875 38.28125 84.953125 32.90625 
Q 89.5 27.546875 89.5 18.40625 
Q 89.5 9.28125 84.9375 3.921875 
Q 80.375 -1.421875 72.703125 -1.421875 
Q 64.890625 -1.421875 60.34375 3.921875 
Q 55.8125 9.28125 55.8125 18.40625 
Q 55.8125 27.59375 60.375 32.9375 
Q 64.9375 38.28125 72.703125 38.28125 
z
M 22.3125 68.015625 
Q 18.109375 68.015625 15.6875 64.375 
Q 13.28125 60.75 13.28125 54.390625 
Q 13.28125 47.953125 15.671875 44.328125 
Q 18.0625 40.71875 22.3125 40.71875 
Q 26.5625 40.71875 28.96875 44.328125 
Q 31.390625 47.953125 31.390625 54.390625 
Q 31.390625 60.6875 28.953125 64.34375 
Q 26.515625 68.015625 22.3125 68.015625 
z
M 66.40625 74.21875 
L 74.21875 74.21875 
L 28.609375 -1.421875 
L 20.796875 -1.421875 
z
M 22.3125 74.21875 
Q 30.03125 74.21875 34.609375 68.875 
Q 39.203125 63.53125 39.203125 54.390625 
Q 39.203125 45.171875 34.640625 39.84375 
Q 30.078125 34.515625 22.3125 34.515625 
Q 14.546875 34.515625 10.03125 39.859375 
Q 5.515625 45.21875 5.515625 54.390625 
Q 5.515625 63.484375 10.046875 68.84375 
Q 14.59375 74.21875 22.3125 74.21875 
z
" id="DejaVuSans-37"/>
      <path d="M 30.421875 75.984375 
L 30.421875 -13.1875 
L 9.71875 -13.1875 
L 9.71875 -6.203125 
L 21.390625 -6.203125 
L 21.390625 69 
L 9.71875 69 
L 9.71875 75.984375 
z
" id="DejaVuSans-93"/>
      <path d="M 4.203125 54.6875 
L 13.1875 54.6875 
L 24.421875 12.015625 
L 35.59375 54.6875 
L 46.1875 54.6875 
L 57.421875 12.015625 
L 68.609375 54.6875 
L 77.59375 54.6875 
L 63.28125 0 
L 52.6875 0 
L 40.921875 44.828125 
L 29.109375 0 
L 18.5 0 
z
" id="DejaVuSans-119"/>
     </defs>
     <g transform="translate(585.883 74.486437)scale(0.1 -0.1)">
      <use xlink:href="#DejaVuSans-69"/>
      <use x="63.183594" xlink:href="#DejaVuSans-120"/>
      <use x="122.363281" xlink:href="#DejaVuSans-112"/>
      <use x="185.839844" xlink:href="#DejaVuSans-111"/>
      <use x="247.021484" xlink:href="#DejaVuSans-110"/>
      <use x="310.400391" xlink:href="#DejaVuSans-101"/>
      <use x="371.923828" xlink:href="#DejaVuSans-110"/>
      <use x="435.302734" xlink:href="#DejaVuSans-116"/>
      <use x="474.511719" xlink:href="#DejaVuSans-105"/>
      <use x="502.294922" xlink:href="#DejaVuSans-97"/>
      <use x="563.574219" xlink:href="#DejaVuSans-108"/>
      <use x="591.357422" xlink:href="#DejaVuSans-32"/>
      <use x="623.144531" xlink:href="#DejaVuSans-109"/>
      <use x="720.556641" xlink:href="#DejaVuSans-111"/>
      <use x="781.738281" xlink:href="#DejaVuSans-100"/>
      <use x="845.214844" xlink:href="#DejaVuSans-101"/>
      <use x="906.738281" xlink:href="#DejaVuSans-108"/>
      <use x="934.521484" xlink:href="#DejaVuSans-32"/>
      <use x="966.308594" xlink:href="#DejaVuSans-102"/>
      <use x="1001.513672" xlink:href="#DejaVuSans-105"/>
      <use x="1029.296875" xlink:href="#DejaVuSans-116"/>
      <use x="1068.505859" xlink:href="#DejaVuSans-32"/>
      <use x="1100.292969" xlink:href="#DejaVuSans-40"/>
      <use x="1139.306641" xlink:href="#DejaVuSans-82"/>
      <use x="1208.789062" xlink:href="#DejaVuSans-50"/>
      <use x="1272.412109" xlink:href="#DejaVuSans-41"/>
      <use x="1311.425781" xlink:href="#DejaVuSans-32"/>
      <use x="1343.212891" xlink:href="#DejaVuSans-91"/>
      <use x="1382.226562" xlink:href="#DejaVuSans-37"/>
      <use x="1477.246094" xlink:href="#DejaVuSans-93"/>
      <use x="1516.259766" xlink:href="#DejaVuSans-32"/>
      <use x="1548.046875" xlink:href="#DejaVuSans-102"/>
      <use x="1583.251953" xlink:href="#DejaVuSans-111"/>
      <use x="1644.433594" xlink:href="#DejaVuSans-114"/>
      <use x="1685.546875" xlink:href="#DejaVuSans-32"/>
      <use x="1717.333984" xlink:href="#DejaVuSans-108"/>
      <use x="1745.117188" xlink:href="#DejaVuSans-97"/>
      <use x="1806.396484" xlink:href="#DejaVuSans-115"/>
      <use x="1858.496094" xlink:href="#DejaVuSans-116"/>
      <use x="1897.705078" xlink:href="#DejaVuSans-32"/>
      <use x="1929.492188" xlink:href="#DejaVuSans-119"/>
      <use x="2011.279297" xlink:href="#DejaVuSans-101"/>
      <use x="2072.802734" xlink:href="#DejaVuSans-101"/>
      <use x="2134.326172" xlink:href="#DejaVuSans-107"/>
      <use x="2192.236328" xlink:href="#DejaVuSans-32"/>
      <use x="2224.023438" xlink:href="#DejaVuSans-100"/>
      <use x="2287.5" xlink:href="#DejaVuSans-97"/>
      <use x="2348.779297" xlink:href="#DejaVuSans-116"/>
      <use x="2387.988281" xlink:href="#DejaVuSans-97"/>
     </g>
    </g>
    <g id="PathCollection_8">
     <defs>
      <path d="M 0 2.12132 
C 0.562581 2.12132 1.102195 1.897805 1.5 1.5 
C 1.897805 1.102195 2.12132 0.562581 2.12132 0 
C 2.12132 -0.562581 1.897805 -1.102195 1.5 -1.5 
C 1.102195 -1.897805 0.562581 -2.12132 0 -2.12132 
C -0.562581 -2.12132 -1.102195 -1.897805 -1.5 -1.5 
C -1.897805 -1.102195 -2.12132 -0.562581 -2.12132 0 
C -2.12132 0.562581 -1.897805 1.102195 -1.5 1.5 
C -1.102195 1.897805 -0.562581 2.12132 0 2.12132 
z
" id="ma010e50d98" style="stroke:#333333;"/>
     </defs>
     <g>
      <use style="fill:#333333;stroke:#333333;" x="567.883" xlink:href="#ma010e50d98" y="86.539562"/>
     </g>
    </g>
    <g id="text_36">
     <!-- 92.5 -->
     <g transform="translate(585.883 89.164562)scale(0.1 -0.1)">
      <use xlink:href="#DejaVuSans-57"/>
      <use x="63.623047" xlink:href="#DejaVuSans-50"/>
      <use x="127.246094" xlink:href="#DejaVuSans-46"/>
      <use x="159.033203" xlink:href="#DejaVuSans-53"/>
     </g>
    </g>
    <g id="PathCollection_9">
     <defs>
      <path d="M 0 2.985808 
C 0.791846 2.985808 1.551366 2.671204 2.111285 2.111285 
C 2.671204 1.551366 2.985808 0.791846 2.985808 0 
C 2.985808 -0.791846 2.671204 -1.551366 2.111285 -2.111285 
C 1.551366 -2.671204 0.791846 -2.985808 0 -2.985808 
C -0.791846 -2.985808 -1.551366 -2.671204 -2.111285 -2.111285 
C -2.671204 -1.551366 -2.985808 -0.791846 -2.985808 0 
C -2.985808 0.791846 -2.671204 1.551366 -2.111285 2.111285 
C -1.551366 2.671204 -0.791846 2.985808 0 2.985808 
z
" id="me8d232cbd9" style="stroke:#333333;"/>
     </defs>
     <g>
      <use style="fill:#333333;stroke:#333333;" x="567.883" xlink:href="#me8d232cbd9" y="101.217687"/>
     </g>
    </g>
    <g id="text_37">
     <!-- 95.0 -->
     <g transform="translate(585.883 103.842687)scale(0.1 -0.1)">
      <use xlink:href="#DejaVuSans-57"/>
      <use x="63.623047" xlink:href="#DejaVuSans-53"/>
      <use x="127.246094" xlink:href="#DejaVuSans-46"/>
      <use x="159.033203" xlink:href="#DejaVuSans-48"/>
     </g>
    </g>
    <g id="PathCollection_10">
     <defs>
      <path d="M 0 3.809179 
C 1.010206 3.809179 1.979173 3.40782 2.693496 2.693496 
C 3.40782 1.979173 3.809179 1.010206 3.809179 0 
C 3.809179 -1.010206 3.40782 -1.979173 2.693496 -2.693496 
C 1.979173 -3.40782 1.010206 -3.809179 0 -3.809179 
C -1.010206 -3.809179 -1.979173 -3.40782 -2.693496 -2.693496 
C -3.40782 -1.979173 -3.809179 -1.010206 -3.809179 0 
C -3.809179 1.010206 -3.40782 1.979173 -2.693496 2.693496 
C -1.979173 3.40782 -1.010206 3.809179 0 3.809179 
z
" id="m14949b2c43" style="stroke:#333333;"/>
     </defs>
     <g>
      <use style="fill:#333333;stroke:#333333;" x="567.883" xlink:href="#m14949b2c43" y="115.895812"/>
     </g>
    </g>
    <g id="text_38">
     <!-- 97.5 -->
     <g transform="translate(585.883 118.520812)scale(0.1 -0.1)">
      <use xlink:href="#DejaVuSans-57"/>
      <use x="63.623047" xlink:href="#DejaVuSans-55"/>
      <use x="127.246094" xlink:href="#DejaVuSans-46"/>
      <use x="159.033203" xlink:href="#DejaVuSans-53"/>
     </g>
    </g>
    <g id="PathCollection_11">
     <defs>
      <path d="M 0 4.242641 
C 1.125161 4.242641 2.204391 3.795609 3 3 
C 3.795609 2.204391 4.242641 1.125161 4.242641 0 
C 4.242641 -1.125161 3.795609 -2.204391 3 -3 
C 2.204391 -3.795609 1.125161 -4.242641 0 -4.242641 
C -1.125161 -4.242641 -2.204391 -3.795609 -3 -3 
C -3.795609 -2.204391 -4.242641 -1.125161 -4.242641 0 
C -4.242641 1.125161 -3.795609 2.204391 -3 3 
C -2.204391 3.795609 -1.125161 4.242641 0 4.242641 
z
" id="mfbd742de55" style="stroke:#333333;"/>
     </defs>
     <g>
      <use style="fill:#333333;stroke:#333333;" x="567.883" xlink:href="#mfbd742de55" y="130.573937"/>
     </g>
    </g>
    <g id="text_39">
     <!-- 100.0 -->
     <g transform="translate(585.883 133.198937)scale(0.1 -0.1)">
      <use xlink:href="#DejaVuSans-49"/>
      <use x="63.623047" xlink:href="#DejaVuSans-48"/>
      <use x="127.246094" xlink:href="#DejaVuSans-48"/>
      <use x="190.869141" xlink:href="#DejaVuSans-46"/>
      <use x="222.65625" xlink:href="#DejaVuSans-48"/>
     </g>
    </g>
   </g>
  </g>
 </g>
 <defs>
  <clipPath id="p6e359dc7a2">
   <rect height="371.448" width="723.168" x="116.64" y="57.888"/>
  </clipPath>
 </defs>
</svg>
