<?xml version="1.0" encoding="utf-8" standalone="no"?>
<!DOCTYPE svg PUBLIC "-//W3C//DTD SVG 1.1//EN"
  "http://www.w3.org/Graphics/SVG/1.1/DTD/svg11.dtd">
<!-- Created with matplotlib (https://matplotlib.org/) -->
<svg height="482.4pt" version="1.1" viewBox="0 0 933.12 482.4" width="933.12pt" xmlns="http://www.w3.org/2000/svg" xmlns:xlink="http://www.w3.org/1999/xlink">
 <defs>
  <style type="text/css">
*{stroke-linecap:butt;stroke-linejoin:round;}
  </style>
 </defs>
 <g id="figure_1">
  <g id="patch_1">
   <path d="M 0 482.4 
L 933.12 482.4 
L 933.12 0 
L 0 0 
z
" style="fill:#ffffff;"/>
  </g>
  <g id="axes_1">
   <g id="patch_2">
    <path d="M 116.64 226.728 
L 839.808 226.728 
L 839.808 57.888 
L 116.64 57.888 
z
" style="fill:#ffffff;"/>
   </g>
   <g id="matplotlib.axis_1">
    <g id="xtick_1">
     <g id="line2d_1">
      <defs>
       <path d="M 0 0 
L 0 3.5 
" id="m7019fba542" style="stroke:#000000;stroke-width:0.8;"/>
      </defs>
      <g>
       <use style="stroke:#000000;stroke-width:0.8;" x="149.511273" xlink:href="#m7019fba542" y="226.728"/>
      </g>
     </g>
     <g id="text_1">
      <!-- 0 -->
      <defs>
       <path d="M 31.78125 66.40625 
Q 24.171875 66.40625 20.328125 58.90625 
Q 16.5 51.421875 16.5 36.375 
Q 16.5 21.390625 20.328125 13.890625 
Q 24.171875 6.390625 31.78125 6.390625 
Q 39.453125 6.390625 43.28125 13.890625 
Q 47.125 21.390625 47.125 36.375 
Q 47.125 51.421875 43.28125 58.90625 
Q 39.453125 66.40625 31.78125 66.40625 
z
M 31.78125 74.21875 
Q 44.046875 74.21875 50.515625 64.515625 
Q 56.984375 54.828125 56.984375 36.375 
Q 56.984375 17.96875 50.515625 8.265625 
Q 44.046875 -1.421875 31.78125 -1.421875 
Q 19.53125 -1.421875 13.0625 8.265625 
Q 6.59375 17.96875 6.59375 36.375 
Q 6.59375 54.828125 13.0625 64.515625 
Q 19.53125 74.21875 31.78125 74.21875 
z
" id="DejaVuSans-48"/>
      </defs>
      <g transform="translate(146.330023 241.326437)scale(0.1 -0.1)">
       <use xlink:href="#DejaVuSans-48"/>
      </g>
     </g>
    </g>
    <g id="xtick_2">
     <g id="line2d_2">
      <g>
       <use style="stroke:#000000;stroke-width:0.8;" x="307.927045" xlink:href="#m7019fba542" y="226.728"/>
      </g>
     </g>
     <g id="text_2">
      <!-- 20 -->
      <defs>
       <path d="M 19.1875 8.296875 
L 53.609375 8.296875 
L 53.609375 0 
L 7.328125 0 
L 7.328125 8.296875 
Q 12.9375 14.109375 22.625 23.890625 
Q 32.328125 33.6875 34.8125 36.53125 
Q 39.546875 41.84375 41.421875 45.53125 
Q 43.3125 49.21875 43.3125 52.78125 
Q 43.3125 58.59375 39.234375 62.25 
Q 35.15625 65.921875 28.609375 65.921875 
Q 23.96875 65.921875 18.8125 64.3125 
Q 13.671875 62.703125 7.8125 59.421875 
L 7.8125 69.390625 
Q 13.765625 71.78125 18.9375 73 
Q 24.125 74.21875 28.421875 74.21875 
Q 39.75 74.21875 46.484375 68.546875 
Q 53.21875 62.890625 53.21875 53.421875 
Q 53.21875 48.921875 51.53125 44.890625 
Q 49.859375 40.875 45.40625 35.40625 
Q 44.1875 33.984375 37.640625 27.21875 
Q 31.109375 20.453125 19.1875 8.296875 
z
" id="DejaVuSans-50"/>
      </defs>
      <g transform="translate(301.564545 241.326437)scale(0.1 -0.1)">
       <use xlink:href="#DejaVuSans-50"/>
       <use x="63.623047" xlink:href="#DejaVuSans-48"/>
      </g>
     </g>
    </g>
    <g id="xtick_3">
     <g id="line2d_3">
      <g>
       <use style="stroke:#000000;stroke-width:0.8;" x="466.342817" xlink:href="#m7019fba542" y="226.728"/>
      </g>
     </g>
     <g id="text_3">
      <!-- 40 -->
      <defs>
       <path d="M 37.796875 64.3125 
L 12.890625 25.390625 
L 37.796875 25.390625 
z
M 35.203125 72.90625 
L 47.609375 72.90625 
L 47.609375 25.390625 
L 58.015625 25.390625 
L 58.015625 17.1875 
L 47.609375 17.1875 
L 47.609375 0 
L 37.796875 0 
L 37.796875 17.1875 
L 4.890625 17.1875 
L 4.890625 26.703125 
z
" id="DejaVuSans-52"/>
      </defs>
      <g transform="translate(459.980317 241.326437)scale(0.1 -0.1)">
       <use xlink:href="#DejaVuSans-52"/>
       <use x="63.623047" xlink:href="#DejaVuSans-48"/>
      </g>
     </g>
    </g>
    <g id="xtick_4">
     <g id="line2d_4">
      <g>
       <use style="stroke:#000000;stroke-width:0.8;" x="624.758589" xlink:href="#m7019fba542" y="226.728"/>
      </g>
     </g>
     <g id="text_4">
      <!-- 60 -->
      <defs>
       <path d="M 33.015625 40.375 
Q 26.375 40.375 22.484375 35.828125 
Q 18.609375 31.296875 18.609375 23.390625 
Q 18.609375 15.53125 22.484375 10.953125 
Q 26.375 6.390625 33.015625 6.390625 
Q 39.65625 6.390625 43.53125 10.953125 
Q 47.40625 15.53125 47.40625 23.390625 
Q 47.40625 31.296875 43.53125 35.828125 
Q 39.65625 40.375 33.015625 40.375 
z
M 52.59375 71.296875 
L 52.59375 62.3125 
Q 48.875 64.0625 45.09375 64.984375 
Q 41.3125 65.921875 37.59375 65.921875 
Q 27.828125 65.921875 22.671875 59.328125 
Q 17.53125 52.734375 16.796875 39.40625 
Q 19.671875 43.65625 24.015625 45.921875 
Q 28.375 48.1875 33.59375 48.1875 
Q 44.578125 48.1875 50.953125 41.515625 
Q 57.328125 34.859375 57.328125 23.390625 
Q 57.328125 12.15625 50.6875 5.359375 
Q 44.046875 -1.421875 33.015625 -1.421875 
Q 20.359375 -1.421875 13.671875 8.265625 
Q 6.984375 17.96875 6.984375 36.375 
Q 6.984375 53.65625 15.1875 63.9375 
Q 23.390625 74.21875 37.203125 74.21875 
Q 40.921875 74.21875 44.703125 73.484375 
Q 48.484375 72.75 52.59375 71.296875 
z
" id="DejaVuSans-54"/>
      </defs>
      <g transform="translate(618.396089 241.326437)scale(0.1 -0.1)">
       <use xlink:href="#DejaVuSans-54"/>
       <use x="63.623047" xlink:href="#DejaVuSans-48"/>
      </g>
     </g>
    </g>
    <g id="xtick_5">
     <g id="line2d_5">
      <g>
       <use style="stroke:#000000;stroke-width:0.8;" x="783.174361" xlink:href="#m7019fba542" y="226.728"/>
      </g>
     </g>
     <g id="text_5">
      <!-- 80 -->
      <defs>
       <path d="M 31.78125 34.625 
Q 24.75 34.625 20.71875 30.859375 
Q 16.703125 27.09375 16.703125 20.515625 
Q 16.703125 13.921875 20.71875 10.15625 
Q 24.75 6.390625 31.78125 6.390625 
Q 38.8125 6.390625 42.859375 10.171875 
Q 46.921875 13.96875 46.921875 20.515625 
Q 46.921875 27.09375 42.890625 30.859375 
Q 38.875 34.625 31.78125 34.625 
z
M 21.921875 38.8125 
Q 15.578125 40.375 12.03125 44.71875 
Q 8.5 49.078125 8.5 55.328125 
Q 8.5 64.0625 14.71875 69.140625 
Q 20.953125 74.21875 31.78125 74.21875 
Q 42.671875 74.21875 48.875 69.140625 
Q 55.078125 64.0625 55.078125 55.328125 
Q 55.078125 49.078125 51.53125 44.71875 
Q 48 40.375 41.703125 38.8125 
Q 48.828125 37.15625 52.796875 32.3125 
Q 56.78125 27.484375 56.78125 20.515625 
Q 56.78125 9.90625 50.3125 4.234375 
Q 43.84375 -1.421875 31.78125 -1.421875 
Q 19.734375 -1.421875 13.25 4.234375 
Q 6.78125 9.90625 6.78125 20.515625 
Q 6.78125 27.484375 10.78125 32.3125 
Q 14.796875 37.15625 21.921875 38.8125 
z
M 18.3125 54.390625 
Q 18.3125 48.734375 21.84375 45.5625 
Q 25.390625 42.390625 31.78125 42.390625 
Q 38.140625 42.390625 41.71875 45.5625 
Q 45.3125 48.734375 45.3125 54.390625 
Q 45.3125 60.0625 41.71875 63.234375 
Q 38.140625 66.40625 31.78125 66.40625 
Q 25.390625 66.40625 21.84375 63.234375 
Q 18.3125 60.0625 18.3125 54.390625 
z
" id="DejaVuSans-56"/>
      </defs>
      <g transform="translate(776.811861 241.326437)scale(0.1 -0.1)">
       <use xlink:href="#DejaVuSans-56"/>
       <use x="63.623047" xlink:href="#DejaVuSans-48"/>
      </g>
     </g>
    </g>
   </g>
   <g id="matplotlib.axis_2">
    <g id="ytick_1">
     <g id="line2d_6">
      <defs>
       <path d="M 0 0 
L -3.5 0 
" id="m40cd36e6ef" style="stroke:#000000;stroke-width:0.8;"/>
      </defs>
      <g>
       <use style="stroke:#000000;stroke-width:0.8;" x="116.64" xlink:href="#m40cd36e6ef" y="219.055334"/>
      </g>
     </g>
     <g id="text_6">
      <!-- 0 -->
      <g transform="translate(103.2775 222.854553)scale(0.1 -0.1)">
       <use xlink:href="#DejaVuSans-48"/>
      </g>
     </g>
    </g>
    <g id="ytick_2">
     <g id="line2d_7">
      <g>
       <use style="stroke:#000000;stroke-width:0.8;" x="116.64" xlink:href="#m40cd36e6ef" y="181.45713"/>
      </g>
     </g>
     <g id="text_7">
      <!-- 20000 -->
      <g transform="translate(77.8275 185.256349)scale(0.1 -0.1)">
       <use xlink:href="#DejaVuSans-50"/>
       <use x="63.623047" xlink:href="#DejaVuSans-48"/>
       <use x="127.246094" xlink:href="#DejaVuSans-48"/>
       <use x="190.869141" xlink:href="#DejaVuSans-48"/>
       <use x="254.492188" xlink:href="#DejaVuSans-48"/>
      </g>
     </g>
    </g>
    <g id="ytick_3">
     <g id="line2d_8">
      <g>
       <use style="stroke:#000000;stroke-width:0.8;" x="116.64" xlink:href="#m40cd36e6ef" y="143.858926"/>
      </g>
     </g>
     <g id="text_8">
      <!-- 40000 -->
      <g transform="translate(77.8275 147.658145)scale(0.1 -0.1)">
       <use xlink:href="#DejaVuSans-52"/>
       <use x="63.623047" xlink:href="#DejaVuSans-48"/>
       <use x="127.246094" xlink:href="#DejaVuSans-48"/>
       <use x="190.869141" xlink:href="#DejaVuSans-48"/>
       <use x="254.492188" xlink:href="#DejaVuSans-48"/>
      </g>
     </g>
    </g>
    <g id="ytick_4">
     <g id="line2d_9">
      <g>
       <use style="stroke:#000000;stroke-width:0.8;" x="116.64" xlink:href="#m40cd36e6ef" y="106.260722"/>
      </g>
     </g>
     <g id="text_9">
      <!-- 60000 -->
      <g transform="translate(77.8275 110.05994)scale(0.1 -0.1)">
       <use xlink:href="#DejaVuSans-54"/>
       <use x="63.623047" xlink:href="#DejaVuSans-48"/>
       <use x="127.246094" xlink:href="#DejaVuSans-48"/>
       <use x="190.869141" xlink:href="#DejaVuSans-48"/>
       <use x="254.492188" xlink:href="#DejaVuSans-48"/>
      </g>
     </g>
    </g>
    <g id="ytick_5">
     <g id="line2d_10">
      <g>
       <use style="stroke:#000000;stroke-width:0.8;" x="116.64" xlink:href="#m40cd36e6ef" y="68.662517"/>
      </g>
     </g>
     <g id="text_10">
      <!-- 80000 -->
      <g transform="translate(77.8275 72.461736)scale(0.1 -0.1)">
       <use xlink:href="#DejaVuSans-56"/>
       <use x="63.623047" xlink:href="#DejaVuSans-48"/>
       <use x="127.246094" xlink:href="#DejaVuSans-48"/>
       <use x="190.869141" xlink:href="#DejaVuSans-48"/>
       <use x="254.492188" xlink:href="#DejaVuSans-48"/>
      </g>
     </g>
    </g>
    <g id="text_11">
     <!-- No. cases -->
     <defs>
      <path d="M 9.8125 72.90625 
L 23.09375 72.90625 
L 55.421875 11.921875 
L 55.421875 72.90625 
L 64.984375 72.90625 
L 64.984375 0 
L 51.703125 0 
L 19.390625 60.984375 
L 19.390625 0 
L 9.8125 0 
z
" id="DejaVuSans-78"/>
      <path d="M 30.609375 48.390625 
Q 23.390625 48.390625 19.1875 42.75 
Q 14.984375 37.109375 14.984375 27.296875 
Q 14.984375 17.484375 19.15625 11.84375 
Q 23.34375 6.203125 30.609375 6.203125 
Q 37.796875 6.203125 41.984375 11.859375 
Q 46.1875 17.53125 46.1875 27.296875 
Q 46.1875 37.015625 41.984375 42.703125 
Q 37.796875 48.390625 30.609375 48.390625 
z
M 30.609375 56 
Q 42.328125 56 49.015625 48.375 
Q 55.71875 40.765625 55.71875 27.296875 
Q 55.71875 13.875 49.015625 6.21875 
Q 42.328125 -1.421875 30.609375 -1.421875 
Q 18.84375 -1.421875 12.171875 6.21875 
Q 5.515625 13.875 5.515625 27.296875 
Q 5.515625 40.765625 12.171875 48.375 
Q 18.84375 56 30.609375 56 
z
" id="DejaVuSans-111"/>
      <path d="M 10.6875 12.40625 
L 21 12.40625 
L 21 0 
L 10.6875 0 
z
" id="DejaVuSans-46"/>
      <path id="DejaVuSans-32"/>
      <path d="M 48.78125 52.59375 
L 48.78125 44.1875 
Q 44.96875 46.296875 41.140625 47.34375 
Q 37.3125 48.390625 33.40625 48.390625 
Q 24.65625 48.390625 19.8125 42.84375 
Q 14.984375 37.3125 14.984375 27.296875 
Q 14.984375 17.28125 19.8125 11.734375 
Q 24.65625 6.203125 33.40625 6.203125 
Q 37.3125 6.203125 41.140625 7.25 
Q 44.96875 8.296875 48.78125 10.40625 
L 48.78125 2.09375 
Q 45.015625 0.34375 40.984375 -0.53125 
Q 36.96875 -1.421875 32.421875 -1.421875 
Q 20.0625 -1.421875 12.78125 6.34375 
Q 5.515625 14.109375 5.515625 27.296875 
Q 5.515625 40.671875 12.859375 48.328125 
Q 20.21875 56 33.015625 56 
Q 37.15625 56 41.109375 55.140625 
Q 45.0625 54.296875 48.78125 52.59375 
z
" id="DejaVuSans-99"/>
      <path d="M 34.28125 27.484375 
Q 23.390625 27.484375 19.1875 25 
Q 14.984375 22.515625 14.984375 16.5 
Q 14.984375 11.71875 18.140625 8.90625 
Q 21.296875 6.109375 26.703125 6.109375 
Q 34.1875 6.109375 38.703125 11.40625 
Q 43.21875 16.703125 43.21875 25.484375 
L 43.21875 27.484375 
z
M 52.203125 31.203125 
L 52.203125 0 
L 43.21875 0 
L 43.21875 8.296875 
Q 40.140625 3.328125 35.546875 0.953125 
Q 30.953125 -1.421875 24.3125 -1.421875 
Q 15.921875 -1.421875 10.953125 3.296875 
Q 6 8.015625 6 15.921875 
Q 6 25.140625 12.171875 29.828125 
Q 18.359375 34.515625 30.609375 34.515625 
L 43.21875 34.515625 
L 43.21875 35.40625 
Q 43.21875 41.609375 39.140625 45 
Q 35.0625 48.390625 27.6875 48.390625 
Q 23 48.390625 18.546875 47.265625 
Q 14.109375 46.140625 10.015625 43.890625 
L 10.015625 52.203125 
Q 14.9375 54.109375 19.578125 55.046875 
Q 24.21875 56 28.609375 56 
Q 40.484375 56 46.34375 49.84375 
Q 52.203125 43.703125 52.203125 31.203125 
z
" id="DejaVuSans-97"/>
      <path d="M 44.28125 53.078125 
L 44.28125 44.578125 
Q 40.484375 46.53125 36.375 47.5 
Q 32.28125 48.484375 27.875 48.484375 
Q 21.1875 48.484375 17.84375 46.4375 
Q 14.5 44.390625 14.5 40.28125 
Q 14.5 37.15625 16.890625 35.375 
Q 19.28125 33.59375 26.515625 31.984375 
L 29.59375 31.296875 
Q 39.15625 29.25 43.1875 25.515625 
Q 47.21875 21.78125 47.21875 15.09375 
Q 47.21875 7.46875 41.1875 3.015625 
Q 35.15625 -1.421875 24.609375 -1.421875 
Q 20.21875 -1.421875 15.453125 -0.5625 
Q 10.6875 0.296875 5.421875 2 
L 5.421875 11.28125 
Q 10.40625 8.6875 15.234375 7.390625 
Q 20.0625 6.109375 24.8125 6.109375 
Q 31.15625 6.109375 34.5625 8.28125 
Q 37.984375 10.453125 37.984375 14.40625 
Q 37.984375 18.0625 35.515625 20.015625 
Q 33.0625 21.96875 24.703125 23.78125 
L 21.578125 24.515625 
Q 13.234375 26.265625 9.515625 29.90625 
Q 5.8125 33.546875 5.8125 39.890625 
Q 5.8125 47.609375 11.28125 51.796875 
Q 16.75 56 26.8125 56 
Q 31.78125 56 36.171875 55.265625 
Q 40.578125 54.546875 44.28125 53.078125 
z
" id="DejaVuSans-115"/>
      <path d="M 56.203125 29.59375 
L 56.203125 25.203125 
L 14.890625 25.203125 
Q 15.484375 15.921875 20.484375 11.0625 
Q 25.484375 6.203125 34.421875 6.203125 
Q 39.59375 6.203125 44.453125 7.46875 
Q 49.3125 8.734375 54.109375 11.28125 
L 54.109375 2.78125 
Q 49.265625 0.734375 44.1875 -0.34375 
Q 39.109375 -1.421875 33.890625 -1.421875 
Q 20.796875 -1.421875 13.15625 6.1875 
Q 5.515625 13.8125 5.515625 26.8125 
Q 5.515625 40.234375 12.765625 48.109375 
Q 20.015625 56 32.328125 56 
Q 43.359375 56 49.78125 48.890625 
Q 56.203125 41.796875 56.203125 29.59375 
z
M 47.21875 32.234375 
Q 47.125 39.59375 43.09375 43.984375 
Q 39.0625 48.390625 32.421875 48.390625 
Q 24.90625 48.390625 20.390625 44.140625 
Q 15.875 39.890625 15.1875 32.171875 
z
" id="DejaVuSans-101"/>
     </defs>
     <g transform="translate(71.747813 166.384563)rotate(-90)scale(0.1 -0.1)">
      <use xlink:href="#DejaVuSans-78"/>
      <use x="74.804688" xlink:href="#DejaVuSans-111"/>
      <use x="135.970703" xlink:href="#DejaVuSans-46"/>
      <use x="167.757812" xlink:href="#DejaVuSans-32"/>
      <use x="199.544922" xlink:href="#DejaVuSans-99"/>
      <use x="254.525391" xlink:href="#DejaVuSans-97"/>
      <use x="315.804688" xlink:href="#DejaVuSans-115"/>
      <use x="367.904297" xlink:href="#DejaVuSans-101"/>
      <use x="429.427734" xlink:href="#DejaVuSans-115"/>
     </g>
    </g>
   </g>
   <g id="line2d_11">
    <path clip-path="url(#pc25cf858a3)" d="M 149.511273 219.053455 
L 157.432061 219.053455 
L 165.35285 219.051575 
L 173.273639 219.049695 
L 181.194427 219.049695 
L 189.115216 219.049695 
L 197.036004 219.047815 
L 204.956793 219.047815 
L 212.877582 219.047815 
L 220.79837 219.047815 
L 228.719159 219.045935 
L 236.639947 219.045935 
L 244.560736 219.042175 
L 252.481525 219.042175 
L 260.402313 219.042175 
L 268.323102 219.042175 
L 276.24389 219.042175 
L 284.164679 219.042175 
L 292.085468 219.042175 
L 300.006256 219.042175 
L 307.927045 219.040295 
L 315.847834 219.040295 
L 323.768622 219.040295 
L 331.689411 219.040295 
L 339.610199 219.040295 
L 347.530988 219.040295 
L 355.451777 219.038415 
L 363.372565 219.038415 
L 371.293354 219.038415 
L 379.214142 219.038415 
L 387.134931 219.034655 
L 395.05572 219.034655 
L 402.976508 219.032776 
L 410.897297 219.029016 
L 418.818085 219.025256 
L 426.738874 219.017736 
L 434.659663 219.010217 
L 442.580451 219.004577 
L 450.50124 218.998937 
L 458.422028 218.993297 
L 466.342817 218.970738 
L 474.263606 218.959459 
L 482.184394 218.94818 
L 490.105183 218.93878 
L 498.025972 218.910581 
L 505.94676 218.880503 
L 513.867549 218.861704 
L 521.788337 218.795907 
L 529.709126 218.72447 
L 537.629915 218.596636 
L 545.550703 218.483842 
L 553.471492 218.258253 
L 561.39228 218.023264 
L 569.313069 217.534487 
L 577.233858 217.160385 
" style="fill:none;stroke:#1f77b4;stroke-linecap:square;stroke-width:1.5;"/>
   </g>
   <g id="line2d_12">
    <path clip-path="url(#pc25cf858a3)" d="M 149.511273 219.004577 
L 157.432061 219.004577 
L 165.35285 219.004577 
L 173.273639 218.972618 
L 181.194427 218.972618 
L 189.115216 218.94442 
L 197.036004 218.94442 
L 204.956793 218.94442 
L 212.877582 218.94442 
L 220.79837 218.94442 
L 228.719159 218.94442 
L 236.639947 218.94442 
L 244.560736 218.94442 
L 252.481525 218.94442 
L 260.402313 218.94442 
L 268.323102 218.94442 
L 276.24389 218.94442 
L 284.164679 218.9369 
L 292.085468 218.904942 
L 300.006256 218.649274 
L 307.927045 218.613556 
L 315.847834 218.329689 
L 323.768622 218.066502 
L 331.689411 217.88415 
L 339.610199 217.397254 
L 347.530988 216.568213 
L 355.451777 215.318073 
L 363.372565 213.838584 
L 371.293354 210.543101 
L 379.214142 207.787153 
L 387.134931 204.516109 
L 395.05572 200.793887 
L 402.976508 196.855475 
L 410.897297 191.986507 
L 418.818085 186.7002 
L 426.738874 180.61493 
L 434.659663 173.335918 
L 442.580451 166.329493 
L 450.50124 160.388976 
L 458.422028 153.963443 
L 466.342817 149.062517 
L 474.263606 143.471664 
L 482.184394 138.790688 
L 490.105183 134.97823 
L 498.025972 106.51451 
L 505.94676 98.701603 
L 513.867549 93.930391 
L 521.788337 90.157411 
L 529.709126 86.299835 
L 537.629915 82.746805 
L 545.550703 79.456962 
L 553.471492 78.716277 
L 561.39228 77.041277 
L 569.313069 75.488471 
L 577.233858 74.272169 
L 585.154646 73.862349 
L 593.075435 72.894195 
L 600.996223 72.123432 
L 608.917012 71.298152 
L 616.837801 70.679661 
L 624.758589 69.875059 
L 632.679378 68.795991 
L 640.600166 68.410609 
L 648.520955 68.171861 
L 656.441744 67.948152 
L 664.362532 67.728202 
L 672.283321 67.408617 
L 680.20411 67.218746 
L 688.124898 67.13227 
L 696.045687 67.047675 
L 703.966475 67.010076 
L 711.887264 66.955559 
L 719.808053 66.910441 
L 727.728841 66.869083 
L 735.64963 66.833365 
L 743.570418 66.792007 
L 751.491207 66.745009 
L 759.411996 66.538219 
L 767.332784 66.476182 
L 775.253573 66.335189 
L 783.174361 66.149077 
L 791.09515 66.000565 
L 799.015939 65.844532 
L 806.936727 65.562545 
" style="fill:none;stroke:#ff7f0e;stroke-linecap:square;stroke-width:1.5;"/>
   </g>
   <g id="line2d_13">
    <path clip-path="url(#pc25cf858a3)" d="M 149.511273 219.049695 
L 157.432061 219.045935 
L 165.35285 219.045935 
L 173.273639 219.040295 
L 181.194427 219.032776 
L 189.115216 219.019616 
L 197.036004 219.006457 
L 204.956793 218.995177 
L 212.877582 218.980138 
L 220.79837 218.9369 
L 228.719159 218.878623 
L 236.639947 218.837265 
L 244.560736 218.773348 
L 252.481525 218.653034 
L 260.402313 218.495121 
L 268.323102 218.408645 
L 276.24389 218.239453 
L 284.164679 218.074021 
L 292.085468 217.750677 
L 300.006256 217.355896 
L 307.927045 217.184824 
L 315.847834 216.865239 
" style="fill:none;stroke:#2ca02c;stroke-linecap:square;stroke-width:1.5;"/>
   </g>
   <g id="line2d_14">
    <path clip-path="url(#pc25cf858a3)" d="M 149.511273 219.053455 
L 157.432061 219.053455 
L 165.35285 219.051575 
L 173.273639 219.049695 
L 181.194427 219.047815 
L 189.115216 219.045935 
L 197.036004 219.040295 
L 204.956793 219.036535 
L 212.877582 219.017736 
L 220.79837 219.012097 
L 228.719159 218.997057 
L 236.639947 218.983898 
L 244.560736 218.842905 
L 252.481525 218.559038 
L 260.402313 218.085301 
L 268.323102 217.784515 
L 276.24389 217.543887 
L 284.164679 217.500649 
L 292.085468 217.410413 
L 300.006256 217.303258 
L 307.927045 217.130306 
L 315.847834 216.959235 
L 323.768622 216.891558 
L 331.689411 216.696047 
L 339.610199 216.562574 
L 347.530988 216.43286 
" style="fill:none;stroke:#d62728;stroke-linecap:square;stroke-width:1.5;"/>
   </g>
   <g id="line2d_15">
    <path clip-path="url(#pc25cf858a3)" d="M 149.511273 219.049695 
L 157.432061 219.049695 
L 165.35285 219.049695 
L 173.273639 219.049695 
L 181.194427 219.047815 
L 189.115216 219.045935 
L 197.036004 219.044055 
L 204.956793 219.044055 
L 212.877582 219.044055 
L 220.79837 219.044055 
L 228.719159 219.044055 
L 236.639947 219.044055 
L 244.560736 219.044055 
L 252.481525 219.044055 
L 260.402313 219.034655 
L 268.323102 219.034655 
L 276.24389 219.034655 
L 284.164679 219.034655 
L 292.085468 219.034655 
L 300.006256 219.034655 
L 307.927045 219.034655 
L 315.847834 219.034655 
L 323.768622 219.034655 
L 331.689411 219.032776 
L 339.610199 219.032776 
L 347.530988 219.032776 
L 355.451777 219.032776 
L 363.372565 219.032776 
L 371.293354 219.032776 
L 379.214142 219.032776 
L 387.134931 219.032776 
L 395.05572 219.032776 
L 402.976508 219.029016 
L 410.897297 219.023376 
L 418.818085 218.983898 
L 426.738874 218.94818 
L 434.659663 218.867343 
L 442.580451 218.810946 
L 450.50124 218.72071 
L 458.422028 218.656793 
L 466.342817 218.51956 
L 474.263606 218.260132 
L 482.184394 217.902949 
L 490.105183 217.709319 
L 498.025972 216.938556 
L 505.94676 216.400901 
L 513.867549 215.701575 
L 521.788337 214.767259 
L 529.709126 213.648713 
L 537.629915 212.172983 
L 545.550703 210.597618 
L 553.471492 208.860581 
L 561.39228 206.58589 
L 569.313069 204.523629 
L 577.233858 201.884235 
L 585.154646 198.385722 
L 593.075435 195.345907 
L 600.996223 191.873713 
L 608.917012 188.942933 
" style="fill:none;stroke:#9467bd;stroke-linecap:square;stroke-width:1.5;"/>
   </g>
   <g id="line2d_16">
    <path clip-path="url(#pc25cf858a3)" d="M 149.511273 219.053455 
L 157.432061 219.047815 
L 165.35285 219.047815 
L 173.273639 219.045935 
L 181.194427 219.042175 
L 189.115216 219.040295 
L 197.036004 219.038415 
L 204.956793 219.034655 
L 212.877582 219.034655 
L 220.79837 219.034655 
L 228.719159 219.032776 
L 236.639947 219.030896 
L 244.560736 219.030896 
L 252.481525 219.030896 
L 260.402313 219.030896 
L 268.323102 219.027136 
L 276.24389 219.027136 
L 284.164679 219.027136 
L 292.085468 219.027136 
L 300.006256 219.027136 
L 307.927045 219.027136 
L 315.847834 219.027136 
L 323.768622 219.027136 
L 331.689411 219.027136 
L 339.610199 219.027136 
L 347.530988 219.027136 
L 355.451777 219.027136 
L 363.372565 219.027136 
L 371.293354 219.027136 
L 379.214142 219.023376 
L 387.134931 219.015856 
L 395.05572 218.966979 
L 402.976508 218.94818 
L 410.897297 218.846664 
L 418.818085 218.812826 
L 426.738874 218.760189 
L 434.659663 218.686872 
L 442.580451 218.562798 
L 450.50124 218.30337 
L 458.422028 217.769476 
L 466.342817 217.463051 
L 474.263606 217.359655 
L 482.184394 216.914117 
L 490.105183 216.618971 
L 498.025972 216.109515 
L 505.94676 214.601827 
L 513.867549 213.299049 
L 521.788337 211.921075 
L 529.709126 209.960329 
L 537.629915 207.753314 
L 545.550703 205.602697 
L 553.471492 203.643831 
L 561.39228 192.477164 
L 569.313069 184.865407 
L 577.233858 178.706822 
L 585.154646 172.482439 
" style="fill:none;stroke:#8c564b;stroke-linecap:square;stroke-width:1.5;"/>
   </g>
   <g id="line2d_17">
    <path clip-path="url(#pc25cf858a3)" d="M 149.511273 219.051575 
L 157.432061 219.045935 
L 165.35285 219.021496 
L 173.273639 219.002697 
L 181.194427 218.974498 
L 189.115216 218.94066 
L 197.036004 218.876743 
L 204.956793 218.794027 
L 212.877582 218.594756 
L 220.79837 218.325929 
L 228.719159 217.940548 
L 236.639947 217.216782 
L 244.560736 216.233589 
L 252.481525 214.663864 
L 260.402313 213.562237 
L 268.323102 212.45121 
L 276.24389 210.131401 
L 284.164679 208.108617 
L 292.085468 206.711844 
L 300.006256 205.593297 
L 307.927045 203.937097 
L 315.847834 202.136143 
L 323.768622 200.115239 
L 331.689411 197.692035 
L 339.610199 195.125957 
L 347.530988 192.853146 
L 355.451777 190.8736 
L 363.372565 188.659066 
L 371.293354 186.418213 
L 379.214142 184.451827 
L 387.134931 182.126378 
L 395.05572 180.310385 
L 402.976508 178.377837 
" style="fill:none;stroke:#e377c2;stroke-linecap:square;stroke-width:1.5;"/>
   </g>
   <g id="line2d_18">
    <path clip-path="url(#pc25cf858a3)" d="M 149.511273 219.049695 
L 157.432061 219.049695 
L 165.35285 219.049695 
L 173.273639 219.049695 
L 181.194427 219.049695 
L 189.115216 219.049695 
L 197.036004 219.049695 
L 204.956793 219.049695 
L 212.877582 219.049695 
L 220.79837 219.049695 
L 228.719159 219.049695 
L 236.639947 219.049695 
L 244.560736 219.049695 
L 252.481525 219.049695 
L 260.402313 219.049695 
L 268.323102 219.049695 
L 276.24389 219.049695 
L 284.164679 219.049695 
L 292.085468 219.049695 
L 300.006256 219.049695 
L 307.927045 219.049695 
L 315.847834 219.049695 
L 323.768622 219.023376 
L 331.689411 218.906822 
L 339.610199 218.807186 
L 347.530988 218.624835 
L 355.451777 218.450003 
L 363.372565 218.30337 
L 371.293354 217.833393 
L 379.214142 217.385974 
L 387.134931 216.934796 
L 395.05572 215.880166 
L 402.976508 215.605699 
L 410.897297 214.351799 
L 418.818085 213.248292 
L 426.738874 211.802641 
L 434.659663 210.340071 
L 442.580451 207.995823 
L 450.50124 205.190997 
L 458.422028 201.812798 
L 466.342817 199.976126 
L 474.263606 195.627893 
L 482.184394 190.644251 
L 490.105183 185.85612 
L 498.025972 185.686928 
L 505.94676 173.975088 
L 513.867549 166.455447 
L 521.788337 159.826883 
L 529.709126 151.918101 
L 537.629915 141.913219 
L 545.550703 130.660076 
L 553.471492 118.333505 
L 561.39228 107.881204 
" style="fill:none;stroke:#7f7f7f;stroke-linecap:square;stroke-width:1.5;"/>
   </g>
   <g id="line2d_19">
    <path clip-path="url(#pc25cf858a3)" d="M 149.511273 219.053455 
L 157.432061 219.049695 
L 165.35285 219.045935 
L 173.273639 219.042175 
L 181.194427 219.036535 
L 189.115216 219.015856 
L 197.036004 218.998937 
L 204.956793 218.972618 
L 212.877582 218.94066 
L 220.79837 218.897422 
L 228.719159 218.872983 
L 236.639947 218.854184 
L 244.560736 218.824105 
L 252.481525 218.797787 
L 260.402313 218.72071 
L 268.323102 218.707551 
" style="fill:none;stroke:#bcbd22;stroke-linecap:square;stroke-width:1.5;"/>
   </g>
   <g id="line2d_20">
    <path clip-path="url(#pc25cf858a3)" d="M 149.511273 219.053455 
L 157.432061 219.053455 
L 165.35285 219.053455 
L 173.273639 219.053455 
L 181.194427 219.049695 
L 189.115216 219.049695 
L 197.036004 219.045935 
L 204.956793 219.042175 
L 212.877582 219.040295 
L 220.79837 219.040295 
L 228.719159 219.038415 
L 236.639947 219.036535 
L 244.560736 219.036535 
L 252.481525 219.036535 
L 260.402313 219.036535 
L 268.323102 219.034655 
L 276.24389 219.034655 
L 284.164679 219.025256 
L 292.085468 219.023376 
L 300.006256 219.021496 
L 307.927045 219.021496 
L 315.847834 219.021496 
L 323.768622 219.021496 
L 331.689411 219.021496 
L 339.610199 219.021496 
L 347.530988 219.021496 
L 355.451777 219.021496 
L 363.372565 219.017736 
L 371.293354 219.013976 
L 379.214142 219.013976 
L 387.134931 219.010217 
L 395.05572 219.010217 
L 402.976508 219.006457 
L 410.897297 219.006457 
L 418.818085 219.002697 
L 426.738874 218.998937 
L 434.659663 218.997057 
L 442.580451 218.995177 
L 450.50124 218.991418 
L 458.422028 218.982018 
L 466.342817 218.980138 
L 474.263606 218.980138 
L 482.184394 218.978258 
L 490.105183 218.976378 
L 498.025972 218.972618 
L 505.94676 218.970738 
L 513.867549 218.970738 
L 521.788337 218.970738 
L 529.709126 218.965099 
L 537.629915 218.965099 
L 545.550703 218.963219 
L 553.471492 218.955699 
L 561.39228 218.94442 
L 569.313069 218.94442 
L 577.233858 218.92938 
L 585.154646 218.910581 
L 593.075435 218.852304 
L 600.996223 218.852304 
L 608.917012 218.801547 
L 616.837801 218.767708 
L 624.758589 218.745149 
" style="fill:none;stroke:#17becf;stroke-linecap:square;stroke-width:1.5;"/>
   </g>
   <g id="patch_3">
    <path d="M 116.64 226.728 
L 116.64 57.888 
" style="fill:none;stroke:#000000;stroke-linecap:square;stroke-linejoin:miter;stroke-width:0.8;"/>
   </g>
   <g id="patch_4">
    <path d="M 839.808 226.728 
L 839.808 57.888 
" style="fill:none;stroke:#000000;stroke-linecap:square;stroke-linejoin:miter;stroke-width:0.8;"/>
   </g>
   <g id="patch_5">
    <path d="M 116.64 226.728 
L 839.808 226.728 
" style="fill:none;stroke:#000000;stroke-linecap:square;stroke-linejoin:miter;stroke-width:0.8;"/>
   </g>
   <g id="patch_6">
    <path d="M 116.64 57.888 
L 839.808 57.888 
" style="fill:none;stroke:#000000;stroke-linecap:square;stroke-linejoin:miter;stroke-width:0.8;"/>
   </g>
   <g id="text_12">
    <!-- COVID-19 cases, selected countries, data from ecdc.europa.eu as of 2020-03-23 -->
    <defs>
     <path d="M 64.40625 67.28125 
L 64.40625 56.890625 
Q 59.421875 61.53125 53.78125 63.8125 
Q 48.140625 66.109375 41.796875 66.109375 
Q 29.296875 66.109375 22.65625 58.46875 
Q 16.015625 50.828125 16.015625 36.375 
Q 16.015625 21.96875 22.65625 14.328125 
Q 29.296875 6.6875 41.796875 6.6875 
Q 48.140625 6.6875 53.78125 8.984375 
Q 59.421875 11.28125 64.40625 15.921875 
L 64.40625 5.609375 
Q 59.234375 2.09375 53.4375 0.328125 
Q 47.65625 -1.421875 41.21875 -1.421875 
Q 24.65625 -1.421875 15.125 8.703125 
Q 5.609375 18.84375 5.609375 36.375 
Q 5.609375 53.953125 15.125 64.078125 
Q 24.65625 74.21875 41.21875 74.21875 
Q 47.75 74.21875 53.53125 72.484375 
Q 59.328125 70.75 64.40625 67.28125 
z
" id="DejaVuSans-67"/>
     <path d="M 39.40625 66.21875 
Q 28.65625 66.21875 22.328125 58.203125 
Q 16.015625 50.203125 16.015625 36.375 
Q 16.015625 22.609375 22.328125 14.59375 
Q 28.65625 6.59375 39.40625 6.59375 
Q 50.140625 6.59375 56.421875 14.59375 
Q 62.703125 22.609375 62.703125 36.375 
Q 62.703125 50.203125 56.421875 58.203125 
Q 50.140625 66.21875 39.40625 66.21875 
z
M 39.40625 74.21875 
Q 54.734375 74.21875 63.90625 63.9375 
Q 73.09375 53.65625 73.09375 36.375 
Q 73.09375 19.140625 63.90625 8.859375 
Q 54.734375 -1.421875 39.40625 -1.421875 
Q 24.03125 -1.421875 14.8125 8.828125 
Q 5.609375 19.09375 5.609375 36.375 
Q 5.609375 53.65625 14.8125 63.9375 
Q 24.03125 74.21875 39.40625 74.21875 
z
" id="DejaVuSans-79"/>
     <path d="M 28.609375 0 
L 0.78125 72.90625 
L 11.078125 72.90625 
L 34.1875 11.53125 
L 57.328125 72.90625 
L 67.578125 72.90625 
L 39.796875 0 
z
" id="DejaVuSans-86"/>
     <path d="M 9.8125 72.90625 
L 19.671875 72.90625 
L 19.671875 0 
L 9.8125 0 
z
" id="DejaVuSans-73"/>
     <path d="M 19.671875 64.796875 
L 19.671875 8.109375 
L 31.59375 8.109375 
Q 46.6875 8.109375 53.6875 14.9375 
Q 60.6875 21.78125 60.6875 36.53125 
Q 60.6875 51.171875 53.6875 57.984375 
Q 46.6875 64.796875 31.59375 64.796875 
z
M 9.8125 72.90625 
L 30.078125 72.90625 
Q 51.265625 72.90625 61.171875 64.09375 
Q 71.09375 55.28125 71.09375 36.53125 
Q 71.09375 17.671875 61.125 8.828125 
Q 51.171875 0 30.078125 0 
L 9.8125 0 
z
" id="DejaVuSans-68"/>
     <path d="M 4.890625 31.390625 
L 31.203125 31.390625 
L 31.203125 23.390625 
L 4.890625 23.390625 
z
" id="DejaVuSans-45"/>
     <path d="M 12.40625 8.296875 
L 28.515625 8.296875 
L 28.515625 63.921875 
L 10.984375 60.40625 
L 10.984375 69.390625 
L 28.421875 72.90625 
L 38.28125 72.90625 
L 38.28125 8.296875 
L 54.390625 8.296875 
L 54.390625 0 
L 12.40625 0 
z
" id="DejaVuSans-49"/>
     <path d="M 10.984375 1.515625 
L 10.984375 10.5 
Q 14.703125 8.734375 18.5 7.8125 
Q 22.3125 6.890625 25.984375 6.890625 
Q 35.75 6.890625 40.890625 13.453125 
Q 46.046875 20.015625 46.78125 33.40625 
Q 43.953125 29.203125 39.59375 26.953125 
Q 35.25 24.703125 29.984375 24.703125 
Q 19.046875 24.703125 12.671875 31.3125 
Q 6.296875 37.9375 6.296875 49.421875 
Q 6.296875 60.640625 12.9375 67.421875 
Q 19.578125 74.21875 30.609375 74.21875 
Q 43.265625 74.21875 49.921875 64.515625 
Q 56.59375 54.828125 56.59375 36.375 
Q 56.59375 19.140625 48.40625 8.859375 
Q 40.234375 -1.421875 26.421875 -1.421875 
Q 22.703125 -1.421875 18.890625 -0.6875 
Q 15.09375 0.046875 10.984375 1.515625 
z
M 30.609375 32.421875 
Q 37.25 32.421875 41.125 36.953125 
Q 45.015625 41.5 45.015625 49.421875 
Q 45.015625 57.28125 41.125 61.84375 
Q 37.25 66.40625 30.609375 66.40625 
Q 23.96875 66.40625 20.09375 61.84375 
Q 16.21875 57.28125 16.21875 49.421875 
Q 16.21875 41.5 20.09375 36.953125 
Q 23.96875 32.421875 30.609375 32.421875 
z
" id="DejaVuSans-57"/>
     <path d="M 11.71875 12.40625 
L 22.015625 12.40625 
L 22.015625 4 
L 14.015625 -11.625 
L 7.71875 -11.625 
L 11.71875 4 
z
" id="DejaVuSans-44"/>
     <path d="M 9.421875 75.984375 
L 18.40625 75.984375 
L 18.40625 0 
L 9.421875 0 
z
" id="DejaVuSans-108"/>
     <path d="M 18.3125 70.21875 
L 18.3125 54.6875 
L 36.8125 54.6875 
L 36.8125 47.703125 
L 18.3125 47.703125 
L 18.3125 18.015625 
Q 18.3125 11.328125 20.140625 9.421875 
Q 21.96875 7.515625 27.59375 7.515625 
L 36.8125 7.515625 
L 36.8125 0 
L 27.59375 0 
Q 17.1875 0 13.234375 3.875 
Q 9.28125 7.765625 9.28125 18.015625 
L 9.28125 47.703125 
L 2.6875 47.703125 
L 2.6875 54.6875 
L 9.28125 54.6875 
L 9.28125 70.21875 
z
" id="DejaVuSans-116"/>
     <path d="M 45.40625 46.390625 
L 45.40625 75.984375 
L 54.390625 75.984375 
L 54.390625 0 
L 45.40625 0 
L 45.40625 8.203125 
Q 42.578125 3.328125 38.25 0.953125 
Q 33.9375 -1.421875 27.875 -1.421875 
Q 17.96875 -1.421875 11.734375 6.484375 
Q 5.515625 14.40625 5.515625 27.296875 
Q 5.515625 40.1875 11.734375 48.09375 
Q 17.96875 56 27.875 56 
Q 33.9375 56 38.25 53.625 
Q 42.578125 51.265625 45.40625 46.390625 
z
M 14.796875 27.296875 
Q 14.796875 17.390625 18.875 11.75 
Q 22.953125 6.109375 30.078125 6.109375 
Q 37.203125 6.109375 41.296875 11.75 
Q 45.40625 17.390625 45.40625 27.296875 
Q 45.40625 37.203125 41.296875 42.84375 
Q 37.203125 48.484375 30.078125 48.484375 
Q 22.953125 48.484375 18.875 42.84375 
Q 14.796875 37.203125 14.796875 27.296875 
z
" id="DejaVuSans-100"/>
     <path d="M 8.5 21.578125 
L 8.5 54.6875 
L 17.484375 54.6875 
L 17.484375 21.921875 
Q 17.484375 14.15625 20.5 10.265625 
Q 23.53125 6.390625 29.59375 6.390625 
Q 36.859375 6.390625 41.078125 11.03125 
Q 45.3125 15.671875 45.3125 23.6875 
L 45.3125 54.6875 
L 54.296875 54.6875 
L 54.296875 0 
L 45.3125 0 
L 45.3125 8.40625 
Q 42.046875 3.421875 37.71875 1 
Q 33.40625 -1.421875 27.6875 -1.421875 
Q 18.265625 -1.421875 13.375 4.4375 
Q 8.5 10.296875 8.5 21.578125 
z
M 31.109375 56 
z
" id="DejaVuSans-117"/>
     <path d="M 54.890625 33.015625 
L 54.890625 0 
L 45.90625 0 
L 45.90625 32.71875 
Q 45.90625 40.484375 42.875 44.328125 
Q 39.84375 48.1875 33.796875 48.1875 
Q 26.515625 48.1875 22.3125 43.546875 
Q 18.109375 38.921875 18.109375 30.90625 
L 18.109375 0 
L 9.078125 0 
L 9.078125 54.6875 
L 18.109375 54.6875 
L 18.109375 46.1875 
Q 21.34375 51.125 25.703125 53.5625 
Q 30.078125 56 35.796875 56 
Q 45.21875 56 50.046875 50.171875 
Q 54.890625 44.34375 54.890625 33.015625 
z
" id="DejaVuSans-110"/>
     <path d="M 41.109375 46.296875 
Q 39.59375 47.171875 37.8125 47.578125 
Q 36.03125 48 33.890625 48 
Q 26.265625 48 22.1875 43.046875 
Q 18.109375 38.09375 18.109375 28.8125 
L 18.109375 0 
L 9.078125 0 
L 9.078125 54.6875 
L 18.109375 54.6875 
L 18.109375 46.1875 
Q 20.953125 51.171875 25.484375 53.578125 
Q 30.03125 56 36.53125 56 
Q 37.453125 56 38.578125 55.875 
Q 39.703125 55.765625 41.0625 55.515625 
z
" id="DejaVuSans-114"/>
     <path d="M 9.421875 54.6875 
L 18.40625 54.6875 
L 18.40625 0 
L 9.421875 0 
z
M 9.421875 75.984375 
L 18.40625 75.984375 
L 18.40625 64.59375 
L 9.421875 64.59375 
z
" id="DejaVuSans-105"/>
     <path d="M 37.109375 75.984375 
L 37.109375 68.5 
L 28.515625 68.5 
Q 23.6875 68.5 21.796875 66.546875 
Q 19.921875 64.59375 19.921875 59.515625 
L 19.921875 54.6875 
L 34.71875 54.6875 
L 34.71875 47.703125 
L 19.921875 47.703125 
L 19.921875 0 
L 10.890625 0 
L 10.890625 47.703125 
L 2.296875 47.703125 
L 2.296875 54.6875 
L 10.890625 54.6875 
L 10.890625 58.5 
Q 10.890625 67.625 15.140625 71.796875 
Q 19.390625 75.984375 28.609375 75.984375 
z
" id="DejaVuSans-102"/>
     <path d="M 52 44.1875 
Q 55.375 50.25 60.0625 53.125 
Q 64.75 56 71.09375 56 
Q 79.640625 56 84.28125 50.015625 
Q 88.921875 44.046875 88.921875 33.015625 
L 88.921875 0 
L 79.890625 0 
L 79.890625 32.71875 
Q 79.890625 40.578125 77.09375 44.375 
Q 74.3125 48.1875 68.609375 48.1875 
Q 61.625 48.1875 57.5625 43.546875 
Q 53.515625 38.921875 53.515625 30.90625 
L 53.515625 0 
L 44.484375 0 
L 44.484375 32.71875 
Q 44.484375 40.625 41.703125 44.40625 
Q 38.921875 48.1875 33.109375 48.1875 
Q 26.21875 48.1875 22.15625 43.53125 
Q 18.109375 38.875 18.109375 30.90625 
L 18.109375 0 
L 9.078125 0 
L 9.078125 54.6875 
L 18.109375 54.6875 
L 18.109375 46.1875 
Q 21.1875 51.21875 25.484375 53.609375 
Q 29.78125 56 35.6875 56 
Q 41.65625 56 45.828125 52.96875 
Q 50 49.953125 52 44.1875 
z
" id="DejaVuSans-109"/>
     <path d="M 18.109375 8.203125 
L 18.109375 -20.796875 
L 9.078125 -20.796875 
L 9.078125 54.6875 
L 18.109375 54.6875 
L 18.109375 46.390625 
Q 20.953125 51.265625 25.265625 53.625 
Q 29.59375 56 35.59375 56 
Q 45.5625 56 51.78125 48.09375 
Q 58.015625 40.1875 58.015625 27.296875 
Q 58.015625 14.40625 51.78125 6.484375 
Q 45.5625 -1.421875 35.59375 -1.421875 
Q 29.59375 -1.421875 25.265625 0.953125 
Q 20.953125 3.328125 18.109375 8.203125 
z
M 48.6875 27.296875 
Q 48.6875 37.203125 44.609375 42.84375 
Q 40.53125 48.484375 33.40625 48.484375 
Q 26.265625 48.484375 22.1875 42.84375 
Q 18.109375 37.203125 18.109375 27.296875 
Q 18.109375 17.390625 22.1875 11.75 
Q 26.265625 6.109375 33.40625 6.109375 
Q 40.53125 6.109375 44.609375 11.75 
Q 48.6875 17.390625 48.6875 27.296875 
z
" id="DejaVuSans-112"/>
     <path d="M 40.578125 39.3125 
Q 47.65625 37.796875 51.625 33 
Q 55.609375 28.21875 55.609375 21.1875 
Q 55.609375 10.40625 48.1875 4.484375 
Q 40.765625 -1.421875 27.09375 -1.421875 
Q 22.515625 -1.421875 17.65625 -0.515625 
Q 12.796875 0.390625 7.625 2.203125 
L 7.625 11.71875 
Q 11.71875 9.328125 16.59375 8.109375 
Q 21.484375 6.890625 26.8125 6.890625 
Q 36.078125 6.890625 40.9375 10.546875 
Q 45.796875 14.203125 45.796875 21.1875 
Q 45.796875 27.640625 41.28125 31.265625 
Q 36.765625 34.90625 28.71875 34.90625 
L 20.21875 34.90625 
L 20.21875 43.015625 
L 29.109375 43.015625 
Q 36.375 43.015625 40.234375 45.921875 
Q 44.09375 48.828125 44.09375 54.296875 
Q 44.09375 59.90625 40.109375 62.90625 
Q 36.140625 65.921875 28.71875 65.921875 
Q 24.65625 65.921875 20.015625 65.03125 
Q 15.375 64.15625 9.8125 62.3125 
L 9.8125 71.09375 
Q 15.4375 72.65625 20.34375 73.4375 
Q 25.25 74.21875 29.59375 74.21875 
Q 40.828125 74.21875 47.359375 69.109375 
Q 53.90625 64.015625 53.90625 55.328125 
Q 53.90625 49.265625 50.4375 45.09375 
Q 46.96875 40.921875 40.578125 39.3125 
z
" id="DejaVuSans-51"/>
    </defs>
    <g transform="translate(236.33025 51.888)scale(0.12 -0.12)">
     <use xlink:href="#DejaVuSans-67"/>
     <use x="69.824219" xlink:href="#DejaVuSans-79"/>
     <use x="148.519531" xlink:href="#DejaVuSans-86"/>
     <use x="216.927734" xlink:href="#DejaVuSans-73"/>
     <use x="246.419922" xlink:href="#DejaVuSans-68"/>
     <use x="323.421875" xlink:href="#DejaVuSans-45"/>
     <use x="359.505859" xlink:href="#DejaVuSans-49"/>
     <use x="423.128906" xlink:href="#DejaVuSans-57"/>
     <use x="486.751953" xlink:href="#DejaVuSans-32"/>
     <use x="518.539062" xlink:href="#DejaVuSans-99"/>
     <use x="573.519531" xlink:href="#DejaVuSans-97"/>
     <use x="634.798828" xlink:href="#DejaVuSans-115"/>
     <use x="686.898438" xlink:href="#DejaVuSans-101"/>
     <use x="748.421875" xlink:href="#DejaVuSans-115"/>
     <use x="800.521484" xlink:href="#DejaVuSans-44"/>
     <use x="832.308594" xlink:href="#DejaVuSans-32"/>
     <use x="864.095703" xlink:href="#DejaVuSans-115"/>
     <use x="916.195312" xlink:href="#DejaVuSans-101"/>
     <use x="977.71875" xlink:href="#DejaVuSans-108"/>
     <use x="1005.501953" xlink:href="#DejaVuSans-101"/>
     <use x="1067.025391" xlink:href="#DejaVuSans-99"/>
     <use x="1122.005859" xlink:href="#DejaVuSans-116"/>
     <use x="1161.214844" xlink:href="#DejaVuSans-101"/>
     <use x="1222.738281" xlink:href="#DejaVuSans-100"/>
     <use x="1286.214844" xlink:href="#DejaVuSans-32"/>
     <use x="1318.001953" xlink:href="#DejaVuSans-99"/>
     <use x="1372.982422" xlink:href="#DejaVuSans-111"/>
     <use x="1434.164062" xlink:href="#DejaVuSans-117"/>
     <use x="1497.542969" xlink:href="#DejaVuSans-110"/>
     <use x="1560.921875" xlink:href="#DejaVuSans-116"/>
     <use x="1600.130859" xlink:href="#DejaVuSans-114"/>
     <use x="1641.244141" xlink:href="#DejaVuSans-105"/>
     <use x="1669.027344" xlink:href="#DejaVuSans-101"/>
     <use x="1730.550781" xlink:href="#DejaVuSans-115"/>
     <use x="1782.650391" xlink:href="#DejaVuSans-44"/>
     <use x="1814.4375" xlink:href="#DejaVuSans-32"/>
     <use x="1846.224609" xlink:href="#DejaVuSans-100"/>
     <use x="1909.701172" xlink:href="#DejaVuSans-97"/>
     <use x="1970.980469" xlink:href="#DejaVuSans-116"/>
     <use x="2010.189453" xlink:href="#DejaVuSans-97"/>
     <use x="2071.46875" xlink:href="#DejaVuSans-32"/>
     <use x="2103.255859" xlink:href="#DejaVuSans-102"/>
     <use x="2138.460938" xlink:href="#DejaVuSans-114"/>
     <use x="2179.542969" xlink:href="#DejaVuSans-111"/>
     <use x="2240.724609" xlink:href="#DejaVuSans-109"/>
     <use x="2338.136719" xlink:href="#DejaVuSans-32"/>
     <use x="2369.923828" xlink:href="#DejaVuSans-101"/>
     <use x="2431.447266" xlink:href="#DejaVuSans-99"/>
     <use x="2486.427734" xlink:href="#DejaVuSans-100"/>
     <use x="2549.904297" xlink:href="#DejaVuSans-99"/>
     <use x="2604.884766" xlink:href="#DejaVuSans-46"/>
     <use x="2636.671875" xlink:href="#DejaVuSans-101"/>
     <use x="2698.195312" xlink:href="#DejaVuSans-117"/>
     <use x="2761.574219" xlink:href="#DejaVuSans-114"/>
     <use x="2802.65625" xlink:href="#DejaVuSans-111"/>
     <use x="2863.837891" xlink:href="#DejaVuSans-112"/>
     <use x="2927.314453" xlink:href="#DejaVuSans-97"/>
     <use x="2988.59375" xlink:href="#DejaVuSans-46"/>
     <use x="3020.380859" xlink:href="#DejaVuSans-101"/>
     <use x="3081.904297" xlink:href="#DejaVuSans-117"/>
     <use x="3145.283203" xlink:href="#DejaVuSans-32"/>
     <use x="3177.070312" xlink:href="#DejaVuSans-97"/>
     <use x="3238.349609" xlink:href="#DejaVuSans-115"/>
     <use x="3290.449219" xlink:href="#DejaVuSans-32"/>
     <use x="3322.236328" xlink:href="#DejaVuSans-111"/>
     <use x="3383.417969" xlink:href="#DejaVuSans-102"/>
     <use x="3418.623047" xlink:href="#DejaVuSans-32"/>
     <use x="3450.410156" xlink:href="#DejaVuSans-50"/>
     <use x="3514.033203" xlink:href="#DejaVuSans-48"/>
     <use x="3577.65625" xlink:href="#DejaVuSans-50"/>
     <use x="3641.279297" xlink:href="#DejaVuSans-48"/>
     <use x="3704.902344" xlink:href="#DejaVuSans-45"/>
     <use x="3740.986328" xlink:href="#DejaVuSans-48"/>
     <use x="3804.609375" xlink:href="#DejaVuSans-51"/>
     <use x="3868.232422" xlink:href="#DejaVuSans-45"/>
     <use x="3904.316406" xlink:href="#DejaVuSans-50"/>
     <use x="3967.939453" xlink:href="#DejaVuSans-51"/>
    </g>
   </g>
   <g id="legend_1">
    <g id="patch_7">
     <path d="M 123.64 212.66925 
L 232.222813 212.66925 
Q 234.222813 212.66925 234.222813 210.66925 
L 234.222813 64.888 
Q 234.222813 62.888 232.222813 62.888 
L 123.64 62.888 
Q 121.64 62.888 121.64 64.888 
L 121.64 210.66925 
Q 121.64 212.66925 123.64 212.66925 
z
" style="fill:#ffffff;opacity:0.8;stroke:#cccccc;stroke-linejoin:miter;"/>
    </g>
    <g id="line2d_21">
     <path d="M 125.64 70.986438 
L 145.64 70.986438 
" style="fill:none;stroke:#1f77b4;stroke-linecap:square;stroke-width:1.5;"/>
    </g>
    <g id="line2d_22"/>
    <g id="text_13">
     <!-- Canada -->
     <g transform="translate(153.64 74.486438)scale(0.1 -0.1)">
      <use xlink:href="#DejaVuSans-67"/>
      <use x="69.824219" xlink:href="#DejaVuSans-97"/>
      <use x="131.103516" xlink:href="#DejaVuSans-110"/>
      <use x="194.482422" xlink:href="#DejaVuSans-97"/>
      <use x="255.761719" xlink:href="#DejaVuSans-100"/>
      <use x="319.238281" xlink:href="#DejaVuSans-97"/>
     </g>
    </g>
    <g id="line2d_23">
     <path d="M 125.64 85.664563 
L 145.64 85.664563 
" style="fill:none;stroke:#ff7f0e;stroke-linecap:square;stroke-width:1.5;"/>
    </g>
    <g id="line2d_24"/>
    <g id="text_14">
     <!-- China -->
     <defs>
      <path d="M 54.890625 33.015625 
L 54.890625 0 
L 45.90625 0 
L 45.90625 32.71875 
Q 45.90625 40.484375 42.875 44.328125 
Q 39.84375 48.1875 33.796875 48.1875 
Q 26.515625 48.1875 22.3125 43.546875 
Q 18.109375 38.921875 18.109375 30.90625 
L 18.109375 0 
L 9.078125 0 
L 9.078125 75.984375 
L 18.109375 75.984375 
L 18.109375 46.1875 
Q 21.34375 51.125 25.703125 53.5625 
Q 30.078125 56 35.796875 56 
Q 45.21875 56 50.046875 50.171875 
Q 54.890625 44.34375 54.890625 33.015625 
z
" id="DejaVuSans-104"/>
     </defs>
     <g transform="translate(153.64 89.164563)scale(0.1 -0.1)">
      <use xlink:href="#DejaVuSans-67"/>
      <use x="69.824219" xlink:href="#DejaVuSans-104"/>
      <use x="133.203125" xlink:href="#DejaVuSans-105"/>
      <use x="160.986328" xlink:href="#DejaVuSans-110"/>
      <use x="224.365234" xlink:href="#DejaVuSans-97"/>
     </g>
    </g>
    <g id="line2d_25">
     <path d="M 125.64 100.342688 
L 145.64 100.342688 
" style="fill:none;stroke:#2ca02c;stroke-linecap:square;stroke-width:1.5;"/>
    </g>
    <g id="line2d_26"/>
    <g id="text_15">
     <!-- Czech Republic -->
     <defs>
      <path d="M 5.515625 54.6875 
L 48.1875 54.6875 
L 48.1875 46.484375 
L 14.40625 7.171875 
L 48.1875 7.171875 
L 48.1875 0 
L 4.296875 0 
L 4.296875 8.203125 
L 38.09375 47.515625 
L 5.515625 47.515625 
z
" id="DejaVuSans-122"/>
      <path d="M 44.390625 34.1875 
Q 47.5625 33.109375 50.5625 29.59375 
Q 53.5625 26.078125 56.59375 19.921875 
L 66.609375 0 
L 56 0 
L 46.6875 18.703125 
Q 43.0625 26.03125 39.671875 28.421875 
Q 36.28125 30.8125 30.421875 30.8125 
L 19.671875 30.8125 
L 19.671875 0 
L 9.8125 0 
L 9.8125 72.90625 
L 32.078125 72.90625 
Q 44.578125 72.90625 50.734375 67.671875 
Q 56.890625 62.453125 56.890625 51.90625 
Q 56.890625 45.015625 53.6875 40.46875 
Q 50.484375 35.9375 44.390625 34.1875 
z
M 19.671875 64.796875 
L 19.671875 38.921875 
L 32.078125 38.921875 
Q 39.203125 38.921875 42.84375 42.21875 
Q 46.484375 45.515625 46.484375 51.90625 
Q 46.484375 58.296875 42.84375 61.546875 
Q 39.203125 64.796875 32.078125 64.796875 
z
" id="DejaVuSans-82"/>
      <path d="M 48.6875 27.296875 
Q 48.6875 37.203125 44.609375 42.84375 
Q 40.53125 48.484375 33.40625 48.484375 
Q 26.265625 48.484375 22.1875 42.84375 
Q 18.109375 37.203125 18.109375 27.296875 
Q 18.109375 17.390625 22.1875 11.75 
Q 26.265625 6.109375 33.40625 6.109375 
Q 40.53125 6.109375 44.609375 11.75 
Q 48.6875 17.390625 48.6875 27.296875 
z
M 18.109375 46.390625 
Q 20.953125 51.265625 25.265625 53.625 
Q 29.59375 56 35.59375 56 
Q 45.5625 56 51.78125 48.09375 
Q 58.015625 40.1875 58.015625 27.296875 
Q 58.015625 14.40625 51.78125 6.484375 
Q 45.5625 -1.421875 35.59375 -1.421875 
Q 29.59375 -1.421875 25.265625 0.953125 
Q 20.953125 3.328125 18.109375 8.203125 
L 18.109375 0 
L 9.078125 0 
L 9.078125 75.984375 
L 18.109375 75.984375 
z
" id="DejaVuSans-98"/>
     </defs>
     <g transform="translate(153.64 103.842688)scale(0.1 -0.1)">
      <use xlink:href="#DejaVuSans-67"/>
      <use x="69.824219" xlink:href="#DejaVuSans-122"/>
      <use x="122.314453" xlink:href="#DejaVuSans-101"/>
      <use x="183.837891" xlink:href="#DejaVuSans-99"/>
      <use x="238.818359" xlink:href="#DejaVuSans-104"/>
      <use x="302.197266" xlink:href="#DejaVuSans-32"/>
      <use x="333.984375" xlink:href="#DejaVuSans-82"/>
      <use x="403.404297" xlink:href="#DejaVuSans-101"/>
      <use x="464.927734" xlink:href="#DejaVuSans-112"/>
      <use x="528.404297" xlink:href="#DejaVuSans-117"/>
      <use x="591.783203" xlink:href="#DejaVuSans-98"/>
      <use x="655.259766" xlink:href="#DejaVuSans-108"/>
      <use x="683.042969" xlink:href="#DejaVuSans-105"/>
      <use x="710.826172" xlink:href="#DejaVuSans-99"/>
     </g>
    </g>
    <g id="line2d_27">
     <path d="M 125.64 115.020813 
L 145.64 115.020813 
" style="fill:none;stroke:#d62728;stroke-linecap:square;stroke-width:1.5;"/>
    </g>
    <g id="line2d_28"/>
    <g id="text_16">
     <!-- Denmark -->
     <defs>
      <path d="M 9.078125 75.984375 
L 18.109375 75.984375 
L 18.109375 31.109375 
L 44.921875 54.6875 
L 56.390625 54.6875 
L 27.390625 29.109375 
L 57.625 0 
L 45.90625 0 
L 18.109375 26.703125 
L 18.109375 0 
L 9.078125 0 
z
" id="DejaVuSans-107"/>
     </defs>
     <g transform="translate(153.64 118.520813)scale(0.1 -0.1)">
      <use xlink:href="#DejaVuSans-68"/>
      <use x="77.001953" xlink:href="#DejaVuSans-101"/>
      <use x="138.525391" xlink:href="#DejaVuSans-110"/>
      <use x="201.904297" xlink:href="#DejaVuSans-109"/>
      <use x="299.316406" xlink:href="#DejaVuSans-97"/>
      <use x="360.595703" xlink:href="#DejaVuSans-114"/>
      <use x="401.708984" xlink:href="#DejaVuSans-107"/>
     </g>
    </g>
    <g id="line2d_29">
     <path d="M 125.64 129.698938 
L 145.64 129.698938 
" style="fill:none;stroke:#9467bd;stroke-linecap:square;stroke-width:1.5;"/>
    </g>
    <g id="line2d_30"/>
    <g id="text_17">
     <!-- France -->
     <defs>
      <path d="M 9.8125 72.90625 
L 51.703125 72.90625 
L 51.703125 64.59375 
L 19.671875 64.59375 
L 19.671875 43.109375 
L 48.578125 43.109375 
L 48.578125 34.8125 
L 19.671875 34.8125 
L 19.671875 0 
L 9.8125 0 
z
" id="DejaVuSans-70"/>
     </defs>
     <g transform="translate(153.64 133.198938)scale(0.1 -0.1)">
      <use xlink:href="#DejaVuSans-70"/>
      <use x="57.410156" xlink:href="#DejaVuSans-114"/>
      <use x="98.523438" xlink:href="#DejaVuSans-97"/>
      <use x="159.802734" xlink:href="#DejaVuSans-110"/>
      <use x="223.181641" xlink:href="#DejaVuSans-99"/>
      <use x="278.162109" xlink:href="#DejaVuSans-101"/>
     </g>
    </g>
    <g id="line2d_31">
     <path d="M 125.64 144.377063 
L 145.64 144.377063 
" style="fill:none;stroke:#8c564b;stroke-linecap:square;stroke-width:1.5;"/>
    </g>
    <g id="line2d_32"/>
    <g id="text_18">
     <!-- Germany -->
     <defs>
      <path d="M 59.515625 10.40625 
L 59.515625 29.984375 
L 43.40625 29.984375 
L 43.40625 38.09375 
L 69.28125 38.09375 
L 69.28125 6.78125 
Q 63.578125 2.734375 56.6875 0.65625 
Q 49.8125 -1.421875 42 -1.421875 
Q 24.90625 -1.421875 15.25 8.5625 
Q 5.609375 18.5625 5.609375 36.375 
Q 5.609375 54.25 15.25 64.234375 
Q 24.90625 74.21875 42 74.21875 
Q 49.125 74.21875 55.546875 72.453125 
Q 61.96875 70.703125 67.390625 67.28125 
L 67.390625 56.78125 
Q 61.921875 61.421875 55.765625 63.765625 
Q 49.609375 66.109375 42.828125 66.109375 
Q 29.4375 66.109375 22.71875 58.640625 
Q 16.015625 51.171875 16.015625 36.375 
Q 16.015625 21.625 22.71875 14.15625 
Q 29.4375 6.6875 42.828125 6.6875 
Q 48.046875 6.6875 52.140625 7.59375 
Q 56.25 8.5 59.515625 10.40625 
z
" id="DejaVuSans-71"/>
      <path d="M 32.171875 -5.078125 
Q 28.375 -14.84375 24.75 -17.8125 
Q 21.140625 -20.796875 15.09375 -20.796875 
L 7.90625 -20.796875 
L 7.90625 -13.28125 
L 13.1875 -13.28125 
Q 16.890625 -13.28125 18.9375 -11.515625 
Q 21 -9.765625 23.484375 -3.21875 
L 25.09375 0.875 
L 2.984375 54.6875 
L 12.5 54.6875 
L 29.59375 11.921875 
L 46.6875 54.6875 
L 56.203125 54.6875 
z
" id="DejaVuSans-121"/>
     </defs>
     <g transform="translate(153.64 147.877063)scale(0.1 -0.1)">
      <use xlink:href="#DejaVuSans-71"/>
      <use x="77.490234" xlink:href="#DejaVuSans-101"/>
      <use x="139.013672" xlink:href="#DejaVuSans-114"/>
      <use x="180.111328" xlink:href="#DejaVuSans-109"/>
      <use x="277.523438" xlink:href="#DejaVuSans-97"/>
      <use x="338.802734" xlink:href="#DejaVuSans-110"/>
      <use x="402.181641" xlink:href="#DejaVuSans-121"/>
     </g>
    </g>
    <g id="line2d_33">
     <path d="M 125.64 159.055188 
L 145.64 159.055188 
" style="fill:none;stroke:#e377c2;stroke-linecap:square;stroke-width:1.5;"/>
    </g>
    <g id="line2d_34"/>
    <g id="text_19">
     <!-- Iran -->
     <g transform="translate(153.64 162.555188)scale(0.1 -0.1)">
      <use xlink:href="#DejaVuSans-73"/>
      <use x="29.492188" xlink:href="#DejaVuSans-114"/>
      <use x="70.605469" xlink:href="#DejaVuSans-97"/>
      <use x="131.884766" xlink:href="#DejaVuSans-110"/>
     </g>
    </g>
    <g id="line2d_35">
     <path d="M 125.64 173.733313 
L 145.64 173.733313 
" style="fill:none;stroke:#7f7f7f;stroke-linecap:square;stroke-width:1.5;"/>
    </g>
    <g id="line2d_36"/>
    <g id="text_20">
     <!-- Italy -->
     <g transform="translate(153.64 177.233313)scale(0.1 -0.1)">
      <use xlink:href="#DejaVuSans-73"/>
      <use x="29.492188" xlink:href="#DejaVuSans-116"/>
      <use x="68.701172" xlink:href="#DejaVuSans-97"/>
      <use x="129.980469" xlink:href="#DejaVuSans-108"/>
      <use x="157.763672" xlink:href="#DejaVuSans-121"/>
     </g>
    </g>
    <g id="line2d_37">
     <path d="M 125.64 188.411438 
L 145.64 188.411438 
" style="fill:none;stroke:#bcbd22;stroke-linecap:square;stroke-width:1.5;"/>
    </g>
    <g id="line2d_38"/>
    <g id="text_21">
     <!-- Slovakia -->
     <defs>
      <path d="M 53.515625 70.515625 
L 53.515625 60.890625 
Q 47.90625 63.578125 42.921875 64.890625 
Q 37.9375 66.21875 33.296875 66.21875 
Q 25.25 66.21875 20.875 63.09375 
Q 16.5 59.96875 16.5 54.203125 
Q 16.5 49.359375 19.40625 46.890625 
Q 22.3125 44.4375 30.421875 42.921875 
L 36.375 41.703125 
Q 47.40625 39.59375 52.65625 34.296875 
Q 57.90625 29 57.90625 20.125 
Q 57.90625 9.515625 50.796875 4.046875 
Q 43.703125 -1.421875 29.984375 -1.421875 
Q 24.8125 -1.421875 18.96875 -0.25 
Q 13.140625 0.921875 6.890625 3.21875 
L 6.890625 13.375 
Q 12.890625 10.015625 18.65625 8.296875 
Q 24.421875 6.59375 29.984375 6.59375 
Q 38.421875 6.59375 43.015625 9.90625 
Q 47.609375 13.234375 47.609375 19.390625 
Q 47.609375 24.75 44.3125 27.78125 
Q 41.015625 30.8125 33.5 32.328125 
L 27.484375 33.5 
Q 16.453125 35.6875 11.515625 40.375 
Q 6.59375 45.0625 6.59375 53.421875 
Q 6.59375 63.09375 13.40625 68.65625 
Q 20.21875 74.21875 32.171875 74.21875 
Q 37.3125 74.21875 42.625 73.28125 
Q 47.953125 72.359375 53.515625 70.515625 
z
" id="DejaVuSans-83"/>
      <path d="M 2.984375 54.6875 
L 12.5 54.6875 
L 29.59375 8.796875 
L 46.6875 54.6875 
L 56.203125 54.6875 
L 35.6875 0 
L 23.484375 0 
z
" id="DejaVuSans-118"/>
     </defs>
     <g transform="translate(153.64 191.911438)scale(0.1 -0.1)">
      <use xlink:href="#DejaVuSans-83"/>
      <use x="63.476562" xlink:href="#DejaVuSans-108"/>
      <use x="91.259766" xlink:href="#DejaVuSans-111"/>
      <use x="152.441406" xlink:href="#DejaVuSans-118"/>
      <use x="211.621094" xlink:href="#DejaVuSans-97"/>
      <use x="272.900391" xlink:href="#DejaVuSans-107"/>
      <use x="330.810547" xlink:href="#DejaVuSans-105"/>
      <use x="358.59375" xlink:href="#DejaVuSans-97"/>
     </g>
    </g>
    <g id="line2d_39">
     <path d="M 125.64 203.089562 
L 145.64 203.089562 
" style="fill:none;stroke:#17becf;stroke-linecap:square;stroke-width:1.5;"/>
    </g>
    <g id="line2d_40"/>
    <g id="text_22">
     <!-- Taiwan -->
     <defs>
      <path d="M -0.296875 72.90625 
L 61.375 72.90625 
L 61.375 64.59375 
L 35.5 64.59375 
L 35.5 0 
L 25.59375 0 
L 25.59375 64.59375 
L -0.296875 64.59375 
z
" id="DejaVuSans-84"/>
      <path d="M 4.203125 54.6875 
L 13.1875 54.6875 
L 24.421875 12.015625 
L 35.59375 54.6875 
L 46.1875 54.6875 
L 57.421875 12.015625 
L 68.609375 54.6875 
L 77.59375 54.6875 
L 63.28125 0 
L 52.6875 0 
L 40.921875 44.828125 
L 29.109375 0 
L 18.5 0 
z
" id="DejaVuSans-119"/>
     </defs>
     <g transform="translate(153.64 206.589562)scale(0.1 -0.1)">
      <use xlink:href="#DejaVuSans-84"/>
      <use x="60.833984" xlink:href="#DejaVuSans-97"/>
      <use x="122.113281" xlink:href="#DejaVuSans-105"/>
      <use x="149.896484" xlink:href="#DejaVuSans-119"/>
      <use x="231.683594" xlink:href="#DejaVuSans-97"/>
      <use x="292.962891" xlink:href="#DejaVuSans-110"/>
     </g>
    </g>
   </g>
  </g>
  <g id="axes_2">
   <g id="patch_8">
    <path d="M 116.64 429.336 
L 839.808 429.336 
L 839.808 260.496 
L 116.64 260.496 
z
" style="fill:#ffffff;"/>
   </g>
   <g id="matplotlib.axis_3">
    <g id="xtick_6">
     <g id="line2d_41">
      <g>
       <use style="stroke:#000000;stroke-width:0.8;" x="149.511273" xlink:href="#m7019fba542" y="429.336"/>
      </g>
     </g>
     <g id="text_23">
      <!-- 0 -->
      <g transform="translate(146.330023 443.934438)scale(0.1 -0.1)">
       <use xlink:href="#DejaVuSans-48"/>
      </g>
     </g>
    </g>
    <g id="xtick_7">
     <g id="line2d_42">
      <g>
       <use style="stroke:#000000;stroke-width:0.8;" x="307.927045" xlink:href="#m7019fba542" y="429.336"/>
      </g>
     </g>
     <g id="text_24">
      <!-- 20 -->
      <g transform="translate(301.564545 443.934438)scale(0.1 -0.1)">
       <use xlink:href="#DejaVuSans-50"/>
       <use x="63.623047" xlink:href="#DejaVuSans-48"/>
      </g>
     </g>
    </g>
    <g id="xtick_8">
     <g id="line2d_43">
      <g>
       <use style="stroke:#000000;stroke-width:0.8;" x="466.342817" xlink:href="#m7019fba542" y="429.336"/>
      </g>
     </g>
     <g id="text_25">
      <!-- 40 -->
      <g transform="translate(459.980317 443.934438)scale(0.1 -0.1)">
       <use xlink:href="#DejaVuSans-52"/>
       <use x="63.623047" xlink:href="#DejaVuSans-48"/>
      </g>
     </g>
    </g>
    <g id="xtick_9">
     <g id="line2d_44">
      <g>
       <use style="stroke:#000000;stroke-width:0.8;" x="624.758589" xlink:href="#m7019fba542" y="429.336"/>
      </g>
     </g>
     <g id="text_26">
      <!-- 60 -->
      <g transform="translate(618.396089 443.934438)scale(0.1 -0.1)">
       <use xlink:href="#DejaVuSans-54"/>
       <use x="63.623047" xlink:href="#DejaVuSans-48"/>
      </g>
     </g>
    </g>
    <g id="xtick_10">
     <g id="line2d_45">
      <g>
       <use style="stroke:#000000;stroke-width:0.8;" x="783.174361" xlink:href="#m7019fba542" y="429.336"/>
      </g>
     </g>
     <g id="text_27">
      <!-- 80 -->
      <g transform="translate(776.811861 443.934438)scale(0.1 -0.1)">
       <use xlink:href="#DejaVuSans-56"/>
       <use x="63.623047" xlink:href="#DejaVuSans-48"/>
      </g>
     </g>
    </g>
    <g id="text_28">
     <!-- days -->
     <g transform="translate(466.421656 457.612563)scale(0.1 -0.1)">
      <use xlink:href="#DejaVuSans-100"/>
      <use x="63.476562" xlink:href="#DejaVuSans-97"/>
      <use x="124.755859" xlink:href="#DejaVuSans-121"/>
      <use x="183.935547" xlink:href="#DejaVuSans-115"/>
     </g>
    </g>
   </g>
   <g id="matplotlib.axis_4">
    <g id="ytick_6">
     <g id="line2d_46">
      <g>
       <use style="stroke:#000000;stroke-width:0.8;" x="116.64" xlink:href="#m40cd36e6ef" y="421.661455"/>
      </g>
     </g>
     <g id="text_29">
      <!-- $\mathdefault{10^{0}}$ -->
      <g transform="translate(92.04 425.460673)scale(0.1 -0.1)">
       <use transform="translate(0 0.765625)" xlink:href="#DejaVuSans-49"/>
       <use transform="translate(63.623047 0.765625)" xlink:href="#DejaVuSans-48"/>
       <use transform="translate(128.203125 39.046875)scale(0.7)" xlink:href="#DejaVuSans-48"/>
      </g>
     </g>
    </g>
    <g id="ytick_7">
     <g id="line2d_47">
      <g>
       <use style="stroke:#000000;stroke-width:0.8;" x="116.64" xlink:href="#m40cd36e6ef" y="390.412993"/>
      </g>
     </g>
     <g id="text_30">
      <!-- $\mathdefault{10^{1}}$ -->
      <g transform="translate(92.04 394.212212)scale(0.1 -0.1)">
       <use transform="translate(0 0.684375)" xlink:href="#DejaVuSans-49"/>
       <use transform="translate(63.623047 0.684375)" xlink:href="#DejaVuSans-48"/>
       <use transform="translate(128.203125 38.965625)scale(0.7)" xlink:href="#DejaVuSans-49"/>
      </g>
     </g>
    </g>
    <g id="ytick_8">
     <g id="line2d_48">
      <g>
       <use style="stroke:#000000;stroke-width:0.8;" x="116.64" xlink:href="#m40cd36e6ef" y="359.164531"/>
      </g>
     </g>
     <g id="text_31">
      <!-- $\mathdefault{10^{2}}$ -->
      <g transform="translate(92.04 362.96375)scale(0.1 -0.1)">
       <use transform="translate(0 0.765625)" xlink:href="#DejaVuSans-49"/>
       <use transform="translate(63.623047 0.765625)" xlink:href="#DejaVuSans-48"/>
       <use transform="translate(128.203125 39.046875)scale(0.7)" xlink:href="#DejaVuSans-50"/>
      </g>
     </g>
    </g>
    <g id="ytick_9">
     <g id="line2d_49">
      <g>
       <use style="stroke:#000000;stroke-width:0.8;" x="116.64" xlink:href="#m40cd36e6ef" y="327.916069"/>
      </g>
     </g>
     <g id="text_32">
      <!-- $\mathdefault{10^{3}}$ -->
      <g transform="translate(92.04 331.715288)scale(0.1 -0.1)">
       <use transform="translate(0 0.765625)" xlink:href="#DejaVuSans-49"/>
       <use transform="translate(63.623047 0.765625)" xlink:href="#DejaVuSans-48"/>
       <use transform="translate(128.203125 39.046875)scale(0.7)" xlink:href="#DejaVuSans-51"/>
      </g>
     </g>
    </g>
    <g id="ytick_10">
     <g id="line2d_50">
      <g>
       <use style="stroke:#000000;stroke-width:0.8;" x="116.64" xlink:href="#m40cd36e6ef" y="296.667607"/>
      </g>
     </g>
     <g id="text_33">
      <!-- $\mathdefault{10^{4}}$ -->
      <g transform="translate(92.04 300.466826)scale(0.1 -0.1)">
       <use transform="translate(0 0.684375)" xlink:href="#DejaVuSans-49"/>
       <use transform="translate(63.623047 0.684375)" xlink:href="#DejaVuSans-48"/>
       <use transform="translate(128.203125 38.965625)scale(0.7)" xlink:href="#DejaVuSans-52"/>
      </g>
     </g>
    </g>
    <g id="ytick_11">
     <g id="line2d_51">
      <g>
       <use style="stroke:#000000;stroke-width:0.8;" x="116.64" xlink:href="#m40cd36e6ef" y="265.419146"/>
      </g>
     </g>
     <g id="text_34">
      <!-- $\mathdefault{10^{5}}$ -->
      <defs>
       <path d="M 10.796875 72.90625 
L 49.515625 72.90625 
L 49.515625 64.59375 
L 19.828125 64.59375 
L 19.828125 46.734375 
Q 21.96875 47.46875 24.109375 47.828125 
Q 26.265625 48.1875 28.421875 48.1875 
Q 40.625 48.1875 47.75 41.5 
Q 54.890625 34.8125 54.890625 23.390625 
Q 54.890625 11.625 47.5625 5.09375 
Q 40.234375 -1.421875 26.90625 -1.421875 
Q 22.3125 -1.421875 17.546875 -0.640625 
Q 12.796875 0.140625 7.71875 1.703125 
L 7.71875 11.625 
Q 12.109375 9.234375 16.796875 8.0625 
Q 21.484375 6.890625 26.703125 6.890625 
Q 35.15625 6.890625 40.078125 11.328125 
Q 45.015625 15.765625 45.015625 23.390625 
Q 45.015625 31 40.078125 35.4375 
Q 35.15625 39.890625 26.703125 39.890625 
Q 22.75 39.890625 18.8125 39.015625 
Q 14.890625 38.140625 10.796875 36.28125 
z
" id="DejaVuSans-53"/>
      </defs>
      <g transform="translate(92.04 269.218364)scale(0.1 -0.1)">
       <use transform="translate(0 0.684375)" xlink:href="#DejaVuSans-49"/>
       <use transform="translate(63.623047 0.684375)" xlink:href="#DejaVuSans-48"/>
       <use transform="translate(128.203125 38.965625)scale(0.7)" xlink:href="#DejaVuSans-53"/>
      </g>
     </g>
    </g>
    <g id="ytick_12">
     <g id="line2d_52">
      <defs>
       <path d="M 0 0 
L -2 0 
" id="m61310b8137" style="stroke:#000000;stroke-width:0.6;"/>
      </defs>
      <g>
       <use style="stroke:#000000;stroke-width:0.6;" x="116.64" xlink:href="#m61310b8137" y="428.593887"/>
      </g>
     </g>
    </g>
    <g id="ytick_13">
     <g id="line2d_53">
      <g>
       <use style="stroke:#000000;stroke-width:0.6;" x="116.64" xlink:href="#m61310b8137" y="426.501903"/>
      </g>
     </g>
    </g>
    <g id="ytick_14">
     <g id="line2d_54">
      <g>
       <use style="stroke:#000000;stroke-width:0.6;" x="116.64" xlink:href="#m61310b8137" y="424.689743"/>
      </g>
     </g>
    </g>
    <g id="ytick_15">
     <g id="line2d_55">
      <g>
       <use style="stroke:#000000;stroke-width:0.6;" x="116.64" xlink:href="#m61310b8137" y="423.091306"/>
      </g>
     </g>
    </g>
    <g id="ytick_16">
     <g id="line2d_56">
      <g>
       <use style="stroke:#000000;stroke-width:0.6;" x="116.64" xlink:href="#m61310b8137" y="412.25473"/>
      </g>
     </g>
    </g>
    <g id="ytick_17">
     <g id="line2d_57">
      <g>
       <use style="stroke:#000000;stroke-width:0.6;" x="116.64" xlink:href="#m61310b8137" y="406.752149"/>
      </g>
     </g>
    </g>
    <g id="ytick_18">
     <g id="line2d_58">
      <g>
       <use style="stroke:#000000;stroke-width:0.6;" x="116.64" xlink:href="#m61310b8137" y="402.848006"/>
      </g>
     </g>
    </g>
    <g id="ytick_19">
     <g id="line2d_59">
      <g>
       <use style="stroke:#000000;stroke-width:0.6;" x="116.64" xlink:href="#m61310b8137" y="399.819717"/>
      </g>
     </g>
    </g>
    <g id="ytick_20">
     <g id="line2d_60">
      <g>
       <use style="stroke:#000000;stroke-width:0.6;" x="116.64" xlink:href="#m61310b8137" y="397.345425"/>
      </g>
     </g>
    </g>
    <g id="ytick_21">
     <g id="line2d_61">
      <g>
       <use style="stroke:#000000;stroke-width:0.6;" x="116.64" xlink:href="#m61310b8137" y="395.253441"/>
      </g>
     </g>
    </g>
    <g id="ytick_22">
     <g id="line2d_62">
      <g>
       <use style="stroke:#000000;stroke-width:0.6;" x="116.64" xlink:href="#m61310b8137" y="393.441282"/>
      </g>
     </g>
    </g>
    <g id="ytick_23">
     <g id="line2d_63">
      <g>
       <use style="stroke:#000000;stroke-width:0.6;" x="116.64" xlink:href="#m61310b8137" y="391.842844"/>
      </g>
     </g>
    </g>
    <g id="ytick_24">
     <g id="line2d_64">
      <g>
       <use style="stroke:#000000;stroke-width:0.6;" x="116.64" xlink:href="#m61310b8137" y="381.006268"/>
      </g>
     </g>
    </g>
    <g id="ytick_25">
     <g id="line2d_65">
      <g>
       <use style="stroke:#000000;stroke-width:0.6;" x="116.64" xlink:href="#m61310b8137" y="375.503687"/>
      </g>
     </g>
    </g>
    <g id="ytick_26">
     <g id="line2d_66">
      <g>
       <use style="stroke:#000000;stroke-width:0.6;" x="116.64" xlink:href="#m61310b8137" y="371.599544"/>
      </g>
     </g>
    </g>
    <g id="ytick_27">
     <g id="line2d_67">
      <g>
       <use style="stroke:#000000;stroke-width:0.6;" x="116.64" xlink:href="#m61310b8137" y="368.571255"/>
      </g>
     </g>
    </g>
    <g id="ytick_28">
     <g id="line2d_68">
      <g>
       <use style="stroke:#000000;stroke-width:0.6;" x="116.64" xlink:href="#m61310b8137" y="366.096963"/>
      </g>
     </g>
    </g>
    <g id="ytick_29">
     <g id="line2d_69">
      <g>
       <use style="stroke:#000000;stroke-width:0.6;" x="116.64" xlink:href="#m61310b8137" y="364.004979"/>
      </g>
     </g>
    </g>
    <g id="ytick_30">
     <g id="line2d_70">
      <g>
       <use style="stroke:#000000;stroke-width:0.6;" x="116.64" xlink:href="#m61310b8137" y="362.19282"/>
      </g>
     </g>
    </g>
    <g id="ytick_31">
     <g id="line2d_71">
      <g>
       <use style="stroke:#000000;stroke-width:0.6;" x="116.64" xlink:href="#m61310b8137" y="360.594382"/>
      </g>
     </g>
    </g>
    <g id="ytick_32">
     <g id="line2d_72">
      <g>
       <use style="stroke:#000000;stroke-width:0.6;" x="116.64" xlink:href="#m61310b8137" y="349.757807"/>
      </g>
     </g>
    </g>
    <g id="ytick_33">
     <g id="line2d_73">
      <g>
       <use style="stroke:#000000;stroke-width:0.6;" x="116.64" xlink:href="#m61310b8137" y="344.255226"/>
      </g>
     </g>
    </g>
    <g id="ytick_34">
     <g id="line2d_74">
      <g>
       <use style="stroke:#000000;stroke-width:0.6;" x="116.64" xlink:href="#m61310b8137" y="340.351082"/>
      </g>
     </g>
    </g>
    <g id="ytick_35">
     <g id="line2d_75">
      <g>
       <use style="stroke:#000000;stroke-width:0.6;" x="116.64" xlink:href="#m61310b8137" y="337.322793"/>
      </g>
     </g>
    </g>
    <g id="ytick_36">
     <g id="line2d_76">
      <g>
       <use style="stroke:#000000;stroke-width:0.6;" x="116.64" xlink:href="#m61310b8137" y="334.848501"/>
      </g>
     </g>
    </g>
    <g id="ytick_37">
     <g id="line2d_77">
      <g>
       <use style="stroke:#000000;stroke-width:0.6;" x="116.64" xlink:href="#m61310b8137" y="332.756517"/>
      </g>
     </g>
    </g>
    <g id="ytick_38">
     <g id="line2d_78">
      <g>
       <use style="stroke:#000000;stroke-width:0.6;" x="116.64" xlink:href="#m61310b8137" y="330.944358"/>
      </g>
     </g>
    </g>
    <g id="ytick_39">
     <g id="line2d_79">
      <g>
       <use style="stroke:#000000;stroke-width:0.6;" x="116.64" xlink:href="#m61310b8137" y="329.34592"/>
      </g>
     </g>
    </g>
    <g id="ytick_40">
     <g id="line2d_80">
      <g>
       <use style="stroke:#000000;stroke-width:0.6;" x="116.64" xlink:href="#m61310b8137" y="318.509345"/>
      </g>
     </g>
    </g>
    <g id="ytick_41">
     <g id="line2d_81">
      <g>
       <use style="stroke:#000000;stroke-width:0.6;" x="116.64" xlink:href="#m61310b8137" y="313.006764"/>
      </g>
     </g>
    </g>
    <g id="ytick_42">
     <g id="line2d_82">
      <g>
       <use style="stroke:#000000;stroke-width:0.6;" x="116.64" xlink:href="#m61310b8137" y="309.102621"/>
      </g>
     </g>
    </g>
    <g id="ytick_43">
     <g id="line2d_83">
      <g>
       <use style="stroke:#000000;stroke-width:0.6;" x="116.64" xlink:href="#m61310b8137" y="306.074332"/>
      </g>
     </g>
    </g>
    <g id="ytick_44">
     <g id="line2d_84">
      <g>
       <use style="stroke:#000000;stroke-width:0.6;" x="116.64" xlink:href="#m61310b8137" y="303.60004"/>
      </g>
     </g>
    </g>
    <g id="ytick_45">
     <g id="line2d_85">
      <g>
       <use style="stroke:#000000;stroke-width:0.6;" x="116.64" xlink:href="#m61310b8137" y="301.508055"/>
      </g>
     </g>
    </g>
    <g id="ytick_46">
     <g id="line2d_86">
      <g>
       <use style="stroke:#000000;stroke-width:0.6;" x="116.64" xlink:href="#m61310b8137" y="299.695896"/>
      </g>
     </g>
    </g>
    <g id="ytick_47">
     <g id="line2d_87">
      <g>
       <use style="stroke:#000000;stroke-width:0.6;" x="116.64" xlink:href="#m61310b8137" y="298.097459"/>
      </g>
     </g>
    </g>
    <g id="ytick_48">
     <g id="line2d_88">
      <g>
       <use style="stroke:#000000;stroke-width:0.6;" x="116.64" xlink:href="#m61310b8137" y="287.260883"/>
      </g>
     </g>
    </g>
    <g id="ytick_49">
     <g id="line2d_89">
      <g>
       <use style="stroke:#000000;stroke-width:0.6;" x="116.64" xlink:href="#m61310b8137" y="281.758302"/>
      </g>
     </g>
    </g>
    <g id="ytick_50">
     <g id="line2d_90">
      <g>
       <use style="stroke:#000000;stroke-width:0.6;" x="116.64" xlink:href="#m61310b8137" y="277.854159"/>
      </g>
     </g>
    </g>
    <g id="ytick_51">
     <g id="line2d_91">
      <g>
       <use style="stroke:#000000;stroke-width:0.6;" x="116.64" xlink:href="#m61310b8137" y="274.82587"/>
      </g>
     </g>
    </g>
    <g id="ytick_52">
     <g id="line2d_92">
      <g>
       <use style="stroke:#000000;stroke-width:0.6;" x="116.64" xlink:href="#m61310b8137" y="272.351578"/>
      </g>
     </g>
    </g>
    <g id="ytick_53">
     <g id="line2d_93">
      <g>
       <use style="stroke:#000000;stroke-width:0.6;" x="116.64" xlink:href="#m61310b8137" y="270.259594"/>
      </g>
     </g>
    </g>
    <g id="ytick_54">
     <g id="line2d_94">
      <g>
       <use style="stroke:#000000;stroke-width:0.6;" x="116.64" xlink:href="#m61310b8137" y="268.447434"/>
      </g>
     </g>
    </g>
    <g id="ytick_55">
     <g id="line2d_95">
      <g>
       <use style="stroke:#000000;stroke-width:0.6;" x="116.64" xlink:href="#m61310b8137" y="266.848997"/>
      </g>
     </g>
    </g>
    <g id="text_35">
     <!-- No. cases -->
     <g transform="translate(85.960313 368.992563)rotate(-90)scale(0.1 -0.1)">
      <use xlink:href="#DejaVuSans-78"/>
      <use x="74.804688" xlink:href="#DejaVuSans-111"/>
      <use x="135.970703" xlink:href="#DejaVuSans-46"/>
      <use x="167.757812" xlink:href="#DejaVuSans-32"/>
      <use x="199.544922" xlink:href="#DejaVuSans-99"/>
      <use x="254.525391" xlink:href="#DejaVuSans-97"/>
      <use x="315.804688" xlink:href="#DejaVuSans-115"/>
      <use x="367.904297" xlink:href="#DejaVuSans-101"/>
      <use x="429.427734" xlink:href="#DejaVuSans-115"/>
     </g>
    </g>
   </g>
   <g id="line2d_96">
    <path clip-path="url(#pdeb5686ad2)" d="M 149.511273 421.661455 
L 157.432061 421.661455 
L 165.35285 412.25473 
L 173.273639 406.752149 
L 181.194427 406.752149 
L 189.115216 406.752149 
L 197.036004 402.848006 
L 204.956793 402.848006 
L 212.877582 402.848006 
L 220.79837 402.848006 
L 228.719159 399.819717 
L 236.639947 399.819717 
L 244.560736 395.253441 
L 252.481525 395.253441 
L 260.402313 395.253441 
L 268.323102 395.253441 
L 276.24389 395.253441 
L 284.164679 395.253441 
L 292.085468 395.253441 
L 300.006256 395.253441 
L 307.927045 393.441282 
L 315.847834 393.441282 
L 323.768622 393.441282 
L 331.689411 393.441282 
L 339.610199 393.441282 
L 347.530988 393.441282 
L 355.451777 391.842844 
L 363.372565 391.842844 
L 371.293354 391.842844 
L 379.214142 391.842844 
L 387.134931 389.119535 
L 395.05572 389.119535 
L 402.976508 387.938701 
L 410.897297 385.846716 
L 418.818085 384.034557 
L 426.738874 381.006268 
L 434.659663 378.531976 
L 442.580451 376.933539 
L 450.50124 375.503687 
L 458.422028 374.21023 
L 466.342817 370.001106 
L 474.263606 368.302513 
L 482.184394 366.793066 
L 490.105183 365.651971 
L 498.025972 362.711521 
L 505.94676 360.14939 
L 513.867549 358.763387 
L 521.788337 354.793525 
L 529.709126 351.492638 
L 537.629915 347.059195 
L 545.550703 344.075474 
L 553.471492 339.560313 
L 561.39228 336.054033 
L 569.313069 330.792536 
L 577.233858 327.807933 
" style="fill:none;stroke:#1f77b4;stroke-linecap:square;stroke-width:1.5;"/>
   </g>
   <g id="line2d_97">
    <path clip-path="url(#pdeb5686ad2)" d="M 149.511273 376.933539 
L 157.432061 376.933539 
L 165.35285 376.933539 
L 173.273639 370.306086 
L 181.194427 370.306086 
L 189.115216 366.325053 
L 197.036004 366.325053 
L 204.956793 366.325053 
L 212.877582 366.325053 
L 220.79837 366.325053 
L 228.719159 366.325053 
L 236.639947 366.325053 
L 244.560736 366.325053 
L 252.481525 366.325053 
L 260.402313 366.325053 
L 268.323102 366.325053 
L 276.24389 366.325053 
L 284.164679 365.43483 
L 292.085468 362.19282 
L 300.006256 348.713366 
L 307.927045 347.569231 
L 315.847834 340.83458 
L 323.768622 336.634835 
L 331.689411 334.338002 
L 339.610199 329.620092 
L 347.530988 324.117511 
L 355.451777 318.591016 
L 363.372565 314.064783 
L 371.293354 307.420003 
L 379.214142 303.613617 
L 387.134931 300.154805 
L 395.05572 297.061397 
L 402.976508 294.411058 
L 410.897297 291.719966 
L 418.818085 289.299029 
L 426.738874 286.960247 
L 434.659663 284.606839 
L 442.580451 282.671846 
L 450.50124 281.222992 
L 458.422028 279.812506 
L 466.342817 278.827349 
L 474.263606 277.784447 
L 482.184394 276.968977 
L 490.105183 276.339213 
L 498.025972 272.382147 
L 505.94676 271.471271 
L 513.867549 270.943662 
L 521.788337 270.540493 
L 529.709126 270.140307 
L 537.629915 269.781871 
L 545.550703 269.45822 
L 553.471492 269.386405 
L 561.39228 269.225389 
L 569.313069 269.077806 
L 577.233858 268.963316 
L 585.154646 268.924957 
L 593.075435 268.834765 
L 600.996223 268.763387 
L 608.917012 268.687375 
L 616.837801 268.630688 
L 624.758589 268.557294 
L 632.679378 268.459484 
L 640.600166 268.424722 
L 648.520955 268.403231 
L 656.441744 268.383125 
L 664.362532 268.363385 
L 672.283321 268.334755 
L 680.20411 268.317774 
L 688.124898 268.310047 
L 696.045687 268.302492 
L 703.966475 268.299136 
L 711.887264 268.294271 
L 719.808053 268.290246 
L 727.728841 268.286557 
L 735.64963 268.283372 
L 743.570418 268.279686 
L 751.491207 268.275498 
L 759.411996 268.257085 
L 767.332784 268.251566 
L 775.253573 268.239031 
L 783.174361 268.222503 
L 791.09515 268.209328 
L 799.015939 268.1955 
L 806.936727 268.170545 
" style="fill:none;stroke:#ff7f0e;stroke-linecap:square;stroke-width:1.5;"/>
   </g>
   <g id="line2d_98">
    <path clip-path="url(#pdeb5686ad2)" d="M 149.511273 406.752149 
L 157.432061 399.819717 
L 165.35285 399.819717 
L 173.273639 393.441282 
L 181.194427 387.938701 
L 189.115216 381.702372 
L 197.036004 377.445714 
L 204.956793 374.627833 
L 212.877582 371.599544 
L 220.79837 365.43483 
L 228.719159 360.004244 
L 236.639947 357.150318 
L 244.560736 353.66195 
L 252.481525 348.839609 
L 260.402313 344.346002 
L 268.323102 342.397905 
L 276.24389 339.243958 
L 284.164679 336.738432 
L 292.085468 332.873342 
L 300.006256 329.285738 
L 307.927045 327.984095 
L 315.847834 325.843486 
" style="fill:none;stroke:#2ca02c;stroke-linecap:square;stroke-width:1.5;"/>
   </g>
   <g id="line2d_99">
    <path clip-path="url(#pdeb5686ad2)" d="M 149.511273 421.661455 
L 157.432061 421.661455 
L 165.35285 412.25473 
L 173.273639 406.752149 
L 181.194427 402.848006 
L 189.115216 399.819717 
L 197.036004 393.441282 
L 204.956793 390.412993 
L 212.877582 381.006268 
L 220.79837 379.109554 
L 228.719159 375.058696 
L 236.639947 372.295647 
L 244.560736 357.505911 
L 252.481525 345.990057 
L 260.402313 336.895324 
L 268.323102 333.229973 
L 276.24389 330.876672 
L 284.164679 330.493895 
L 292.085468 329.728228 
L 300.006256 328.871775 
L 307.927045 327.594211 
L 315.847834 326.438802 
L 323.768622 326.007559 
L 331.689411 324.833604 
L 339.610199 324.086773 
L 347.530988 323.398348 
" style="fill:none;stroke:#d62728;stroke-linecap:square;stroke-width:1.5;"/>
   </g>
   <g id="line2d_100">
    <path clip-path="url(#pdeb5686ad2)" d="M 149.511273 406.752149 
L 157.432061 406.752149 
L 165.35285 406.752149 
L 173.273639 406.752149 
L 181.194427 402.848006 
L 189.115216 399.819717 
L 197.036004 397.345425 
L 204.956793 397.345425 
L 212.877582 397.345425 
L 220.79837 397.345425 
L 228.719159 397.345425 
L 236.639947 397.345425 
L 244.560736 397.345425 
L 252.481525 397.345425 
L 260.402313 389.119535 
L 268.323102 389.119535 
L 276.24389 389.119535 
L 284.164679 389.119535 
L 292.085468 389.119535 
L 300.006256 389.119535 
L 307.927045 389.119535 
L 315.847834 389.119535 
L 323.768622 389.119535 
L 331.689411 387.938701 
L 339.610199 387.938701 
L 347.530988 387.938701 
L 355.451777 387.938701 
L 363.372565 387.938701 
L 371.293354 387.938701 
L 379.214142 387.938701 
L 387.134931 387.938701 
L 395.05572 387.938701 
L 402.976508 385.846716 
L 410.897297 383.211818 
L 418.818085 372.295647 
L 426.738874 366.793066 
L 434.659663 359.164531 
L 442.580451 355.603976 
L 450.50124 351.339291 
L 458.422028 348.967037 
L 466.342817 344.951329 
L 474.263606 339.592358 
L 482.184394 334.557602 
L 490.105183 332.449814 
L 498.025972 326.305574 
L 505.94676 323.233965 
L 513.867549 320.060367 
L 521.788337 316.725205 
L 529.709126 313.579622 
L 537.629915 310.304445 
L 545.550703 307.507199 
L 553.471492 304.972211 
L 561.39228 302.238896 
L 569.313069 300.161826 
L 577.233858 297.89689 
L 585.154646 295.38032 
L 593.075435 293.518264 
L 600.996223 291.663533 
L 608.917012 290.273913 
" style="fill:none;stroke:#9467bd;stroke-linecap:square;stroke-width:1.5;"/>
   </g>
   <g id="line2d_101">
    <path clip-path="url(#pdeb5686ad2)" d="M 149.511273 421.661455 
L 157.432061 402.848006 
L 165.35285 402.848006 
L 173.273639 399.819717 
L 181.194427 395.253441 
L 189.115216 393.441282 
L 197.036004 391.842844 
L 204.956793 389.119535 
L 212.877582 389.119535 
L 220.79837 389.119535 
L 228.719159 387.938701 
L 236.639947 386.852438 
L 244.560736 386.852438 
L 252.481525 386.852438 
L 260.402313 386.852438 
L 268.323102 384.910412 
L 276.24389 384.910412 
L 284.164679 384.910412 
L 292.085468 384.910412 
L 300.006256 384.910412 
L 307.927045 384.910412 
L 315.847834 384.910412 
L 323.768622 384.910412 
L 331.689411 384.910412 
L 339.610199 384.910412 
L 347.530988 384.910412 
L 355.451777 384.910412 
L 363.372565 384.910412 
L 371.293354 384.910412 
L 379.214142 383.211818 
L 387.134931 380.344135 
L 395.05572 369.410969 
L 402.976508 366.793066 
L 410.897297 357.748258 
L 418.818085 355.708773 
L 426.738874 353.042968 
L 434.659663 350.031978 
L 442.580451 346.093259 
L 450.50124 340.351082 
L 458.422028 333.070312 
L 466.342817 330.169602 
L 474.263606 329.315796 
L 482.184394 326.14979 
L 490.105183 324.397336 
L 498.025972 321.820463 
L 505.94676 316.211487 
L 513.867549 312.729155 
L 521.788337 309.816592 
L 529.709126 306.521314 
L 537.629915 303.572925 
L 545.550703 301.208936 
L 553.471492 299.364102 
L 561.39228 291.968214 
L 569.313069 288.550474 
L 577.233858 286.302792 
L 585.154646 284.355834 
" style="fill:none;stroke:#8c564b;stroke-linecap:square;stroke-width:1.5;"/>
   </g>
   <g id="line2d_102">
    <path clip-path="url(#pdeb5686ad2)" d="M 149.511273 412.25473 
L 157.432061 399.819717 
L 165.35285 382.43612 
L 173.273639 376.439992 
L 181.194427 370.618078 
L 189.115216 365.872643 
L 197.036004 359.860634 
L 204.956793 354.695538 
L 212.877582 347.003689 
L 220.79837 340.764445 
L 228.719159 335.007761 
L 236.639947 328.217965 
L 244.560736 322.404444 
L 252.481525 316.40186 
L 260.402313 313.364279 
L 268.323102 310.864466 
L 276.24389 306.779009 
L 284.164679 304.006409 
L 292.085468 302.376674 
L 300.006256 301.199457 
L 307.927045 299.624835 
L 315.847834 298.097459 
L 323.768622 296.566204 
L 331.689411 294.932342 
L 339.610199 293.392947 
L 347.530988 292.161565 
L 355.451777 291.173171 
L 363.372565 290.14658 
L 371.293354 289.181265 
L 379.214142 288.387296 
L 387.134931 287.504623 
L 395.05572 286.853153 
L 402.976508 286.192588 
" style="fill:none;stroke:#e377c2;stroke-linecap:square;stroke-width:1.5;"/>
   </g>
   <g id="line2d_103">
    <path clip-path="url(#pdeb5686ad2)" d="M 149.511273 406.752149 
L 157.432061 406.752149 
L 165.35285 406.752149 
L 173.273639 406.752149 
L 181.194427 406.752149 
L 189.115216 406.752149 
L 197.036004 406.752149 
L 204.956793 406.752149 
L 212.877582 406.752149 
L 220.79837 406.752149 
L 228.719159 406.752149 
L 236.639947 406.752149 
L 244.560736 406.752149 
L 252.481525 406.752149 
L 260.402313 406.752149 
L 268.323102 406.752149 
L 276.24389 406.752149 
L 284.164679 406.752149 
L 292.085468 406.752149 
L 300.006256 406.752149 
L 307.927045 406.752149 
L 315.847834 406.752149 
L 323.768622 383.211818 
L 331.689411 362.363527 
L 339.610199 355.396781 
L 347.530988 347.920226 
L 355.451777 343.294816 
L 363.372565 340.351082 
L 371.293354 333.762239 
L 379.214142 329.528085 
L 387.134931 326.28149 
L 395.05572 320.802993 
L 402.976508 319.677848 
L 410.897297 315.470204 
L 418.818085 312.610013 
L 426.738874 309.593152 
L 434.659663 307.100112 
L 442.580451 303.867289 
L 450.50124 300.799841 
L 458.422028 297.840548 
L 466.342817 296.466891 
L 474.263606 293.680637 
L 482.184394 291.063174 
L 490.105183 288.949528 
L 498.025972 288.880542 
L 505.94676 284.797905 
L 513.867549 282.704304 
L 521.788337 281.093584 
L 529.709126 279.392635 
L 537.629915 277.507474 
L 545.550703 275.659521 
L 553.471492 273.887901 
L 561.39228 272.547962 
" style="fill:none;stroke:#7f7f7f;stroke-linecap:square;stroke-width:1.5;"/>
   </g>
   <g id="line2d_104">
    <path clip-path="url(#pdeb5686ad2)" d="M 149.511273 421.661455 
L 157.432061 406.752149 
L 165.35285 399.819717 
L 173.273639 395.253441 
L 181.194427 390.412993 
L 189.115216 380.344135 
L 197.036004 375.503687 
L 204.956793 370.306086 
L 212.877582 365.872643 
L 220.79837 361.530687 
L 228.719159 359.577894 
L 236.639947 358.246333 
L 244.560736 356.355135 
L 252.481525 354.892224 
L 260.402313 351.339291 
L 268.323102 350.815825 
" style="fill:none;stroke:#bcbd22;stroke-linecap:square;stroke-width:1.5;"/>
   </g>
   <g id="line2d_105">
    <path clip-path="url(#pdeb5686ad2)" d="M 149.511273 421.661455 
L 157.432061 421.661455 
L 165.35285 421.661455 
L 173.273639 421.661455 
L 181.194427 406.752149 
L 189.115216 406.752149 
L 197.036004 399.819717 
L 204.956793 395.253441 
L 212.877582 393.441282 
L 220.79837 393.441282 
L 228.719159 391.842844 
L 236.639947 390.412993 
L 244.560736 390.412993 
L 252.481525 390.412993 
L 260.402313 390.412993 
L 268.323102 389.119535 
L 276.24389 389.119535 
L 284.164679 384.034557 
L 292.085468 383.211818 
L 300.006256 382.43612 
L 307.927045 382.43612 
L 315.847834 382.43612 
L 323.768622 382.43612 
L 331.689411 382.43612 
L 339.610199 382.43612 
L 347.530988 382.43612 
L 355.451777 382.43612 
L 363.372565 381.006268 
L 371.293354 379.712811 
L 379.214142 379.712811 
L 387.134931 378.531976 
L 395.05572 378.531976 
L 402.976508 377.445714 
L 410.897297 377.445714 
L 418.818085 376.439992 
L 426.738874 375.503687 
L 434.659663 375.058696 
L 442.580451 374.627833 
L 450.50124 373.805094 
L 458.422028 371.943133 
L 466.342817 371.599544 
L 474.263606 371.599544 
L 482.184394 371.26444 
L 490.105183 370.937411 
L 498.025972 370.306086 
L 505.94676 370.001106 
L 513.867549 370.001106 
L 521.788337 370.001106 
L 529.709126 369.125252 
L 537.629915 369.125252 
L 545.550703 368.845427 
L 553.471492 367.780486 
L 561.39228 366.325053 
L 569.313069 366.325053 
L 577.233858 364.599426 
L 585.154646 362.711521 
L 593.075435 358.12009 
L 600.996223 358.12009 
L 608.917012 355.091801 
L 616.837801 353.393208 
L 624.758589 352.368492 
" style="fill:none;stroke:#17becf;stroke-linecap:square;stroke-width:1.5;"/>
   </g>
   <g id="patch_9">
    <path d="M 116.64 429.336 
L 116.64 260.496 
" style="fill:none;stroke:#000000;stroke-linecap:square;stroke-linejoin:miter;stroke-width:0.8;"/>
   </g>
   <g id="patch_10">
    <path d="M 839.808 429.336 
L 839.808 260.496 
" style="fill:none;stroke:#000000;stroke-linecap:square;stroke-linejoin:miter;stroke-width:0.8;"/>
   </g>
   <g id="patch_11">
    <path d="M 116.64 429.336 
L 839.808 429.336 
" style="fill:none;stroke:#000000;stroke-linecap:square;stroke-linejoin:miter;stroke-width:0.8;"/>
   </g>
   <g id="patch_12">
    <path d="M 116.64 260.496 
L 839.808 260.496 
" style="fill:none;stroke:#000000;stroke-linecap:square;stroke-linejoin:miter;stroke-width:0.8;"/>
   </g>
   <g id="text_36">
    <!-- Log scale -->
    <defs>
     <path d="M 9.8125 72.90625 
L 19.671875 72.90625 
L 19.671875 8.296875 
L 55.171875 8.296875 
L 55.171875 0 
L 9.8125 0 
z
" id="DejaVuSans-76"/>
     <path d="M 45.40625 27.984375 
Q 45.40625 37.75 41.375 43.109375 
Q 37.359375 48.484375 30.078125 48.484375 
Q 22.859375 48.484375 18.828125 43.109375 
Q 14.796875 37.75 14.796875 27.984375 
Q 14.796875 18.265625 18.828125 12.890625 
Q 22.859375 7.515625 30.078125 7.515625 
Q 37.359375 7.515625 41.375 12.890625 
Q 45.40625 18.265625 45.40625 27.984375 
z
M 54.390625 6.78125 
Q 54.390625 -7.171875 48.1875 -13.984375 
Q 42 -20.796875 29.203125 -20.796875 
Q 24.46875 -20.796875 20.265625 -20.09375 
Q 16.0625 -19.390625 12.109375 -17.921875 
L 12.109375 -9.1875 
Q 16.0625 -11.328125 19.921875 -12.34375 
Q 23.78125 -13.375 27.78125 -13.375 
Q 36.625 -13.375 41.015625 -8.765625 
Q 45.40625 -4.15625 45.40625 5.171875 
L 45.40625 9.625 
Q 42.625 4.78125 38.28125 2.390625 
Q 33.9375 0 27.875 0 
Q 17.828125 0 11.671875 7.65625 
Q 5.515625 15.328125 5.515625 27.984375 
Q 5.515625 40.671875 11.671875 48.328125 
Q 17.828125 56 27.875 56 
Q 33.9375 56 38.28125 53.609375 
Q 42.625 51.21875 45.40625 46.390625 
L 45.40625 54.6875 
L 54.390625 54.6875 
z
" id="DejaVuSans-103"/>
    </defs>
    <g transform="translate(450.034313 254.496)scale(0.12 -0.12)">
     <use xlink:href="#DejaVuSans-76"/>
     <use x="55.697266" xlink:href="#DejaVuSans-111"/>
     <use x="116.878906" xlink:href="#DejaVuSans-103"/>
     <use x="180.355469" xlink:href="#DejaVuSans-32"/>
     <use x="212.142578" xlink:href="#DejaVuSans-115"/>
     <use x="264.242188" xlink:href="#DejaVuSans-99"/>
     <use x="319.222656" xlink:href="#DejaVuSans-97"/>
     <use x="380.501953" xlink:href="#DejaVuSans-108"/>
     <use x="408.285156" xlink:href="#DejaVuSans-101"/>
    </g>
   </g>
   <g id="legend_2">
    <g id="patch_13">
     <path d="M 724.225188 424.336 
L 832.808 424.336 
Q 834.808 424.336 834.808 422.336 
L 834.808 276.55475 
Q 834.808 274.55475 832.808 274.55475 
L 724.225188 274.55475 
Q 722.225188 274.55475 722.225188 276.55475 
L 722.225188 422.336 
Q 722.225188 424.336 724.225188 424.336 
z
" style="fill:#ffffff;opacity:0.8;stroke:#cccccc;stroke-linejoin:miter;"/>
    </g>
    <g id="line2d_106">
     <path d="M 726.225188 282.653188 
L 746.225188 282.653188 
" style="fill:none;stroke:#1f77b4;stroke-linecap:square;stroke-width:1.5;"/>
    </g>
    <g id="line2d_107"/>
    <g id="text_37">
     <!-- Canada -->
     <g transform="translate(754.225188 286.153188)scale(0.1 -0.1)">
      <use xlink:href="#DejaVuSans-67"/>
      <use x="69.824219" xlink:href="#DejaVuSans-97"/>
      <use x="131.103516" xlink:href="#DejaVuSans-110"/>
      <use x="194.482422" xlink:href="#DejaVuSans-97"/>
      <use x="255.761719" xlink:href="#DejaVuSans-100"/>
      <use x="319.238281" xlink:href="#DejaVuSans-97"/>
     </g>
    </g>
    <g id="line2d_108">
     <path d="M 726.225188 297.331313 
L 746.225188 297.331313 
" style="fill:none;stroke:#ff7f0e;stroke-linecap:square;stroke-width:1.5;"/>
    </g>
    <g id="line2d_109"/>
    <g id="text_38">
     <!-- China -->
     <g transform="translate(754.225188 300.831313)scale(0.1 -0.1)">
      <use xlink:href="#DejaVuSans-67"/>
      <use x="69.824219" xlink:href="#DejaVuSans-104"/>
      <use x="133.203125" xlink:href="#DejaVuSans-105"/>
      <use x="160.986328" xlink:href="#DejaVuSans-110"/>
      <use x="224.365234" xlink:href="#DejaVuSans-97"/>
     </g>
    </g>
    <g id="line2d_110">
     <path d="M 726.225188 312.009438 
L 746.225188 312.009438 
" style="fill:none;stroke:#2ca02c;stroke-linecap:square;stroke-width:1.5;"/>
    </g>
    <g id="line2d_111"/>
    <g id="text_39">
     <!-- Czech Republic -->
     <g transform="translate(754.225188 315.509438)scale(0.1 -0.1)">
      <use xlink:href="#DejaVuSans-67"/>
      <use x="69.824219" xlink:href="#DejaVuSans-122"/>
      <use x="122.314453" xlink:href="#DejaVuSans-101"/>
      <use x="183.837891" xlink:href="#DejaVuSans-99"/>
      <use x="238.818359" xlink:href="#DejaVuSans-104"/>
      <use x="302.197266" xlink:href="#DejaVuSans-32"/>
      <use x="333.984375" xlink:href="#DejaVuSans-82"/>
      <use x="403.404297" xlink:href="#DejaVuSans-101"/>
      <use x="464.927734" xlink:href="#DejaVuSans-112"/>
      <use x="528.404297" xlink:href="#DejaVuSans-117"/>
      <use x="591.783203" xlink:href="#DejaVuSans-98"/>
      <use x="655.259766" xlink:href="#DejaVuSans-108"/>
      <use x="683.042969" xlink:href="#DejaVuSans-105"/>
      <use x="710.826172" xlink:href="#DejaVuSans-99"/>
     </g>
    </g>
    <g id="line2d_112">
     <path d="M 726.225188 326.687563 
L 746.225188 326.687563 
" style="fill:none;stroke:#d62728;stroke-linecap:square;stroke-width:1.5;"/>
    </g>
    <g id="line2d_113"/>
    <g id="text_40">
     <!-- Denmark -->
     <g transform="translate(754.225188 330.187563)scale(0.1 -0.1)">
      <use xlink:href="#DejaVuSans-68"/>
      <use x="77.001953" xlink:href="#DejaVuSans-101"/>
      <use x="138.525391" xlink:href="#DejaVuSans-110"/>
      <use x="201.904297" xlink:href="#DejaVuSans-109"/>
      <use x="299.316406" xlink:href="#DejaVuSans-97"/>
      <use x="360.595703" xlink:href="#DejaVuSans-114"/>
      <use x="401.708984" xlink:href="#DejaVuSans-107"/>
     </g>
    </g>
    <g id="line2d_114">
     <path d="M 726.225188 341.365688 
L 746.225188 341.365688 
" style="fill:none;stroke:#9467bd;stroke-linecap:square;stroke-width:1.5;"/>
    </g>
    <g id="line2d_115"/>
    <g id="text_41">
     <!-- France -->
     <g transform="translate(754.225188 344.865688)scale(0.1 -0.1)">
      <use xlink:href="#DejaVuSans-70"/>
      <use x="57.410156" xlink:href="#DejaVuSans-114"/>
      <use x="98.523438" xlink:href="#DejaVuSans-97"/>
      <use x="159.802734" xlink:href="#DejaVuSans-110"/>
      <use x="223.181641" xlink:href="#DejaVuSans-99"/>
      <use x="278.162109" xlink:href="#DejaVuSans-101"/>
     </g>
    </g>
    <g id="line2d_116">
     <path d="M 726.225188 356.043813 
L 746.225188 356.043813 
" style="fill:none;stroke:#8c564b;stroke-linecap:square;stroke-width:1.5;"/>
    </g>
    <g id="line2d_117"/>
    <g id="text_42">
     <!-- Germany -->
     <g transform="translate(754.225188 359.543813)scale(0.1 -0.1)">
      <use xlink:href="#DejaVuSans-71"/>
      <use x="77.490234" xlink:href="#DejaVuSans-101"/>
      <use x="139.013672" xlink:href="#DejaVuSans-114"/>
      <use x="180.111328" xlink:href="#DejaVuSans-109"/>
      <use x="277.523438" xlink:href="#DejaVuSans-97"/>
      <use x="338.802734" xlink:href="#DejaVuSans-110"/>
      <use x="402.181641" xlink:href="#DejaVuSans-121"/>
     </g>
    </g>
    <g id="line2d_118">
     <path d="M 726.225188 370.721938 
L 746.225188 370.721938 
" style="fill:none;stroke:#e377c2;stroke-linecap:square;stroke-width:1.5;"/>
    </g>
    <g id="line2d_119"/>
    <g id="text_43">
     <!-- Iran -->
     <g transform="translate(754.225188 374.221938)scale(0.1 -0.1)">
      <use xlink:href="#DejaVuSans-73"/>
      <use x="29.492188" xlink:href="#DejaVuSans-114"/>
      <use x="70.605469" xlink:href="#DejaVuSans-97"/>
      <use x="131.884766" xlink:href="#DejaVuSans-110"/>
     </g>
    </g>
    <g id="line2d_120">
     <path d="M 726.225188 385.400063 
L 746.225188 385.400063 
" style="fill:none;stroke:#7f7f7f;stroke-linecap:square;stroke-width:1.5;"/>
    </g>
    <g id="line2d_121"/>
    <g id="text_44">
     <!-- Italy -->
     <g transform="translate(754.225188 388.900063)scale(0.1 -0.1)">
      <use xlink:href="#DejaVuSans-73"/>
      <use x="29.492188" xlink:href="#DejaVuSans-116"/>
      <use x="68.701172" xlink:href="#DejaVuSans-97"/>
      <use x="129.980469" xlink:href="#DejaVuSans-108"/>
      <use x="157.763672" xlink:href="#DejaVuSans-121"/>
     </g>
    </g>
    <g id="line2d_122">
     <path d="M 726.225188 400.078188 
L 746.225188 400.078188 
" style="fill:none;stroke:#bcbd22;stroke-linecap:square;stroke-width:1.5;"/>
    </g>
    <g id="line2d_123"/>
    <g id="text_45">
     <!-- Slovakia -->
     <g transform="translate(754.225188 403.578188)scale(0.1 -0.1)">
      <use xlink:href="#DejaVuSans-83"/>
      <use x="63.476562" xlink:href="#DejaVuSans-108"/>
      <use x="91.259766" xlink:href="#DejaVuSans-111"/>
      <use x="152.441406" xlink:href="#DejaVuSans-118"/>
      <use x="211.621094" xlink:href="#DejaVuSans-97"/>
      <use x="272.900391" xlink:href="#DejaVuSans-107"/>
      <use x="330.810547" xlink:href="#DejaVuSans-105"/>
      <use x="358.59375" xlink:href="#DejaVuSans-97"/>
     </g>
    </g>
    <g id="line2d_124">
     <path d="M 726.225188 414.756313 
L 746.225188 414.756313 
" style="fill:none;stroke:#17becf;stroke-linecap:square;stroke-width:1.5;"/>
    </g>
    <g id="line2d_125"/>
    <g id="text_46">
     <!-- Taiwan -->
     <g transform="translate(754.225188 418.256313)scale(0.1 -0.1)">
      <use xlink:href="#DejaVuSans-84"/>
      <use x="60.833984" xlink:href="#DejaVuSans-97"/>
      <use x="122.113281" xlink:href="#DejaVuSans-105"/>
      <use x="149.896484" xlink:href="#DejaVuSans-119"/>
      <use x="231.683594" xlink:href="#DejaVuSans-97"/>
      <use x="292.962891" xlink:href="#DejaVuSans-110"/>
     </g>
    </g>
   </g>
  </g>
  <g id="text_47">
   <!-- https://github.com/PavelDusek/COVID-19 -->
   <defs>
    <path d="M 11.71875 12.40625 
L 22.015625 12.40625 
L 22.015625 0 
L 11.71875 0 
z
M 11.71875 51.703125 
L 22.015625 51.703125 
L 22.015625 39.3125 
L 11.71875 39.3125 
z
" id="DejaVuSans-58"/>
    <path d="M 25.390625 72.90625 
L 33.6875 72.90625 
L 8.296875 -9.28125 
L 0 -9.28125 
z
" id="DejaVuSans-47"/>
    <path d="M 19.671875 64.796875 
L 19.671875 37.40625 
L 32.078125 37.40625 
Q 38.96875 37.40625 42.71875 40.96875 
Q 46.484375 44.53125 46.484375 51.125 
Q 46.484375 57.671875 42.71875 61.234375 
Q 38.96875 64.796875 32.078125 64.796875 
z
M 9.8125 72.90625 
L 32.078125 72.90625 
Q 44.34375 72.90625 50.609375 67.359375 
Q 56.890625 61.8125 56.890625 51.125 
Q 56.890625 40.328125 50.609375 34.8125 
Q 44.34375 29.296875 32.078125 29.296875 
L 19.671875 29.296875 
L 19.671875 0 
L 9.8125 0 
z
" id="DejaVuSans-80"/>
   </defs>
   <g transform="translate(342.927188 18.766125)scale(0.12 -0.12)">
    <use xlink:href="#DejaVuSans-104"/>
    <use x="63.378906" xlink:href="#DejaVuSans-116"/>
    <use x="102.587891" xlink:href="#DejaVuSans-116"/>
    <use x="141.796875" xlink:href="#DejaVuSans-112"/>
    <use x="205.273438" xlink:href="#DejaVuSans-115"/>
    <use x="257.373047" xlink:href="#DejaVuSans-58"/>
    <use x="291.064453" xlink:href="#DejaVuSans-47"/>
    <use x="324.755859" xlink:href="#DejaVuSans-47"/>
    <use x="358.447266" xlink:href="#DejaVuSans-103"/>
    <use x="421.923828" xlink:href="#DejaVuSans-105"/>
    <use x="449.707031" xlink:href="#DejaVuSans-116"/>
    <use x="488.916016" xlink:href="#DejaVuSans-104"/>
    <use x="552.294922" xlink:href="#DejaVuSans-117"/>
    <use x="615.673828" xlink:href="#DejaVuSans-98"/>
    <use x="679.150391" xlink:href="#DejaVuSans-46"/>
    <use x="710.9375" xlink:href="#DejaVuSans-99"/>
    <use x="765.917969" xlink:href="#DejaVuSans-111"/>
    <use x="827.099609" xlink:href="#DejaVuSans-109"/>
    <use x="924.511719" xlink:href="#DejaVuSans-47"/>
    <use x="958.203125" xlink:href="#DejaVuSans-80"/>
    <use x="1018.443359" xlink:href="#DejaVuSans-97"/>
    <use x="1079.722656" xlink:href="#DejaVuSans-118"/>
    <use x="1138.902344" xlink:href="#DejaVuSans-101"/>
    <use x="1200.425781" xlink:href="#DejaVuSans-108"/>
    <use x="1228.208984" xlink:href="#DejaVuSans-68"/>
    <use x="1305.210938" xlink:href="#DejaVuSans-117"/>
    <use x="1368.589844" xlink:href="#DejaVuSans-115"/>
    <use x="1420.689453" xlink:href="#DejaVuSans-101"/>
    <use x="1482.212891" xlink:href="#DejaVuSans-107"/>
    <use x="1540.123047" xlink:href="#DejaVuSans-47"/>
    <use x="1573.814453" xlink:href="#DejaVuSans-67"/>
    <use x="1643.638672" xlink:href="#DejaVuSans-79"/>
    <use x="1722.333984" xlink:href="#DejaVuSans-86"/>
    <use x="1790.742188" xlink:href="#DejaVuSans-73"/>
    <use x="1820.234375" xlink:href="#DejaVuSans-68"/>
    <use x="1897.236328" xlink:href="#DejaVuSans-45"/>
    <use x="1933.320312" xlink:href="#DejaVuSans-49"/>
    <use x="1996.943359" xlink:href="#DejaVuSans-57"/>
   </g>
  </g>
 </g>
 <defs>
  <clipPath id="pc25cf858a3">
   <rect height="168.84" width="723.168" x="116.64" y="57.888"/>
  </clipPath>
  <clipPath id="pdeb5686ad2">
   <rect height="168.84" width="723.168" x="116.64" y="260.496"/>
  </clipPath>
 </defs>
</svg>
