<?xml version="1.0" encoding="utf-8" standalone="no"?>
<!DOCTYPE svg PUBLIC "-//W3C//DTD SVG 1.1//EN"
  "http://www.w3.org/Graphics/SVG/1.1/DTD/svg11.dtd">
<!-- Created with matplotlib (https://matplotlib.org/) -->
<svg height="482.4pt" version="1.1" viewBox="0 0 933.12 482.4" width="933.12pt" xmlns="http://www.w3.org/2000/svg" xmlns:xlink="http://www.w3.org/1999/xlink">
 <defs>
  <style type="text/css">
*{stroke-linecap:butt;stroke-linejoin:round;}
  </style>
 </defs>
 <g id="figure_1">
  <g id="patch_1">
   <path d="M 0 482.4 
L 933.12 482.4 
L 933.12 0 
L 0 0 
z
" style="fill:#ffffff;"/>
  </g>
  <g id="axes_1">
   <g id="patch_2">
    <path d="M 116.64 429.336 
L 839.808 429.336 
L 839.808 57.888 
L 116.64 57.888 
z
" style="fill:#ffffff;"/>
   </g>
   <g id="matplotlib.axis_1">
    <g id="xtick_1">
     <g id="line2d_1">
      <defs>
       <path d="M 0 0 
L 0 3.5 
" id="m7f5d7e8c55" style="stroke:#000000;stroke-width:0.8;"/>
      </defs>
      <g>
       <use style="stroke:#000000;stroke-width:0.8;" x="208.767543" xlink:href="#m7f5d7e8c55" y="429.336"/>
      </g>
     </g>
     <g id="text_1">
      <!-- $\mathdefault{10^{1}}$ -->
      <defs>
       <path d="M 12.40625 8.296875 
L 28.515625 8.296875 
L 28.515625 63.921875 
L 10.984375 60.40625 
L 10.984375 69.390625 
L 28.421875 72.90625 
L 38.28125 72.90625 
L 38.28125 8.296875 
L 54.390625 8.296875 
L 54.390625 0 
L 12.40625 0 
z
" id="DejaVuSans-49"/>
       <path d="M 31.78125 66.40625 
Q 24.171875 66.40625 20.328125 58.90625 
Q 16.5 51.421875 16.5 36.375 
Q 16.5 21.390625 20.328125 13.890625 
Q 24.171875 6.390625 31.78125 6.390625 
Q 39.453125 6.390625 43.28125 13.890625 
Q 47.125 21.390625 47.125 36.375 
Q 47.125 51.421875 43.28125 58.90625 
Q 39.453125 66.40625 31.78125 66.40625 
z
M 31.78125 74.21875 
Q 44.046875 74.21875 50.515625 64.515625 
Q 56.984375 54.828125 56.984375 36.375 
Q 56.984375 17.96875 50.515625 8.265625 
Q 44.046875 -1.421875 31.78125 -1.421875 
Q 19.53125 -1.421875 13.0625 8.265625 
Q 6.59375 17.96875 6.59375 36.375 
Q 6.59375 54.828125 13.0625 64.515625 
Q 19.53125 74.21875 31.78125 74.21875 
z
" id="DejaVuSans-48"/>
      </defs>
      <g transform="translate(199.967543 443.934438)scale(0.1 -0.1)">
       <use transform="translate(0 0.684375)" xlink:href="#DejaVuSans-49"/>
       <use transform="translate(63.623047 0.684375)" xlink:href="#DejaVuSans-48"/>
       <use transform="translate(128.203125 38.965625)scale(0.7)" xlink:href="#DejaVuSans-49"/>
      </g>
     </g>
    </g>
    <g id="xtick_2">
     <g id="line2d_2">
      <g>
       <use style="stroke:#000000;stroke-width:0.8;" x="322.094526" xlink:href="#m7f5d7e8c55" y="429.336"/>
      </g>
     </g>
     <g id="text_2">
      <!-- $\mathdefault{10^{2}}$ -->
      <defs>
       <path d="M 19.1875 8.296875 
L 53.609375 8.296875 
L 53.609375 0 
L 7.328125 0 
L 7.328125 8.296875 
Q 12.9375 14.109375 22.625 23.890625 
Q 32.328125 33.6875 34.8125 36.53125 
Q 39.546875 41.84375 41.421875 45.53125 
Q 43.3125 49.21875 43.3125 52.78125 
Q 43.3125 58.59375 39.234375 62.25 
Q 35.15625 65.921875 28.609375 65.921875 
Q 23.96875 65.921875 18.8125 64.3125 
Q 13.671875 62.703125 7.8125 59.421875 
L 7.8125 69.390625 
Q 13.765625 71.78125 18.9375 73 
Q 24.125 74.21875 28.421875 74.21875 
Q 39.75 74.21875 46.484375 68.546875 
Q 53.21875 62.890625 53.21875 53.421875 
Q 53.21875 48.921875 51.53125 44.890625 
Q 49.859375 40.875 45.40625 35.40625 
Q 44.1875 33.984375 37.640625 27.21875 
Q 31.109375 20.453125 19.1875 8.296875 
z
" id="DejaVuSans-50"/>
      </defs>
      <g transform="translate(313.294526 443.934438)scale(0.1 -0.1)">
       <use transform="translate(0 0.765625)" xlink:href="#DejaVuSans-49"/>
       <use transform="translate(63.623047 0.765625)" xlink:href="#DejaVuSans-48"/>
       <use transform="translate(128.203125 39.046875)scale(0.7)" xlink:href="#DejaVuSans-50"/>
      </g>
     </g>
    </g>
    <g id="xtick_3">
     <g id="line2d_3">
      <g>
       <use style="stroke:#000000;stroke-width:0.8;" x="435.42151" xlink:href="#m7f5d7e8c55" y="429.336"/>
      </g>
     </g>
     <g id="text_3">
      <!-- $\mathdefault{10^{3}}$ -->
      <defs>
       <path d="M 40.578125 39.3125 
Q 47.65625 37.796875 51.625 33 
Q 55.609375 28.21875 55.609375 21.1875 
Q 55.609375 10.40625 48.1875 4.484375 
Q 40.765625 -1.421875 27.09375 -1.421875 
Q 22.515625 -1.421875 17.65625 -0.515625 
Q 12.796875 0.390625 7.625 2.203125 
L 7.625 11.71875 
Q 11.71875 9.328125 16.59375 8.109375 
Q 21.484375 6.890625 26.8125 6.890625 
Q 36.078125 6.890625 40.9375 10.546875 
Q 45.796875 14.203125 45.796875 21.1875 
Q 45.796875 27.640625 41.28125 31.265625 
Q 36.765625 34.90625 28.71875 34.90625 
L 20.21875 34.90625 
L 20.21875 43.015625 
L 29.109375 43.015625 
Q 36.375 43.015625 40.234375 45.921875 
Q 44.09375 48.828125 44.09375 54.296875 
Q 44.09375 59.90625 40.109375 62.90625 
Q 36.140625 65.921875 28.71875 65.921875 
Q 24.65625 65.921875 20.015625 65.03125 
Q 15.375 64.15625 9.8125 62.3125 
L 9.8125 71.09375 
Q 15.4375 72.65625 20.34375 73.4375 
Q 25.25 74.21875 29.59375 74.21875 
Q 40.828125 74.21875 47.359375 69.109375 
Q 53.90625 64.015625 53.90625 55.328125 
Q 53.90625 49.265625 50.4375 45.09375 
Q 46.96875 40.921875 40.578125 39.3125 
z
" id="DejaVuSans-51"/>
      </defs>
      <g transform="translate(426.62151 443.934438)scale(0.1 -0.1)">
       <use transform="translate(0 0.765625)" xlink:href="#DejaVuSans-49"/>
       <use transform="translate(63.623047 0.765625)" xlink:href="#DejaVuSans-48"/>
       <use transform="translate(128.203125 39.046875)scale(0.7)" xlink:href="#DejaVuSans-51"/>
      </g>
     </g>
    </g>
    <g id="xtick_4">
     <g id="line2d_4">
      <g>
       <use style="stroke:#000000;stroke-width:0.8;" x="548.748493" xlink:href="#m7f5d7e8c55" y="429.336"/>
      </g>
     </g>
     <g id="text_4">
      <!-- $\mathdefault{10^{4}}$ -->
      <defs>
       <path d="M 37.796875 64.3125 
L 12.890625 25.390625 
L 37.796875 25.390625 
z
M 35.203125 72.90625 
L 47.609375 72.90625 
L 47.609375 25.390625 
L 58.015625 25.390625 
L 58.015625 17.1875 
L 47.609375 17.1875 
L 47.609375 0 
L 37.796875 0 
L 37.796875 17.1875 
L 4.890625 17.1875 
L 4.890625 26.703125 
z
" id="DejaVuSans-52"/>
      </defs>
      <g transform="translate(539.948493 443.934438)scale(0.1 -0.1)">
       <use transform="translate(0 0.684375)" xlink:href="#DejaVuSans-49"/>
       <use transform="translate(63.623047 0.684375)" xlink:href="#DejaVuSans-48"/>
       <use transform="translate(128.203125 38.965625)scale(0.7)" xlink:href="#DejaVuSans-52"/>
      </g>
     </g>
    </g>
    <g id="xtick_5">
     <g id="line2d_5">
      <g>
       <use style="stroke:#000000;stroke-width:0.8;" x="662.075476" xlink:href="#m7f5d7e8c55" y="429.336"/>
      </g>
     </g>
     <g id="text_5">
      <!-- $\mathdefault{10^{5}}$ -->
      <defs>
       <path d="M 10.796875 72.90625 
L 49.515625 72.90625 
L 49.515625 64.59375 
L 19.828125 64.59375 
L 19.828125 46.734375 
Q 21.96875 47.46875 24.109375 47.828125 
Q 26.265625 48.1875 28.421875 48.1875 
Q 40.625 48.1875 47.75 41.5 
Q 54.890625 34.8125 54.890625 23.390625 
Q 54.890625 11.625 47.5625 5.09375 
Q 40.234375 -1.421875 26.90625 -1.421875 
Q 22.3125 -1.421875 17.546875 -0.640625 
Q 12.796875 0.140625 7.71875 1.703125 
L 7.71875 11.625 
Q 12.109375 9.234375 16.796875 8.0625 
Q 21.484375 6.890625 26.703125 6.890625 
Q 35.15625 6.890625 40.078125 11.328125 
Q 45.015625 15.765625 45.015625 23.390625 
Q 45.015625 31 40.078125 35.4375 
Q 35.15625 39.890625 26.703125 39.890625 
Q 22.75 39.890625 18.8125 39.015625 
Q 14.890625 38.140625 10.796875 36.28125 
z
" id="DejaVuSans-53"/>
      </defs>
      <g transform="translate(653.275476 443.934438)scale(0.1 -0.1)">
       <use transform="translate(0 0.684375)" xlink:href="#DejaVuSans-49"/>
       <use transform="translate(63.623047 0.684375)" xlink:href="#DejaVuSans-48"/>
       <use transform="translate(128.203125 38.965625)scale(0.7)" xlink:href="#DejaVuSans-53"/>
      </g>
     </g>
    </g>
    <g id="xtick_6">
     <g id="line2d_6">
      <g>
       <use style="stroke:#000000;stroke-width:0.8;" x="775.402459" xlink:href="#m7f5d7e8c55" y="429.336"/>
      </g>
     </g>
     <g id="text_6">
      <!-- $\mathdefault{10^{6}}$ -->
      <defs>
       <path d="M 33.015625 40.375 
Q 26.375 40.375 22.484375 35.828125 
Q 18.609375 31.296875 18.609375 23.390625 
Q 18.609375 15.53125 22.484375 10.953125 
Q 26.375 6.390625 33.015625 6.390625 
Q 39.65625 6.390625 43.53125 10.953125 
Q 47.40625 15.53125 47.40625 23.390625 
Q 47.40625 31.296875 43.53125 35.828125 
Q 39.65625 40.375 33.015625 40.375 
z
M 52.59375 71.296875 
L 52.59375 62.3125 
Q 48.875 64.0625 45.09375 64.984375 
Q 41.3125 65.921875 37.59375 65.921875 
Q 27.828125 65.921875 22.671875 59.328125 
Q 17.53125 52.734375 16.796875 39.40625 
Q 19.671875 43.65625 24.015625 45.921875 
Q 28.375 48.1875 33.59375 48.1875 
Q 44.578125 48.1875 50.953125 41.515625 
Q 57.328125 34.859375 57.328125 23.390625 
Q 57.328125 12.15625 50.6875 5.359375 
Q 44.046875 -1.421875 33.015625 -1.421875 
Q 20.359375 -1.421875 13.671875 8.265625 
Q 6.984375 17.96875 6.984375 36.375 
Q 6.984375 53.65625 15.1875 63.9375 
Q 23.390625 74.21875 37.203125 74.21875 
Q 40.921875 74.21875 44.703125 73.484375 
Q 48.484375 72.75 52.59375 71.296875 
z
" id="DejaVuSans-54"/>
      </defs>
      <g transform="translate(766.602459 443.934438)scale(0.1 -0.1)">
       <use transform="translate(0 0.765625)" xlink:href="#DejaVuSans-49"/>
       <use transform="translate(63.623047 0.765625)" xlink:href="#DejaVuSans-48"/>
       <use transform="translate(128.203125 39.046875)scale(0.7)" xlink:href="#DejaVuSans-54"/>
      </g>
     </g>
    </g>
    <g id="xtick_7">
     <g id="line2d_7">
      <defs>
       <path d="M 0 0 
L 0 2 
" id="ma829c39255" style="stroke:#000000;stroke-width:0.6;"/>
      </defs>
      <g>
       <use style="stroke:#000000;stroke-width:0.6;" x="129.555382" xlink:href="#ma829c39255" y="429.336"/>
      </g>
     </g>
    </g>
    <g id="xtick_8">
     <g id="line2d_8">
      <g>
       <use style="stroke:#000000;stroke-width:0.6;" x="149.511273" xlink:href="#ma829c39255" y="429.336"/>
      </g>
     </g>
    </g>
    <g id="xtick_9">
     <g id="line2d_9">
      <g>
       <use style="stroke:#000000;stroke-width:0.6;" x="163.670203" xlink:href="#ma829c39255" y="429.336"/>
      </g>
     </g>
    </g>
    <g id="xtick_10">
     <g id="line2d_10">
      <g>
       <use style="stroke:#000000;stroke-width:0.6;" x="174.652722" xlink:href="#ma829c39255" y="429.336"/>
      </g>
     </g>
    </g>
    <g id="xtick_11">
     <g id="line2d_11">
      <g>
       <use style="stroke:#000000;stroke-width:0.6;" x="183.626094" xlink:href="#ma829c39255" y="429.336"/>
      </g>
     </g>
    </g>
    <g id="xtick_12">
     <g id="line2d_12">
      <g>
       <use style="stroke:#000000;stroke-width:0.6;" x="191.212972" xlink:href="#ma829c39255" y="429.336"/>
      </g>
     </g>
    </g>
    <g id="xtick_13">
     <g id="line2d_13">
      <g>
       <use style="stroke:#000000;stroke-width:0.6;" x="197.785024" xlink:href="#ma829c39255" y="429.336"/>
      </g>
     </g>
    </g>
    <g id="xtick_14">
     <g id="line2d_14">
      <g>
       <use style="stroke:#000000;stroke-width:0.6;" x="203.581985" xlink:href="#ma829c39255" y="429.336"/>
      </g>
     </g>
    </g>
    <g id="xtick_15">
     <g id="line2d_15">
      <g>
       <use style="stroke:#000000;stroke-width:0.6;" x="242.882365" xlink:href="#ma829c39255" y="429.336"/>
      </g>
     </g>
    </g>
    <g id="xtick_16">
     <g id="line2d_16">
      <g>
       <use style="stroke:#000000;stroke-width:0.6;" x="262.838256" xlink:href="#ma829c39255" y="429.336"/>
      </g>
     </g>
    </g>
    <g id="xtick_17">
     <g id="line2d_17">
      <g>
       <use style="stroke:#000000;stroke-width:0.6;" x="276.997186" xlink:href="#ma829c39255" y="429.336"/>
      </g>
     </g>
    </g>
    <g id="xtick_18">
     <g id="line2d_18">
      <g>
       <use style="stroke:#000000;stroke-width:0.6;" x="287.979705" xlink:href="#ma829c39255" y="429.336"/>
      </g>
     </g>
    </g>
    <g id="xtick_19">
     <g id="line2d_19">
      <g>
       <use style="stroke:#000000;stroke-width:0.6;" x="296.953077" xlink:href="#ma829c39255" y="429.336"/>
      </g>
     </g>
    </g>
    <g id="xtick_20">
     <g id="line2d_20">
      <g>
       <use style="stroke:#000000;stroke-width:0.6;" x="304.539955" xlink:href="#ma829c39255" y="429.336"/>
      </g>
     </g>
    </g>
    <g id="xtick_21">
     <g id="line2d_21">
      <g>
       <use style="stroke:#000000;stroke-width:0.6;" x="311.112007" xlink:href="#ma829c39255" y="429.336"/>
      </g>
     </g>
    </g>
    <g id="xtick_22">
     <g id="line2d_22">
      <g>
       <use style="stroke:#000000;stroke-width:0.6;" x="316.908968" xlink:href="#ma829c39255" y="429.336"/>
      </g>
     </g>
    </g>
    <g id="xtick_23">
     <g id="line2d_23">
      <g>
       <use style="stroke:#000000;stroke-width:0.6;" x="356.209348" xlink:href="#ma829c39255" y="429.336"/>
      </g>
     </g>
    </g>
    <g id="xtick_24">
     <g id="line2d_24">
      <g>
       <use style="stroke:#000000;stroke-width:0.6;" x="376.165239" xlink:href="#ma829c39255" y="429.336"/>
      </g>
     </g>
    </g>
    <g id="xtick_25">
     <g id="line2d_25">
      <g>
       <use style="stroke:#000000;stroke-width:0.6;" x="390.324169" xlink:href="#ma829c39255" y="429.336"/>
      </g>
     </g>
    </g>
    <g id="xtick_26">
     <g id="line2d_26">
      <g>
       <use style="stroke:#000000;stroke-width:0.6;" x="401.306688" xlink:href="#ma829c39255" y="429.336"/>
      </g>
     </g>
    </g>
    <g id="xtick_27">
     <g id="line2d_27">
      <g>
       <use style="stroke:#000000;stroke-width:0.6;" x="410.28006" xlink:href="#ma829c39255" y="429.336"/>
      </g>
     </g>
    </g>
    <g id="xtick_28">
     <g id="line2d_28">
      <g>
       <use style="stroke:#000000;stroke-width:0.6;" x="417.866938" xlink:href="#ma829c39255" y="429.336"/>
      </g>
     </g>
    </g>
    <g id="xtick_29">
     <g id="line2d_29">
      <g>
       <use style="stroke:#000000;stroke-width:0.6;" x="424.43899" xlink:href="#ma829c39255" y="429.336"/>
      </g>
     </g>
    </g>
    <g id="xtick_30">
     <g id="line2d_30">
      <g>
       <use style="stroke:#000000;stroke-width:0.6;" x="430.235951" xlink:href="#ma829c39255" y="429.336"/>
      </g>
     </g>
    </g>
    <g id="xtick_31">
     <g id="line2d_31">
      <g>
       <use style="stroke:#000000;stroke-width:0.6;" x="469.536331" xlink:href="#ma829c39255" y="429.336"/>
      </g>
     </g>
    </g>
    <g id="xtick_32">
     <g id="line2d_32">
      <g>
       <use style="stroke:#000000;stroke-width:0.6;" x="489.492222" xlink:href="#ma829c39255" y="429.336"/>
      </g>
     </g>
    </g>
    <g id="xtick_33">
     <g id="line2d_33">
      <g>
       <use style="stroke:#000000;stroke-width:0.6;" x="503.651152" xlink:href="#ma829c39255" y="429.336"/>
      </g>
     </g>
    </g>
    <g id="xtick_34">
     <g id="line2d_34">
      <g>
       <use style="stroke:#000000;stroke-width:0.6;" x="514.633671" xlink:href="#ma829c39255" y="429.336"/>
      </g>
     </g>
    </g>
    <g id="xtick_35">
     <g id="line2d_35">
      <g>
       <use style="stroke:#000000;stroke-width:0.6;" x="523.607043" xlink:href="#ma829c39255" y="429.336"/>
      </g>
     </g>
    </g>
    <g id="xtick_36">
     <g id="line2d_36">
      <g>
       <use style="stroke:#000000;stroke-width:0.6;" x="531.193921" xlink:href="#ma829c39255" y="429.336"/>
      </g>
     </g>
    </g>
    <g id="xtick_37">
     <g id="line2d_37">
      <g>
       <use style="stroke:#000000;stroke-width:0.6;" x="537.765973" xlink:href="#ma829c39255" y="429.336"/>
      </g>
     </g>
    </g>
    <g id="xtick_38">
     <g id="line2d_38">
      <g>
       <use style="stroke:#000000;stroke-width:0.6;" x="543.562934" xlink:href="#ma829c39255" y="429.336"/>
      </g>
     </g>
    </g>
    <g id="xtick_39">
     <g id="line2d_39">
      <g>
       <use style="stroke:#000000;stroke-width:0.6;" x="582.863314" xlink:href="#ma829c39255" y="429.336"/>
      </g>
     </g>
    </g>
    <g id="xtick_40">
     <g id="line2d_40">
      <g>
       <use style="stroke:#000000;stroke-width:0.6;" x="602.819205" xlink:href="#ma829c39255" y="429.336"/>
      </g>
     </g>
    </g>
    <g id="xtick_41">
     <g id="line2d_41">
      <g>
       <use style="stroke:#000000;stroke-width:0.6;" x="616.978135" xlink:href="#ma829c39255" y="429.336"/>
      </g>
     </g>
    </g>
    <g id="xtick_42">
     <g id="line2d_42">
      <g>
       <use style="stroke:#000000;stroke-width:0.6;" x="627.960654" xlink:href="#ma829c39255" y="429.336"/>
      </g>
     </g>
    </g>
    <g id="xtick_43">
     <g id="line2d_43">
      <g>
       <use style="stroke:#000000;stroke-width:0.6;" x="636.934026" xlink:href="#ma829c39255" y="429.336"/>
      </g>
     </g>
    </g>
    <g id="xtick_44">
     <g id="line2d_44">
      <g>
       <use style="stroke:#000000;stroke-width:0.6;" x="644.520904" xlink:href="#ma829c39255" y="429.336"/>
      </g>
     </g>
    </g>
    <g id="xtick_45">
     <g id="line2d_45">
      <g>
       <use style="stroke:#000000;stroke-width:0.6;" x="651.092956" xlink:href="#ma829c39255" y="429.336"/>
      </g>
     </g>
    </g>
    <g id="xtick_46">
     <g id="line2d_46">
      <g>
       <use style="stroke:#000000;stroke-width:0.6;" x="656.889917" xlink:href="#ma829c39255" y="429.336"/>
      </g>
     </g>
    </g>
    <g id="xtick_47">
     <g id="line2d_47">
      <g>
       <use style="stroke:#000000;stroke-width:0.6;" x="696.190297" xlink:href="#ma829c39255" y="429.336"/>
      </g>
     </g>
    </g>
    <g id="xtick_48">
     <g id="line2d_48">
      <g>
       <use style="stroke:#000000;stroke-width:0.6;" x="716.146188" xlink:href="#ma829c39255" y="429.336"/>
      </g>
     </g>
    </g>
    <g id="xtick_49">
     <g id="line2d_49">
      <g>
       <use style="stroke:#000000;stroke-width:0.6;" x="730.305118" xlink:href="#ma829c39255" y="429.336"/>
      </g>
     </g>
    </g>
    <g id="xtick_50">
     <g id="line2d_50">
      <g>
       <use style="stroke:#000000;stroke-width:0.6;" x="741.287637" xlink:href="#ma829c39255" y="429.336"/>
      </g>
     </g>
    </g>
    <g id="xtick_51">
     <g id="line2d_51">
      <g>
       <use style="stroke:#000000;stroke-width:0.6;" x="750.261009" xlink:href="#ma829c39255" y="429.336"/>
      </g>
     </g>
    </g>
    <g id="xtick_52">
     <g id="line2d_52">
      <g>
       <use style="stroke:#000000;stroke-width:0.6;" x="757.847887" xlink:href="#ma829c39255" y="429.336"/>
      </g>
     </g>
    </g>
    <g id="xtick_53">
     <g id="line2d_53">
      <g>
       <use style="stroke:#000000;stroke-width:0.6;" x="764.419939" xlink:href="#ma829c39255" y="429.336"/>
      </g>
     </g>
    </g>
    <g id="xtick_54">
     <g id="line2d_54">
      <g>
       <use style="stroke:#000000;stroke-width:0.6;" x="770.2169" xlink:href="#ma829c39255" y="429.336"/>
      </g>
     </g>
    </g>
    <g id="xtick_55">
     <g id="line2d_55">
      <g>
       <use style="stroke:#000000;stroke-width:0.6;" x="809.51728" xlink:href="#ma829c39255" y="429.336"/>
      </g>
     </g>
    </g>
    <g id="xtick_56">
     <g id="line2d_56">
      <g>
       <use style="stroke:#000000;stroke-width:0.6;" x="829.473171" xlink:href="#ma829c39255" y="429.336"/>
      </g>
     </g>
    </g>
    <g id="text_7">
     <!-- Total Cases -->
     <defs>
      <path d="M -0.296875 72.90625 
L 61.375 72.90625 
L 61.375 64.59375 
L 35.5 64.59375 
L 35.5 0 
L 25.59375 0 
L 25.59375 64.59375 
L -0.296875 64.59375 
z
" id="DejaVuSans-84"/>
      <path d="M 30.609375 48.390625 
Q 23.390625 48.390625 19.1875 42.75 
Q 14.984375 37.109375 14.984375 27.296875 
Q 14.984375 17.484375 19.15625 11.84375 
Q 23.34375 6.203125 30.609375 6.203125 
Q 37.796875 6.203125 41.984375 11.859375 
Q 46.1875 17.53125 46.1875 27.296875 
Q 46.1875 37.015625 41.984375 42.703125 
Q 37.796875 48.390625 30.609375 48.390625 
z
M 30.609375 56 
Q 42.328125 56 49.015625 48.375 
Q 55.71875 40.765625 55.71875 27.296875 
Q 55.71875 13.875 49.015625 6.21875 
Q 42.328125 -1.421875 30.609375 -1.421875 
Q 18.84375 -1.421875 12.171875 6.21875 
Q 5.515625 13.875 5.515625 27.296875 
Q 5.515625 40.765625 12.171875 48.375 
Q 18.84375 56 30.609375 56 
z
" id="DejaVuSans-111"/>
      <path d="M 18.3125 70.21875 
L 18.3125 54.6875 
L 36.8125 54.6875 
L 36.8125 47.703125 
L 18.3125 47.703125 
L 18.3125 18.015625 
Q 18.3125 11.328125 20.140625 9.421875 
Q 21.96875 7.515625 27.59375 7.515625 
L 36.8125 7.515625 
L 36.8125 0 
L 27.59375 0 
Q 17.1875 0 13.234375 3.875 
Q 9.28125 7.765625 9.28125 18.015625 
L 9.28125 47.703125 
L 2.6875 47.703125 
L 2.6875 54.6875 
L 9.28125 54.6875 
L 9.28125 70.21875 
z
" id="DejaVuSans-116"/>
      <path d="M 34.28125 27.484375 
Q 23.390625 27.484375 19.1875 25 
Q 14.984375 22.515625 14.984375 16.5 
Q 14.984375 11.71875 18.140625 8.90625 
Q 21.296875 6.109375 26.703125 6.109375 
Q 34.1875 6.109375 38.703125 11.40625 
Q 43.21875 16.703125 43.21875 25.484375 
L 43.21875 27.484375 
z
M 52.203125 31.203125 
L 52.203125 0 
L 43.21875 0 
L 43.21875 8.296875 
Q 40.140625 3.328125 35.546875 0.953125 
Q 30.953125 -1.421875 24.3125 -1.421875 
Q 15.921875 -1.421875 10.953125 3.296875 
Q 6 8.015625 6 15.921875 
Q 6 25.140625 12.171875 29.828125 
Q 18.359375 34.515625 30.609375 34.515625 
L 43.21875 34.515625 
L 43.21875 35.40625 
Q 43.21875 41.609375 39.140625 45 
Q 35.0625 48.390625 27.6875 48.390625 
Q 23 48.390625 18.546875 47.265625 
Q 14.109375 46.140625 10.015625 43.890625 
L 10.015625 52.203125 
Q 14.9375 54.109375 19.578125 55.046875 
Q 24.21875 56 28.609375 56 
Q 40.484375 56 46.34375 49.84375 
Q 52.203125 43.703125 52.203125 31.203125 
z
" id="DejaVuSans-97"/>
      <path d="M 9.421875 75.984375 
L 18.40625 75.984375 
L 18.40625 0 
L 9.421875 0 
z
" id="DejaVuSans-108"/>
      <path id="DejaVuSans-32"/>
      <path d="M 64.40625 67.28125 
L 64.40625 56.890625 
Q 59.421875 61.53125 53.78125 63.8125 
Q 48.140625 66.109375 41.796875 66.109375 
Q 29.296875 66.109375 22.65625 58.46875 
Q 16.015625 50.828125 16.015625 36.375 
Q 16.015625 21.96875 22.65625 14.328125 
Q 29.296875 6.6875 41.796875 6.6875 
Q 48.140625 6.6875 53.78125 8.984375 
Q 59.421875 11.28125 64.40625 15.921875 
L 64.40625 5.609375 
Q 59.234375 2.09375 53.4375 0.328125 
Q 47.65625 -1.421875 41.21875 -1.421875 
Q 24.65625 -1.421875 15.125 8.703125 
Q 5.609375 18.84375 5.609375 36.375 
Q 5.609375 53.953125 15.125 64.078125 
Q 24.65625 74.21875 41.21875 74.21875 
Q 47.75 74.21875 53.53125 72.484375 
Q 59.328125 70.75 64.40625 67.28125 
z
" id="DejaVuSans-67"/>
      <path d="M 44.28125 53.078125 
L 44.28125 44.578125 
Q 40.484375 46.53125 36.375 47.5 
Q 32.28125 48.484375 27.875 48.484375 
Q 21.1875 48.484375 17.84375 46.4375 
Q 14.5 44.390625 14.5 40.28125 
Q 14.5 37.15625 16.890625 35.375 
Q 19.28125 33.59375 26.515625 31.984375 
L 29.59375 31.296875 
Q 39.15625 29.25 43.1875 25.515625 
Q 47.21875 21.78125 47.21875 15.09375 
Q 47.21875 7.46875 41.1875 3.015625 
Q 35.15625 -1.421875 24.609375 -1.421875 
Q 20.21875 -1.421875 15.453125 -0.5625 
Q 10.6875 0.296875 5.421875 2 
L 5.421875 11.28125 
Q 10.40625 8.6875 15.234375 7.390625 
Q 20.0625 6.109375 24.8125 6.109375 
Q 31.15625 6.109375 34.5625 8.28125 
Q 37.984375 10.453125 37.984375 14.40625 
Q 37.984375 18.0625 35.515625 20.015625 
Q 33.0625 21.96875 24.703125 23.78125 
L 21.578125 24.515625 
Q 13.234375 26.265625 9.515625 29.90625 
Q 5.8125 33.546875 5.8125 39.890625 
Q 5.8125 47.609375 11.28125 51.796875 
Q 16.75 56 26.8125 56 
Q 31.78125 56 36.171875 55.265625 
Q 40.578125 54.546875 44.28125 53.078125 
z
" id="DejaVuSans-115"/>
      <path d="M 56.203125 29.59375 
L 56.203125 25.203125 
L 14.890625 25.203125 
Q 15.484375 15.921875 20.484375 11.0625 
Q 25.484375 6.203125 34.421875 6.203125 
Q 39.59375 6.203125 44.453125 7.46875 
Q 49.3125 8.734375 54.109375 11.28125 
L 54.109375 2.78125 
Q 49.265625 0.734375 44.1875 -0.34375 
Q 39.109375 -1.421875 33.890625 -1.421875 
Q 20.796875 -1.421875 13.15625 6.1875 
Q 5.515625 13.8125 5.515625 26.8125 
Q 5.515625 40.234375 12.765625 48.109375 
Q 20.015625 56 32.328125 56 
Q 43.359375 56 49.78125 48.890625 
Q 56.203125 41.796875 56.203125 29.59375 
z
M 47.21875 32.234375 
Q 47.125 39.59375 43.09375 43.984375 
Q 39.0625 48.390625 32.421875 48.390625 
Q 24.90625 48.390625 20.390625 44.140625 
Q 15.875 39.890625 15.1875 32.171875 
z
" id="DejaVuSans-101"/>
     </defs>
     <g transform="translate(449.28025 457.612563)scale(0.1 -0.1)">
      <use xlink:href="#DejaVuSans-84"/>
      <use x="60.818359" xlink:href="#DejaVuSans-111"/>
      <use x="122" xlink:href="#DejaVuSans-116"/>
      <use x="161.208984" xlink:href="#DejaVuSans-97"/>
      <use x="222.488281" xlink:href="#DejaVuSans-108"/>
      <use x="250.271484" xlink:href="#DejaVuSans-32"/>
      <use x="282.058594" xlink:href="#DejaVuSans-67"/>
      <use x="351.882812" xlink:href="#DejaVuSans-97"/>
      <use x="413.162109" xlink:href="#DejaVuSans-115"/>
      <use x="465.261719" xlink:href="#DejaVuSans-101"/>
      <use x="526.785156" xlink:href="#DejaVuSans-115"/>
     </g>
    </g>
   </g>
   <g id="matplotlib.axis_2">
    <g id="ytick_1">
     <g id="line2d_57">
      <defs>
       <path d="M 0 0 
L -3.5 0 
" id="m4e120d5667" style="stroke:#000000;stroke-width:0.8;"/>
      </defs>
      <g>
       <use style="stroke:#000000;stroke-width:0.8;" x="116.64" xlink:href="#m4e120d5667" y="412.452"/>
      </g>
     </g>
     <g id="text_8">
      <!-- $\mathdefault{10^{0}}$ -->
      <g transform="translate(92.04 416.251219)scale(0.1 -0.1)">
       <use transform="translate(0 0.765625)" xlink:href="#DejaVuSans-49"/>
       <use transform="translate(63.623047 0.765625)" xlink:href="#DejaVuSans-48"/>
       <use transform="translate(128.203125 39.046875)scale(0.7)" xlink:href="#DejaVuSans-48"/>
      </g>
     </g>
    </g>
    <g id="ytick_2">
     <g id="line2d_58">
      <g>
       <use style="stroke:#000000;stroke-width:0.8;" x="116.64" xlink:href="#m4e120d5667" y="349.327896"/>
      </g>
     </g>
     <g id="text_9">
      <!-- $\mathdefault{10^{1}}$ -->
      <g transform="translate(92.04 353.127115)scale(0.1 -0.1)">
       <use transform="translate(0 0.684375)" xlink:href="#DejaVuSans-49"/>
       <use transform="translate(63.623047 0.684375)" xlink:href="#DejaVuSans-48"/>
       <use transform="translate(128.203125 38.965625)scale(0.7)" xlink:href="#DejaVuSans-49"/>
      </g>
     </g>
    </g>
    <g id="ytick_3">
     <g id="line2d_59">
      <g>
       <use style="stroke:#000000;stroke-width:0.8;" x="116.64" xlink:href="#m4e120d5667" y="286.203792"/>
      </g>
     </g>
     <g id="text_10">
      <!-- $\mathdefault{10^{2}}$ -->
      <g transform="translate(92.04 290.003011)scale(0.1 -0.1)">
       <use transform="translate(0 0.765625)" xlink:href="#DejaVuSans-49"/>
       <use transform="translate(63.623047 0.765625)" xlink:href="#DejaVuSans-48"/>
       <use transform="translate(128.203125 39.046875)scale(0.7)" xlink:href="#DejaVuSans-50"/>
      </g>
     </g>
    </g>
    <g id="ytick_4">
     <g id="line2d_60">
      <g>
       <use style="stroke:#000000;stroke-width:0.8;" x="116.64" xlink:href="#m4e120d5667" y="223.079689"/>
      </g>
     </g>
     <g id="text_11">
      <!-- $\mathdefault{10^{3}}$ -->
      <g transform="translate(92.04 226.878907)scale(0.1 -0.1)">
       <use transform="translate(0 0.765625)" xlink:href="#DejaVuSans-49"/>
       <use transform="translate(63.623047 0.765625)" xlink:href="#DejaVuSans-48"/>
       <use transform="translate(128.203125 39.046875)scale(0.7)" xlink:href="#DejaVuSans-51"/>
      </g>
     </g>
    </g>
    <g id="ytick_5">
     <g id="line2d_61">
      <g>
       <use style="stroke:#000000;stroke-width:0.8;" x="116.64" xlink:href="#m4e120d5667" y="159.955585"/>
      </g>
     </g>
     <g id="text_12">
      <!-- $\mathdefault{10^{4}}$ -->
      <g transform="translate(92.04 163.754804)scale(0.1 -0.1)">
       <use transform="translate(0 0.684375)" xlink:href="#DejaVuSans-49"/>
       <use transform="translate(63.623047 0.684375)" xlink:href="#DejaVuSans-48"/>
       <use transform="translate(128.203125 38.965625)scale(0.7)" xlink:href="#DejaVuSans-52"/>
      </g>
     </g>
    </g>
    <g id="ytick_6">
     <g id="line2d_62">
      <g>
       <use style="stroke:#000000;stroke-width:0.8;" x="116.64" xlink:href="#m4e120d5667" y="96.831481"/>
      </g>
     </g>
     <g id="text_13">
      <!-- $\mathdefault{10^{5}}$ -->
      <g transform="translate(92.04 100.6307)scale(0.1 -0.1)">
       <use transform="translate(0 0.684375)" xlink:href="#DejaVuSans-49"/>
       <use transform="translate(63.623047 0.684375)" xlink:href="#DejaVuSans-48"/>
       <use transform="translate(128.203125 38.965625)scale(0.7)" xlink:href="#DejaVuSans-53"/>
      </g>
     </g>
    </g>
    <g id="ytick_7">
     <g id="line2d_63">
      <defs>
       <path d="M 0 0 
L -2 0 
" id="m6173894460" style="stroke:#000000;stroke-width:0.6;"/>
      </defs>
      <g>
       <use style="stroke:#000000;stroke-width:0.6;" x="116.64" xlink:href="#m6173894460" y="426.456003"/>
      </g>
     </g>
    </g>
    <g id="ytick_8">
     <g id="line2d_64">
      <g>
       <use style="stroke:#000000;stroke-width:0.6;" x="116.64" xlink:href="#m6173894460" y="422.230047"/>
      </g>
     </g>
    </g>
    <g id="ytick_9">
     <g id="line2d_65">
      <g>
       <use style="stroke:#000000;stroke-width:0.6;" x="116.64" xlink:href="#m6173894460" y="418.569358"/>
      </g>
     </g>
    </g>
    <g id="ytick_10">
     <g id="line2d_66">
      <g>
       <use style="stroke:#000000;stroke-width:0.6;" x="116.64" xlink:href="#m6173894460" y="415.340401"/>
      </g>
     </g>
    </g>
    <g id="ytick_11">
     <g id="line2d_67">
      <g>
       <use style="stroke:#000000;stroke-width:0.6;" x="116.64" xlink:href="#m6173894460" y="393.449751"/>
      </g>
     </g>
    </g>
    <g id="ytick_12">
     <g id="line2d_68">
      <g>
       <use style="stroke:#000000;stroke-width:0.6;" x="116.64" xlink:href="#m6173894460" y="382.334148"/>
      </g>
     </g>
    </g>
    <g id="ytick_13">
     <g id="line2d_69">
      <g>
       <use style="stroke:#000000;stroke-width:0.6;" x="116.64" xlink:href="#m6173894460" y="374.447503"/>
      </g>
     </g>
    </g>
    <g id="ytick_14">
     <g id="line2d_70">
      <g>
       <use style="stroke:#000000;stroke-width:0.6;" x="116.64" xlink:href="#m6173894460" y="368.330145"/>
      </g>
     </g>
    </g>
    <g id="ytick_15">
     <g id="line2d_71">
      <g>
       <use style="stroke:#000000;stroke-width:0.6;" x="116.64" xlink:href="#m6173894460" y="363.3319"/>
      </g>
     </g>
    </g>
    <g id="ytick_16">
     <g id="line2d_72">
      <g>
       <use style="stroke:#000000;stroke-width:0.6;" x="116.64" xlink:href="#m6173894460" y="359.105944"/>
      </g>
     </g>
    </g>
    <g id="ytick_17">
     <g id="line2d_73">
      <g>
       <use style="stroke:#000000;stroke-width:0.6;" x="116.64" xlink:href="#m6173894460" y="355.445254"/>
      </g>
     </g>
    </g>
    <g id="ytick_18">
     <g id="line2d_74">
      <g>
       <use style="stroke:#000000;stroke-width:0.6;" x="116.64" xlink:href="#m6173894460" y="352.216297"/>
      </g>
     </g>
    </g>
    <g id="ytick_19">
     <g id="line2d_75">
      <g>
       <use style="stroke:#000000;stroke-width:0.6;" x="116.64" xlink:href="#m6173894460" y="330.325648"/>
      </g>
     </g>
    </g>
    <g id="ytick_20">
     <g id="line2d_76">
      <g>
       <use style="stroke:#000000;stroke-width:0.6;" x="116.64" xlink:href="#m6173894460" y="319.210045"/>
      </g>
     </g>
    </g>
    <g id="ytick_21">
     <g id="line2d_77">
      <g>
       <use style="stroke:#000000;stroke-width:0.6;" x="116.64" xlink:href="#m6173894460" y="311.323399"/>
      </g>
     </g>
    </g>
    <g id="ytick_22">
     <g id="line2d_78">
      <g>
       <use style="stroke:#000000;stroke-width:0.6;" x="116.64" xlink:href="#m6173894460" y="305.206041"/>
      </g>
     </g>
    </g>
    <g id="ytick_23">
     <g id="line2d_79">
      <g>
       <use style="stroke:#000000;stroke-width:0.6;" x="116.64" xlink:href="#m6173894460" y="300.207796"/>
      </g>
     </g>
    </g>
    <g id="ytick_24">
     <g id="line2d_80">
      <g>
       <use style="stroke:#000000;stroke-width:0.6;" x="116.64" xlink:href="#m6173894460" y="295.98184"/>
      </g>
     </g>
    </g>
    <g id="ytick_25">
     <g id="line2d_81">
      <g>
       <use style="stroke:#000000;stroke-width:0.6;" x="116.64" xlink:href="#m6173894460" y="292.32115"/>
      </g>
     </g>
    </g>
    <g id="ytick_26">
     <g id="line2d_82">
      <g>
       <use style="stroke:#000000;stroke-width:0.6;" x="116.64" xlink:href="#m6173894460" y="289.092193"/>
      </g>
     </g>
    </g>
    <g id="ytick_27">
     <g id="line2d_83">
      <g>
       <use style="stroke:#000000;stroke-width:0.6;" x="116.64" xlink:href="#m6173894460" y="267.201544"/>
      </g>
     </g>
    </g>
    <g id="ytick_28">
     <g id="line2d_84">
      <g>
       <use style="stroke:#000000;stroke-width:0.6;" x="116.64" xlink:href="#m6173894460" y="256.085941"/>
      </g>
     </g>
    </g>
    <g id="ytick_29">
     <g id="line2d_85">
      <g>
       <use style="stroke:#000000;stroke-width:0.6;" x="116.64" xlink:href="#m6173894460" y="248.199295"/>
      </g>
     </g>
    </g>
    <g id="ytick_30">
     <g id="line2d_86">
      <g>
       <use style="stroke:#000000;stroke-width:0.6;" x="116.64" xlink:href="#m6173894460" y="242.081937"/>
      </g>
     </g>
    </g>
    <g id="ytick_31">
     <g id="line2d_87">
      <g>
       <use style="stroke:#000000;stroke-width:0.6;" x="116.64" xlink:href="#m6173894460" y="237.083692"/>
      </g>
     </g>
    </g>
    <g id="ytick_32">
     <g id="line2d_88">
      <g>
       <use style="stroke:#000000;stroke-width:0.6;" x="116.64" xlink:href="#m6173894460" y="232.857736"/>
      </g>
     </g>
    </g>
    <g id="ytick_33">
     <g id="line2d_89">
      <g>
       <use style="stroke:#000000;stroke-width:0.6;" x="116.64" xlink:href="#m6173894460" y="229.197046"/>
      </g>
     </g>
    </g>
    <g id="ytick_34">
     <g id="line2d_90">
      <g>
       <use style="stroke:#000000;stroke-width:0.6;" x="116.64" xlink:href="#m6173894460" y="225.968089"/>
      </g>
     </g>
    </g>
    <g id="ytick_35">
     <g id="line2d_91">
      <g>
       <use style="stroke:#000000;stroke-width:0.6;" x="116.64" xlink:href="#m6173894460" y="204.07744"/>
      </g>
     </g>
    </g>
    <g id="ytick_36">
     <g id="line2d_92">
      <g>
       <use style="stroke:#000000;stroke-width:0.6;" x="116.64" xlink:href="#m6173894460" y="192.961837"/>
      </g>
     </g>
    </g>
    <g id="ytick_37">
     <g id="line2d_93">
      <g>
       <use style="stroke:#000000;stroke-width:0.6;" x="116.64" xlink:href="#m6173894460" y="185.075191"/>
      </g>
     </g>
    </g>
    <g id="ytick_38">
     <g id="line2d_94">
      <g>
       <use style="stroke:#000000;stroke-width:0.6;" x="116.64" xlink:href="#m6173894460" y="178.957834"/>
      </g>
     </g>
    </g>
    <g id="ytick_39">
     <g id="line2d_95">
      <g>
       <use style="stroke:#000000;stroke-width:0.6;" x="116.64" xlink:href="#m6173894460" y="173.959588"/>
      </g>
     </g>
    </g>
    <g id="ytick_40">
     <g id="line2d_96">
      <g>
       <use style="stroke:#000000;stroke-width:0.6;" x="116.64" xlink:href="#m6173894460" y="169.733632"/>
      </g>
     </g>
    </g>
    <g id="ytick_41">
     <g id="line2d_97">
      <g>
       <use style="stroke:#000000;stroke-width:0.6;" x="116.64" xlink:href="#m6173894460" y="166.072943"/>
      </g>
     </g>
    </g>
    <g id="ytick_42">
     <g id="line2d_98">
      <g>
       <use style="stroke:#000000;stroke-width:0.6;" x="116.64" xlink:href="#m6173894460" y="162.843985"/>
      </g>
     </g>
    </g>
    <g id="ytick_43">
     <g id="line2d_99">
      <g>
       <use style="stroke:#000000;stroke-width:0.6;" x="116.64" xlink:href="#m6173894460" y="140.953336"/>
      </g>
     </g>
    </g>
    <g id="ytick_44">
     <g id="line2d_100">
      <g>
       <use style="stroke:#000000;stroke-width:0.6;" x="116.64" xlink:href="#m6173894460" y="129.837733"/>
      </g>
     </g>
    </g>
    <g id="ytick_45">
     <g id="line2d_101">
      <g>
       <use style="stroke:#000000;stroke-width:0.6;" x="116.64" xlink:href="#m6173894460" y="121.951087"/>
      </g>
     </g>
    </g>
    <g id="ytick_46">
     <g id="line2d_102">
      <g>
       <use style="stroke:#000000;stroke-width:0.6;" x="116.64" xlink:href="#m6173894460" y="115.83373"/>
      </g>
     </g>
    </g>
    <g id="ytick_47">
     <g id="line2d_103">
      <g>
       <use style="stroke:#000000;stroke-width:0.6;" x="116.64" xlink:href="#m6173894460" y="110.835485"/>
      </g>
     </g>
    </g>
    <g id="ytick_48">
     <g id="line2d_104">
      <g>
       <use style="stroke:#000000;stroke-width:0.6;" x="116.64" xlink:href="#m6173894460" y="106.609528"/>
      </g>
     </g>
    </g>
    <g id="ytick_49">
     <g id="line2d_105">
      <g>
       <use style="stroke:#000000;stroke-width:0.6;" x="116.64" xlink:href="#m6173894460" y="102.948839"/>
      </g>
     </g>
    </g>
    <g id="ytick_50">
     <g id="line2d_106">
      <g>
       <use style="stroke:#000000;stroke-width:0.6;" x="116.64" xlink:href="#m6173894460" y="99.719882"/>
      </g>
     </g>
    </g>
    <g id="ytick_51">
     <g id="line2d_107">
      <g>
       <use style="stroke:#000000;stroke-width:0.6;" x="116.64" xlink:href="#m6173894460" y="77.829232"/>
      </g>
     </g>
    </g>
    <g id="ytick_52">
     <g id="line2d_108">
      <g>
       <use style="stroke:#000000;stroke-width:0.6;" x="116.64" xlink:href="#m6173894460" y="66.713629"/>
      </g>
     </g>
    </g>
    <g id="ytick_53">
     <g id="line2d_109">
      <g>
       <use style="stroke:#000000;stroke-width:0.6;" x="116.64" xlink:href="#m6173894460" y="58.826984"/>
      </g>
     </g>
    </g>
    <g id="text_14">
     <!-- New Cases For Last 7 Days -->
     <defs>
      <path d="M 9.8125 72.90625 
L 23.09375 72.90625 
L 55.421875 11.921875 
L 55.421875 72.90625 
L 64.984375 72.90625 
L 64.984375 0 
L 51.703125 0 
L 19.390625 60.984375 
L 19.390625 0 
L 9.8125 0 
z
" id="DejaVuSans-78"/>
      <path d="M 4.203125 54.6875 
L 13.1875 54.6875 
L 24.421875 12.015625 
L 35.59375 54.6875 
L 46.1875 54.6875 
L 57.421875 12.015625 
L 68.609375 54.6875 
L 77.59375 54.6875 
L 63.28125 0 
L 52.6875 0 
L 40.921875 44.828125 
L 29.109375 0 
L 18.5 0 
z
" id="DejaVuSans-119"/>
      <path d="M 9.8125 72.90625 
L 51.703125 72.90625 
L 51.703125 64.59375 
L 19.671875 64.59375 
L 19.671875 43.109375 
L 48.578125 43.109375 
L 48.578125 34.8125 
L 19.671875 34.8125 
L 19.671875 0 
L 9.8125 0 
z
" id="DejaVuSans-70"/>
      <path d="M 41.109375 46.296875 
Q 39.59375 47.171875 37.8125 47.578125 
Q 36.03125 48 33.890625 48 
Q 26.265625 48 22.1875 43.046875 
Q 18.109375 38.09375 18.109375 28.8125 
L 18.109375 0 
L 9.078125 0 
L 9.078125 54.6875 
L 18.109375 54.6875 
L 18.109375 46.1875 
Q 20.953125 51.171875 25.484375 53.578125 
Q 30.03125 56 36.53125 56 
Q 37.453125 56 38.578125 55.875 
Q 39.703125 55.765625 41.0625 55.515625 
z
" id="DejaVuSans-114"/>
      <path d="M 9.8125 72.90625 
L 19.671875 72.90625 
L 19.671875 8.296875 
L 55.171875 8.296875 
L 55.171875 0 
L 9.8125 0 
z
" id="DejaVuSans-76"/>
      <path d="M 8.203125 72.90625 
L 55.078125 72.90625 
L 55.078125 68.703125 
L 28.609375 0 
L 18.3125 0 
L 43.21875 64.59375 
L 8.203125 64.59375 
z
" id="DejaVuSans-55"/>
      <path d="M 19.671875 64.796875 
L 19.671875 8.109375 
L 31.59375 8.109375 
Q 46.6875 8.109375 53.6875 14.9375 
Q 60.6875 21.78125 60.6875 36.53125 
Q 60.6875 51.171875 53.6875 57.984375 
Q 46.6875 64.796875 31.59375 64.796875 
z
M 9.8125 72.90625 
L 30.078125 72.90625 
Q 51.265625 72.90625 61.171875 64.09375 
Q 71.09375 55.28125 71.09375 36.53125 
Q 71.09375 17.671875 61.125 8.828125 
Q 51.171875 0 30.078125 0 
L 9.8125 0 
z
" id="DejaVuSans-68"/>
      <path d="M 32.171875 -5.078125 
Q 28.375 -14.84375 24.75 -17.8125 
Q 21.140625 -20.796875 15.09375 -20.796875 
L 7.90625 -20.796875 
L 7.90625 -13.28125 
L 13.1875 -13.28125 
Q 16.890625 -13.28125 18.9375 -11.515625 
Q 21 -9.765625 23.484375 -3.21875 
L 25.09375 0.875 
L 2.984375 54.6875 
L 12.5 54.6875 
L 29.59375 11.921875 
L 46.6875 54.6875 
L 56.203125 54.6875 
z
" id="DejaVuSans-121"/>
     </defs>
     <g transform="translate(85.960313 311.367469)rotate(-90)scale(0.1 -0.1)">
      <use xlink:href="#DejaVuSans-78"/>
      <use x="74.804688" xlink:href="#DejaVuSans-101"/>
      <use x="136.328125" xlink:href="#DejaVuSans-119"/>
      <use x="218.115234" xlink:href="#DejaVuSans-32"/>
      <use x="249.902344" xlink:href="#DejaVuSans-67"/>
      <use x="319.726562" xlink:href="#DejaVuSans-97"/>
      <use x="381.005859" xlink:href="#DejaVuSans-115"/>
      <use x="433.105469" xlink:href="#DejaVuSans-101"/>
      <use x="494.628906" xlink:href="#DejaVuSans-115"/>
      <use x="546.728516" xlink:href="#DejaVuSans-32"/>
      <use x="578.515625" xlink:href="#DejaVuSans-70"/>
      <use x="635.988281" xlink:href="#DejaVuSans-111"/>
      <use x="697.169922" xlink:href="#DejaVuSans-114"/>
      <use x="738.283203" xlink:href="#DejaVuSans-32"/>
      <use x="770.070312" xlink:href="#DejaVuSans-76"/>
      <use x="825.783203" xlink:href="#DejaVuSans-97"/>
      <use x="887.0625" xlink:href="#DejaVuSans-115"/>
      <use x="939.162109" xlink:href="#DejaVuSans-116"/>
      <use x="978.371094" xlink:href="#DejaVuSans-32"/>
      <use x="1010.158203" xlink:href="#DejaVuSans-55"/>
      <use x="1073.78125" xlink:href="#DejaVuSans-32"/>
      <use x="1105.568359" xlink:href="#DejaVuSans-68"/>
      <use x="1182.570312" xlink:href="#DejaVuSans-97"/>
      <use x="1243.849609" xlink:href="#DejaVuSans-121"/>
      <use x="1303.029297" xlink:href="#DejaVuSans-115"/>
     </g>
    </g>
   </g>
   <g id="line2d_110">
    <path clip-path="url(#p767b6ac910)" d="M 296.125876 300.668554 
L 296.125876 483.4 
M 299.348827 483.4 
L 299.354396 374.447503 
L 311.112007 328.988092 
L 359.997161 273.837802 
L 364.146528 270.706025 
L 388.570696 253.723427 
L 403.801666 243.953764 
L 412.13146 238.779972 
L 429.241629 228.553565 
L 449.19752 217.116283 
L 469.240138 207.395639 
L 485.655167 197.524923 
L 523.557801 176.504925 
L 536.101674 169.302328 
L 547.320357 163.360558 
L 556.932188 158.654606 
L 575.471687 149.890644 
L 583.953615 147.20811 
L 592.48858 143.349673 
L 599.506109 140.527623 
L 604.760583 138.979632 
L 609.875909 137.342037 
L 613.448722 137.321618 
L 617.230954 137.1278 
L 620.188371 138.033153 
L 622.4723 140.405083 
L 636.823162 128.22481 
L 640.126584 127.379812 
L 643.502182 128.64503 
L 644.953515 129.463803 
L 646.253434 130.010071 
L 647.427198 130.266913 
L 647.687646 149.232058 
L 648.271595 156.071693 
L 649.222038 164.57269 
L 649.361155 171.280333 
L 649.688248 177.667315 
L 649.947108 185.762237 
L 650.222776 185.447807 
L 650.694534 193.090071 
L 651.175326 193.891229 
L 651.563189 213.602099 
L 651.71651 273.148094 
L 651.783286 267.477068 
L 652.039231 242.635783 
L 652.275837 234.263914 
L 652.343659 232.35328 
L 652.485004 234.305169 
L 652.544774 234.387868 
L 652.623558 237.965859 
L 652.725434 244.547174 
L 652.776589 242.691788 
L 652.827692 243.488115 
L 652.860346 244.367798 
L 652.907212 243.372928 
L 653.084186 236.856185 
L 653.113127 238.58623 
L 653.142642 240.381271 
L 653.349928 228.220861 
L 653.378714 232.623756 
L 653.480211 334.781015 
L 653.597874 303.096197 
" style="fill:none;stroke:#1f77b4;stroke-linecap:square;stroke-width:1.5;"/>
   </g>
   <g id="line2d_111">
    <path clip-path="url(#p767b6ac910)" d="M 255.795221 323.133076 
L 266.014666 320.139437 
L 276.997186 314.984089 
L 299.354396 301.137188 
L 319.049187 290.338519 
L 329.399356 285.128578 
L 342.050418 278.801147 
L 359.539323 268.897824 
L 375.836025 259.38352 
L 382.901076 255.72283 
L 394.339314 250.262575 
L 403.425959 246.34447 
L 417.443257 238.10778 
L 430.45421 230.820513 
L 435.174806 229.855996 
L 442.938027 226.992178 
L 445.849685 226.212863 
L 451.770374 224.198801 
L 460.187479 219.680681 
L 471.038895 214.489376 
L 475.963595 214.349455 
L 483.62754 209.053762 
L 486.603709 209.119583 
L 489.525022 207.488622 
L 494.3023 205.282357 
L 498.314977 204.983209 
L 501.872171 207.026829 
L 505.935148 205.32536 
L 509.140915 206.82911 
L 510.390566 207.613092 
L 512.849588 206.662915 
L 514.800726 208.388055 
L 517.612818 208.164392 
L 519.938192 208.355991 
L 521.358061 211.207031 
L 522.796523 213.274241 
L 523.533162 213.777272 
L 524.088649 217.248934 
L 524.750268 219.875111 
L 526.031794 223.327536 
L 527.036578 227.087202 
L 527.916159 228.620593 
L 528.699 230.893327 
L 529.673051 229.334462 
L 530.585506 227.374267 
L 531.481352 225.968089 
L 532.140972 228.088902 
L 532.498318 230.784178 
L 533.076911 231.933566 
L 533.608631 232.936175 
L 533.955515 236.31775 
L 534.253742 240.227113 
L 534.615805 244.189589 
L 535.105273 245.400137 
L 535.769641 242.412901 
L 536.120761 244.130442 
L 536.235131 247.994454 
L 536.399865 249.822761 
L 536.639642 250.336568 
L 537.121953 248.753141 
L 537.605756 248.544135 
L 537.956322 251.938424 
L 538.237424 252.654662 
L 538.346985 252.654662 
L 538.516931 252.493873 
L 538.837015 251.317107 
L 539.10716 253.891614 
L 539.393689 256.546699 
L 539.879351 254.316653 
L 540.202435 253.556265 
L 540.488498 251.087696 
L 540.604782 251.703777 
L 541.245213 247.522361 
L 541.593645 246.472876 
L 542.013049 244.848766 
L 542.198934 247.994454 
L 542.529535 247.723692 
L 542.957683 245.89973 
L 543.327221 243.08706 
L 543.584804 246.992596 
L 543.835607 247.994454 
L 544.031 250.709559 
L 544.322643 249.175995 
L 544.623273 249.389893 
L 544.804906 252.654662 
L 545.033663 254.661493 
L 545.187343 256.269316 
L 545.5143 254.835554 
L 545.901716 251.703777 
L 546.192882 251.548454 
L 546.373989 253.224968 
" style="fill:none;stroke:#ff7f0e;stroke-linecap:square;stroke-width:1.5;"/>
   </g>
   <g id="line2d_112">
    <path clip-path="url(#p767b6ac910)" d="M 149.511273 382.334148 
L 149.511273 483.4 
M 234.690045 483.4 
L 234.883624 340.103695 
L 310.492914 293.727328 
L 335.758806 279.222916 
L 362.873596 263.851015 
L 379.6483 254.402457 
L 390.324169 248.405678 
L 414.219545 235.016186 
L 429.575307 226.865989 
L 441.349542 221.768255 
L 461.218091 210.941642 
L 470.414363 206.859436 
L 480.558208 201.714926 
L 490.931095 195.962154 
L 501.872171 191.124098 
L 510.913534 186.859104 
L 522.637825 180.335169 
L 533.762362 175.433182 
L 544.494656 169.206117 
L 549.47642 167.310105 
L 559.581164 161.730722 
L 569.073764 156.714446 
L 576.739203 152.712448 
L 585.631222 148.34373 
L 591.795654 146.053203 
L 599.388395 142.637953 
L 605.229898 139.153652 
L 611.398633 136.824285 
L 618.235435 133.843131 
L 624.937301 130.42797 
L 631.362333 127.710126 
L 636.221809 125.488299 
L 640.054266 124.879878 
L 643.938109 123.596378 
L 647.511962 122.87599 
L 651.423446 122.293152 
L 654.936563 122.311895 
L 658.22352 122.719774 
L 660.924715 122.96261 
L 662.924007 123.493231 
L 664.846641 124.374365 
L 667.022541 124.696696 
L 669.05764 125.845401 
L 670.977841 126.952897 
L 672.912886 127.931715 
L 674.58843 128.710727 
L 675.943287 129.109139 
L 677.058985 130.026628 
L 678.432107 130.911193 
L 679.894225 131.35572 
L 681.229852 131.975006 
L 682.770932 132.084884 
L 684.076095 132.307969 
L 685.058669 132.757628 
L 685.967217 132.825819 
L 686.768488 134.043745 
L 687.884003 134.492714 
L 688.891235 134.993239 
L 689.877708 136.353193 
L 690.722847 137.591892 
L 691.33937 138.70171 
L 692.074977 139.010261 
L 692.968454 138.126962 
L 693.658786 139.574038 
L 694.435294 140.196282 
L 695.032735 141.751642 
L 695.614794 142.791429 
L 696.045878 143.559908 
L 696.55927 144.538935 
L 697.066153 146.622047 
L 697.516634 147.958759 
L 697.9851 149.894442 
L 698.433868 150.776459 
L 698.759372 152.674586 
L 699.043738 153.785642 
L 699.292749 156.105024 
L 699.625264 157.678717 
L 699.945744 158.893554 
L 700.247384 160.629984 
L 700.492197 163.02736 
L 700.672709 164.889208 
L 700.839576 166.501194 
L 701.152493 165.38598 
L 701.349665 167.310105 
L 701.568998 168.817036 
L 701.742753 170.934457 
L 701.934731 171.799023 
L 702.082319 172.340635 
L 702.180684 173.632573 
L 702.357507 176.429824 
L 702.50167 177.56811 
L 702.640447 179.455789 
L 702.780987 180.231588 
L 702.924775 181.441072 
L 703.038604 182.319386 
L 703.102798 183.271657 
L 703.18762 186.080314 
L 703.312131 186.662323 
L 703.438239 187.020496 
L 703.54771 188.039849 
L 703.635788 190.043297 
L 703.710827 191.528715 
L 703.748409 192.607746 
L 703.815479 193.329822 
L 703.883089 195.880715 
L 703.920329 200.473351 
L 704.029154 200.449324 
" style="fill:none;stroke:#2ca02c;stroke-linecap:square;stroke-width:1.5;"/>
   </g>
   <g id="line2d_113">
    <path clip-path="url(#p767b6ac910)" d="M 262.838256 319.210045 
L 281.688094 309.340768 
L 297.766604 301.137188 
L 313.513326 292.665991 
L 320.595407 289.092193 
L 325.424501 287.038815 
L 332.283202 285.660914 
L 337.588656 284.348968 
L 350.47387 278.180416 
L 352.372292 280.306632 
L 353.94319 284.348968 
L 357.183979 284.348968 
L 359.997161 283.841278 
L 362.224568 285.393454 
L 375.338038 273.663742 
L 375.338038 281.899621 
L 381.742969 274.906033 
L 381.742969 276.017582 
L 385.547055 273.490779 
L 390.324169 269.487405 
L 393.423617 267.201544 
L 396.12113 274.189275 
L 398.365955 270.706025 
L 399.807569 275.271564 
L 404.544582 267.477068 
L 408.696302 264.83903 
L 416.584794 257.782221 
L 417.937198 258.47131 
L 418.910453 259.486776 
L 419.797275 260.327131 
L 420.734775 260.327131 
L 422.493886 262.780466 
L 426.546474 260.649027 
L 428.169806 269.938063 
L 434.276291 258.371802 
L 437.775933 253.142766 
L 439.617767 251.01165 
L 442.768749 246.92709 
L 443.274844 247.926512 
L 444.35385 250.78477 
L 446.167217 249.533424 
L 449.271866 252.017088 
L 450.555071 255.098735 
L 451.023296 257.588478 
L 451.237907 264.83903 
L 451.309236 266.126329 
L 451.416037 269.338817 
L 451.664341 275.642036 
L 451.840937 295.592976 
L 452.087112 309.340768 
L 452.227232 315.778766 
L 452.2622 320.139437 
L 452.436668 317.440757 
L 452.714536 313.460672 
L 452.990844 312.729576 
L 453.53885 305.759887 
L 453.878281 304.130827 
L 453.878281 306.325154 
L 453.945887 305.759887 
L 453.945887 308.710523 
L 454.215387 308.710523 
L 454.349586 311.323399 
L 454.61689 317.440757 
L 454.716756 324.20829 
L 455.147182 312.729576 
L 455.180137 313.460672 
L 455.213069 312.729576 
L 455.213069 319.210045 
L 455.245979 322.098445 
L 455.44298 324.20829 
L 455.475737 326.494151 
L 455.508472 346.71502 
L 455.671822 338.212293 
L 455.73701 336.443005 
L 455.802113 333.214048 
L 455.867129 331.731825 
L 456.029295 333.214048 
L 456.029295 334.781015 
L 456.061664 334.781015 
L 456.094012 342.135324 
L 456.094012 346.71502 
L 456.094012 352.216297 
L 456.190928 349.327896 
L 456.223191 363.3319 
L 456.223191 363.3319 
" style="fill:none;stroke:#d62728;stroke-linecap:square;stroke-width:1.5;"/>
   </g>
   <g id="line2d_114">
    <path clip-path="url(#p767b6ac910)" d="M 174.652722 368.330145 
L 191.212972 363.3319 
L 203.581985 355.445254 
L 208.767543 359.105944 
L 208.767543 359.105944 
L 208.767543 382.334148 
L 213.458452 382.334148 
L 213.458452 382.334148 
L 231.899845 359.105944 
L 234.883624 359.105944 
L 237.696806 355.445254 
L 237.696806 355.445254 
L 237.696806 483.4 
M 242.874978 483.4 
L 242.882365 393.449751 
L 247.573273 374.447503 
L 247.573273 374.447503 
L 251.855736 363.3319 
L 251.855736 363.3319 
L 255.795221 355.445254 
L 255.795221 355.445254 
L 262.838256 355.445254 
L 264.452082 352.216297 
L 266.014666 355.445254 
L 268.998446 349.327896 
L 275.751112 342.135324 
L 276.997186 340.103695 
L 276.997186 344.329651 
L 278.212489 346.71502 
L 279.398505 346.71502 
L 281.688094 344.329651 
L 282.794147 346.71502 
L 282.794147 368.330145 
L 285.970558 355.445254 
L 285.970558 359.105944 
L 286.985383 359.105944 
L 290.847543 352.216297 
L 296.125876 340.103695 
L 296.125876 340.103695 
L 302.384109 327.712771 
L 309.230863 320.139437 
L 325.88234 300.207796 
L 325.88234 300.668554 
L 336.864859 291.644216 
L 343.025049 287.900073 
L 346.741326 284.606382 
L 354.963274 279.436259 
L 359.997161 277.176111 
L 364.146528 279.651276 
L 367.584039 276.207302 
L 370.429761 278.592671 
L 373.29412 279.01122 
L 377.13987 276.78447 
L 377.13987 283.34282 
L 379.6483 284.606382 
L 382.180459 285.128578 
L 382.180459 290.021585 
L 384.450246 289.708274 
L 385.547055 292.32115 
L 385.547055 301.613973 
L 386.884564 297.182665 
L 387.27883 303.096197 
L 387.669962 311.323399 
L 387.799652 310.646464 
L 387.799652 324.20829 
L 388.443025 327.712771 
L 388.825049 324.20829 
L 389.705075 331.731825 
L 389.705075 338.212293 
L 389.705075 338.212293 
L 390.077465 342.135324 
L 392.725488 317.440757 
L 392.9593 320.139437 
L 393.307948 319.210045 
L 393.654144 316.597168 
L 393.769003 318.31113 
L 393.769003 412.452 
L 394.111982 382.334148 
L 394.790852 352.216297 
L 394.790852 352.216297 
L 395.015077 346.71502 
L 395.015077 346.71502 
L 395.015077 483.4 
M 395.126682 483.4 
L 395.126808 412.452 
L 395.126808 483.4 
M 395.23816 483.4 
L 395.238285 412.452 
L 395.238285 412.452 
L 395.349511 393.449751 
L 395.349511 393.449751 
L 395.349511 412.452 
L 395.349511 412.452 
" style="fill:none;stroke:#9467bd;stroke-linecap:square;stroke-width:1.5;"/>
   </g>
   <g id="line2d_115">
    <path clip-path="url(#p767b6ac910)" d="M 174.652722 368.330145 
L 174.652722 374.447503 
L 174.652722 374.447503 
L 183.626094 368.330145 
L 191.212972 368.330145 
L 197.785024 363.3319 
L 213.458452 363.3319 
L 213.458452 363.3319 
L 217.740915 359.105944 
L 217.740915 412.452 
L 221.6804 393.449751 
L 221.6804 393.449751 
L 225.327793 393.449751 
L 228.723435 382.334148 
L 228.723435 382.334148 
L 228.723435 412.452 
L 231.899845 412.452 
L 270.425133 330.325648 
L 270.425133 330.325648 
L 290.847543 312.729576 
L 290.847543 312.729576 
L 296.125876 308.710523 
L 296.953077 308.710523 
L 301.643985 318.31113 
L 303.83178 315.778766 
L 316.359049 303.096197 
L 323.54933 305.206041 
L 333.077046 295.209551 
L 344.918255 286.203792 
L 363.725865 271.177346 
L 382.03506 258.77202 
L 394.22578 250.78477 
L 406.354245 244.071423 
L 421.524374 234.847222 
L 436.636813 225.968089 
L 448.786595 219.176769 
L 460.454562 213.274241 
L 473.642116 206.422962 
L 488.681702 197.763405 
L 500.788728 191.021742 
L 511.178229 185.720104 
L 526.990652 176.837837 
L 566.179867 153.648084 
L 581.929221 144.692465 
L 610.694912 128.559422 
L 624.327494 120.756853 
L 643.950914 110.936648 
L 654.647232 105.936033 
L 664.329391 101.266859 
L 672.925916 97.408275 
L 679.687844 94.76762 
L 686.608795 92.252671 
L 693.566728 88.729044 
L 700.142122 86.171618 
L 706.286853 84.023974 
L 718.113897 79.587995 
L 721.962832 78.57819 
L 726.227508 77.343393 
L 737.82512 75.154992 
L 741.440956 74.772 
L 744.150924 75.502708 
L 746.651423 75.224333 
L 748.812096 75.923469 
L 753.411574 76.81577 
L 755.789717 77.112476 
L 757.999804 77.746566 
L 760.254965 77.134251 
L 761.875149 77.540711 
L 763.660595 77.131177 
L 765.936883 75.779741 
L 766.975056 77.425796 
L 768.501494 78.12678 
L 769.69595 79.473067 
L 772.307511 77.290789 
L 773.695376 76.989233 
L 774.83074 77.733586 
L 776.017896 79.59238 
L 777.328489 78.204627 
L 778.724429 77.739733 
L 780.26225 76.069755 
L 781.551168 78.661994 
L 782.6241 78.929647 
L 784.559028 78.96377 
L 785.535202 79.424499 
L 786.65873 79.650328 
L 787.703084 80.695101 
L 788.675213 81.260292 
L 790.096756 82.72645 
L 790.895295 83.021876 
L 791.636302 83.581845 
L 794.29313 84.231981 
L 794.921897 84.472826 
L 795.639658 83.829984 
L 796.286895 84.186831 
L 797.030979 83.75757 
L 798.578852 84.285011 
L 799.227214 84.854839 
L 799.847142 84.556266 
L 800.414849 85.047147 
L 800.971574 85.236862 
L 801.5166 86.069048 
L 802.144237 86.746987 
L 802.863234 86.522088 
L 803.515197 86.136891 
L 804.062781 86.278491 
L 805.1942 85.604801 
L 805.720646 85.427357 
L 806.279408 85.550066 
L 806.936727 85.578966 
L 806.936727 85.578966 
" style="fill:none;stroke:#8c564b;stroke-linecap:square;stroke-width:1.5;"/>
   </g>
   <g id="patch_3">
    <path d="M 116.64 429.336 
L 116.64 57.888 
" style="fill:none;stroke:#000000;stroke-linecap:square;stroke-linejoin:miter;stroke-width:0.8;"/>
   </g>
   <g id="patch_4">
    <path d="M 839.808 429.336 
L 839.808 57.888 
" style="fill:none;stroke:#000000;stroke-linecap:square;stroke-linejoin:miter;stroke-width:0.8;"/>
   </g>
   <g id="patch_5">
    <path d="M 116.64 429.336 
L 839.808 429.336 
" style="fill:none;stroke:#000000;stroke-linecap:square;stroke-linejoin:miter;stroke-width:0.8;"/>
   </g>
   <g id="patch_6">
    <path d="M 116.64 57.888 
L 839.808 57.888 
" style="fill:none;stroke:#000000;stroke-linecap:square;stroke-linejoin:miter;stroke-width:0.8;"/>
   </g>
   <g id="text_15">
    <!-- COVID-19 cases, selected countries, data from ecdc.europa.eu as of 2020-06-06 -->
    <defs>
     <path d="M 39.40625 66.21875 
Q 28.65625 66.21875 22.328125 58.203125 
Q 16.015625 50.203125 16.015625 36.375 
Q 16.015625 22.609375 22.328125 14.59375 
Q 28.65625 6.59375 39.40625 6.59375 
Q 50.140625 6.59375 56.421875 14.59375 
Q 62.703125 22.609375 62.703125 36.375 
Q 62.703125 50.203125 56.421875 58.203125 
Q 50.140625 66.21875 39.40625 66.21875 
z
M 39.40625 74.21875 
Q 54.734375 74.21875 63.90625 63.9375 
Q 73.09375 53.65625 73.09375 36.375 
Q 73.09375 19.140625 63.90625 8.859375 
Q 54.734375 -1.421875 39.40625 -1.421875 
Q 24.03125 -1.421875 14.8125 8.828125 
Q 5.609375 19.09375 5.609375 36.375 
Q 5.609375 53.65625 14.8125 63.9375 
Q 24.03125 74.21875 39.40625 74.21875 
z
" id="DejaVuSans-79"/>
     <path d="M 28.609375 0 
L 0.78125 72.90625 
L 11.078125 72.90625 
L 34.1875 11.53125 
L 57.328125 72.90625 
L 67.578125 72.90625 
L 39.796875 0 
z
" id="DejaVuSans-86"/>
     <path d="M 9.8125 72.90625 
L 19.671875 72.90625 
L 19.671875 0 
L 9.8125 0 
z
" id="DejaVuSans-73"/>
     <path d="M 4.890625 31.390625 
L 31.203125 31.390625 
L 31.203125 23.390625 
L 4.890625 23.390625 
z
" id="DejaVuSans-45"/>
     <path d="M 10.984375 1.515625 
L 10.984375 10.5 
Q 14.703125 8.734375 18.5 7.8125 
Q 22.3125 6.890625 25.984375 6.890625 
Q 35.75 6.890625 40.890625 13.453125 
Q 46.046875 20.015625 46.78125 33.40625 
Q 43.953125 29.203125 39.59375 26.953125 
Q 35.25 24.703125 29.984375 24.703125 
Q 19.046875 24.703125 12.671875 31.3125 
Q 6.296875 37.9375 6.296875 49.421875 
Q 6.296875 60.640625 12.9375 67.421875 
Q 19.578125 74.21875 30.609375 74.21875 
Q 43.265625 74.21875 49.921875 64.515625 
Q 56.59375 54.828125 56.59375 36.375 
Q 56.59375 19.140625 48.40625 8.859375 
Q 40.234375 -1.421875 26.421875 -1.421875 
Q 22.703125 -1.421875 18.890625 -0.6875 
Q 15.09375 0.046875 10.984375 1.515625 
z
M 30.609375 32.421875 
Q 37.25 32.421875 41.125 36.953125 
Q 45.015625 41.5 45.015625 49.421875 
Q 45.015625 57.28125 41.125 61.84375 
Q 37.25 66.40625 30.609375 66.40625 
Q 23.96875 66.40625 20.09375 61.84375 
Q 16.21875 57.28125 16.21875 49.421875 
Q 16.21875 41.5 20.09375 36.953125 
Q 23.96875 32.421875 30.609375 32.421875 
z
" id="DejaVuSans-57"/>
     <path d="M 48.78125 52.59375 
L 48.78125 44.1875 
Q 44.96875 46.296875 41.140625 47.34375 
Q 37.3125 48.390625 33.40625 48.390625 
Q 24.65625 48.390625 19.8125 42.84375 
Q 14.984375 37.3125 14.984375 27.296875 
Q 14.984375 17.28125 19.8125 11.734375 
Q 24.65625 6.203125 33.40625 6.203125 
Q 37.3125 6.203125 41.140625 7.25 
Q 44.96875 8.296875 48.78125 10.40625 
L 48.78125 2.09375 
Q 45.015625 0.34375 40.984375 -0.53125 
Q 36.96875 -1.421875 32.421875 -1.421875 
Q 20.0625 -1.421875 12.78125 6.34375 
Q 5.515625 14.109375 5.515625 27.296875 
Q 5.515625 40.671875 12.859375 48.328125 
Q 20.21875 56 33.015625 56 
Q 37.15625 56 41.109375 55.140625 
Q 45.0625 54.296875 48.78125 52.59375 
z
" id="DejaVuSans-99"/>
     <path d="M 11.71875 12.40625 
L 22.015625 12.40625 
L 22.015625 4 
L 14.015625 -11.625 
L 7.71875 -11.625 
L 11.71875 4 
z
" id="DejaVuSans-44"/>
     <path d="M 45.40625 46.390625 
L 45.40625 75.984375 
L 54.390625 75.984375 
L 54.390625 0 
L 45.40625 0 
L 45.40625 8.203125 
Q 42.578125 3.328125 38.25 0.953125 
Q 33.9375 -1.421875 27.875 -1.421875 
Q 17.96875 -1.421875 11.734375 6.484375 
Q 5.515625 14.40625 5.515625 27.296875 
Q 5.515625 40.1875 11.734375 48.09375 
Q 17.96875 56 27.875 56 
Q 33.9375 56 38.25 53.625 
Q 42.578125 51.265625 45.40625 46.390625 
z
M 14.796875 27.296875 
Q 14.796875 17.390625 18.875 11.75 
Q 22.953125 6.109375 30.078125 6.109375 
Q 37.203125 6.109375 41.296875 11.75 
Q 45.40625 17.390625 45.40625 27.296875 
Q 45.40625 37.203125 41.296875 42.84375 
Q 37.203125 48.484375 30.078125 48.484375 
Q 22.953125 48.484375 18.875 42.84375 
Q 14.796875 37.203125 14.796875 27.296875 
z
" id="DejaVuSans-100"/>
     <path d="M 8.5 21.578125 
L 8.5 54.6875 
L 17.484375 54.6875 
L 17.484375 21.921875 
Q 17.484375 14.15625 20.5 10.265625 
Q 23.53125 6.390625 29.59375 6.390625 
Q 36.859375 6.390625 41.078125 11.03125 
Q 45.3125 15.671875 45.3125 23.6875 
L 45.3125 54.6875 
L 54.296875 54.6875 
L 54.296875 0 
L 45.3125 0 
L 45.3125 8.40625 
Q 42.046875 3.421875 37.71875 1 
Q 33.40625 -1.421875 27.6875 -1.421875 
Q 18.265625 -1.421875 13.375 4.4375 
Q 8.5 10.296875 8.5 21.578125 
z
M 31.109375 56 
z
" id="DejaVuSans-117"/>
     <path d="M 54.890625 33.015625 
L 54.890625 0 
L 45.90625 0 
L 45.90625 32.71875 
Q 45.90625 40.484375 42.875 44.328125 
Q 39.84375 48.1875 33.796875 48.1875 
Q 26.515625 48.1875 22.3125 43.546875 
Q 18.109375 38.921875 18.109375 30.90625 
L 18.109375 0 
L 9.078125 0 
L 9.078125 54.6875 
L 18.109375 54.6875 
L 18.109375 46.1875 
Q 21.34375 51.125 25.703125 53.5625 
Q 30.078125 56 35.796875 56 
Q 45.21875 56 50.046875 50.171875 
Q 54.890625 44.34375 54.890625 33.015625 
z
" id="DejaVuSans-110"/>
     <path d="M 9.421875 54.6875 
L 18.40625 54.6875 
L 18.40625 0 
L 9.421875 0 
z
M 9.421875 75.984375 
L 18.40625 75.984375 
L 18.40625 64.59375 
L 9.421875 64.59375 
z
" id="DejaVuSans-105"/>
     <path d="M 37.109375 75.984375 
L 37.109375 68.5 
L 28.515625 68.5 
Q 23.6875 68.5 21.796875 66.546875 
Q 19.921875 64.59375 19.921875 59.515625 
L 19.921875 54.6875 
L 34.71875 54.6875 
L 34.71875 47.703125 
L 19.921875 47.703125 
L 19.921875 0 
L 10.890625 0 
L 10.890625 47.703125 
L 2.296875 47.703125 
L 2.296875 54.6875 
L 10.890625 54.6875 
L 10.890625 58.5 
Q 10.890625 67.625 15.140625 71.796875 
Q 19.390625 75.984375 28.609375 75.984375 
z
" id="DejaVuSans-102"/>
     <path d="M 52 44.1875 
Q 55.375 50.25 60.0625 53.125 
Q 64.75 56 71.09375 56 
Q 79.640625 56 84.28125 50.015625 
Q 88.921875 44.046875 88.921875 33.015625 
L 88.921875 0 
L 79.890625 0 
L 79.890625 32.71875 
Q 79.890625 40.578125 77.09375 44.375 
Q 74.3125 48.1875 68.609375 48.1875 
Q 61.625 48.1875 57.5625 43.546875 
Q 53.515625 38.921875 53.515625 30.90625 
L 53.515625 0 
L 44.484375 0 
L 44.484375 32.71875 
Q 44.484375 40.625 41.703125 44.40625 
Q 38.921875 48.1875 33.109375 48.1875 
Q 26.21875 48.1875 22.15625 43.53125 
Q 18.109375 38.875 18.109375 30.90625 
L 18.109375 0 
L 9.078125 0 
L 9.078125 54.6875 
L 18.109375 54.6875 
L 18.109375 46.1875 
Q 21.1875 51.21875 25.484375 53.609375 
Q 29.78125 56 35.6875 56 
Q 41.65625 56 45.828125 52.96875 
Q 50 49.953125 52 44.1875 
z
" id="DejaVuSans-109"/>
     <path d="M 10.6875 12.40625 
L 21 12.40625 
L 21 0 
L 10.6875 0 
z
" id="DejaVuSans-46"/>
     <path d="M 18.109375 8.203125 
L 18.109375 -20.796875 
L 9.078125 -20.796875 
L 9.078125 54.6875 
L 18.109375 54.6875 
L 18.109375 46.390625 
Q 20.953125 51.265625 25.265625 53.625 
Q 29.59375 56 35.59375 56 
Q 45.5625 56 51.78125 48.09375 
Q 58.015625 40.1875 58.015625 27.296875 
Q 58.015625 14.40625 51.78125 6.484375 
Q 45.5625 -1.421875 35.59375 -1.421875 
Q 29.59375 -1.421875 25.265625 0.953125 
Q 20.953125 3.328125 18.109375 8.203125 
z
M 48.6875 27.296875 
Q 48.6875 37.203125 44.609375 42.84375 
Q 40.53125 48.484375 33.40625 48.484375 
Q 26.265625 48.484375 22.1875 42.84375 
Q 18.109375 37.203125 18.109375 27.296875 
Q 18.109375 17.390625 22.1875 11.75 
Q 26.265625 6.109375 33.40625 6.109375 
Q 40.53125 6.109375 44.609375 11.75 
Q 48.6875 17.390625 48.6875 27.296875 
z
" id="DejaVuSans-112"/>
    </defs>
    <g transform="translate(236.33025 25.01325)scale(0.12 -0.12)">
     <use xlink:href="#DejaVuSans-67"/>
     <use x="69.824219" xlink:href="#DejaVuSans-79"/>
     <use x="148.519531" xlink:href="#DejaVuSans-86"/>
     <use x="216.927734" xlink:href="#DejaVuSans-73"/>
     <use x="246.419922" xlink:href="#DejaVuSans-68"/>
     <use x="323.421875" xlink:href="#DejaVuSans-45"/>
     <use x="359.505859" xlink:href="#DejaVuSans-49"/>
     <use x="423.128906" xlink:href="#DejaVuSans-57"/>
     <use x="486.751953" xlink:href="#DejaVuSans-32"/>
     <use x="518.539062" xlink:href="#DejaVuSans-99"/>
     <use x="573.519531" xlink:href="#DejaVuSans-97"/>
     <use x="634.798828" xlink:href="#DejaVuSans-115"/>
     <use x="686.898438" xlink:href="#DejaVuSans-101"/>
     <use x="748.421875" xlink:href="#DejaVuSans-115"/>
     <use x="800.521484" xlink:href="#DejaVuSans-44"/>
     <use x="832.308594" xlink:href="#DejaVuSans-32"/>
     <use x="864.095703" xlink:href="#DejaVuSans-115"/>
     <use x="916.195312" xlink:href="#DejaVuSans-101"/>
     <use x="977.71875" xlink:href="#DejaVuSans-108"/>
     <use x="1005.501953" xlink:href="#DejaVuSans-101"/>
     <use x="1067.025391" xlink:href="#DejaVuSans-99"/>
     <use x="1122.005859" xlink:href="#DejaVuSans-116"/>
     <use x="1161.214844" xlink:href="#DejaVuSans-101"/>
     <use x="1222.738281" xlink:href="#DejaVuSans-100"/>
     <use x="1286.214844" xlink:href="#DejaVuSans-32"/>
     <use x="1318.001953" xlink:href="#DejaVuSans-99"/>
     <use x="1372.982422" xlink:href="#DejaVuSans-111"/>
     <use x="1434.164062" xlink:href="#DejaVuSans-117"/>
     <use x="1497.542969" xlink:href="#DejaVuSans-110"/>
     <use x="1560.921875" xlink:href="#DejaVuSans-116"/>
     <use x="1600.130859" xlink:href="#DejaVuSans-114"/>
     <use x="1641.244141" xlink:href="#DejaVuSans-105"/>
     <use x="1669.027344" xlink:href="#DejaVuSans-101"/>
     <use x="1730.550781" xlink:href="#DejaVuSans-115"/>
     <use x="1782.650391" xlink:href="#DejaVuSans-44"/>
     <use x="1814.4375" xlink:href="#DejaVuSans-32"/>
     <use x="1846.224609" xlink:href="#DejaVuSans-100"/>
     <use x="1909.701172" xlink:href="#DejaVuSans-97"/>
     <use x="1970.980469" xlink:href="#DejaVuSans-116"/>
     <use x="2010.189453" xlink:href="#DejaVuSans-97"/>
     <use x="2071.46875" xlink:href="#DejaVuSans-32"/>
     <use x="2103.255859" xlink:href="#DejaVuSans-102"/>
     <use x="2138.460938" xlink:href="#DejaVuSans-114"/>
     <use x="2179.542969" xlink:href="#DejaVuSans-111"/>
     <use x="2240.724609" xlink:href="#DejaVuSans-109"/>
     <use x="2338.136719" xlink:href="#DejaVuSans-32"/>
     <use x="2369.923828" xlink:href="#DejaVuSans-101"/>
     <use x="2431.447266" xlink:href="#DejaVuSans-99"/>
     <use x="2486.427734" xlink:href="#DejaVuSans-100"/>
     <use x="2549.904297" xlink:href="#DejaVuSans-99"/>
     <use x="2604.884766" xlink:href="#DejaVuSans-46"/>
     <use x="2636.671875" xlink:href="#DejaVuSans-101"/>
     <use x="2698.195312" xlink:href="#DejaVuSans-117"/>
     <use x="2761.574219" xlink:href="#DejaVuSans-114"/>
     <use x="2802.65625" xlink:href="#DejaVuSans-111"/>
     <use x="2863.837891" xlink:href="#DejaVuSans-112"/>
     <use x="2927.314453" xlink:href="#DejaVuSans-97"/>
     <use x="2988.59375" xlink:href="#DejaVuSans-46"/>
     <use x="3020.380859" xlink:href="#DejaVuSans-101"/>
     <use x="3081.904297" xlink:href="#DejaVuSans-117"/>
     <use x="3145.283203" xlink:href="#DejaVuSans-32"/>
     <use x="3177.070312" xlink:href="#DejaVuSans-97"/>
     <use x="3238.349609" xlink:href="#DejaVuSans-115"/>
     <use x="3290.449219" xlink:href="#DejaVuSans-32"/>
     <use x="3322.236328" xlink:href="#DejaVuSans-111"/>
     <use x="3383.417969" xlink:href="#DejaVuSans-102"/>
     <use x="3418.623047" xlink:href="#DejaVuSans-32"/>
     <use x="3450.410156" xlink:href="#DejaVuSans-50"/>
     <use x="3514.033203" xlink:href="#DejaVuSans-48"/>
     <use x="3577.65625" xlink:href="#DejaVuSans-50"/>
     <use x="3641.279297" xlink:href="#DejaVuSans-48"/>
     <use x="3704.902344" xlink:href="#DejaVuSans-45"/>
     <use x="3740.986328" xlink:href="#DejaVuSans-48"/>
     <use x="3804.609375" xlink:href="#DejaVuSans-54"/>
     <use x="3868.232422" xlink:href="#DejaVuSans-45"/>
     <use x="3904.316406" xlink:href="#DejaVuSans-48"/>
     <use x="3967.939453" xlink:href="#DejaVuSans-54"/>
    </g>
    <!-- Logarithmic Scale New vs. Total Cases -->
    <defs>
     <path d="M 45.40625 27.984375 
Q 45.40625 37.75 41.375 43.109375 
Q 37.359375 48.484375 30.078125 48.484375 
Q 22.859375 48.484375 18.828125 43.109375 
Q 14.796875 37.75 14.796875 27.984375 
Q 14.796875 18.265625 18.828125 12.890625 
Q 22.859375 7.515625 30.078125 7.515625 
Q 37.359375 7.515625 41.375 12.890625 
Q 45.40625 18.265625 45.40625 27.984375 
z
M 54.390625 6.78125 
Q 54.390625 -7.171875 48.1875 -13.984375 
Q 42 -20.796875 29.203125 -20.796875 
Q 24.46875 -20.796875 20.265625 -20.09375 
Q 16.0625 -19.390625 12.109375 -17.921875 
L 12.109375 -9.1875 
Q 16.0625 -11.328125 19.921875 -12.34375 
Q 23.78125 -13.375 27.78125 -13.375 
Q 36.625 -13.375 41.015625 -8.765625 
Q 45.40625 -4.15625 45.40625 5.171875 
L 45.40625 9.625 
Q 42.625 4.78125 38.28125 2.390625 
Q 33.9375 0 27.875 0 
Q 17.828125 0 11.671875 7.65625 
Q 5.515625 15.328125 5.515625 27.984375 
Q 5.515625 40.671875 11.671875 48.328125 
Q 17.828125 56 27.875 56 
Q 33.9375 56 38.28125 53.609375 
Q 42.625 51.21875 45.40625 46.390625 
L 45.40625 54.6875 
L 54.390625 54.6875 
z
" id="DejaVuSans-103"/>
     <path d="M 54.890625 33.015625 
L 54.890625 0 
L 45.90625 0 
L 45.90625 32.71875 
Q 45.90625 40.484375 42.875 44.328125 
Q 39.84375 48.1875 33.796875 48.1875 
Q 26.515625 48.1875 22.3125 43.546875 
Q 18.109375 38.921875 18.109375 30.90625 
L 18.109375 0 
L 9.078125 0 
L 9.078125 75.984375 
L 18.109375 75.984375 
L 18.109375 46.1875 
Q 21.34375 51.125 25.703125 53.5625 
Q 30.078125 56 35.796875 56 
Q 45.21875 56 50.046875 50.171875 
Q 54.890625 44.34375 54.890625 33.015625 
z
" id="DejaVuSans-104"/>
     <path d="M 53.515625 70.515625 
L 53.515625 60.890625 
Q 47.90625 63.578125 42.921875 64.890625 
Q 37.9375 66.21875 33.296875 66.21875 
Q 25.25 66.21875 20.875 63.09375 
Q 16.5 59.96875 16.5 54.203125 
Q 16.5 49.359375 19.40625 46.890625 
Q 22.3125 44.4375 30.421875 42.921875 
L 36.375 41.703125 
Q 47.40625 39.59375 52.65625 34.296875 
Q 57.90625 29 57.90625 20.125 
Q 57.90625 9.515625 50.796875 4.046875 
Q 43.703125 -1.421875 29.984375 -1.421875 
Q 24.8125 -1.421875 18.96875 -0.25 
Q 13.140625 0.921875 6.890625 3.21875 
L 6.890625 13.375 
Q 12.890625 10.015625 18.65625 8.296875 
Q 24.421875 6.59375 29.984375 6.59375 
Q 38.421875 6.59375 43.015625 9.90625 
Q 47.609375 13.234375 47.609375 19.390625 
Q 47.609375 24.75 44.3125 27.78125 
Q 41.015625 30.8125 33.5 32.328125 
L 27.484375 33.5 
Q 16.453125 35.6875 11.515625 40.375 
Q 6.59375 45.0625 6.59375 53.421875 
Q 6.59375 63.09375 13.40625 68.65625 
Q 20.21875 74.21875 32.171875 74.21875 
Q 37.3125 74.21875 42.625 73.28125 
Q 47.953125 72.359375 53.515625 70.515625 
z
" id="DejaVuSans-83"/>
     <path d="M 2.984375 54.6875 
L 12.5 54.6875 
L 29.59375 8.796875 
L 46.6875 54.6875 
L 56.203125 54.6875 
L 35.6875 0 
L 23.484375 0 
z
" id="DejaVuSans-118"/>
    </defs>
    <g transform="translate(362.451188 38.450625)scale(0.12 -0.12)">
     <use xlink:href="#DejaVuSans-76"/>
     <use x="55.697266" xlink:href="#DejaVuSans-111"/>
     <use x="116.878906" xlink:href="#DejaVuSans-103"/>
     <use x="180.355469" xlink:href="#DejaVuSans-97"/>
     <use x="241.634766" xlink:href="#DejaVuSans-114"/>
     <use x="282.748047" xlink:href="#DejaVuSans-105"/>
     <use x="310.53125" xlink:href="#DejaVuSans-116"/>
     <use x="349.740234" xlink:href="#DejaVuSans-104"/>
     <use x="413.119141" xlink:href="#DejaVuSans-109"/>
     <use x="510.53125" xlink:href="#DejaVuSans-105"/>
     <use x="538.314453" xlink:href="#DejaVuSans-99"/>
     <use x="593.294922" xlink:href="#DejaVuSans-32"/>
     <use x="625.082031" xlink:href="#DejaVuSans-83"/>
     <use x="688.558594" xlink:href="#DejaVuSans-99"/>
     <use x="743.539062" xlink:href="#DejaVuSans-97"/>
     <use x="804.818359" xlink:href="#DejaVuSans-108"/>
     <use x="832.601562" xlink:href="#DejaVuSans-101"/>
     <use x="894.125" xlink:href="#DejaVuSans-32"/>
     <use x="925.912109" xlink:href="#DejaVuSans-78"/>
     <use x="1000.716797" xlink:href="#DejaVuSans-101"/>
     <use x="1062.240234" xlink:href="#DejaVuSans-119"/>
     <use x="1144.027344" xlink:href="#DejaVuSans-32"/>
     <use x="1175.814453" xlink:href="#DejaVuSans-118"/>
     <use x="1234.994141" xlink:href="#DejaVuSans-115"/>
     <use x="1287.09375" xlink:href="#DejaVuSans-46"/>
     <use x="1318.880859" xlink:href="#DejaVuSans-32"/>
     <use x="1350.667969" xlink:href="#DejaVuSans-84"/>
     <use x="1411.486328" xlink:href="#DejaVuSans-111"/>
     <use x="1472.667969" xlink:href="#DejaVuSans-116"/>
     <use x="1511.876953" xlink:href="#DejaVuSans-97"/>
     <use x="1573.15625" xlink:href="#DejaVuSans-108"/>
     <use x="1600.939453" xlink:href="#DejaVuSans-32"/>
     <use x="1632.726562" xlink:href="#DejaVuSans-67"/>
     <use x="1702.550781" xlink:href="#DejaVuSans-97"/>
     <use x="1763.830078" xlink:href="#DejaVuSans-115"/>
     <use x="1815.929688" xlink:href="#DejaVuSans-101"/>
     <use x="1877.453125" xlink:href="#DejaVuSans-115"/>
    </g>
    <!-- https://github.com/PavelDusek/COVID-19 -->
    <defs>
     <path d="M 11.71875 12.40625 
L 22.015625 12.40625 
L 22.015625 0 
L 11.71875 0 
z
M 11.71875 51.703125 
L 22.015625 51.703125 
L 22.015625 39.3125 
L 11.71875 39.3125 
z
" id="DejaVuSans-58"/>
     <path d="M 25.390625 72.90625 
L 33.6875 72.90625 
L 8.296875 -9.28125 
L 0 -9.28125 
z
" id="DejaVuSans-47"/>
     <path d="M 48.6875 27.296875 
Q 48.6875 37.203125 44.609375 42.84375 
Q 40.53125 48.484375 33.40625 48.484375 
Q 26.265625 48.484375 22.1875 42.84375 
Q 18.109375 37.203125 18.109375 27.296875 
Q 18.109375 17.390625 22.1875 11.75 
Q 26.265625 6.109375 33.40625 6.109375 
Q 40.53125 6.109375 44.609375 11.75 
Q 48.6875 17.390625 48.6875 27.296875 
z
M 18.109375 46.390625 
Q 20.953125 51.265625 25.265625 53.625 
Q 29.59375 56 35.59375 56 
Q 45.5625 56 51.78125 48.09375 
Q 58.015625 40.1875 58.015625 27.296875 
Q 58.015625 14.40625 51.78125 6.484375 
Q 45.5625 -1.421875 35.59375 -1.421875 
Q 29.59375 -1.421875 25.265625 0.953125 
Q 20.953125 3.328125 18.109375 8.203125 
L 18.109375 0 
L 9.078125 0 
L 9.078125 75.984375 
L 18.109375 75.984375 
z
" id="DejaVuSans-98"/>
     <path d="M 19.671875 64.796875 
L 19.671875 37.40625 
L 32.078125 37.40625 
Q 38.96875 37.40625 42.71875 40.96875 
Q 46.484375 44.53125 46.484375 51.125 
Q 46.484375 57.671875 42.71875 61.234375 
Q 38.96875 64.796875 32.078125 64.796875 
z
M 9.8125 72.90625 
L 32.078125 72.90625 
Q 44.34375 72.90625 50.609375 67.359375 
Q 56.890625 61.8125 56.890625 51.125 
Q 56.890625 40.328125 50.609375 34.8125 
Q 44.34375 29.296875 32.078125 29.296875 
L 19.671875 29.296875 
L 19.671875 0 
L 9.8125 0 
z
" id="DejaVuSans-80"/>
     <path d="M 9.078125 75.984375 
L 18.109375 75.984375 
L 18.109375 31.109375 
L 44.921875 54.6875 
L 56.390625 54.6875 
L 27.390625 29.109375 
L 57.625 0 
L 45.90625 0 
L 18.109375 26.703125 
L 18.109375 0 
L 9.078125 0 
z
" id="DejaVuSans-107"/>
    </defs>
    <g transform="translate(354.591188 51.888)scale(0.12 -0.12)">
     <use xlink:href="#DejaVuSans-104"/>
     <use x="63.378906" xlink:href="#DejaVuSans-116"/>
     <use x="102.587891" xlink:href="#DejaVuSans-116"/>
     <use x="141.796875" xlink:href="#DejaVuSans-112"/>
     <use x="205.273438" xlink:href="#DejaVuSans-115"/>
     <use x="257.373047" xlink:href="#DejaVuSans-58"/>
     <use x="291.064453" xlink:href="#DejaVuSans-47"/>
     <use x="324.755859" xlink:href="#DejaVuSans-47"/>
     <use x="358.447266" xlink:href="#DejaVuSans-103"/>
     <use x="421.923828" xlink:href="#DejaVuSans-105"/>
     <use x="449.707031" xlink:href="#DejaVuSans-116"/>
     <use x="488.916016" xlink:href="#DejaVuSans-104"/>
     <use x="552.294922" xlink:href="#DejaVuSans-117"/>
     <use x="615.673828" xlink:href="#DejaVuSans-98"/>
     <use x="679.150391" xlink:href="#DejaVuSans-46"/>
     <use x="710.9375" xlink:href="#DejaVuSans-99"/>
     <use x="765.917969" xlink:href="#DejaVuSans-111"/>
     <use x="827.099609" xlink:href="#DejaVuSans-109"/>
     <use x="924.511719" xlink:href="#DejaVuSans-47"/>
     <use x="958.203125" xlink:href="#DejaVuSans-80"/>
     <use x="1018.443359" xlink:href="#DejaVuSans-97"/>
     <use x="1079.722656" xlink:href="#DejaVuSans-118"/>
     <use x="1138.902344" xlink:href="#DejaVuSans-101"/>
     <use x="1200.425781" xlink:href="#DejaVuSans-108"/>
     <use x="1228.208984" xlink:href="#DejaVuSans-68"/>
     <use x="1305.210938" xlink:href="#DejaVuSans-117"/>
     <use x="1368.589844" xlink:href="#DejaVuSans-115"/>
     <use x="1420.689453" xlink:href="#DejaVuSans-101"/>
     <use x="1482.212891" xlink:href="#DejaVuSans-107"/>
     <use x="1540.123047" xlink:href="#DejaVuSans-47"/>
     <use x="1573.814453" xlink:href="#DejaVuSans-67"/>
     <use x="1643.638672" xlink:href="#DejaVuSans-79"/>
     <use x="1722.333984" xlink:href="#DejaVuSans-86"/>
     <use x="1790.742188" xlink:href="#DejaVuSans-73"/>
     <use x="1820.234375" xlink:href="#DejaVuSans-68"/>
     <use x="1897.236328" xlink:href="#DejaVuSans-45"/>
     <use x="1933.320312" xlink:href="#DejaVuSans-49"/>
     <use x="1996.943359" xlink:href="#DejaVuSans-57"/>
    </g>
   </g>
   <g id="legend_1">
    <g id="patch_7">
     <path d="M 123.64 153.95675 
L 280.599375 153.95675 
Q 282.599375 153.95675 282.599375 151.95675 
L 282.599375 64.888 
Q 282.599375 62.888 280.599375 62.888 
L 123.64 62.888 
Q 121.64 62.888 121.64 64.888 
L 121.64 151.95675 
Q 121.64 153.95675 123.64 153.95675 
z
" style="fill:#ffffff;opacity:0.8;stroke:#cccccc;stroke-linejoin:miter;"/>
    </g>
    <g id="line2d_116">
     <path d="M 125.64 70.986437 
L 145.64 70.986437 
" style="fill:none;stroke:#1f77b4;stroke-linecap:square;stroke-width:1.5;"/>
    </g>
    <g id="line2d_117"/>
    <g id="text_16">
     <!-- China -->
     <g transform="translate(153.64 74.486437)scale(0.1 -0.1)">
      <use xlink:href="#DejaVuSans-67"/>
      <use x="69.824219" xlink:href="#DejaVuSans-104"/>
      <use x="133.203125" xlink:href="#DejaVuSans-105"/>
      <use x="160.986328" xlink:href="#DejaVuSans-110"/>
      <use x="224.365234" xlink:href="#DejaVuSans-97"/>
     </g>
    </g>
    <g id="line2d_118">
     <path d="M 125.64 85.664562 
L 145.64 85.664562 
" style="fill:none;stroke:#ff7f0e;stroke-linecap:square;stroke-width:1.5;"/>
    </g>
    <g id="line2d_119"/>
    <g id="text_17">
     <!-- Czech Republic -->
     <defs>
      <path d="M 5.515625 54.6875 
L 48.1875 54.6875 
L 48.1875 46.484375 
L 14.40625 7.171875 
L 48.1875 7.171875 
L 48.1875 0 
L 4.296875 0 
L 4.296875 8.203125 
L 38.09375 47.515625 
L 5.515625 47.515625 
z
" id="DejaVuSans-122"/>
      <path d="M 44.390625 34.1875 
Q 47.5625 33.109375 50.5625 29.59375 
Q 53.5625 26.078125 56.59375 19.921875 
L 66.609375 0 
L 56 0 
L 46.6875 18.703125 
Q 43.0625 26.03125 39.671875 28.421875 
Q 36.28125 30.8125 30.421875 30.8125 
L 19.671875 30.8125 
L 19.671875 0 
L 9.8125 0 
L 9.8125 72.90625 
L 32.078125 72.90625 
Q 44.578125 72.90625 50.734375 67.671875 
Q 56.890625 62.453125 56.890625 51.90625 
Q 56.890625 45.015625 53.6875 40.46875 
Q 50.484375 35.9375 44.390625 34.1875 
z
M 19.671875 64.796875 
L 19.671875 38.921875 
L 32.078125 38.921875 
Q 39.203125 38.921875 42.84375 42.21875 
Q 46.484375 45.515625 46.484375 51.90625 
Q 46.484375 58.296875 42.84375 61.546875 
Q 39.203125 64.796875 32.078125 64.796875 
z
" id="DejaVuSans-82"/>
     </defs>
     <g transform="translate(153.64 89.164562)scale(0.1 -0.1)">
      <use xlink:href="#DejaVuSans-67"/>
      <use x="69.824219" xlink:href="#DejaVuSans-122"/>
      <use x="122.314453" xlink:href="#DejaVuSans-101"/>
      <use x="183.837891" xlink:href="#DejaVuSans-99"/>
      <use x="238.818359" xlink:href="#DejaVuSans-104"/>
      <use x="302.197266" xlink:href="#DejaVuSans-32"/>
      <use x="333.984375" xlink:href="#DejaVuSans-82"/>
      <use x="403.404297" xlink:href="#DejaVuSans-101"/>
      <use x="464.927734" xlink:href="#DejaVuSans-112"/>
      <use x="528.404297" xlink:href="#DejaVuSans-117"/>
      <use x="591.783203" xlink:href="#DejaVuSans-98"/>
      <use x="655.259766" xlink:href="#DejaVuSans-108"/>
      <use x="683.042969" xlink:href="#DejaVuSans-105"/>
      <use x="710.826172" xlink:href="#DejaVuSans-99"/>
     </g>
    </g>
    <g id="line2d_120">
     <path d="M 125.64 100.342687 
L 145.64 100.342687 
" style="fill:none;stroke:#2ca02c;stroke-linecap:square;stroke-width:1.5;"/>
    </g>
    <g id="line2d_121"/>
    <g id="text_18">
     <!-- Italy -->
     <g transform="translate(153.64 103.842687)scale(0.1 -0.1)">
      <use xlink:href="#DejaVuSans-73"/>
      <use x="29.492188" xlink:href="#DejaVuSans-116"/>
      <use x="68.701172" xlink:href="#DejaVuSans-97"/>
      <use x="129.980469" xlink:href="#DejaVuSans-108"/>
      <use x="157.763672" xlink:href="#DejaVuSans-121"/>
     </g>
    </g>
    <g id="line2d_122">
     <path d="M 125.64 115.020812 
L 145.64 115.020812 
" style="fill:none;stroke:#d62728;stroke-linecap:square;stroke-width:1.5;"/>
    </g>
    <g id="line2d_123"/>
    <g id="text_19">
     <!-- Slovakia -->
     <g transform="translate(153.64 118.520812)scale(0.1 -0.1)">
      <use xlink:href="#DejaVuSans-83"/>
      <use x="63.476562" xlink:href="#DejaVuSans-108"/>
      <use x="91.259766" xlink:href="#DejaVuSans-111"/>
      <use x="152.441406" xlink:href="#DejaVuSans-118"/>
      <use x="211.621094" xlink:href="#DejaVuSans-97"/>
      <use x="272.900391" xlink:href="#DejaVuSans-107"/>
      <use x="330.810547" xlink:href="#DejaVuSans-105"/>
      <use x="358.59375" xlink:href="#DejaVuSans-97"/>
     </g>
    </g>
    <g id="line2d_124">
     <path d="M 125.64 129.698937 
L 145.64 129.698937 
" style="fill:none;stroke:#9467bd;stroke-linecap:square;stroke-width:1.5;"/>
    </g>
    <g id="line2d_125"/>
    <g id="text_20">
     <!-- Taiwan -->
     <g transform="translate(153.64 133.198937)scale(0.1 -0.1)">
      <use xlink:href="#DejaVuSans-84"/>
      <use x="60.833984" xlink:href="#DejaVuSans-97"/>
      <use x="122.113281" xlink:href="#DejaVuSans-105"/>
      <use x="149.896484" xlink:href="#DejaVuSans-119"/>
      <use x="231.683594" xlink:href="#DejaVuSans-97"/>
      <use x="292.962891" xlink:href="#DejaVuSans-110"/>
     </g>
    </g>
    <g id="line2d_126">
     <path d="M 125.64 144.377062 
L 145.64 144.377062 
" style="fill:none;stroke:#8c564b;stroke-linecap:square;stroke-width:1.5;"/>
    </g>
    <g id="line2d_127"/>
    <g id="text_21">
     <!-- United States of America -->
     <defs>
      <path d="M 8.6875 72.90625 
L 18.609375 72.90625 
L 18.609375 28.609375 
Q 18.609375 16.890625 22.84375 11.734375 
Q 27.09375 6.59375 36.625 6.59375 
Q 46.09375 6.59375 50.34375 11.734375 
Q 54.59375 16.890625 54.59375 28.609375 
L 54.59375 72.90625 
L 64.5 72.90625 
L 64.5 27.390625 
Q 64.5 13.140625 57.4375 5.859375 
Q 50.390625 -1.421875 36.625 -1.421875 
Q 22.796875 -1.421875 15.734375 5.859375 
Q 8.6875 13.140625 8.6875 27.390625 
z
" id="DejaVuSans-85"/>
      <path d="M 34.1875 63.1875 
L 20.796875 26.90625 
L 47.609375 26.90625 
z
M 28.609375 72.90625 
L 39.796875 72.90625 
L 67.578125 0 
L 57.328125 0 
L 50.6875 18.703125 
L 17.828125 18.703125 
L 11.1875 0 
L 0.78125 0 
z
" id="DejaVuSans-65"/>
     </defs>
     <g transform="translate(153.64 147.877062)scale(0.1 -0.1)">
      <use xlink:href="#DejaVuSans-85"/>
      <use x="73.193359" xlink:href="#DejaVuSans-110"/>
      <use x="136.572266" xlink:href="#DejaVuSans-105"/>
      <use x="164.355469" xlink:href="#DejaVuSans-116"/>
      <use x="203.564453" xlink:href="#DejaVuSans-101"/>
      <use x="265.087891" xlink:href="#DejaVuSans-100"/>
      <use x="328.564453" xlink:href="#DejaVuSans-32"/>
      <use x="360.351562" xlink:href="#DejaVuSans-83"/>
      <use x="423.828125" xlink:href="#DejaVuSans-116"/>
      <use x="463.037109" xlink:href="#DejaVuSans-97"/>
      <use x="524.316406" xlink:href="#DejaVuSans-116"/>
      <use x="563.525391" xlink:href="#DejaVuSans-101"/>
      <use x="625.048828" xlink:href="#DejaVuSans-115"/>
      <use x="677.148438" xlink:href="#DejaVuSans-32"/>
      <use x="708.935547" xlink:href="#DejaVuSans-111"/>
      <use x="770.117188" xlink:href="#DejaVuSans-102"/>
      <use x="805.322266" xlink:href="#DejaVuSans-32"/>
      <use x="837.109375" xlink:href="#DejaVuSans-65"/>
      <use x="905.517578" xlink:href="#DejaVuSans-109"/>
      <use x="1002.929688" xlink:href="#DejaVuSans-101"/>
      <use x="1064.453125" xlink:href="#DejaVuSans-114"/>
      <use x="1105.566406" xlink:href="#DejaVuSans-105"/>
      <use x="1133.349609" xlink:href="#DejaVuSans-99"/>
      <use x="1188.330078" xlink:href="#DejaVuSans-97"/>
     </g>
    </g>
   </g>
  </g>
 </g>
 <defs>
  <clipPath id="p767b6ac910">
   <rect height="371.448" width="723.168" x="116.64" y="57.888"/>
  </clipPath>
 </defs>
</svg>
