<?xml version="1.0" encoding="utf-8" standalone="no"?>
<!DOCTYPE svg PUBLIC "-//W3C//DTD SVG 1.1//EN"
  "http://www.w3.org/Graphics/SVG/1.1/DTD/svg11.dtd">
<!-- Created with matplotlib (https://matplotlib.org/) -->
<svg height="482.4pt" version="1.1" viewBox="0 0 933.12 482.4" width="933.12pt" xmlns="http://www.w3.org/2000/svg" xmlns:xlink="http://www.w3.org/1999/xlink">
 <defs>
  <style type="text/css">
*{stroke-linecap:butt;stroke-linejoin:round;}
  </style>
 </defs>
 <g id="figure_1">
  <g id="patch_1">
   <path d="M 0 482.4 
L 933.12 482.4 
L 933.12 0 
L 0 0 
z
" style="fill:#ffffff;"/>
  </g>
  <g id="axes_1">
   <g id="patch_2">
    <path d="M 116.64 429.336 
L 839.808 429.336 
L 839.808 57.888 
L 116.64 57.888 
z
" style="fill:#ffffff;"/>
   </g>
   <g id="matplotlib.axis_1">
    <g id="xtick_1">
     <g id="line2d_1">
      <defs>
       <path d="M 0 0 
L 0 3.5 
" id="mc63f93e78b" style="stroke:#000000;stroke-width:0.8;"/>
      </defs>
      <g>
       <use style="stroke:#000000;stroke-width:0.8;" x="213.127992" xlink:href="#mc63f93e78b" y="429.336"/>
      </g>
     </g>
     <g id="text_1">
      <!-- $\mathdefault{10^{1}}$ -->
      <defs>
       <path d="M 12.40625 8.296875 
L 28.515625 8.296875 
L 28.515625 63.921875 
L 10.984375 60.40625 
L 10.984375 69.390625 
L 28.421875 72.90625 
L 38.28125 72.90625 
L 38.28125 8.296875 
L 54.390625 8.296875 
L 54.390625 0 
L 12.40625 0 
z
" id="DejaVuSans-49"/>
       <path d="M 31.78125 66.40625 
Q 24.171875 66.40625 20.328125 58.90625 
Q 16.5 51.421875 16.5 36.375 
Q 16.5 21.390625 20.328125 13.890625 
Q 24.171875 6.390625 31.78125 6.390625 
Q 39.453125 6.390625 43.28125 13.890625 
Q 47.125 21.390625 47.125 36.375 
Q 47.125 51.421875 43.28125 58.90625 
Q 39.453125 66.40625 31.78125 66.40625 
z
M 31.78125 74.21875 
Q 44.046875 74.21875 50.515625 64.515625 
Q 56.984375 54.828125 56.984375 36.375 
Q 56.984375 17.96875 50.515625 8.265625 
Q 44.046875 -1.421875 31.78125 -1.421875 
Q 19.53125 -1.421875 13.0625 8.265625 
Q 6.59375 17.96875 6.59375 36.375 
Q 6.59375 54.828125 13.0625 64.515625 
Q 19.53125 74.21875 31.78125 74.21875 
z
" id="DejaVuSans-48"/>
      </defs>
      <g transform="translate(204.327992 443.934438)scale(0.1 -0.1)">
       <use transform="translate(0 0.684375)" xlink:href="#DejaVuSans-49"/>
       <use transform="translate(63.623047 0.684375)" xlink:href="#DejaVuSans-48"/>
       <use transform="translate(128.203125 38.965625)scale(0.7)" xlink:href="#DejaVuSans-49"/>
      </g>
     </g>
    </g>
    <g id="xtick_2">
     <g id="line2d_2">
      <g>
       <use style="stroke:#000000;stroke-width:0.8;" x="334.794286" xlink:href="#mc63f93e78b" y="429.336"/>
      </g>
     </g>
     <g id="text_2">
      <!-- $\mathdefault{10^{2}}$ -->
      <defs>
       <path d="M 19.1875 8.296875 
L 53.609375 8.296875 
L 53.609375 0 
L 7.328125 0 
L 7.328125 8.296875 
Q 12.9375 14.109375 22.625 23.890625 
Q 32.328125 33.6875 34.8125 36.53125 
Q 39.546875 41.84375 41.421875 45.53125 
Q 43.3125 49.21875 43.3125 52.78125 
Q 43.3125 58.59375 39.234375 62.25 
Q 35.15625 65.921875 28.609375 65.921875 
Q 23.96875 65.921875 18.8125 64.3125 
Q 13.671875 62.703125 7.8125 59.421875 
L 7.8125 69.390625 
Q 13.765625 71.78125 18.9375 73 
Q 24.125 74.21875 28.421875 74.21875 
Q 39.75 74.21875 46.484375 68.546875 
Q 53.21875 62.890625 53.21875 53.421875 
Q 53.21875 48.921875 51.53125 44.890625 
Q 49.859375 40.875 45.40625 35.40625 
Q 44.1875 33.984375 37.640625 27.21875 
Q 31.109375 20.453125 19.1875 8.296875 
z
" id="DejaVuSans-50"/>
      </defs>
      <g transform="translate(325.994286 443.934438)scale(0.1 -0.1)">
       <use transform="translate(0 0.765625)" xlink:href="#DejaVuSans-49"/>
       <use transform="translate(63.623047 0.765625)" xlink:href="#DejaVuSans-48"/>
       <use transform="translate(128.203125 39.046875)scale(0.7)" xlink:href="#DejaVuSans-50"/>
      </g>
     </g>
    </g>
    <g id="xtick_3">
     <g id="line2d_3">
      <g>
       <use style="stroke:#000000;stroke-width:0.8;" x="456.46058" xlink:href="#mc63f93e78b" y="429.336"/>
      </g>
     </g>
     <g id="text_3">
      <!-- $\mathdefault{10^{3}}$ -->
      <defs>
       <path d="M 40.578125 39.3125 
Q 47.65625 37.796875 51.625 33 
Q 55.609375 28.21875 55.609375 21.1875 
Q 55.609375 10.40625 48.1875 4.484375 
Q 40.765625 -1.421875 27.09375 -1.421875 
Q 22.515625 -1.421875 17.65625 -0.515625 
Q 12.796875 0.390625 7.625 2.203125 
L 7.625 11.71875 
Q 11.71875 9.328125 16.59375 8.109375 
Q 21.484375 6.890625 26.8125 6.890625 
Q 36.078125 6.890625 40.9375 10.546875 
Q 45.796875 14.203125 45.796875 21.1875 
Q 45.796875 27.640625 41.28125 31.265625 
Q 36.765625 34.90625 28.71875 34.90625 
L 20.21875 34.90625 
L 20.21875 43.015625 
L 29.109375 43.015625 
Q 36.375 43.015625 40.234375 45.921875 
Q 44.09375 48.828125 44.09375 54.296875 
Q 44.09375 59.90625 40.109375 62.90625 
Q 36.140625 65.921875 28.71875 65.921875 
Q 24.65625 65.921875 20.015625 65.03125 
Q 15.375 64.15625 9.8125 62.3125 
L 9.8125 71.09375 
Q 15.4375 72.65625 20.34375 73.4375 
Q 25.25 74.21875 29.59375 74.21875 
Q 40.828125 74.21875 47.359375 69.109375 
Q 53.90625 64.015625 53.90625 55.328125 
Q 53.90625 49.265625 50.4375 45.09375 
Q 46.96875 40.921875 40.578125 39.3125 
z
" id="DejaVuSans-51"/>
      </defs>
      <g transform="translate(447.66058 443.934438)scale(0.1 -0.1)">
       <use transform="translate(0 0.765625)" xlink:href="#DejaVuSans-49"/>
       <use transform="translate(63.623047 0.765625)" xlink:href="#DejaVuSans-48"/>
       <use transform="translate(128.203125 39.046875)scale(0.7)" xlink:href="#DejaVuSans-51"/>
      </g>
     </g>
    </g>
    <g id="xtick_4">
     <g id="line2d_4">
      <g>
       <use style="stroke:#000000;stroke-width:0.8;" x="578.126874" xlink:href="#mc63f93e78b" y="429.336"/>
      </g>
     </g>
     <g id="text_4">
      <!-- $\mathdefault{10^{4}}$ -->
      <defs>
       <path d="M 37.796875 64.3125 
L 12.890625 25.390625 
L 37.796875 25.390625 
z
M 35.203125 72.90625 
L 47.609375 72.90625 
L 47.609375 25.390625 
L 58.015625 25.390625 
L 58.015625 17.1875 
L 47.609375 17.1875 
L 47.609375 0 
L 37.796875 0 
L 37.796875 17.1875 
L 4.890625 17.1875 
L 4.890625 26.703125 
z
" id="DejaVuSans-52"/>
      </defs>
      <g transform="translate(569.326874 443.934438)scale(0.1 -0.1)">
       <use transform="translate(0 0.684375)" xlink:href="#DejaVuSans-49"/>
       <use transform="translate(63.623047 0.684375)" xlink:href="#DejaVuSans-48"/>
       <use transform="translate(128.203125 38.965625)scale(0.7)" xlink:href="#DejaVuSans-52"/>
      </g>
     </g>
    </g>
    <g id="xtick_5">
     <g id="line2d_5">
      <g>
       <use style="stroke:#000000;stroke-width:0.8;" x="699.793168" xlink:href="#mc63f93e78b" y="429.336"/>
      </g>
     </g>
     <g id="text_5">
      <!-- $\mathdefault{10^{5}}$ -->
      <defs>
       <path d="M 10.796875 72.90625 
L 49.515625 72.90625 
L 49.515625 64.59375 
L 19.828125 64.59375 
L 19.828125 46.734375 
Q 21.96875 47.46875 24.109375 47.828125 
Q 26.265625 48.1875 28.421875 48.1875 
Q 40.625 48.1875 47.75 41.5 
Q 54.890625 34.8125 54.890625 23.390625 
Q 54.890625 11.625 47.5625 5.09375 
Q 40.234375 -1.421875 26.90625 -1.421875 
Q 22.3125 -1.421875 17.546875 -0.640625 
Q 12.796875 0.140625 7.71875 1.703125 
L 7.71875 11.625 
Q 12.109375 9.234375 16.796875 8.0625 
Q 21.484375 6.890625 26.703125 6.890625 
Q 35.15625 6.890625 40.078125 11.328125 
Q 45.015625 15.765625 45.015625 23.390625 
Q 45.015625 31 40.078125 35.4375 
Q 35.15625 39.890625 26.703125 39.890625 
Q 22.75 39.890625 18.8125 39.015625 
Q 14.890625 38.140625 10.796875 36.28125 
z
" id="DejaVuSans-53"/>
      </defs>
      <g transform="translate(690.993168 443.934438)scale(0.1 -0.1)">
       <use transform="translate(0 0.684375)" xlink:href="#DejaVuSans-49"/>
       <use transform="translate(63.623047 0.684375)" xlink:href="#DejaVuSans-48"/>
       <use transform="translate(128.203125 38.965625)scale(0.7)" xlink:href="#DejaVuSans-53"/>
      </g>
     </g>
    </g>
    <g id="xtick_6">
     <g id="line2d_6">
      <g>
       <use style="stroke:#000000;stroke-width:0.8;" x="821.459462" xlink:href="#mc63f93e78b" y="429.336"/>
      </g>
     </g>
     <g id="text_6">
      <!-- $\mathdefault{10^{6}}$ -->
      <defs>
       <path d="M 33.015625 40.375 
Q 26.375 40.375 22.484375 35.828125 
Q 18.609375 31.296875 18.609375 23.390625 
Q 18.609375 15.53125 22.484375 10.953125 
Q 26.375 6.390625 33.015625 6.390625 
Q 39.65625 6.390625 43.53125 10.953125 
Q 47.40625 15.53125 47.40625 23.390625 
Q 47.40625 31.296875 43.53125 35.828125 
Q 39.65625 40.375 33.015625 40.375 
z
M 52.59375 71.296875 
L 52.59375 62.3125 
Q 48.875 64.0625 45.09375 64.984375 
Q 41.3125 65.921875 37.59375 65.921875 
Q 27.828125 65.921875 22.671875 59.328125 
Q 17.53125 52.734375 16.796875 39.40625 
Q 19.671875 43.65625 24.015625 45.921875 
Q 28.375 48.1875 33.59375 48.1875 
Q 44.578125 48.1875 50.953125 41.515625 
Q 57.328125 34.859375 57.328125 23.390625 
Q 57.328125 12.15625 50.6875 5.359375 
Q 44.046875 -1.421875 33.015625 -1.421875 
Q 20.359375 -1.421875 13.671875 8.265625 
Q 6.984375 17.96875 6.984375 36.375 
Q 6.984375 53.65625 15.1875 63.9375 
Q 23.390625 74.21875 37.203125 74.21875 
Q 40.921875 74.21875 44.703125 73.484375 
Q 48.484375 72.75 52.59375 71.296875 
z
" id="DejaVuSans-54"/>
      </defs>
      <g transform="translate(812.659462 443.934438)scale(0.1 -0.1)">
       <use transform="translate(0 0.765625)" xlink:href="#DejaVuSans-49"/>
       <use transform="translate(63.623047 0.765625)" xlink:href="#DejaVuSans-48"/>
       <use transform="translate(128.203125 39.046875)scale(0.7)" xlink:href="#DejaVuSans-54"/>
      </g>
     </g>
    </g>
    <g id="xtick_7">
     <g id="line2d_7">
      <defs>
       <path d="M 0 0 
L 0 2 
" id="m75668822f1" style="stroke:#000000;stroke-width:0.6;"/>
      </defs>
      <g>
       <use style="stroke:#000000;stroke-width:0.6;" x="128.086902" xlink:href="#m75668822f1" y="429.336"/>
      </g>
     </g>
    </g>
    <g id="xtick_8">
     <g id="line2d_8">
      <g>
       <use style="stroke:#000000;stroke-width:0.6;" x="149.511273" xlink:href="#m75668822f1" y="429.336"/>
      </g>
     </g>
    </g>
    <g id="xtick_9">
     <g id="line2d_9">
      <g>
       <use style="stroke:#000000;stroke-width:0.6;" x="164.712106" xlink:href="#m75668822f1" y="429.336"/>
      </g>
     </g>
    </g>
    <g id="xtick_10">
     <g id="line2d_10">
      <g>
       <use style="stroke:#000000;stroke-width:0.6;" x="176.502788" xlink:href="#m75668822f1" y="429.336"/>
      </g>
     </g>
    </g>
    <g id="xtick_11">
     <g id="line2d_11">
      <g>
       <use style="stroke:#000000;stroke-width:0.6;" x="186.136477" xlink:href="#m75668822f1" y="429.336"/>
      </g>
     </g>
    </g>
    <g id="xtick_12">
     <g id="line2d_12">
      <g>
       <use style="stroke:#000000;stroke-width:0.6;" x="194.281644" xlink:href="#m75668822f1" y="429.336"/>
      </g>
     </g>
    </g>
    <g id="xtick_13">
     <g id="line2d_13">
      <g>
       <use style="stroke:#000000;stroke-width:0.6;" x="201.33731" xlink:href="#m75668822f1" y="429.336"/>
      </g>
     </g>
    </g>
    <g id="xtick_14">
     <g id="line2d_14">
      <g>
       <use style="stroke:#000000;stroke-width:0.6;" x="207.560848" xlink:href="#m75668822f1" y="429.336"/>
      </g>
     </g>
    </g>
    <g id="xtick_15">
     <g id="line2d_15">
      <g>
       <use style="stroke:#000000;stroke-width:0.6;" x="249.753196" xlink:href="#m75668822f1" y="429.336"/>
      </g>
     </g>
    </g>
    <g id="xtick_16">
     <g id="line2d_16">
      <g>
       <use style="stroke:#000000;stroke-width:0.6;" x="271.177567" xlink:href="#m75668822f1" y="429.336"/>
      </g>
     </g>
    </g>
    <g id="xtick_17">
     <g id="line2d_17">
      <g>
       <use style="stroke:#000000;stroke-width:0.6;" x="286.3784" xlink:href="#m75668822f1" y="429.336"/>
      </g>
     </g>
    </g>
    <g id="xtick_18">
     <g id="line2d_18">
      <g>
       <use style="stroke:#000000;stroke-width:0.6;" x="298.169082" xlink:href="#m75668822f1" y="429.336"/>
      </g>
     </g>
    </g>
    <g id="xtick_19">
     <g id="line2d_19">
      <g>
       <use style="stroke:#000000;stroke-width:0.6;" x="307.802771" xlink:href="#m75668822f1" y="429.336"/>
      </g>
     </g>
    </g>
    <g id="xtick_20">
     <g id="line2d_20">
      <g>
       <use style="stroke:#000000;stroke-width:0.6;" x="315.947938" xlink:href="#m75668822f1" y="429.336"/>
      </g>
     </g>
    </g>
    <g id="xtick_21">
     <g id="line2d_21">
      <g>
       <use style="stroke:#000000;stroke-width:0.6;" x="323.003604" xlink:href="#m75668822f1" y="429.336"/>
      </g>
     </g>
    </g>
    <g id="xtick_22">
     <g id="line2d_22">
      <g>
       <use style="stroke:#000000;stroke-width:0.6;" x="329.227142" xlink:href="#m75668822f1" y="429.336"/>
      </g>
     </g>
    </g>
    <g id="xtick_23">
     <g id="line2d_23">
      <g>
       <use style="stroke:#000000;stroke-width:0.6;" x="371.41949" xlink:href="#m75668822f1" y="429.336"/>
      </g>
     </g>
    </g>
    <g id="xtick_24">
     <g id="line2d_24">
      <g>
       <use style="stroke:#000000;stroke-width:0.6;" x="392.843861" xlink:href="#m75668822f1" y="429.336"/>
      </g>
     </g>
    </g>
    <g id="xtick_25">
     <g id="line2d_25">
      <g>
       <use style="stroke:#000000;stroke-width:0.6;" x="408.044694" xlink:href="#m75668822f1" y="429.336"/>
      </g>
     </g>
    </g>
    <g id="xtick_26">
     <g id="line2d_26">
      <g>
       <use style="stroke:#000000;stroke-width:0.6;" x="419.835376" xlink:href="#m75668822f1" y="429.336"/>
      </g>
     </g>
    </g>
    <g id="xtick_27">
     <g id="line2d_27">
      <g>
       <use style="stroke:#000000;stroke-width:0.6;" x="429.469065" xlink:href="#m75668822f1" y="429.336"/>
      </g>
     </g>
    </g>
    <g id="xtick_28">
     <g id="line2d_28">
      <g>
       <use style="stroke:#000000;stroke-width:0.6;" x="437.614232" xlink:href="#m75668822f1" y="429.336"/>
      </g>
     </g>
    </g>
    <g id="xtick_29">
     <g id="line2d_29">
      <g>
       <use style="stroke:#000000;stroke-width:0.6;" x="444.669898" xlink:href="#m75668822f1" y="429.336"/>
      </g>
     </g>
    </g>
    <g id="xtick_30">
     <g id="line2d_30">
      <g>
       <use style="stroke:#000000;stroke-width:0.6;" x="450.893435" xlink:href="#m75668822f1" y="429.336"/>
      </g>
     </g>
    </g>
    <g id="xtick_31">
     <g id="line2d_31">
      <g>
       <use style="stroke:#000000;stroke-width:0.6;" x="493.085784" xlink:href="#m75668822f1" y="429.336"/>
      </g>
     </g>
    </g>
    <g id="xtick_32">
     <g id="line2d_32">
      <g>
       <use style="stroke:#000000;stroke-width:0.6;" x="514.510155" xlink:href="#m75668822f1" y="429.336"/>
      </g>
     </g>
    </g>
    <g id="xtick_33">
     <g id="line2d_33">
      <g>
       <use style="stroke:#000000;stroke-width:0.6;" x="529.710988" xlink:href="#m75668822f1" y="429.336"/>
      </g>
     </g>
    </g>
    <g id="xtick_34">
     <g id="line2d_34">
      <g>
       <use style="stroke:#000000;stroke-width:0.6;" x="541.50167" xlink:href="#m75668822f1" y="429.336"/>
      </g>
     </g>
    </g>
    <g id="xtick_35">
     <g id="line2d_35">
      <g>
       <use style="stroke:#000000;stroke-width:0.6;" x="551.135359" xlink:href="#m75668822f1" y="429.336"/>
      </g>
     </g>
    </g>
    <g id="xtick_36">
     <g id="line2d_36">
      <g>
       <use style="stroke:#000000;stroke-width:0.6;" x="559.280526" xlink:href="#m75668822f1" y="429.336"/>
      </g>
     </g>
    </g>
    <g id="xtick_37">
     <g id="line2d_37">
      <g>
       <use style="stroke:#000000;stroke-width:0.6;" x="566.336192" xlink:href="#m75668822f1" y="429.336"/>
      </g>
     </g>
    </g>
    <g id="xtick_38">
     <g id="line2d_38">
      <g>
       <use style="stroke:#000000;stroke-width:0.6;" x="572.559729" xlink:href="#m75668822f1" y="429.336"/>
      </g>
     </g>
    </g>
    <g id="xtick_39">
     <g id="line2d_39">
      <g>
       <use style="stroke:#000000;stroke-width:0.6;" x="614.752078" xlink:href="#m75668822f1" y="429.336"/>
      </g>
     </g>
    </g>
    <g id="xtick_40">
     <g id="line2d_40">
      <g>
       <use style="stroke:#000000;stroke-width:0.6;" x="636.176449" xlink:href="#m75668822f1" y="429.336"/>
      </g>
     </g>
    </g>
    <g id="xtick_41">
     <g id="line2d_41">
      <g>
       <use style="stroke:#000000;stroke-width:0.6;" x="651.377282" xlink:href="#m75668822f1" y="429.336"/>
      </g>
     </g>
    </g>
    <g id="xtick_42">
     <g id="line2d_42">
      <g>
       <use style="stroke:#000000;stroke-width:0.6;" x="663.167964" xlink:href="#m75668822f1" y="429.336"/>
      </g>
     </g>
    </g>
    <g id="xtick_43">
     <g id="line2d_43">
      <g>
       <use style="stroke:#000000;stroke-width:0.6;" x="672.801652" xlink:href="#m75668822f1" y="429.336"/>
      </g>
     </g>
    </g>
    <g id="xtick_44">
     <g id="line2d_44">
      <g>
       <use style="stroke:#000000;stroke-width:0.6;" x="680.94682" xlink:href="#m75668822f1" y="429.336"/>
      </g>
     </g>
    </g>
    <g id="xtick_45">
     <g id="line2d_45">
      <g>
       <use style="stroke:#000000;stroke-width:0.6;" x="688.002486" xlink:href="#m75668822f1" y="429.336"/>
      </g>
     </g>
    </g>
    <g id="xtick_46">
     <g id="line2d_46">
      <g>
       <use style="stroke:#000000;stroke-width:0.6;" x="694.226023" xlink:href="#m75668822f1" y="429.336"/>
      </g>
     </g>
    </g>
    <g id="xtick_47">
     <g id="line2d_47">
      <g>
       <use style="stroke:#000000;stroke-width:0.6;" x="736.418372" xlink:href="#m75668822f1" y="429.336"/>
      </g>
     </g>
    </g>
    <g id="xtick_48">
     <g id="line2d_48">
      <g>
       <use style="stroke:#000000;stroke-width:0.6;" x="757.842742" xlink:href="#m75668822f1" y="429.336"/>
      </g>
     </g>
    </g>
    <g id="xtick_49">
     <g id="line2d_49">
      <g>
       <use style="stroke:#000000;stroke-width:0.6;" x="773.043576" xlink:href="#m75668822f1" y="429.336"/>
      </g>
     </g>
    </g>
    <g id="xtick_50">
     <g id="line2d_50">
      <g>
       <use style="stroke:#000000;stroke-width:0.6;" x="784.834258" xlink:href="#m75668822f1" y="429.336"/>
      </g>
     </g>
    </g>
    <g id="xtick_51">
     <g id="line2d_51">
      <g>
       <use style="stroke:#000000;stroke-width:0.6;" x="794.467946" xlink:href="#m75668822f1" y="429.336"/>
      </g>
     </g>
    </g>
    <g id="xtick_52">
     <g id="line2d_52">
      <g>
       <use style="stroke:#000000;stroke-width:0.6;" x="802.613114" xlink:href="#m75668822f1" y="429.336"/>
      </g>
     </g>
    </g>
    <g id="xtick_53">
     <g id="line2d_53">
      <g>
       <use style="stroke:#000000;stroke-width:0.6;" x="809.668779" xlink:href="#m75668822f1" y="429.336"/>
      </g>
     </g>
    </g>
    <g id="xtick_54">
     <g id="line2d_54">
      <g>
       <use style="stroke:#000000;stroke-width:0.6;" x="815.892317" xlink:href="#m75668822f1" y="429.336"/>
      </g>
     </g>
    </g>
    <g id="text_7">
     <!-- Total Cases -->
     <defs>
      <path d="M -0.296875 72.90625 
L 61.375 72.90625 
L 61.375 64.59375 
L 35.5 64.59375 
L 35.5 0 
L 25.59375 0 
L 25.59375 64.59375 
L -0.296875 64.59375 
z
" id="DejaVuSans-84"/>
      <path d="M 30.609375 48.390625 
Q 23.390625 48.390625 19.1875 42.75 
Q 14.984375 37.109375 14.984375 27.296875 
Q 14.984375 17.484375 19.15625 11.84375 
Q 23.34375 6.203125 30.609375 6.203125 
Q 37.796875 6.203125 41.984375 11.859375 
Q 46.1875 17.53125 46.1875 27.296875 
Q 46.1875 37.015625 41.984375 42.703125 
Q 37.796875 48.390625 30.609375 48.390625 
z
M 30.609375 56 
Q 42.328125 56 49.015625 48.375 
Q 55.71875 40.765625 55.71875 27.296875 
Q 55.71875 13.875 49.015625 6.21875 
Q 42.328125 -1.421875 30.609375 -1.421875 
Q 18.84375 -1.421875 12.171875 6.21875 
Q 5.515625 13.875 5.515625 27.296875 
Q 5.515625 40.765625 12.171875 48.375 
Q 18.84375 56 30.609375 56 
z
" id="DejaVuSans-111"/>
      <path d="M 18.3125 70.21875 
L 18.3125 54.6875 
L 36.8125 54.6875 
L 36.8125 47.703125 
L 18.3125 47.703125 
L 18.3125 18.015625 
Q 18.3125 11.328125 20.140625 9.421875 
Q 21.96875 7.515625 27.59375 7.515625 
L 36.8125 7.515625 
L 36.8125 0 
L 27.59375 0 
Q 17.1875 0 13.234375 3.875 
Q 9.28125 7.765625 9.28125 18.015625 
L 9.28125 47.703125 
L 2.6875 47.703125 
L 2.6875 54.6875 
L 9.28125 54.6875 
L 9.28125 70.21875 
z
" id="DejaVuSans-116"/>
      <path d="M 34.28125 27.484375 
Q 23.390625 27.484375 19.1875 25 
Q 14.984375 22.515625 14.984375 16.5 
Q 14.984375 11.71875 18.140625 8.90625 
Q 21.296875 6.109375 26.703125 6.109375 
Q 34.1875 6.109375 38.703125 11.40625 
Q 43.21875 16.703125 43.21875 25.484375 
L 43.21875 27.484375 
z
M 52.203125 31.203125 
L 52.203125 0 
L 43.21875 0 
L 43.21875 8.296875 
Q 40.140625 3.328125 35.546875 0.953125 
Q 30.953125 -1.421875 24.3125 -1.421875 
Q 15.921875 -1.421875 10.953125 3.296875 
Q 6 8.015625 6 15.921875 
Q 6 25.140625 12.171875 29.828125 
Q 18.359375 34.515625 30.609375 34.515625 
L 43.21875 34.515625 
L 43.21875 35.40625 
Q 43.21875 41.609375 39.140625 45 
Q 35.0625 48.390625 27.6875 48.390625 
Q 23 48.390625 18.546875 47.265625 
Q 14.109375 46.140625 10.015625 43.890625 
L 10.015625 52.203125 
Q 14.9375 54.109375 19.578125 55.046875 
Q 24.21875 56 28.609375 56 
Q 40.484375 56 46.34375 49.84375 
Q 52.203125 43.703125 52.203125 31.203125 
z
" id="DejaVuSans-97"/>
      <path d="M 9.421875 75.984375 
L 18.40625 75.984375 
L 18.40625 0 
L 9.421875 0 
z
" id="DejaVuSans-108"/>
      <path id="DejaVuSans-32"/>
      <path d="M 64.40625 67.28125 
L 64.40625 56.890625 
Q 59.421875 61.53125 53.78125 63.8125 
Q 48.140625 66.109375 41.796875 66.109375 
Q 29.296875 66.109375 22.65625 58.46875 
Q 16.015625 50.828125 16.015625 36.375 
Q 16.015625 21.96875 22.65625 14.328125 
Q 29.296875 6.6875 41.796875 6.6875 
Q 48.140625 6.6875 53.78125 8.984375 
Q 59.421875 11.28125 64.40625 15.921875 
L 64.40625 5.609375 
Q 59.234375 2.09375 53.4375 0.328125 
Q 47.65625 -1.421875 41.21875 -1.421875 
Q 24.65625 -1.421875 15.125 8.703125 
Q 5.609375 18.84375 5.609375 36.375 
Q 5.609375 53.953125 15.125 64.078125 
Q 24.65625 74.21875 41.21875 74.21875 
Q 47.75 74.21875 53.53125 72.484375 
Q 59.328125 70.75 64.40625 67.28125 
z
" id="DejaVuSans-67"/>
      <path d="M 44.28125 53.078125 
L 44.28125 44.578125 
Q 40.484375 46.53125 36.375 47.5 
Q 32.28125 48.484375 27.875 48.484375 
Q 21.1875 48.484375 17.84375 46.4375 
Q 14.5 44.390625 14.5 40.28125 
Q 14.5 37.15625 16.890625 35.375 
Q 19.28125 33.59375 26.515625 31.984375 
L 29.59375 31.296875 
Q 39.15625 29.25 43.1875 25.515625 
Q 47.21875 21.78125 47.21875 15.09375 
Q 47.21875 7.46875 41.1875 3.015625 
Q 35.15625 -1.421875 24.609375 -1.421875 
Q 20.21875 -1.421875 15.453125 -0.5625 
Q 10.6875 0.296875 5.421875 2 
L 5.421875 11.28125 
Q 10.40625 8.6875 15.234375 7.390625 
Q 20.0625 6.109375 24.8125 6.109375 
Q 31.15625 6.109375 34.5625 8.28125 
Q 37.984375 10.453125 37.984375 14.40625 
Q 37.984375 18.0625 35.515625 20.015625 
Q 33.0625 21.96875 24.703125 23.78125 
L 21.578125 24.515625 
Q 13.234375 26.265625 9.515625 29.90625 
Q 5.8125 33.546875 5.8125 39.890625 
Q 5.8125 47.609375 11.28125 51.796875 
Q 16.75 56 26.8125 56 
Q 31.78125 56 36.171875 55.265625 
Q 40.578125 54.546875 44.28125 53.078125 
z
" id="DejaVuSans-115"/>
      <path d="M 56.203125 29.59375 
L 56.203125 25.203125 
L 14.890625 25.203125 
Q 15.484375 15.921875 20.484375 11.0625 
Q 25.484375 6.203125 34.421875 6.203125 
Q 39.59375 6.203125 44.453125 7.46875 
Q 49.3125 8.734375 54.109375 11.28125 
L 54.109375 2.78125 
Q 49.265625 0.734375 44.1875 -0.34375 
Q 39.109375 -1.421875 33.890625 -1.421875 
Q 20.796875 -1.421875 13.15625 6.1875 
Q 5.515625 13.8125 5.515625 26.8125 
Q 5.515625 40.234375 12.765625 48.109375 
Q 20.015625 56 32.328125 56 
Q 43.359375 56 49.78125 48.890625 
Q 56.203125 41.796875 56.203125 29.59375 
z
M 47.21875 32.234375 
Q 47.125 39.59375 43.09375 43.984375 
Q 39.0625 48.390625 32.421875 48.390625 
Q 24.90625 48.390625 20.390625 44.140625 
Q 15.875 39.890625 15.1875 32.171875 
z
" id="DejaVuSans-101"/>
     </defs>
     <g transform="translate(449.28025 457.612563)scale(0.1 -0.1)">
      <use xlink:href="#DejaVuSans-84"/>
      <use x="60.818359" xlink:href="#DejaVuSans-111"/>
      <use x="122" xlink:href="#DejaVuSans-116"/>
      <use x="161.208984" xlink:href="#DejaVuSans-97"/>
      <use x="222.488281" xlink:href="#DejaVuSans-108"/>
      <use x="250.271484" xlink:href="#DejaVuSans-32"/>
      <use x="282.058594" xlink:href="#DejaVuSans-67"/>
      <use x="351.882812" xlink:href="#DejaVuSans-97"/>
      <use x="413.162109" xlink:href="#DejaVuSans-115"/>
      <use x="465.261719" xlink:href="#DejaVuSans-101"/>
      <use x="526.785156" xlink:href="#DejaVuSans-115"/>
     </g>
    </g>
   </g>
   <g id="matplotlib.axis_2">
    <g id="ytick_1">
     <g id="line2d_55">
      <defs>
       <path d="M 0 0 
L -3.5 0 
" id="m44b4d29171" style="stroke:#000000;stroke-width:0.8;"/>
      </defs>
      <g>
       <use style="stroke:#000000;stroke-width:0.8;" x="116.64" xlink:href="#m44b4d29171" y="412.452"/>
      </g>
     </g>
     <g id="text_8">
      <!-- $\mathdefault{10^{0}}$ -->
      <g transform="translate(92.04 416.251219)scale(0.1 -0.1)">
       <use transform="translate(0 0.765625)" xlink:href="#DejaVuSans-49"/>
       <use transform="translate(63.623047 0.765625)" xlink:href="#DejaVuSans-48"/>
       <use transform="translate(128.203125 39.046875)scale(0.7)" xlink:href="#DejaVuSans-48"/>
      </g>
     </g>
    </g>
    <g id="ytick_2">
     <g id="line2d_56">
      <g>
       <use style="stroke:#000000;stroke-width:0.8;" x="116.64" xlink:href="#m44b4d29171" y="349.327896"/>
      </g>
     </g>
     <g id="text_9">
      <!-- $\mathdefault{10^{1}}$ -->
      <g transform="translate(92.04 353.127115)scale(0.1 -0.1)">
       <use transform="translate(0 0.684375)" xlink:href="#DejaVuSans-49"/>
       <use transform="translate(63.623047 0.684375)" xlink:href="#DejaVuSans-48"/>
       <use transform="translate(128.203125 38.965625)scale(0.7)" xlink:href="#DejaVuSans-49"/>
      </g>
     </g>
    </g>
    <g id="ytick_3">
     <g id="line2d_57">
      <g>
       <use style="stroke:#000000;stroke-width:0.8;" x="116.64" xlink:href="#m44b4d29171" y="286.203792"/>
      </g>
     </g>
     <g id="text_10">
      <!-- $\mathdefault{10^{2}}$ -->
      <g transform="translate(92.04 290.003011)scale(0.1 -0.1)">
       <use transform="translate(0 0.765625)" xlink:href="#DejaVuSans-49"/>
       <use transform="translate(63.623047 0.765625)" xlink:href="#DejaVuSans-48"/>
       <use transform="translate(128.203125 39.046875)scale(0.7)" xlink:href="#DejaVuSans-50"/>
      </g>
     </g>
    </g>
    <g id="ytick_4">
     <g id="line2d_58">
      <g>
       <use style="stroke:#000000;stroke-width:0.8;" x="116.64" xlink:href="#m44b4d29171" y="223.079689"/>
      </g>
     </g>
     <g id="text_11">
      <!-- $\mathdefault{10^{3}}$ -->
      <g transform="translate(92.04 226.878907)scale(0.1 -0.1)">
       <use transform="translate(0 0.765625)" xlink:href="#DejaVuSans-49"/>
       <use transform="translate(63.623047 0.765625)" xlink:href="#DejaVuSans-48"/>
       <use transform="translate(128.203125 39.046875)scale(0.7)" xlink:href="#DejaVuSans-51"/>
      </g>
     </g>
    </g>
    <g id="ytick_5">
     <g id="line2d_59">
      <g>
       <use style="stroke:#000000;stroke-width:0.8;" x="116.64" xlink:href="#m44b4d29171" y="159.955585"/>
      </g>
     </g>
     <g id="text_12">
      <!-- $\mathdefault{10^{4}}$ -->
      <g transform="translate(92.04 163.754804)scale(0.1 -0.1)">
       <use transform="translate(0 0.684375)" xlink:href="#DejaVuSans-49"/>
       <use transform="translate(63.623047 0.684375)" xlink:href="#DejaVuSans-48"/>
       <use transform="translate(128.203125 38.965625)scale(0.7)" xlink:href="#DejaVuSans-52"/>
      </g>
     </g>
    </g>
    <g id="ytick_6">
     <g id="line2d_60">
      <g>
       <use style="stroke:#000000;stroke-width:0.8;" x="116.64" xlink:href="#m44b4d29171" y="96.831481"/>
      </g>
     </g>
     <g id="text_13">
      <!-- $\mathdefault{10^{5}}$ -->
      <g transform="translate(92.04 100.6307)scale(0.1 -0.1)">
       <use transform="translate(0 0.684375)" xlink:href="#DejaVuSans-49"/>
       <use transform="translate(63.623047 0.684375)" xlink:href="#DejaVuSans-48"/>
       <use transform="translate(128.203125 38.965625)scale(0.7)" xlink:href="#DejaVuSans-53"/>
      </g>
     </g>
    </g>
    <g id="ytick_7">
     <g id="line2d_61">
      <defs>
       <path d="M 0 0 
L -2 0 
" id="mf5b94e3835" style="stroke:#000000;stroke-width:0.6;"/>
      </defs>
      <g>
       <use style="stroke:#000000;stroke-width:0.6;" x="116.64" xlink:href="#mf5b94e3835" y="426.456003"/>
      </g>
     </g>
    </g>
    <g id="ytick_8">
     <g id="line2d_62">
      <g>
       <use style="stroke:#000000;stroke-width:0.6;" x="116.64" xlink:href="#mf5b94e3835" y="422.230047"/>
      </g>
     </g>
    </g>
    <g id="ytick_9">
     <g id="line2d_63">
      <g>
       <use style="stroke:#000000;stroke-width:0.6;" x="116.64" xlink:href="#mf5b94e3835" y="418.569358"/>
      </g>
     </g>
    </g>
    <g id="ytick_10">
     <g id="line2d_64">
      <g>
       <use style="stroke:#000000;stroke-width:0.6;" x="116.64" xlink:href="#mf5b94e3835" y="415.340401"/>
      </g>
     </g>
    </g>
    <g id="ytick_11">
     <g id="line2d_65">
      <g>
       <use style="stroke:#000000;stroke-width:0.6;" x="116.64" xlink:href="#mf5b94e3835" y="393.449751"/>
      </g>
     </g>
    </g>
    <g id="ytick_12">
     <g id="line2d_66">
      <g>
       <use style="stroke:#000000;stroke-width:0.6;" x="116.64" xlink:href="#mf5b94e3835" y="382.334148"/>
      </g>
     </g>
    </g>
    <g id="ytick_13">
     <g id="line2d_67">
      <g>
       <use style="stroke:#000000;stroke-width:0.6;" x="116.64" xlink:href="#mf5b94e3835" y="374.447503"/>
      </g>
     </g>
    </g>
    <g id="ytick_14">
     <g id="line2d_68">
      <g>
       <use style="stroke:#000000;stroke-width:0.6;" x="116.64" xlink:href="#mf5b94e3835" y="368.330145"/>
      </g>
     </g>
    </g>
    <g id="ytick_15">
     <g id="line2d_69">
      <g>
       <use style="stroke:#000000;stroke-width:0.6;" x="116.64" xlink:href="#mf5b94e3835" y="363.3319"/>
      </g>
     </g>
    </g>
    <g id="ytick_16">
     <g id="line2d_70">
      <g>
       <use style="stroke:#000000;stroke-width:0.6;" x="116.64" xlink:href="#mf5b94e3835" y="359.105944"/>
      </g>
     </g>
    </g>
    <g id="ytick_17">
     <g id="line2d_71">
      <g>
       <use style="stroke:#000000;stroke-width:0.6;" x="116.64" xlink:href="#mf5b94e3835" y="355.445254"/>
      </g>
     </g>
    </g>
    <g id="ytick_18">
     <g id="line2d_72">
      <g>
       <use style="stroke:#000000;stroke-width:0.6;" x="116.64" xlink:href="#mf5b94e3835" y="352.216297"/>
      </g>
     </g>
    </g>
    <g id="ytick_19">
     <g id="line2d_73">
      <g>
       <use style="stroke:#000000;stroke-width:0.6;" x="116.64" xlink:href="#mf5b94e3835" y="330.325648"/>
      </g>
     </g>
    </g>
    <g id="ytick_20">
     <g id="line2d_74">
      <g>
       <use style="stroke:#000000;stroke-width:0.6;" x="116.64" xlink:href="#mf5b94e3835" y="319.210045"/>
      </g>
     </g>
    </g>
    <g id="ytick_21">
     <g id="line2d_75">
      <g>
       <use style="stroke:#000000;stroke-width:0.6;" x="116.64" xlink:href="#mf5b94e3835" y="311.323399"/>
      </g>
     </g>
    </g>
    <g id="ytick_22">
     <g id="line2d_76">
      <g>
       <use style="stroke:#000000;stroke-width:0.6;" x="116.64" xlink:href="#mf5b94e3835" y="305.206041"/>
      </g>
     </g>
    </g>
    <g id="ytick_23">
     <g id="line2d_77">
      <g>
       <use style="stroke:#000000;stroke-width:0.6;" x="116.64" xlink:href="#mf5b94e3835" y="300.207796"/>
      </g>
     </g>
    </g>
    <g id="ytick_24">
     <g id="line2d_78">
      <g>
       <use style="stroke:#000000;stroke-width:0.6;" x="116.64" xlink:href="#mf5b94e3835" y="295.98184"/>
      </g>
     </g>
    </g>
    <g id="ytick_25">
     <g id="line2d_79">
      <g>
       <use style="stroke:#000000;stroke-width:0.6;" x="116.64" xlink:href="#mf5b94e3835" y="292.32115"/>
      </g>
     </g>
    </g>
    <g id="ytick_26">
     <g id="line2d_80">
      <g>
       <use style="stroke:#000000;stroke-width:0.6;" x="116.64" xlink:href="#mf5b94e3835" y="289.092193"/>
      </g>
     </g>
    </g>
    <g id="ytick_27">
     <g id="line2d_81">
      <g>
       <use style="stroke:#000000;stroke-width:0.6;" x="116.64" xlink:href="#mf5b94e3835" y="267.201544"/>
      </g>
     </g>
    </g>
    <g id="ytick_28">
     <g id="line2d_82">
      <g>
       <use style="stroke:#000000;stroke-width:0.6;" x="116.64" xlink:href="#mf5b94e3835" y="256.085941"/>
      </g>
     </g>
    </g>
    <g id="ytick_29">
     <g id="line2d_83">
      <g>
       <use style="stroke:#000000;stroke-width:0.6;" x="116.64" xlink:href="#mf5b94e3835" y="248.199295"/>
      </g>
     </g>
    </g>
    <g id="ytick_30">
     <g id="line2d_84">
      <g>
       <use style="stroke:#000000;stroke-width:0.6;" x="116.64" xlink:href="#mf5b94e3835" y="242.081937"/>
      </g>
     </g>
    </g>
    <g id="ytick_31">
     <g id="line2d_85">
      <g>
       <use style="stroke:#000000;stroke-width:0.6;" x="116.64" xlink:href="#mf5b94e3835" y="237.083692"/>
      </g>
     </g>
    </g>
    <g id="ytick_32">
     <g id="line2d_86">
      <g>
       <use style="stroke:#000000;stroke-width:0.6;" x="116.64" xlink:href="#mf5b94e3835" y="232.857736"/>
      </g>
     </g>
    </g>
    <g id="ytick_33">
     <g id="line2d_87">
      <g>
       <use style="stroke:#000000;stroke-width:0.6;" x="116.64" xlink:href="#mf5b94e3835" y="229.197046"/>
      </g>
     </g>
    </g>
    <g id="ytick_34">
     <g id="line2d_88">
      <g>
       <use style="stroke:#000000;stroke-width:0.6;" x="116.64" xlink:href="#mf5b94e3835" y="225.968089"/>
      </g>
     </g>
    </g>
    <g id="ytick_35">
     <g id="line2d_89">
      <g>
       <use style="stroke:#000000;stroke-width:0.6;" x="116.64" xlink:href="#mf5b94e3835" y="204.07744"/>
      </g>
     </g>
    </g>
    <g id="ytick_36">
     <g id="line2d_90">
      <g>
       <use style="stroke:#000000;stroke-width:0.6;" x="116.64" xlink:href="#mf5b94e3835" y="192.961837"/>
      </g>
     </g>
    </g>
    <g id="ytick_37">
     <g id="line2d_91">
      <g>
       <use style="stroke:#000000;stroke-width:0.6;" x="116.64" xlink:href="#mf5b94e3835" y="185.075191"/>
      </g>
     </g>
    </g>
    <g id="ytick_38">
     <g id="line2d_92">
      <g>
       <use style="stroke:#000000;stroke-width:0.6;" x="116.64" xlink:href="#mf5b94e3835" y="178.957834"/>
      </g>
     </g>
    </g>
    <g id="ytick_39">
     <g id="line2d_93">
      <g>
       <use style="stroke:#000000;stroke-width:0.6;" x="116.64" xlink:href="#mf5b94e3835" y="173.959588"/>
      </g>
     </g>
    </g>
    <g id="ytick_40">
     <g id="line2d_94">
      <g>
       <use style="stroke:#000000;stroke-width:0.6;" x="116.64" xlink:href="#mf5b94e3835" y="169.733632"/>
      </g>
     </g>
    </g>
    <g id="ytick_41">
     <g id="line2d_95">
      <g>
       <use style="stroke:#000000;stroke-width:0.6;" x="116.64" xlink:href="#mf5b94e3835" y="166.072943"/>
      </g>
     </g>
    </g>
    <g id="ytick_42">
     <g id="line2d_96">
      <g>
       <use style="stroke:#000000;stroke-width:0.6;" x="116.64" xlink:href="#mf5b94e3835" y="162.843985"/>
      </g>
     </g>
    </g>
    <g id="ytick_43">
     <g id="line2d_97">
      <g>
       <use style="stroke:#000000;stroke-width:0.6;" x="116.64" xlink:href="#mf5b94e3835" y="140.953336"/>
      </g>
     </g>
    </g>
    <g id="ytick_44">
     <g id="line2d_98">
      <g>
       <use style="stroke:#000000;stroke-width:0.6;" x="116.64" xlink:href="#mf5b94e3835" y="129.837733"/>
      </g>
     </g>
    </g>
    <g id="ytick_45">
     <g id="line2d_99">
      <g>
       <use style="stroke:#000000;stroke-width:0.6;" x="116.64" xlink:href="#mf5b94e3835" y="121.951087"/>
      </g>
     </g>
    </g>
    <g id="ytick_46">
     <g id="line2d_100">
      <g>
       <use style="stroke:#000000;stroke-width:0.6;" x="116.64" xlink:href="#mf5b94e3835" y="115.83373"/>
      </g>
     </g>
    </g>
    <g id="ytick_47">
     <g id="line2d_101">
      <g>
       <use style="stroke:#000000;stroke-width:0.6;" x="116.64" xlink:href="#mf5b94e3835" y="110.835485"/>
      </g>
     </g>
    </g>
    <g id="ytick_48">
     <g id="line2d_102">
      <g>
       <use style="stroke:#000000;stroke-width:0.6;" x="116.64" xlink:href="#mf5b94e3835" y="106.609528"/>
      </g>
     </g>
    </g>
    <g id="ytick_49">
     <g id="line2d_103">
      <g>
       <use style="stroke:#000000;stroke-width:0.6;" x="116.64" xlink:href="#mf5b94e3835" y="102.948839"/>
      </g>
     </g>
    </g>
    <g id="ytick_50">
     <g id="line2d_104">
      <g>
       <use style="stroke:#000000;stroke-width:0.6;" x="116.64" xlink:href="#mf5b94e3835" y="99.719882"/>
      </g>
     </g>
    </g>
    <g id="ytick_51">
     <g id="line2d_105">
      <g>
       <use style="stroke:#000000;stroke-width:0.6;" x="116.64" xlink:href="#mf5b94e3835" y="77.829232"/>
      </g>
     </g>
    </g>
    <g id="ytick_52">
     <g id="line2d_106">
      <g>
       <use style="stroke:#000000;stroke-width:0.6;" x="116.64" xlink:href="#mf5b94e3835" y="66.713629"/>
      </g>
     </g>
    </g>
    <g id="ytick_53">
     <g id="line2d_107">
      <g>
       <use style="stroke:#000000;stroke-width:0.6;" x="116.64" xlink:href="#mf5b94e3835" y="58.826984"/>
      </g>
     </g>
    </g>
    <g id="text_14">
     <!-- New Cases For Last 7 Days -->
     <defs>
      <path d="M 9.8125 72.90625 
L 23.09375 72.90625 
L 55.421875 11.921875 
L 55.421875 72.90625 
L 64.984375 72.90625 
L 64.984375 0 
L 51.703125 0 
L 19.390625 60.984375 
L 19.390625 0 
L 9.8125 0 
z
" id="DejaVuSans-78"/>
      <path d="M 4.203125 54.6875 
L 13.1875 54.6875 
L 24.421875 12.015625 
L 35.59375 54.6875 
L 46.1875 54.6875 
L 57.421875 12.015625 
L 68.609375 54.6875 
L 77.59375 54.6875 
L 63.28125 0 
L 52.6875 0 
L 40.921875 44.828125 
L 29.109375 0 
L 18.5 0 
z
" id="DejaVuSans-119"/>
      <path d="M 9.8125 72.90625 
L 51.703125 72.90625 
L 51.703125 64.59375 
L 19.671875 64.59375 
L 19.671875 43.109375 
L 48.578125 43.109375 
L 48.578125 34.8125 
L 19.671875 34.8125 
L 19.671875 0 
L 9.8125 0 
z
" id="DejaVuSans-70"/>
      <path d="M 41.109375 46.296875 
Q 39.59375 47.171875 37.8125 47.578125 
Q 36.03125 48 33.890625 48 
Q 26.265625 48 22.1875 43.046875 
Q 18.109375 38.09375 18.109375 28.8125 
L 18.109375 0 
L 9.078125 0 
L 9.078125 54.6875 
L 18.109375 54.6875 
L 18.109375 46.1875 
Q 20.953125 51.171875 25.484375 53.578125 
Q 30.03125 56 36.53125 56 
Q 37.453125 56 38.578125 55.875 
Q 39.703125 55.765625 41.0625 55.515625 
z
" id="DejaVuSans-114"/>
      <path d="M 9.8125 72.90625 
L 19.671875 72.90625 
L 19.671875 8.296875 
L 55.171875 8.296875 
L 55.171875 0 
L 9.8125 0 
z
" id="DejaVuSans-76"/>
      <path d="M 8.203125 72.90625 
L 55.078125 72.90625 
L 55.078125 68.703125 
L 28.609375 0 
L 18.3125 0 
L 43.21875 64.59375 
L 8.203125 64.59375 
z
" id="DejaVuSans-55"/>
      <path d="M 19.671875 64.796875 
L 19.671875 8.109375 
L 31.59375 8.109375 
Q 46.6875 8.109375 53.6875 14.9375 
Q 60.6875 21.78125 60.6875 36.53125 
Q 60.6875 51.171875 53.6875 57.984375 
Q 46.6875 64.796875 31.59375 64.796875 
z
M 9.8125 72.90625 
L 30.078125 72.90625 
Q 51.265625 72.90625 61.171875 64.09375 
Q 71.09375 55.28125 71.09375 36.53125 
Q 71.09375 17.671875 61.125 8.828125 
Q 51.171875 0 30.078125 0 
L 9.8125 0 
z
" id="DejaVuSans-68"/>
      <path d="M 32.171875 -5.078125 
Q 28.375 -14.84375 24.75 -17.8125 
Q 21.140625 -20.796875 15.09375 -20.796875 
L 7.90625 -20.796875 
L 7.90625 -13.28125 
L 13.1875 -13.28125 
Q 16.890625 -13.28125 18.9375 -11.515625 
Q 21 -9.765625 23.484375 -3.21875 
L 25.09375 0.875 
L 2.984375 54.6875 
L 12.5 54.6875 
L 29.59375 11.921875 
L 46.6875 54.6875 
L 56.203125 54.6875 
z
" id="DejaVuSans-121"/>
     </defs>
     <g transform="translate(85.960313 311.367469)rotate(-90)scale(0.1 -0.1)">
      <use xlink:href="#DejaVuSans-78"/>
      <use x="74.804688" xlink:href="#DejaVuSans-101"/>
      <use x="136.328125" xlink:href="#DejaVuSans-119"/>
      <use x="218.115234" xlink:href="#DejaVuSans-32"/>
      <use x="249.902344" xlink:href="#DejaVuSans-67"/>
      <use x="319.726562" xlink:href="#DejaVuSans-97"/>
      <use x="381.005859" xlink:href="#DejaVuSans-115"/>
      <use x="433.105469" xlink:href="#DejaVuSans-101"/>
      <use x="494.628906" xlink:href="#DejaVuSans-115"/>
      <use x="546.728516" xlink:href="#DejaVuSans-32"/>
      <use x="578.515625" xlink:href="#DejaVuSans-70"/>
      <use x="635.988281" xlink:href="#DejaVuSans-111"/>
      <use x="697.169922" xlink:href="#DejaVuSans-114"/>
      <use x="738.283203" xlink:href="#DejaVuSans-32"/>
      <use x="770.070312" xlink:href="#DejaVuSans-76"/>
      <use x="825.783203" xlink:href="#DejaVuSans-97"/>
      <use x="887.0625" xlink:href="#DejaVuSans-115"/>
      <use x="939.162109" xlink:href="#DejaVuSans-116"/>
      <use x="978.371094" xlink:href="#DejaVuSans-32"/>
      <use x="1010.158203" xlink:href="#DejaVuSans-55"/>
      <use x="1073.78125" xlink:href="#DejaVuSans-32"/>
      <use x="1105.568359" xlink:href="#DejaVuSans-68"/>
      <use x="1182.570312" xlink:href="#DejaVuSans-97"/>
      <use x="1243.849609" xlink:href="#DejaVuSans-121"/>
      <use x="1303.029297" xlink:href="#DejaVuSans-115"/>
     </g>
    </g>
   </g>
   <g id="line2d_108">
    <path clip-path="url(#p653ed2c5f4)" d="M 306.914699 300.668554 
L 306.914699 317.440757 
L 306.914699 317.440757 
L 306.914699 317.440757 
L 306.914699 338.212293 
L 306.914699 338.212293 
L 306.914699 483.4 
M 310.374815 483.4 
L 310.380794 374.447503 
L 323.003604 328.988092 
L 375.486034 273.837802 
L 379.940737 270.706025 
L 406.162189 253.723427 
L 422.513949 243.953764 
L 431.456702 238.779972 
L 449.825945 228.553565 
L 471.250315 217.116283 
L 492.767795 207.395639 
L 510.390745 197.524923 
L 536.262283 184.118855 
L 551.082493 176.504925 
L 564.549422 169.302328 
L 576.593647 163.360558 
L 586.912777 158.654606 
L 597.390582 154.034116 
L 606.816529 149.890644 
L 615.92261 147.20811 
L 625.085631 143.349673 
L 632.619554 140.527623 
L 638.260685 138.979632 
L 643.752429 137.342037 
L 647.588152 137.321618 
L 651.648704 137.1278 
L 654.823747 138.033153 
L 657.275742 140.405083 
L 672.682631 128.22481 
L 676.229138 127.379812 
L 678.283393 128.125046 
L 679.853134 128.64503 
L 681.411266 129.463803 
L 682.806841 130.010071 
L 684.066978 130.266913 
L 684.346591 149.232058 
L 684.973511 156.071693 
L 685.548126 160.481471 
L 685.993893 164.57269 
L 686.143247 171.280333 
L 686.49441 177.667315 
L 686.772318 185.762237 
L 687.068272 185.447807 
L 687.288987 189.659872 
L 687.574744 193.090071 
L 687.95557 193.768612 
L 688.090917 193.891229 
L 688.174592 197.828808 
L 688.252877 201.204121 
L 688.329732 205.49805 
L 688.441204 207.895233 
L 688.507321 213.602099 
L 688.537406 226.428847 
L 688.56682 231.895727 
L 688.579888 236.273354 
L 688.59883 240.588174 
L 688.614502 245.89973 
L 688.628863 257.300408 
L 688.641263 266.524609 
L 688.655617 269.938063 
L 688.671924 273.148094 
L 688.69996 269.487405 
L 688.71495 270.396254 
L 688.743614 267.477068 
L 688.808053 258.47131 
L 688.841867 255.364466 
L 688.884106 251.781769 
L 688.973669 244.130442 
L 689.018394 242.635783 
L 689.068906 239.719423 
L 689.134889 236.946961 
L 689.195623 237.175226 
L 689.272411 234.263914 
L 689.345223 232.35328 
L 689.408289 233.936084 
L 689.462286 233.331773 
L 689.496969 234.305169 
L 689.561137 234.387868 
L 689.606008 235.400208 
L 689.645719 237.965859 
L 689.676443 241.218419 
L 689.719298 242.91696 
L 689.755091 244.547174 
L 689.810011 242.691788 
L 689.864874 243.488115 
L 689.899931 244.367798 
L 689.950245 243.372928 
L 690.009415 240.901485 
L 690.080584 238.634537 
L 690.140242 236.856185 
L 690.171314 238.58623 
L 690.203 240.381271 
L 690.425539 228.220861 
L 690.445093 229.855996 
L 690.456443 232.623756 
L 690.46527 236.720582 
" style="fill:none;stroke:#1f77b4;stroke-linecap:square;stroke-width:1.5;"/>
   </g>
   <g id="line2d_109">
    <path clip-path="url(#p653ed2c5f4)" d="M 263.616261 323.133076 
L 274.587718 320.139437 
L 286.3784 314.984089 
L 310.380794 301.137188 
L 331.524851 290.338519 
L 342.63665 285.128578 
L 356.218657 278.801147 
L 374.994505 268.897824 
L 392.490421 259.38352 
L 400.075363 255.72283 
L 412.355299 250.262575 
L 422.110596 246.34447 
L 437.159374 238.10778 
L 451.127755 230.820513 
L 456.195722 229.855996 
L 464.530209 226.992178 
L 467.656126 226.212863 
L 474.012497 224.198801 
L 483.048985 219.680681 
L 494.698916 214.489376 
L 499.986006 214.349455 
L 508.213913 209.053762 
L 511.409087 209.119583 
L 514.545369 207.488622 
L 519.674189 205.282357 
L 523.982144 204.983209 
L 527.801098 207.026829 
L 532.163054 205.32536 
L 535.604722 206.82911 
L 536.94633 207.613092 
L 539.586302 206.662915 
L 541.681018 208.388055 
L 544.700041 208.164392 
L 547.19653 208.355991 
L 548.720883 211.207031 
L 550.265196 213.274241 
L 551.056041 213.777272 
L 551.652404 217.248934 
L 552.362709 219.875111 
L 553.738537 223.327536 
L 554.817261 227.087202 
L 555.761566 228.620593 
L 556.602013 230.893327 
L 557.647741 229.334462 
" style="fill:none;stroke:#ff7f0e;stroke-linecap:square;stroke-width:1.5;"/>
   </g>
   <g id="line2d_110">
    <path clip-path="url(#p653ed2c5f4)" d="M 149.511273 382.334148 
L 149.511273 483.4 
M 240.958034 483.4 
L 241.165858 340.103695 
L 322.338953 293.727328 
L 349.464069 279.222916 
L 378.574135 263.851015 
L 396.583228 254.402457 
L 408.044694 248.405678 
L 433.698441 235.016186 
L 450.184176 226.865989 
L 462.824834 221.768255 
L 484.155436 210.941642 
L 494.028427 206.859436 
L 504.91872 201.714926 
L 516.054909 195.962154 
L 527.801098 191.124098 
L 537.507782 186.859104 
L 550.094819 180.335169 
L 562.037969 175.433182 
L 573.560013 169.206117 
L 578.908367 167.310105 
L 589.756681 161.730722 
L 599.947807 156.714446 
L 608.177317 152.712448 
L 617.723666 148.34373 
L 624.341716 146.053203 
L 632.493179 142.637953 
L 638.764536 139.153652 
L 645.387205 136.824285 
L 652.727102 133.843131 
L 659.922133 130.42797 
L 666.819959 127.710126 
L 672.037026 125.488299 
L 676.1515 124.879878 
L 680.32114 123.596378 
L 684.157979 122.87599 
L 688.357294 122.293152 
L 692.128929 122.311895 
L 695.657761 122.719774 
L 698.557727 122.96261 
L 700.70414 123.493231 
L 702.768253 124.374365 
L 705.104269 124.696696 
L 707.289124 125.845401 
L 709.350625 126.952897 
L 711.428062 127.931715 
L 713.226904 128.710727 
L 714.68146 129.109139 
L 715.879258 130.026628 
L 717.353423 130.911193 
L 718.923132 131.35572 
L 720.357044 131.975006 
L 722.011526 132.084884 
L 723.412731 132.307969 
L 724.467609 132.757628 
L 725.443013 132.825819 
L 726.303246 134.043745 
L 727.500848 134.492714 
L 728.582199 134.993239 
L 729.641263 136.353193 
L 730.548593 137.591892 
" style="fill:none;stroke:#2ca02c;stroke-linecap:square;stroke-width:1.5;"/>
   </g>
   <g id="line2d_111">
    <path clip-path="url(#p653ed2c5f4)" d="M 271.177567 319.210045 
L 291.414494 309.340768 
L 308.676162 301.137188 
L 325.581627 292.665991 
L 333.184852 289.092193 
L 338.369301 287.038815 
L 345.732708 285.660914 
L 351.428571 284.348968 
L 365.261959 278.180416 
L 367.30008 280.306632 
L 368.986574 284.348968 
L 372.465841 284.348968 
L 375.486034 283.841278 
L 377.877347 285.393454 
L 391.955789 273.663742 
L 391.955789 281.899621 
L 398.832035 274.906033 
L 398.832035 276.017582 
L 402.91605 273.490779 
L 408.044694 269.487405 
L 411.372219 267.201544 
L 414.268232 274.189275 
L 416.678245 270.706025 
L 418.225942 275.271564 
L 423.311534 267.477068 
L 427.768764 264.83903 
L 436.237741 257.782221 
L 437.689663 258.47131 
L 438.734536 259.486776 
L 439.686616 260.327131 
L 440.693103 260.327131 
L 442.58166 262.780466 
L 446.932463 260.649027 
L 448.67525 269.938063 
L 455.231089 258.371802 
L 458.988256 253.142766 
L 460.965625 251.01165 
L 464.348476 246.92709 
" style="fill:none;stroke:#d62728;stroke-linecap:square;stroke-width:1.5;"/>
   </g>
   <g id="line2d_112">
    <path clip-path="url(#p653ed2c5f4)" d="M 176.502788 368.330145 
L 194.281644 363.3319 
L 201.33731 359.105944 
L 201.33731 359.105944 
L 207.560848 355.445254 
L 213.127992 359.105944 
L 213.127992 359.105944 
L 213.127992 368.330145 
L 213.127992 382.334148 
L 218.164086 382.334148 
L 218.164086 382.334148 
L 237.962514 359.105944 
L 241.165858 359.105944 
L 244.186051 355.445254 
L 244.186051 355.445254 
L 244.186051 355.445254 
L 244.186051 359.105944 
L 244.186051 359.105944 
L 244.186051 393.449751 
L 244.186051 412.452 
L 244.186051 483.4 
M 249.745265 483.4 
L 249.753196 393.449751 
L 254.78929 374.447503 
L 254.78929 374.447503 
L 259.386885 363.3319 
L 259.386885 363.3319 
L 263.616261 355.445254 
L 263.616261 355.445254 
L 267.532052 355.445254 
L 271.177567 355.445254 
L 272.910148 352.216297 
L 274.587718 355.445254 
L 277.791062 349.327896 
L 285.040632 342.135324 
L 286.3784 340.103695 
L 286.3784 344.329651 
L 287.683133 346.71502 
L 288.956423 346.71502 
L 291.414494 344.329651 
L 292.601938 346.71502 
L 292.601938 363.3319 
L 292.601938 368.330145 
L 296.012088 355.445254 
L 296.012088 359.105944 
L 297.101591 359.105944 
L 301.247953 352.216297 
L 306.914699 340.103695 
L 306.914699 340.103695 
L 313.633452 327.712771 
L 320.984033 320.139437 
L 338.86083 300.207796 
L 338.86083 300.668554 
L 350.651512 291.644216 
L 357.265008 287.900073 
L 361.254751 284.606382 
L 370.081722 279.436259 
L 375.486034 277.176111 
L 379.940737 279.651276 
L 383.631202 276.207302 
L 386.68633 278.592671 
L 389.761467 279.01122 
L 393.890212 276.78447 
L 393.890212 283.34282 
L 396.583228 284.606382 
L 399.301718 285.128578 
L 399.301718 290.021585 
L 401.73853 289.708274 
L 402.91605 292.32115 
L 402.91605 301.613973 
L 404.351981 297.182665 
L 404.775259 303.096197 
L 405.195174 311.323399 
L 405.334407 310.646464 
L 405.334407 324.20829 
L 406.025123 327.712771 
L 406.43526 324.20829 
L 407.111825 330.325648 
L 407.380043 331.731825 
L 407.380043 336.443005 
L 407.380043 338.212293 
L 407.380043 338.212293 
L 407.779836 342.135324 
L 410.622717 317.440757 
" style="fill:none;stroke:#9467bd;stroke-linecap:square;stroke-width:1.5;"/>
   </g>
   <g id="line2d_113">
    <path clip-path="url(#p653ed2c5f4)" d="M 176.502788 368.330145 
L 176.502788 374.447503 
L 176.502788 374.447503 
L 176.502788 374.447503 
L 186.136477 368.330145 
L 194.281644 368.330145 
L 201.33731 363.3319 
L 218.164086 363.3319 
L 218.164086 363.3319 
L 218.164086 363.3319 
L 222.761681 359.105944 
L 222.761681 363.3319 
L 222.761681 368.330145 
L 222.761681 374.447503 
L 222.761681 412.452 
L 226.991057 393.449751 
L 226.991057 393.449751 
L 230.906848 393.449751 
L 234.552363 382.334148 
L 234.552363 382.334148 
L 234.552363 382.334148 
L 234.552363 382.334148 
L 234.552363 393.449751 
L 234.552363 393.449751 
L 234.552363 412.452 
L 237.962514 412.452 
L 279.322734 330.325648 
L 279.322734 330.325648 
L 279.322734 330.325648 
L 301.247953 312.729576 
L 301.247953 312.729576 
L 306.914699 308.710523 
L 307.802771 308.710523 
L 312.838865 318.31113 
L 315.187652 315.778766 
L 328.636755 303.096197 
L 336.356143 305.206041 
L 346.584968 295.209551 
L 359.297528 286.203792 
L 379.489119 271.177346 
L 399.145621 258.77202 
L 412.233409 250.78477 
L 425.254363 244.071423 
L 441.540806 234.847222 
L 457.765313 225.968089 
L 470.809152 219.176769 
L 483.335721 213.274241 
L 497.493698 206.422962 
L 513.639992 197.763405 
L 526.637929 191.021742 
L 537.791955 185.720104 
L 554.767955 176.837837 
L 574.94169 165.722234 
L 596.840958 153.648084 
L 613.749248 144.692465 
L 630.111849 136.18911 
L 644.6317 128.559422 
L 659.267453 120.756853 
L 668.425517 116.497454 
L 680.334887 110.936648 
L 691.818307 105.936033 
L 702.212941 101.266859 
L 711.442051 97.408275 
L 718.701564 94.76762 
L 726.131803 92.252671 
L 733.601744 88.729044 
L 740.660997 86.171618 
L 747.257896 84.023974 
L 753.8118 81.760858 
L 759.955248 79.587995 
L 764.087412 78.57819 
L 768.66591 77.343393 
L 772.886013 76.597492 
L 777.126263 75.794245 
L 781.116947 75.154992 
L 784.998859 74.772 
L 787.908243 75.502708 
L 790.592744 75.224333 
L 792.912413 75.923469 
L 795.299397 76.399537 
L 797.85035 76.81577 
L 800.403492 77.112476 
L 802.77621 77.746566 
L 805.19732 77.134251 
L 806.936727 77.540711 
" style="fill:none;stroke:#8c564b;stroke-linecap:square;stroke-width:1.5;"/>
   </g>
   <g id="patch_3">
    <path d="M 116.64 429.336 
L 116.64 57.888 
" style="fill:none;stroke:#000000;stroke-linecap:square;stroke-linejoin:miter;stroke-width:0.8;"/>
   </g>
   <g id="patch_4">
    <path d="M 839.808 429.336 
L 839.808 57.888 
" style="fill:none;stroke:#000000;stroke-linecap:square;stroke-linejoin:miter;stroke-width:0.8;"/>
   </g>
   <g id="patch_5">
    <path d="M 116.64 429.336 
L 839.808 429.336 
" style="fill:none;stroke:#000000;stroke-linecap:square;stroke-linejoin:miter;stroke-width:0.8;"/>
   </g>
   <g id="patch_6">
    <path d="M 116.64 57.888 
L 839.808 57.888 
" style="fill:none;stroke:#000000;stroke-linecap:square;stroke-linejoin:miter;stroke-width:0.8;"/>
   </g>
   <g id="text_15">
    <!-- COVID-19 cases, selected countries, data from ecdc.europa.eu as of 2020-04-20 -->
    <defs>
     <path d="M 39.40625 66.21875 
Q 28.65625 66.21875 22.328125 58.203125 
Q 16.015625 50.203125 16.015625 36.375 
Q 16.015625 22.609375 22.328125 14.59375 
Q 28.65625 6.59375 39.40625 6.59375 
Q 50.140625 6.59375 56.421875 14.59375 
Q 62.703125 22.609375 62.703125 36.375 
Q 62.703125 50.203125 56.421875 58.203125 
Q 50.140625 66.21875 39.40625 66.21875 
z
M 39.40625 74.21875 
Q 54.734375 74.21875 63.90625 63.9375 
Q 73.09375 53.65625 73.09375 36.375 
Q 73.09375 19.140625 63.90625 8.859375 
Q 54.734375 -1.421875 39.40625 -1.421875 
Q 24.03125 -1.421875 14.8125 8.828125 
Q 5.609375 19.09375 5.609375 36.375 
Q 5.609375 53.65625 14.8125 63.9375 
Q 24.03125 74.21875 39.40625 74.21875 
z
" id="DejaVuSans-79"/>
     <path d="M 28.609375 0 
L 0.78125 72.90625 
L 11.078125 72.90625 
L 34.1875 11.53125 
L 57.328125 72.90625 
L 67.578125 72.90625 
L 39.796875 0 
z
" id="DejaVuSans-86"/>
     <path d="M 9.8125 72.90625 
L 19.671875 72.90625 
L 19.671875 0 
L 9.8125 0 
z
" id="DejaVuSans-73"/>
     <path d="M 4.890625 31.390625 
L 31.203125 31.390625 
L 31.203125 23.390625 
L 4.890625 23.390625 
z
" id="DejaVuSans-45"/>
     <path d="M 10.984375 1.515625 
L 10.984375 10.5 
Q 14.703125 8.734375 18.5 7.8125 
Q 22.3125 6.890625 25.984375 6.890625 
Q 35.75 6.890625 40.890625 13.453125 
Q 46.046875 20.015625 46.78125 33.40625 
Q 43.953125 29.203125 39.59375 26.953125 
Q 35.25 24.703125 29.984375 24.703125 
Q 19.046875 24.703125 12.671875 31.3125 
Q 6.296875 37.9375 6.296875 49.421875 
Q 6.296875 60.640625 12.9375 67.421875 
Q 19.578125 74.21875 30.609375 74.21875 
Q 43.265625 74.21875 49.921875 64.515625 
Q 56.59375 54.828125 56.59375 36.375 
Q 56.59375 19.140625 48.40625 8.859375 
Q 40.234375 -1.421875 26.421875 -1.421875 
Q 22.703125 -1.421875 18.890625 -0.6875 
Q 15.09375 0.046875 10.984375 1.515625 
z
M 30.609375 32.421875 
Q 37.25 32.421875 41.125 36.953125 
Q 45.015625 41.5 45.015625 49.421875 
Q 45.015625 57.28125 41.125 61.84375 
Q 37.25 66.40625 30.609375 66.40625 
Q 23.96875 66.40625 20.09375 61.84375 
Q 16.21875 57.28125 16.21875 49.421875 
Q 16.21875 41.5 20.09375 36.953125 
Q 23.96875 32.421875 30.609375 32.421875 
z
" id="DejaVuSans-57"/>
     <path d="M 48.78125 52.59375 
L 48.78125 44.1875 
Q 44.96875 46.296875 41.140625 47.34375 
Q 37.3125 48.390625 33.40625 48.390625 
Q 24.65625 48.390625 19.8125 42.84375 
Q 14.984375 37.3125 14.984375 27.296875 
Q 14.984375 17.28125 19.8125 11.734375 
Q 24.65625 6.203125 33.40625 6.203125 
Q 37.3125 6.203125 41.140625 7.25 
Q 44.96875 8.296875 48.78125 10.40625 
L 48.78125 2.09375 
Q 45.015625 0.34375 40.984375 -0.53125 
Q 36.96875 -1.421875 32.421875 -1.421875 
Q 20.0625 -1.421875 12.78125 6.34375 
Q 5.515625 14.109375 5.515625 27.296875 
Q 5.515625 40.671875 12.859375 48.328125 
Q 20.21875 56 33.015625 56 
Q 37.15625 56 41.109375 55.140625 
Q 45.0625 54.296875 48.78125 52.59375 
z
" id="DejaVuSans-99"/>
     <path d="M 11.71875 12.40625 
L 22.015625 12.40625 
L 22.015625 4 
L 14.015625 -11.625 
L 7.71875 -11.625 
L 11.71875 4 
z
" id="DejaVuSans-44"/>
     <path d="M 45.40625 46.390625 
L 45.40625 75.984375 
L 54.390625 75.984375 
L 54.390625 0 
L 45.40625 0 
L 45.40625 8.203125 
Q 42.578125 3.328125 38.25 0.953125 
Q 33.9375 -1.421875 27.875 -1.421875 
Q 17.96875 -1.421875 11.734375 6.484375 
Q 5.515625 14.40625 5.515625 27.296875 
Q 5.515625 40.1875 11.734375 48.09375 
Q 17.96875 56 27.875 56 
Q 33.9375 56 38.25 53.625 
Q 42.578125 51.265625 45.40625 46.390625 
z
M 14.796875 27.296875 
Q 14.796875 17.390625 18.875 11.75 
Q 22.953125 6.109375 30.078125 6.109375 
Q 37.203125 6.109375 41.296875 11.75 
Q 45.40625 17.390625 45.40625 27.296875 
Q 45.40625 37.203125 41.296875 42.84375 
Q 37.203125 48.484375 30.078125 48.484375 
Q 22.953125 48.484375 18.875 42.84375 
Q 14.796875 37.203125 14.796875 27.296875 
z
" id="DejaVuSans-100"/>
     <path d="M 8.5 21.578125 
L 8.5 54.6875 
L 17.484375 54.6875 
L 17.484375 21.921875 
Q 17.484375 14.15625 20.5 10.265625 
Q 23.53125 6.390625 29.59375 6.390625 
Q 36.859375 6.390625 41.078125 11.03125 
Q 45.3125 15.671875 45.3125 23.6875 
L 45.3125 54.6875 
L 54.296875 54.6875 
L 54.296875 0 
L 45.3125 0 
L 45.3125 8.40625 
Q 42.046875 3.421875 37.71875 1 
Q 33.40625 -1.421875 27.6875 -1.421875 
Q 18.265625 -1.421875 13.375 4.4375 
Q 8.5 10.296875 8.5 21.578125 
z
M 31.109375 56 
z
" id="DejaVuSans-117"/>
     <path d="M 54.890625 33.015625 
L 54.890625 0 
L 45.90625 0 
L 45.90625 32.71875 
Q 45.90625 40.484375 42.875 44.328125 
Q 39.84375 48.1875 33.796875 48.1875 
Q 26.515625 48.1875 22.3125 43.546875 
Q 18.109375 38.921875 18.109375 30.90625 
L 18.109375 0 
L 9.078125 0 
L 9.078125 54.6875 
L 18.109375 54.6875 
L 18.109375 46.1875 
Q 21.34375 51.125 25.703125 53.5625 
Q 30.078125 56 35.796875 56 
Q 45.21875 56 50.046875 50.171875 
Q 54.890625 44.34375 54.890625 33.015625 
z
" id="DejaVuSans-110"/>
     <path d="M 9.421875 54.6875 
L 18.40625 54.6875 
L 18.40625 0 
L 9.421875 0 
z
M 9.421875 75.984375 
L 18.40625 75.984375 
L 18.40625 64.59375 
L 9.421875 64.59375 
z
" id="DejaVuSans-105"/>
     <path d="M 37.109375 75.984375 
L 37.109375 68.5 
L 28.515625 68.5 
Q 23.6875 68.5 21.796875 66.546875 
Q 19.921875 64.59375 19.921875 59.515625 
L 19.921875 54.6875 
L 34.71875 54.6875 
L 34.71875 47.703125 
L 19.921875 47.703125 
L 19.921875 0 
L 10.890625 0 
L 10.890625 47.703125 
L 2.296875 47.703125 
L 2.296875 54.6875 
L 10.890625 54.6875 
L 10.890625 58.5 
Q 10.890625 67.625 15.140625 71.796875 
Q 19.390625 75.984375 28.609375 75.984375 
z
" id="DejaVuSans-102"/>
     <path d="M 52 44.1875 
Q 55.375 50.25 60.0625 53.125 
Q 64.75 56 71.09375 56 
Q 79.640625 56 84.28125 50.015625 
Q 88.921875 44.046875 88.921875 33.015625 
L 88.921875 0 
L 79.890625 0 
L 79.890625 32.71875 
Q 79.890625 40.578125 77.09375 44.375 
Q 74.3125 48.1875 68.609375 48.1875 
Q 61.625 48.1875 57.5625 43.546875 
Q 53.515625 38.921875 53.515625 30.90625 
L 53.515625 0 
L 44.484375 0 
L 44.484375 32.71875 
Q 44.484375 40.625 41.703125 44.40625 
Q 38.921875 48.1875 33.109375 48.1875 
Q 26.21875 48.1875 22.15625 43.53125 
Q 18.109375 38.875 18.109375 30.90625 
L 18.109375 0 
L 9.078125 0 
L 9.078125 54.6875 
L 18.109375 54.6875 
L 18.109375 46.1875 
Q 21.1875 51.21875 25.484375 53.609375 
Q 29.78125 56 35.6875 56 
Q 41.65625 56 45.828125 52.96875 
Q 50 49.953125 52 44.1875 
z
" id="DejaVuSans-109"/>
     <path d="M 10.6875 12.40625 
L 21 12.40625 
L 21 0 
L 10.6875 0 
z
" id="DejaVuSans-46"/>
     <path d="M 18.109375 8.203125 
L 18.109375 -20.796875 
L 9.078125 -20.796875 
L 9.078125 54.6875 
L 18.109375 54.6875 
L 18.109375 46.390625 
Q 20.953125 51.265625 25.265625 53.625 
Q 29.59375 56 35.59375 56 
Q 45.5625 56 51.78125 48.09375 
Q 58.015625 40.1875 58.015625 27.296875 
Q 58.015625 14.40625 51.78125 6.484375 
Q 45.5625 -1.421875 35.59375 -1.421875 
Q 29.59375 -1.421875 25.265625 0.953125 
Q 20.953125 3.328125 18.109375 8.203125 
z
M 48.6875 27.296875 
Q 48.6875 37.203125 44.609375 42.84375 
Q 40.53125 48.484375 33.40625 48.484375 
Q 26.265625 48.484375 22.1875 42.84375 
Q 18.109375 37.203125 18.109375 27.296875 
Q 18.109375 17.390625 22.1875 11.75 
Q 26.265625 6.109375 33.40625 6.109375 
Q 40.53125 6.109375 44.609375 11.75 
Q 48.6875 17.390625 48.6875 27.296875 
z
" id="DejaVuSans-112"/>
    </defs>
    <g transform="translate(236.33025 25.01325)scale(0.12 -0.12)">
     <use xlink:href="#DejaVuSans-67"/>
     <use x="69.824219" xlink:href="#DejaVuSans-79"/>
     <use x="148.519531" xlink:href="#DejaVuSans-86"/>
     <use x="216.927734" xlink:href="#DejaVuSans-73"/>
     <use x="246.419922" xlink:href="#DejaVuSans-68"/>
     <use x="323.421875" xlink:href="#DejaVuSans-45"/>
     <use x="359.505859" xlink:href="#DejaVuSans-49"/>
     <use x="423.128906" xlink:href="#DejaVuSans-57"/>
     <use x="486.751953" xlink:href="#DejaVuSans-32"/>
     <use x="518.539062" xlink:href="#DejaVuSans-99"/>
     <use x="573.519531" xlink:href="#DejaVuSans-97"/>
     <use x="634.798828" xlink:href="#DejaVuSans-115"/>
     <use x="686.898438" xlink:href="#DejaVuSans-101"/>
     <use x="748.421875" xlink:href="#DejaVuSans-115"/>
     <use x="800.521484" xlink:href="#DejaVuSans-44"/>
     <use x="832.308594" xlink:href="#DejaVuSans-32"/>
     <use x="864.095703" xlink:href="#DejaVuSans-115"/>
     <use x="916.195312" xlink:href="#DejaVuSans-101"/>
     <use x="977.71875" xlink:href="#DejaVuSans-108"/>
     <use x="1005.501953" xlink:href="#DejaVuSans-101"/>
     <use x="1067.025391" xlink:href="#DejaVuSans-99"/>
     <use x="1122.005859" xlink:href="#DejaVuSans-116"/>
     <use x="1161.214844" xlink:href="#DejaVuSans-101"/>
     <use x="1222.738281" xlink:href="#DejaVuSans-100"/>
     <use x="1286.214844" xlink:href="#DejaVuSans-32"/>
     <use x="1318.001953" xlink:href="#DejaVuSans-99"/>
     <use x="1372.982422" xlink:href="#DejaVuSans-111"/>
     <use x="1434.164062" xlink:href="#DejaVuSans-117"/>
     <use x="1497.542969" xlink:href="#DejaVuSans-110"/>
     <use x="1560.921875" xlink:href="#DejaVuSans-116"/>
     <use x="1600.130859" xlink:href="#DejaVuSans-114"/>
     <use x="1641.244141" xlink:href="#DejaVuSans-105"/>
     <use x="1669.027344" xlink:href="#DejaVuSans-101"/>
     <use x="1730.550781" xlink:href="#DejaVuSans-115"/>
     <use x="1782.650391" xlink:href="#DejaVuSans-44"/>
     <use x="1814.4375" xlink:href="#DejaVuSans-32"/>
     <use x="1846.224609" xlink:href="#DejaVuSans-100"/>
     <use x="1909.701172" xlink:href="#DejaVuSans-97"/>
     <use x="1970.980469" xlink:href="#DejaVuSans-116"/>
     <use x="2010.189453" xlink:href="#DejaVuSans-97"/>
     <use x="2071.46875" xlink:href="#DejaVuSans-32"/>
     <use x="2103.255859" xlink:href="#DejaVuSans-102"/>
     <use x="2138.460938" xlink:href="#DejaVuSans-114"/>
     <use x="2179.542969" xlink:href="#DejaVuSans-111"/>
     <use x="2240.724609" xlink:href="#DejaVuSans-109"/>
     <use x="2338.136719" xlink:href="#DejaVuSans-32"/>
     <use x="2369.923828" xlink:href="#DejaVuSans-101"/>
     <use x="2431.447266" xlink:href="#DejaVuSans-99"/>
     <use x="2486.427734" xlink:href="#DejaVuSans-100"/>
     <use x="2549.904297" xlink:href="#DejaVuSans-99"/>
     <use x="2604.884766" xlink:href="#DejaVuSans-46"/>
     <use x="2636.671875" xlink:href="#DejaVuSans-101"/>
     <use x="2698.195312" xlink:href="#DejaVuSans-117"/>
     <use x="2761.574219" xlink:href="#DejaVuSans-114"/>
     <use x="2802.65625" xlink:href="#DejaVuSans-111"/>
     <use x="2863.837891" xlink:href="#DejaVuSans-112"/>
     <use x="2927.314453" xlink:href="#DejaVuSans-97"/>
     <use x="2988.59375" xlink:href="#DejaVuSans-46"/>
     <use x="3020.380859" xlink:href="#DejaVuSans-101"/>
     <use x="3081.904297" xlink:href="#DejaVuSans-117"/>
     <use x="3145.283203" xlink:href="#DejaVuSans-32"/>
     <use x="3177.070312" xlink:href="#DejaVuSans-97"/>
     <use x="3238.349609" xlink:href="#DejaVuSans-115"/>
     <use x="3290.449219" xlink:href="#DejaVuSans-32"/>
     <use x="3322.236328" xlink:href="#DejaVuSans-111"/>
     <use x="3383.417969" xlink:href="#DejaVuSans-102"/>
     <use x="3418.623047" xlink:href="#DejaVuSans-32"/>
     <use x="3450.410156" xlink:href="#DejaVuSans-50"/>
     <use x="3514.033203" xlink:href="#DejaVuSans-48"/>
     <use x="3577.65625" xlink:href="#DejaVuSans-50"/>
     <use x="3641.279297" xlink:href="#DejaVuSans-48"/>
     <use x="3704.902344" xlink:href="#DejaVuSans-45"/>
     <use x="3740.986328" xlink:href="#DejaVuSans-48"/>
     <use x="3804.609375" xlink:href="#DejaVuSans-52"/>
     <use x="3868.232422" xlink:href="#DejaVuSans-45"/>
     <use x="3904.316406" xlink:href="#DejaVuSans-50"/>
     <use x="3967.939453" xlink:href="#DejaVuSans-48"/>
    </g>
    <!-- Logarithmic Scale New vs. Total Cases -->
    <defs>
     <path d="M 45.40625 27.984375 
Q 45.40625 37.75 41.375 43.109375 
Q 37.359375 48.484375 30.078125 48.484375 
Q 22.859375 48.484375 18.828125 43.109375 
Q 14.796875 37.75 14.796875 27.984375 
Q 14.796875 18.265625 18.828125 12.890625 
Q 22.859375 7.515625 30.078125 7.515625 
Q 37.359375 7.515625 41.375 12.890625 
Q 45.40625 18.265625 45.40625 27.984375 
z
M 54.390625 6.78125 
Q 54.390625 -7.171875 48.1875 -13.984375 
Q 42 -20.796875 29.203125 -20.796875 
Q 24.46875 -20.796875 20.265625 -20.09375 
Q 16.0625 -19.390625 12.109375 -17.921875 
L 12.109375 -9.1875 
Q 16.0625 -11.328125 19.921875 -12.34375 
Q 23.78125 -13.375 27.78125 -13.375 
Q 36.625 -13.375 41.015625 -8.765625 
Q 45.40625 -4.15625 45.40625 5.171875 
L 45.40625 9.625 
Q 42.625 4.78125 38.28125 2.390625 
Q 33.9375 0 27.875 0 
Q 17.828125 0 11.671875 7.65625 
Q 5.515625 15.328125 5.515625 27.984375 
Q 5.515625 40.671875 11.671875 48.328125 
Q 17.828125 56 27.875 56 
Q 33.9375 56 38.28125 53.609375 
Q 42.625 51.21875 45.40625 46.390625 
L 45.40625 54.6875 
L 54.390625 54.6875 
z
" id="DejaVuSans-103"/>
     <path d="M 54.890625 33.015625 
L 54.890625 0 
L 45.90625 0 
L 45.90625 32.71875 
Q 45.90625 40.484375 42.875 44.328125 
Q 39.84375 48.1875 33.796875 48.1875 
Q 26.515625 48.1875 22.3125 43.546875 
Q 18.109375 38.921875 18.109375 30.90625 
L 18.109375 0 
L 9.078125 0 
L 9.078125 75.984375 
L 18.109375 75.984375 
L 18.109375 46.1875 
Q 21.34375 51.125 25.703125 53.5625 
Q 30.078125 56 35.796875 56 
Q 45.21875 56 50.046875 50.171875 
Q 54.890625 44.34375 54.890625 33.015625 
z
" id="DejaVuSans-104"/>
     <path d="M 53.515625 70.515625 
L 53.515625 60.890625 
Q 47.90625 63.578125 42.921875 64.890625 
Q 37.9375 66.21875 33.296875 66.21875 
Q 25.25 66.21875 20.875 63.09375 
Q 16.5 59.96875 16.5 54.203125 
Q 16.5 49.359375 19.40625 46.890625 
Q 22.3125 44.4375 30.421875 42.921875 
L 36.375 41.703125 
Q 47.40625 39.59375 52.65625 34.296875 
Q 57.90625 29 57.90625 20.125 
Q 57.90625 9.515625 50.796875 4.046875 
Q 43.703125 -1.421875 29.984375 -1.421875 
Q 24.8125 -1.421875 18.96875 -0.25 
Q 13.140625 0.921875 6.890625 3.21875 
L 6.890625 13.375 
Q 12.890625 10.015625 18.65625 8.296875 
Q 24.421875 6.59375 29.984375 6.59375 
Q 38.421875 6.59375 43.015625 9.90625 
Q 47.609375 13.234375 47.609375 19.390625 
Q 47.609375 24.75 44.3125 27.78125 
Q 41.015625 30.8125 33.5 32.328125 
L 27.484375 33.5 
Q 16.453125 35.6875 11.515625 40.375 
Q 6.59375 45.0625 6.59375 53.421875 
Q 6.59375 63.09375 13.40625 68.65625 
Q 20.21875 74.21875 32.171875 74.21875 
Q 37.3125 74.21875 42.625 73.28125 
Q 47.953125 72.359375 53.515625 70.515625 
z
" id="DejaVuSans-83"/>
     <path d="M 2.984375 54.6875 
L 12.5 54.6875 
L 29.59375 8.796875 
L 46.6875 54.6875 
L 56.203125 54.6875 
L 35.6875 0 
L 23.484375 0 
z
" id="DejaVuSans-118"/>
    </defs>
    <g transform="translate(362.451188 38.450625)scale(0.12 -0.12)">
     <use xlink:href="#DejaVuSans-76"/>
     <use x="55.697266" xlink:href="#DejaVuSans-111"/>
     <use x="116.878906" xlink:href="#DejaVuSans-103"/>
     <use x="180.355469" xlink:href="#DejaVuSans-97"/>
     <use x="241.634766" xlink:href="#DejaVuSans-114"/>
     <use x="282.748047" xlink:href="#DejaVuSans-105"/>
     <use x="310.53125" xlink:href="#DejaVuSans-116"/>
     <use x="349.740234" xlink:href="#DejaVuSans-104"/>
     <use x="413.119141" xlink:href="#DejaVuSans-109"/>
     <use x="510.53125" xlink:href="#DejaVuSans-105"/>
     <use x="538.314453" xlink:href="#DejaVuSans-99"/>
     <use x="593.294922" xlink:href="#DejaVuSans-32"/>
     <use x="625.082031" xlink:href="#DejaVuSans-83"/>
     <use x="688.558594" xlink:href="#DejaVuSans-99"/>
     <use x="743.539062" xlink:href="#DejaVuSans-97"/>
     <use x="804.818359" xlink:href="#DejaVuSans-108"/>
     <use x="832.601562" xlink:href="#DejaVuSans-101"/>
     <use x="894.125" xlink:href="#DejaVuSans-32"/>
     <use x="925.912109" xlink:href="#DejaVuSans-78"/>
     <use x="1000.716797" xlink:href="#DejaVuSans-101"/>
     <use x="1062.240234" xlink:href="#DejaVuSans-119"/>
     <use x="1144.027344" xlink:href="#DejaVuSans-32"/>
     <use x="1175.814453" xlink:href="#DejaVuSans-118"/>
     <use x="1234.994141" xlink:href="#DejaVuSans-115"/>
     <use x="1287.09375" xlink:href="#DejaVuSans-46"/>
     <use x="1318.880859" xlink:href="#DejaVuSans-32"/>
     <use x="1350.667969" xlink:href="#DejaVuSans-84"/>
     <use x="1411.486328" xlink:href="#DejaVuSans-111"/>
     <use x="1472.667969" xlink:href="#DejaVuSans-116"/>
     <use x="1511.876953" xlink:href="#DejaVuSans-97"/>
     <use x="1573.15625" xlink:href="#DejaVuSans-108"/>
     <use x="1600.939453" xlink:href="#DejaVuSans-32"/>
     <use x="1632.726562" xlink:href="#DejaVuSans-67"/>
     <use x="1702.550781" xlink:href="#DejaVuSans-97"/>
     <use x="1763.830078" xlink:href="#DejaVuSans-115"/>
     <use x="1815.929688" xlink:href="#DejaVuSans-101"/>
     <use x="1877.453125" xlink:href="#DejaVuSans-115"/>
    </g>
    <!-- https://github.com/PavelDusek/COVID-19 -->
    <defs>
     <path d="M 11.71875 12.40625 
L 22.015625 12.40625 
L 22.015625 0 
L 11.71875 0 
z
M 11.71875 51.703125 
L 22.015625 51.703125 
L 22.015625 39.3125 
L 11.71875 39.3125 
z
" id="DejaVuSans-58"/>
     <path d="M 25.390625 72.90625 
L 33.6875 72.90625 
L 8.296875 -9.28125 
L 0 -9.28125 
z
" id="DejaVuSans-47"/>
     <path d="M 48.6875 27.296875 
Q 48.6875 37.203125 44.609375 42.84375 
Q 40.53125 48.484375 33.40625 48.484375 
Q 26.265625 48.484375 22.1875 42.84375 
Q 18.109375 37.203125 18.109375 27.296875 
Q 18.109375 17.390625 22.1875 11.75 
Q 26.265625 6.109375 33.40625 6.109375 
Q 40.53125 6.109375 44.609375 11.75 
Q 48.6875 17.390625 48.6875 27.296875 
z
M 18.109375 46.390625 
Q 20.953125 51.265625 25.265625 53.625 
Q 29.59375 56 35.59375 56 
Q 45.5625 56 51.78125 48.09375 
Q 58.015625 40.1875 58.015625 27.296875 
Q 58.015625 14.40625 51.78125 6.484375 
Q 45.5625 -1.421875 35.59375 -1.421875 
Q 29.59375 -1.421875 25.265625 0.953125 
Q 20.953125 3.328125 18.109375 8.203125 
L 18.109375 0 
L 9.078125 0 
L 9.078125 75.984375 
L 18.109375 75.984375 
z
" id="DejaVuSans-98"/>
     <path d="M 19.671875 64.796875 
L 19.671875 37.40625 
L 32.078125 37.40625 
Q 38.96875 37.40625 42.71875 40.96875 
Q 46.484375 44.53125 46.484375 51.125 
Q 46.484375 57.671875 42.71875 61.234375 
Q 38.96875 64.796875 32.078125 64.796875 
z
M 9.8125 72.90625 
L 32.078125 72.90625 
Q 44.34375 72.90625 50.609375 67.359375 
Q 56.890625 61.8125 56.890625 51.125 
Q 56.890625 40.328125 50.609375 34.8125 
Q 44.34375 29.296875 32.078125 29.296875 
L 19.671875 29.296875 
L 19.671875 0 
L 9.8125 0 
z
" id="DejaVuSans-80"/>
     <path d="M 9.078125 75.984375 
L 18.109375 75.984375 
L 18.109375 31.109375 
L 44.921875 54.6875 
L 56.390625 54.6875 
L 27.390625 29.109375 
L 57.625 0 
L 45.90625 0 
L 18.109375 26.703125 
L 18.109375 0 
L 9.078125 0 
z
" id="DejaVuSans-107"/>
    </defs>
    <g transform="translate(354.591188 51.888)scale(0.12 -0.12)">
     <use xlink:href="#DejaVuSans-104"/>
     <use x="63.378906" xlink:href="#DejaVuSans-116"/>
     <use x="102.587891" xlink:href="#DejaVuSans-116"/>
     <use x="141.796875" xlink:href="#DejaVuSans-112"/>
     <use x="205.273438" xlink:href="#DejaVuSans-115"/>
     <use x="257.373047" xlink:href="#DejaVuSans-58"/>
     <use x="291.064453" xlink:href="#DejaVuSans-47"/>
     <use x="324.755859" xlink:href="#DejaVuSans-47"/>
     <use x="358.447266" xlink:href="#DejaVuSans-103"/>
     <use x="421.923828" xlink:href="#DejaVuSans-105"/>
     <use x="449.707031" xlink:href="#DejaVuSans-116"/>
     <use x="488.916016" xlink:href="#DejaVuSans-104"/>
     <use x="552.294922" xlink:href="#DejaVuSans-117"/>
     <use x="615.673828" xlink:href="#DejaVuSans-98"/>
     <use x="679.150391" xlink:href="#DejaVuSans-46"/>
     <use x="710.9375" xlink:href="#DejaVuSans-99"/>
     <use x="765.917969" xlink:href="#DejaVuSans-111"/>
     <use x="827.099609" xlink:href="#DejaVuSans-109"/>
     <use x="924.511719" xlink:href="#DejaVuSans-47"/>
     <use x="958.203125" xlink:href="#DejaVuSans-80"/>
     <use x="1018.443359" xlink:href="#DejaVuSans-97"/>
     <use x="1079.722656" xlink:href="#DejaVuSans-118"/>
     <use x="1138.902344" xlink:href="#DejaVuSans-101"/>
     <use x="1200.425781" xlink:href="#DejaVuSans-108"/>
     <use x="1228.208984" xlink:href="#DejaVuSans-68"/>
     <use x="1305.210938" xlink:href="#DejaVuSans-117"/>
     <use x="1368.589844" xlink:href="#DejaVuSans-115"/>
     <use x="1420.689453" xlink:href="#DejaVuSans-101"/>
     <use x="1482.212891" xlink:href="#DejaVuSans-107"/>
     <use x="1540.123047" xlink:href="#DejaVuSans-47"/>
     <use x="1573.814453" xlink:href="#DejaVuSans-67"/>
     <use x="1643.638672" xlink:href="#DejaVuSans-79"/>
     <use x="1722.333984" xlink:href="#DejaVuSans-86"/>
     <use x="1790.742188" xlink:href="#DejaVuSans-73"/>
     <use x="1820.234375" xlink:href="#DejaVuSans-68"/>
     <use x="1897.236328" xlink:href="#DejaVuSans-45"/>
     <use x="1933.320312" xlink:href="#DejaVuSans-49"/>
     <use x="1996.943359" xlink:href="#DejaVuSans-57"/>
    </g>
   </g>
   <g id="legend_1">
    <g id="patch_7">
     <path d="M 123.64 153.95675 
L 280.599375 153.95675 
Q 282.599375 153.95675 282.599375 151.95675 
L 282.599375 64.888 
Q 282.599375 62.888 280.599375 62.888 
L 123.64 62.888 
Q 121.64 62.888 121.64 64.888 
L 121.64 151.95675 
Q 121.64 153.95675 123.64 153.95675 
z
" style="fill:#ffffff;opacity:0.8;stroke:#cccccc;stroke-linejoin:miter;"/>
    </g>
    <g id="line2d_114">
     <path d="M 125.64 70.986437 
L 145.64 70.986437 
" style="fill:none;stroke:#1f77b4;stroke-linecap:square;stroke-width:1.5;"/>
    </g>
    <g id="line2d_115"/>
    <g id="text_16">
     <!-- China -->
     <g transform="translate(153.64 74.486437)scale(0.1 -0.1)">
      <use xlink:href="#DejaVuSans-67"/>
      <use x="69.824219" xlink:href="#DejaVuSans-104"/>
      <use x="133.203125" xlink:href="#DejaVuSans-105"/>
      <use x="160.986328" xlink:href="#DejaVuSans-110"/>
      <use x="224.365234" xlink:href="#DejaVuSans-97"/>
     </g>
    </g>
    <g id="line2d_116">
     <path d="M 125.64 85.664562 
L 145.64 85.664562 
" style="fill:none;stroke:#ff7f0e;stroke-linecap:square;stroke-width:1.5;"/>
    </g>
    <g id="line2d_117"/>
    <g id="text_17">
     <!-- Czech Republic -->
     <defs>
      <path d="M 5.515625 54.6875 
L 48.1875 54.6875 
L 48.1875 46.484375 
L 14.40625 7.171875 
L 48.1875 7.171875 
L 48.1875 0 
L 4.296875 0 
L 4.296875 8.203125 
L 38.09375 47.515625 
L 5.515625 47.515625 
z
" id="DejaVuSans-122"/>
      <path d="M 44.390625 34.1875 
Q 47.5625 33.109375 50.5625 29.59375 
Q 53.5625 26.078125 56.59375 19.921875 
L 66.609375 0 
L 56 0 
L 46.6875 18.703125 
Q 43.0625 26.03125 39.671875 28.421875 
Q 36.28125 30.8125 30.421875 30.8125 
L 19.671875 30.8125 
L 19.671875 0 
L 9.8125 0 
L 9.8125 72.90625 
L 32.078125 72.90625 
Q 44.578125 72.90625 50.734375 67.671875 
Q 56.890625 62.453125 56.890625 51.90625 
Q 56.890625 45.015625 53.6875 40.46875 
Q 50.484375 35.9375 44.390625 34.1875 
z
M 19.671875 64.796875 
L 19.671875 38.921875 
L 32.078125 38.921875 
Q 39.203125 38.921875 42.84375 42.21875 
Q 46.484375 45.515625 46.484375 51.90625 
Q 46.484375 58.296875 42.84375 61.546875 
Q 39.203125 64.796875 32.078125 64.796875 
z
" id="DejaVuSans-82"/>
     </defs>
     <g transform="translate(153.64 89.164562)scale(0.1 -0.1)">
      <use xlink:href="#DejaVuSans-67"/>
      <use x="69.824219" xlink:href="#DejaVuSans-122"/>
      <use x="122.314453" xlink:href="#DejaVuSans-101"/>
      <use x="183.837891" xlink:href="#DejaVuSans-99"/>
      <use x="238.818359" xlink:href="#DejaVuSans-104"/>
      <use x="302.197266" xlink:href="#DejaVuSans-32"/>
      <use x="333.984375" xlink:href="#DejaVuSans-82"/>
      <use x="403.404297" xlink:href="#DejaVuSans-101"/>
      <use x="464.927734" xlink:href="#DejaVuSans-112"/>
      <use x="528.404297" xlink:href="#DejaVuSans-117"/>
      <use x="591.783203" xlink:href="#DejaVuSans-98"/>
      <use x="655.259766" xlink:href="#DejaVuSans-108"/>
      <use x="683.042969" xlink:href="#DejaVuSans-105"/>
      <use x="710.826172" xlink:href="#DejaVuSans-99"/>
     </g>
    </g>
    <g id="line2d_118">
     <path d="M 125.64 100.342687 
L 145.64 100.342687 
" style="fill:none;stroke:#2ca02c;stroke-linecap:square;stroke-width:1.5;"/>
    </g>
    <g id="line2d_119"/>
    <g id="text_18">
     <!-- Italy -->
     <g transform="translate(153.64 103.842687)scale(0.1 -0.1)">
      <use xlink:href="#DejaVuSans-73"/>
      <use x="29.492188" xlink:href="#DejaVuSans-116"/>
      <use x="68.701172" xlink:href="#DejaVuSans-97"/>
      <use x="129.980469" xlink:href="#DejaVuSans-108"/>
      <use x="157.763672" xlink:href="#DejaVuSans-121"/>
     </g>
    </g>
    <g id="line2d_120">
     <path d="M 125.64 115.020812 
L 145.64 115.020812 
" style="fill:none;stroke:#d62728;stroke-linecap:square;stroke-width:1.5;"/>
    </g>
    <g id="line2d_121"/>
    <g id="text_19">
     <!-- Slovakia -->
     <g transform="translate(153.64 118.520812)scale(0.1 -0.1)">
      <use xlink:href="#DejaVuSans-83"/>
      <use x="63.476562" xlink:href="#DejaVuSans-108"/>
      <use x="91.259766" xlink:href="#DejaVuSans-111"/>
      <use x="152.441406" xlink:href="#DejaVuSans-118"/>
      <use x="211.621094" xlink:href="#DejaVuSans-97"/>
      <use x="272.900391" xlink:href="#DejaVuSans-107"/>
      <use x="330.810547" xlink:href="#DejaVuSans-105"/>
      <use x="358.59375" xlink:href="#DejaVuSans-97"/>
     </g>
    </g>
    <g id="line2d_122">
     <path d="M 125.64 129.698937 
L 145.64 129.698937 
" style="fill:none;stroke:#9467bd;stroke-linecap:square;stroke-width:1.5;"/>
    </g>
    <g id="line2d_123"/>
    <g id="text_20">
     <!-- Taiwan -->
     <g transform="translate(153.64 133.198937)scale(0.1 -0.1)">
      <use xlink:href="#DejaVuSans-84"/>
      <use x="60.833984" xlink:href="#DejaVuSans-97"/>
      <use x="122.113281" xlink:href="#DejaVuSans-105"/>
      <use x="149.896484" xlink:href="#DejaVuSans-119"/>
      <use x="231.683594" xlink:href="#DejaVuSans-97"/>
      <use x="292.962891" xlink:href="#DejaVuSans-110"/>
     </g>
    </g>
    <g id="line2d_124">
     <path d="M 125.64 144.377062 
L 145.64 144.377062 
" style="fill:none;stroke:#8c564b;stroke-linecap:square;stroke-width:1.5;"/>
    </g>
    <g id="line2d_125"/>
    <g id="text_21">
     <!-- United States of America -->
     <defs>
      <path d="M 8.6875 72.90625 
L 18.609375 72.90625 
L 18.609375 28.609375 
Q 18.609375 16.890625 22.84375 11.734375 
Q 27.09375 6.59375 36.625 6.59375 
Q 46.09375 6.59375 50.34375 11.734375 
Q 54.59375 16.890625 54.59375 28.609375 
L 54.59375 72.90625 
L 64.5 72.90625 
L 64.5 27.390625 
Q 64.5 13.140625 57.4375 5.859375 
Q 50.390625 -1.421875 36.625 -1.421875 
Q 22.796875 -1.421875 15.734375 5.859375 
Q 8.6875 13.140625 8.6875 27.390625 
z
" id="DejaVuSans-85"/>
      <path d="M 34.1875 63.1875 
L 20.796875 26.90625 
L 47.609375 26.90625 
z
M 28.609375 72.90625 
L 39.796875 72.90625 
L 67.578125 0 
L 57.328125 0 
L 50.6875 18.703125 
L 17.828125 18.703125 
L 11.1875 0 
L 0.78125 0 
z
" id="DejaVuSans-65"/>
     </defs>
     <g transform="translate(153.64 147.877062)scale(0.1 -0.1)">
      <use xlink:href="#DejaVuSans-85"/>
      <use x="73.193359" xlink:href="#DejaVuSans-110"/>
      <use x="136.572266" xlink:href="#DejaVuSans-105"/>
      <use x="164.355469" xlink:href="#DejaVuSans-116"/>
      <use x="203.564453" xlink:href="#DejaVuSans-101"/>
      <use x="265.087891" xlink:href="#DejaVuSans-100"/>
      <use x="328.564453" xlink:href="#DejaVuSans-32"/>
      <use x="360.351562" xlink:href="#DejaVuSans-83"/>
      <use x="423.828125" xlink:href="#DejaVuSans-116"/>
      <use x="463.037109" xlink:href="#DejaVuSans-97"/>
      <use x="524.316406" xlink:href="#DejaVuSans-116"/>
      <use x="563.525391" xlink:href="#DejaVuSans-101"/>
      <use x="625.048828" xlink:href="#DejaVuSans-115"/>
      <use x="677.148438" xlink:href="#DejaVuSans-32"/>
      <use x="708.935547" xlink:href="#DejaVuSans-111"/>
      <use x="770.117188" xlink:href="#DejaVuSans-102"/>
      <use x="805.322266" xlink:href="#DejaVuSans-32"/>
      <use x="837.109375" xlink:href="#DejaVuSans-65"/>
      <use x="905.517578" xlink:href="#DejaVuSans-109"/>
      <use x="1002.929688" xlink:href="#DejaVuSans-101"/>
      <use x="1064.453125" xlink:href="#DejaVuSans-114"/>
      <use x="1105.566406" xlink:href="#DejaVuSans-105"/>
      <use x="1133.349609" xlink:href="#DejaVuSans-99"/>
      <use x="1188.330078" xlink:href="#DejaVuSans-97"/>
     </g>
    </g>
   </g>
  </g>
 </g>
 <defs>
  <clipPath id="p653ed2c5f4">
   <rect height="371.448" width="723.168" x="116.64" y="57.888"/>
  </clipPath>
 </defs>
</svg>
