<?xml version="1.0" encoding="utf-8" standalone="no"?>
<!DOCTYPE svg PUBLIC "-//W3C//DTD SVG 1.1//EN"
  "http://www.w3.org/Graphics/SVG/1.1/DTD/svg11.dtd">
<!-- Created with matplotlib (https://matplotlib.org/) -->
<svg height="482.4pt" version="1.1" viewBox="0 0 933.12 482.4" width="933.12pt" xmlns="http://www.w3.org/2000/svg" xmlns:xlink="http://www.w3.org/1999/xlink">
 <defs>
  <style type="text/css">
*{stroke-linecap:butt;stroke-linejoin:round;}
  </style>
 </defs>
 <g id="figure_1">
  <g id="patch_1">
   <path d="M 0 482.4 
L 933.12 482.4 
L 933.12 0 
L 0 0 
z
" style="fill:#ffffff;"/>
  </g>
  <g id="axes_1">
   <g id="patch_2">
    <path d="M 116.64 429.336 
L 839.808 429.336 
L 839.808 57.888 
L 116.64 57.888 
z
" style="fill:#ffffff;"/>
   </g>
   <g id="matplotlib.axis_1">
    <g id="xtick_1">
     <g id="line2d_1">
      <defs>
       <path d="M 0 0 
L 0 3.5 
" id="mc4cfdd54ad" style="stroke:#000000;stroke-width:0.8;"/>
      </defs>
      <g>
       <use style="stroke:#000000;stroke-width:0.8;" x="208.925022" xlink:href="#mc4cfdd54ad" y="429.336"/>
      </g>
     </g>
     <g id="text_1">
      <!-- $\mathdefault{10^{1}}$ -->
      <defs>
       <path d="M 12.40625 8.296875 
L 28.515625 8.296875 
L 28.515625 63.921875 
L 10.984375 60.40625 
L 10.984375 69.390625 
L 28.421875 72.90625 
L 38.28125 72.90625 
L 38.28125 8.296875 
L 54.390625 8.296875 
L 54.390625 0 
L 12.40625 0 
z
" id="DejaVuSans-49"/>
       <path d="M 31.78125 66.40625 
Q 24.171875 66.40625 20.328125 58.90625 
Q 16.5 51.421875 16.5 36.375 
Q 16.5 21.390625 20.328125 13.890625 
Q 24.171875 6.390625 31.78125 6.390625 
Q 39.453125 6.390625 43.28125 13.890625 
Q 47.125 21.390625 47.125 36.375 
Q 47.125 51.421875 43.28125 58.90625 
Q 39.453125 66.40625 31.78125 66.40625 
z
M 31.78125 74.21875 
Q 44.046875 74.21875 50.515625 64.515625 
Q 56.984375 54.828125 56.984375 36.375 
Q 56.984375 17.96875 50.515625 8.265625 
Q 44.046875 -1.421875 31.78125 -1.421875 
Q 19.53125 -1.421875 13.0625 8.265625 
Q 6.59375 17.96875 6.59375 36.375 
Q 6.59375 54.828125 13.0625 64.515625 
Q 19.53125 74.21875 31.78125 74.21875 
z
" id="DejaVuSans-48"/>
      </defs>
      <g transform="translate(200.125022 443.934438)scale(0.1 -0.1)">
       <use transform="translate(0 0.684375)" xlink:href="#DejaVuSans-49"/>
       <use transform="translate(63.623047 0.684375)" xlink:href="#DejaVuSans-48"/>
       <use transform="translate(128.203125 38.965625)scale(0.7)" xlink:href="#DejaVuSans-49"/>
      </g>
     </g>
    </g>
    <g id="xtick_2">
     <g id="line2d_2">
      <g>
       <use style="stroke:#000000;stroke-width:0.8;" x="322.55318" xlink:href="#mc4cfdd54ad" y="429.336"/>
      </g>
     </g>
     <g id="text_2">
      <!-- $\mathdefault{10^{2}}$ -->
      <defs>
       <path d="M 19.1875 8.296875 
L 53.609375 8.296875 
L 53.609375 0 
L 7.328125 0 
L 7.328125 8.296875 
Q 12.9375 14.109375 22.625 23.890625 
Q 32.328125 33.6875 34.8125 36.53125 
Q 39.546875 41.84375 41.421875 45.53125 
Q 43.3125 49.21875 43.3125 52.78125 
Q 43.3125 58.59375 39.234375 62.25 
Q 35.15625 65.921875 28.609375 65.921875 
Q 23.96875 65.921875 18.8125 64.3125 
Q 13.671875 62.703125 7.8125 59.421875 
L 7.8125 69.390625 
Q 13.765625 71.78125 18.9375 73 
Q 24.125 74.21875 28.421875 74.21875 
Q 39.75 74.21875 46.484375 68.546875 
Q 53.21875 62.890625 53.21875 53.421875 
Q 53.21875 48.921875 51.53125 44.890625 
Q 49.859375 40.875 45.40625 35.40625 
Q 44.1875 33.984375 37.640625 27.21875 
Q 31.109375 20.453125 19.1875 8.296875 
z
" id="DejaVuSans-50"/>
      </defs>
      <g transform="translate(313.75318 443.934438)scale(0.1 -0.1)">
       <use transform="translate(0 0.765625)" xlink:href="#DejaVuSans-49"/>
       <use transform="translate(63.623047 0.765625)" xlink:href="#DejaVuSans-48"/>
       <use transform="translate(128.203125 39.046875)scale(0.7)" xlink:href="#DejaVuSans-50"/>
      </g>
     </g>
    </g>
    <g id="xtick_3">
     <g id="line2d_3">
      <g>
       <use style="stroke:#000000;stroke-width:0.8;" x="436.181338" xlink:href="#mc4cfdd54ad" y="429.336"/>
      </g>
     </g>
     <g id="text_3">
      <!-- $\mathdefault{10^{3}}$ -->
      <defs>
       <path d="M 40.578125 39.3125 
Q 47.65625 37.796875 51.625 33 
Q 55.609375 28.21875 55.609375 21.1875 
Q 55.609375 10.40625 48.1875 4.484375 
Q 40.765625 -1.421875 27.09375 -1.421875 
Q 22.515625 -1.421875 17.65625 -0.515625 
Q 12.796875 0.390625 7.625 2.203125 
L 7.625 11.71875 
Q 11.71875 9.328125 16.59375 8.109375 
Q 21.484375 6.890625 26.8125 6.890625 
Q 36.078125 6.890625 40.9375 10.546875 
Q 45.796875 14.203125 45.796875 21.1875 
Q 45.796875 27.640625 41.28125 31.265625 
Q 36.765625 34.90625 28.71875 34.90625 
L 20.21875 34.90625 
L 20.21875 43.015625 
L 29.109375 43.015625 
Q 36.375 43.015625 40.234375 45.921875 
Q 44.09375 48.828125 44.09375 54.296875 
Q 44.09375 59.90625 40.109375 62.90625 
Q 36.140625 65.921875 28.71875 65.921875 
Q 24.65625 65.921875 20.015625 65.03125 
Q 15.375 64.15625 9.8125 62.3125 
L 9.8125 71.09375 
Q 15.4375 72.65625 20.34375 73.4375 
Q 25.25 74.21875 29.59375 74.21875 
Q 40.828125 74.21875 47.359375 69.109375 
Q 53.90625 64.015625 53.90625 55.328125 
Q 53.90625 49.265625 50.4375 45.09375 
Q 46.96875 40.921875 40.578125 39.3125 
z
" id="DejaVuSans-51"/>
      </defs>
      <g transform="translate(427.381338 443.934438)scale(0.1 -0.1)">
       <use transform="translate(0 0.765625)" xlink:href="#DejaVuSans-49"/>
       <use transform="translate(63.623047 0.765625)" xlink:href="#DejaVuSans-48"/>
       <use transform="translate(128.203125 39.046875)scale(0.7)" xlink:href="#DejaVuSans-51"/>
      </g>
     </g>
    </g>
    <g id="xtick_4">
     <g id="line2d_4">
      <g>
       <use style="stroke:#000000;stroke-width:0.8;" x="549.809496" xlink:href="#mc4cfdd54ad" y="429.336"/>
      </g>
     </g>
     <g id="text_4">
      <!-- $\mathdefault{10^{4}}$ -->
      <defs>
       <path d="M 37.796875 64.3125 
L 12.890625 25.390625 
L 37.796875 25.390625 
z
M 35.203125 72.90625 
L 47.609375 72.90625 
L 47.609375 25.390625 
L 58.015625 25.390625 
L 58.015625 17.1875 
L 47.609375 17.1875 
L 47.609375 0 
L 37.796875 0 
L 37.796875 17.1875 
L 4.890625 17.1875 
L 4.890625 26.703125 
z
" id="DejaVuSans-52"/>
      </defs>
      <g transform="translate(541.009496 443.934438)scale(0.1 -0.1)">
       <use transform="translate(0 0.684375)" xlink:href="#DejaVuSans-49"/>
       <use transform="translate(63.623047 0.684375)" xlink:href="#DejaVuSans-48"/>
       <use transform="translate(128.203125 38.965625)scale(0.7)" xlink:href="#DejaVuSans-52"/>
      </g>
     </g>
    </g>
    <g id="xtick_5">
     <g id="line2d_5">
      <g>
       <use style="stroke:#000000;stroke-width:0.8;" x="663.437654" xlink:href="#mc4cfdd54ad" y="429.336"/>
      </g>
     </g>
     <g id="text_5">
      <!-- $\mathdefault{10^{5}}$ -->
      <defs>
       <path d="M 10.796875 72.90625 
L 49.515625 72.90625 
L 49.515625 64.59375 
L 19.828125 64.59375 
L 19.828125 46.734375 
Q 21.96875 47.46875 24.109375 47.828125 
Q 26.265625 48.1875 28.421875 48.1875 
Q 40.625 48.1875 47.75 41.5 
Q 54.890625 34.8125 54.890625 23.390625 
Q 54.890625 11.625 47.5625 5.09375 
Q 40.234375 -1.421875 26.90625 -1.421875 
Q 22.3125 -1.421875 17.546875 -0.640625 
Q 12.796875 0.140625 7.71875 1.703125 
L 7.71875 11.625 
Q 12.109375 9.234375 16.796875 8.0625 
Q 21.484375 6.890625 26.703125 6.890625 
Q 35.15625 6.890625 40.078125 11.328125 
Q 45.015625 15.765625 45.015625 23.390625 
Q 45.015625 31 40.078125 35.4375 
Q 35.15625 39.890625 26.703125 39.890625 
Q 22.75 39.890625 18.8125 39.015625 
Q 14.890625 38.140625 10.796875 36.28125 
z
" id="DejaVuSans-53"/>
      </defs>
      <g transform="translate(654.637654 443.934438)scale(0.1 -0.1)">
       <use transform="translate(0 0.684375)" xlink:href="#DejaVuSans-49"/>
       <use transform="translate(63.623047 0.684375)" xlink:href="#DejaVuSans-48"/>
       <use transform="translate(128.203125 38.965625)scale(0.7)" xlink:href="#DejaVuSans-53"/>
      </g>
     </g>
    </g>
    <g id="xtick_6">
     <g id="line2d_6">
      <g>
       <use style="stroke:#000000;stroke-width:0.8;" x="777.065812" xlink:href="#mc4cfdd54ad" y="429.336"/>
      </g>
     </g>
     <g id="text_6">
      <!-- $\mathdefault{10^{6}}$ -->
      <defs>
       <path d="M 33.015625 40.375 
Q 26.375 40.375 22.484375 35.828125 
Q 18.609375 31.296875 18.609375 23.390625 
Q 18.609375 15.53125 22.484375 10.953125 
Q 26.375 6.390625 33.015625 6.390625 
Q 39.65625 6.390625 43.53125 10.953125 
Q 47.40625 15.53125 47.40625 23.390625 
Q 47.40625 31.296875 43.53125 35.828125 
Q 39.65625 40.375 33.015625 40.375 
z
M 52.59375 71.296875 
L 52.59375 62.3125 
Q 48.875 64.0625 45.09375 64.984375 
Q 41.3125 65.921875 37.59375 65.921875 
Q 27.828125 65.921875 22.671875 59.328125 
Q 17.53125 52.734375 16.796875 39.40625 
Q 19.671875 43.65625 24.015625 45.921875 
Q 28.375 48.1875 33.59375 48.1875 
Q 44.578125 48.1875 50.953125 41.515625 
Q 57.328125 34.859375 57.328125 23.390625 
Q 57.328125 12.15625 50.6875 5.359375 
Q 44.046875 -1.421875 33.015625 -1.421875 
Q 20.359375 -1.421875 13.671875 8.265625 
Q 6.984375 17.96875 6.984375 36.375 
Q 6.984375 53.65625 15.1875 63.9375 
Q 23.390625 74.21875 37.203125 74.21875 
Q 40.921875 74.21875 44.703125 73.484375 
Q 48.484375 72.75 52.59375 71.296875 
z
" id="DejaVuSans-54"/>
      </defs>
      <g transform="translate(768.265812 443.934438)scale(0.1 -0.1)">
       <use transform="translate(0 0.765625)" xlink:href="#DejaVuSans-49"/>
       <use transform="translate(63.623047 0.765625)" xlink:href="#DejaVuSans-48"/>
       <use transform="translate(128.203125 39.046875)scale(0.7)" xlink:href="#DejaVuSans-54"/>
      </g>
     </g>
    </g>
    <g id="xtick_7">
     <g id="line2d_7">
      <defs>
       <path d="M 0 0 
L 0 2 
" id="ma2a76b10f2" style="stroke:#000000;stroke-width:0.6;"/>
      </defs>
      <g>
       <use style="stroke:#000000;stroke-width:0.6;" x="129.502347" xlink:href="#ma2a76b10f2" y="429.336"/>
      </g>
     </g>
    </g>
    <g id="xtick_8">
     <g id="line2d_8">
      <g>
       <use style="stroke:#000000;stroke-width:0.6;" x="149.511273" xlink:href="#ma2a76b10f2" y="429.336"/>
      </g>
     </g>
    </g>
    <g id="xtick_9">
     <g id="line2d_9">
      <g>
       <use style="stroke:#000000;stroke-width:0.6;" x="163.707831" xlink:href="#ma2a76b10f2" y="429.336"/>
      </g>
     </g>
    </g>
    <g id="xtick_10">
     <g id="line2d_10">
      <g>
       <use style="stroke:#000000;stroke-width:0.6;" x="174.719538" xlink:href="#ma2a76b10f2" y="429.336"/>
      </g>
     </g>
    </g>
    <g id="xtick_11">
     <g id="line2d_11">
      <g>
       <use style="stroke:#000000;stroke-width:0.6;" x="183.716757" xlink:href="#ma2a76b10f2" y="429.336"/>
      </g>
     </g>
    </g>
    <g id="xtick_12">
     <g id="line2d_12">
      <g>
       <use style="stroke:#000000;stroke-width:0.6;" x="191.323797" xlink:href="#ma2a76b10f2" y="429.336"/>
      </g>
     </g>
    </g>
    <g id="xtick_13">
     <g id="line2d_13">
      <g>
       <use style="stroke:#000000;stroke-width:0.6;" x="197.913315" xlink:href="#ma2a76b10f2" y="429.336"/>
      </g>
     </g>
    </g>
    <g id="xtick_14">
     <g id="line2d_14">
      <g>
       <use style="stroke:#000000;stroke-width:0.6;" x="203.725682" xlink:href="#ma2a76b10f2" y="429.336"/>
      </g>
     </g>
    </g>
    <g id="xtick_15">
     <g id="line2d_15">
      <g>
       <use style="stroke:#000000;stroke-width:0.6;" x="243.130505" xlink:href="#ma2a76b10f2" y="429.336"/>
      </g>
     </g>
    </g>
    <g id="xtick_16">
     <g id="line2d_16">
      <g>
       <use style="stroke:#000000;stroke-width:0.6;" x="263.139431" xlink:href="#ma2a76b10f2" y="429.336"/>
      </g>
     </g>
    </g>
    <g id="xtick_17">
     <g id="line2d_17">
      <g>
       <use style="stroke:#000000;stroke-width:0.6;" x="277.335989" xlink:href="#ma2a76b10f2" y="429.336"/>
      </g>
     </g>
    </g>
    <g id="xtick_18">
     <g id="line2d_18">
      <g>
       <use style="stroke:#000000;stroke-width:0.6;" x="288.347696" xlink:href="#ma2a76b10f2" y="429.336"/>
      </g>
     </g>
    </g>
    <g id="xtick_19">
     <g id="line2d_19">
      <g>
       <use style="stroke:#000000;stroke-width:0.6;" x="297.344915" xlink:href="#ma2a76b10f2" y="429.336"/>
      </g>
     </g>
    </g>
    <g id="xtick_20">
     <g id="line2d_20">
      <g>
       <use style="stroke:#000000;stroke-width:0.6;" x="304.951955" xlink:href="#ma2a76b10f2" y="429.336"/>
      </g>
     </g>
    </g>
    <g id="xtick_21">
     <g id="line2d_21">
      <g>
       <use style="stroke:#000000;stroke-width:0.6;" x="311.541473" xlink:href="#ma2a76b10f2" y="429.336"/>
      </g>
     </g>
    </g>
    <g id="xtick_22">
     <g id="line2d_22">
      <g>
       <use style="stroke:#000000;stroke-width:0.6;" x="317.35384" xlink:href="#ma2a76b10f2" y="429.336"/>
      </g>
     </g>
    </g>
    <g id="xtick_23">
     <g id="line2d_23">
      <g>
       <use style="stroke:#000000;stroke-width:0.6;" x="356.758664" xlink:href="#ma2a76b10f2" y="429.336"/>
      </g>
     </g>
    </g>
    <g id="xtick_24">
     <g id="line2d_24">
      <g>
       <use style="stroke:#000000;stroke-width:0.6;" x="376.767589" xlink:href="#ma2a76b10f2" y="429.336"/>
      </g>
     </g>
    </g>
    <g id="xtick_25">
     <g id="line2d_25">
      <g>
       <use style="stroke:#000000;stroke-width:0.6;" x="390.964148" xlink:href="#ma2a76b10f2" y="429.336"/>
      </g>
     </g>
    </g>
    <g id="xtick_26">
     <g id="line2d_26">
      <g>
       <use style="stroke:#000000;stroke-width:0.6;" x="401.975854" xlink:href="#ma2a76b10f2" y="429.336"/>
      </g>
     </g>
    </g>
    <g id="xtick_27">
     <g id="line2d_27">
      <g>
       <use style="stroke:#000000;stroke-width:0.6;" x="410.973073" xlink:href="#ma2a76b10f2" y="429.336"/>
      </g>
     </g>
    </g>
    <g id="xtick_28">
     <g id="line2d_28">
      <g>
       <use style="stroke:#000000;stroke-width:0.6;" x="418.580113" xlink:href="#ma2a76b10f2" y="429.336"/>
      </g>
     </g>
    </g>
    <g id="xtick_29">
     <g id="line2d_29">
      <g>
       <use style="stroke:#000000;stroke-width:0.6;" x="425.169632" xlink:href="#ma2a76b10f2" y="429.336"/>
      </g>
     </g>
    </g>
    <g id="xtick_30">
     <g id="line2d_30">
      <g>
       <use style="stroke:#000000;stroke-width:0.6;" x="430.981998" xlink:href="#ma2a76b10f2" y="429.336"/>
      </g>
     </g>
    </g>
    <g id="xtick_31">
     <g id="line2d_31">
      <g>
       <use style="stroke:#000000;stroke-width:0.6;" x="470.386822" xlink:href="#ma2a76b10f2" y="429.336"/>
      </g>
     </g>
    </g>
    <g id="xtick_32">
     <g id="line2d_32">
      <g>
       <use style="stroke:#000000;stroke-width:0.6;" x="490.395747" xlink:href="#ma2a76b10f2" y="429.336"/>
      </g>
     </g>
    </g>
    <g id="xtick_33">
     <g id="line2d_33">
      <g>
       <use style="stroke:#000000;stroke-width:0.6;" x="504.592306" xlink:href="#ma2a76b10f2" y="429.336"/>
      </g>
     </g>
    </g>
    <g id="xtick_34">
     <g id="line2d_34">
      <g>
       <use style="stroke:#000000;stroke-width:0.6;" x="515.604012" xlink:href="#ma2a76b10f2" y="429.336"/>
      </g>
     </g>
    </g>
    <g id="xtick_35">
     <g id="line2d_35">
      <g>
       <use style="stroke:#000000;stroke-width:0.6;" x="524.601231" xlink:href="#ma2a76b10f2" y="429.336"/>
      </g>
     </g>
    </g>
    <g id="xtick_36">
     <g id="line2d_36">
      <g>
       <use style="stroke:#000000;stroke-width:0.6;" x="532.208272" xlink:href="#ma2a76b10f2" y="429.336"/>
      </g>
     </g>
    </g>
    <g id="xtick_37">
     <g id="line2d_37">
      <g>
       <use style="stroke:#000000;stroke-width:0.6;" x="538.79779" xlink:href="#ma2a76b10f2" y="429.336"/>
      </g>
     </g>
    </g>
    <g id="xtick_38">
     <g id="line2d_38">
      <g>
       <use style="stroke:#000000;stroke-width:0.6;" x="544.610157" xlink:href="#ma2a76b10f2" y="429.336"/>
      </g>
     </g>
    </g>
    <g id="xtick_39">
     <g id="line2d_39">
      <g>
       <use style="stroke:#000000;stroke-width:0.6;" x="584.01498" xlink:href="#ma2a76b10f2" y="429.336"/>
      </g>
     </g>
    </g>
    <g id="xtick_40">
     <g id="line2d_40">
      <g>
       <use style="stroke:#000000;stroke-width:0.6;" x="604.023905" xlink:href="#ma2a76b10f2" y="429.336"/>
      </g>
     </g>
    </g>
    <g id="xtick_41">
     <g id="line2d_41">
      <g>
       <use style="stroke:#000000;stroke-width:0.6;" x="618.220464" xlink:href="#ma2a76b10f2" y="429.336"/>
      </g>
     </g>
    </g>
    <g id="xtick_42">
     <g id="line2d_42">
      <g>
       <use style="stroke:#000000;stroke-width:0.6;" x="629.23217" xlink:href="#ma2a76b10f2" y="429.336"/>
      </g>
     </g>
    </g>
    <g id="xtick_43">
     <g id="line2d_43">
      <g>
       <use style="stroke:#000000;stroke-width:0.6;" x="638.229389" xlink:href="#ma2a76b10f2" y="429.336"/>
      </g>
     </g>
    </g>
    <g id="xtick_44">
     <g id="line2d_44">
      <g>
       <use style="stroke:#000000;stroke-width:0.6;" x="645.83643" xlink:href="#ma2a76b10f2" y="429.336"/>
      </g>
     </g>
    </g>
    <g id="xtick_45">
     <g id="line2d_45">
      <g>
       <use style="stroke:#000000;stroke-width:0.6;" x="652.425948" xlink:href="#ma2a76b10f2" y="429.336"/>
      </g>
     </g>
    </g>
    <g id="xtick_46">
     <g id="line2d_46">
      <g>
       <use style="stroke:#000000;stroke-width:0.6;" x="658.238315" xlink:href="#ma2a76b10f2" y="429.336"/>
      </g>
     </g>
    </g>
    <g id="xtick_47">
     <g id="line2d_47">
      <g>
       <use style="stroke:#000000;stroke-width:0.6;" x="697.643138" xlink:href="#ma2a76b10f2" y="429.336"/>
      </g>
     </g>
    </g>
    <g id="xtick_48">
     <g id="line2d_48">
      <g>
       <use style="stroke:#000000;stroke-width:0.6;" x="717.652064" xlink:href="#ma2a76b10f2" y="429.336"/>
      </g>
     </g>
    </g>
    <g id="xtick_49">
     <g id="line2d_49">
      <g>
       <use style="stroke:#000000;stroke-width:0.6;" x="731.848622" xlink:href="#ma2a76b10f2" y="429.336"/>
      </g>
     </g>
    </g>
    <g id="xtick_50">
     <g id="line2d_50">
      <g>
       <use style="stroke:#000000;stroke-width:0.6;" x="742.860328" xlink:href="#ma2a76b10f2" y="429.336"/>
      </g>
     </g>
    </g>
    <g id="xtick_51">
     <g id="line2d_51">
      <g>
       <use style="stroke:#000000;stroke-width:0.6;" x="751.857548" xlink:href="#ma2a76b10f2" y="429.336"/>
      </g>
     </g>
    </g>
    <g id="xtick_52">
     <g id="line2d_52">
      <g>
       <use style="stroke:#000000;stroke-width:0.6;" x="759.464588" xlink:href="#ma2a76b10f2" y="429.336"/>
      </g>
     </g>
    </g>
    <g id="xtick_53">
     <g id="line2d_53">
      <g>
       <use style="stroke:#000000;stroke-width:0.6;" x="766.054106" xlink:href="#ma2a76b10f2" y="429.336"/>
      </g>
     </g>
    </g>
    <g id="xtick_54">
     <g id="line2d_54">
      <g>
       <use style="stroke:#000000;stroke-width:0.6;" x="771.866473" xlink:href="#ma2a76b10f2" y="429.336"/>
      </g>
     </g>
    </g>
    <g id="xtick_55">
     <g id="line2d_55">
      <g>
       <use style="stroke:#000000;stroke-width:0.6;" x="811.271296" xlink:href="#ma2a76b10f2" y="429.336"/>
      </g>
     </g>
    </g>
    <g id="xtick_56">
     <g id="line2d_56">
      <g>
       <use style="stroke:#000000;stroke-width:0.6;" x="831.280222" xlink:href="#ma2a76b10f2" y="429.336"/>
      </g>
     </g>
    </g>
    <g id="text_7">
     <!-- Total Cases -->
     <defs>
      <path d="M -0.296875 72.90625 
L 61.375 72.90625 
L 61.375 64.59375 
L 35.5 64.59375 
L 35.5 0 
L 25.59375 0 
L 25.59375 64.59375 
L -0.296875 64.59375 
z
" id="DejaVuSans-84"/>
      <path d="M 30.609375 48.390625 
Q 23.390625 48.390625 19.1875 42.75 
Q 14.984375 37.109375 14.984375 27.296875 
Q 14.984375 17.484375 19.15625 11.84375 
Q 23.34375 6.203125 30.609375 6.203125 
Q 37.796875 6.203125 41.984375 11.859375 
Q 46.1875 17.53125 46.1875 27.296875 
Q 46.1875 37.015625 41.984375 42.703125 
Q 37.796875 48.390625 30.609375 48.390625 
z
M 30.609375 56 
Q 42.328125 56 49.015625 48.375 
Q 55.71875 40.765625 55.71875 27.296875 
Q 55.71875 13.875 49.015625 6.21875 
Q 42.328125 -1.421875 30.609375 -1.421875 
Q 18.84375 -1.421875 12.171875 6.21875 
Q 5.515625 13.875 5.515625 27.296875 
Q 5.515625 40.765625 12.171875 48.375 
Q 18.84375 56 30.609375 56 
z
" id="DejaVuSans-111"/>
      <path d="M 18.3125 70.21875 
L 18.3125 54.6875 
L 36.8125 54.6875 
L 36.8125 47.703125 
L 18.3125 47.703125 
L 18.3125 18.015625 
Q 18.3125 11.328125 20.140625 9.421875 
Q 21.96875 7.515625 27.59375 7.515625 
L 36.8125 7.515625 
L 36.8125 0 
L 27.59375 0 
Q 17.1875 0 13.234375 3.875 
Q 9.28125 7.765625 9.28125 18.015625 
L 9.28125 47.703125 
L 2.6875 47.703125 
L 2.6875 54.6875 
L 9.28125 54.6875 
L 9.28125 70.21875 
z
" id="DejaVuSans-116"/>
      <path d="M 34.28125 27.484375 
Q 23.390625 27.484375 19.1875 25 
Q 14.984375 22.515625 14.984375 16.5 
Q 14.984375 11.71875 18.140625 8.90625 
Q 21.296875 6.109375 26.703125 6.109375 
Q 34.1875 6.109375 38.703125 11.40625 
Q 43.21875 16.703125 43.21875 25.484375 
L 43.21875 27.484375 
z
M 52.203125 31.203125 
L 52.203125 0 
L 43.21875 0 
L 43.21875 8.296875 
Q 40.140625 3.328125 35.546875 0.953125 
Q 30.953125 -1.421875 24.3125 -1.421875 
Q 15.921875 -1.421875 10.953125 3.296875 
Q 6 8.015625 6 15.921875 
Q 6 25.140625 12.171875 29.828125 
Q 18.359375 34.515625 30.609375 34.515625 
L 43.21875 34.515625 
L 43.21875 35.40625 
Q 43.21875 41.609375 39.140625 45 
Q 35.0625 48.390625 27.6875 48.390625 
Q 23 48.390625 18.546875 47.265625 
Q 14.109375 46.140625 10.015625 43.890625 
L 10.015625 52.203125 
Q 14.9375 54.109375 19.578125 55.046875 
Q 24.21875 56 28.609375 56 
Q 40.484375 56 46.34375 49.84375 
Q 52.203125 43.703125 52.203125 31.203125 
z
" id="DejaVuSans-97"/>
      <path d="M 9.421875 75.984375 
L 18.40625 75.984375 
L 18.40625 0 
L 9.421875 0 
z
" id="DejaVuSans-108"/>
      <path id="DejaVuSans-32"/>
      <path d="M 64.40625 67.28125 
L 64.40625 56.890625 
Q 59.421875 61.53125 53.78125 63.8125 
Q 48.140625 66.109375 41.796875 66.109375 
Q 29.296875 66.109375 22.65625 58.46875 
Q 16.015625 50.828125 16.015625 36.375 
Q 16.015625 21.96875 22.65625 14.328125 
Q 29.296875 6.6875 41.796875 6.6875 
Q 48.140625 6.6875 53.78125 8.984375 
Q 59.421875 11.28125 64.40625 15.921875 
L 64.40625 5.609375 
Q 59.234375 2.09375 53.4375 0.328125 
Q 47.65625 -1.421875 41.21875 -1.421875 
Q 24.65625 -1.421875 15.125 8.703125 
Q 5.609375 18.84375 5.609375 36.375 
Q 5.609375 53.953125 15.125 64.078125 
Q 24.65625 74.21875 41.21875 74.21875 
Q 47.75 74.21875 53.53125 72.484375 
Q 59.328125 70.75 64.40625 67.28125 
z
" id="DejaVuSans-67"/>
      <path d="M 44.28125 53.078125 
L 44.28125 44.578125 
Q 40.484375 46.53125 36.375 47.5 
Q 32.28125 48.484375 27.875 48.484375 
Q 21.1875 48.484375 17.84375 46.4375 
Q 14.5 44.390625 14.5 40.28125 
Q 14.5 37.15625 16.890625 35.375 
Q 19.28125 33.59375 26.515625 31.984375 
L 29.59375 31.296875 
Q 39.15625 29.25 43.1875 25.515625 
Q 47.21875 21.78125 47.21875 15.09375 
Q 47.21875 7.46875 41.1875 3.015625 
Q 35.15625 -1.421875 24.609375 -1.421875 
Q 20.21875 -1.421875 15.453125 -0.5625 
Q 10.6875 0.296875 5.421875 2 
L 5.421875 11.28125 
Q 10.40625 8.6875 15.234375 7.390625 
Q 20.0625 6.109375 24.8125 6.109375 
Q 31.15625 6.109375 34.5625 8.28125 
Q 37.984375 10.453125 37.984375 14.40625 
Q 37.984375 18.0625 35.515625 20.015625 
Q 33.0625 21.96875 24.703125 23.78125 
L 21.578125 24.515625 
Q 13.234375 26.265625 9.515625 29.90625 
Q 5.8125 33.546875 5.8125 39.890625 
Q 5.8125 47.609375 11.28125 51.796875 
Q 16.75 56 26.8125 56 
Q 31.78125 56 36.171875 55.265625 
Q 40.578125 54.546875 44.28125 53.078125 
z
" id="DejaVuSans-115"/>
      <path d="M 56.203125 29.59375 
L 56.203125 25.203125 
L 14.890625 25.203125 
Q 15.484375 15.921875 20.484375 11.0625 
Q 25.484375 6.203125 34.421875 6.203125 
Q 39.59375 6.203125 44.453125 7.46875 
Q 49.3125 8.734375 54.109375 11.28125 
L 54.109375 2.78125 
Q 49.265625 0.734375 44.1875 -0.34375 
Q 39.109375 -1.421875 33.890625 -1.421875 
Q 20.796875 -1.421875 13.15625 6.1875 
Q 5.515625 13.8125 5.515625 26.8125 
Q 5.515625 40.234375 12.765625 48.109375 
Q 20.015625 56 32.328125 56 
Q 43.359375 56 49.78125 48.890625 
Q 56.203125 41.796875 56.203125 29.59375 
z
M 47.21875 32.234375 
Q 47.125 39.59375 43.09375 43.984375 
Q 39.0625 48.390625 32.421875 48.390625 
Q 24.90625 48.390625 20.390625 44.140625 
Q 15.875 39.890625 15.1875 32.171875 
z
" id="DejaVuSans-101"/>
     </defs>
     <g transform="translate(449.28025 457.612563)scale(0.1 -0.1)">
      <use xlink:href="#DejaVuSans-84"/>
      <use x="60.818359" xlink:href="#DejaVuSans-111"/>
      <use x="122" xlink:href="#DejaVuSans-116"/>
      <use x="161.208984" xlink:href="#DejaVuSans-97"/>
      <use x="222.488281" xlink:href="#DejaVuSans-108"/>
      <use x="250.271484" xlink:href="#DejaVuSans-32"/>
      <use x="282.058594" xlink:href="#DejaVuSans-67"/>
      <use x="351.882812" xlink:href="#DejaVuSans-97"/>
      <use x="413.162109" xlink:href="#DejaVuSans-115"/>
      <use x="465.261719" xlink:href="#DejaVuSans-101"/>
      <use x="526.785156" xlink:href="#DejaVuSans-115"/>
     </g>
    </g>
   </g>
   <g id="matplotlib.axis_2">
    <g id="ytick_1">
     <g id="line2d_57">
      <defs>
       <path d="M 0 0 
L -3.5 0 
" id="md5be80daa6" style="stroke:#000000;stroke-width:0.8;"/>
      </defs>
      <g>
       <use style="stroke:#000000;stroke-width:0.8;" x="116.64" xlink:href="#md5be80daa6" y="412.452"/>
      </g>
     </g>
     <g id="text_8">
      <!-- $\mathdefault{10^{0}}$ -->
      <g transform="translate(92.04 416.251219)scale(0.1 -0.1)">
       <use transform="translate(0 0.765625)" xlink:href="#DejaVuSans-49"/>
       <use transform="translate(63.623047 0.765625)" xlink:href="#DejaVuSans-48"/>
       <use transform="translate(128.203125 39.046875)scale(0.7)" xlink:href="#DejaVuSans-48"/>
      </g>
     </g>
    </g>
    <g id="ytick_2">
     <g id="line2d_58">
      <g>
       <use style="stroke:#000000;stroke-width:0.8;" x="116.64" xlink:href="#md5be80daa6" y="349.327896"/>
      </g>
     </g>
     <g id="text_9">
      <!-- $\mathdefault{10^{1}}$ -->
      <g transform="translate(92.04 353.127115)scale(0.1 -0.1)">
       <use transform="translate(0 0.684375)" xlink:href="#DejaVuSans-49"/>
       <use transform="translate(63.623047 0.684375)" xlink:href="#DejaVuSans-48"/>
       <use transform="translate(128.203125 38.965625)scale(0.7)" xlink:href="#DejaVuSans-49"/>
      </g>
     </g>
    </g>
    <g id="ytick_3">
     <g id="line2d_59">
      <g>
       <use style="stroke:#000000;stroke-width:0.8;" x="116.64" xlink:href="#md5be80daa6" y="286.203792"/>
      </g>
     </g>
     <g id="text_10">
      <!-- $\mathdefault{10^{2}}$ -->
      <g transform="translate(92.04 290.003011)scale(0.1 -0.1)">
       <use transform="translate(0 0.765625)" xlink:href="#DejaVuSans-49"/>
       <use transform="translate(63.623047 0.765625)" xlink:href="#DejaVuSans-48"/>
       <use transform="translate(128.203125 39.046875)scale(0.7)" xlink:href="#DejaVuSans-50"/>
      </g>
     </g>
    </g>
    <g id="ytick_4">
     <g id="line2d_60">
      <g>
       <use style="stroke:#000000;stroke-width:0.8;" x="116.64" xlink:href="#md5be80daa6" y="223.079689"/>
      </g>
     </g>
     <g id="text_11">
      <!-- $\mathdefault{10^{3}}$ -->
      <g transform="translate(92.04 226.878907)scale(0.1 -0.1)">
       <use transform="translate(0 0.765625)" xlink:href="#DejaVuSans-49"/>
       <use transform="translate(63.623047 0.765625)" xlink:href="#DejaVuSans-48"/>
       <use transform="translate(128.203125 39.046875)scale(0.7)" xlink:href="#DejaVuSans-51"/>
      </g>
     </g>
    </g>
    <g id="ytick_5">
     <g id="line2d_61">
      <g>
       <use style="stroke:#000000;stroke-width:0.8;" x="116.64" xlink:href="#md5be80daa6" y="159.955585"/>
      </g>
     </g>
     <g id="text_12">
      <!-- $\mathdefault{10^{4}}$ -->
      <g transform="translate(92.04 163.754804)scale(0.1 -0.1)">
       <use transform="translate(0 0.684375)" xlink:href="#DejaVuSans-49"/>
       <use transform="translate(63.623047 0.684375)" xlink:href="#DejaVuSans-48"/>
       <use transform="translate(128.203125 38.965625)scale(0.7)" xlink:href="#DejaVuSans-52"/>
      </g>
     </g>
    </g>
    <g id="ytick_6">
     <g id="line2d_62">
      <g>
       <use style="stroke:#000000;stroke-width:0.8;" x="116.64" xlink:href="#md5be80daa6" y="96.831481"/>
      </g>
     </g>
     <g id="text_13">
      <!-- $\mathdefault{10^{5}}$ -->
      <g transform="translate(92.04 100.6307)scale(0.1 -0.1)">
       <use transform="translate(0 0.684375)" xlink:href="#DejaVuSans-49"/>
       <use transform="translate(63.623047 0.684375)" xlink:href="#DejaVuSans-48"/>
       <use transform="translate(128.203125 38.965625)scale(0.7)" xlink:href="#DejaVuSans-53"/>
      </g>
     </g>
    </g>
    <g id="ytick_7">
     <g id="line2d_63">
      <defs>
       <path d="M 0 0 
L -2 0 
" id="ma42674510c" style="stroke:#000000;stroke-width:0.6;"/>
      </defs>
      <g>
       <use style="stroke:#000000;stroke-width:0.6;" x="116.64" xlink:href="#ma42674510c" y="426.456003"/>
      </g>
     </g>
    </g>
    <g id="ytick_8">
     <g id="line2d_64">
      <g>
       <use style="stroke:#000000;stroke-width:0.6;" x="116.64" xlink:href="#ma42674510c" y="422.230047"/>
      </g>
     </g>
    </g>
    <g id="ytick_9">
     <g id="line2d_65">
      <g>
       <use style="stroke:#000000;stroke-width:0.6;" x="116.64" xlink:href="#ma42674510c" y="418.569358"/>
      </g>
     </g>
    </g>
    <g id="ytick_10">
     <g id="line2d_66">
      <g>
       <use style="stroke:#000000;stroke-width:0.6;" x="116.64" xlink:href="#ma42674510c" y="415.340401"/>
      </g>
     </g>
    </g>
    <g id="ytick_11">
     <g id="line2d_67">
      <g>
       <use style="stroke:#000000;stroke-width:0.6;" x="116.64" xlink:href="#ma42674510c" y="393.449751"/>
      </g>
     </g>
    </g>
    <g id="ytick_12">
     <g id="line2d_68">
      <g>
       <use style="stroke:#000000;stroke-width:0.6;" x="116.64" xlink:href="#ma42674510c" y="382.334148"/>
      </g>
     </g>
    </g>
    <g id="ytick_13">
     <g id="line2d_69">
      <g>
       <use style="stroke:#000000;stroke-width:0.6;" x="116.64" xlink:href="#ma42674510c" y="374.447503"/>
      </g>
     </g>
    </g>
    <g id="ytick_14">
     <g id="line2d_70">
      <g>
       <use style="stroke:#000000;stroke-width:0.6;" x="116.64" xlink:href="#ma42674510c" y="368.330145"/>
      </g>
     </g>
    </g>
    <g id="ytick_15">
     <g id="line2d_71">
      <g>
       <use style="stroke:#000000;stroke-width:0.6;" x="116.64" xlink:href="#ma42674510c" y="363.3319"/>
      </g>
     </g>
    </g>
    <g id="ytick_16">
     <g id="line2d_72">
      <g>
       <use style="stroke:#000000;stroke-width:0.6;" x="116.64" xlink:href="#ma42674510c" y="359.105944"/>
      </g>
     </g>
    </g>
    <g id="ytick_17">
     <g id="line2d_73">
      <g>
       <use style="stroke:#000000;stroke-width:0.6;" x="116.64" xlink:href="#ma42674510c" y="355.445254"/>
      </g>
     </g>
    </g>
    <g id="ytick_18">
     <g id="line2d_74">
      <g>
       <use style="stroke:#000000;stroke-width:0.6;" x="116.64" xlink:href="#ma42674510c" y="352.216297"/>
      </g>
     </g>
    </g>
    <g id="ytick_19">
     <g id="line2d_75">
      <g>
       <use style="stroke:#000000;stroke-width:0.6;" x="116.64" xlink:href="#ma42674510c" y="330.325648"/>
      </g>
     </g>
    </g>
    <g id="ytick_20">
     <g id="line2d_76">
      <g>
       <use style="stroke:#000000;stroke-width:0.6;" x="116.64" xlink:href="#ma42674510c" y="319.210045"/>
      </g>
     </g>
    </g>
    <g id="ytick_21">
     <g id="line2d_77">
      <g>
       <use style="stroke:#000000;stroke-width:0.6;" x="116.64" xlink:href="#ma42674510c" y="311.323399"/>
      </g>
     </g>
    </g>
    <g id="ytick_22">
     <g id="line2d_78">
      <g>
       <use style="stroke:#000000;stroke-width:0.6;" x="116.64" xlink:href="#ma42674510c" y="305.206041"/>
      </g>
     </g>
    </g>
    <g id="ytick_23">
     <g id="line2d_79">
      <g>
       <use style="stroke:#000000;stroke-width:0.6;" x="116.64" xlink:href="#ma42674510c" y="300.207796"/>
      </g>
     </g>
    </g>
    <g id="ytick_24">
     <g id="line2d_80">
      <g>
       <use style="stroke:#000000;stroke-width:0.6;" x="116.64" xlink:href="#ma42674510c" y="295.98184"/>
      </g>
     </g>
    </g>
    <g id="ytick_25">
     <g id="line2d_81">
      <g>
       <use style="stroke:#000000;stroke-width:0.6;" x="116.64" xlink:href="#ma42674510c" y="292.32115"/>
      </g>
     </g>
    </g>
    <g id="ytick_26">
     <g id="line2d_82">
      <g>
       <use style="stroke:#000000;stroke-width:0.6;" x="116.64" xlink:href="#ma42674510c" y="289.092193"/>
      </g>
     </g>
    </g>
    <g id="ytick_27">
     <g id="line2d_83">
      <g>
       <use style="stroke:#000000;stroke-width:0.6;" x="116.64" xlink:href="#ma42674510c" y="267.201544"/>
      </g>
     </g>
    </g>
    <g id="ytick_28">
     <g id="line2d_84">
      <g>
       <use style="stroke:#000000;stroke-width:0.6;" x="116.64" xlink:href="#ma42674510c" y="256.085941"/>
      </g>
     </g>
    </g>
    <g id="ytick_29">
     <g id="line2d_85">
      <g>
       <use style="stroke:#000000;stroke-width:0.6;" x="116.64" xlink:href="#ma42674510c" y="248.199295"/>
      </g>
     </g>
    </g>
    <g id="ytick_30">
     <g id="line2d_86">
      <g>
       <use style="stroke:#000000;stroke-width:0.6;" x="116.64" xlink:href="#ma42674510c" y="242.081937"/>
      </g>
     </g>
    </g>
    <g id="ytick_31">
     <g id="line2d_87">
      <g>
       <use style="stroke:#000000;stroke-width:0.6;" x="116.64" xlink:href="#ma42674510c" y="237.083692"/>
      </g>
     </g>
    </g>
    <g id="ytick_32">
     <g id="line2d_88">
      <g>
       <use style="stroke:#000000;stroke-width:0.6;" x="116.64" xlink:href="#ma42674510c" y="232.857736"/>
      </g>
     </g>
    </g>
    <g id="ytick_33">
     <g id="line2d_89">
      <g>
       <use style="stroke:#000000;stroke-width:0.6;" x="116.64" xlink:href="#ma42674510c" y="229.197046"/>
      </g>
     </g>
    </g>
    <g id="ytick_34">
     <g id="line2d_90">
      <g>
       <use style="stroke:#000000;stroke-width:0.6;" x="116.64" xlink:href="#ma42674510c" y="225.968089"/>
      </g>
     </g>
    </g>
    <g id="ytick_35">
     <g id="line2d_91">
      <g>
       <use style="stroke:#000000;stroke-width:0.6;" x="116.64" xlink:href="#ma42674510c" y="204.07744"/>
      </g>
     </g>
    </g>
    <g id="ytick_36">
     <g id="line2d_92">
      <g>
       <use style="stroke:#000000;stroke-width:0.6;" x="116.64" xlink:href="#ma42674510c" y="192.961837"/>
      </g>
     </g>
    </g>
    <g id="ytick_37">
     <g id="line2d_93">
      <g>
       <use style="stroke:#000000;stroke-width:0.6;" x="116.64" xlink:href="#ma42674510c" y="185.075191"/>
      </g>
     </g>
    </g>
    <g id="ytick_38">
     <g id="line2d_94">
      <g>
       <use style="stroke:#000000;stroke-width:0.6;" x="116.64" xlink:href="#ma42674510c" y="178.957834"/>
      </g>
     </g>
    </g>
    <g id="ytick_39">
     <g id="line2d_95">
      <g>
       <use style="stroke:#000000;stroke-width:0.6;" x="116.64" xlink:href="#ma42674510c" y="173.959588"/>
      </g>
     </g>
    </g>
    <g id="ytick_40">
     <g id="line2d_96">
      <g>
       <use style="stroke:#000000;stroke-width:0.6;" x="116.64" xlink:href="#ma42674510c" y="169.733632"/>
      </g>
     </g>
    </g>
    <g id="ytick_41">
     <g id="line2d_97">
      <g>
       <use style="stroke:#000000;stroke-width:0.6;" x="116.64" xlink:href="#ma42674510c" y="166.072943"/>
      </g>
     </g>
    </g>
    <g id="ytick_42">
     <g id="line2d_98">
      <g>
       <use style="stroke:#000000;stroke-width:0.6;" x="116.64" xlink:href="#ma42674510c" y="162.843985"/>
      </g>
     </g>
    </g>
    <g id="ytick_43">
     <g id="line2d_99">
      <g>
       <use style="stroke:#000000;stroke-width:0.6;" x="116.64" xlink:href="#ma42674510c" y="140.953336"/>
      </g>
     </g>
    </g>
    <g id="ytick_44">
     <g id="line2d_100">
      <g>
       <use style="stroke:#000000;stroke-width:0.6;" x="116.64" xlink:href="#ma42674510c" y="129.837733"/>
      </g>
     </g>
    </g>
    <g id="ytick_45">
     <g id="line2d_101">
      <g>
       <use style="stroke:#000000;stroke-width:0.6;" x="116.64" xlink:href="#ma42674510c" y="121.951087"/>
      </g>
     </g>
    </g>
    <g id="ytick_46">
     <g id="line2d_102">
      <g>
       <use style="stroke:#000000;stroke-width:0.6;" x="116.64" xlink:href="#ma42674510c" y="115.83373"/>
      </g>
     </g>
    </g>
    <g id="ytick_47">
     <g id="line2d_103">
      <g>
       <use style="stroke:#000000;stroke-width:0.6;" x="116.64" xlink:href="#ma42674510c" y="110.835485"/>
      </g>
     </g>
    </g>
    <g id="ytick_48">
     <g id="line2d_104">
      <g>
       <use style="stroke:#000000;stroke-width:0.6;" x="116.64" xlink:href="#ma42674510c" y="106.609528"/>
      </g>
     </g>
    </g>
    <g id="ytick_49">
     <g id="line2d_105">
      <g>
       <use style="stroke:#000000;stroke-width:0.6;" x="116.64" xlink:href="#ma42674510c" y="102.948839"/>
      </g>
     </g>
    </g>
    <g id="ytick_50">
     <g id="line2d_106">
      <g>
       <use style="stroke:#000000;stroke-width:0.6;" x="116.64" xlink:href="#ma42674510c" y="99.719882"/>
      </g>
     </g>
    </g>
    <g id="ytick_51">
     <g id="line2d_107">
      <g>
       <use style="stroke:#000000;stroke-width:0.6;" x="116.64" xlink:href="#ma42674510c" y="77.829232"/>
      </g>
     </g>
    </g>
    <g id="ytick_52">
     <g id="line2d_108">
      <g>
       <use style="stroke:#000000;stroke-width:0.6;" x="116.64" xlink:href="#ma42674510c" y="66.713629"/>
      </g>
     </g>
    </g>
    <g id="ytick_53">
     <g id="line2d_109">
      <g>
       <use style="stroke:#000000;stroke-width:0.6;" x="116.64" xlink:href="#ma42674510c" y="58.826984"/>
      </g>
     </g>
    </g>
    <g id="text_14">
     <!-- New Cases For Last 7 Days -->
     <defs>
      <path d="M 9.8125 72.90625 
L 23.09375 72.90625 
L 55.421875 11.921875 
L 55.421875 72.90625 
L 64.984375 72.90625 
L 64.984375 0 
L 51.703125 0 
L 19.390625 60.984375 
L 19.390625 0 
L 9.8125 0 
z
" id="DejaVuSans-78"/>
      <path d="M 4.203125 54.6875 
L 13.1875 54.6875 
L 24.421875 12.015625 
L 35.59375 54.6875 
L 46.1875 54.6875 
L 57.421875 12.015625 
L 68.609375 54.6875 
L 77.59375 54.6875 
L 63.28125 0 
L 52.6875 0 
L 40.921875 44.828125 
L 29.109375 0 
L 18.5 0 
z
" id="DejaVuSans-119"/>
      <path d="M 9.8125 72.90625 
L 51.703125 72.90625 
L 51.703125 64.59375 
L 19.671875 64.59375 
L 19.671875 43.109375 
L 48.578125 43.109375 
L 48.578125 34.8125 
L 19.671875 34.8125 
L 19.671875 0 
L 9.8125 0 
z
" id="DejaVuSans-70"/>
      <path d="M 41.109375 46.296875 
Q 39.59375 47.171875 37.8125 47.578125 
Q 36.03125 48 33.890625 48 
Q 26.265625 48 22.1875 43.046875 
Q 18.109375 38.09375 18.109375 28.8125 
L 18.109375 0 
L 9.078125 0 
L 9.078125 54.6875 
L 18.109375 54.6875 
L 18.109375 46.1875 
Q 20.953125 51.171875 25.484375 53.578125 
Q 30.03125 56 36.53125 56 
Q 37.453125 56 38.578125 55.875 
Q 39.703125 55.765625 41.0625 55.515625 
z
" id="DejaVuSans-114"/>
      <path d="M 9.8125 72.90625 
L 19.671875 72.90625 
L 19.671875 8.296875 
L 55.171875 8.296875 
L 55.171875 0 
L 9.8125 0 
z
" id="DejaVuSans-76"/>
      <path d="M 8.203125 72.90625 
L 55.078125 72.90625 
L 55.078125 68.703125 
L 28.609375 0 
L 18.3125 0 
L 43.21875 64.59375 
L 8.203125 64.59375 
z
" id="DejaVuSans-55"/>
      <path d="M 19.671875 64.796875 
L 19.671875 8.109375 
L 31.59375 8.109375 
Q 46.6875 8.109375 53.6875 14.9375 
Q 60.6875 21.78125 60.6875 36.53125 
Q 60.6875 51.171875 53.6875 57.984375 
Q 46.6875 64.796875 31.59375 64.796875 
z
M 9.8125 72.90625 
L 30.078125 72.90625 
Q 51.265625 72.90625 61.171875 64.09375 
Q 71.09375 55.28125 71.09375 36.53125 
Q 71.09375 17.671875 61.125 8.828125 
Q 51.171875 0 30.078125 0 
L 9.8125 0 
z
" id="DejaVuSans-68"/>
      <path d="M 32.171875 -5.078125 
Q 28.375 -14.84375 24.75 -17.8125 
Q 21.140625 -20.796875 15.09375 -20.796875 
L 7.90625 -20.796875 
L 7.90625 -13.28125 
L 13.1875 -13.28125 
Q 16.890625 -13.28125 18.9375 -11.515625 
Q 21 -9.765625 23.484375 -3.21875 
L 25.09375 0.875 
L 2.984375 54.6875 
L 12.5 54.6875 
L 29.59375 11.921875 
L 46.6875 54.6875 
L 56.203125 54.6875 
z
" id="DejaVuSans-121"/>
     </defs>
     <g transform="translate(85.960313 311.367469)rotate(-90)scale(0.1 -0.1)">
      <use xlink:href="#DejaVuSans-78"/>
      <use x="74.804688" xlink:href="#DejaVuSans-101"/>
      <use x="136.328125" xlink:href="#DejaVuSans-119"/>
      <use x="218.115234" xlink:href="#DejaVuSans-32"/>
      <use x="249.902344" xlink:href="#DejaVuSans-67"/>
      <use x="319.726562" xlink:href="#DejaVuSans-97"/>
      <use x="381.005859" xlink:href="#DejaVuSans-115"/>
      <use x="433.105469" xlink:href="#DejaVuSans-101"/>
      <use x="494.628906" xlink:href="#DejaVuSans-115"/>
      <use x="546.728516" xlink:href="#DejaVuSans-32"/>
      <use x="578.515625" xlink:href="#DejaVuSans-70"/>
      <use x="635.988281" xlink:href="#DejaVuSans-111"/>
      <use x="697.169922" xlink:href="#DejaVuSans-114"/>
      <use x="738.283203" xlink:href="#DejaVuSans-32"/>
      <use x="770.070312" xlink:href="#DejaVuSans-76"/>
      <use x="825.783203" xlink:href="#DejaVuSans-97"/>
      <use x="887.0625" xlink:href="#DejaVuSans-115"/>
      <use x="939.162109" xlink:href="#DejaVuSans-116"/>
      <use x="978.371094" xlink:href="#DejaVuSans-32"/>
      <use x="1010.158203" xlink:href="#DejaVuSans-55"/>
      <use x="1073.78125" xlink:href="#DejaVuSans-32"/>
      <use x="1105.568359" xlink:href="#DejaVuSans-68"/>
      <use x="1182.570312" xlink:href="#DejaVuSans-97"/>
      <use x="1243.849609" xlink:href="#DejaVuSans-121"/>
      <use x="1303.029297" xlink:href="#DejaVuSans-115"/>
     </g>
    </g>
   </g>
   <g id="line2d_110">
    <path clip-path="url(#p95372e97fa)" d="M 296.515516 300.668554 
L 296.515516 483.4 
M 299.747032 483.4 
L 299.752616 374.447503 
L 311.541473 328.988092 
L 360.556543 273.837802 
L 364.716937 270.706025 
L 389.206015 253.723427 
L 404.477462 243.953764 
L 412.829393 238.779972 
L 429.985034 228.553565 
L 449.993959 217.116283 
L 470.089841 207.395639 
L 486.548495 197.524923 
L 524.551858 176.504925 
L 537.129067 169.302328 
L 548.377565 163.360558 
L 558.01494 158.654606 
L 576.603709 149.890644 
L 585.108178 147.20811 
L 593.665826 143.349673 
L 600.702004 140.527623 
L 605.970443 138.979632 
L 611.099363 137.342037 
L 614.681671 137.321618 
L 618.473954 137.1278 
L 621.439231 138.033153 
L 623.729231 140.405083 
L 638.118231 128.22481 
L 641.430431 127.379812 
L 644.815001 128.64503 
L 646.270191 129.463803 
L 647.573564 130.010071 
L 648.750448 130.266913 
L 649.011588 149.232058 
L 649.597089 156.071693 
L 650.550057 164.57269 
L 650.689544 171.280333 
L 651.017507 177.667315 
L 651.277054 185.762237 
L 651.553455 185.447807 
L 652.026466 193.090071 
L 652.508537 193.891229 
L 652.89743 213.602099 
L 653.051159 273.148094 
L 653.118113 267.477068 
L 653.374738 242.635783 
L 653.611973 234.263914 
L 653.679975 232.35328 
L 653.821695 234.305169 
L 653.881624 234.387868 
L 653.960618 237.965859 
L 654.062764 244.547174 
L 654.114056 242.691788 
L 654.165294 243.488115 
L 654.198035 244.367798 
L 654.245025 243.372928 
L 654.422469 236.856185 
L 654.451488 238.58623 
L 654.481081 240.381271 
L 654.688918 228.220861 
L 654.71778 232.623756 
L 654.819547 334.781015 
L 654.92697 302.099198 
" style="fill:none;stroke:#1f77b4;stroke-linecap:square;stroke-width:1.5;"/>
   </g>
   <g id="line2d_111">
    <path clip-path="url(#p95372e97fa)" d="M 256.077679 323.133076 
L 266.324283 320.139437 
L 277.335989 314.984089 
L 299.752616 301.137188 
L 319.499747 290.338519 
L 329.877422 285.128578 
L 342.562105 278.801147 
L 360.097488 268.897824 
L 376.4375 259.38352 
L 383.521327 255.72283 
L 394.989963 250.262575 
L 404.100757 246.34447 
L 418.155307 238.10778 
L 431.200837 230.820513 
L 435.933979 229.855996 
L 443.717831 226.992178 
L 446.637227 226.212863 
L 452.573651 224.198801 
L 461.013125 219.680681 
L 471.89338 214.489376 
L 476.831167 214.349455 
L 484.51548 209.053762 
L 487.499558 209.119583 
L 490.428635 207.488622 
L 495.218609 205.282357 
L 499.24195 204.983209 
L 502.808597 207.026829 
L 506.882371 205.32536 
L 510.096659 206.82911 
L 511.34963 207.613092 
L 513.815187 206.662915 
L 515.771511 208.388055 
L 518.591076 208.164392 
L 520.92263 208.355991 
L 522.346273 211.207031 
L 523.788557 213.274241 
L 524.527154 213.777272 
L 525.084117 217.248934 
L 525.747495 219.875111 
L 527.032426 223.327536 
L 528.039881 227.087202 
L 528.921799 228.620593 
L 529.70672 230.893327 
L 530.68336 229.334462 
L 531.59824 227.374267 
L 532.496467 225.968089 
L 533.15784 228.088902 
L 533.516135 230.784178 
L 534.096266 231.933566 
L 534.629399 232.936175 
L 534.977205 236.31775 
L 535.276224 240.227113 
L 535.639249 244.189589 
L 536.130019 245.400137 
L 536.796152 242.412901 
L 537.148205 244.130442 
L 537.26288 247.994454 
L 537.428051 249.822761 
L 537.668465 250.336568 
L 538.152058 248.753141 
L 538.637147 248.544135 
L 538.988644 251.938424 
L 539.270494 252.654662 
L 539.380346 252.654662 
L 539.550743 252.493873 
L 539.871678 251.317107 
L 540.14254 253.891614 
L 540.429832 256.546699 
L 540.916784 254.316653 
L 541.240727 253.556265 
L 541.52755 251.087696 
L 541.644143 251.703777 
L 542.286276 247.522361 
L 542.635634 246.472876 
L 543.056153 244.848766 
L 543.242532 247.994454 
L 543.574011 247.723692 
L 544.003297 245.89973 
L 544.373817 243.08706 
L 544.632084 246.992596 
L 544.883554 247.994454 
L 545.079466 250.709559 
L 545.371884 249.175995 
L 545.673313 249.389893 
L 545.855429 252.654662 
L 546.084795 254.661493 
L 546.238883 256.269316 
L 546.566708 254.835554 
" style="fill:none;stroke:#ff7f0e;stroke-linecap:square;stroke-width:1.5;"/>
   </g>
   <g id="line2d_112">
    <path clip-path="url(#p95372e97fa)" d="M 149.511273 382.334148 
L 149.511273 483.4 
M 234.916414 483.4 
L 235.110508 340.103695 
L 310.920735 293.727328 
L 336.253773 279.222916 
L 363.440623 263.851015 
L 380.259907 254.402457 
L 390.964148 248.405678 
L 414.923027 235.016186 
L 430.319598 226.865989 
L 442.125124 221.768255 
L 462.046476 210.941642 
L 471.267188 206.859436 
L 481.437991 201.714926 
L 491.838445 195.962154 
L 502.808597 191.124098 
L 511.873989 186.859104 
L 523.629438 180.335169 
L 534.783538 175.433182 
L 545.544355 169.206117 
L 550.539358 167.310105 
L 560.670956 161.730722 
L 570.188784 156.714446 
L 577.874594 152.712448 
L 586.790244 148.34373 
L 592.971059 146.053203 
L 600.583978 142.637953 
L 606.441005 139.153652 
L 612.626134 136.824285 
L 619.481105 133.843131 
L 626.200782 130.42797 
L 632.642889 127.710126 
L 637.51528 125.488299 
L 641.357922 124.879878 
L 645.252086 123.596378 
L 648.835437 122.87599 
L 652.757316 122.293152 
L 656.279769 122.311895 
L 659.575462 122.719774 
L 662.283836 122.96261 
L 664.288441 123.493231 
L 666.216184 124.374365 
L 668.397867 124.696696 
L 670.438374 125.845401 
L 672.363679 126.952897 
L 674.303865 127.931715 
L 675.983863 128.710727 
L 677.342321 129.109139 
L 678.460984 130.026628 
L 679.837755 130.911193 
L 681.303758 131.35572 
L 682.642935 131.975006 
L 684.18811 132.084884 
L 685.496742 132.307969 
L 686.481928 132.757628 
L 687.392889 132.825819 
L 688.19629 134.043745 
L 689.31477 134.492714 
L 690.324679 134.993239 
L 691.313773 136.353193 
L 692.161159 137.591892 
L 692.779319 138.70171 
L 693.516882 139.010261 
L 694.412733 138.126962 
L 695.104899 139.574038 
L 695.883471 140.196282 
L 696.4825 141.751642 
L 697.066106 142.791429 
L 697.498336 143.559908 
L 698.013092 144.538935 
L 698.521322 146.622047 
L 698.973 147.958759 
L 699.442711 149.894442 
L 699.892672 150.776459 
L 700.219041 152.674586 
L 700.504163 153.785642 
L 700.753835 156.105024 
L 701.087234 157.678717 
L 701.408565 158.893554 
L 701.711007 160.629984 
L 701.956471 163.02736 
L 702.137463 164.889208 
L 702.304774 166.501194 
L 702.618522 165.38598 
L 702.816217 167.310105 
L 703.036134 168.817036 
L 703.21035 170.934457 
L 703.402839 171.799023 
L 703.550819 172.340635 
L 703.649445 173.632573 
L 703.826738 176.429824 
L 703.971284 177.56811 
L 704.11043 179.455789 
L 704.251343 180.231588 
L 704.395514 181.441072 
L 704.509645 182.319386 
L 704.57401 183.271657 
L 704.659058 186.080314 
L 704.783899 186.662323 
L 704.910342 187.020496 
L 705.020104 188.039849 
L 705.108417 190.043297 
L 705.183655 191.528715 
L 705.221337 192.607746 
L 705.288585 193.329822 
" style="fill:none;stroke:#2ca02c;stroke-linecap:square;stroke-width:1.5;"/>
   </g>
   <g id="line2d_113">
    <path clip-path="url(#p95372e97fa)" d="M 263.139431 319.210045 
L 282.039364 309.340768 
L 298.160604 301.137188 
L 313.949174 292.665991 
L 321.050076 289.092193 
L 325.892004 287.038815 
L 332.768932 285.660914 
L 338.088486 284.348968 
L 351.007943 278.180416 
L 352.911411 280.306632 
L 354.486484 284.348968 
L 357.735885 284.348968 
L 360.556543 283.841278 
L 362.789869 285.393454 
L 375.93819 273.663742 
L 375.93819 281.899621 
L 382.360142 274.906033 
L 382.360142 276.017582 
L 386.174338 273.490779 
L 390.964148 269.487405 
L 394.071833 267.201544 
L 396.776515 274.189275 
L 399.027306 270.706025 
L 400.47275 275.271564 
L 405.222353 267.477068 
L 409.385106 264.83903 
L 417.294562 257.782221 
L 418.65056 258.47131 
L 419.626402 259.486776 
L 420.51558 260.327131 
L 421.455572 260.327131 
L 423.219358 262.780466 
L 427.282716 260.649027 
L 428.910362 269.938063 
L 435.033076 258.371802 
L 438.542018 253.142766 
L 440.388748 251.01165 
L 443.548104 246.92709 
L 444.055543 247.926512 
L 445.137416 250.78477 
L 446.955603 249.533424 
L 450.068503 252.017088 
L 451.355118 255.098735 
L 451.824587 257.588478 
L 452.039768 264.83903 
L 452.111287 266.126329 
L 452.218372 269.338817 
L 452.467336 275.642036 
L 452.644401 295.592976 
L 452.89123 309.340768 
L 453.031723 315.778766 
L 453.066784 320.139437 
L 453.241715 317.440757 
L 453.520322 313.460672 
L 453.797364 312.729576 
L 454.346827 305.759887 
L 454.68716 304.130827 
L 454.68716 306.325154 
L 454.754946 305.759887 
L 454.754946 308.710523 
L 455.025162 308.710523 
L 455.159717 311.323399 
L 455.427732 317.440757 
L 455.527863 324.20829 
L 455.959433 312.729576 
L 455.992475 313.460672 
L 456.025495 312.729576 
L 456.025495 319.210045 
L 456.058493 322.098445 
L 456.256017 324.20829 
L 456.288861 326.494151 
L 456.321683 346.71502 
L 456.485467 338.212293 
L 456.550829 336.443005 
L 456.616104 333.214048 
L 456.681293 331.731825 
L 456.84389 333.214048 
L 456.84389 334.781015 
L 456.876345 334.781015 
L 456.908779 342.135324 
L 456.908779 346.71502 
L 456.908779 352.216297 
" style="fill:none;stroke:#d62728;stroke-linecap:square;stroke-width:1.5;"/>
   </g>
   <g id="line2d_114">
    <path clip-path="url(#p95372e97fa)" d="M 174.719538 368.330145 
L 191.323797 363.3319 
L 197.913315 359.105944 
L 197.913315 359.105944 
L 203.725682 355.445254 
L 208.925022 359.105944 
L 208.925022 359.105944 
L 208.925022 368.330145 
L 208.925022 382.334148 
L 213.628396 382.334148 
L 213.628396 382.334148 
L 232.118799 359.105944 
L 235.110508 359.105944 
L 237.931166 355.445254 
L 237.931166 355.445254 
L 237.931166 355.445254 
L 237.931166 359.105944 
L 237.931166 359.105944 
L 237.931166 393.449751 
L 237.931166 412.452 
L 237.931166 483.4 
M 243.123099 483.4 
L 243.130505 393.449751 
L 247.83388 374.447503 
L 247.83388 374.447503 
L 252.127725 363.3319 
L 252.127725 363.3319 
L 256.077679 355.445254 
L 256.077679 355.445254 
L 259.734765 355.445254 
L 263.139431 355.445254 
L 264.757546 352.216297 
L 266.324283 355.445254 
L 269.315992 349.327896 
L 276.086604 342.135324 
L 277.335989 340.103695 
L 277.335989 344.329651 
L 278.554522 346.71502 
L 279.74369 346.71502 
L 282.039364 344.329651 
L 283.148356 346.71502 
L 283.148356 363.3319 
L 283.148356 368.330145 
L 286.333209 355.445254 
L 286.333209 359.105944 
L 287.350731 359.105944 
L 291.223155 352.216297 
L 296.515516 340.103695 
L 296.515516 340.103695 
L 302.79038 327.712771 
L 309.65533 320.139437 
L 326.351059 300.207796 
L 326.351059 300.668554 
L 337.362766 291.644216 
L 343.539327 287.900073 
L 347.26548 284.606382 
L 355.509278 279.436259 
L 360.556543 277.176111 
L 364.716937 279.651276 
L 368.163584 276.207302 
L 371.016869 278.592671 
L 373.88884 279.01122 
L 377.744811 276.78447 
L 377.744811 283.34282 
L 380.259907 284.606382 
L 382.798795 285.128578 
L 382.798795 290.021585 
L 385.074614 289.708274 
L 386.174338 292.32115 
L 386.174338 301.613973 
L 387.515401 297.182665 
L 387.910715 303.096197 
L 388.302887 311.323399 
L 388.432922 310.646464 
L 388.432922 324.20829 
L 389.078004 327.712771 
L 389.461044 324.20829 
L 390.09291 330.325648 
L 390.343409 331.731825 
L 390.343409 336.443005 
L 390.343409 338.212293 
L 390.343409 338.212293 
L 390.716788 342.135324 
L 393.371849 317.440757 
L 393.606282 320.139437 
L 393.955856 319.210045 
L 394.071833 318.31113 
L 394.187538 317.440757 
L 394.302972 316.597168 
L 394.418137 318.31113 
L 394.418137 352.216297 
L 394.418137 359.105944 
L 394.418137 374.447503 
L 394.418137 382.334148 
L 394.418137 393.449751 
L 394.418137 412.452 
L 394.762027 382.334148 
L 395.216852 359.105944 
L 395.442701 352.216297 
L 395.442701 352.216297 
L 395.55524 349.327896 
L 395.667522 346.71502 
L 395.667522 346.71502 
L 395.667522 355.445254 
L 395.667522 374.447503 
L 395.667522 393.449751 
L 395.667522 393.449751 
L 395.667522 412.452 
L 395.667522 483.4 
M 395.779424 483.4 
L 395.77955 412.452 
L 395.77955 412.452 
L 395.77955 412.452 
L 395.77955 412.452 
L 395.77955 412.452 
L 395.77955 412.452 
L 395.77955 412.452 
L 395.77955 483.4 
M 395.891198 483.4 
L 395.891323 412.452 
L 395.891323 412.452 
L 395.891323 412.452 
L 396.002845 393.449751 
L 396.002845 393.449751 
" style="fill:none;stroke:#9467bd;stroke-linecap:square;stroke-width:1.5;"/>
   </g>
   <g id="line2d_115">
    <path clip-path="url(#p95372e97fa)" d="M 174.719538 368.330145 
L 174.719538 374.447503 
L 174.719538 374.447503 
L 183.716757 368.330145 
L 191.323797 368.330145 
L 197.913315 363.3319 
L 213.628396 363.3319 
L 213.628396 363.3319 
L 217.922241 359.105944 
L 217.922241 412.452 
L 221.872195 393.449751 
L 225.529281 393.449751 
L 228.933947 382.334148 
L 228.933947 382.334148 
L 228.933947 412.452 
L 232.118799 412.452 
L 270.746471 330.325648 
L 270.746471 330.325648 
L 291.223155 312.729576 
L 291.223155 312.729576 
L 296.515516 308.710523 
L 297.344915 308.710523 
L 302.048289 318.31113 
L 304.241899 315.778766 
L 316.802459 303.096197 
L 324.01185 305.206041 
L 333.564886 295.209551 
L 345.437564 286.203792 
L 364.295156 271.177346 
L 382.65301 258.77202 
L 394.876127 250.78477 
L 407.036825 244.071423 
L 422.24727 234.847222 
L 437.399871 225.968089 
L 449.581942 219.176769 
L 461.280917 213.274241 
L 474.503518 206.422962 
L 489.583074 197.763405 
L 501.722275 191.021742 
L 512.139387 185.720104 
L 527.993833 176.837837 
L 567.287196 153.648084 
L 583.078404 144.692465 
L 611.920543 128.559422 
L 625.589355 120.756853 
L 645.264925 110.936648 
L 655.989669 105.936033 
L 665.69756 101.266859 
L 674.31693 97.408275 
L 681.096829 94.76762 
L 688.036173 92.252671 
L 695.012597 88.729044 
L 701.605466 86.171618 
L 707.766527 84.023974 
L 719.625002 79.587995 
L 723.484166 78.57819 
L 727.760176 77.343393 
L 739.388609 75.154992 
L 743.014055 74.772 
L 745.731225 75.502708 
L 748.238369 75.224333 
L 750.404784 75.923469 
L 755.016485 76.81577 
L 757.400949 77.112476 
L 759.616909 77.746566 
L 761.878063 77.134251 
L 763.502553 77.540711 
L 765.292744 77.131177 
L 767.575081 75.779741 
L 768.616014 77.425796 
L 770.146508 78.12678 
L 771.344138 79.473067 
L 773.962639 77.290789 
L 775.354193 76.989233 
L 776.492575 77.733586 
L 777.682885 79.59238 
L 778.996961 78.204627 
L 780.396611 77.739733 
L 781.938519 76.069755 
L 783.230862 78.661994 
L 784.306646 78.929647 
L 786.246716 78.96377 
L 787.225485 79.424499 
L 788.351998 79.650328 
L 789.399127 80.695101 
L 790.37384 81.260292 
L 791.799161 82.72645 
L 792.599822 83.021876 
L 793.342798 83.581845 
L 796.006687 84.231981 
L 796.637125 84.472826 
L 797.356793 83.829984 
L 798.005751 84.186831 
L 798.751812 83.75757 
L 800.303798 84.285011 
L 800.953884 84.854839 
L 801.575459 84.556266 
L 802.144675 85.047147 
L 802.702879 85.236862 
L 803.249354 86.069048 
L 803.878659 86.746987 
L 804.599566 86.522088 
L 805.253263 86.136891 
L 805.802302 86.278491 
L 806.936727 85.604801 
L 806.936727 85.604801 
" style="fill:none;stroke:#8c564b;stroke-linecap:square;stroke-width:1.5;"/>
   </g>
   <g id="patch_3">
    <path d="M 116.64 429.336 
L 116.64 57.888 
" style="fill:none;stroke:#000000;stroke-linecap:square;stroke-linejoin:miter;stroke-width:0.8;"/>
   </g>
   <g id="patch_4">
    <path d="M 839.808 429.336 
L 839.808 57.888 
" style="fill:none;stroke:#000000;stroke-linecap:square;stroke-linejoin:miter;stroke-width:0.8;"/>
   </g>
   <g id="patch_5">
    <path d="M 116.64 429.336 
L 839.808 429.336 
" style="fill:none;stroke:#000000;stroke-linecap:square;stroke-linejoin:miter;stroke-width:0.8;"/>
   </g>
   <g id="patch_6">
    <path d="M 116.64 57.888 
L 839.808 57.888 
" style="fill:none;stroke:#000000;stroke-linecap:square;stroke-linejoin:miter;stroke-width:0.8;"/>
   </g>
   <g id="text_15">
    <!-- COVID-19 cases, selected countries, data from ecdc.europa.eu as of 2020-06-03 -->
    <defs>
     <path d="M 39.40625 66.21875 
Q 28.65625 66.21875 22.328125 58.203125 
Q 16.015625 50.203125 16.015625 36.375 
Q 16.015625 22.609375 22.328125 14.59375 
Q 28.65625 6.59375 39.40625 6.59375 
Q 50.140625 6.59375 56.421875 14.59375 
Q 62.703125 22.609375 62.703125 36.375 
Q 62.703125 50.203125 56.421875 58.203125 
Q 50.140625 66.21875 39.40625 66.21875 
z
M 39.40625 74.21875 
Q 54.734375 74.21875 63.90625 63.9375 
Q 73.09375 53.65625 73.09375 36.375 
Q 73.09375 19.140625 63.90625 8.859375 
Q 54.734375 -1.421875 39.40625 -1.421875 
Q 24.03125 -1.421875 14.8125 8.828125 
Q 5.609375 19.09375 5.609375 36.375 
Q 5.609375 53.65625 14.8125 63.9375 
Q 24.03125 74.21875 39.40625 74.21875 
z
" id="DejaVuSans-79"/>
     <path d="M 28.609375 0 
L 0.78125 72.90625 
L 11.078125 72.90625 
L 34.1875 11.53125 
L 57.328125 72.90625 
L 67.578125 72.90625 
L 39.796875 0 
z
" id="DejaVuSans-86"/>
     <path d="M 9.8125 72.90625 
L 19.671875 72.90625 
L 19.671875 0 
L 9.8125 0 
z
" id="DejaVuSans-73"/>
     <path d="M 4.890625 31.390625 
L 31.203125 31.390625 
L 31.203125 23.390625 
L 4.890625 23.390625 
z
" id="DejaVuSans-45"/>
     <path d="M 10.984375 1.515625 
L 10.984375 10.5 
Q 14.703125 8.734375 18.5 7.8125 
Q 22.3125 6.890625 25.984375 6.890625 
Q 35.75 6.890625 40.890625 13.453125 
Q 46.046875 20.015625 46.78125 33.40625 
Q 43.953125 29.203125 39.59375 26.953125 
Q 35.25 24.703125 29.984375 24.703125 
Q 19.046875 24.703125 12.671875 31.3125 
Q 6.296875 37.9375 6.296875 49.421875 
Q 6.296875 60.640625 12.9375 67.421875 
Q 19.578125 74.21875 30.609375 74.21875 
Q 43.265625 74.21875 49.921875 64.515625 
Q 56.59375 54.828125 56.59375 36.375 
Q 56.59375 19.140625 48.40625 8.859375 
Q 40.234375 -1.421875 26.421875 -1.421875 
Q 22.703125 -1.421875 18.890625 -0.6875 
Q 15.09375 0.046875 10.984375 1.515625 
z
M 30.609375 32.421875 
Q 37.25 32.421875 41.125 36.953125 
Q 45.015625 41.5 45.015625 49.421875 
Q 45.015625 57.28125 41.125 61.84375 
Q 37.25 66.40625 30.609375 66.40625 
Q 23.96875 66.40625 20.09375 61.84375 
Q 16.21875 57.28125 16.21875 49.421875 
Q 16.21875 41.5 20.09375 36.953125 
Q 23.96875 32.421875 30.609375 32.421875 
z
" id="DejaVuSans-57"/>
     <path d="M 48.78125 52.59375 
L 48.78125 44.1875 
Q 44.96875 46.296875 41.140625 47.34375 
Q 37.3125 48.390625 33.40625 48.390625 
Q 24.65625 48.390625 19.8125 42.84375 
Q 14.984375 37.3125 14.984375 27.296875 
Q 14.984375 17.28125 19.8125 11.734375 
Q 24.65625 6.203125 33.40625 6.203125 
Q 37.3125 6.203125 41.140625 7.25 
Q 44.96875 8.296875 48.78125 10.40625 
L 48.78125 2.09375 
Q 45.015625 0.34375 40.984375 -0.53125 
Q 36.96875 -1.421875 32.421875 -1.421875 
Q 20.0625 -1.421875 12.78125 6.34375 
Q 5.515625 14.109375 5.515625 27.296875 
Q 5.515625 40.671875 12.859375 48.328125 
Q 20.21875 56 33.015625 56 
Q 37.15625 56 41.109375 55.140625 
Q 45.0625 54.296875 48.78125 52.59375 
z
" id="DejaVuSans-99"/>
     <path d="M 11.71875 12.40625 
L 22.015625 12.40625 
L 22.015625 4 
L 14.015625 -11.625 
L 7.71875 -11.625 
L 11.71875 4 
z
" id="DejaVuSans-44"/>
     <path d="M 45.40625 46.390625 
L 45.40625 75.984375 
L 54.390625 75.984375 
L 54.390625 0 
L 45.40625 0 
L 45.40625 8.203125 
Q 42.578125 3.328125 38.25 0.953125 
Q 33.9375 -1.421875 27.875 -1.421875 
Q 17.96875 -1.421875 11.734375 6.484375 
Q 5.515625 14.40625 5.515625 27.296875 
Q 5.515625 40.1875 11.734375 48.09375 
Q 17.96875 56 27.875 56 
Q 33.9375 56 38.25 53.625 
Q 42.578125 51.265625 45.40625 46.390625 
z
M 14.796875 27.296875 
Q 14.796875 17.390625 18.875 11.75 
Q 22.953125 6.109375 30.078125 6.109375 
Q 37.203125 6.109375 41.296875 11.75 
Q 45.40625 17.390625 45.40625 27.296875 
Q 45.40625 37.203125 41.296875 42.84375 
Q 37.203125 48.484375 30.078125 48.484375 
Q 22.953125 48.484375 18.875 42.84375 
Q 14.796875 37.203125 14.796875 27.296875 
z
" id="DejaVuSans-100"/>
     <path d="M 8.5 21.578125 
L 8.5 54.6875 
L 17.484375 54.6875 
L 17.484375 21.921875 
Q 17.484375 14.15625 20.5 10.265625 
Q 23.53125 6.390625 29.59375 6.390625 
Q 36.859375 6.390625 41.078125 11.03125 
Q 45.3125 15.671875 45.3125 23.6875 
L 45.3125 54.6875 
L 54.296875 54.6875 
L 54.296875 0 
L 45.3125 0 
L 45.3125 8.40625 
Q 42.046875 3.421875 37.71875 1 
Q 33.40625 -1.421875 27.6875 -1.421875 
Q 18.265625 -1.421875 13.375 4.4375 
Q 8.5 10.296875 8.5 21.578125 
z
M 31.109375 56 
z
" id="DejaVuSans-117"/>
     <path d="M 54.890625 33.015625 
L 54.890625 0 
L 45.90625 0 
L 45.90625 32.71875 
Q 45.90625 40.484375 42.875 44.328125 
Q 39.84375 48.1875 33.796875 48.1875 
Q 26.515625 48.1875 22.3125 43.546875 
Q 18.109375 38.921875 18.109375 30.90625 
L 18.109375 0 
L 9.078125 0 
L 9.078125 54.6875 
L 18.109375 54.6875 
L 18.109375 46.1875 
Q 21.34375 51.125 25.703125 53.5625 
Q 30.078125 56 35.796875 56 
Q 45.21875 56 50.046875 50.171875 
Q 54.890625 44.34375 54.890625 33.015625 
z
" id="DejaVuSans-110"/>
     <path d="M 9.421875 54.6875 
L 18.40625 54.6875 
L 18.40625 0 
L 9.421875 0 
z
M 9.421875 75.984375 
L 18.40625 75.984375 
L 18.40625 64.59375 
L 9.421875 64.59375 
z
" id="DejaVuSans-105"/>
     <path d="M 37.109375 75.984375 
L 37.109375 68.5 
L 28.515625 68.5 
Q 23.6875 68.5 21.796875 66.546875 
Q 19.921875 64.59375 19.921875 59.515625 
L 19.921875 54.6875 
L 34.71875 54.6875 
L 34.71875 47.703125 
L 19.921875 47.703125 
L 19.921875 0 
L 10.890625 0 
L 10.890625 47.703125 
L 2.296875 47.703125 
L 2.296875 54.6875 
L 10.890625 54.6875 
L 10.890625 58.5 
Q 10.890625 67.625 15.140625 71.796875 
Q 19.390625 75.984375 28.609375 75.984375 
z
" id="DejaVuSans-102"/>
     <path d="M 52 44.1875 
Q 55.375 50.25 60.0625 53.125 
Q 64.75 56 71.09375 56 
Q 79.640625 56 84.28125 50.015625 
Q 88.921875 44.046875 88.921875 33.015625 
L 88.921875 0 
L 79.890625 0 
L 79.890625 32.71875 
Q 79.890625 40.578125 77.09375 44.375 
Q 74.3125 48.1875 68.609375 48.1875 
Q 61.625 48.1875 57.5625 43.546875 
Q 53.515625 38.921875 53.515625 30.90625 
L 53.515625 0 
L 44.484375 0 
L 44.484375 32.71875 
Q 44.484375 40.625 41.703125 44.40625 
Q 38.921875 48.1875 33.109375 48.1875 
Q 26.21875 48.1875 22.15625 43.53125 
Q 18.109375 38.875 18.109375 30.90625 
L 18.109375 0 
L 9.078125 0 
L 9.078125 54.6875 
L 18.109375 54.6875 
L 18.109375 46.1875 
Q 21.1875 51.21875 25.484375 53.609375 
Q 29.78125 56 35.6875 56 
Q 41.65625 56 45.828125 52.96875 
Q 50 49.953125 52 44.1875 
z
" id="DejaVuSans-109"/>
     <path d="M 10.6875 12.40625 
L 21 12.40625 
L 21 0 
L 10.6875 0 
z
" id="DejaVuSans-46"/>
     <path d="M 18.109375 8.203125 
L 18.109375 -20.796875 
L 9.078125 -20.796875 
L 9.078125 54.6875 
L 18.109375 54.6875 
L 18.109375 46.390625 
Q 20.953125 51.265625 25.265625 53.625 
Q 29.59375 56 35.59375 56 
Q 45.5625 56 51.78125 48.09375 
Q 58.015625 40.1875 58.015625 27.296875 
Q 58.015625 14.40625 51.78125 6.484375 
Q 45.5625 -1.421875 35.59375 -1.421875 
Q 29.59375 -1.421875 25.265625 0.953125 
Q 20.953125 3.328125 18.109375 8.203125 
z
M 48.6875 27.296875 
Q 48.6875 37.203125 44.609375 42.84375 
Q 40.53125 48.484375 33.40625 48.484375 
Q 26.265625 48.484375 22.1875 42.84375 
Q 18.109375 37.203125 18.109375 27.296875 
Q 18.109375 17.390625 22.1875 11.75 
Q 26.265625 6.109375 33.40625 6.109375 
Q 40.53125 6.109375 44.609375 11.75 
Q 48.6875 17.390625 48.6875 27.296875 
z
" id="DejaVuSans-112"/>
    </defs>
    <g transform="translate(236.33025 25.01325)scale(0.12 -0.12)">
     <use xlink:href="#DejaVuSans-67"/>
     <use x="69.824219" xlink:href="#DejaVuSans-79"/>
     <use x="148.519531" xlink:href="#DejaVuSans-86"/>
     <use x="216.927734" xlink:href="#DejaVuSans-73"/>
     <use x="246.419922" xlink:href="#DejaVuSans-68"/>
     <use x="323.421875" xlink:href="#DejaVuSans-45"/>
     <use x="359.505859" xlink:href="#DejaVuSans-49"/>
     <use x="423.128906" xlink:href="#DejaVuSans-57"/>
     <use x="486.751953" xlink:href="#DejaVuSans-32"/>
     <use x="518.539062" xlink:href="#DejaVuSans-99"/>
     <use x="573.519531" xlink:href="#DejaVuSans-97"/>
     <use x="634.798828" xlink:href="#DejaVuSans-115"/>
     <use x="686.898438" xlink:href="#DejaVuSans-101"/>
     <use x="748.421875" xlink:href="#DejaVuSans-115"/>
     <use x="800.521484" xlink:href="#DejaVuSans-44"/>
     <use x="832.308594" xlink:href="#DejaVuSans-32"/>
     <use x="864.095703" xlink:href="#DejaVuSans-115"/>
     <use x="916.195312" xlink:href="#DejaVuSans-101"/>
     <use x="977.71875" xlink:href="#DejaVuSans-108"/>
     <use x="1005.501953" xlink:href="#DejaVuSans-101"/>
     <use x="1067.025391" xlink:href="#DejaVuSans-99"/>
     <use x="1122.005859" xlink:href="#DejaVuSans-116"/>
     <use x="1161.214844" xlink:href="#DejaVuSans-101"/>
     <use x="1222.738281" xlink:href="#DejaVuSans-100"/>
     <use x="1286.214844" xlink:href="#DejaVuSans-32"/>
     <use x="1318.001953" xlink:href="#DejaVuSans-99"/>
     <use x="1372.982422" xlink:href="#DejaVuSans-111"/>
     <use x="1434.164062" xlink:href="#DejaVuSans-117"/>
     <use x="1497.542969" xlink:href="#DejaVuSans-110"/>
     <use x="1560.921875" xlink:href="#DejaVuSans-116"/>
     <use x="1600.130859" xlink:href="#DejaVuSans-114"/>
     <use x="1641.244141" xlink:href="#DejaVuSans-105"/>
     <use x="1669.027344" xlink:href="#DejaVuSans-101"/>
     <use x="1730.550781" xlink:href="#DejaVuSans-115"/>
     <use x="1782.650391" xlink:href="#DejaVuSans-44"/>
     <use x="1814.4375" xlink:href="#DejaVuSans-32"/>
     <use x="1846.224609" xlink:href="#DejaVuSans-100"/>
     <use x="1909.701172" xlink:href="#DejaVuSans-97"/>
     <use x="1970.980469" xlink:href="#DejaVuSans-116"/>
     <use x="2010.189453" xlink:href="#DejaVuSans-97"/>
     <use x="2071.46875" xlink:href="#DejaVuSans-32"/>
     <use x="2103.255859" xlink:href="#DejaVuSans-102"/>
     <use x="2138.460938" xlink:href="#DejaVuSans-114"/>
     <use x="2179.542969" xlink:href="#DejaVuSans-111"/>
     <use x="2240.724609" xlink:href="#DejaVuSans-109"/>
     <use x="2338.136719" xlink:href="#DejaVuSans-32"/>
     <use x="2369.923828" xlink:href="#DejaVuSans-101"/>
     <use x="2431.447266" xlink:href="#DejaVuSans-99"/>
     <use x="2486.427734" xlink:href="#DejaVuSans-100"/>
     <use x="2549.904297" xlink:href="#DejaVuSans-99"/>
     <use x="2604.884766" xlink:href="#DejaVuSans-46"/>
     <use x="2636.671875" xlink:href="#DejaVuSans-101"/>
     <use x="2698.195312" xlink:href="#DejaVuSans-117"/>
     <use x="2761.574219" xlink:href="#DejaVuSans-114"/>
     <use x="2802.65625" xlink:href="#DejaVuSans-111"/>
     <use x="2863.837891" xlink:href="#DejaVuSans-112"/>
     <use x="2927.314453" xlink:href="#DejaVuSans-97"/>
     <use x="2988.59375" xlink:href="#DejaVuSans-46"/>
     <use x="3020.380859" xlink:href="#DejaVuSans-101"/>
     <use x="3081.904297" xlink:href="#DejaVuSans-117"/>
     <use x="3145.283203" xlink:href="#DejaVuSans-32"/>
     <use x="3177.070312" xlink:href="#DejaVuSans-97"/>
     <use x="3238.349609" xlink:href="#DejaVuSans-115"/>
     <use x="3290.449219" xlink:href="#DejaVuSans-32"/>
     <use x="3322.236328" xlink:href="#DejaVuSans-111"/>
     <use x="3383.417969" xlink:href="#DejaVuSans-102"/>
     <use x="3418.623047" xlink:href="#DejaVuSans-32"/>
     <use x="3450.410156" xlink:href="#DejaVuSans-50"/>
     <use x="3514.033203" xlink:href="#DejaVuSans-48"/>
     <use x="3577.65625" xlink:href="#DejaVuSans-50"/>
     <use x="3641.279297" xlink:href="#DejaVuSans-48"/>
     <use x="3704.902344" xlink:href="#DejaVuSans-45"/>
     <use x="3740.986328" xlink:href="#DejaVuSans-48"/>
     <use x="3804.609375" xlink:href="#DejaVuSans-54"/>
     <use x="3868.232422" xlink:href="#DejaVuSans-45"/>
     <use x="3904.316406" xlink:href="#DejaVuSans-48"/>
     <use x="3967.939453" xlink:href="#DejaVuSans-51"/>
    </g>
    <!-- Logarithmic Scale New vs. Total Cases -->
    <defs>
     <path d="M 45.40625 27.984375 
Q 45.40625 37.75 41.375 43.109375 
Q 37.359375 48.484375 30.078125 48.484375 
Q 22.859375 48.484375 18.828125 43.109375 
Q 14.796875 37.75 14.796875 27.984375 
Q 14.796875 18.265625 18.828125 12.890625 
Q 22.859375 7.515625 30.078125 7.515625 
Q 37.359375 7.515625 41.375 12.890625 
Q 45.40625 18.265625 45.40625 27.984375 
z
M 54.390625 6.78125 
Q 54.390625 -7.171875 48.1875 -13.984375 
Q 42 -20.796875 29.203125 -20.796875 
Q 24.46875 -20.796875 20.265625 -20.09375 
Q 16.0625 -19.390625 12.109375 -17.921875 
L 12.109375 -9.1875 
Q 16.0625 -11.328125 19.921875 -12.34375 
Q 23.78125 -13.375 27.78125 -13.375 
Q 36.625 -13.375 41.015625 -8.765625 
Q 45.40625 -4.15625 45.40625 5.171875 
L 45.40625 9.625 
Q 42.625 4.78125 38.28125 2.390625 
Q 33.9375 0 27.875 0 
Q 17.828125 0 11.671875 7.65625 
Q 5.515625 15.328125 5.515625 27.984375 
Q 5.515625 40.671875 11.671875 48.328125 
Q 17.828125 56 27.875 56 
Q 33.9375 56 38.28125 53.609375 
Q 42.625 51.21875 45.40625 46.390625 
L 45.40625 54.6875 
L 54.390625 54.6875 
z
" id="DejaVuSans-103"/>
     <path d="M 54.890625 33.015625 
L 54.890625 0 
L 45.90625 0 
L 45.90625 32.71875 
Q 45.90625 40.484375 42.875 44.328125 
Q 39.84375 48.1875 33.796875 48.1875 
Q 26.515625 48.1875 22.3125 43.546875 
Q 18.109375 38.921875 18.109375 30.90625 
L 18.109375 0 
L 9.078125 0 
L 9.078125 75.984375 
L 18.109375 75.984375 
L 18.109375 46.1875 
Q 21.34375 51.125 25.703125 53.5625 
Q 30.078125 56 35.796875 56 
Q 45.21875 56 50.046875 50.171875 
Q 54.890625 44.34375 54.890625 33.015625 
z
" id="DejaVuSans-104"/>
     <path d="M 53.515625 70.515625 
L 53.515625 60.890625 
Q 47.90625 63.578125 42.921875 64.890625 
Q 37.9375 66.21875 33.296875 66.21875 
Q 25.25 66.21875 20.875 63.09375 
Q 16.5 59.96875 16.5 54.203125 
Q 16.5 49.359375 19.40625 46.890625 
Q 22.3125 44.4375 30.421875 42.921875 
L 36.375 41.703125 
Q 47.40625 39.59375 52.65625 34.296875 
Q 57.90625 29 57.90625 20.125 
Q 57.90625 9.515625 50.796875 4.046875 
Q 43.703125 -1.421875 29.984375 -1.421875 
Q 24.8125 -1.421875 18.96875 -0.25 
Q 13.140625 0.921875 6.890625 3.21875 
L 6.890625 13.375 
Q 12.890625 10.015625 18.65625 8.296875 
Q 24.421875 6.59375 29.984375 6.59375 
Q 38.421875 6.59375 43.015625 9.90625 
Q 47.609375 13.234375 47.609375 19.390625 
Q 47.609375 24.75 44.3125 27.78125 
Q 41.015625 30.8125 33.5 32.328125 
L 27.484375 33.5 
Q 16.453125 35.6875 11.515625 40.375 
Q 6.59375 45.0625 6.59375 53.421875 
Q 6.59375 63.09375 13.40625 68.65625 
Q 20.21875 74.21875 32.171875 74.21875 
Q 37.3125 74.21875 42.625 73.28125 
Q 47.953125 72.359375 53.515625 70.515625 
z
" id="DejaVuSans-83"/>
     <path d="M 2.984375 54.6875 
L 12.5 54.6875 
L 29.59375 8.796875 
L 46.6875 54.6875 
L 56.203125 54.6875 
L 35.6875 0 
L 23.484375 0 
z
" id="DejaVuSans-118"/>
    </defs>
    <g transform="translate(362.451188 38.450625)scale(0.12 -0.12)">
     <use xlink:href="#DejaVuSans-76"/>
     <use x="55.697266" xlink:href="#DejaVuSans-111"/>
     <use x="116.878906" xlink:href="#DejaVuSans-103"/>
     <use x="180.355469" xlink:href="#DejaVuSans-97"/>
     <use x="241.634766" xlink:href="#DejaVuSans-114"/>
     <use x="282.748047" xlink:href="#DejaVuSans-105"/>
     <use x="310.53125" xlink:href="#DejaVuSans-116"/>
     <use x="349.740234" xlink:href="#DejaVuSans-104"/>
     <use x="413.119141" xlink:href="#DejaVuSans-109"/>
     <use x="510.53125" xlink:href="#DejaVuSans-105"/>
     <use x="538.314453" xlink:href="#DejaVuSans-99"/>
     <use x="593.294922" xlink:href="#DejaVuSans-32"/>
     <use x="625.082031" xlink:href="#DejaVuSans-83"/>
     <use x="688.558594" xlink:href="#DejaVuSans-99"/>
     <use x="743.539062" xlink:href="#DejaVuSans-97"/>
     <use x="804.818359" xlink:href="#DejaVuSans-108"/>
     <use x="832.601562" xlink:href="#DejaVuSans-101"/>
     <use x="894.125" xlink:href="#DejaVuSans-32"/>
     <use x="925.912109" xlink:href="#DejaVuSans-78"/>
     <use x="1000.716797" xlink:href="#DejaVuSans-101"/>
     <use x="1062.240234" xlink:href="#DejaVuSans-119"/>
     <use x="1144.027344" xlink:href="#DejaVuSans-32"/>
     <use x="1175.814453" xlink:href="#DejaVuSans-118"/>
     <use x="1234.994141" xlink:href="#DejaVuSans-115"/>
     <use x="1287.09375" xlink:href="#DejaVuSans-46"/>
     <use x="1318.880859" xlink:href="#DejaVuSans-32"/>
     <use x="1350.667969" xlink:href="#DejaVuSans-84"/>
     <use x="1411.486328" xlink:href="#DejaVuSans-111"/>
     <use x="1472.667969" xlink:href="#DejaVuSans-116"/>
     <use x="1511.876953" xlink:href="#DejaVuSans-97"/>
     <use x="1573.15625" xlink:href="#DejaVuSans-108"/>
     <use x="1600.939453" xlink:href="#DejaVuSans-32"/>
     <use x="1632.726562" xlink:href="#DejaVuSans-67"/>
     <use x="1702.550781" xlink:href="#DejaVuSans-97"/>
     <use x="1763.830078" xlink:href="#DejaVuSans-115"/>
     <use x="1815.929688" xlink:href="#DejaVuSans-101"/>
     <use x="1877.453125" xlink:href="#DejaVuSans-115"/>
    </g>
    <!-- https://github.com/PavelDusek/COVID-19 -->
    <defs>
     <path d="M 11.71875 12.40625 
L 22.015625 12.40625 
L 22.015625 0 
L 11.71875 0 
z
M 11.71875 51.703125 
L 22.015625 51.703125 
L 22.015625 39.3125 
L 11.71875 39.3125 
z
" id="DejaVuSans-58"/>
     <path d="M 25.390625 72.90625 
L 33.6875 72.90625 
L 8.296875 -9.28125 
L 0 -9.28125 
z
" id="DejaVuSans-47"/>
     <path d="M 48.6875 27.296875 
Q 48.6875 37.203125 44.609375 42.84375 
Q 40.53125 48.484375 33.40625 48.484375 
Q 26.265625 48.484375 22.1875 42.84375 
Q 18.109375 37.203125 18.109375 27.296875 
Q 18.109375 17.390625 22.1875 11.75 
Q 26.265625 6.109375 33.40625 6.109375 
Q 40.53125 6.109375 44.609375 11.75 
Q 48.6875 17.390625 48.6875 27.296875 
z
M 18.109375 46.390625 
Q 20.953125 51.265625 25.265625 53.625 
Q 29.59375 56 35.59375 56 
Q 45.5625 56 51.78125 48.09375 
Q 58.015625 40.1875 58.015625 27.296875 
Q 58.015625 14.40625 51.78125 6.484375 
Q 45.5625 -1.421875 35.59375 -1.421875 
Q 29.59375 -1.421875 25.265625 0.953125 
Q 20.953125 3.328125 18.109375 8.203125 
L 18.109375 0 
L 9.078125 0 
L 9.078125 75.984375 
L 18.109375 75.984375 
z
" id="DejaVuSans-98"/>
     <path d="M 19.671875 64.796875 
L 19.671875 37.40625 
L 32.078125 37.40625 
Q 38.96875 37.40625 42.71875 40.96875 
Q 46.484375 44.53125 46.484375 51.125 
Q 46.484375 57.671875 42.71875 61.234375 
Q 38.96875 64.796875 32.078125 64.796875 
z
M 9.8125 72.90625 
L 32.078125 72.90625 
Q 44.34375 72.90625 50.609375 67.359375 
Q 56.890625 61.8125 56.890625 51.125 
Q 56.890625 40.328125 50.609375 34.8125 
Q 44.34375 29.296875 32.078125 29.296875 
L 19.671875 29.296875 
L 19.671875 0 
L 9.8125 0 
z
" id="DejaVuSans-80"/>
     <path d="M 9.078125 75.984375 
L 18.109375 75.984375 
L 18.109375 31.109375 
L 44.921875 54.6875 
L 56.390625 54.6875 
L 27.390625 29.109375 
L 57.625 0 
L 45.90625 0 
L 18.109375 26.703125 
L 18.109375 0 
L 9.078125 0 
z
" id="DejaVuSans-107"/>
    </defs>
    <g transform="translate(354.591188 51.888)scale(0.12 -0.12)">
     <use xlink:href="#DejaVuSans-104"/>
     <use x="63.378906" xlink:href="#DejaVuSans-116"/>
     <use x="102.587891" xlink:href="#DejaVuSans-116"/>
     <use x="141.796875" xlink:href="#DejaVuSans-112"/>
     <use x="205.273438" xlink:href="#DejaVuSans-115"/>
     <use x="257.373047" xlink:href="#DejaVuSans-58"/>
     <use x="291.064453" xlink:href="#DejaVuSans-47"/>
     <use x="324.755859" xlink:href="#DejaVuSans-47"/>
     <use x="358.447266" xlink:href="#DejaVuSans-103"/>
     <use x="421.923828" xlink:href="#DejaVuSans-105"/>
     <use x="449.707031" xlink:href="#DejaVuSans-116"/>
     <use x="488.916016" xlink:href="#DejaVuSans-104"/>
     <use x="552.294922" xlink:href="#DejaVuSans-117"/>
     <use x="615.673828" xlink:href="#DejaVuSans-98"/>
     <use x="679.150391" xlink:href="#DejaVuSans-46"/>
     <use x="710.9375" xlink:href="#DejaVuSans-99"/>
     <use x="765.917969" xlink:href="#DejaVuSans-111"/>
     <use x="827.099609" xlink:href="#DejaVuSans-109"/>
     <use x="924.511719" xlink:href="#DejaVuSans-47"/>
     <use x="958.203125" xlink:href="#DejaVuSans-80"/>
     <use x="1018.443359" xlink:href="#DejaVuSans-97"/>
     <use x="1079.722656" xlink:href="#DejaVuSans-118"/>
     <use x="1138.902344" xlink:href="#DejaVuSans-101"/>
     <use x="1200.425781" xlink:href="#DejaVuSans-108"/>
     <use x="1228.208984" xlink:href="#DejaVuSans-68"/>
     <use x="1305.210938" xlink:href="#DejaVuSans-117"/>
     <use x="1368.589844" xlink:href="#DejaVuSans-115"/>
     <use x="1420.689453" xlink:href="#DejaVuSans-101"/>
     <use x="1482.212891" xlink:href="#DejaVuSans-107"/>
     <use x="1540.123047" xlink:href="#DejaVuSans-47"/>
     <use x="1573.814453" xlink:href="#DejaVuSans-67"/>
     <use x="1643.638672" xlink:href="#DejaVuSans-79"/>
     <use x="1722.333984" xlink:href="#DejaVuSans-86"/>
     <use x="1790.742188" xlink:href="#DejaVuSans-73"/>
     <use x="1820.234375" xlink:href="#DejaVuSans-68"/>
     <use x="1897.236328" xlink:href="#DejaVuSans-45"/>
     <use x="1933.320312" xlink:href="#DejaVuSans-49"/>
     <use x="1996.943359" xlink:href="#DejaVuSans-57"/>
    </g>
   </g>
   <g id="legend_1">
    <g id="patch_7">
     <path d="M 123.64 153.95675 
L 280.599375 153.95675 
Q 282.599375 153.95675 282.599375 151.95675 
L 282.599375 64.888 
Q 282.599375 62.888 280.599375 62.888 
L 123.64 62.888 
Q 121.64 62.888 121.64 64.888 
L 121.64 151.95675 
Q 121.64 153.95675 123.64 153.95675 
z
" style="fill:#ffffff;opacity:0.8;stroke:#cccccc;stroke-linejoin:miter;"/>
    </g>
    <g id="line2d_116">
     <path d="M 125.64 70.986437 
L 145.64 70.986437 
" style="fill:none;stroke:#1f77b4;stroke-linecap:square;stroke-width:1.5;"/>
    </g>
    <g id="line2d_117"/>
    <g id="text_16">
     <!-- China -->
     <g transform="translate(153.64 74.486437)scale(0.1 -0.1)">
      <use xlink:href="#DejaVuSans-67"/>
      <use x="69.824219" xlink:href="#DejaVuSans-104"/>
      <use x="133.203125" xlink:href="#DejaVuSans-105"/>
      <use x="160.986328" xlink:href="#DejaVuSans-110"/>
      <use x="224.365234" xlink:href="#DejaVuSans-97"/>
     </g>
    </g>
    <g id="line2d_118">
     <path d="M 125.64 85.664562 
L 145.64 85.664562 
" style="fill:none;stroke:#ff7f0e;stroke-linecap:square;stroke-width:1.5;"/>
    </g>
    <g id="line2d_119"/>
    <g id="text_17">
     <!-- Czech Republic -->
     <defs>
      <path d="M 5.515625 54.6875 
L 48.1875 54.6875 
L 48.1875 46.484375 
L 14.40625 7.171875 
L 48.1875 7.171875 
L 48.1875 0 
L 4.296875 0 
L 4.296875 8.203125 
L 38.09375 47.515625 
L 5.515625 47.515625 
z
" id="DejaVuSans-122"/>
      <path d="M 44.390625 34.1875 
Q 47.5625 33.109375 50.5625 29.59375 
Q 53.5625 26.078125 56.59375 19.921875 
L 66.609375 0 
L 56 0 
L 46.6875 18.703125 
Q 43.0625 26.03125 39.671875 28.421875 
Q 36.28125 30.8125 30.421875 30.8125 
L 19.671875 30.8125 
L 19.671875 0 
L 9.8125 0 
L 9.8125 72.90625 
L 32.078125 72.90625 
Q 44.578125 72.90625 50.734375 67.671875 
Q 56.890625 62.453125 56.890625 51.90625 
Q 56.890625 45.015625 53.6875 40.46875 
Q 50.484375 35.9375 44.390625 34.1875 
z
M 19.671875 64.796875 
L 19.671875 38.921875 
L 32.078125 38.921875 
Q 39.203125 38.921875 42.84375 42.21875 
Q 46.484375 45.515625 46.484375 51.90625 
Q 46.484375 58.296875 42.84375 61.546875 
Q 39.203125 64.796875 32.078125 64.796875 
z
" id="DejaVuSans-82"/>
     </defs>
     <g transform="translate(153.64 89.164562)scale(0.1 -0.1)">
      <use xlink:href="#DejaVuSans-67"/>
      <use x="69.824219" xlink:href="#DejaVuSans-122"/>
      <use x="122.314453" xlink:href="#DejaVuSans-101"/>
      <use x="183.837891" xlink:href="#DejaVuSans-99"/>
      <use x="238.818359" xlink:href="#DejaVuSans-104"/>
      <use x="302.197266" xlink:href="#DejaVuSans-32"/>
      <use x="333.984375" xlink:href="#DejaVuSans-82"/>
      <use x="403.404297" xlink:href="#DejaVuSans-101"/>
      <use x="464.927734" xlink:href="#DejaVuSans-112"/>
      <use x="528.404297" xlink:href="#DejaVuSans-117"/>
      <use x="591.783203" xlink:href="#DejaVuSans-98"/>
      <use x="655.259766" xlink:href="#DejaVuSans-108"/>
      <use x="683.042969" xlink:href="#DejaVuSans-105"/>
      <use x="710.826172" xlink:href="#DejaVuSans-99"/>
     </g>
    </g>
    <g id="line2d_120">
     <path d="M 125.64 100.342687 
L 145.64 100.342687 
" style="fill:none;stroke:#2ca02c;stroke-linecap:square;stroke-width:1.5;"/>
    </g>
    <g id="line2d_121"/>
    <g id="text_18">
     <!-- Italy -->
     <g transform="translate(153.64 103.842687)scale(0.1 -0.1)">
      <use xlink:href="#DejaVuSans-73"/>
      <use x="29.492188" xlink:href="#DejaVuSans-116"/>
      <use x="68.701172" xlink:href="#DejaVuSans-97"/>
      <use x="129.980469" xlink:href="#DejaVuSans-108"/>
      <use x="157.763672" xlink:href="#DejaVuSans-121"/>
     </g>
    </g>
    <g id="line2d_122">
     <path d="M 125.64 115.020812 
L 145.64 115.020812 
" style="fill:none;stroke:#d62728;stroke-linecap:square;stroke-width:1.5;"/>
    </g>
    <g id="line2d_123"/>
    <g id="text_19">
     <!-- Slovakia -->
     <g transform="translate(153.64 118.520812)scale(0.1 -0.1)">
      <use xlink:href="#DejaVuSans-83"/>
      <use x="63.476562" xlink:href="#DejaVuSans-108"/>
      <use x="91.259766" xlink:href="#DejaVuSans-111"/>
      <use x="152.441406" xlink:href="#DejaVuSans-118"/>
      <use x="211.621094" xlink:href="#DejaVuSans-97"/>
      <use x="272.900391" xlink:href="#DejaVuSans-107"/>
      <use x="330.810547" xlink:href="#DejaVuSans-105"/>
      <use x="358.59375" xlink:href="#DejaVuSans-97"/>
     </g>
    </g>
    <g id="line2d_124">
     <path d="M 125.64 129.698937 
L 145.64 129.698937 
" style="fill:none;stroke:#9467bd;stroke-linecap:square;stroke-width:1.5;"/>
    </g>
    <g id="line2d_125"/>
    <g id="text_20">
     <!-- Taiwan -->
     <g transform="translate(153.64 133.198937)scale(0.1 -0.1)">
      <use xlink:href="#DejaVuSans-84"/>
      <use x="60.833984" xlink:href="#DejaVuSans-97"/>
      <use x="122.113281" xlink:href="#DejaVuSans-105"/>
      <use x="149.896484" xlink:href="#DejaVuSans-119"/>
      <use x="231.683594" xlink:href="#DejaVuSans-97"/>
      <use x="292.962891" xlink:href="#DejaVuSans-110"/>
     </g>
    </g>
    <g id="line2d_126">
     <path d="M 125.64 144.377062 
L 145.64 144.377062 
" style="fill:none;stroke:#8c564b;stroke-linecap:square;stroke-width:1.5;"/>
    </g>
    <g id="line2d_127"/>
    <g id="text_21">
     <!-- United States of America -->
     <defs>
      <path d="M 8.6875 72.90625 
L 18.609375 72.90625 
L 18.609375 28.609375 
Q 18.609375 16.890625 22.84375 11.734375 
Q 27.09375 6.59375 36.625 6.59375 
Q 46.09375 6.59375 50.34375 11.734375 
Q 54.59375 16.890625 54.59375 28.609375 
L 54.59375 72.90625 
L 64.5 72.90625 
L 64.5 27.390625 
Q 64.5 13.140625 57.4375 5.859375 
Q 50.390625 -1.421875 36.625 -1.421875 
Q 22.796875 -1.421875 15.734375 5.859375 
Q 8.6875 13.140625 8.6875 27.390625 
z
" id="DejaVuSans-85"/>
      <path d="M 34.1875 63.1875 
L 20.796875 26.90625 
L 47.609375 26.90625 
z
M 28.609375 72.90625 
L 39.796875 72.90625 
L 67.578125 0 
L 57.328125 0 
L 50.6875 18.703125 
L 17.828125 18.703125 
L 11.1875 0 
L 0.78125 0 
z
" id="DejaVuSans-65"/>
     </defs>
     <g transform="translate(153.64 147.877062)scale(0.1 -0.1)">
      <use xlink:href="#DejaVuSans-85"/>
      <use x="73.193359" xlink:href="#DejaVuSans-110"/>
      <use x="136.572266" xlink:href="#DejaVuSans-105"/>
      <use x="164.355469" xlink:href="#DejaVuSans-116"/>
      <use x="203.564453" xlink:href="#DejaVuSans-101"/>
      <use x="265.087891" xlink:href="#DejaVuSans-100"/>
      <use x="328.564453" xlink:href="#DejaVuSans-32"/>
      <use x="360.351562" xlink:href="#DejaVuSans-83"/>
      <use x="423.828125" xlink:href="#DejaVuSans-116"/>
      <use x="463.037109" xlink:href="#DejaVuSans-97"/>
      <use x="524.316406" xlink:href="#DejaVuSans-116"/>
      <use x="563.525391" xlink:href="#DejaVuSans-101"/>
      <use x="625.048828" xlink:href="#DejaVuSans-115"/>
      <use x="677.148438" xlink:href="#DejaVuSans-32"/>
      <use x="708.935547" xlink:href="#DejaVuSans-111"/>
      <use x="770.117188" xlink:href="#DejaVuSans-102"/>
      <use x="805.322266" xlink:href="#DejaVuSans-32"/>
      <use x="837.109375" xlink:href="#DejaVuSans-65"/>
      <use x="905.517578" xlink:href="#DejaVuSans-109"/>
      <use x="1002.929688" xlink:href="#DejaVuSans-101"/>
      <use x="1064.453125" xlink:href="#DejaVuSans-114"/>
      <use x="1105.566406" xlink:href="#DejaVuSans-105"/>
      <use x="1133.349609" xlink:href="#DejaVuSans-99"/>
      <use x="1188.330078" xlink:href="#DejaVuSans-97"/>
     </g>
    </g>
   </g>
  </g>
 </g>
 <defs>
  <clipPath id="p95372e97fa">
   <rect height="371.448" width="723.168" x="116.64" y="57.888"/>
  </clipPath>
 </defs>
</svg>
