<?xml version="1.0" encoding="utf-8" standalone="no"?>
<!DOCTYPE svg PUBLIC "-//W3C//DTD SVG 1.1//EN"
  "http://www.w3.org/Graphics/SVG/1.1/DTD/svg11.dtd">
<!-- Created with matplotlib (https://matplotlib.org/) -->
<svg height="482.4pt" version="1.1" viewBox="0 0 933.12 482.4" width="933.12pt" xmlns="http://www.w3.org/2000/svg" xmlns:xlink="http://www.w3.org/1999/xlink">
 <defs>
  <style type="text/css">
*{stroke-linecap:butt;stroke-linejoin:round;}
  </style>
 </defs>
 <g id="figure_1">
  <g id="patch_1">
   <path d="M 0 482.4 
L 933.12 482.4 
L 933.12 0 
L 0 0 
z
" style="fill:#ffffff;"/>
  </g>
  <g id="axes_1">
   <g id="patch_2">
    <path d="M 116.64 429.336 
L 839.808 429.336 
L 839.808 57.888 
L 116.64 57.888 
z
" style="fill:#ffffff;"/>
   </g>
   <g id="matplotlib.axis_1">
    <g id="xtick_1">
     <g id="line2d_1">
      <defs>
       <path d="M 0 0 
L 0 3.5 
" id="mf5156d05e9" style="stroke:#000000;stroke-width:0.8;"/>
      </defs>
      <g>
       <use style="stroke:#000000;stroke-width:0.8;" x="208.334247" xlink:href="#mf5156d05e9" y="429.336"/>
      </g>
     </g>
     <g id="text_1">
      <!-- $\mathdefault{10^{1}}$ -->
      <defs>
       <path d="M 12.40625 8.296875 
L 28.515625 8.296875 
L 28.515625 63.921875 
L 10.984375 60.40625 
L 10.984375 69.390625 
L 28.421875 72.90625 
L 38.28125 72.90625 
L 38.28125 8.296875 
L 54.390625 8.296875 
L 54.390625 0 
L 12.40625 0 
z
" id="DejaVuSans-49"/>
       <path d="M 31.78125 66.40625 
Q 24.171875 66.40625 20.328125 58.90625 
Q 16.5 51.421875 16.5 36.375 
Q 16.5 21.390625 20.328125 13.890625 
Q 24.171875 6.390625 31.78125 6.390625 
Q 39.453125 6.390625 43.28125 13.890625 
Q 47.125 21.390625 47.125 36.375 
Q 47.125 51.421875 43.28125 58.90625 
Q 39.453125 66.40625 31.78125 66.40625 
z
M 31.78125 74.21875 
Q 44.046875 74.21875 50.515625 64.515625 
Q 56.984375 54.828125 56.984375 36.375 
Q 56.984375 17.96875 50.515625 8.265625 
Q 44.046875 -1.421875 31.78125 -1.421875 
Q 19.53125 -1.421875 13.0625 8.265625 
Q 6.59375 17.96875 6.59375 36.375 
Q 6.59375 54.828125 13.0625 64.515625 
Q 19.53125 74.21875 31.78125 74.21875 
z
" id="DejaVuSans-48"/>
      </defs>
      <g transform="translate(199.534247 443.934438)scale(0.1 -0.1)">
       <use transform="translate(0 0.684375)" xlink:href="#DejaVuSans-49"/>
       <use transform="translate(63.623047 0.684375)" xlink:href="#DejaVuSans-48"/>
       <use transform="translate(128.203125 38.965625)scale(0.7)" xlink:href="#DejaVuSans-49"/>
      </g>
     </g>
    </g>
    <g id="xtick_2">
     <g id="line2d_2">
      <g>
       <use style="stroke:#000000;stroke-width:0.8;" x="320.832554" xlink:href="#mf5156d05e9" y="429.336"/>
      </g>
     </g>
     <g id="text_2">
      <!-- $\mathdefault{10^{2}}$ -->
      <defs>
       <path d="M 19.1875 8.296875 
L 53.609375 8.296875 
L 53.609375 0 
L 7.328125 0 
L 7.328125 8.296875 
Q 12.9375 14.109375 22.625 23.890625 
Q 32.328125 33.6875 34.8125 36.53125 
Q 39.546875 41.84375 41.421875 45.53125 
Q 43.3125 49.21875 43.3125 52.78125 
Q 43.3125 58.59375 39.234375 62.25 
Q 35.15625 65.921875 28.609375 65.921875 
Q 23.96875 65.921875 18.8125 64.3125 
Q 13.671875 62.703125 7.8125 59.421875 
L 7.8125 69.390625 
Q 13.765625 71.78125 18.9375 73 
Q 24.125 74.21875 28.421875 74.21875 
Q 39.75 74.21875 46.484375 68.546875 
Q 53.21875 62.890625 53.21875 53.421875 
Q 53.21875 48.921875 51.53125 44.890625 
Q 49.859375 40.875 45.40625 35.40625 
Q 44.1875 33.984375 37.640625 27.21875 
Q 31.109375 20.453125 19.1875 8.296875 
z
" id="DejaVuSans-50"/>
      </defs>
      <g transform="translate(312.032554 443.934438)scale(0.1 -0.1)">
       <use transform="translate(0 0.765625)" xlink:href="#DejaVuSans-49"/>
       <use transform="translate(63.623047 0.765625)" xlink:href="#DejaVuSans-48"/>
       <use transform="translate(128.203125 39.046875)scale(0.7)" xlink:href="#DejaVuSans-50"/>
      </g>
     </g>
    </g>
    <g id="xtick_3">
     <g id="line2d_3">
      <g>
       <use style="stroke:#000000;stroke-width:0.8;" x="433.330862" xlink:href="#mf5156d05e9" y="429.336"/>
      </g>
     </g>
     <g id="text_3">
      <!-- $\mathdefault{10^{3}}$ -->
      <defs>
       <path d="M 40.578125 39.3125 
Q 47.65625 37.796875 51.625 33 
Q 55.609375 28.21875 55.609375 21.1875 
Q 55.609375 10.40625 48.1875 4.484375 
Q 40.765625 -1.421875 27.09375 -1.421875 
Q 22.515625 -1.421875 17.65625 -0.515625 
Q 12.796875 0.390625 7.625 2.203125 
L 7.625 11.71875 
Q 11.71875 9.328125 16.59375 8.109375 
Q 21.484375 6.890625 26.8125 6.890625 
Q 36.078125 6.890625 40.9375 10.546875 
Q 45.796875 14.203125 45.796875 21.1875 
Q 45.796875 27.640625 41.28125 31.265625 
Q 36.765625 34.90625 28.71875 34.90625 
L 20.21875 34.90625 
L 20.21875 43.015625 
L 29.109375 43.015625 
Q 36.375 43.015625 40.234375 45.921875 
Q 44.09375 48.828125 44.09375 54.296875 
Q 44.09375 59.90625 40.109375 62.90625 
Q 36.140625 65.921875 28.71875 65.921875 
Q 24.65625 65.921875 20.015625 65.03125 
Q 15.375 64.15625 9.8125 62.3125 
L 9.8125 71.09375 
Q 15.4375 72.65625 20.34375 73.4375 
Q 25.25 74.21875 29.59375 74.21875 
Q 40.828125 74.21875 47.359375 69.109375 
Q 53.90625 64.015625 53.90625 55.328125 
Q 53.90625 49.265625 50.4375 45.09375 
Q 46.96875 40.921875 40.578125 39.3125 
z
" id="DejaVuSans-51"/>
      </defs>
      <g transform="translate(424.530862 443.934438)scale(0.1 -0.1)">
       <use transform="translate(0 0.765625)" xlink:href="#DejaVuSans-49"/>
       <use transform="translate(63.623047 0.765625)" xlink:href="#DejaVuSans-48"/>
       <use transform="translate(128.203125 39.046875)scale(0.7)" xlink:href="#DejaVuSans-51"/>
      </g>
     </g>
    </g>
    <g id="xtick_4">
     <g id="line2d_4">
      <g>
       <use style="stroke:#000000;stroke-width:0.8;" x="545.829169" xlink:href="#mf5156d05e9" y="429.336"/>
      </g>
     </g>
     <g id="text_4">
      <!-- $\mathdefault{10^{4}}$ -->
      <defs>
       <path d="M 37.796875 64.3125 
L 12.890625 25.390625 
L 37.796875 25.390625 
z
M 35.203125 72.90625 
L 47.609375 72.90625 
L 47.609375 25.390625 
L 58.015625 25.390625 
L 58.015625 17.1875 
L 47.609375 17.1875 
L 47.609375 0 
L 37.796875 0 
L 37.796875 17.1875 
L 4.890625 17.1875 
L 4.890625 26.703125 
z
" id="DejaVuSans-52"/>
      </defs>
      <g transform="translate(537.029169 443.934438)scale(0.1 -0.1)">
       <use transform="translate(0 0.684375)" xlink:href="#DejaVuSans-49"/>
       <use transform="translate(63.623047 0.684375)" xlink:href="#DejaVuSans-48"/>
       <use transform="translate(128.203125 38.965625)scale(0.7)" xlink:href="#DejaVuSans-52"/>
      </g>
     </g>
    </g>
    <g id="xtick_5">
     <g id="line2d_5">
      <g>
       <use style="stroke:#000000;stroke-width:0.8;" x="658.327477" xlink:href="#mf5156d05e9" y="429.336"/>
      </g>
     </g>
     <g id="text_5">
      <!-- $\mathdefault{10^{5}}$ -->
      <defs>
       <path d="M 10.796875 72.90625 
L 49.515625 72.90625 
L 49.515625 64.59375 
L 19.828125 64.59375 
L 19.828125 46.734375 
Q 21.96875 47.46875 24.109375 47.828125 
Q 26.265625 48.1875 28.421875 48.1875 
Q 40.625 48.1875 47.75 41.5 
Q 54.890625 34.8125 54.890625 23.390625 
Q 54.890625 11.625 47.5625 5.09375 
Q 40.234375 -1.421875 26.90625 -1.421875 
Q 22.3125 -1.421875 17.546875 -0.640625 
Q 12.796875 0.140625 7.71875 1.703125 
L 7.71875 11.625 
Q 12.109375 9.234375 16.796875 8.0625 
Q 21.484375 6.890625 26.703125 6.890625 
Q 35.15625 6.890625 40.078125 11.328125 
Q 45.015625 15.765625 45.015625 23.390625 
Q 45.015625 31 40.078125 35.4375 
Q 35.15625 39.890625 26.703125 39.890625 
Q 22.75 39.890625 18.8125 39.015625 
Q 14.890625 38.140625 10.796875 36.28125 
z
" id="DejaVuSans-53"/>
      </defs>
      <g transform="translate(649.527477 443.934438)scale(0.1 -0.1)">
       <use transform="translate(0 0.684375)" xlink:href="#DejaVuSans-49"/>
       <use transform="translate(63.623047 0.684375)" xlink:href="#DejaVuSans-48"/>
       <use transform="translate(128.203125 38.965625)scale(0.7)" xlink:href="#DejaVuSans-53"/>
      </g>
     </g>
    </g>
    <g id="xtick_6">
     <g id="line2d_6">
      <g>
       <use style="stroke:#000000;stroke-width:0.8;" x="770.825784" xlink:href="#mf5156d05e9" y="429.336"/>
      </g>
     </g>
     <g id="text_6">
      <!-- $\mathdefault{10^{6}}$ -->
      <defs>
       <path d="M 33.015625 40.375 
Q 26.375 40.375 22.484375 35.828125 
Q 18.609375 31.296875 18.609375 23.390625 
Q 18.609375 15.53125 22.484375 10.953125 
Q 26.375 6.390625 33.015625 6.390625 
Q 39.65625 6.390625 43.53125 10.953125 
Q 47.40625 15.53125 47.40625 23.390625 
Q 47.40625 31.296875 43.53125 35.828125 
Q 39.65625 40.375 33.015625 40.375 
z
M 52.59375 71.296875 
L 52.59375 62.3125 
Q 48.875 64.0625 45.09375 64.984375 
Q 41.3125 65.921875 37.59375 65.921875 
Q 27.828125 65.921875 22.671875 59.328125 
Q 17.53125 52.734375 16.796875 39.40625 
Q 19.671875 43.65625 24.015625 45.921875 
Q 28.375 48.1875 33.59375 48.1875 
Q 44.578125 48.1875 50.953125 41.515625 
Q 57.328125 34.859375 57.328125 23.390625 
Q 57.328125 12.15625 50.6875 5.359375 
Q 44.046875 -1.421875 33.015625 -1.421875 
Q 20.359375 -1.421875 13.671875 8.265625 
Q 6.984375 17.96875 6.984375 36.375 
Q 6.984375 53.65625 15.1875 63.9375 
Q 23.390625 74.21875 37.203125 74.21875 
Q 40.921875 74.21875 44.703125 73.484375 
Q 48.484375 72.75 52.59375 71.296875 
z
" id="DejaVuSans-54"/>
      </defs>
      <g transform="translate(762.025784 443.934438)scale(0.1 -0.1)">
       <use transform="translate(0 0.765625)" xlink:href="#DejaVuSans-49"/>
       <use transform="translate(63.623047 0.765625)" xlink:href="#DejaVuSans-48"/>
       <use transform="translate(128.203125 39.046875)scale(0.7)" xlink:href="#DejaVuSans-54"/>
      </g>
     </g>
    </g>
    <g id="xtick_7">
     <g id="line2d_7">
      <defs>
       <path d="M 0 0 
L 0 2 
" id="m2276cf7d9c" style="stroke:#000000;stroke-width:0.6;"/>
      </defs>
      <g>
       <use style="stroke:#000000;stroke-width:0.6;" x="129.701304" xlink:href="#m2276cf7d9c" y="429.336"/>
      </g>
     </g>
    </g>
    <g id="xtick_8">
     <g id="line2d_8">
      <g>
       <use style="stroke:#000000;stroke-width:0.6;" x="149.511273" xlink:href="#m2276cf7d9c" y="429.336"/>
      </g>
     </g>
    </g>
    <g id="xtick_9">
     <g id="line2d_9">
      <g>
       <use style="stroke:#000000;stroke-width:0.6;" x="163.566669" xlink:href="#m2276cf7d9c" y="429.336"/>
      </g>
     </g>
    </g>
    <g id="xtick_10">
     <g id="line2d_10">
      <g>
       <use style="stroke:#000000;stroke-width:0.6;" x="174.468882" xlink:href="#m2276cf7d9c" y="429.336"/>
      </g>
     </g>
    </g>
    <g id="xtick_11">
     <g id="line2d_11">
      <g>
       <use style="stroke:#000000;stroke-width:0.6;" x="183.376638" xlink:href="#m2276cf7d9c" y="429.336"/>
      </g>
     </g>
    </g>
    <g id="xtick_12">
     <g id="line2d_12">
      <g>
       <use style="stroke:#000000;stroke-width:0.6;" x="190.908038" xlink:href="#m2276cf7d9c" y="429.336"/>
      </g>
     </g>
    </g>
    <g id="xtick_13">
     <g id="line2d_13">
      <g>
       <use style="stroke:#000000;stroke-width:0.6;" x="197.432034" xlink:href="#m2276cf7d9c" y="429.336"/>
      </g>
     </g>
    </g>
    <g id="xtick_14">
     <g id="line2d_14">
      <g>
       <use style="stroke:#000000;stroke-width:0.6;" x="203.186606" xlink:href="#m2276cf7d9c" y="429.336"/>
      </g>
     </g>
    </g>
    <g id="xtick_15">
     <g id="line2d_15">
      <g>
       <use style="stroke:#000000;stroke-width:0.6;" x="242.199612" xlink:href="#m2276cf7d9c" y="429.336"/>
      </g>
     </g>
    </g>
    <g id="xtick_16">
     <g id="line2d_16">
      <g>
       <use style="stroke:#000000;stroke-width:0.6;" x="262.00958" xlink:href="#m2276cf7d9c" y="429.336"/>
      </g>
     </g>
    </g>
    <g id="xtick_17">
     <g id="line2d_17">
      <g>
       <use style="stroke:#000000;stroke-width:0.6;" x="276.064977" xlink:href="#m2276cf7d9c" y="429.336"/>
      </g>
     </g>
    </g>
    <g id="xtick_18">
     <g id="line2d_18">
      <g>
       <use style="stroke:#000000;stroke-width:0.6;" x="286.967189" xlink:href="#m2276cf7d9c" y="429.336"/>
      </g>
     </g>
    </g>
    <g id="xtick_19">
     <g id="line2d_19">
      <g>
       <use style="stroke:#000000;stroke-width:0.6;" x="295.874945" xlink:href="#m2276cf7d9c" y="429.336"/>
      </g>
     </g>
    </g>
    <g id="xtick_20">
     <g id="line2d_20">
      <g>
       <use style="stroke:#000000;stroke-width:0.6;" x="303.406346" xlink:href="#m2276cf7d9c" y="429.336"/>
      </g>
     </g>
    </g>
    <g id="xtick_21">
     <g id="line2d_21">
      <g>
       <use style="stroke:#000000;stroke-width:0.6;" x="309.930342" xlink:href="#m2276cf7d9c" y="429.336"/>
      </g>
     </g>
    </g>
    <g id="xtick_22">
     <g id="line2d_22">
      <g>
       <use style="stroke:#000000;stroke-width:0.6;" x="315.684914" xlink:href="#m2276cf7d9c" y="429.336"/>
      </g>
     </g>
    </g>
    <g id="xtick_23">
     <g id="line2d_23">
      <g>
       <use style="stroke:#000000;stroke-width:0.6;" x="354.697919" xlink:href="#m2276cf7d9c" y="429.336"/>
      </g>
     </g>
    </g>
    <g id="xtick_24">
     <g id="line2d_24">
      <g>
       <use style="stroke:#000000;stroke-width:0.6;" x="374.507888" xlink:href="#m2276cf7d9c" y="429.336"/>
      </g>
     </g>
    </g>
    <g id="xtick_25">
     <g id="line2d_25">
      <g>
       <use style="stroke:#000000;stroke-width:0.6;" x="388.563284" xlink:href="#m2276cf7d9c" y="429.336"/>
      </g>
     </g>
    </g>
    <g id="xtick_26">
     <g id="line2d_26">
      <g>
       <use style="stroke:#000000;stroke-width:0.6;" x="399.465497" xlink:href="#m2276cf7d9c" y="429.336"/>
      </g>
     </g>
    </g>
    <g id="xtick_27">
     <g id="line2d_27">
      <g>
       <use style="stroke:#000000;stroke-width:0.6;" x="408.373253" xlink:href="#m2276cf7d9c" y="429.336"/>
      </g>
     </g>
    </g>
    <g id="xtick_28">
     <g id="line2d_28">
      <g>
       <use style="stroke:#000000;stroke-width:0.6;" x="415.904653" xlink:href="#m2276cf7d9c" y="429.336"/>
      </g>
     </g>
    </g>
    <g id="xtick_29">
     <g id="line2d_29">
      <g>
       <use style="stroke:#000000;stroke-width:0.6;" x="422.428649" xlink:href="#m2276cf7d9c" y="429.336"/>
      </g>
     </g>
    </g>
    <g id="xtick_30">
     <g id="line2d_30">
      <g>
       <use style="stroke:#000000;stroke-width:0.6;" x="428.183221" xlink:href="#m2276cf7d9c" y="429.336"/>
      </g>
     </g>
    </g>
    <g id="xtick_31">
     <g id="line2d_31">
      <g>
       <use style="stroke:#000000;stroke-width:0.6;" x="467.196227" xlink:href="#m2276cf7d9c" y="429.336"/>
      </g>
     </g>
    </g>
    <g id="xtick_32">
     <g id="line2d_32">
      <g>
       <use style="stroke:#000000;stroke-width:0.6;" x="487.006195" xlink:href="#m2276cf7d9c" y="429.336"/>
      </g>
     </g>
    </g>
    <g id="xtick_33">
     <g id="line2d_33">
      <g>
       <use style="stroke:#000000;stroke-width:0.6;" x="501.061592" xlink:href="#m2276cf7d9c" y="429.336"/>
      </g>
     </g>
    </g>
    <g id="xtick_34">
     <g id="line2d_34">
      <g>
       <use style="stroke:#000000;stroke-width:0.6;" x="511.963804" xlink:href="#m2276cf7d9c" y="429.336"/>
      </g>
     </g>
    </g>
    <g id="xtick_35">
     <g id="line2d_35">
      <g>
       <use style="stroke:#000000;stroke-width:0.6;" x="520.87156" xlink:href="#m2276cf7d9c" y="429.336"/>
      </g>
     </g>
    </g>
    <g id="xtick_36">
     <g id="line2d_36">
      <g>
       <use style="stroke:#000000;stroke-width:0.6;" x="528.402961" xlink:href="#m2276cf7d9c" y="429.336"/>
      </g>
     </g>
    </g>
    <g id="xtick_37">
     <g id="line2d_37">
      <g>
       <use style="stroke:#000000;stroke-width:0.6;" x="534.926957" xlink:href="#m2276cf7d9c" y="429.336"/>
      </g>
     </g>
    </g>
    <g id="xtick_38">
     <g id="line2d_38">
      <g>
       <use style="stroke:#000000;stroke-width:0.6;" x="540.681529" xlink:href="#m2276cf7d9c" y="429.336"/>
      </g>
     </g>
    </g>
    <g id="xtick_39">
     <g id="line2d_39">
      <g>
       <use style="stroke:#000000;stroke-width:0.6;" x="579.694534" xlink:href="#m2276cf7d9c" y="429.336"/>
      </g>
     </g>
    </g>
    <g id="xtick_40">
     <g id="line2d_40">
      <g>
       <use style="stroke:#000000;stroke-width:0.6;" x="599.504503" xlink:href="#m2276cf7d9c" y="429.336"/>
      </g>
     </g>
    </g>
    <g id="xtick_41">
     <g id="line2d_41">
      <g>
       <use style="stroke:#000000;stroke-width:0.6;" x="613.559899" xlink:href="#m2276cf7d9c" y="429.336"/>
      </g>
     </g>
    </g>
    <g id="xtick_42">
     <g id="line2d_42">
      <g>
       <use style="stroke:#000000;stroke-width:0.6;" x="624.462112" xlink:href="#m2276cf7d9c" y="429.336"/>
      </g>
     </g>
    </g>
    <g id="xtick_43">
     <g id="line2d_43">
      <g>
       <use style="stroke:#000000;stroke-width:0.6;" x="633.369868" xlink:href="#m2276cf7d9c" y="429.336"/>
      </g>
     </g>
    </g>
    <g id="xtick_44">
     <g id="line2d_44">
      <g>
       <use style="stroke:#000000;stroke-width:0.6;" x="640.901269" xlink:href="#m2276cf7d9c" y="429.336"/>
      </g>
     </g>
    </g>
    <g id="xtick_45">
     <g id="line2d_45">
      <g>
       <use style="stroke:#000000;stroke-width:0.6;" x="647.425264" xlink:href="#m2276cf7d9c" y="429.336"/>
      </g>
     </g>
    </g>
    <g id="xtick_46">
     <g id="line2d_46">
      <g>
       <use style="stroke:#000000;stroke-width:0.6;" x="653.179837" xlink:href="#m2276cf7d9c" y="429.336"/>
      </g>
     </g>
    </g>
    <g id="xtick_47">
     <g id="line2d_47">
      <g>
       <use style="stroke:#000000;stroke-width:0.6;" x="692.192842" xlink:href="#m2276cf7d9c" y="429.336"/>
      </g>
     </g>
    </g>
    <g id="xtick_48">
     <g id="line2d_48">
      <g>
       <use style="stroke:#000000;stroke-width:0.6;" x="712.002811" xlink:href="#m2276cf7d9c" y="429.336"/>
      </g>
     </g>
    </g>
    <g id="xtick_49">
     <g id="line2d_49">
      <g>
       <use style="stroke:#000000;stroke-width:0.6;" x="726.058207" xlink:href="#m2276cf7d9c" y="429.336"/>
      </g>
     </g>
    </g>
    <g id="xtick_50">
     <g id="line2d_50">
      <g>
       <use style="stroke:#000000;stroke-width:0.6;" x="736.960419" xlink:href="#m2276cf7d9c" y="429.336"/>
      </g>
     </g>
    </g>
    <g id="xtick_51">
     <g id="line2d_51">
      <g>
       <use style="stroke:#000000;stroke-width:0.6;" x="745.868176" xlink:href="#m2276cf7d9c" y="429.336"/>
      </g>
     </g>
    </g>
    <g id="xtick_52">
     <g id="line2d_52">
      <g>
       <use style="stroke:#000000;stroke-width:0.6;" x="753.399576" xlink:href="#m2276cf7d9c" y="429.336"/>
      </g>
     </g>
    </g>
    <g id="xtick_53">
     <g id="line2d_53">
      <g>
       <use style="stroke:#000000;stroke-width:0.6;" x="759.923572" xlink:href="#m2276cf7d9c" y="429.336"/>
      </g>
     </g>
    </g>
    <g id="xtick_54">
     <g id="line2d_54">
      <g>
       <use style="stroke:#000000;stroke-width:0.6;" x="765.678144" xlink:href="#m2276cf7d9c" y="429.336"/>
      </g>
     </g>
    </g>
    <g id="xtick_55">
     <g id="line2d_55">
      <g>
       <use style="stroke:#000000;stroke-width:0.6;" x="804.691149" xlink:href="#m2276cf7d9c" y="429.336"/>
      </g>
     </g>
    </g>
    <g id="xtick_56">
     <g id="line2d_56">
      <g>
       <use style="stroke:#000000;stroke-width:0.6;" x="824.501118" xlink:href="#m2276cf7d9c" y="429.336"/>
      </g>
     </g>
    </g>
    <g id="xtick_57">
     <g id="line2d_57">
      <g>
       <use style="stroke:#000000;stroke-width:0.6;" x="838.556514" xlink:href="#m2276cf7d9c" y="429.336"/>
      </g>
     </g>
    </g>
    <g id="text_7">
     <!-- Total Cases -->
     <defs>
      <path d="M -0.296875 72.90625 
L 61.375 72.90625 
L 61.375 64.59375 
L 35.5 64.59375 
L 35.5 0 
L 25.59375 0 
L 25.59375 64.59375 
L -0.296875 64.59375 
z
" id="DejaVuSans-84"/>
      <path d="M 30.609375 48.390625 
Q 23.390625 48.390625 19.1875 42.75 
Q 14.984375 37.109375 14.984375 27.296875 
Q 14.984375 17.484375 19.15625 11.84375 
Q 23.34375 6.203125 30.609375 6.203125 
Q 37.796875 6.203125 41.984375 11.859375 
Q 46.1875 17.53125 46.1875 27.296875 
Q 46.1875 37.015625 41.984375 42.703125 
Q 37.796875 48.390625 30.609375 48.390625 
z
M 30.609375 56 
Q 42.328125 56 49.015625 48.375 
Q 55.71875 40.765625 55.71875 27.296875 
Q 55.71875 13.875 49.015625 6.21875 
Q 42.328125 -1.421875 30.609375 -1.421875 
Q 18.84375 -1.421875 12.171875 6.21875 
Q 5.515625 13.875 5.515625 27.296875 
Q 5.515625 40.765625 12.171875 48.375 
Q 18.84375 56 30.609375 56 
z
" id="DejaVuSans-111"/>
      <path d="M 18.3125 70.21875 
L 18.3125 54.6875 
L 36.8125 54.6875 
L 36.8125 47.703125 
L 18.3125 47.703125 
L 18.3125 18.015625 
Q 18.3125 11.328125 20.140625 9.421875 
Q 21.96875 7.515625 27.59375 7.515625 
L 36.8125 7.515625 
L 36.8125 0 
L 27.59375 0 
Q 17.1875 0 13.234375 3.875 
Q 9.28125 7.765625 9.28125 18.015625 
L 9.28125 47.703125 
L 2.6875 47.703125 
L 2.6875 54.6875 
L 9.28125 54.6875 
L 9.28125 70.21875 
z
" id="DejaVuSans-116"/>
      <path d="M 34.28125 27.484375 
Q 23.390625 27.484375 19.1875 25 
Q 14.984375 22.515625 14.984375 16.5 
Q 14.984375 11.71875 18.140625 8.90625 
Q 21.296875 6.109375 26.703125 6.109375 
Q 34.1875 6.109375 38.703125 11.40625 
Q 43.21875 16.703125 43.21875 25.484375 
L 43.21875 27.484375 
z
M 52.203125 31.203125 
L 52.203125 0 
L 43.21875 0 
L 43.21875 8.296875 
Q 40.140625 3.328125 35.546875 0.953125 
Q 30.953125 -1.421875 24.3125 -1.421875 
Q 15.921875 -1.421875 10.953125 3.296875 
Q 6 8.015625 6 15.921875 
Q 6 25.140625 12.171875 29.828125 
Q 18.359375 34.515625 30.609375 34.515625 
L 43.21875 34.515625 
L 43.21875 35.40625 
Q 43.21875 41.609375 39.140625 45 
Q 35.0625 48.390625 27.6875 48.390625 
Q 23 48.390625 18.546875 47.265625 
Q 14.109375 46.140625 10.015625 43.890625 
L 10.015625 52.203125 
Q 14.9375 54.109375 19.578125 55.046875 
Q 24.21875 56 28.609375 56 
Q 40.484375 56 46.34375 49.84375 
Q 52.203125 43.703125 52.203125 31.203125 
z
" id="DejaVuSans-97"/>
      <path d="M 9.421875 75.984375 
L 18.40625 75.984375 
L 18.40625 0 
L 9.421875 0 
z
" id="DejaVuSans-108"/>
      <path id="DejaVuSans-32"/>
      <path d="M 64.40625 67.28125 
L 64.40625 56.890625 
Q 59.421875 61.53125 53.78125 63.8125 
Q 48.140625 66.109375 41.796875 66.109375 
Q 29.296875 66.109375 22.65625 58.46875 
Q 16.015625 50.828125 16.015625 36.375 
Q 16.015625 21.96875 22.65625 14.328125 
Q 29.296875 6.6875 41.796875 6.6875 
Q 48.140625 6.6875 53.78125 8.984375 
Q 59.421875 11.28125 64.40625 15.921875 
L 64.40625 5.609375 
Q 59.234375 2.09375 53.4375 0.328125 
Q 47.65625 -1.421875 41.21875 -1.421875 
Q 24.65625 -1.421875 15.125 8.703125 
Q 5.609375 18.84375 5.609375 36.375 
Q 5.609375 53.953125 15.125 64.078125 
Q 24.65625 74.21875 41.21875 74.21875 
Q 47.75 74.21875 53.53125 72.484375 
Q 59.328125 70.75 64.40625 67.28125 
z
" id="DejaVuSans-67"/>
      <path d="M 44.28125 53.078125 
L 44.28125 44.578125 
Q 40.484375 46.53125 36.375 47.5 
Q 32.28125 48.484375 27.875 48.484375 
Q 21.1875 48.484375 17.84375 46.4375 
Q 14.5 44.390625 14.5 40.28125 
Q 14.5 37.15625 16.890625 35.375 
Q 19.28125 33.59375 26.515625 31.984375 
L 29.59375 31.296875 
Q 39.15625 29.25 43.1875 25.515625 
Q 47.21875 21.78125 47.21875 15.09375 
Q 47.21875 7.46875 41.1875 3.015625 
Q 35.15625 -1.421875 24.609375 -1.421875 
Q 20.21875 -1.421875 15.453125 -0.5625 
Q 10.6875 0.296875 5.421875 2 
L 5.421875 11.28125 
Q 10.40625 8.6875 15.234375 7.390625 
Q 20.0625 6.109375 24.8125 6.109375 
Q 31.15625 6.109375 34.5625 8.28125 
Q 37.984375 10.453125 37.984375 14.40625 
Q 37.984375 18.0625 35.515625 20.015625 
Q 33.0625 21.96875 24.703125 23.78125 
L 21.578125 24.515625 
Q 13.234375 26.265625 9.515625 29.90625 
Q 5.8125 33.546875 5.8125 39.890625 
Q 5.8125 47.609375 11.28125 51.796875 
Q 16.75 56 26.8125 56 
Q 31.78125 56 36.171875 55.265625 
Q 40.578125 54.546875 44.28125 53.078125 
z
" id="DejaVuSans-115"/>
      <path d="M 56.203125 29.59375 
L 56.203125 25.203125 
L 14.890625 25.203125 
Q 15.484375 15.921875 20.484375 11.0625 
Q 25.484375 6.203125 34.421875 6.203125 
Q 39.59375 6.203125 44.453125 7.46875 
Q 49.3125 8.734375 54.109375 11.28125 
L 54.109375 2.78125 
Q 49.265625 0.734375 44.1875 -0.34375 
Q 39.109375 -1.421875 33.890625 -1.421875 
Q 20.796875 -1.421875 13.15625 6.1875 
Q 5.515625 13.8125 5.515625 26.8125 
Q 5.515625 40.234375 12.765625 48.109375 
Q 20.015625 56 32.328125 56 
Q 43.359375 56 49.78125 48.890625 
Q 56.203125 41.796875 56.203125 29.59375 
z
M 47.21875 32.234375 
Q 47.125 39.59375 43.09375 43.984375 
Q 39.0625 48.390625 32.421875 48.390625 
Q 24.90625 48.390625 20.390625 44.140625 
Q 15.875 39.890625 15.1875 32.171875 
z
" id="DejaVuSans-101"/>
     </defs>
     <g transform="translate(449.28025 457.612563)scale(0.1 -0.1)">
      <use xlink:href="#DejaVuSans-84"/>
      <use x="60.818359" xlink:href="#DejaVuSans-111"/>
      <use x="122" xlink:href="#DejaVuSans-116"/>
      <use x="161.208984" xlink:href="#DejaVuSans-97"/>
      <use x="222.488281" xlink:href="#DejaVuSans-108"/>
      <use x="250.271484" xlink:href="#DejaVuSans-32"/>
      <use x="282.058594" xlink:href="#DejaVuSans-67"/>
      <use x="351.882812" xlink:href="#DejaVuSans-97"/>
      <use x="413.162109" xlink:href="#DejaVuSans-115"/>
      <use x="465.261719" xlink:href="#DejaVuSans-101"/>
      <use x="526.785156" xlink:href="#DejaVuSans-115"/>
     </g>
    </g>
   </g>
   <g id="matplotlib.axis_2">
    <g id="ytick_1">
     <g id="line2d_58">
      <defs>
       <path d="M 0 0 
L -3.5 0 
" id="mc39cab3f4c" style="stroke:#000000;stroke-width:0.8;"/>
      </defs>
      <g>
       <use style="stroke:#000000;stroke-width:0.8;" x="116.64" xlink:href="#mc39cab3f4c" y="412.452"/>
      </g>
     </g>
     <g id="text_8">
      <!-- $\mathdefault{10^{0}}$ -->
      <g transform="translate(92.04 416.251219)scale(0.1 -0.1)">
       <use transform="translate(0 0.765625)" xlink:href="#DejaVuSans-49"/>
       <use transform="translate(63.623047 0.765625)" xlink:href="#DejaVuSans-48"/>
       <use transform="translate(128.203125 39.046875)scale(0.7)" xlink:href="#DejaVuSans-48"/>
      </g>
     </g>
    </g>
    <g id="ytick_2">
     <g id="line2d_59">
      <g>
       <use style="stroke:#000000;stroke-width:0.8;" x="116.64" xlink:href="#mc39cab3f4c" y="349.327896"/>
      </g>
     </g>
     <g id="text_9">
      <!-- $\mathdefault{10^{1}}$ -->
      <g transform="translate(92.04 353.127115)scale(0.1 -0.1)">
       <use transform="translate(0 0.684375)" xlink:href="#DejaVuSans-49"/>
       <use transform="translate(63.623047 0.684375)" xlink:href="#DejaVuSans-48"/>
       <use transform="translate(128.203125 38.965625)scale(0.7)" xlink:href="#DejaVuSans-49"/>
      </g>
     </g>
    </g>
    <g id="ytick_3">
     <g id="line2d_60">
      <g>
       <use style="stroke:#000000;stroke-width:0.8;" x="116.64" xlink:href="#mc39cab3f4c" y="286.203792"/>
      </g>
     </g>
     <g id="text_10">
      <!-- $\mathdefault{10^{2}}$ -->
      <g transform="translate(92.04 290.003011)scale(0.1 -0.1)">
       <use transform="translate(0 0.765625)" xlink:href="#DejaVuSans-49"/>
       <use transform="translate(63.623047 0.765625)" xlink:href="#DejaVuSans-48"/>
       <use transform="translate(128.203125 39.046875)scale(0.7)" xlink:href="#DejaVuSans-50"/>
      </g>
     </g>
    </g>
    <g id="ytick_4">
     <g id="line2d_61">
      <g>
       <use style="stroke:#000000;stroke-width:0.8;" x="116.64" xlink:href="#mc39cab3f4c" y="223.079689"/>
      </g>
     </g>
     <g id="text_11">
      <!-- $\mathdefault{10^{3}}$ -->
      <g transform="translate(92.04 226.878907)scale(0.1 -0.1)">
       <use transform="translate(0 0.765625)" xlink:href="#DejaVuSans-49"/>
       <use transform="translate(63.623047 0.765625)" xlink:href="#DejaVuSans-48"/>
       <use transform="translate(128.203125 39.046875)scale(0.7)" xlink:href="#DejaVuSans-51"/>
      </g>
     </g>
    </g>
    <g id="ytick_5">
     <g id="line2d_62">
      <g>
       <use style="stroke:#000000;stroke-width:0.8;" x="116.64" xlink:href="#mc39cab3f4c" y="159.955585"/>
      </g>
     </g>
     <g id="text_12">
      <!-- $\mathdefault{10^{4}}$ -->
      <g transform="translate(92.04 163.754804)scale(0.1 -0.1)">
       <use transform="translate(0 0.684375)" xlink:href="#DejaVuSans-49"/>
       <use transform="translate(63.623047 0.684375)" xlink:href="#DejaVuSans-48"/>
       <use transform="translate(128.203125 38.965625)scale(0.7)" xlink:href="#DejaVuSans-52"/>
      </g>
     </g>
    </g>
    <g id="ytick_6">
     <g id="line2d_63">
      <g>
       <use style="stroke:#000000;stroke-width:0.8;" x="116.64" xlink:href="#mc39cab3f4c" y="96.831481"/>
      </g>
     </g>
     <g id="text_13">
      <!-- $\mathdefault{10^{5}}$ -->
      <g transform="translate(92.04 100.6307)scale(0.1 -0.1)">
       <use transform="translate(0 0.684375)" xlink:href="#DejaVuSans-49"/>
       <use transform="translate(63.623047 0.684375)" xlink:href="#DejaVuSans-48"/>
       <use transform="translate(128.203125 38.965625)scale(0.7)" xlink:href="#DejaVuSans-53"/>
      </g>
     </g>
    </g>
    <g id="ytick_7">
     <g id="line2d_64">
      <defs>
       <path d="M 0 0 
L -2 0 
" id="m88ceae3038" style="stroke:#000000;stroke-width:0.6;"/>
      </defs>
      <g>
       <use style="stroke:#000000;stroke-width:0.6;" x="116.64" xlink:href="#m88ceae3038" y="426.456003"/>
      </g>
     </g>
    </g>
    <g id="ytick_8">
     <g id="line2d_65">
      <g>
       <use style="stroke:#000000;stroke-width:0.6;" x="116.64" xlink:href="#m88ceae3038" y="422.230047"/>
      </g>
     </g>
    </g>
    <g id="ytick_9">
     <g id="line2d_66">
      <g>
       <use style="stroke:#000000;stroke-width:0.6;" x="116.64" xlink:href="#m88ceae3038" y="418.569358"/>
      </g>
     </g>
    </g>
    <g id="ytick_10">
     <g id="line2d_67">
      <g>
       <use style="stroke:#000000;stroke-width:0.6;" x="116.64" xlink:href="#m88ceae3038" y="415.340401"/>
      </g>
     </g>
    </g>
    <g id="ytick_11">
     <g id="line2d_68">
      <g>
       <use style="stroke:#000000;stroke-width:0.6;" x="116.64" xlink:href="#m88ceae3038" y="393.449751"/>
      </g>
     </g>
    </g>
    <g id="ytick_12">
     <g id="line2d_69">
      <g>
       <use style="stroke:#000000;stroke-width:0.6;" x="116.64" xlink:href="#m88ceae3038" y="382.334148"/>
      </g>
     </g>
    </g>
    <g id="ytick_13">
     <g id="line2d_70">
      <g>
       <use style="stroke:#000000;stroke-width:0.6;" x="116.64" xlink:href="#m88ceae3038" y="374.447503"/>
      </g>
     </g>
    </g>
    <g id="ytick_14">
     <g id="line2d_71">
      <g>
       <use style="stroke:#000000;stroke-width:0.6;" x="116.64" xlink:href="#m88ceae3038" y="368.330145"/>
      </g>
     </g>
    </g>
    <g id="ytick_15">
     <g id="line2d_72">
      <g>
       <use style="stroke:#000000;stroke-width:0.6;" x="116.64" xlink:href="#m88ceae3038" y="363.3319"/>
      </g>
     </g>
    </g>
    <g id="ytick_16">
     <g id="line2d_73">
      <g>
       <use style="stroke:#000000;stroke-width:0.6;" x="116.64" xlink:href="#m88ceae3038" y="359.105944"/>
      </g>
     </g>
    </g>
    <g id="ytick_17">
     <g id="line2d_74">
      <g>
       <use style="stroke:#000000;stroke-width:0.6;" x="116.64" xlink:href="#m88ceae3038" y="355.445254"/>
      </g>
     </g>
    </g>
    <g id="ytick_18">
     <g id="line2d_75">
      <g>
       <use style="stroke:#000000;stroke-width:0.6;" x="116.64" xlink:href="#m88ceae3038" y="352.216297"/>
      </g>
     </g>
    </g>
    <g id="ytick_19">
     <g id="line2d_76">
      <g>
       <use style="stroke:#000000;stroke-width:0.6;" x="116.64" xlink:href="#m88ceae3038" y="330.325648"/>
      </g>
     </g>
    </g>
    <g id="ytick_20">
     <g id="line2d_77">
      <g>
       <use style="stroke:#000000;stroke-width:0.6;" x="116.64" xlink:href="#m88ceae3038" y="319.210045"/>
      </g>
     </g>
    </g>
    <g id="ytick_21">
     <g id="line2d_78">
      <g>
       <use style="stroke:#000000;stroke-width:0.6;" x="116.64" xlink:href="#m88ceae3038" y="311.323399"/>
      </g>
     </g>
    </g>
    <g id="ytick_22">
     <g id="line2d_79">
      <g>
       <use style="stroke:#000000;stroke-width:0.6;" x="116.64" xlink:href="#m88ceae3038" y="305.206041"/>
      </g>
     </g>
    </g>
    <g id="ytick_23">
     <g id="line2d_80">
      <g>
       <use style="stroke:#000000;stroke-width:0.6;" x="116.64" xlink:href="#m88ceae3038" y="300.207796"/>
      </g>
     </g>
    </g>
    <g id="ytick_24">
     <g id="line2d_81">
      <g>
       <use style="stroke:#000000;stroke-width:0.6;" x="116.64" xlink:href="#m88ceae3038" y="295.98184"/>
      </g>
     </g>
    </g>
    <g id="ytick_25">
     <g id="line2d_82">
      <g>
       <use style="stroke:#000000;stroke-width:0.6;" x="116.64" xlink:href="#m88ceae3038" y="292.32115"/>
      </g>
     </g>
    </g>
    <g id="ytick_26">
     <g id="line2d_83">
      <g>
       <use style="stroke:#000000;stroke-width:0.6;" x="116.64" xlink:href="#m88ceae3038" y="289.092193"/>
      </g>
     </g>
    </g>
    <g id="ytick_27">
     <g id="line2d_84">
      <g>
       <use style="stroke:#000000;stroke-width:0.6;" x="116.64" xlink:href="#m88ceae3038" y="267.201544"/>
      </g>
     </g>
    </g>
    <g id="ytick_28">
     <g id="line2d_85">
      <g>
       <use style="stroke:#000000;stroke-width:0.6;" x="116.64" xlink:href="#m88ceae3038" y="256.085941"/>
      </g>
     </g>
    </g>
    <g id="ytick_29">
     <g id="line2d_86">
      <g>
       <use style="stroke:#000000;stroke-width:0.6;" x="116.64" xlink:href="#m88ceae3038" y="248.199295"/>
      </g>
     </g>
    </g>
    <g id="ytick_30">
     <g id="line2d_87">
      <g>
       <use style="stroke:#000000;stroke-width:0.6;" x="116.64" xlink:href="#m88ceae3038" y="242.081937"/>
      </g>
     </g>
    </g>
    <g id="ytick_31">
     <g id="line2d_88">
      <g>
       <use style="stroke:#000000;stroke-width:0.6;" x="116.64" xlink:href="#m88ceae3038" y="237.083692"/>
      </g>
     </g>
    </g>
    <g id="ytick_32">
     <g id="line2d_89">
      <g>
       <use style="stroke:#000000;stroke-width:0.6;" x="116.64" xlink:href="#m88ceae3038" y="232.857736"/>
      </g>
     </g>
    </g>
    <g id="ytick_33">
     <g id="line2d_90">
      <g>
       <use style="stroke:#000000;stroke-width:0.6;" x="116.64" xlink:href="#m88ceae3038" y="229.197046"/>
      </g>
     </g>
    </g>
    <g id="ytick_34">
     <g id="line2d_91">
      <g>
       <use style="stroke:#000000;stroke-width:0.6;" x="116.64" xlink:href="#m88ceae3038" y="225.968089"/>
      </g>
     </g>
    </g>
    <g id="ytick_35">
     <g id="line2d_92">
      <g>
       <use style="stroke:#000000;stroke-width:0.6;" x="116.64" xlink:href="#m88ceae3038" y="204.07744"/>
      </g>
     </g>
    </g>
    <g id="ytick_36">
     <g id="line2d_93">
      <g>
       <use style="stroke:#000000;stroke-width:0.6;" x="116.64" xlink:href="#m88ceae3038" y="192.961837"/>
      </g>
     </g>
    </g>
    <g id="ytick_37">
     <g id="line2d_94">
      <g>
       <use style="stroke:#000000;stroke-width:0.6;" x="116.64" xlink:href="#m88ceae3038" y="185.075191"/>
      </g>
     </g>
    </g>
    <g id="ytick_38">
     <g id="line2d_95">
      <g>
       <use style="stroke:#000000;stroke-width:0.6;" x="116.64" xlink:href="#m88ceae3038" y="178.957834"/>
      </g>
     </g>
    </g>
    <g id="ytick_39">
     <g id="line2d_96">
      <g>
       <use style="stroke:#000000;stroke-width:0.6;" x="116.64" xlink:href="#m88ceae3038" y="173.959588"/>
      </g>
     </g>
    </g>
    <g id="ytick_40">
     <g id="line2d_97">
      <g>
       <use style="stroke:#000000;stroke-width:0.6;" x="116.64" xlink:href="#m88ceae3038" y="169.733632"/>
      </g>
     </g>
    </g>
    <g id="ytick_41">
     <g id="line2d_98">
      <g>
       <use style="stroke:#000000;stroke-width:0.6;" x="116.64" xlink:href="#m88ceae3038" y="166.072943"/>
      </g>
     </g>
    </g>
    <g id="ytick_42">
     <g id="line2d_99">
      <g>
       <use style="stroke:#000000;stroke-width:0.6;" x="116.64" xlink:href="#m88ceae3038" y="162.843985"/>
      </g>
     </g>
    </g>
    <g id="ytick_43">
     <g id="line2d_100">
      <g>
       <use style="stroke:#000000;stroke-width:0.6;" x="116.64" xlink:href="#m88ceae3038" y="140.953336"/>
      </g>
     </g>
    </g>
    <g id="ytick_44">
     <g id="line2d_101">
      <g>
       <use style="stroke:#000000;stroke-width:0.6;" x="116.64" xlink:href="#m88ceae3038" y="129.837733"/>
      </g>
     </g>
    </g>
    <g id="ytick_45">
     <g id="line2d_102">
      <g>
       <use style="stroke:#000000;stroke-width:0.6;" x="116.64" xlink:href="#m88ceae3038" y="121.951087"/>
      </g>
     </g>
    </g>
    <g id="ytick_46">
     <g id="line2d_103">
      <g>
       <use style="stroke:#000000;stroke-width:0.6;" x="116.64" xlink:href="#m88ceae3038" y="115.83373"/>
      </g>
     </g>
    </g>
    <g id="ytick_47">
     <g id="line2d_104">
      <g>
       <use style="stroke:#000000;stroke-width:0.6;" x="116.64" xlink:href="#m88ceae3038" y="110.835485"/>
      </g>
     </g>
    </g>
    <g id="ytick_48">
     <g id="line2d_105">
      <g>
       <use style="stroke:#000000;stroke-width:0.6;" x="116.64" xlink:href="#m88ceae3038" y="106.609528"/>
      </g>
     </g>
    </g>
    <g id="ytick_49">
     <g id="line2d_106">
      <g>
       <use style="stroke:#000000;stroke-width:0.6;" x="116.64" xlink:href="#m88ceae3038" y="102.948839"/>
      </g>
     </g>
    </g>
    <g id="ytick_50">
     <g id="line2d_107">
      <g>
       <use style="stroke:#000000;stroke-width:0.6;" x="116.64" xlink:href="#m88ceae3038" y="99.719882"/>
      </g>
     </g>
    </g>
    <g id="ytick_51">
     <g id="line2d_108">
      <g>
       <use style="stroke:#000000;stroke-width:0.6;" x="116.64" xlink:href="#m88ceae3038" y="77.829232"/>
      </g>
     </g>
    </g>
    <g id="ytick_52">
     <g id="line2d_109">
      <g>
       <use style="stroke:#000000;stroke-width:0.6;" x="116.64" xlink:href="#m88ceae3038" y="66.713629"/>
      </g>
     </g>
    </g>
    <g id="ytick_53">
     <g id="line2d_110">
      <g>
       <use style="stroke:#000000;stroke-width:0.6;" x="116.64" xlink:href="#m88ceae3038" y="58.826984"/>
      </g>
     </g>
    </g>
    <g id="text_14">
     <!-- New Cases For Last 7 Days -->
     <defs>
      <path d="M 9.8125 72.90625 
L 23.09375 72.90625 
L 55.421875 11.921875 
L 55.421875 72.90625 
L 64.984375 72.90625 
L 64.984375 0 
L 51.703125 0 
L 19.390625 60.984375 
L 19.390625 0 
L 9.8125 0 
z
" id="DejaVuSans-78"/>
      <path d="M 4.203125 54.6875 
L 13.1875 54.6875 
L 24.421875 12.015625 
L 35.59375 54.6875 
L 46.1875 54.6875 
L 57.421875 12.015625 
L 68.609375 54.6875 
L 77.59375 54.6875 
L 63.28125 0 
L 52.6875 0 
L 40.921875 44.828125 
L 29.109375 0 
L 18.5 0 
z
" id="DejaVuSans-119"/>
      <path d="M 9.8125 72.90625 
L 51.703125 72.90625 
L 51.703125 64.59375 
L 19.671875 64.59375 
L 19.671875 43.109375 
L 48.578125 43.109375 
L 48.578125 34.8125 
L 19.671875 34.8125 
L 19.671875 0 
L 9.8125 0 
z
" id="DejaVuSans-70"/>
      <path d="M 41.109375 46.296875 
Q 39.59375 47.171875 37.8125 47.578125 
Q 36.03125 48 33.890625 48 
Q 26.265625 48 22.1875 43.046875 
Q 18.109375 38.09375 18.109375 28.8125 
L 18.109375 0 
L 9.078125 0 
L 9.078125 54.6875 
L 18.109375 54.6875 
L 18.109375 46.1875 
Q 20.953125 51.171875 25.484375 53.578125 
Q 30.03125 56 36.53125 56 
Q 37.453125 56 38.578125 55.875 
Q 39.703125 55.765625 41.0625 55.515625 
z
" id="DejaVuSans-114"/>
      <path d="M 9.8125 72.90625 
L 19.671875 72.90625 
L 19.671875 8.296875 
L 55.171875 8.296875 
L 55.171875 0 
L 9.8125 0 
z
" id="DejaVuSans-76"/>
      <path d="M 8.203125 72.90625 
L 55.078125 72.90625 
L 55.078125 68.703125 
L 28.609375 0 
L 18.3125 0 
L 43.21875 64.59375 
L 8.203125 64.59375 
z
" id="DejaVuSans-55"/>
      <path d="M 19.671875 64.796875 
L 19.671875 8.109375 
L 31.59375 8.109375 
Q 46.6875 8.109375 53.6875 14.9375 
Q 60.6875 21.78125 60.6875 36.53125 
Q 60.6875 51.171875 53.6875 57.984375 
Q 46.6875 64.796875 31.59375 64.796875 
z
M 9.8125 72.90625 
L 30.078125 72.90625 
Q 51.265625 72.90625 61.171875 64.09375 
Q 71.09375 55.28125 71.09375 36.53125 
Q 71.09375 17.671875 61.125 8.828125 
Q 51.171875 0 30.078125 0 
L 9.8125 0 
z
" id="DejaVuSans-68"/>
      <path d="M 32.171875 -5.078125 
Q 28.375 -14.84375 24.75 -17.8125 
Q 21.140625 -20.796875 15.09375 -20.796875 
L 7.90625 -20.796875 
L 7.90625 -13.28125 
L 13.1875 -13.28125 
Q 16.890625 -13.28125 18.9375 -11.515625 
Q 21 -9.765625 23.484375 -3.21875 
L 25.09375 0.875 
L 2.984375 54.6875 
L 12.5 54.6875 
L 29.59375 11.921875 
L 46.6875 54.6875 
L 56.203125 54.6875 
z
" id="DejaVuSans-121"/>
     </defs>
     <g transform="translate(85.960313 311.367469)rotate(-90)scale(0.1 -0.1)">
      <use xlink:href="#DejaVuSans-78"/>
      <use x="74.804688" xlink:href="#DejaVuSans-101"/>
      <use x="136.328125" xlink:href="#DejaVuSans-119"/>
      <use x="218.115234" xlink:href="#DejaVuSans-32"/>
      <use x="249.902344" xlink:href="#DejaVuSans-67"/>
      <use x="319.726562" xlink:href="#DejaVuSans-97"/>
      <use x="381.005859" xlink:href="#DejaVuSans-115"/>
      <use x="433.105469" xlink:href="#DejaVuSans-101"/>
      <use x="494.628906" xlink:href="#DejaVuSans-115"/>
      <use x="546.728516" xlink:href="#DejaVuSans-32"/>
      <use x="578.515625" xlink:href="#DejaVuSans-70"/>
      <use x="635.988281" xlink:href="#DejaVuSans-111"/>
      <use x="697.169922" xlink:href="#DejaVuSans-114"/>
      <use x="738.283203" xlink:href="#DejaVuSans-32"/>
      <use x="770.070312" xlink:href="#DejaVuSans-76"/>
      <use x="825.783203" xlink:href="#DejaVuSans-97"/>
      <use x="887.0625" xlink:href="#DejaVuSans-115"/>
      <use x="939.162109" xlink:href="#DejaVuSans-116"/>
      <use x="978.371094" xlink:href="#DejaVuSans-32"/>
      <use x="1010.158203" xlink:href="#DejaVuSans-55"/>
      <use x="1073.78125" xlink:href="#DejaVuSans-32"/>
      <use x="1105.568359" xlink:href="#DejaVuSans-68"/>
      <use x="1182.570312" xlink:href="#DejaVuSans-97"/>
      <use x="1243.849609" xlink:href="#DejaVuSans-121"/>
      <use x="1303.029297" xlink:href="#DejaVuSans-115"/>
     </g>
    </g>
   </g>
   <g id="line2d_111">
    <path clip-path="url(#p466a786b21)" d="M 295.053793 300.668554 
L 295.053793 483.4 
M 298.253177 483.4 
L 298.258706 374.447503 
L 309.930342 328.988092 
L 358.458035 273.837802 
L 362.577061 270.706025 
L 386.822633 253.723427 
L 401.94223 243.953764 
L 410.211115 238.779972 
L 427.19617 228.553565 
L 447.006138 217.116283 
L 466.902199 207.395639 
L 483.197198 197.524923 
L 520.822679 176.504925 
L 533.274827 169.302328 
L 544.411477 163.360558 
L 553.953023 158.654606 
L 572.356957 149.890644 
L 580.776863 147.20811 
L 589.249418 143.349673 
L 596.215633 140.527623 
L 601.431685 138.979632 
L 606.509607 137.342037 
L 610.056294 137.321618 
L 613.810869 137.1278 
L 616.746661 138.033153 
L 619.01389 140.405083 
L 633.259815 128.22481 
L 636.539081 127.379812 
L 639.889996 128.64503 
L 641.330717 129.463803 
L 642.62113 130.010071 
L 643.786311 130.266913 
L 644.044855 149.232058 
L 644.624534 156.071693 
L 645.568027 164.57269 
L 645.706126 171.280333 
L 646.030828 177.667315 
L 646.287795 185.762237 
L 646.561447 185.447807 
L 647.029755 193.090071 
L 647.507032 193.891229 
L 647.892058 213.602099 
L 648.044258 273.148094 
L 648.110547 267.477068 
L 648.36462 242.635783 
L 648.599496 234.263914 
L 648.666822 232.35328 
L 648.807133 234.305169 
L 648.866466 234.387868 
L 648.944675 237.965859 
L 649.045805 244.547174 
L 649.096587 242.691788 
L 649.179731 244.367798 
L 649.226254 243.372928 
L 649.401933 236.856185 
L 649.430664 238.58623 
L 649.459963 240.381271 
L 649.665732 228.220861 
L 649.694308 232.623756 
L 649.795063 334.781015 
L 649.941458 304.663163 
L 650.003485 276.207302 
L 650.003485 276.207302 
" style="fill:none;stroke:#1f77b4;stroke-linecap:square;stroke-width:1.5;"/>
   </g>
   <g id="line2d_112">
    <path clip-path="url(#p466a786b21)" d="M 255.018046 323.133076 
L 265.162764 320.139437 
L 276.064977 314.984089 
L 298.258706 301.137188 
L 317.809483 290.338519 
L 328.083969 285.128578 
L 340.642523 278.801147 
L 358.003544 268.897824 
L 374.181081 259.38352 
L 381.194471 255.72283 
L 392.54907 250.262575 
L 401.569271 246.34447 
L 415.484071 238.10778 
L 428.399884 230.820513 
L 433.085962 229.855996 
L 440.792416 226.992178 
L 443.682784 226.212863 
L 449.56018 224.198801 
L 457.915736 219.680681 
L 468.687804 214.489376 
L 473.576493 214.349455 
L 481.184398 209.053762 
L 484.138804 209.119583 
L 487.038756 207.488622 
L 491.781101 205.282357 
L 495.764437 204.983209 
L 499.295619 207.026829 
L 503.328886 205.32536 
L 506.511213 206.82911 
L 507.751725 207.613092 
L 510.192766 206.662915 
L 512.129638 208.388055 
L 514.921167 208.164392 
L 517.229537 208.355991 
L 518.639024 211.207031 
L 520.066967 213.274241 
L 520.798219 213.777272 
L 521.349645 217.248934 
L 522.006426 219.875111 
L 523.278581 223.327536 
L 524.276018 227.087202 
L 525.149167 228.620593 
L 525.926283 230.893327 
L 526.893212 229.334462 
L 527.798995 227.374267 
L 528.688291 225.968089 
L 529.343087 228.088902 
L 529.69782 230.784178 
L 530.272182 231.933566 
L 530.800014 232.936175 
L 531.144361 236.31775 
L 531.440408 240.227113 
L 531.799823 244.189589 
L 532.285713 245.400137 
L 532.945222 242.412901 
L 533.293775 244.130442 
L 533.407309 247.994454 
L 533.570838 249.822761 
L 533.808862 250.336568 
L 534.287646 248.753141 
L 534.767912 248.544135 
L 535.115913 251.938424 
L 535.394961 252.654662 
L 535.503721 252.654662 
L 535.672423 252.493873 
L 535.990167 251.317107 
L 536.258336 253.891614 
L 536.542771 256.546699 
L 537.024881 254.316653 
L 537.345603 253.556265 
L 537.629574 251.087696 
L 537.745008 251.703777 
L 538.380756 247.522361 
L 538.72664 246.472876 
L 539.142977 244.848766 
L 539.327503 247.994454 
L 539.655686 247.723692 
L 540.080704 245.89973 
L 540.44754 243.08706 
L 540.703239 246.992596 
L 540.952208 247.994454 
L 541.146172 250.709559 
L 541.435682 249.175995 
L 541.734114 249.389893 
L 541.91442 252.654662 
L 542.141504 254.661493 
L 542.29406 256.269316 
L 542.618626 254.835554 
L 543.003209 251.703777 
L 543.292246 251.548454 
L 543.472029 253.224968 
L 543.666476 252.897628 
L 543.977006 251.471121 
L 544.325899 248.544135 
L 544.597218 249.105064 
L 544.961622 249.175995 
L 545.268996 248.753141 
L 545.525311 247.589307 
L 545.785178 246.601885 
L 545.946287 248.474819 
" style="fill:none;stroke:#ff7f0e;stroke-linecap:square;stroke-width:1.5;"/>
   </g>
   <g id="line2d_113">
    <path clip-path="url(#p466a786b21)" d="M 149.511273 382.334148 
L 149.511273 483.4 
M 234.067196 483.4 
L 234.25936 340.103695 
L 309.315775 293.727328 
L 334.396917 279.222916 
L 388.563284 248.405678 
L 412.283931 235.016186 
L 427.527408 226.865989 
L 439.215547 221.768255 
L 458.938812 210.941642 
L 468.067839 206.859436 
L 478.13751 201.714926 
L 488.434547 195.962154 
L 499.295619 191.124098 
L 508.27087 186.859104 
L 519.90943 180.335169 
L 530.952621 175.433182 
L 541.606438 169.206117 
L 546.551774 167.310105 
L 556.582629 161.730722 
L 573.615205 152.712448 
L 582.442203 148.34373 
L 588.561559 146.053203 
L 596.09878 142.637953 
L 601.897569 139.153652 
L 608.021196 136.824285 
L 614.808006 133.843131 
L 621.460866 130.42797 
L 627.838917 127.710126 
L 632.662859 125.488299 
L 636.467292 124.879878 
L 640.322735 123.596378 
L 643.870455 122.87599 
L 647.753337 122.293152 
L 651.240766 122.311895 
L 657.185131 122.96261 
L 659.169804 123.493231 
L 661.078379 124.374365 
L 663.238368 124.696696 
L 669.085641 127.931715 
L 670.748934 128.710727 
L 672.093884 129.109139 
L 673.201424 130.026628 
L 674.564505 130.911193 
L 676.015931 131.35572 
L 677.341792 131.975006 
L 678.871603 132.084884 
L 680.167223 132.307969 
L 681.142612 132.757628 
L 682.044516 132.825819 
L 682.839927 134.043745 
L 684.947153 134.993239 
L 686.765372 137.591892 
L 687.377386 138.70171 
L 688.107615 139.010261 
L 688.994558 138.126962 
L 689.679842 139.574038 
L 690.450672 140.196282 
L 691.043744 141.751642 
L 692.559117 144.538935 
L 693.062294 146.622047 
L 693.50948 147.958759 
L 693.974521 149.894442 
L 694.420008 150.776459 
L 695.602692 157.678717 
L 695.920828 158.893554 
L 696.220262 160.629984 
L 696.808125 166.501194 
L 697.118753 165.38598 
L 697.704697 170.934457 
L 698.041781 172.340635 
L 698.735339 180.231588 
L 699.054798 183.271657 
L 699.262599 186.662323 
L 699.387785 187.020496 
L 699.496456 188.039849 
L 699.829382 195.880715 
L 699.86635 200.473351 
L 699.974379 200.449324 
L 700.071568 204.366814 
L 700.129746 202.989049 
L 700.188478 203.454049 
L 700.230357 205.096786 
L 700.308834 202.363894 
L 700.342547 207.364715 
L 700.414032 206.214713 
L 700.483764 204.201083 
L 700.483764 204.201083 
" style="fill:none;stroke:#2ca02c;stroke-linecap:square;stroke-width:1.5;"/>
   </g>
   <g id="line2d_114">
    <path clip-path="url(#p466a786b21)" d="M 262.00958 319.210045 
L 280.721584 309.340768 
L 296.682524 301.137188 
L 312.314102 292.665991 
L 319.344397 289.092193 
L 324.138179 287.038815 
L 330.946727 285.660914 
L 336.213387 284.348968 
L 349.004381 278.180416 
L 350.888921 280.306632 
L 352.448332 284.348968 
L 355.665424 284.348968 
L 358.458035 283.841278 
L 360.669154 285.393454 
L 373.686736 273.663742 
L 373.686736 281.899621 
L 380.044832 274.906033 
L 380.044832 276.017582 
L 383.821102 273.490779 
L 388.563284 269.487405 
L 391.640069 267.201544 
L 394.317856 274.189275 
L 396.546267 270.706025 
L 397.977339 275.271564 
L 402.679714 267.477068 
L 406.801076 264.83903 
L 414.631885 257.782221 
L 415.9744 258.47131 
L 416.940538 259.486776 
L 417.820875 260.327131 
L 418.75152 260.327131 
L 420.497768 262.780466 
L 424.520723 260.649027 
L 426.132185 269.938063 
L 432.194017 258.371802 
L 435.668069 253.142766 
L 437.496436 251.01165 
L 440.624377 246.92709 
L 441.126771 247.926512 
L 442.197886 250.78477 
L 443.997994 249.533424 
L 447.079941 252.017088 
L 448.353763 255.098735 
L 448.818564 257.588478 
L 449.031605 264.83903 
L 449.102413 266.126329 
L 449.208433 269.338817 
L 449.454921 275.642036 
L 449.630226 295.592976 
L 449.874601 309.340768 
L 450.013697 315.778766 
L 450.048409 320.139437 
L 450.221601 317.440757 
L 450.497437 313.460672 
L 450.771725 312.729576 
L 451.315724 305.759887 
L 451.652673 304.130827 
L 451.652673 306.325154 
L 451.719785 305.759887 
L 451.719785 308.710523 
L 451.987314 308.710523 
L 452.120531 311.323399 
L 452.385881 317.440757 
L 452.485017 324.20829 
L 452.912296 312.729576 
L 452.945009 313.460672 
L 452.9777 312.729576 
L 452.9777 319.210045 
L 453.01037 322.098445 
L 453.20593 324.20829 
L 453.238448 326.494151 
L 453.270943 346.71502 
L 453.433099 338.212293 
L 453.497811 336.443005 
L 453.562437 333.214048 
L 453.626978 331.731825 
L 453.787958 333.214048 
L 453.787958 334.781015 
L 453.82009 334.781015 
L 453.852201 342.135324 
L 453.852201 346.71502 
L 453.852201 352.216297 
L 453.948409 349.327896 
L 453.980436 363.3319 
L 453.980436 363.3319 
L 454.044427 359.105944 
L 454.044427 363.3319 
L 454.108335 355.445254 
L 454.140258 352.216297 
L 454.20404 355.445254 
L 454.458341 338.212293 
L 454.490035 336.443005 
L 454.584996 334.781015 
L 454.679773 330.325648 
" style="fill:none;stroke:#d62728;stroke-linecap:square;stroke-width:1.5;"/>
   </g>
   <g id="line2d_115">
    <path clip-path="url(#p466a786b21)" d="M 174.468882 368.330145 
L 190.908038 363.3319 
L 203.186606 355.445254 
L 208.334247 359.105944 
L 208.334247 359.105944 
L 208.334247 382.334148 
L 212.990854 382.334148 
L 212.990854 382.334148 
L 231.297399 359.105944 
L 234.25936 359.105944 
L 237.051971 355.445254 
L 237.051971 355.445254 
L 237.051971 483.4 
M 242.192279 483.4 
L 242.199612 393.449751 
L 246.856219 374.447503 
L 246.856219 374.447503 
L 251.107368 363.3319 
L 251.107368 363.3319 
L 255.018046 355.445254 
L 262.00958 355.445254 
L 263.611606 352.216297 
L 265.162764 355.445254 
L 268.124725 349.327896 
L 274.828015 342.135324 
L 276.064977 340.103695 
L 276.064977 344.329651 
L 277.271393 346.71502 
L 278.448737 346.71502 
L 280.721584 344.329651 
L 281.819549 346.71502 
L 281.819549 368.330145 
L 284.972733 355.445254 
L 284.972733 359.105944 
L 285.980138 359.105944 
L 289.814056 352.216297 
L 295.053793 340.103695 
L 295.053793 340.103695 
L 301.266264 327.712771 
L 308.062953 320.139437 
L 324.59267 300.207796 
L 324.59267 300.668554 
L 335.494883 291.644216 
L 341.610028 287.900073 
L 345.29913 284.606382 
L 353.460957 279.436259 
L 358.458035 277.176111 
L 362.577061 279.651276 
L 365.989436 276.207302 
L 368.814349 278.592671 
L 371.657764 279.01122 
L 375.475393 276.78447 
L 375.475393 283.34282 
L 377.96548 284.606382 
L 380.479123 285.128578 
L 380.479123 290.021585 
L 382.732313 289.708274 
L 383.821102 292.32115 
L 383.821102 301.613973 
L 385.14883 297.182665 
L 385.540213 303.096197 
L 385.928486 311.323399 
L 386.057228 310.646464 
L 386.057228 324.20829 
L 386.695895 327.712771 
L 387.075127 324.20829 
L 387.948718 331.731825 
L 387.948718 338.212293 
L 387.948718 338.212293 
L 388.318385 342.135324 
L 390.947045 317.440757 
L 391.179147 320.139437 
L 391.525245 319.210045 
L 391.86891 316.597168 
L 391.982929 318.31113 
L 391.982929 412.452 
L 392.3234 382.334148 
L 392.997306 352.216297 
L 392.997306 352.216297 
L 393.219891 346.71502 
L 393.219891 346.71502 
L 393.219891 483.4 
M 393.33068 483.4 
L 393.330805 412.452 
L 393.330805 483.4 
M 393.441343 483.4 
L 393.551879 393.449751 
L 393.551879 483.4 
" style="fill:none;stroke:#9467bd;stroke-linecap:square;stroke-width:1.5;"/>
   </g>
   <g id="line2d_116">
    <path clip-path="url(#p466a786b21)" d="M 174.468882 368.330145 
L 174.468882 374.447503 
L 174.468882 374.447503 
L 183.376638 368.330145 
L 190.908038 368.330145 
L 197.432034 363.3319 
L 212.990854 363.3319 
L 212.990854 363.3319 
L 217.242003 359.105944 
L 217.242003 412.452 
L 221.152681 393.449751 
L 221.152681 393.449751 
L 224.773403 393.449751 
L 228.144215 382.334148 
L 228.144215 382.334148 
L 228.144215 412.452 
L 231.297399 412.452 
L 269.540981 330.325648 
L 269.540981 330.325648 
L 289.814056 312.729576 
L 289.814056 312.729576 
L 295.053793 308.710523 
L 295.874945 308.710523 
L 300.531552 318.31113 
L 302.70335 315.778766 
L 315.139016 303.096197 
L 322.27672 305.206041 
L 331.734767 295.209551 
L 343.48939 286.203792 
L 362.159474 271.177346 
L 380.334788 258.77202 
L 392.436365 250.78477 
L 404.476144 244.071423 
L 419.535346 234.847222 
L 434.537278 225.968089 
L 446.598219 219.176769 
L 458.180866 213.274241 
L 471.271989 206.422962 
L 486.201602 197.763405 
L 498.220099 191.021742 
L 508.533629 185.720104 
L 524.230428 176.837837 
L 563.133081 153.648084 
L 578.767271 144.692465 
L 607.322621 128.559422 
L 620.855518 120.756853 
L 640.335447 110.936648 
L 650.95355 105.936033 
L 660.564911 101.266859 
L 669.098576 97.408275 
L 675.811059 94.76762 
L 682.681403 92.252671 
L 689.588457 88.729044 
L 696.11577 86.171618 
L 702.21557 84.023974 
L 713.956131 79.587995 
L 717.776922 78.57819 
L 722.010414 77.343393 
L 733.523221 75.154992 
L 737.112617 74.772 
L 739.802769 75.502708 
L 742.284984 75.224333 
L 744.429857 75.923469 
L 748.995703 76.81577 
L 751.356456 77.112476 
L 753.550382 77.746566 
L 755.789053 77.134251 
L 757.39739 77.540711 
L 759.16978 77.131177 
L 761.429423 75.779741 
L 762.460005 77.425796 
L 763.975282 78.12678 
L 765.161003 79.473067 
L 767.753467 77.290789 
L 769.131184 76.989233 
L 770.258247 77.733586 
L 771.436721 79.59238 
L 772.737731 78.204627 
L 774.123464 77.739733 
L 775.65004 76.069755 
L 776.929533 78.661994 
L 777.994619 78.929647 
L 779.915399 78.96377 
L 780.884435 79.424499 
L 781.999747 79.650328 
L 783.036464 80.695101 
L 784.001485 81.260292 
L 785.412633 82.72645 
L 786.205333 83.021876 
L 786.940922 83.581845 
L 789.578323 84.231981 
L 790.202492 84.472826 
L 790.915004 83.829984 
L 791.557508 84.186831 
L 792.296152 83.75757 
L 793.832706 84.285011 
L 794.476327 84.854839 
L 795.091722 84.556266 
L 795.655278 85.047147 
L 796.207932 85.236862 
L 796.748972 86.069048 
L 797.37202 86.746987 
L 798.085759 86.522088 
L 798.732956 86.136891 
L 799.276535 86.278491 
L 800.399681 85.604801 
L 800.922278 85.427357 
L 801.476953 85.550066 
L 802.129467 85.578966 
L 802.698245 85.774974 
L 803.262466 85.321763 
L 804.196415 86.078492 
L 804.702483 85.909558 
L 805.258183 85.590607 
L 805.873394 85.506865 
L 806.478622 84.911751 
L 806.936727 85.405844 
L 806.936727 85.405844 
" style="fill:none;stroke:#8c564b;stroke-linecap:square;stroke-width:1.5;"/>
   </g>
   <g id="patch_3">
    <path d="M 116.64 429.336 
L 116.64 57.888 
" style="fill:none;stroke:#000000;stroke-linecap:square;stroke-linejoin:miter;stroke-width:0.8;"/>
   </g>
   <g id="patch_4">
    <path d="M 839.808 429.336 
L 839.808 57.888 
" style="fill:none;stroke:#000000;stroke-linecap:square;stroke-linejoin:miter;stroke-width:0.8;"/>
   </g>
   <g id="patch_5">
    <path d="M 116.64 429.336 
L 839.808 429.336 
" style="fill:none;stroke:#000000;stroke-linecap:square;stroke-linejoin:miter;stroke-width:0.8;"/>
   </g>
   <g id="patch_6">
    <path d="M 116.64 57.888 
L 839.808 57.888 
" style="fill:none;stroke:#000000;stroke-linecap:square;stroke-linejoin:miter;stroke-width:0.8;"/>
   </g>
   <g id="text_15">
    <!-- COVID-19 cases, selected countries, data from ecdc.europa.eu as of 2020-06-15 -->
    <defs>
     <path d="M 39.40625 66.21875 
Q 28.65625 66.21875 22.328125 58.203125 
Q 16.015625 50.203125 16.015625 36.375 
Q 16.015625 22.609375 22.328125 14.59375 
Q 28.65625 6.59375 39.40625 6.59375 
Q 50.140625 6.59375 56.421875 14.59375 
Q 62.703125 22.609375 62.703125 36.375 
Q 62.703125 50.203125 56.421875 58.203125 
Q 50.140625 66.21875 39.40625 66.21875 
z
M 39.40625 74.21875 
Q 54.734375 74.21875 63.90625 63.9375 
Q 73.09375 53.65625 73.09375 36.375 
Q 73.09375 19.140625 63.90625 8.859375 
Q 54.734375 -1.421875 39.40625 -1.421875 
Q 24.03125 -1.421875 14.8125 8.828125 
Q 5.609375 19.09375 5.609375 36.375 
Q 5.609375 53.65625 14.8125 63.9375 
Q 24.03125 74.21875 39.40625 74.21875 
z
" id="DejaVuSans-79"/>
     <path d="M 28.609375 0 
L 0.78125 72.90625 
L 11.078125 72.90625 
L 34.1875 11.53125 
L 57.328125 72.90625 
L 67.578125 72.90625 
L 39.796875 0 
z
" id="DejaVuSans-86"/>
     <path d="M 9.8125 72.90625 
L 19.671875 72.90625 
L 19.671875 0 
L 9.8125 0 
z
" id="DejaVuSans-73"/>
     <path d="M 4.890625 31.390625 
L 31.203125 31.390625 
L 31.203125 23.390625 
L 4.890625 23.390625 
z
" id="DejaVuSans-45"/>
     <path d="M 10.984375 1.515625 
L 10.984375 10.5 
Q 14.703125 8.734375 18.5 7.8125 
Q 22.3125 6.890625 25.984375 6.890625 
Q 35.75 6.890625 40.890625 13.453125 
Q 46.046875 20.015625 46.78125 33.40625 
Q 43.953125 29.203125 39.59375 26.953125 
Q 35.25 24.703125 29.984375 24.703125 
Q 19.046875 24.703125 12.671875 31.3125 
Q 6.296875 37.9375 6.296875 49.421875 
Q 6.296875 60.640625 12.9375 67.421875 
Q 19.578125 74.21875 30.609375 74.21875 
Q 43.265625 74.21875 49.921875 64.515625 
Q 56.59375 54.828125 56.59375 36.375 
Q 56.59375 19.140625 48.40625 8.859375 
Q 40.234375 -1.421875 26.421875 -1.421875 
Q 22.703125 -1.421875 18.890625 -0.6875 
Q 15.09375 0.046875 10.984375 1.515625 
z
M 30.609375 32.421875 
Q 37.25 32.421875 41.125 36.953125 
Q 45.015625 41.5 45.015625 49.421875 
Q 45.015625 57.28125 41.125 61.84375 
Q 37.25 66.40625 30.609375 66.40625 
Q 23.96875 66.40625 20.09375 61.84375 
Q 16.21875 57.28125 16.21875 49.421875 
Q 16.21875 41.5 20.09375 36.953125 
Q 23.96875 32.421875 30.609375 32.421875 
z
" id="DejaVuSans-57"/>
     <path d="M 48.78125 52.59375 
L 48.78125 44.1875 
Q 44.96875 46.296875 41.140625 47.34375 
Q 37.3125 48.390625 33.40625 48.390625 
Q 24.65625 48.390625 19.8125 42.84375 
Q 14.984375 37.3125 14.984375 27.296875 
Q 14.984375 17.28125 19.8125 11.734375 
Q 24.65625 6.203125 33.40625 6.203125 
Q 37.3125 6.203125 41.140625 7.25 
Q 44.96875 8.296875 48.78125 10.40625 
L 48.78125 2.09375 
Q 45.015625 0.34375 40.984375 -0.53125 
Q 36.96875 -1.421875 32.421875 -1.421875 
Q 20.0625 -1.421875 12.78125 6.34375 
Q 5.515625 14.109375 5.515625 27.296875 
Q 5.515625 40.671875 12.859375 48.328125 
Q 20.21875 56 33.015625 56 
Q 37.15625 56 41.109375 55.140625 
Q 45.0625 54.296875 48.78125 52.59375 
z
" id="DejaVuSans-99"/>
     <path d="M 11.71875 12.40625 
L 22.015625 12.40625 
L 22.015625 4 
L 14.015625 -11.625 
L 7.71875 -11.625 
L 11.71875 4 
z
" id="DejaVuSans-44"/>
     <path d="M 45.40625 46.390625 
L 45.40625 75.984375 
L 54.390625 75.984375 
L 54.390625 0 
L 45.40625 0 
L 45.40625 8.203125 
Q 42.578125 3.328125 38.25 0.953125 
Q 33.9375 -1.421875 27.875 -1.421875 
Q 17.96875 -1.421875 11.734375 6.484375 
Q 5.515625 14.40625 5.515625 27.296875 
Q 5.515625 40.1875 11.734375 48.09375 
Q 17.96875 56 27.875 56 
Q 33.9375 56 38.25 53.625 
Q 42.578125 51.265625 45.40625 46.390625 
z
M 14.796875 27.296875 
Q 14.796875 17.390625 18.875 11.75 
Q 22.953125 6.109375 30.078125 6.109375 
Q 37.203125 6.109375 41.296875 11.75 
Q 45.40625 17.390625 45.40625 27.296875 
Q 45.40625 37.203125 41.296875 42.84375 
Q 37.203125 48.484375 30.078125 48.484375 
Q 22.953125 48.484375 18.875 42.84375 
Q 14.796875 37.203125 14.796875 27.296875 
z
" id="DejaVuSans-100"/>
     <path d="M 8.5 21.578125 
L 8.5 54.6875 
L 17.484375 54.6875 
L 17.484375 21.921875 
Q 17.484375 14.15625 20.5 10.265625 
Q 23.53125 6.390625 29.59375 6.390625 
Q 36.859375 6.390625 41.078125 11.03125 
Q 45.3125 15.671875 45.3125 23.6875 
L 45.3125 54.6875 
L 54.296875 54.6875 
L 54.296875 0 
L 45.3125 0 
L 45.3125 8.40625 
Q 42.046875 3.421875 37.71875 1 
Q 33.40625 -1.421875 27.6875 -1.421875 
Q 18.265625 -1.421875 13.375 4.4375 
Q 8.5 10.296875 8.5 21.578125 
z
M 31.109375 56 
z
" id="DejaVuSans-117"/>
     <path d="M 54.890625 33.015625 
L 54.890625 0 
L 45.90625 0 
L 45.90625 32.71875 
Q 45.90625 40.484375 42.875 44.328125 
Q 39.84375 48.1875 33.796875 48.1875 
Q 26.515625 48.1875 22.3125 43.546875 
Q 18.109375 38.921875 18.109375 30.90625 
L 18.109375 0 
L 9.078125 0 
L 9.078125 54.6875 
L 18.109375 54.6875 
L 18.109375 46.1875 
Q 21.34375 51.125 25.703125 53.5625 
Q 30.078125 56 35.796875 56 
Q 45.21875 56 50.046875 50.171875 
Q 54.890625 44.34375 54.890625 33.015625 
z
" id="DejaVuSans-110"/>
     <path d="M 9.421875 54.6875 
L 18.40625 54.6875 
L 18.40625 0 
L 9.421875 0 
z
M 9.421875 75.984375 
L 18.40625 75.984375 
L 18.40625 64.59375 
L 9.421875 64.59375 
z
" id="DejaVuSans-105"/>
     <path d="M 37.109375 75.984375 
L 37.109375 68.5 
L 28.515625 68.5 
Q 23.6875 68.5 21.796875 66.546875 
Q 19.921875 64.59375 19.921875 59.515625 
L 19.921875 54.6875 
L 34.71875 54.6875 
L 34.71875 47.703125 
L 19.921875 47.703125 
L 19.921875 0 
L 10.890625 0 
L 10.890625 47.703125 
L 2.296875 47.703125 
L 2.296875 54.6875 
L 10.890625 54.6875 
L 10.890625 58.5 
Q 10.890625 67.625 15.140625 71.796875 
Q 19.390625 75.984375 28.609375 75.984375 
z
" id="DejaVuSans-102"/>
     <path d="M 52 44.1875 
Q 55.375 50.25 60.0625 53.125 
Q 64.75 56 71.09375 56 
Q 79.640625 56 84.28125 50.015625 
Q 88.921875 44.046875 88.921875 33.015625 
L 88.921875 0 
L 79.890625 0 
L 79.890625 32.71875 
Q 79.890625 40.578125 77.09375 44.375 
Q 74.3125 48.1875 68.609375 48.1875 
Q 61.625 48.1875 57.5625 43.546875 
Q 53.515625 38.921875 53.515625 30.90625 
L 53.515625 0 
L 44.484375 0 
L 44.484375 32.71875 
Q 44.484375 40.625 41.703125 44.40625 
Q 38.921875 48.1875 33.109375 48.1875 
Q 26.21875 48.1875 22.15625 43.53125 
Q 18.109375 38.875 18.109375 30.90625 
L 18.109375 0 
L 9.078125 0 
L 9.078125 54.6875 
L 18.109375 54.6875 
L 18.109375 46.1875 
Q 21.1875 51.21875 25.484375 53.609375 
Q 29.78125 56 35.6875 56 
Q 41.65625 56 45.828125 52.96875 
Q 50 49.953125 52 44.1875 
z
" id="DejaVuSans-109"/>
     <path d="M 10.6875 12.40625 
L 21 12.40625 
L 21 0 
L 10.6875 0 
z
" id="DejaVuSans-46"/>
     <path d="M 18.109375 8.203125 
L 18.109375 -20.796875 
L 9.078125 -20.796875 
L 9.078125 54.6875 
L 18.109375 54.6875 
L 18.109375 46.390625 
Q 20.953125 51.265625 25.265625 53.625 
Q 29.59375 56 35.59375 56 
Q 45.5625 56 51.78125 48.09375 
Q 58.015625 40.1875 58.015625 27.296875 
Q 58.015625 14.40625 51.78125 6.484375 
Q 45.5625 -1.421875 35.59375 -1.421875 
Q 29.59375 -1.421875 25.265625 0.953125 
Q 20.953125 3.328125 18.109375 8.203125 
z
M 48.6875 27.296875 
Q 48.6875 37.203125 44.609375 42.84375 
Q 40.53125 48.484375 33.40625 48.484375 
Q 26.265625 48.484375 22.1875 42.84375 
Q 18.109375 37.203125 18.109375 27.296875 
Q 18.109375 17.390625 22.1875 11.75 
Q 26.265625 6.109375 33.40625 6.109375 
Q 40.53125 6.109375 44.609375 11.75 
Q 48.6875 17.390625 48.6875 27.296875 
z
" id="DejaVuSans-112"/>
    </defs>
    <g transform="translate(236.33025 25.01325)scale(0.12 -0.12)">
     <use xlink:href="#DejaVuSans-67"/>
     <use x="69.824219" xlink:href="#DejaVuSans-79"/>
     <use x="148.519531" xlink:href="#DejaVuSans-86"/>
     <use x="216.927734" xlink:href="#DejaVuSans-73"/>
     <use x="246.419922" xlink:href="#DejaVuSans-68"/>
     <use x="323.421875" xlink:href="#DejaVuSans-45"/>
     <use x="359.505859" xlink:href="#DejaVuSans-49"/>
     <use x="423.128906" xlink:href="#DejaVuSans-57"/>
     <use x="486.751953" xlink:href="#DejaVuSans-32"/>
     <use x="518.539062" xlink:href="#DejaVuSans-99"/>
     <use x="573.519531" xlink:href="#DejaVuSans-97"/>
     <use x="634.798828" xlink:href="#DejaVuSans-115"/>
     <use x="686.898438" xlink:href="#DejaVuSans-101"/>
     <use x="748.421875" xlink:href="#DejaVuSans-115"/>
     <use x="800.521484" xlink:href="#DejaVuSans-44"/>
     <use x="832.308594" xlink:href="#DejaVuSans-32"/>
     <use x="864.095703" xlink:href="#DejaVuSans-115"/>
     <use x="916.195312" xlink:href="#DejaVuSans-101"/>
     <use x="977.71875" xlink:href="#DejaVuSans-108"/>
     <use x="1005.501953" xlink:href="#DejaVuSans-101"/>
     <use x="1067.025391" xlink:href="#DejaVuSans-99"/>
     <use x="1122.005859" xlink:href="#DejaVuSans-116"/>
     <use x="1161.214844" xlink:href="#DejaVuSans-101"/>
     <use x="1222.738281" xlink:href="#DejaVuSans-100"/>
     <use x="1286.214844" xlink:href="#DejaVuSans-32"/>
     <use x="1318.001953" xlink:href="#DejaVuSans-99"/>
     <use x="1372.982422" xlink:href="#DejaVuSans-111"/>
     <use x="1434.164062" xlink:href="#DejaVuSans-117"/>
     <use x="1497.542969" xlink:href="#DejaVuSans-110"/>
     <use x="1560.921875" xlink:href="#DejaVuSans-116"/>
     <use x="1600.130859" xlink:href="#DejaVuSans-114"/>
     <use x="1641.244141" xlink:href="#DejaVuSans-105"/>
     <use x="1669.027344" xlink:href="#DejaVuSans-101"/>
     <use x="1730.550781" xlink:href="#DejaVuSans-115"/>
     <use x="1782.650391" xlink:href="#DejaVuSans-44"/>
     <use x="1814.4375" xlink:href="#DejaVuSans-32"/>
     <use x="1846.224609" xlink:href="#DejaVuSans-100"/>
     <use x="1909.701172" xlink:href="#DejaVuSans-97"/>
     <use x="1970.980469" xlink:href="#DejaVuSans-116"/>
     <use x="2010.189453" xlink:href="#DejaVuSans-97"/>
     <use x="2071.46875" xlink:href="#DejaVuSans-32"/>
     <use x="2103.255859" xlink:href="#DejaVuSans-102"/>
     <use x="2138.460938" xlink:href="#DejaVuSans-114"/>
     <use x="2179.542969" xlink:href="#DejaVuSans-111"/>
     <use x="2240.724609" xlink:href="#DejaVuSans-109"/>
     <use x="2338.136719" xlink:href="#DejaVuSans-32"/>
     <use x="2369.923828" xlink:href="#DejaVuSans-101"/>
     <use x="2431.447266" xlink:href="#DejaVuSans-99"/>
     <use x="2486.427734" xlink:href="#DejaVuSans-100"/>
     <use x="2549.904297" xlink:href="#DejaVuSans-99"/>
     <use x="2604.884766" xlink:href="#DejaVuSans-46"/>
     <use x="2636.671875" xlink:href="#DejaVuSans-101"/>
     <use x="2698.195312" xlink:href="#DejaVuSans-117"/>
     <use x="2761.574219" xlink:href="#DejaVuSans-114"/>
     <use x="2802.65625" xlink:href="#DejaVuSans-111"/>
     <use x="2863.837891" xlink:href="#DejaVuSans-112"/>
     <use x="2927.314453" xlink:href="#DejaVuSans-97"/>
     <use x="2988.59375" xlink:href="#DejaVuSans-46"/>
     <use x="3020.380859" xlink:href="#DejaVuSans-101"/>
     <use x="3081.904297" xlink:href="#DejaVuSans-117"/>
     <use x="3145.283203" xlink:href="#DejaVuSans-32"/>
     <use x="3177.070312" xlink:href="#DejaVuSans-97"/>
     <use x="3238.349609" xlink:href="#DejaVuSans-115"/>
     <use x="3290.449219" xlink:href="#DejaVuSans-32"/>
     <use x="3322.236328" xlink:href="#DejaVuSans-111"/>
     <use x="3383.417969" xlink:href="#DejaVuSans-102"/>
     <use x="3418.623047" xlink:href="#DejaVuSans-32"/>
     <use x="3450.410156" xlink:href="#DejaVuSans-50"/>
     <use x="3514.033203" xlink:href="#DejaVuSans-48"/>
     <use x="3577.65625" xlink:href="#DejaVuSans-50"/>
     <use x="3641.279297" xlink:href="#DejaVuSans-48"/>
     <use x="3704.902344" xlink:href="#DejaVuSans-45"/>
     <use x="3740.986328" xlink:href="#DejaVuSans-48"/>
     <use x="3804.609375" xlink:href="#DejaVuSans-54"/>
     <use x="3868.232422" xlink:href="#DejaVuSans-45"/>
     <use x="3904.316406" xlink:href="#DejaVuSans-49"/>
     <use x="3967.939453" xlink:href="#DejaVuSans-53"/>
    </g>
    <!-- Logarithmic Scale New vs. Total Cases -->
    <defs>
     <path d="M 45.40625 27.984375 
Q 45.40625 37.75 41.375 43.109375 
Q 37.359375 48.484375 30.078125 48.484375 
Q 22.859375 48.484375 18.828125 43.109375 
Q 14.796875 37.75 14.796875 27.984375 
Q 14.796875 18.265625 18.828125 12.890625 
Q 22.859375 7.515625 30.078125 7.515625 
Q 37.359375 7.515625 41.375 12.890625 
Q 45.40625 18.265625 45.40625 27.984375 
z
M 54.390625 6.78125 
Q 54.390625 -7.171875 48.1875 -13.984375 
Q 42 -20.796875 29.203125 -20.796875 
Q 24.46875 -20.796875 20.265625 -20.09375 
Q 16.0625 -19.390625 12.109375 -17.921875 
L 12.109375 -9.1875 
Q 16.0625 -11.328125 19.921875 -12.34375 
Q 23.78125 -13.375 27.78125 -13.375 
Q 36.625 -13.375 41.015625 -8.765625 
Q 45.40625 -4.15625 45.40625 5.171875 
L 45.40625 9.625 
Q 42.625 4.78125 38.28125 2.390625 
Q 33.9375 0 27.875 0 
Q 17.828125 0 11.671875 7.65625 
Q 5.515625 15.328125 5.515625 27.984375 
Q 5.515625 40.671875 11.671875 48.328125 
Q 17.828125 56 27.875 56 
Q 33.9375 56 38.28125 53.609375 
Q 42.625 51.21875 45.40625 46.390625 
L 45.40625 54.6875 
L 54.390625 54.6875 
z
" id="DejaVuSans-103"/>
     <path d="M 54.890625 33.015625 
L 54.890625 0 
L 45.90625 0 
L 45.90625 32.71875 
Q 45.90625 40.484375 42.875 44.328125 
Q 39.84375 48.1875 33.796875 48.1875 
Q 26.515625 48.1875 22.3125 43.546875 
Q 18.109375 38.921875 18.109375 30.90625 
L 18.109375 0 
L 9.078125 0 
L 9.078125 75.984375 
L 18.109375 75.984375 
L 18.109375 46.1875 
Q 21.34375 51.125 25.703125 53.5625 
Q 30.078125 56 35.796875 56 
Q 45.21875 56 50.046875 50.171875 
Q 54.890625 44.34375 54.890625 33.015625 
z
" id="DejaVuSans-104"/>
     <path d="M 53.515625 70.515625 
L 53.515625 60.890625 
Q 47.90625 63.578125 42.921875 64.890625 
Q 37.9375 66.21875 33.296875 66.21875 
Q 25.25 66.21875 20.875 63.09375 
Q 16.5 59.96875 16.5 54.203125 
Q 16.5 49.359375 19.40625 46.890625 
Q 22.3125 44.4375 30.421875 42.921875 
L 36.375 41.703125 
Q 47.40625 39.59375 52.65625 34.296875 
Q 57.90625 29 57.90625 20.125 
Q 57.90625 9.515625 50.796875 4.046875 
Q 43.703125 -1.421875 29.984375 -1.421875 
Q 24.8125 -1.421875 18.96875 -0.25 
Q 13.140625 0.921875 6.890625 3.21875 
L 6.890625 13.375 
Q 12.890625 10.015625 18.65625 8.296875 
Q 24.421875 6.59375 29.984375 6.59375 
Q 38.421875 6.59375 43.015625 9.90625 
Q 47.609375 13.234375 47.609375 19.390625 
Q 47.609375 24.75 44.3125 27.78125 
Q 41.015625 30.8125 33.5 32.328125 
L 27.484375 33.5 
Q 16.453125 35.6875 11.515625 40.375 
Q 6.59375 45.0625 6.59375 53.421875 
Q 6.59375 63.09375 13.40625 68.65625 
Q 20.21875 74.21875 32.171875 74.21875 
Q 37.3125 74.21875 42.625 73.28125 
Q 47.953125 72.359375 53.515625 70.515625 
z
" id="DejaVuSans-83"/>
     <path d="M 2.984375 54.6875 
L 12.5 54.6875 
L 29.59375 8.796875 
L 46.6875 54.6875 
L 56.203125 54.6875 
L 35.6875 0 
L 23.484375 0 
z
" id="DejaVuSans-118"/>
    </defs>
    <g transform="translate(362.451188 38.450625)scale(0.12 -0.12)">
     <use xlink:href="#DejaVuSans-76"/>
     <use x="55.697266" xlink:href="#DejaVuSans-111"/>
     <use x="116.878906" xlink:href="#DejaVuSans-103"/>
     <use x="180.355469" xlink:href="#DejaVuSans-97"/>
     <use x="241.634766" xlink:href="#DejaVuSans-114"/>
     <use x="282.748047" xlink:href="#DejaVuSans-105"/>
     <use x="310.53125" xlink:href="#DejaVuSans-116"/>
     <use x="349.740234" xlink:href="#DejaVuSans-104"/>
     <use x="413.119141" xlink:href="#DejaVuSans-109"/>
     <use x="510.53125" xlink:href="#DejaVuSans-105"/>
     <use x="538.314453" xlink:href="#DejaVuSans-99"/>
     <use x="593.294922" xlink:href="#DejaVuSans-32"/>
     <use x="625.082031" xlink:href="#DejaVuSans-83"/>
     <use x="688.558594" xlink:href="#DejaVuSans-99"/>
     <use x="743.539062" xlink:href="#DejaVuSans-97"/>
     <use x="804.818359" xlink:href="#DejaVuSans-108"/>
     <use x="832.601562" xlink:href="#DejaVuSans-101"/>
     <use x="894.125" xlink:href="#DejaVuSans-32"/>
     <use x="925.912109" xlink:href="#DejaVuSans-78"/>
     <use x="1000.716797" xlink:href="#DejaVuSans-101"/>
     <use x="1062.240234" xlink:href="#DejaVuSans-119"/>
     <use x="1144.027344" xlink:href="#DejaVuSans-32"/>
     <use x="1175.814453" xlink:href="#DejaVuSans-118"/>
     <use x="1234.994141" xlink:href="#DejaVuSans-115"/>
     <use x="1287.09375" xlink:href="#DejaVuSans-46"/>
     <use x="1318.880859" xlink:href="#DejaVuSans-32"/>
     <use x="1350.667969" xlink:href="#DejaVuSans-84"/>
     <use x="1411.486328" xlink:href="#DejaVuSans-111"/>
     <use x="1472.667969" xlink:href="#DejaVuSans-116"/>
     <use x="1511.876953" xlink:href="#DejaVuSans-97"/>
     <use x="1573.15625" xlink:href="#DejaVuSans-108"/>
     <use x="1600.939453" xlink:href="#DejaVuSans-32"/>
     <use x="1632.726562" xlink:href="#DejaVuSans-67"/>
     <use x="1702.550781" xlink:href="#DejaVuSans-97"/>
     <use x="1763.830078" xlink:href="#DejaVuSans-115"/>
     <use x="1815.929688" xlink:href="#DejaVuSans-101"/>
     <use x="1877.453125" xlink:href="#DejaVuSans-115"/>
    </g>
    <!-- https://github.com/PavelDusek/COVID-19 -->
    <defs>
     <path d="M 11.71875 12.40625 
L 22.015625 12.40625 
L 22.015625 0 
L 11.71875 0 
z
M 11.71875 51.703125 
L 22.015625 51.703125 
L 22.015625 39.3125 
L 11.71875 39.3125 
z
" id="DejaVuSans-58"/>
     <path d="M 25.390625 72.90625 
L 33.6875 72.90625 
L 8.296875 -9.28125 
L 0 -9.28125 
z
" id="DejaVuSans-47"/>
     <path d="M 48.6875 27.296875 
Q 48.6875 37.203125 44.609375 42.84375 
Q 40.53125 48.484375 33.40625 48.484375 
Q 26.265625 48.484375 22.1875 42.84375 
Q 18.109375 37.203125 18.109375 27.296875 
Q 18.109375 17.390625 22.1875 11.75 
Q 26.265625 6.109375 33.40625 6.109375 
Q 40.53125 6.109375 44.609375 11.75 
Q 48.6875 17.390625 48.6875 27.296875 
z
M 18.109375 46.390625 
Q 20.953125 51.265625 25.265625 53.625 
Q 29.59375 56 35.59375 56 
Q 45.5625 56 51.78125 48.09375 
Q 58.015625 40.1875 58.015625 27.296875 
Q 58.015625 14.40625 51.78125 6.484375 
Q 45.5625 -1.421875 35.59375 -1.421875 
Q 29.59375 -1.421875 25.265625 0.953125 
Q 20.953125 3.328125 18.109375 8.203125 
L 18.109375 0 
L 9.078125 0 
L 9.078125 75.984375 
L 18.109375 75.984375 
z
" id="DejaVuSans-98"/>
     <path d="M 19.671875 64.796875 
L 19.671875 37.40625 
L 32.078125 37.40625 
Q 38.96875 37.40625 42.71875 40.96875 
Q 46.484375 44.53125 46.484375 51.125 
Q 46.484375 57.671875 42.71875 61.234375 
Q 38.96875 64.796875 32.078125 64.796875 
z
M 9.8125 72.90625 
L 32.078125 72.90625 
Q 44.34375 72.90625 50.609375 67.359375 
Q 56.890625 61.8125 56.890625 51.125 
Q 56.890625 40.328125 50.609375 34.8125 
Q 44.34375 29.296875 32.078125 29.296875 
L 19.671875 29.296875 
L 19.671875 0 
L 9.8125 0 
z
" id="DejaVuSans-80"/>
     <path d="M 9.078125 75.984375 
L 18.109375 75.984375 
L 18.109375 31.109375 
L 44.921875 54.6875 
L 56.390625 54.6875 
L 27.390625 29.109375 
L 57.625 0 
L 45.90625 0 
L 18.109375 26.703125 
L 18.109375 0 
L 9.078125 0 
z
" id="DejaVuSans-107"/>
    </defs>
    <g transform="translate(354.591188 51.888)scale(0.12 -0.12)">
     <use xlink:href="#DejaVuSans-104"/>
     <use x="63.378906" xlink:href="#DejaVuSans-116"/>
     <use x="102.587891" xlink:href="#DejaVuSans-116"/>
     <use x="141.796875" xlink:href="#DejaVuSans-112"/>
     <use x="205.273438" xlink:href="#DejaVuSans-115"/>
     <use x="257.373047" xlink:href="#DejaVuSans-58"/>
     <use x="291.064453" xlink:href="#DejaVuSans-47"/>
     <use x="324.755859" xlink:href="#DejaVuSans-47"/>
     <use x="358.447266" xlink:href="#DejaVuSans-103"/>
     <use x="421.923828" xlink:href="#DejaVuSans-105"/>
     <use x="449.707031" xlink:href="#DejaVuSans-116"/>
     <use x="488.916016" xlink:href="#DejaVuSans-104"/>
     <use x="552.294922" xlink:href="#DejaVuSans-117"/>
     <use x="615.673828" xlink:href="#DejaVuSans-98"/>
     <use x="679.150391" xlink:href="#DejaVuSans-46"/>
     <use x="710.9375" xlink:href="#DejaVuSans-99"/>
     <use x="765.917969" xlink:href="#DejaVuSans-111"/>
     <use x="827.099609" xlink:href="#DejaVuSans-109"/>
     <use x="924.511719" xlink:href="#DejaVuSans-47"/>
     <use x="958.203125" xlink:href="#DejaVuSans-80"/>
     <use x="1018.443359" xlink:href="#DejaVuSans-97"/>
     <use x="1079.722656" xlink:href="#DejaVuSans-118"/>
     <use x="1138.902344" xlink:href="#DejaVuSans-101"/>
     <use x="1200.425781" xlink:href="#DejaVuSans-108"/>
     <use x="1228.208984" xlink:href="#DejaVuSans-68"/>
     <use x="1305.210938" xlink:href="#DejaVuSans-117"/>
     <use x="1368.589844" xlink:href="#DejaVuSans-115"/>
     <use x="1420.689453" xlink:href="#DejaVuSans-101"/>
     <use x="1482.212891" xlink:href="#DejaVuSans-107"/>
     <use x="1540.123047" xlink:href="#DejaVuSans-47"/>
     <use x="1573.814453" xlink:href="#DejaVuSans-67"/>
     <use x="1643.638672" xlink:href="#DejaVuSans-79"/>
     <use x="1722.333984" xlink:href="#DejaVuSans-86"/>
     <use x="1790.742188" xlink:href="#DejaVuSans-73"/>
     <use x="1820.234375" xlink:href="#DejaVuSans-68"/>
     <use x="1897.236328" xlink:href="#DejaVuSans-45"/>
     <use x="1933.320312" xlink:href="#DejaVuSans-49"/>
     <use x="1996.943359" xlink:href="#DejaVuSans-57"/>
    </g>
   </g>
   <g id="legend_1">
    <g id="patch_7">
     <path d="M 123.64 153.95675 
L 280.599375 153.95675 
Q 282.599375 153.95675 282.599375 151.95675 
L 282.599375 64.888 
Q 282.599375 62.888 280.599375 62.888 
L 123.64 62.888 
Q 121.64 62.888 121.64 64.888 
L 121.64 151.95675 
Q 121.64 153.95675 123.64 153.95675 
z
" style="fill:#ffffff;opacity:0.8;stroke:#cccccc;stroke-linejoin:miter;"/>
    </g>
    <g id="line2d_117">
     <path d="M 125.64 70.986437 
L 145.64 70.986437 
" style="fill:none;stroke:#1f77b4;stroke-linecap:square;stroke-width:1.5;"/>
    </g>
    <g id="line2d_118"/>
    <g id="text_16">
     <!-- China -->
     <g transform="translate(153.64 74.486437)scale(0.1 -0.1)">
      <use xlink:href="#DejaVuSans-67"/>
      <use x="69.824219" xlink:href="#DejaVuSans-104"/>
      <use x="133.203125" xlink:href="#DejaVuSans-105"/>
      <use x="160.986328" xlink:href="#DejaVuSans-110"/>
      <use x="224.365234" xlink:href="#DejaVuSans-97"/>
     </g>
    </g>
    <g id="line2d_119">
     <path d="M 125.64 85.664562 
L 145.64 85.664562 
" style="fill:none;stroke:#ff7f0e;stroke-linecap:square;stroke-width:1.5;"/>
    </g>
    <g id="line2d_120"/>
    <g id="text_17">
     <!-- Czech Republic -->
     <defs>
      <path d="M 5.515625 54.6875 
L 48.1875 54.6875 
L 48.1875 46.484375 
L 14.40625 7.171875 
L 48.1875 7.171875 
L 48.1875 0 
L 4.296875 0 
L 4.296875 8.203125 
L 38.09375 47.515625 
L 5.515625 47.515625 
z
" id="DejaVuSans-122"/>
      <path d="M 44.390625 34.1875 
Q 47.5625 33.109375 50.5625 29.59375 
Q 53.5625 26.078125 56.59375 19.921875 
L 66.609375 0 
L 56 0 
L 46.6875 18.703125 
Q 43.0625 26.03125 39.671875 28.421875 
Q 36.28125 30.8125 30.421875 30.8125 
L 19.671875 30.8125 
L 19.671875 0 
L 9.8125 0 
L 9.8125 72.90625 
L 32.078125 72.90625 
Q 44.578125 72.90625 50.734375 67.671875 
Q 56.890625 62.453125 56.890625 51.90625 
Q 56.890625 45.015625 53.6875 40.46875 
Q 50.484375 35.9375 44.390625 34.1875 
z
M 19.671875 64.796875 
L 19.671875 38.921875 
L 32.078125 38.921875 
Q 39.203125 38.921875 42.84375 42.21875 
Q 46.484375 45.515625 46.484375 51.90625 
Q 46.484375 58.296875 42.84375 61.546875 
Q 39.203125 64.796875 32.078125 64.796875 
z
" id="DejaVuSans-82"/>
     </defs>
     <g transform="translate(153.64 89.164562)scale(0.1 -0.1)">
      <use xlink:href="#DejaVuSans-67"/>
      <use x="69.824219" xlink:href="#DejaVuSans-122"/>
      <use x="122.314453" xlink:href="#DejaVuSans-101"/>
      <use x="183.837891" xlink:href="#DejaVuSans-99"/>
      <use x="238.818359" xlink:href="#DejaVuSans-104"/>
      <use x="302.197266" xlink:href="#DejaVuSans-32"/>
      <use x="333.984375" xlink:href="#DejaVuSans-82"/>
      <use x="403.404297" xlink:href="#DejaVuSans-101"/>
      <use x="464.927734" xlink:href="#DejaVuSans-112"/>
      <use x="528.404297" xlink:href="#DejaVuSans-117"/>
      <use x="591.783203" xlink:href="#DejaVuSans-98"/>
      <use x="655.259766" xlink:href="#DejaVuSans-108"/>
      <use x="683.042969" xlink:href="#DejaVuSans-105"/>
      <use x="710.826172" xlink:href="#DejaVuSans-99"/>
     </g>
    </g>
    <g id="line2d_121">
     <path d="M 125.64 100.342687 
L 145.64 100.342687 
" style="fill:none;stroke:#2ca02c;stroke-linecap:square;stroke-width:1.5;"/>
    </g>
    <g id="line2d_122"/>
    <g id="text_18">
     <!-- Italy -->
     <g transform="translate(153.64 103.842687)scale(0.1 -0.1)">
      <use xlink:href="#DejaVuSans-73"/>
      <use x="29.492188" xlink:href="#DejaVuSans-116"/>
      <use x="68.701172" xlink:href="#DejaVuSans-97"/>
      <use x="129.980469" xlink:href="#DejaVuSans-108"/>
      <use x="157.763672" xlink:href="#DejaVuSans-121"/>
     </g>
    </g>
    <g id="line2d_123">
     <path d="M 125.64 115.020812 
L 145.64 115.020812 
" style="fill:none;stroke:#d62728;stroke-linecap:square;stroke-width:1.5;"/>
    </g>
    <g id="line2d_124"/>
    <g id="text_19">
     <!-- Slovakia -->
     <g transform="translate(153.64 118.520812)scale(0.1 -0.1)">
      <use xlink:href="#DejaVuSans-83"/>
      <use x="63.476562" xlink:href="#DejaVuSans-108"/>
      <use x="91.259766" xlink:href="#DejaVuSans-111"/>
      <use x="152.441406" xlink:href="#DejaVuSans-118"/>
      <use x="211.621094" xlink:href="#DejaVuSans-97"/>
      <use x="272.900391" xlink:href="#DejaVuSans-107"/>
      <use x="330.810547" xlink:href="#DejaVuSans-105"/>
      <use x="358.59375" xlink:href="#DejaVuSans-97"/>
     </g>
    </g>
    <g id="line2d_125">
     <path d="M 125.64 129.698937 
L 145.64 129.698937 
" style="fill:none;stroke:#9467bd;stroke-linecap:square;stroke-width:1.5;"/>
    </g>
    <g id="line2d_126"/>
    <g id="text_20">
     <!-- Taiwan -->
     <g transform="translate(153.64 133.198937)scale(0.1 -0.1)">
      <use xlink:href="#DejaVuSans-84"/>
      <use x="60.833984" xlink:href="#DejaVuSans-97"/>
      <use x="122.113281" xlink:href="#DejaVuSans-105"/>
      <use x="149.896484" xlink:href="#DejaVuSans-119"/>
      <use x="231.683594" xlink:href="#DejaVuSans-97"/>
      <use x="292.962891" xlink:href="#DejaVuSans-110"/>
     </g>
    </g>
    <g id="line2d_127">
     <path d="M 125.64 144.377062 
L 145.64 144.377062 
" style="fill:none;stroke:#8c564b;stroke-linecap:square;stroke-width:1.5;"/>
    </g>
    <g id="line2d_128"/>
    <g id="text_21">
     <!-- United States of America -->
     <defs>
      <path d="M 8.6875 72.90625 
L 18.609375 72.90625 
L 18.609375 28.609375 
Q 18.609375 16.890625 22.84375 11.734375 
Q 27.09375 6.59375 36.625 6.59375 
Q 46.09375 6.59375 50.34375 11.734375 
Q 54.59375 16.890625 54.59375 28.609375 
L 54.59375 72.90625 
L 64.5 72.90625 
L 64.5 27.390625 
Q 64.5 13.140625 57.4375 5.859375 
Q 50.390625 -1.421875 36.625 -1.421875 
Q 22.796875 -1.421875 15.734375 5.859375 
Q 8.6875 13.140625 8.6875 27.390625 
z
" id="DejaVuSans-85"/>
      <path d="M 34.1875 63.1875 
L 20.796875 26.90625 
L 47.609375 26.90625 
z
M 28.609375 72.90625 
L 39.796875 72.90625 
L 67.578125 0 
L 57.328125 0 
L 50.6875 18.703125 
L 17.828125 18.703125 
L 11.1875 0 
L 0.78125 0 
z
" id="DejaVuSans-65"/>
     </defs>
     <g transform="translate(153.64 147.877062)scale(0.1 -0.1)">
      <use xlink:href="#DejaVuSans-85"/>
      <use x="73.193359" xlink:href="#DejaVuSans-110"/>
      <use x="136.572266" xlink:href="#DejaVuSans-105"/>
      <use x="164.355469" xlink:href="#DejaVuSans-116"/>
      <use x="203.564453" xlink:href="#DejaVuSans-101"/>
      <use x="265.087891" xlink:href="#DejaVuSans-100"/>
      <use x="328.564453" xlink:href="#DejaVuSans-32"/>
      <use x="360.351562" xlink:href="#DejaVuSans-83"/>
      <use x="423.828125" xlink:href="#DejaVuSans-116"/>
      <use x="463.037109" xlink:href="#DejaVuSans-97"/>
      <use x="524.316406" xlink:href="#DejaVuSans-116"/>
      <use x="563.525391" xlink:href="#DejaVuSans-101"/>
      <use x="625.048828" xlink:href="#DejaVuSans-115"/>
      <use x="677.148438" xlink:href="#DejaVuSans-32"/>
      <use x="708.935547" xlink:href="#DejaVuSans-111"/>
      <use x="770.117188" xlink:href="#DejaVuSans-102"/>
      <use x="805.322266" xlink:href="#DejaVuSans-32"/>
      <use x="837.109375" xlink:href="#DejaVuSans-65"/>
      <use x="905.517578" xlink:href="#DejaVuSans-109"/>
      <use x="1002.929688" xlink:href="#DejaVuSans-101"/>
      <use x="1064.453125" xlink:href="#DejaVuSans-114"/>
      <use x="1105.566406" xlink:href="#DejaVuSans-105"/>
      <use x="1133.349609" xlink:href="#DejaVuSans-99"/>
      <use x="1188.330078" xlink:href="#DejaVuSans-97"/>
     </g>
    </g>
   </g>
  </g>
 </g>
 <defs>
  <clipPath id="p466a786b21">
   <rect height="371.448" width="723.168" x="116.64" y="57.888"/>
  </clipPath>
 </defs>
</svg>
