<?xml version="1.0" encoding="utf-8" standalone="no"?>
<!DOCTYPE svg PUBLIC "-//W3C//DTD SVG 1.1//EN"
  "http://www.w3.org/Graphics/SVG/1.1/DTD/svg11.dtd">
<!-- Created with matplotlib (https://matplotlib.org/) -->
<svg height="482.4pt" version="1.1" viewBox="0 0 933.12 482.4" width="933.12pt" xmlns="http://www.w3.org/2000/svg" xmlns:xlink="http://www.w3.org/1999/xlink">
 <defs>
  <style type="text/css">
*{stroke-linecap:butt;stroke-linejoin:round;}
  </style>
 </defs>
 <g id="figure_1">
  <g id="patch_1">
   <path d="M 0 482.4 
L 933.12 482.4 
L 933.12 0 
L 0 0 
z
" style="fill:#ffffff;"/>
  </g>
  <g id="axes_1">
   <g id="patch_2">
    <path d="M 116.64 226.728 
L 839.808 226.728 
L 839.808 57.888 
L 116.64 57.888 
z
" style="fill:#ffffff;"/>
   </g>
   <g id="matplotlib.axis_1">
    <g id="xtick_1">
     <g id="line2d_1">
      <defs>
       <path d="M 0 0 
L 0 3.5 
" id="mdb6cf3ed12" style="stroke:#000000;stroke-width:0.8;"/>
      </defs>
      <g>
       <use style="stroke:#000000;stroke-width:0.8;" x="149.511273" xlink:href="#mdb6cf3ed12" y="226.728"/>
      </g>
     </g>
     <g id="text_1">
      <!-- 0 -->
      <defs>
       <path d="M 31.78125 66.40625 
Q 24.171875 66.40625 20.328125 58.90625 
Q 16.5 51.421875 16.5 36.375 
Q 16.5 21.390625 20.328125 13.890625 
Q 24.171875 6.390625 31.78125 6.390625 
Q 39.453125 6.390625 43.28125 13.890625 
Q 47.125 21.390625 47.125 36.375 
Q 47.125 51.421875 43.28125 58.90625 
Q 39.453125 66.40625 31.78125 66.40625 
z
M 31.78125 74.21875 
Q 44.046875 74.21875 50.515625 64.515625 
Q 56.984375 54.828125 56.984375 36.375 
Q 56.984375 17.96875 50.515625 8.265625 
Q 44.046875 -1.421875 31.78125 -1.421875 
Q 19.53125 -1.421875 13.0625 8.265625 
Q 6.59375 17.96875 6.59375 36.375 
Q 6.59375 54.828125 13.0625 64.515625 
Q 19.53125 74.21875 31.78125 74.21875 
z
" id="DejaVuSans-48"/>
      </defs>
      <g transform="translate(146.330023 241.326437)scale(0.1 -0.1)">
       <use xlink:href="#DejaVuSans-48"/>
      </g>
     </g>
    </g>
    <g id="xtick_2">
     <g id="line2d_2">
      <g>
       <use style="stroke:#000000;stroke-width:0.8;" x="306.041143" xlink:href="#mdb6cf3ed12" y="226.728"/>
      </g>
     </g>
     <g id="text_2">
      <!-- 20 -->
      <defs>
       <path d="M 19.1875 8.296875 
L 53.609375 8.296875 
L 53.609375 0 
L 7.328125 0 
L 7.328125 8.296875 
Q 12.9375 14.109375 22.625 23.890625 
Q 32.328125 33.6875 34.8125 36.53125 
Q 39.546875 41.84375 41.421875 45.53125 
Q 43.3125 49.21875 43.3125 52.78125 
Q 43.3125 58.59375 39.234375 62.25 
Q 35.15625 65.921875 28.609375 65.921875 
Q 23.96875 65.921875 18.8125 64.3125 
Q 13.671875 62.703125 7.8125 59.421875 
L 7.8125 69.390625 
Q 13.765625 71.78125 18.9375 73 
Q 24.125 74.21875 28.421875 74.21875 
Q 39.75 74.21875 46.484375 68.546875 
Q 53.21875 62.890625 53.21875 53.421875 
Q 53.21875 48.921875 51.53125 44.890625 
Q 49.859375 40.875 45.40625 35.40625 
Q 44.1875 33.984375 37.640625 27.21875 
Q 31.109375 20.453125 19.1875 8.296875 
z
" id="DejaVuSans-50"/>
      </defs>
      <g transform="translate(299.678643 241.326437)scale(0.1 -0.1)">
       <use xlink:href="#DejaVuSans-50"/>
       <use x="63.623047" xlink:href="#DejaVuSans-48"/>
      </g>
     </g>
    </g>
    <g id="xtick_3">
     <g id="line2d_3">
      <g>
       <use style="stroke:#000000;stroke-width:0.8;" x="462.571013" xlink:href="#mdb6cf3ed12" y="226.728"/>
      </g>
     </g>
     <g id="text_3">
      <!-- 40 -->
      <defs>
       <path d="M 37.796875 64.3125 
L 12.890625 25.390625 
L 37.796875 25.390625 
z
M 35.203125 72.90625 
L 47.609375 72.90625 
L 47.609375 25.390625 
L 58.015625 25.390625 
L 58.015625 17.1875 
L 47.609375 17.1875 
L 47.609375 0 
L 37.796875 0 
L 37.796875 17.1875 
L 4.890625 17.1875 
L 4.890625 26.703125 
z
" id="DejaVuSans-52"/>
      </defs>
      <g transform="translate(456.208513 241.326437)scale(0.1 -0.1)">
       <use xlink:href="#DejaVuSans-52"/>
       <use x="63.623047" xlink:href="#DejaVuSans-48"/>
      </g>
     </g>
    </g>
    <g id="xtick_4">
     <g id="line2d_4">
      <g>
       <use style="stroke:#000000;stroke-width:0.8;" x="619.100883" xlink:href="#mdb6cf3ed12" y="226.728"/>
      </g>
     </g>
     <g id="text_4">
      <!-- 60 -->
      <defs>
       <path d="M 33.015625 40.375 
Q 26.375 40.375 22.484375 35.828125 
Q 18.609375 31.296875 18.609375 23.390625 
Q 18.609375 15.53125 22.484375 10.953125 
Q 26.375 6.390625 33.015625 6.390625 
Q 39.65625 6.390625 43.53125 10.953125 
Q 47.40625 15.53125 47.40625 23.390625 
Q 47.40625 31.296875 43.53125 35.828125 
Q 39.65625 40.375 33.015625 40.375 
z
M 52.59375 71.296875 
L 52.59375 62.3125 
Q 48.875 64.0625 45.09375 64.984375 
Q 41.3125 65.921875 37.59375 65.921875 
Q 27.828125 65.921875 22.671875 59.328125 
Q 17.53125 52.734375 16.796875 39.40625 
Q 19.671875 43.65625 24.015625 45.921875 
Q 28.375 48.1875 33.59375 48.1875 
Q 44.578125 48.1875 50.953125 41.515625 
Q 57.328125 34.859375 57.328125 23.390625 
Q 57.328125 12.15625 50.6875 5.359375 
Q 44.046875 -1.421875 33.015625 -1.421875 
Q 20.359375 -1.421875 13.671875 8.265625 
Q 6.984375 17.96875 6.984375 36.375 
Q 6.984375 53.65625 15.1875 63.9375 
Q 23.390625 74.21875 37.203125 74.21875 
Q 40.921875 74.21875 44.703125 73.484375 
Q 48.484375 72.75 52.59375 71.296875 
z
" id="DejaVuSans-54"/>
      </defs>
      <g transform="translate(612.738383 241.326437)scale(0.1 -0.1)">
       <use xlink:href="#DejaVuSans-54"/>
       <use x="63.623047" xlink:href="#DejaVuSans-48"/>
      </g>
     </g>
    </g>
    <g id="xtick_5">
     <g id="line2d_5">
      <g>
       <use style="stroke:#000000;stroke-width:0.8;" x="775.630753" xlink:href="#mdb6cf3ed12" y="226.728"/>
      </g>
     </g>
     <g id="text_5">
      <!-- 80 -->
      <defs>
       <path d="M 31.78125 34.625 
Q 24.75 34.625 20.71875 30.859375 
Q 16.703125 27.09375 16.703125 20.515625 
Q 16.703125 13.921875 20.71875 10.15625 
Q 24.75 6.390625 31.78125 6.390625 
Q 38.8125 6.390625 42.859375 10.171875 
Q 46.921875 13.96875 46.921875 20.515625 
Q 46.921875 27.09375 42.890625 30.859375 
Q 38.875 34.625 31.78125 34.625 
z
M 21.921875 38.8125 
Q 15.578125 40.375 12.03125 44.71875 
Q 8.5 49.078125 8.5 55.328125 
Q 8.5 64.0625 14.71875 69.140625 
Q 20.953125 74.21875 31.78125 74.21875 
Q 42.671875 74.21875 48.875 69.140625 
Q 55.078125 64.0625 55.078125 55.328125 
Q 55.078125 49.078125 51.53125 44.71875 
Q 48 40.375 41.703125 38.8125 
Q 48.828125 37.15625 52.796875 32.3125 
Q 56.78125 27.484375 56.78125 20.515625 
Q 56.78125 9.90625 50.3125 4.234375 
Q 43.84375 -1.421875 31.78125 -1.421875 
Q 19.734375 -1.421875 13.25 4.234375 
Q 6.78125 9.90625 6.78125 20.515625 
Q 6.78125 27.484375 10.78125 32.3125 
Q 14.796875 37.15625 21.921875 38.8125 
z
M 18.3125 54.390625 
Q 18.3125 48.734375 21.84375 45.5625 
Q 25.390625 42.390625 31.78125 42.390625 
Q 38.140625 42.390625 41.71875 45.5625 
Q 45.3125 48.734375 45.3125 54.390625 
Q 45.3125 60.0625 41.71875 63.234375 
Q 38.140625 66.40625 31.78125 66.40625 
Q 25.390625 66.40625 21.84375 63.234375 
Q 18.3125 60.0625 18.3125 54.390625 
z
" id="DejaVuSans-56"/>
      </defs>
      <g transform="translate(769.268253 241.326437)scale(0.1 -0.1)">
       <use xlink:href="#DejaVuSans-56"/>
       <use x="63.623047" xlink:href="#DejaVuSans-48"/>
      </g>
     </g>
    </g>
   </g>
   <g id="matplotlib.axis_2">
    <g id="ytick_1">
     <g id="line2d_6">
      <defs>
       <path d="M 0 0 
L -3.5 0 
" id="mc99282bf28" style="stroke:#000000;stroke-width:0.8;"/>
      </defs>
      <g>
       <use style="stroke:#000000;stroke-width:0.8;" x="116.64" xlink:href="#mc99282bf28" y="219.055332"/>
      </g>
     </g>
     <g id="text_6">
      <!-- 0 -->
      <g transform="translate(103.2775 222.854551)scale(0.1 -0.1)">
       <use xlink:href="#DejaVuSans-48"/>
      </g>
     </g>
    </g>
    <g id="ytick_2">
     <g id="line2d_7">
      <g>
       <use style="stroke:#000000;stroke-width:0.8;" x="116.64" xlink:href="#mc99282bf28" y="181.502661"/>
      </g>
     </g>
     <g id="text_7">
      <!-- 20000 -->
      <g transform="translate(77.8275 185.30188)scale(0.1 -0.1)">
       <use xlink:href="#DejaVuSans-50"/>
       <use x="63.623047" xlink:href="#DejaVuSans-48"/>
       <use x="127.246094" xlink:href="#DejaVuSans-48"/>
       <use x="190.869141" xlink:href="#DejaVuSans-48"/>
       <use x="254.492188" xlink:href="#DejaVuSans-48"/>
      </g>
     </g>
    </g>
    <g id="ytick_3">
     <g id="line2d_8">
      <g>
       <use style="stroke:#000000;stroke-width:0.8;" x="116.64" xlink:href="#mc99282bf28" y="143.949991"/>
      </g>
     </g>
     <g id="text_8">
      <!-- 40000 -->
      <g transform="translate(77.8275 147.749209)scale(0.1 -0.1)">
       <use xlink:href="#DejaVuSans-52"/>
       <use x="63.623047" xlink:href="#DejaVuSans-48"/>
       <use x="127.246094" xlink:href="#DejaVuSans-48"/>
       <use x="190.869141" xlink:href="#DejaVuSans-48"/>
       <use x="254.492188" xlink:href="#DejaVuSans-48"/>
      </g>
     </g>
    </g>
    <g id="ytick_4">
     <g id="line2d_9">
      <g>
       <use style="stroke:#000000;stroke-width:0.8;" x="116.64" xlink:href="#mc99282bf28" y="106.39732"/>
      </g>
     </g>
     <g id="text_9">
      <!-- 60000 -->
      <g transform="translate(77.8275 110.196538)scale(0.1 -0.1)">
       <use xlink:href="#DejaVuSans-54"/>
       <use x="63.623047" xlink:href="#DejaVuSans-48"/>
       <use x="127.246094" xlink:href="#DejaVuSans-48"/>
       <use x="190.869141" xlink:href="#DejaVuSans-48"/>
       <use x="254.492188" xlink:href="#DejaVuSans-48"/>
      </g>
     </g>
    </g>
    <g id="ytick_5">
     <g id="line2d_10">
      <g>
       <use style="stroke:#000000;stroke-width:0.8;" x="116.64" xlink:href="#mc99282bf28" y="68.844649"/>
      </g>
     </g>
     <g id="text_10">
      <!-- 80000 -->
      <g transform="translate(77.8275 72.643868)scale(0.1 -0.1)">
       <use xlink:href="#DejaVuSans-56"/>
       <use x="63.623047" xlink:href="#DejaVuSans-48"/>
       <use x="127.246094" xlink:href="#DejaVuSans-48"/>
       <use x="190.869141" xlink:href="#DejaVuSans-48"/>
       <use x="254.492188" xlink:href="#DejaVuSans-48"/>
      </g>
     </g>
    </g>
    <g id="text_11">
     <!-- No. cases -->
     <defs>
      <path d="M 9.8125 72.90625 
L 23.09375 72.90625 
L 55.421875 11.921875 
L 55.421875 72.90625 
L 64.984375 72.90625 
L 64.984375 0 
L 51.703125 0 
L 19.390625 60.984375 
L 19.390625 0 
L 9.8125 0 
z
" id="DejaVuSans-78"/>
      <path d="M 30.609375 48.390625 
Q 23.390625 48.390625 19.1875 42.75 
Q 14.984375 37.109375 14.984375 27.296875 
Q 14.984375 17.484375 19.15625 11.84375 
Q 23.34375 6.203125 30.609375 6.203125 
Q 37.796875 6.203125 41.984375 11.859375 
Q 46.1875 17.53125 46.1875 27.296875 
Q 46.1875 37.015625 41.984375 42.703125 
Q 37.796875 48.390625 30.609375 48.390625 
z
M 30.609375 56 
Q 42.328125 56 49.015625 48.375 
Q 55.71875 40.765625 55.71875 27.296875 
Q 55.71875 13.875 49.015625 6.21875 
Q 42.328125 -1.421875 30.609375 -1.421875 
Q 18.84375 -1.421875 12.171875 6.21875 
Q 5.515625 13.875 5.515625 27.296875 
Q 5.515625 40.765625 12.171875 48.375 
Q 18.84375 56 30.609375 56 
z
" id="DejaVuSans-111"/>
      <path d="M 10.6875 12.40625 
L 21 12.40625 
L 21 0 
L 10.6875 0 
z
" id="DejaVuSans-46"/>
      <path id="DejaVuSans-32"/>
      <path d="M 48.78125 52.59375 
L 48.78125 44.1875 
Q 44.96875 46.296875 41.140625 47.34375 
Q 37.3125 48.390625 33.40625 48.390625 
Q 24.65625 48.390625 19.8125 42.84375 
Q 14.984375 37.3125 14.984375 27.296875 
Q 14.984375 17.28125 19.8125 11.734375 
Q 24.65625 6.203125 33.40625 6.203125 
Q 37.3125 6.203125 41.140625 7.25 
Q 44.96875 8.296875 48.78125 10.40625 
L 48.78125 2.09375 
Q 45.015625 0.34375 40.984375 -0.53125 
Q 36.96875 -1.421875 32.421875 -1.421875 
Q 20.0625 -1.421875 12.78125 6.34375 
Q 5.515625 14.109375 5.515625 27.296875 
Q 5.515625 40.671875 12.859375 48.328125 
Q 20.21875 56 33.015625 56 
Q 37.15625 56 41.109375 55.140625 
Q 45.0625 54.296875 48.78125 52.59375 
z
" id="DejaVuSans-99"/>
      <path d="M 34.28125 27.484375 
Q 23.390625 27.484375 19.1875 25 
Q 14.984375 22.515625 14.984375 16.5 
Q 14.984375 11.71875 18.140625 8.90625 
Q 21.296875 6.109375 26.703125 6.109375 
Q 34.1875 6.109375 38.703125 11.40625 
Q 43.21875 16.703125 43.21875 25.484375 
L 43.21875 27.484375 
z
M 52.203125 31.203125 
L 52.203125 0 
L 43.21875 0 
L 43.21875 8.296875 
Q 40.140625 3.328125 35.546875 0.953125 
Q 30.953125 -1.421875 24.3125 -1.421875 
Q 15.921875 -1.421875 10.953125 3.296875 
Q 6 8.015625 6 15.921875 
Q 6 25.140625 12.171875 29.828125 
Q 18.359375 34.515625 30.609375 34.515625 
L 43.21875 34.515625 
L 43.21875 35.40625 
Q 43.21875 41.609375 39.140625 45 
Q 35.0625 48.390625 27.6875 48.390625 
Q 23 48.390625 18.546875 47.265625 
Q 14.109375 46.140625 10.015625 43.890625 
L 10.015625 52.203125 
Q 14.9375 54.109375 19.578125 55.046875 
Q 24.21875 56 28.609375 56 
Q 40.484375 56 46.34375 49.84375 
Q 52.203125 43.703125 52.203125 31.203125 
z
" id="DejaVuSans-97"/>
      <path d="M 44.28125 53.078125 
L 44.28125 44.578125 
Q 40.484375 46.53125 36.375 47.5 
Q 32.28125 48.484375 27.875 48.484375 
Q 21.1875 48.484375 17.84375 46.4375 
Q 14.5 44.390625 14.5 40.28125 
Q 14.5 37.15625 16.890625 35.375 
Q 19.28125 33.59375 26.515625 31.984375 
L 29.59375 31.296875 
Q 39.15625 29.25 43.1875 25.515625 
Q 47.21875 21.78125 47.21875 15.09375 
Q 47.21875 7.46875 41.1875 3.015625 
Q 35.15625 -1.421875 24.609375 -1.421875 
Q 20.21875 -1.421875 15.453125 -0.5625 
Q 10.6875 0.296875 5.421875 2 
L 5.421875 11.28125 
Q 10.40625 8.6875 15.234375 7.390625 
Q 20.0625 6.109375 24.8125 6.109375 
Q 31.15625 6.109375 34.5625 8.28125 
Q 37.984375 10.453125 37.984375 14.40625 
Q 37.984375 18.0625 35.515625 20.015625 
Q 33.0625 21.96875 24.703125 23.78125 
L 21.578125 24.515625 
Q 13.234375 26.265625 9.515625 29.90625 
Q 5.8125 33.546875 5.8125 39.890625 
Q 5.8125 47.609375 11.28125 51.796875 
Q 16.75 56 26.8125 56 
Q 31.78125 56 36.171875 55.265625 
Q 40.578125 54.546875 44.28125 53.078125 
z
" id="DejaVuSans-115"/>
      <path d="M 56.203125 29.59375 
L 56.203125 25.203125 
L 14.890625 25.203125 
Q 15.484375 15.921875 20.484375 11.0625 
Q 25.484375 6.203125 34.421875 6.203125 
Q 39.59375 6.203125 44.453125 7.46875 
Q 49.3125 8.734375 54.109375 11.28125 
L 54.109375 2.78125 
Q 49.265625 0.734375 44.1875 -0.34375 
Q 39.109375 -1.421875 33.890625 -1.421875 
Q 20.796875 -1.421875 13.15625 6.1875 
Q 5.515625 13.8125 5.515625 26.8125 
Q 5.515625 40.234375 12.765625 48.109375 
Q 20.015625 56 32.328125 56 
Q 43.359375 56 49.78125 48.890625 
Q 56.203125 41.796875 56.203125 29.59375 
z
M 47.21875 32.234375 
Q 47.125 39.59375 43.09375 43.984375 
Q 39.0625 48.390625 32.421875 48.390625 
Q 24.90625 48.390625 20.390625 44.140625 
Q 15.875 39.890625 15.1875 32.171875 
z
" id="DejaVuSans-101"/>
     </defs>
     <g transform="translate(71.747813 166.384563)rotate(-90)scale(0.1 -0.1)">
      <use xlink:href="#DejaVuSans-78"/>
      <use x="74.804688" xlink:href="#DejaVuSans-111"/>
      <use x="135.970703" xlink:href="#DejaVuSans-46"/>
      <use x="167.757812" xlink:href="#DejaVuSans-32"/>
      <use x="199.544922" xlink:href="#DejaVuSans-99"/>
      <use x="254.525391" xlink:href="#DejaVuSans-97"/>
      <use x="315.804688" xlink:href="#DejaVuSans-115"/>
      <use x="367.904297" xlink:href="#DejaVuSans-101"/>
      <use x="429.427734" xlink:href="#DejaVuSans-115"/>
     </g>
    </g>
   </g>
   <g id="line2d_11">
    <path clip-path="url(#p637679ccb2)" d="M 149.511273 219.053455 
L 157.337766 219.053455 
L 165.16426 219.051577 
L 172.990753 219.049699 
L 180.817247 219.049699 
L 188.64374 219.049699 
L 196.470234 219.047822 
L 204.296727 219.047822 
L 212.123221 219.047822 
L 219.949714 219.047822 
L 227.776208 219.045944 
L 235.602701 219.045944 
L 243.429195 219.042189 
L 251.255688 219.042189 
L 259.082182 219.042189 
L 266.908675 219.042189 
L 274.735169 219.042189 
L 282.561662 219.042189 
L 290.388156 219.042189 
L 298.214649 219.042189 
L 306.041143 219.040311 
L 313.867636 219.040311 
L 321.69413 219.040311 
L 329.520623 219.040311 
L 337.347117 219.040311 
L 345.17361 219.040311 
L 353.000104 219.038433 
L 360.826597 219.038433 
L 368.653091 219.038433 
L 376.479584 219.038433 
L 384.306078 219.034678 
L 392.132571 219.034678 
L 399.959065 219.032801 
L 407.785558 219.029045 
L 415.612052 219.02529 
L 423.438545 219.01778 
L 431.265039 219.010269 
L 439.091532 219.004636 
L 446.918026 218.999003 
L 454.744519 218.99337 
L 462.571013 218.970839 
L 470.397506 218.959573 
L 478.224 218.948307 
L 486.050494 218.938919 
L 493.876987 218.910754 
L 501.703481 218.880712 
L 509.529974 218.861936 
L 517.356468 218.796219 
L 525.182961 218.724869 
L 533.009455 218.59719 
L 540.835948 218.484532 
L 548.662442 218.259216 
L 556.488935 218.024511 
L 564.315429 217.536327 
L 572.141922 217.162678 
L 579.968416 216.757109 
" style="fill:none;stroke:#1f77b4;stroke-linecap:square;stroke-width:1.5;"/>
   </g>
   <g id="line2d_12">
    <path clip-path="url(#p637679ccb2)" d="M 149.511273 219.004636 
L 157.337766 219.004636 
L 165.16426 219.004636 
L 172.990753 218.972716 
L 180.817247 218.972716 
L 188.64374 218.944552 
L 196.470234 218.944552 
L 204.296727 218.944552 
L 212.123221 218.944552 
L 219.949714 218.944552 
L 227.776208 218.944552 
L 235.602701 218.944552 
L 243.429195 218.944552 
L 251.255688 218.944552 
L 259.082182 218.944552 
L 266.908675 218.944552 
L 274.735169 218.944552 
L 282.561662 218.937041 
L 290.388156 218.905121 
L 298.214649 218.649763 
L 306.041143 218.614088 
L 313.867636 218.330566 
L 321.69413 218.067697 
L 329.520623 217.885566 
L 337.347117 217.399259 
L 345.17361 216.571223 
L 353.000104 215.322597 
L 360.826597 213.844899 
L 368.653091 210.553408 
L 376.479584 207.800797 
L 384.306078 204.533714 
L 392.132571 200.816 
L 399.959065 196.882358 
L 407.785558 192.019287 
L 415.612052 186.739381 
L 423.438545 180.661482 
L 431.265039 173.391284 
L 439.091532 166.393344 
L 446.918026 160.460022 
L 454.744519 154.042271 
L 462.571013 149.14728 
L 470.397506 143.563198 
L 478.224 138.887891 
L 486.050494 135.08005 
L 493.876987 106.6508 
L 501.703481 98.847355 
L 509.529974 94.081921 
L 517.356468 90.313511 
L 525.182961 86.460607 
L 533.009455 82.911879 
L 540.835948 79.626021 
L 548.662442 78.886233 
L 556.488935 77.213262 
L 564.315429 75.662336 
L 572.141922 74.447507 
L 579.968416 74.038183 
L 587.794909 73.071202 
L 595.621403 72.301372 
L 603.447896 71.477091 
L 611.27439 70.85935 
L 619.100883 70.055723 
L 626.927377 68.977961 
L 634.75387 68.593046 
L 642.580364 68.354587 
L 650.406857 68.131148 
L 658.233351 67.911465 
L 666.059844 67.592267 
L 673.886338 67.402626 
L 681.712831 67.316255 
L 689.539325 67.231762 
L 697.365818 67.194209 
L 705.192312 67.139758 
L 713.018805 67.094694 
L 720.845299 67.053386 
L 728.671792 67.017711 
L 736.498286 66.976404 
L 744.324779 66.929463 
L 752.151273 66.722923 
L 759.977766 66.660961 
L 767.80426 66.520139 
L 775.630753 66.334253 
L 783.457247 66.18592 
L 791.28374 66.030076 
L 799.110234 65.748431 
L 806.936727 65.562545 
" style="fill:none;stroke:#ff7f0e;stroke-linecap:square;stroke-width:1.5;"/>
   </g>
   <g id="line2d_13">
    <path clip-path="url(#p637679ccb2)" d="M 149.511273 219.049699 
L 157.337766 219.045944 
L 165.16426 219.045944 
L 172.990753 219.040311 
L 180.817247 219.032801 
L 188.64374 219.019657 
L 196.470234 219.006514 
L 204.296727 218.995248 
L 212.123221 218.980227 
L 219.949714 218.937041 
L 227.776208 218.878835 
L 235.602701 218.837527 
L 243.429195 218.773687 
L 251.255688 218.653519 
L 259.082182 218.495797 
L 266.908675 218.409426 
L 274.735169 218.240439 
L 282.561662 218.075207 
L 290.388156 217.752255 
L 298.214649 217.357951 
L 306.041143 217.187087 
L 313.867636 216.867889 
L 321.69413 216.734577 
" style="fill:none;stroke:#2ca02c;stroke-linecap:square;stroke-width:1.5;"/>
   </g>
   <g id="line2d_14">
    <path clip-path="url(#p637679ccb2)" d="M 149.511273 219.053455 
L 157.337766 219.053455 
L 165.16426 219.051577 
L 172.990753 219.049699 
L 180.817247 219.047822 
L 188.64374 219.045944 
L 196.470234 219.040311 
L 204.296727 219.036556 
L 212.123221 219.01778 
L 219.949714 219.012147 
L 227.776208 218.997126 
L 235.602701 218.983982 
L 243.429195 218.84316 
L 251.255688 218.559637 
L 259.082182 218.086473 
L 266.908675 217.786052 
L 274.735169 217.545715 
L 282.561662 217.502529 
L 290.388156 217.412403 
L 298.214649 217.305378 
L 306.041143 217.132635 
L 313.867636 216.961771 
L 321.69413 216.894176 
L 329.520623 216.698902 
L 337.347117 216.56559 
L 345.17361 216.436033 
L 353.000104 216.313987 
" style="fill:none;stroke:#d62728;stroke-linecap:square;stroke-width:1.5;"/>
   </g>
   <g id="line2d_15">
    <path clip-path="url(#p637679ccb2)" d="M 149.511273 219.049699 
L 157.337766 219.049699 
L 165.16426 219.049699 
L 172.990753 219.049699 
L 180.817247 219.047822 
L 188.64374 219.045944 
L 196.470234 219.044066 
L 204.296727 219.044066 
L 212.123221 219.044066 
L 219.949714 219.044066 
L 227.776208 219.044066 
L 235.602701 219.044066 
L 243.429195 219.044066 
L 251.255688 219.044066 
L 259.082182 219.034678 
L 266.908675 219.034678 
L 274.735169 219.034678 
L 282.561662 219.034678 
L 290.388156 219.034678 
L 298.214649 219.034678 
L 306.041143 219.034678 
L 313.867636 219.034678 
L 321.69413 219.034678 
L 329.520623 219.032801 
L 337.347117 219.032801 
L 345.17361 219.032801 
L 353.000104 219.032801 
L 360.826597 219.032801 
L 368.653091 219.032801 
L 376.479584 219.032801 
L 384.306078 219.032801 
L 392.132571 219.032801 
L 399.959065 219.029045 
L 407.785558 219.023412 
L 415.612052 218.983982 
L 423.438545 218.948307 
L 431.265039 218.867569 
L 439.091532 218.81124 
L 446.918026 218.721113 
L 454.744519 218.657274 
L 462.571013 218.520207 
L 470.397506 218.261093 
L 478.224 217.904343 
L 486.050494 217.710947 
L 493.876987 216.941117 
L 501.703481 216.404114 
L 509.529974 215.705634 
L 517.356468 214.77245 
L 525.182961 213.655258 
L 533.009455 212.181316 
L 540.835948 210.607859 
L 548.662442 208.872925 
L 556.488935 206.600989 
L 564.315429 204.541225 
L 572.141922 201.905027 
L 579.968416 198.410751 
L 587.794909 195.374618 
L 595.621403 191.906629 
L 603.447896 188.979398 
L 611.27439 181.773041 
" style="fill:none;stroke:#9467bd;stroke-linecap:square;stroke-width:1.5;"/>
   </g>
   <g id="line2d_16">
    <path clip-path="url(#p637679ccb2)" d="M 149.511273 219.053455 
L 157.337766 219.047822 
L 165.16426 219.047822 
L 172.990753 219.045944 
L 180.817247 219.042189 
L 188.64374 219.040311 
L 196.470234 219.038433 
L 204.296727 219.034678 
L 212.123221 219.034678 
L 219.949714 219.034678 
L 227.776208 219.032801 
L 235.602701 219.030923 
L 243.429195 219.030923 
L 251.255688 219.030923 
L 259.082182 219.030923 
L 266.908675 219.027168 
L 274.735169 219.027168 
L 282.561662 219.027168 
L 290.388156 219.027168 
L 298.214649 219.027168 
L 306.041143 219.027168 
L 313.867636 219.027168 
L 321.69413 219.027168 
L 329.520623 219.027168 
L 337.347117 219.027168 
L 345.17361 219.027168 
L 353.000104 219.027168 
L 360.826597 219.027168 
L 368.653091 219.027168 
L 376.479584 219.023412 
L 384.306078 219.015902 
L 392.132571 218.967083 
L 399.959065 218.948307 
L 407.785558 218.846915 
L 415.612052 218.813117 
L 423.438545 218.760544 
L 431.265039 218.687316 
L 439.091532 218.563392 
L 446.918026 218.304279 
L 454.744519 217.771031 
L 462.571013 217.464977 
L 470.397506 217.361707 
L 478.224 216.916708 
L 486.050494 216.621919 
L 493.876987 216.11308 
L 501.703481 214.607218 
L 509.529974 213.306018 
L 517.356468 211.929713 
L 525.182961 209.971341 
L 533.009455 207.766999 
L 540.835948 205.618987 
L 548.662442 203.662492 
L 556.488935 192.509349 
L 564.315429 184.906811 
L 572.141922 178.755683 
L 579.968416 172.538839 
L 587.794909 164.205901 
" style="fill:none;stroke:#8c564b;stroke-linecap:square;stroke-width:1.5;"/>
   </g>
   <g id="line2d_17">
    <path clip-path="url(#p637679ccb2)" d="M 149.511273 219.051577 
L 157.337766 219.045944 
L 165.16426 219.021535 
L 172.990753 219.002758 
L 180.817247 218.974594 
L 188.64374 218.940797 
L 196.470234 218.876957 
L 204.296727 218.794341 
L 212.123221 218.595312 
L 219.949714 218.32681 
L 227.776208 217.941895 
L 235.602701 217.219007 
L 243.429195 216.237004 
L 251.255688 214.66918 
L 259.082182 213.568887 
L 266.908675 212.459206 
L 274.735169 210.142206 
L 282.561662 208.121872 
L 290.388156 206.72679 
L 298.214649 205.609598 
L 306.041143 203.955403 
L 313.867636 202.15663 
L 321.69413 200.138174 
L 329.520623 197.717905 
L 337.347117 195.154935 
L 345.17361 192.884876 
L 353.000104 190.907728 
L 360.826597 188.695875 
L 368.653091 186.457736 
L 376.479584 184.493732 
L 384.306078 182.171099 
L 392.132571 180.357305 
L 399.959065 178.427098 
L 407.785558 175.777757 
" style="fill:none;stroke:#e377c2;stroke-linecap:square;stroke-width:1.5;"/>
   </g>
   <g id="line2d_18">
    <path clip-path="url(#p637679ccb2)" d="M 149.511273 219.049699 
L 157.337766 219.049699 
L 165.16426 219.049699 
L 172.990753 219.049699 
L 180.817247 219.049699 
L 188.64374 219.049699 
L 196.470234 219.049699 
L 204.296727 219.049699 
L 212.123221 219.049699 
L 219.949714 219.049699 
L 227.776208 219.049699 
L 235.602701 219.049699 
L 243.429195 219.049699 
L 251.255688 219.049699 
L 259.082182 219.049699 
L 266.908675 219.049699 
L 274.735169 219.049699 
L 282.561662 219.049699 
L 290.388156 219.049699 
L 298.214649 219.049699 
L 306.041143 219.049699 
L 313.867636 219.049699 
L 321.69413 219.023412 
L 329.520623 218.906999 
L 337.347117 218.807485 
L 345.17361 218.625354 
L 353.000104 218.450734 
L 360.826597 218.304279 
L 368.653091 217.83487 
L 376.479584 217.387994 
L 384.306078 216.937362 
L 392.132571 215.884009 
L 399.959065 215.609875 
L 407.785558 214.357493 
L 415.612052 213.255322 
L 423.438545 211.811422 
L 431.265039 210.350623 
L 439.091532 208.009214 
L 446.918026 205.207785 
L 454.744519 201.833677 
L 462.571013 199.999229 
L 470.397506 195.656263 
L 478.224 190.678656 
L 486.050494 185.896324 
L 493.876987 185.727337 
L 501.703481 174.02968 
L 509.529974 166.519146 
L 517.356468 159.89861 
L 525.182961 151.999406 
L 533.009455 142.00664 
L 540.835948 130.767125 
L 548.662442 118.455482 
L 556.488935 108.01584 
L 564.315429 99.023853 
" style="fill:none;stroke:#7f7f7f;stroke-linecap:square;stroke-width:1.5;"/>
   </g>
   <g id="line2d_19">
    <path clip-path="url(#p637679ccb2)" d="M 149.511273 219.053455 
L 157.337766 219.049699 
L 165.16426 219.045944 
L 172.990753 219.042189 
L 180.817247 219.036556 
L 188.64374 219.015902 
L 196.470234 218.999003 
L 204.296727 218.972716 
L 212.123221 218.940797 
L 219.949714 218.897611 
L 227.776208 218.873202 
L 235.602701 218.854425 
L 243.429195 218.824383 
L 251.255688 218.798096 
L 259.082182 218.721113 
L 266.908675 218.70797 
L 274.735169 218.696704 
" style="fill:none;stroke:#bcbd22;stroke-linecap:square;stroke-width:1.5;"/>
   </g>
   <g id="line2d_20">
    <path clip-path="url(#p637679ccb2)" d="M 149.511273 219.053455 
L 157.337766 219.053455 
L 165.16426 219.053455 
L 172.990753 219.053455 
L 180.817247 219.049699 
L 188.64374 219.049699 
L 196.470234 219.045944 
L 204.296727 219.042189 
L 212.123221 219.040311 
L 219.949714 219.040311 
L 227.776208 219.038433 
L 235.602701 219.036556 
L 243.429195 219.036556 
L 251.255688 219.036556 
L 259.082182 219.036556 
L 266.908675 219.034678 
L 274.735169 219.034678 
L 282.561662 219.02529 
L 290.388156 219.023412 
L 298.214649 219.021535 
L 306.041143 219.021535 
L 313.867636 219.021535 
L 321.69413 219.021535 
L 329.520623 219.021535 
L 337.347117 219.021535 
L 345.17361 219.021535 
L 353.000104 219.021535 
L 360.826597 219.01778 
L 368.653091 219.014024 
L 376.479584 219.014024 
L 384.306078 219.010269 
L 392.132571 219.010269 
L 399.959065 219.006514 
L 407.785558 219.006514 
L 415.612052 219.002758 
L 423.438545 218.999003 
L 431.265039 218.997126 
L 439.091532 218.995248 
L 446.918026 218.991493 
L 454.744519 218.982104 
L 462.571013 218.980227 
L 470.397506 218.980227 
L 478.224 218.978349 
L 486.050494 218.976472 
L 493.876987 218.972716 
L 501.703481 218.970839 
L 509.529974 218.970839 
L 517.356468 218.970839 
L 525.182961 218.965206 
L 533.009455 218.965206 
L 540.835948 218.963328 
L 548.662442 218.955818 
L 556.488935 218.944552 
L 564.315429 218.944552 
L 572.141922 218.929531 
L 579.968416 218.910754 
L 587.794909 218.852548 
L 595.621403 218.852548 
L 603.447896 218.801852 
L 611.27439 218.768054 
L 619.100883 218.745523 
L 626.927377 218.689194 
" style="fill:none;stroke:#17becf;stroke-linecap:square;stroke-width:1.5;"/>
   </g>
   <g id="patch_3">
    <path d="M 116.64 226.728 
L 116.64 57.888 
" style="fill:none;stroke:#000000;stroke-linecap:square;stroke-linejoin:miter;stroke-width:0.8;"/>
   </g>
   <g id="patch_4">
    <path d="M 839.808 226.728 
L 839.808 57.888 
" style="fill:none;stroke:#000000;stroke-linecap:square;stroke-linejoin:miter;stroke-width:0.8;"/>
   </g>
   <g id="patch_5">
    <path d="M 116.64 226.728 
L 839.808 226.728 
" style="fill:none;stroke:#000000;stroke-linecap:square;stroke-linejoin:miter;stroke-width:0.8;"/>
   </g>
   <g id="patch_6">
    <path d="M 116.64 57.888 
L 839.808 57.888 
" style="fill:none;stroke:#000000;stroke-linecap:square;stroke-linejoin:miter;stroke-width:0.8;"/>
   </g>
   <g id="text_12">
    <!-- COVID-19 cases, selected countries, data from ecdc.europa.eu as of 2020-03-24 -->
    <defs>
     <path d="M 64.40625 67.28125 
L 64.40625 56.890625 
Q 59.421875 61.53125 53.78125 63.8125 
Q 48.140625 66.109375 41.796875 66.109375 
Q 29.296875 66.109375 22.65625 58.46875 
Q 16.015625 50.828125 16.015625 36.375 
Q 16.015625 21.96875 22.65625 14.328125 
Q 29.296875 6.6875 41.796875 6.6875 
Q 48.140625 6.6875 53.78125 8.984375 
Q 59.421875 11.28125 64.40625 15.921875 
L 64.40625 5.609375 
Q 59.234375 2.09375 53.4375 0.328125 
Q 47.65625 -1.421875 41.21875 -1.421875 
Q 24.65625 -1.421875 15.125 8.703125 
Q 5.609375 18.84375 5.609375 36.375 
Q 5.609375 53.953125 15.125 64.078125 
Q 24.65625 74.21875 41.21875 74.21875 
Q 47.75 74.21875 53.53125 72.484375 
Q 59.328125 70.75 64.40625 67.28125 
z
" id="DejaVuSans-67"/>
     <path d="M 39.40625 66.21875 
Q 28.65625 66.21875 22.328125 58.203125 
Q 16.015625 50.203125 16.015625 36.375 
Q 16.015625 22.609375 22.328125 14.59375 
Q 28.65625 6.59375 39.40625 6.59375 
Q 50.140625 6.59375 56.421875 14.59375 
Q 62.703125 22.609375 62.703125 36.375 
Q 62.703125 50.203125 56.421875 58.203125 
Q 50.140625 66.21875 39.40625 66.21875 
z
M 39.40625 74.21875 
Q 54.734375 74.21875 63.90625 63.9375 
Q 73.09375 53.65625 73.09375 36.375 
Q 73.09375 19.140625 63.90625 8.859375 
Q 54.734375 -1.421875 39.40625 -1.421875 
Q 24.03125 -1.421875 14.8125 8.828125 
Q 5.609375 19.09375 5.609375 36.375 
Q 5.609375 53.65625 14.8125 63.9375 
Q 24.03125 74.21875 39.40625 74.21875 
z
" id="DejaVuSans-79"/>
     <path d="M 28.609375 0 
L 0.78125 72.90625 
L 11.078125 72.90625 
L 34.1875 11.53125 
L 57.328125 72.90625 
L 67.578125 72.90625 
L 39.796875 0 
z
" id="DejaVuSans-86"/>
     <path d="M 9.8125 72.90625 
L 19.671875 72.90625 
L 19.671875 0 
L 9.8125 0 
z
" id="DejaVuSans-73"/>
     <path d="M 19.671875 64.796875 
L 19.671875 8.109375 
L 31.59375 8.109375 
Q 46.6875 8.109375 53.6875 14.9375 
Q 60.6875 21.78125 60.6875 36.53125 
Q 60.6875 51.171875 53.6875 57.984375 
Q 46.6875 64.796875 31.59375 64.796875 
z
M 9.8125 72.90625 
L 30.078125 72.90625 
Q 51.265625 72.90625 61.171875 64.09375 
Q 71.09375 55.28125 71.09375 36.53125 
Q 71.09375 17.671875 61.125 8.828125 
Q 51.171875 0 30.078125 0 
L 9.8125 0 
z
" id="DejaVuSans-68"/>
     <path d="M 4.890625 31.390625 
L 31.203125 31.390625 
L 31.203125 23.390625 
L 4.890625 23.390625 
z
" id="DejaVuSans-45"/>
     <path d="M 12.40625 8.296875 
L 28.515625 8.296875 
L 28.515625 63.921875 
L 10.984375 60.40625 
L 10.984375 69.390625 
L 28.421875 72.90625 
L 38.28125 72.90625 
L 38.28125 8.296875 
L 54.390625 8.296875 
L 54.390625 0 
L 12.40625 0 
z
" id="DejaVuSans-49"/>
     <path d="M 10.984375 1.515625 
L 10.984375 10.5 
Q 14.703125 8.734375 18.5 7.8125 
Q 22.3125 6.890625 25.984375 6.890625 
Q 35.75 6.890625 40.890625 13.453125 
Q 46.046875 20.015625 46.78125 33.40625 
Q 43.953125 29.203125 39.59375 26.953125 
Q 35.25 24.703125 29.984375 24.703125 
Q 19.046875 24.703125 12.671875 31.3125 
Q 6.296875 37.9375 6.296875 49.421875 
Q 6.296875 60.640625 12.9375 67.421875 
Q 19.578125 74.21875 30.609375 74.21875 
Q 43.265625 74.21875 49.921875 64.515625 
Q 56.59375 54.828125 56.59375 36.375 
Q 56.59375 19.140625 48.40625 8.859375 
Q 40.234375 -1.421875 26.421875 -1.421875 
Q 22.703125 -1.421875 18.890625 -0.6875 
Q 15.09375 0.046875 10.984375 1.515625 
z
M 30.609375 32.421875 
Q 37.25 32.421875 41.125 36.953125 
Q 45.015625 41.5 45.015625 49.421875 
Q 45.015625 57.28125 41.125 61.84375 
Q 37.25 66.40625 30.609375 66.40625 
Q 23.96875 66.40625 20.09375 61.84375 
Q 16.21875 57.28125 16.21875 49.421875 
Q 16.21875 41.5 20.09375 36.953125 
Q 23.96875 32.421875 30.609375 32.421875 
z
" id="DejaVuSans-57"/>
     <path d="M 11.71875 12.40625 
L 22.015625 12.40625 
L 22.015625 4 
L 14.015625 -11.625 
L 7.71875 -11.625 
L 11.71875 4 
z
" id="DejaVuSans-44"/>
     <path d="M 9.421875 75.984375 
L 18.40625 75.984375 
L 18.40625 0 
L 9.421875 0 
z
" id="DejaVuSans-108"/>
     <path d="M 18.3125 70.21875 
L 18.3125 54.6875 
L 36.8125 54.6875 
L 36.8125 47.703125 
L 18.3125 47.703125 
L 18.3125 18.015625 
Q 18.3125 11.328125 20.140625 9.421875 
Q 21.96875 7.515625 27.59375 7.515625 
L 36.8125 7.515625 
L 36.8125 0 
L 27.59375 0 
Q 17.1875 0 13.234375 3.875 
Q 9.28125 7.765625 9.28125 18.015625 
L 9.28125 47.703125 
L 2.6875 47.703125 
L 2.6875 54.6875 
L 9.28125 54.6875 
L 9.28125 70.21875 
z
" id="DejaVuSans-116"/>
     <path d="M 45.40625 46.390625 
L 45.40625 75.984375 
L 54.390625 75.984375 
L 54.390625 0 
L 45.40625 0 
L 45.40625 8.203125 
Q 42.578125 3.328125 38.25 0.953125 
Q 33.9375 -1.421875 27.875 -1.421875 
Q 17.96875 -1.421875 11.734375 6.484375 
Q 5.515625 14.40625 5.515625 27.296875 
Q 5.515625 40.1875 11.734375 48.09375 
Q 17.96875 56 27.875 56 
Q 33.9375 56 38.25 53.625 
Q 42.578125 51.265625 45.40625 46.390625 
z
M 14.796875 27.296875 
Q 14.796875 17.390625 18.875 11.75 
Q 22.953125 6.109375 30.078125 6.109375 
Q 37.203125 6.109375 41.296875 11.75 
Q 45.40625 17.390625 45.40625 27.296875 
Q 45.40625 37.203125 41.296875 42.84375 
Q 37.203125 48.484375 30.078125 48.484375 
Q 22.953125 48.484375 18.875 42.84375 
Q 14.796875 37.203125 14.796875 27.296875 
z
" id="DejaVuSans-100"/>
     <path d="M 8.5 21.578125 
L 8.5 54.6875 
L 17.484375 54.6875 
L 17.484375 21.921875 
Q 17.484375 14.15625 20.5 10.265625 
Q 23.53125 6.390625 29.59375 6.390625 
Q 36.859375 6.390625 41.078125 11.03125 
Q 45.3125 15.671875 45.3125 23.6875 
L 45.3125 54.6875 
L 54.296875 54.6875 
L 54.296875 0 
L 45.3125 0 
L 45.3125 8.40625 
Q 42.046875 3.421875 37.71875 1 
Q 33.40625 -1.421875 27.6875 -1.421875 
Q 18.265625 -1.421875 13.375 4.4375 
Q 8.5 10.296875 8.5 21.578125 
z
M 31.109375 56 
z
" id="DejaVuSans-117"/>
     <path d="M 54.890625 33.015625 
L 54.890625 0 
L 45.90625 0 
L 45.90625 32.71875 
Q 45.90625 40.484375 42.875 44.328125 
Q 39.84375 48.1875 33.796875 48.1875 
Q 26.515625 48.1875 22.3125 43.546875 
Q 18.109375 38.921875 18.109375 30.90625 
L 18.109375 0 
L 9.078125 0 
L 9.078125 54.6875 
L 18.109375 54.6875 
L 18.109375 46.1875 
Q 21.34375 51.125 25.703125 53.5625 
Q 30.078125 56 35.796875 56 
Q 45.21875 56 50.046875 50.171875 
Q 54.890625 44.34375 54.890625 33.015625 
z
" id="DejaVuSans-110"/>
     <path d="M 41.109375 46.296875 
Q 39.59375 47.171875 37.8125 47.578125 
Q 36.03125 48 33.890625 48 
Q 26.265625 48 22.1875 43.046875 
Q 18.109375 38.09375 18.109375 28.8125 
L 18.109375 0 
L 9.078125 0 
L 9.078125 54.6875 
L 18.109375 54.6875 
L 18.109375 46.1875 
Q 20.953125 51.171875 25.484375 53.578125 
Q 30.03125 56 36.53125 56 
Q 37.453125 56 38.578125 55.875 
Q 39.703125 55.765625 41.0625 55.515625 
z
" id="DejaVuSans-114"/>
     <path d="M 9.421875 54.6875 
L 18.40625 54.6875 
L 18.40625 0 
L 9.421875 0 
z
M 9.421875 75.984375 
L 18.40625 75.984375 
L 18.40625 64.59375 
L 9.421875 64.59375 
z
" id="DejaVuSans-105"/>
     <path d="M 37.109375 75.984375 
L 37.109375 68.5 
L 28.515625 68.5 
Q 23.6875 68.5 21.796875 66.546875 
Q 19.921875 64.59375 19.921875 59.515625 
L 19.921875 54.6875 
L 34.71875 54.6875 
L 34.71875 47.703125 
L 19.921875 47.703125 
L 19.921875 0 
L 10.890625 0 
L 10.890625 47.703125 
L 2.296875 47.703125 
L 2.296875 54.6875 
L 10.890625 54.6875 
L 10.890625 58.5 
Q 10.890625 67.625 15.140625 71.796875 
Q 19.390625 75.984375 28.609375 75.984375 
z
" id="DejaVuSans-102"/>
     <path d="M 52 44.1875 
Q 55.375 50.25 60.0625 53.125 
Q 64.75 56 71.09375 56 
Q 79.640625 56 84.28125 50.015625 
Q 88.921875 44.046875 88.921875 33.015625 
L 88.921875 0 
L 79.890625 0 
L 79.890625 32.71875 
Q 79.890625 40.578125 77.09375 44.375 
Q 74.3125 48.1875 68.609375 48.1875 
Q 61.625 48.1875 57.5625 43.546875 
Q 53.515625 38.921875 53.515625 30.90625 
L 53.515625 0 
L 44.484375 0 
L 44.484375 32.71875 
Q 44.484375 40.625 41.703125 44.40625 
Q 38.921875 48.1875 33.109375 48.1875 
Q 26.21875 48.1875 22.15625 43.53125 
Q 18.109375 38.875 18.109375 30.90625 
L 18.109375 0 
L 9.078125 0 
L 9.078125 54.6875 
L 18.109375 54.6875 
L 18.109375 46.1875 
Q 21.1875 51.21875 25.484375 53.609375 
Q 29.78125 56 35.6875 56 
Q 41.65625 56 45.828125 52.96875 
Q 50 49.953125 52 44.1875 
z
" id="DejaVuSans-109"/>
     <path d="M 18.109375 8.203125 
L 18.109375 -20.796875 
L 9.078125 -20.796875 
L 9.078125 54.6875 
L 18.109375 54.6875 
L 18.109375 46.390625 
Q 20.953125 51.265625 25.265625 53.625 
Q 29.59375 56 35.59375 56 
Q 45.5625 56 51.78125 48.09375 
Q 58.015625 40.1875 58.015625 27.296875 
Q 58.015625 14.40625 51.78125 6.484375 
Q 45.5625 -1.421875 35.59375 -1.421875 
Q 29.59375 -1.421875 25.265625 0.953125 
Q 20.953125 3.328125 18.109375 8.203125 
z
M 48.6875 27.296875 
Q 48.6875 37.203125 44.609375 42.84375 
Q 40.53125 48.484375 33.40625 48.484375 
Q 26.265625 48.484375 22.1875 42.84375 
Q 18.109375 37.203125 18.109375 27.296875 
Q 18.109375 17.390625 22.1875 11.75 
Q 26.265625 6.109375 33.40625 6.109375 
Q 40.53125 6.109375 44.609375 11.75 
Q 48.6875 17.390625 48.6875 27.296875 
z
" id="DejaVuSans-112"/>
     <path d="M 40.578125 39.3125 
Q 47.65625 37.796875 51.625 33 
Q 55.609375 28.21875 55.609375 21.1875 
Q 55.609375 10.40625 48.1875 4.484375 
Q 40.765625 -1.421875 27.09375 -1.421875 
Q 22.515625 -1.421875 17.65625 -0.515625 
Q 12.796875 0.390625 7.625 2.203125 
L 7.625 11.71875 
Q 11.71875 9.328125 16.59375 8.109375 
Q 21.484375 6.890625 26.8125 6.890625 
Q 36.078125 6.890625 40.9375 10.546875 
Q 45.796875 14.203125 45.796875 21.1875 
Q 45.796875 27.640625 41.28125 31.265625 
Q 36.765625 34.90625 28.71875 34.90625 
L 20.21875 34.90625 
L 20.21875 43.015625 
L 29.109375 43.015625 
Q 36.375 43.015625 40.234375 45.921875 
Q 44.09375 48.828125 44.09375 54.296875 
Q 44.09375 59.90625 40.109375 62.90625 
Q 36.140625 65.921875 28.71875 65.921875 
Q 24.65625 65.921875 20.015625 65.03125 
Q 15.375 64.15625 9.8125 62.3125 
L 9.8125 71.09375 
Q 15.4375 72.65625 20.34375 73.4375 
Q 25.25 74.21875 29.59375 74.21875 
Q 40.828125 74.21875 47.359375 69.109375 
Q 53.90625 64.015625 53.90625 55.328125 
Q 53.90625 49.265625 50.4375 45.09375 
Q 46.96875 40.921875 40.578125 39.3125 
z
" id="DejaVuSans-51"/>
    </defs>
    <g transform="translate(236.33025 51.888)scale(0.12 -0.12)">
     <use xlink:href="#DejaVuSans-67"/>
     <use x="69.824219" xlink:href="#DejaVuSans-79"/>
     <use x="148.519531" xlink:href="#DejaVuSans-86"/>
     <use x="216.927734" xlink:href="#DejaVuSans-73"/>
     <use x="246.419922" xlink:href="#DejaVuSans-68"/>
     <use x="323.421875" xlink:href="#DejaVuSans-45"/>
     <use x="359.505859" xlink:href="#DejaVuSans-49"/>
     <use x="423.128906" xlink:href="#DejaVuSans-57"/>
     <use x="486.751953" xlink:href="#DejaVuSans-32"/>
     <use x="518.539062" xlink:href="#DejaVuSans-99"/>
     <use x="573.519531" xlink:href="#DejaVuSans-97"/>
     <use x="634.798828" xlink:href="#DejaVuSans-115"/>
     <use x="686.898438" xlink:href="#DejaVuSans-101"/>
     <use x="748.421875" xlink:href="#DejaVuSans-115"/>
     <use x="800.521484" xlink:href="#DejaVuSans-44"/>
     <use x="832.308594" xlink:href="#DejaVuSans-32"/>
     <use x="864.095703" xlink:href="#DejaVuSans-115"/>
     <use x="916.195312" xlink:href="#DejaVuSans-101"/>
     <use x="977.71875" xlink:href="#DejaVuSans-108"/>
     <use x="1005.501953" xlink:href="#DejaVuSans-101"/>
     <use x="1067.025391" xlink:href="#DejaVuSans-99"/>
     <use x="1122.005859" xlink:href="#DejaVuSans-116"/>
     <use x="1161.214844" xlink:href="#DejaVuSans-101"/>
     <use x="1222.738281" xlink:href="#DejaVuSans-100"/>
     <use x="1286.214844" xlink:href="#DejaVuSans-32"/>
     <use x="1318.001953" xlink:href="#DejaVuSans-99"/>
     <use x="1372.982422" xlink:href="#DejaVuSans-111"/>
     <use x="1434.164062" xlink:href="#DejaVuSans-117"/>
     <use x="1497.542969" xlink:href="#DejaVuSans-110"/>
     <use x="1560.921875" xlink:href="#DejaVuSans-116"/>
     <use x="1600.130859" xlink:href="#DejaVuSans-114"/>
     <use x="1641.244141" xlink:href="#DejaVuSans-105"/>
     <use x="1669.027344" xlink:href="#DejaVuSans-101"/>
     <use x="1730.550781" xlink:href="#DejaVuSans-115"/>
     <use x="1782.650391" xlink:href="#DejaVuSans-44"/>
     <use x="1814.4375" xlink:href="#DejaVuSans-32"/>
     <use x="1846.224609" xlink:href="#DejaVuSans-100"/>
     <use x="1909.701172" xlink:href="#DejaVuSans-97"/>
     <use x="1970.980469" xlink:href="#DejaVuSans-116"/>
     <use x="2010.189453" xlink:href="#DejaVuSans-97"/>
     <use x="2071.46875" xlink:href="#DejaVuSans-32"/>
     <use x="2103.255859" xlink:href="#DejaVuSans-102"/>
     <use x="2138.460938" xlink:href="#DejaVuSans-114"/>
     <use x="2179.542969" xlink:href="#DejaVuSans-111"/>
     <use x="2240.724609" xlink:href="#DejaVuSans-109"/>
     <use x="2338.136719" xlink:href="#DejaVuSans-32"/>
     <use x="2369.923828" xlink:href="#DejaVuSans-101"/>
     <use x="2431.447266" xlink:href="#DejaVuSans-99"/>
     <use x="2486.427734" xlink:href="#DejaVuSans-100"/>
     <use x="2549.904297" xlink:href="#DejaVuSans-99"/>
     <use x="2604.884766" xlink:href="#DejaVuSans-46"/>
     <use x="2636.671875" xlink:href="#DejaVuSans-101"/>
     <use x="2698.195312" xlink:href="#DejaVuSans-117"/>
     <use x="2761.574219" xlink:href="#DejaVuSans-114"/>
     <use x="2802.65625" xlink:href="#DejaVuSans-111"/>
     <use x="2863.837891" xlink:href="#DejaVuSans-112"/>
     <use x="2927.314453" xlink:href="#DejaVuSans-97"/>
     <use x="2988.59375" xlink:href="#DejaVuSans-46"/>
     <use x="3020.380859" xlink:href="#DejaVuSans-101"/>
     <use x="3081.904297" xlink:href="#DejaVuSans-117"/>
     <use x="3145.283203" xlink:href="#DejaVuSans-32"/>
     <use x="3177.070312" xlink:href="#DejaVuSans-97"/>
     <use x="3238.349609" xlink:href="#DejaVuSans-115"/>
     <use x="3290.449219" xlink:href="#DejaVuSans-32"/>
     <use x="3322.236328" xlink:href="#DejaVuSans-111"/>
     <use x="3383.417969" xlink:href="#DejaVuSans-102"/>
     <use x="3418.623047" xlink:href="#DejaVuSans-32"/>
     <use x="3450.410156" xlink:href="#DejaVuSans-50"/>
     <use x="3514.033203" xlink:href="#DejaVuSans-48"/>
     <use x="3577.65625" xlink:href="#DejaVuSans-50"/>
     <use x="3641.279297" xlink:href="#DejaVuSans-48"/>
     <use x="3704.902344" xlink:href="#DejaVuSans-45"/>
     <use x="3740.986328" xlink:href="#DejaVuSans-48"/>
     <use x="3804.609375" xlink:href="#DejaVuSans-51"/>
     <use x="3868.232422" xlink:href="#DejaVuSans-45"/>
     <use x="3904.316406" xlink:href="#DejaVuSans-50"/>
     <use x="3967.939453" xlink:href="#DejaVuSans-52"/>
    </g>
   </g>
   <g id="legend_1">
    <g id="patch_7">
     <path d="M 123.64 212.66925 
L 232.222813 212.66925 
Q 234.222813 212.66925 234.222813 210.66925 
L 234.222813 64.888 
Q 234.222813 62.888 232.222813 62.888 
L 123.64 62.888 
Q 121.64 62.888 121.64 64.888 
L 121.64 210.66925 
Q 121.64 212.66925 123.64 212.66925 
z
" style="fill:#ffffff;opacity:0.8;stroke:#cccccc;stroke-linejoin:miter;"/>
    </g>
    <g id="line2d_21">
     <path d="M 125.64 70.986438 
L 145.64 70.986438 
" style="fill:none;stroke:#1f77b4;stroke-linecap:square;stroke-width:1.5;"/>
    </g>
    <g id="line2d_22"/>
    <g id="text_13">
     <!-- Canada -->
     <g transform="translate(153.64 74.486438)scale(0.1 -0.1)">
      <use xlink:href="#DejaVuSans-67"/>
      <use x="69.824219" xlink:href="#DejaVuSans-97"/>
      <use x="131.103516" xlink:href="#DejaVuSans-110"/>
      <use x="194.482422" xlink:href="#DejaVuSans-97"/>
      <use x="255.761719" xlink:href="#DejaVuSans-100"/>
      <use x="319.238281" xlink:href="#DejaVuSans-97"/>
     </g>
    </g>
    <g id="line2d_23">
     <path d="M 125.64 85.664563 
L 145.64 85.664563 
" style="fill:none;stroke:#ff7f0e;stroke-linecap:square;stroke-width:1.5;"/>
    </g>
    <g id="line2d_24"/>
    <g id="text_14">
     <!-- China -->
     <defs>
      <path d="M 54.890625 33.015625 
L 54.890625 0 
L 45.90625 0 
L 45.90625 32.71875 
Q 45.90625 40.484375 42.875 44.328125 
Q 39.84375 48.1875 33.796875 48.1875 
Q 26.515625 48.1875 22.3125 43.546875 
Q 18.109375 38.921875 18.109375 30.90625 
L 18.109375 0 
L 9.078125 0 
L 9.078125 75.984375 
L 18.109375 75.984375 
L 18.109375 46.1875 
Q 21.34375 51.125 25.703125 53.5625 
Q 30.078125 56 35.796875 56 
Q 45.21875 56 50.046875 50.171875 
Q 54.890625 44.34375 54.890625 33.015625 
z
" id="DejaVuSans-104"/>
     </defs>
     <g transform="translate(153.64 89.164563)scale(0.1 -0.1)">
      <use xlink:href="#DejaVuSans-67"/>
      <use x="69.824219" xlink:href="#DejaVuSans-104"/>
      <use x="133.203125" xlink:href="#DejaVuSans-105"/>
      <use x="160.986328" xlink:href="#DejaVuSans-110"/>
      <use x="224.365234" xlink:href="#DejaVuSans-97"/>
     </g>
    </g>
    <g id="line2d_25">
     <path d="M 125.64 100.342688 
L 145.64 100.342688 
" style="fill:none;stroke:#2ca02c;stroke-linecap:square;stroke-width:1.5;"/>
    </g>
    <g id="line2d_26"/>
    <g id="text_15">
     <!-- Czech Republic -->
     <defs>
      <path d="M 5.515625 54.6875 
L 48.1875 54.6875 
L 48.1875 46.484375 
L 14.40625 7.171875 
L 48.1875 7.171875 
L 48.1875 0 
L 4.296875 0 
L 4.296875 8.203125 
L 38.09375 47.515625 
L 5.515625 47.515625 
z
" id="DejaVuSans-122"/>
      <path d="M 44.390625 34.1875 
Q 47.5625 33.109375 50.5625 29.59375 
Q 53.5625 26.078125 56.59375 19.921875 
L 66.609375 0 
L 56 0 
L 46.6875 18.703125 
Q 43.0625 26.03125 39.671875 28.421875 
Q 36.28125 30.8125 30.421875 30.8125 
L 19.671875 30.8125 
L 19.671875 0 
L 9.8125 0 
L 9.8125 72.90625 
L 32.078125 72.90625 
Q 44.578125 72.90625 50.734375 67.671875 
Q 56.890625 62.453125 56.890625 51.90625 
Q 56.890625 45.015625 53.6875 40.46875 
Q 50.484375 35.9375 44.390625 34.1875 
z
M 19.671875 64.796875 
L 19.671875 38.921875 
L 32.078125 38.921875 
Q 39.203125 38.921875 42.84375 42.21875 
Q 46.484375 45.515625 46.484375 51.90625 
Q 46.484375 58.296875 42.84375 61.546875 
Q 39.203125 64.796875 32.078125 64.796875 
z
" id="DejaVuSans-82"/>
      <path d="M 48.6875 27.296875 
Q 48.6875 37.203125 44.609375 42.84375 
Q 40.53125 48.484375 33.40625 48.484375 
Q 26.265625 48.484375 22.1875 42.84375 
Q 18.109375 37.203125 18.109375 27.296875 
Q 18.109375 17.390625 22.1875 11.75 
Q 26.265625 6.109375 33.40625 6.109375 
Q 40.53125 6.109375 44.609375 11.75 
Q 48.6875 17.390625 48.6875 27.296875 
z
M 18.109375 46.390625 
Q 20.953125 51.265625 25.265625 53.625 
Q 29.59375 56 35.59375 56 
Q 45.5625 56 51.78125 48.09375 
Q 58.015625 40.1875 58.015625 27.296875 
Q 58.015625 14.40625 51.78125 6.484375 
Q 45.5625 -1.421875 35.59375 -1.421875 
Q 29.59375 -1.421875 25.265625 0.953125 
Q 20.953125 3.328125 18.109375 8.203125 
L 18.109375 0 
L 9.078125 0 
L 9.078125 75.984375 
L 18.109375 75.984375 
z
" id="DejaVuSans-98"/>
     </defs>
     <g transform="translate(153.64 103.842688)scale(0.1 -0.1)">
      <use xlink:href="#DejaVuSans-67"/>
      <use x="69.824219" xlink:href="#DejaVuSans-122"/>
      <use x="122.314453" xlink:href="#DejaVuSans-101"/>
      <use x="183.837891" xlink:href="#DejaVuSans-99"/>
      <use x="238.818359" xlink:href="#DejaVuSans-104"/>
      <use x="302.197266" xlink:href="#DejaVuSans-32"/>
      <use x="333.984375" xlink:href="#DejaVuSans-82"/>
      <use x="403.404297" xlink:href="#DejaVuSans-101"/>
      <use x="464.927734" xlink:href="#DejaVuSans-112"/>
      <use x="528.404297" xlink:href="#DejaVuSans-117"/>
      <use x="591.783203" xlink:href="#DejaVuSans-98"/>
      <use x="655.259766" xlink:href="#DejaVuSans-108"/>
      <use x="683.042969" xlink:href="#DejaVuSans-105"/>
      <use x="710.826172" xlink:href="#DejaVuSans-99"/>
     </g>
    </g>
    <g id="line2d_27">
     <path d="M 125.64 115.020813 
L 145.64 115.020813 
" style="fill:none;stroke:#d62728;stroke-linecap:square;stroke-width:1.5;"/>
    </g>
    <g id="line2d_28"/>
    <g id="text_16">
     <!-- Denmark -->
     <defs>
      <path d="M 9.078125 75.984375 
L 18.109375 75.984375 
L 18.109375 31.109375 
L 44.921875 54.6875 
L 56.390625 54.6875 
L 27.390625 29.109375 
L 57.625 0 
L 45.90625 0 
L 18.109375 26.703125 
L 18.109375 0 
L 9.078125 0 
z
" id="DejaVuSans-107"/>
     </defs>
     <g transform="translate(153.64 118.520813)scale(0.1 -0.1)">
      <use xlink:href="#DejaVuSans-68"/>
      <use x="77.001953" xlink:href="#DejaVuSans-101"/>
      <use x="138.525391" xlink:href="#DejaVuSans-110"/>
      <use x="201.904297" xlink:href="#DejaVuSans-109"/>
      <use x="299.316406" xlink:href="#DejaVuSans-97"/>
      <use x="360.595703" xlink:href="#DejaVuSans-114"/>
      <use x="401.708984" xlink:href="#DejaVuSans-107"/>
     </g>
    </g>
    <g id="line2d_29">
     <path d="M 125.64 129.698938 
L 145.64 129.698938 
" style="fill:none;stroke:#9467bd;stroke-linecap:square;stroke-width:1.5;"/>
    </g>
    <g id="line2d_30"/>
    <g id="text_17">
     <!-- France -->
     <defs>
      <path d="M 9.8125 72.90625 
L 51.703125 72.90625 
L 51.703125 64.59375 
L 19.671875 64.59375 
L 19.671875 43.109375 
L 48.578125 43.109375 
L 48.578125 34.8125 
L 19.671875 34.8125 
L 19.671875 0 
L 9.8125 0 
z
" id="DejaVuSans-70"/>
     </defs>
     <g transform="translate(153.64 133.198938)scale(0.1 -0.1)">
      <use xlink:href="#DejaVuSans-70"/>
      <use x="57.410156" xlink:href="#DejaVuSans-114"/>
      <use x="98.523438" xlink:href="#DejaVuSans-97"/>
      <use x="159.802734" xlink:href="#DejaVuSans-110"/>
      <use x="223.181641" xlink:href="#DejaVuSans-99"/>
      <use x="278.162109" xlink:href="#DejaVuSans-101"/>
     </g>
    </g>
    <g id="line2d_31">
     <path d="M 125.64 144.377063 
L 145.64 144.377063 
" style="fill:none;stroke:#8c564b;stroke-linecap:square;stroke-width:1.5;"/>
    </g>
    <g id="line2d_32"/>
    <g id="text_18">
     <!-- Germany -->
     <defs>
      <path d="M 59.515625 10.40625 
L 59.515625 29.984375 
L 43.40625 29.984375 
L 43.40625 38.09375 
L 69.28125 38.09375 
L 69.28125 6.78125 
Q 63.578125 2.734375 56.6875 0.65625 
Q 49.8125 -1.421875 42 -1.421875 
Q 24.90625 -1.421875 15.25 8.5625 
Q 5.609375 18.5625 5.609375 36.375 
Q 5.609375 54.25 15.25 64.234375 
Q 24.90625 74.21875 42 74.21875 
Q 49.125 74.21875 55.546875 72.453125 
Q 61.96875 70.703125 67.390625 67.28125 
L 67.390625 56.78125 
Q 61.921875 61.421875 55.765625 63.765625 
Q 49.609375 66.109375 42.828125 66.109375 
Q 29.4375 66.109375 22.71875 58.640625 
Q 16.015625 51.171875 16.015625 36.375 
Q 16.015625 21.625 22.71875 14.15625 
Q 29.4375 6.6875 42.828125 6.6875 
Q 48.046875 6.6875 52.140625 7.59375 
Q 56.25 8.5 59.515625 10.40625 
z
" id="DejaVuSans-71"/>
      <path d="M 32.171875 -5.078125 
Q 28.375 -14.84375 24.75 -17.8125 
Q 21.140625 -20.796875 15.09375 -20.796875 
L 7.90625 -20.796875 
L 7.90625 -13.28125 
L 13.1875 -13.28125 
Q 16.890625 -13.28125 18.9375 -11.515625 
Q 21 -9.765625 23.484375 -3.21875 
L 25.09375 0.875 
L 2.984375 54.6875 
L 12.5 54.6875 
L 29.59375 11.921875 
L 46.6875 54.6875 
L 56.203125 54.6875 
z
" id="DejaVuSans-121"/>
     </defs>
     <g transform="translate(153.64 147.877063)scale(0.1 -0.1)">
      <use xlink:href="#DejaVuSans-71"/>
      <use x="77.490234" xlink:href="#DejaVuSans-101"/>
      <use x="139.013672" xlink:href="#DejaVuSans-114"/>
      <use x="180.111328" xlink:href="#DejaVuSans-109"/>
      <use x="277.523438" xlink:href="#DejaVuSans-97"/>
      <use x="338.802734" xlink:href="#DejaVuSans-110"/>
      <use x="402.181641" xlink:href="#DejaVuSans-121"/>
     </g>
    </g>
    <g id="line2d_33">
     <path d="M 125.64 159.055188 
L 145.64 159.055188 
" style="fill:none;stroke:#e377c2;stroke-linecap:square;stroke-width:1.5;"/>
    </g>
    <g id="line2d_34"/>
    <g id="text_19">
     <!-- Iran -->
     <g transform="translate(153.64 162.555188)scale(0.1 -0.1)">
      <use xlink:href="#DejaVuSans-73"/>
      <use x="29.492188" xlink:href="#DejaVuSans-114"/>
      <use x="70.605469" xlink:href="#DejaVuSans-97"/>
      <use x="131.884766" xlink:href="#DejaVuSans-110"/>
     </g>
    </g>
    <g id="line2d_35">
     <path d="M 125.64 173.733313 
L 145.64 173.733313 
" style="fill:none;stroke:#7f7f7f;stroke-linecap:square;stroke-width:1.5;"/>
    </g>
    <g id="line2d_36"/>
    <g id="text_20">
     <!-- Italy -->
     <g transform="translate(153.64 177.233313)scale(0.1 -0.1)">
      <use xlink:href="#DejaVuSans-73"/>
      <use x="29.492188" xlink:href="#DejaVuSans-116"/>
      <use x="68.701172" xlink:href="#DejaVuSans-97"/>
      <use x="129.980469" xlink:href="#DejaVuSans-108"/>
      <use x="157.763672" xlink:href="#DejaVuSans-121"/>
     </g>
    </g>
    <g id="line2d_37">
     <path d="M 125.64 188.411438 
L 145.64 188.411438 
" style="fill:none;stroke:#bcbd22;stroke-linecap:square;stroke-width:1.5;"/>
    </g>
    <g id="line2d_38"/>
    <g id="text_21">
     <!-- Slovakia -->
     <defs>
      <path d="M 53.515625 70.515625 
L 53.515625 60.890625 
Q 47.90625 63.578125 42.921875 64.890625 
Q 37.9375 66.21875 33.296875 66.21875 
Q 25.25 66.21875 20.875 63.09375 
Q 16.5 59.96875 16.5 54.203125 
Q 16.5 49.359375 19.40625 46.890625 
Q 22.3125 44.4375 30.421875 42.921875 
L 36.375 41.703125 
Q 47.40625 39.59375 52.65625 34.296875 
Q 57.90625 29 57.90625 20.125 
Q 57.90625 9.515625 50.796875 4.046875 
Q 43.703125 -1.421875 29.984375 -1.421875 
Q 24.8125 -1.421875 18.96875 -0.25 
Q 13.140625 0.921875 6.890625 3.21875 
L 6.890625 13.375 
Q 12.890625 10.015625 18.65625 8.296875 
Q 24.421875 6.59375 29.984375 6.59375 
Q 38.421875 6.59375 43.015625 9.90625 
Q 47.609375 13.234375 47.609375 19.390625 
Q 47.609375 24.75 44.3125 27.78125 
Q 41.015625 30.8125 33.5 32.328125 
L 27.484375 33.5 
Q 16.453125 35.6875 11.515625 40.375 
Q 6.59375 45.0625 6.59375 53.421875 
Q 6.59375 63.09375 13.40625 68.65625 
Q 20.21875 74.21875 32.171875 74.21875 
Q 37.3125 74.21875 42.625 73.28125 
Q 47.953125 72.359375 53.515625 70.515625 
z
" id="DejaVuSans-83"/>
      <path d="M 2.984375 54.6875 
L 12.5 54.6875 
L 29.59375 8.796875 
L 46.6875 54.6875 
L 56.203125 54.6875 
L 35.6875 0 
L 23.484375 0 
z
" id="DejaVuSans-118"/>
     </defs>
     <g transform="translate(153.64 191.911438)scale(0.1 -0.1)">
      <use xlink:href="#DejaVuSans-83"/>
      <use x="63.476562" xlink:href="#DejaVuSans-108"/>
      <use x="91.259766" xlink:href="#DejaVuSans-111"/>
      <use x="152.441406" xlink:href="#DejaVuSans-118"/>
      <use x="211.621094" xlink:href="#DejaVuSans-97"/>
      <use x="272.900391" xlink:href="#DejaVuSans-107"/>
      <use x="330.810547" xlink:href="#DejaVuSans-105"/>
      <use x="358.59375" xlink:href="#DejaVuSans-97"/>
     </g>
    </g>
    <g id="line2d_39">
     <path d="M 125.64 203.089562 
L 145.64 203.089562 
" style="fill:none;stroke:#17becf;stroke-linecap:square;stroke-width:1.5;"/>
    </g>
    <g id="line2d_40"/>
    <g id="text_22">
     <!-- Taiwan -->
     <defs>
      <path d="M -0.296875 72.90625 
L 61.375 72.90625 
L 61.375 64.59375 
L 35.5 64.59375 
L 35.5 0 
L 25.59375 0 
L 25.59375 64.59375 
L -0.296875 64.59375 
z
" id="DejaVuSans-84"/>
      <path d="M 4.203125 54.6875 
L 13.1875 54.6875 
L 24.421875 12.015625 
L 35.59375 54.6875 
L 46.1875 54.6875 
L 57.421875 12.015625 
L 68.609375 54.6875 
L 77.59375 54.6875 
L 63.28125 0 
L 52.6875 0 
L 40.921875 44.828125 
L 29.109375 0 
L 18.5 0 
z
" id="DejaVuSans-119"/>
     </defs>
     <g transform="translate(153.64 206.589562)scale(0.1 -0.1)">
      <use xlink:href="#DejaVuSans-84"/>
      <use x="60.833984" xlink:href="#DejaVuSans-97"/>
      <use x="122.113281" xlink:href="#DejaVuSans-105"/>
      <use x="149.896484" xlink:href="#DejaVuSans-119"/>
      <use x="231.683594" xlink:href="#DejaVuSans-97"/>
      <use x="292.962891" xlink:href="#DejaVuSans-110"/>
     </g>
    </g>
   </g>
  </g>
  <g id="axes_2">
   <g id="patch_8">
    <path d="M 116.64 429.336 
L 839.808 429.336 
L 839.808 260.496 
L 116.64 260.496 
z
" style="fill:#ffffff;"/>
   </g>
   <g id="matplotlib.axis_3">
    <g id="xtick_6">
     <g id="line2d_41">
      <g>
       <use style="stroke:#000000;stroke-width:0.8;" x="149.511273" xlink:href="#mdb6cf3ed12" y="429.336"/>
      </g>
     </g>
     <g id="text_23">
      <!-- 0 -->
      <g transform="translate(146.330023 443.934438)scale(0.1 -0.1)">
       <use xlink:href="#DejaVuSans-48"/>
      </g>
     </g>
    </g>
    <g id="xtick_7">
     <g id="line2d_42">
      <g>
       <use style="stroke:#000000;stroke-width:0.8;" x="306.041143" xlink:href="#mdb6cf3ed12" y="429.336"/>
      </g>
     </g>
     <g id="text_24">
      <!-- 20 -->
      <g transform="translate(299.678643 443.934438)scale(0.1 -0.1)">
       <use xlink:href="#DejaVuSans-50"/>
       <use x="63.623047" xlink:href="#DejaVuSans-48"/>
      </g>
     </g>
    </g>
    <g id="xtick_8">
     <g id="line2d_43">
      <g>
       <use style="stroke:#000000;stroke-width:0.8;" x="462.571013" xlink:href="#mdb6cf3ed12" y="429.336"/>
      </g>
     </g>
     <g id="text_25">
      <!-- 40 -->
      <g transform="translate(456.208513 443.934438)scale(0.1 -0.1)">
       <use xlink:href="#DejaVuSans-52"/>
       <use x="63.623047" xlink:href="#DejaVuSans-48"/>
      </g>
     </g>
    </g>
    <g id="xtick_9">
     <g id="line2d_44">
      <g>
       <use style="stroke:#000000;stroke-width:0.8;" x="619.100883" xlink:href="#mdb6cf3ed12" y="429.336"/>
      </g>
     </g>
     <g id="text_26">
      <!-- 60 -->
      <g transform="translate(612.738383 443.934438)scale(0.1 -0.1)">
       <use xlink:href="#DejaVuSans-54"/>
       <use x="63.623047" xlink:href="#DejaVuSans-48"/>
      </g>
     </g>
    </g>
    <g id="xtick_10">
     <g id="line2d_45">
      <g>
       <use style="stroke:#000000;stroke-width:0.8;" x="775.630753" xlink:href="#mdb6cf3ed12" y="429.336"/>
      </g>
     </g>
     <g id="text_27">
      <!-- 80 -->
      <g transform="translate(769.268253 443.934438)scale(0.1 -0.1)">
       <use xlink:href="#DejaVuSans-56"/>
       <use x="63.623047" xlink:href="#DejaVuSans-48"/>
      </g>
     </g>
    </g>
    <g id="text_28">
     <!-- days -->
     <g transform="translate(466.421656 457.612563)scale(0.1 -0.1)">
      <use xlink:href="#DejaVuSans-100"/>
      <use x="63.476562" xlink:href="#DejaVuSans-97"/>
      <use x="124.755859" xlink:href="#DejaVuSans-121"/>
      <use x="183.935547" xlink:href="#DejaVuSans-115"/>
     </g>
    </g>
   </g>
   <g id="matplotlib.axis_4">
    <g id="ytick_6">
     <g id="line2d_46">
      <g>
       <use style="stroke:#000000;stroke-width:0.8;" x="116.64" xlink:href="#mc99282bf28" y="421.661455"/>
      </g>
     </g>
     <g id="text_29">
      <!-- $\mathdefault{10^{0}}$ -->
      <g transform="translate(92.04 425.460673)scale(0.1 -0.1)">
       <use transform="translate(0 0.765625)" xlink:href="#DejaVuSans-49"/>
       <use transform="translate(63.623047 0.765625)" xlink:href="#DejaVuSans-48"/>
       <use transform="translate(128.203125 39.046875)scale(0.7)" xlink:href="#DejaVuSans-48"/>
      </g>
     </g>
    </g>
    <g id="ytick_7">
     <g id="line2d_47">
      <g>
       <use style="stroke:#000000;stroke-width:0.8;" x="116.64" xlink:href="#mc99282bf28" y="390.41634"/>
      </g>
     </g>
     <g id="text_30">
      <!-- $\mathdefault{10^{1}}$ -->
      <g transform="translate(92.04 394.215559)scale(0.1 -0.1)">
       <use transform="translate(0 0.684375)" xlink:href="#DejaVuSans-49"/>
       <use transform="translate(63.623047 0.684375)" xlink:href="#DejaVuSans-48"/>
       <use transform="translate(128.203125 38.965625)scale(0.7)" xlink:href="#DejaVuSans-49"/>
      </g>
     </g>
    </g>
    <g id="ytick_8">
     <g id="line2d_48">
      <g>
       <use style="stroke:#000000;stroke-width:0.8;" x="116.64" xlink:href="#mc99282bf28" y="359.171226"/>
      </g>
     </g>
     <g id="text_31">
      <!-- $\mathdefault{10^{2}}$ -->
      <g transform="translate(92.04 362.970445)scale(0.1 -0.1)">
       <use transform="translate(0 0.765625)" xlink:href="#DejaVuSans-49"/>
       <use transform="translate(63.623047 0.765625)" xlink:href="#DejaVuSans-48"/>
       <use transform="translate(128.203125 39.046875)scale(0.7)" xlink:href="#DejaVuSans-50"/>
      </g>
     </g>
    </g>
    <g id="ytick_9">
     <g id="line2d_49">
      <g>
       <use style="stroke:#000000;stroke-width:0.8;" x="116.64" xlink:href="#mc99282bf28" y="327.926112"/>
      </g>
     </g>
     <g id="text_32">
      <!-- $\mathdefault{10^{3}}$ -->
      <g transform="translate(92.04 331.725331)scale(0.1 -0.1)">
       <use transform="translate(0 0.765625)" xlink:href="#DejaVuSans-49"/>
       <use transform="translate(63.623047 0.765625)" xlink:href="#DejaVuSans-48"/>
       <use transform="translate(128.203125 39.046875)scale(0.7)" xlink:href="#DejaVuSans-51"/>
      </g>
     </g>
    </g>
    <g id="ytick_10">
     <g id="line2d_50">
      <g>
       <use style="stroke:#000000;stroke-width:0.8;" x="116.64" xlink:href="#mc99282bf28" y="296.680998"/>
      </g>
     </g>
     <g id="text_33">
      <!-- $\mathdefault{10^{4}}$ -->
      <g transform="translate(92.04 300.480217)scale(0.1 -0.1)">
       <use transform="translate(0 0.684375)" xlink:href="#DejaVuSans-49"/>
       <use transform="translate(63.623047 0.684375)" xlink:href="#DejaVuSans-48"/>
       <use transform="translate(128.203125 38.965625)scale(0.7)" xlink:href="#DejaVuSans-52"/>
      </g>
     </g>
    </g>
    <g id="ytick_11">
     <g id="line2d_51">
      <g>
       <use style="stroke:#000000;stroke-width:0.8;" x="116.64" xlink:href="#mc99282bf28" y="265.435884"/>
      </g>
     </g>
     <g id="text_34">
      <!-- $\mathdefault{10^{5}}$ -->
      <defs>
       <path d="M 10.796875 72.90625 
L 49.515625 72.90625 
L 49.515625 64.59375 
L 19.828125 64.59375 
L 19.828125 46.734375 
Q 21.96875 47.46875 24.109375 47.828125 
Q 26.265625 48.1875 28.421875 48.1875 
Q 40.625 48.1875 47.75 41.5 
Q 54.890625 34.8125 54.890625 23.390625 
Q 54.890625 11.625 47.5625 5.09375 
Q 40.234375 -1.421875 26.90625 -1.421875 
Q 22.3125 -1.421875 17.546875 -0.640625 
Q 12.796875 0.140625 7.71875 1.703125 
L 7.71875 11.625 
Q 12.109375 9.234375 16.796875 8.0625 
Q 21.484375 6.890625 26.703125 6.890625 
Q 35.15625 6.890625 40.078125 11.328125 
Q 45.015625 15.765625 45.015625 23.390625 
Q 45.015625 31 40.078125 35.4375 
Q 35.15625 39.890625 26.703125 39.890625 
Q 22.75 39.890625 18.8125 39.015625 
Q 14.890625 38.140625 10.796875 36.28125 
z
" id="DejaVuSans-53"/>
      </defs>
      <g transform="translate(92.04 269.235102)scale(0.1 -0.1)">
       <use transform="translate(0 0.684375)" xlink:href="#DejaVuSans-49"/>
       <use transform="translate(63.623047 0.684375)" xlink:href="#DejaVuSans-48"/>
       <use transform="translate(128.203125 38.965625)scale(0.7)" xlink:href="#DejaVuSans-53"/>
      </g>
     </g>
    </g>
    <g id="ytick_12">
     <g id="line2d_52">
      <defs>
       <path d="M 0 0 
L -2 0 
" id="m93c44a16d0" style="stroke:#000000;stroke-width:0.6;"/>
      </defs>
      <g>
       <use style="stroke:#000000;stroke-width:0.6;" x="116.64" xlink:href="#m93c44a16d0" y="428.593144"/>
      </g>
     </g>
    </g>
    <g id="ytick_13">
     <g id="line2d_53">
      <g>
       <use style="stroke:#000000;stroke-width:0.6;" x="116.64" xlink:href="#m93c44a16d0" y="426.501384"/>
      </g>
     </g>
    </g>
    <g id="ytick_14">
     <g id="line2d_54">
      <g>
       <use style="stroke:#000000;stroke-width:0.6;" x="116.64" xlink:href="#m93c44a16d0" y="424.689419"/>
      </g>
     </g>
    </g>
    <g id="ytick_15">
     <g id="line2d_55">
      <g>
       <use style="stroke:#000000;stroke-width:0.6;" x="116.64" xlink:href="#m93c44a16d0" y="423.091153"/>
      </g>
     </g>
    </g>
    <g id="ytick_16">
     <g id="line2d_56">
      <g>
       <use style="stroke:#000000;stroke-width:0.6;" x="116.64" xlink:href="#m93c44a16d0" y="412.255738"/>
      </g>
     </g>
    </g>
    <g id="ytick_17">
     <g id="line2d_57">
      <g>
       <use style="stroke:#000000;stroke-width:0.6;" x="116.64" xlink:href="#m93c44a16d0" y="406.753746"/>
      </g>
     </g>
    </g>
    <g id="ytick_18">
     <g id="line2d_58">
      <g>
       <use style="stroke:#000000;stroke-width:0.6;" x="116.64" xlink:href="#m93c44a16d0" y="402.850021"/>
      </g>
     </g>
    </g>
    <g id="ytick_19">
     <g id="line2d_59">
      <g>
       <use style="stroke:#000000;stroke-width:0.6;" x="116.64" xlink:href="#m93c44a16d0" y="399.822057"/>
      </g>
     </g>
    </g>
    <g id="ytick_20">
     <g id="line2d_60">
      <g>
       <use style="stroke:#000000;stroke-width:0.6;" x="116.64" xlink:href="#m93c44a16d0" y="397.34803"/>
      </g>
     </g>
    </g>
    <g id="ytick_21">
     <g id="line2d_61">
      <g>
       <use style="stroke:#000000;stroke-width:0.6;" x="116.64" xlink:href="#m93c44a16d0" y="395.25627"/>
      </g>
     </g>
    </g>
    <g id="ytick_22">
     <g id="line2d_62">
      <g>
       <use style="stroke:#000000;stroke-width:0.6;" x="116.64" xlink:href="#m93c44a16d0" y="393.444305"/>
      </g>
     </g>
    </g>
    <g id="ytick_23">
     <g id="line2d_63">
      <g>
       <use style="stroke:#000000;stroke-width:0.6;" x="116.64" xlink:href="#m93c44a16d0" y="391.846038"/>
      </g>
     </g>
    </g>
    <g id="ytick_24">
     <g id="line2d_64">
      <g>
       <use style="stroke:#000000;stroke-width:0.6;" x="116.64" xlink:href="#m93c44a16d0" y="381.010624"/>
      </g>
     </g>
    </g>
    <g id="ytick_25">
     <g id="line2d_65">
      <g>
       <use style="stroke:#000000;stroke-width:0.6;" x="116.64" xlink:href="#m93c44a16d0" y="375.508632"/>
      </g>
     </g>
    </g>
    <g id="ytick_26">
     <g id="line2d_66">
      <g>
       <use style="stroke:#000000;stroke-width:0.6;" x="116.64" xlink:href="#m93c44a16d0" y="371.604907"/>
      </g>
     </g>
    </g>
    <g id="ytick_27">
     <g id="line2d_67">
      <g>
       <use style="stroke:#000000;stroke-width:0.6;" x="116.64" xlink:href="#m93c44a16d0" y="368.576943"/>
      </g>
     </g>
    </g>
    <g id="ytick_28">
     <g id="line2d_68">
      <g>
       <use style="stroke:#000000;stroke-width:0.6;" x="116.64" xlink:href="#m93c44a16d0" y="366.102916"/>
      </g>
     </g>
    </g>
    <g id="ytick_29">
     <g id="line2d_69">
      <g>
       <use style="stroke:#000000;stroke-width:0.6;" x="116.64" xlink:href="#m93c44a16d0" y="364.011156"/>
      </g>
     </g>
    </g>
    <g id="ytick_30">
     <g id="line2d_70">
      <g>
       <use style="stroke:#000000;stroke-width:0.6;" x="116.64" xlink:href="#m93c44a16d0" y="362.199191"/>
      </g>
     </g>
    </g>
    <g id="ytick_31">
     <g id="line2d_71">
      <g>
       <use style="stroke:#000000;stroke-width:0.6;" x="116.64" xlink:href="#m93c44a16d0" y="360.600924"/>
      </g>
     </g>
    </g>
    <g id="ytick_32">
     <g id="line2d_72">
      <g>
       <use style="stroke:#000000;stroke-width:0.6;" x="116.64" xlink:href="#m93c44a16d0" y="349.76551"/>
      </g>
     </g>
    </g>
    <g id="ytick_33">
     <g id="line2d_73">
      <g>
       <use style="stroke:#000000;stroke-width:0.6;" x="116.64" xlink:href="#m93c44a16d0" y="344.263518"/>
      </g>
     </g>
    </g>
    <g id="ytick_34">
     <g id="line2d_74">
      <g>
       <use style="stroke:#000000;stroke-width:0.6;" x="116.64" xlink:href="#m93c44a16d0" y="340.359793"/>
      </g>
     </g>
    </g>
    <g id="ytick_35">
     <g id="line2d_75">
      <g>
       <use style="stroke:#000000;stroke-width:0.6;" x="116.64" xlink:href="#m93c44a16d0" y="337.331829"/>
      </g>
     </g>
    </g>
    <g id="ytick_36">
     <g id="line2d_76">
      <g>
       <use style="stroke:#000000;stroke-width:0.6;" x="116.64" xlink:href="#m93c44a16d0" y="334.857801"/>
      </g>
     </g>
    </g>
    <g id="ytick_37">
     <g id="line2d_77">
      <g>
       <use style="stroke:#000000;stroke-width:0.6;" x="116.64" xlink:href="#m93c44a16d0" y="332.766041"/>
      </g>
     </g>
    </g>
    <g id="ytick_38">
     <g id="line2d_78">
      <g>
       <use style="stroke:#000000;stroke-width:0.6;" x="116.64" xlink:href="#m93c44a16d0" y="330.954076"/>
      </g>
     </g>
    </g>
    <g id="ytick_39">
     <g id="line2d_79">
      <g>
       <use style="stroke:#000000;stroke-width:0.6;" x="116.64" xlink:href="#m93c44a16d0" y="329.35581"/>
      </g>
     </g>
    </g>
    <g id="ytick_40">
     <g id="line2d_80">
      <g>
       <use style="stroke:#000000;stroke-width:0.6;" x="116.64" xlink:href="#m93c44a16d0" y="318.520395"/>
      </g>
     </g>
    </g>
    <g id="ytick_41">
     <g id="line2d_81">
      <g>
       <use style="stroke:#000000;stroke-width:0.6;" x="116.64" xlink:href="#m93c44a16d0" y="313.018404"/>
      </g>
     </g>
    </g>
    <g id="ytick_42">
     <g id="line2d_82">
      <g>
       <use style="stroke:#000000;stroke-width:0.6;" x="116.64" xlink:href="#m93c44a16d0" y="309.114679"/>
      </g>
     </g>
    </g>
    <g id="ytick_43">
     <g id="line2d_83">
      <g>
       <use style="stroke:#000000;stroke-width:0.6;" x="116.64" xlink:href="#m93c44a16d0" y="306.086714"/>
      </g>
     </g>
    </g>
    <g id="ytick_44">
     <g id="line2d_84">
      <g>
       <use style="stroke:#000000;stroke-width:0.6;" x="116.64" xlink:href="#m93c44a16d0" y="303.612687"/>
      </g>
     </g>
    </g>
    <g id="ytick_45">
     <g id="line2d_85">
      <g>
       <use style="stroke:#000000;stroke-width:0.6;" x="116.64" xlink:href="#m93c44a16d0" y="301.520927"/>
      </g>
     </g>
    </g>
    <g id="ytick_46">
     <g id="line2d_86">
      <g>
       <use style="stroke:#000000;stroke-width:0.6;" x="116.64" xlink:href="#m93c44a16d0" y="299.708962"/>
      </g>
     </g>
    </g>
    <g id="ytick_47">
     <g id="line2d_87">
      <g>
       <use style="stroke:#000000;stroke-width:0.6;" x="116.64" xlink:href="#m93c44a16d0" y="298.110696"/>
      </g>
     </g>
    </g>
    <g id="ytick_48">
     <g id="line2d_88">
      <g>
       <use style="stroke:#000000;stroke-width:0.6;" x="116.64" xlink:href="#m93c44a16d0" y="287.275281"/>
      </g>
     </g>
    </g>
    <g id="ytick_49">
     <g id="line2d_89">
      <g>
       <use style="stroke:#000000;stroke-width:0.6;" x="116.64" xlink:href="#m93c44a16d0" y="281.77329"/>
      </g>
     </g>
    </g>
    <g id="ytick_50">
     <g id="line2d_90">
      <g>
       <use style="stroke:#000000;stroke-width:0.6;" x="116.64" xlink:href="#m93c44a16d0" y="277.869565"/>
      </g>
     </g>
    </g>
    <g id="ytick_51">
     <g id="line2d_91">
      <g>
       <use style="stroke:#000000;stroke-width:0.6;" x="116.64" xlink:href="#m93c44a16d0" y="274.8416"/>
      </g>
     </g>
    </g>
    <g id="ytick_52">
     <g id="line2d_92">
      <g>
       <use style="stroke:#000000;stroke-width:0.6;" x="116.64" xlink:href="#m93c44a16d0" y="272.367573"/>
      </g>
     </g>
    </g>
    <g id="ytick_53">
     <g id="line2d_93">
      <g>
       <use style="stroke:#000000;stroke-width:0.6;" x="116.64" xlink:href="#m93c44a16d0" y="270.275813"/>
      </g>
     </g>
    </g>
    <g id="ytick_54">
     <g id="line2d_94">
      <g>
       <use style="stroke:#000000;stroke-width:0.6;" x="116.64" xlink:href="#m93c44a16d0" y="268.463848"/>
      </g>
     </g>
    </g>
    <g id="ytick_55">
     <g id="line2d_95">
      <g>
       <use style="stroke:#000000;stroke-width:0.6;" x="116.64" xlink:href="#m93c44a16d0" y="266.865582"/>
      </g>
     </g>
    </g>
    <g id="text_35">
     <!-- No. cases -->
     <g transform="translate(85.960313 368.992563)rotate(-90)scale(0.1 -0.1)">
      <use xlink:href="#DejaVuSans-78"/>
      <use x="74.804688" xlink:href="#DejaVuSans-111"/>
      <use x="135.970703" xlink:href="#DejaVuSans-46"/>
      <use x="167.757812" xlink:href="#DejaVuSans-32"/>
      <use x="199.544922" xlink:href="#DejaVuSans-99"/>
      <use x="254.525391" xlink:href="#DejaVuSans-97"/>
      <use x="315.804688" xlink:href="#DejaVuSans-115"/>
      <use x="367.904297" xlink:href="#DejaVuSans-101"/>
      <use x="429.427734" xlink:href="#DejaVuSans-115"/>
     </g>
    </g>
   </g>
   <g id="line2d_96">
    <path clip-path="url(#p7ad1dbea6c)" d="M 149.511273 421.661455 
L 157.337766 421.661455 
L 165.16426 412.255738 
L 172.990753 406.753746 
L 180.817247 406.753746 
L 188.64374 406.753746 
L 196.470234 402.850021 
L 204.296727 402.850021 
L 212.123221 402.850021 
L 219.949714 402.850021 
L 227.776208 399.822057 
L 235.602701 399.822057 
L 243.429195 395.25627 
L 251.255688 395.25627 
L 259.082182 395.25627 
L 266.908675 395.25627 
L 274.735169 395.25627 
L 282.561662 395.25627 
L 290.388156 395.25627 
L 298.214649 395.25627 
L 306.041143 393.444305 
L 313.867636 393.444305 
L 321.69413 393.444305 
L 329.520623 393.444305 
L 337.347117 393.444305 
L 345.17361 393.444305 
L 353.000104 391.846038 
L 360.826597 391.846038 
L 368.653091 391.846038 
L 376.479584 391.846038 
L 384.306078 389.123021 
L 392.132571 389.123021 
L 399.959065 387.942313 
L 407.785558 385.850553 
L 415.612052 384.038588 
L 423.438545 381.010624 
L 431.265039 378.536597 
L 439.091532 376.93833 
L 446.918026 375.508632 
L 454.744519 374.215313 
L 462.571013 370.006641 
L 470.397506 368.308229 
L 478.224 366.798944 
L 486.050494 365.657972 
L 493.876987 362.717836 
L 501.703481 360.15598 
L 509.529974 358.770126 
L 517.356468 354.800688 
L 525.182961 351.500155 
L 533.009455 347.067187 
L 540.835948 344.083786 
L 548.662442 339.569108 
L 556.488935 336.063204 
L 564.315429 330.802271 
L 572.141922 327.817987 
L 579.968416 325.183372 
" style="fill:none;stroke:#1f77b4;stroke-linecap:square;stroke-width:1.5;"/>
   </g>
   <g id="line2d_97">
    <path clip-path="url(#p7ad1dbea6c)" d="M 149.511273 376.93833 
L 157.337766 376.93833 
L 165.16426 376.93833 
L 172.990753 370.311588 
L 180.817247 370.311588 
L 188.64374 366.330981 
L 196.470234 366.330981 
L 204.296727 366.330981 
L 212.123221 366.330981 
L 219.949714 366.330981 
L 227.776208 366.330981 
L 235.602701 366.330981 
L 243.429195 366.330981 
L 251.255688 366.330981 
L 259.082182 366.330981 
L 266.908675 366.330981 
L 274.735169 366.330981 
L 282.561662 365.440854 
L 290.388156 362.199191 
L 298.214649 348.721181 
L 306.041143 347.577168 
L 313.867636 340.843239 
L 321.69413 336.643944 
L 329.520623 334.347356 
L 337.347117 329.629952 
L 345.17361 324.127961 
L 353.000104 318.602058 
L 360.826597 314.076309 
L 368.653091 307.432241 
L 376.479584 303.626264 
L 384.306078 300.167822 
L 392.132571 297.074746 
L 399.959065 294.424691 
L 407.785558 291.733886 
L 415.612052 289.313209 
L 423.438545 286.974677 
L 431.265039 284.621522 
L 439.091532 282.686736 
L 446.918026 281.238037 
L 454.744519 279.827702 
L 462.571013 278.842651 
L 470.397506 277.799861 
L 478.224 276.984478 
L 486.050494 276.354781 
L 493.876987 272.398139 
L 501.703481 271.487361 
L 509.529974 270.959808 
L 517.356468 270.556682 
L 525.182961 270.156539 
L 533.009455 269.798141 
L 540.835948 269.474526 
L 548.662442 269.402718 
L 556.488935 269.241719 
L 564.315429 269.094152 
L 572.141922 268.979674 
L 579.968416 268.941319 
L 587.794909 268.851137 
L 595.621403 268.779767 
L 603.447896 268.703763 
L 611.27439 268.647082 
L 619.100883 268.573696 
L 626.927377 268.475896 
L 634.75387 268.441138 
L 642.580364 268.419649 
L 650.406857 268.399545 
L 658.233351 268.379808 
L 666.059844 268.351181 
L 673.886338 268.334201 
L 681.712831 268.326475 
L 689.539325 268.318921 
L 697.365818 268.315565 
L 705.192312 268.310701 
L 713.018805 268.306676 
L 720.845299 268.302988 
L 728.671792 268.299804 
L 736.498286 268.296117 
L 744.324779 268.29193 
L 752.151273 268.273519 
L 759.977766 268.268 
L 767.80426 268.255467 
L 775.630753 268.238941 
L 783.457247 268.225767 
L 791.28374 268.211941 
L 799.110234 268.186989 
L 806.936727 268.170545 
" style="fill:none;stroke:#ff7f0e;stroke-linecap:square;stroke-width:1.5;"/>
   </g>
   <g id="line2d_98">
    <path clip-path="url(#p7ad1dbea6c)" d="M 149.511273 406.753746 
L 157.337766 399.822057 
L 165.16426 399.822057 
L 172.990753 393.444305 
L 180.817247 387.942313 
L 188.64374 381.706652 
L 196.470234 377.450451 
L 204.296727 374.632872 
L 212.123221 371.604907 
L 219.949714 365.440854 
L 227.776208 360.010849 
L 235.602701 357.157229 
L 243.429195 353.669235 
L 251.255688 348.84741 
L 259.082182 344.354285 
L 266.908675 342.406396 
L 274.735169 339.252787 
L 282.561662 336.747529 
L 290.388156 332.882853 
L 298.214649 329.295634 
L 306.041143 327.99413 
L 313.867636 325.853751 
L 321.69413 325.050984 
" style="fill:none;stroke:#2ca02c;stroke-linecap:square;stroke-width:1.5;"/>
   </g>
   <g id="line2d_99">
    <path clip-path="url(#p7ad1dbea6c)" d="M 149.511273 421.661455 
L 157.337766 421.661455 
L 165.16426 412.255738 
L 172.990753 406.753746 
L 180.817247 402.850021 
L 188.64374 399.822057 
L 196.470234 393.444305 
L 204.296727 390.41634 
L 212.123221 381.010624 
L 219.949714 379.114113 
L 227.776208 375.063688 
L 235.602701 372.300936 
L 243.429195 357.512784 
L 251.255688 345.998163 
L 259.082182 336.904405 
L 266.908675 333.239447 
L 274.735169 330.886398 
L 282.561662 330.503662 
L 290.388156 329.738077 
L 298.214649 328.881715 
L 306.041143 327.604289 
L 313.867636 326.449003 
L 321.69413 326.017807 
L 329.520623 324.843977 
L 337.347117 324.097226 
L 345.17361 323.408874 
L 353.000104 322.790888 
" style="fill:none;stroke:#d62728;stroke-linecap:square;stroke-width:1.5;"/>
   </g>
   <g id="line2d_100">
    <path clip-path="url(#p7ad1dbea6c)" d="M 149.511273 406.753746 
L 157.337766 406.753746 
L 165.16426 406.753746 
L 172.990753 406.753746 
L 180.817247 402.850021 
L 188.64374 399.822057 
L 196.470234 397.34803 
L 204.296727 397.34803 
L 212.123221 397.34803 
L 219.949714 397.34803 
L 227.776208 397.34803 
L 235.602701 397.34803 
L 243.429195 397.34803 
L 251.255688 397.34803 
L 259.082182 389.123021 
L 266.908675 389.123021 
L 274.735169 389.123021 
L 282.561662 389.123021 
L 290.388156 389.123021 
L 298.214649 389.123021 
L 306.041143 389.123021 
L 313.867636 389.123021 
L 321.69413 389.123021 
L 329.520623 387.942313 
L 337.347117 387.942313 
L 345.17361 387.942313 
L 353.000104 387.942313 
L 360.826597 387.942313 
L 368.653091 387.942313 
L 376.479584 387.942313 
L 384.306078 387.942313 
L 392.132571 387.942313 
L 399.959065 385.850553 
L 407.785558 383.215937 
L 415.612052 372.300936 
L 423.438545 366.798944 
L 431.265039 359.171226 
L 439.091532 355.611053 
L 446.918026 351.346825 
L 454.744519 348.974825 
L 462.571013 344.959547 
L 470.397506 339.60115 
L 478.224 334.566934 
L 486.050494 332.459371 
L 493.876987 326.315789 
L 501.703481 323.24451 
L 509.529974 320.071251 
L 517.356468 316.736447 
L 525.182961 313.591201 
L 533.009455 310.316374 
L 540.835948 307.519428 
L 548.662442 304.984712 
L 556.488935 302.251689 
L 564.315429 300.174842 
L 572.141922 297.910149 
L 579.968416 295.393848 
L 587.794909 293.531991 
L 595.621403 291.67746 
L 603.447896 290.287988 
L 611.27439 287.373336 
" style="fill:none;stroke:#9467bd;stroke-linecap:square;stroke-width:1.5;"/>
   </g>
   <g id="line2d_101">
    <path clip-path="url(#p7ad1dbea6c)" d="M 149.511273 421.661455 
L 157.337766 402.850021 
L 165.16426 402.850021 
L 172.990753 399.822057 
L 180.817247 395.25627 
L 188.64374 393.444305 
L 196.470234 391.846038 
L 204.296727 389.123021 
L 212.123221 389.123021 
L 219.949714 389.123021 
L 227.776208 387.942313 
L 235.602701 386.856167 
L 243.429195 386.856167 
L 251.255688 386.856167 
L 259.082182 386.856167 
L 266.908675 384.914349 
L 274.735169 384.914349 
L 282.561662 384.914349 
L 290.388156 384.914349 
L 298.214649 384.914349 
L 306.041143 384.914349 
L 313.867636 384.914349 
L 321.69413 384.914349 
L 329.520623 384.914349 
L 337.347117 384.914349 
L 345.17361 384.914349 
L 353.000104 384.914349 
L 360.826597 384.914349 
L 368.653091 384.914349 
L 376.479584 383.215937 
L 384.306078 380.348562 
L 392.132571 369.416566 
L 399.959065 366.798944 
L 407.785558 357.755105 
L 415.612052 355.715838 
L 423.438545 353.050319 
L 431.265039 350.039652 
L 439.091532 346.101355 
L 446.918026 340.359793 
L 454.744519 333.079803 
L 462.571013 330.179403 
L 470.397506 329.325689 
L 478.224 326.160022 
L 486.050494 324.407756 
L 493.876987 321.831159 
L 501.703481 316.222784 
L 509.529974 312.740824 
L 517.356468 309.828574 
L 525.182961 306.533649 
L 533.009455 303.585575 
L 540.835948 301.22184 
L 548.662442 299.377204 
L 556.488935 291.982108 
L 564.315429 288.564734 
L 572.141922 286.317293 
L 579.968416 284.370544 
L 587.794909 282.134482 
" style="fill:none;stroke:#8c564b;stroke-linecap:square;stroke-width:1.5;"/>
   </g>
   <g id="line2d_102">
    <path clip-path="url(#p7ad1dbea6c)" d="M 149.511273 412.255738 
L 157.337766 399.822057 
L 165.16426 382.440322 
L 172.990753 376.444837 
L 180.817247 370.623546 
L 188.64374 365.87862 
L 196.470234 359.867255 
L 204.296727 354.702712 
L 212.123221 347.011687 
L 219.949714 340.773112 
L 227.776208 335.017044 
L 235.602701 328.227976 
L 243.429195 322.415077 
L 251.255688 316.413136 
L 259.082182 313.375881 
L 266.908675 310.876336 
L 274.735169 306.791316 
L 282.561662 304.019013 
L 290.388156 302.389453 
L 298.214649 301.212362 
L 306.041143 299.637908 
L 313.867636 298.110696 
L 321.69413 296.579606 
L 329.520623 294.945918 
L 337.347117 293.406688 
L 345.17361 292.175438 
L 353.000104 291.18715 
L 360.826597 290.160669 
L 368.653091 289.195458 
L 376.479584 288.401573 
L 384.306078 287.518995 
L 392.132571 286.867595 
L 399.959065 286.207101 
L 407.785558 285.349892 
" style="fill:none;stroke:#e377c2;stroke-linecap:square;stroke-width:1.5;"/>
   </g>
   <g id="line2d_103">
    <path clip-path="url(#p7ad1dbea6c)" d="M 149.511273 406.753746 
L 157.337766 406.753746 
L 165.16426 406.753746 
L 172.990753 406.753746 
L 180.817247 406.753746 
L 188.64374 406.753746 
L 196.470234 406.753746 
L 204.296727 406.753746 
L 212.123221 406.753746 
L 219.949714 406.753746 
L 227.776208 406.753746 
L 235.602701 406.753746 
L 243.429195 406.753746 
L 251.255688 406.753746 
L 259.082182 406.753746 
L 266.908675 406.753746 
L 274.735169 406.753746 
L 282.561662 406.753746 
L 290.388156 406.753746 
L 298.214649 406.753746 
L 306.041143 406.753746 
L 313.867636 406.753746 
L 321.69413 383.215937 
L 329.520623 362.369879 
L 337.347117 355.40388 
L 345.17361 347.928125 
L 353.000104 343.303211 
L 360.826597 340.359793 
L 368.653091 333.771656 
L 376.479584 329.537955 
L 384.306078 326.291708 
L 392.132571 320.813798 
L 399.959065 319.688773 
L 407.785558 315.48158 
L 415.612052 312.621695 
L 423.438545 309.605157 
L 431.265039 307.112385 
L 439.091532 303.879908 
L 446.918026 300.812788 
L 454.744519 297.853813 
L 462.571013 296.480303 
L 470.397506 293.694348 
L 478.224 291.077165 
L 486.050494 288.963745 
L 493.876987 288.894767 
L 501.703481 284.812567 
L 509.529974 282.71919 
L 517.356468 281.108643 
L 525.182961 279.407876 
L 533.009455 277.522917 
L 540.835948 275.675162 
L 548.662442 273.903731 
L 556.488935 272.563937 
L 564.315429 271.507299 
" style="fill:none;stroke:#7f7f7f;stroke-linecap:square;stroke-width:1.5;"/>
   </g>
   <g id="line2d_104">
    <path clip-path="url(#p7ad1dbea6c)" d="M 149.511273 421.661455 
L 157.337766 406.753746 
L 165.16426 399.822057 
L 172.990753 395.25627 
L 180.817247 390.41634 
L 188.64374 380.348562 
L 196.470234 375.508632 
L 204.296727 370.311588 
L 212.123221 365.87862 
L 219.949714 361.537129 
L 227.776208 359.584545 
L 235.602701 358.253127 
L 243.429195 356.362131 
L 251.255688 354.899376 
L 259.082182 351.346825 
L 266.908675 350.823415 
L 274.735169 350.390307 
" style="fill:none;stroke:#bcbd22;stroke-linecap:square;stroke-width:1.5;"/>
   </g>
   <g id="line2d_105">
    <path clip-path="url(#p7ad1dbea6c)" d="M 149.511273 421.661455 
L 157.337766 421.661455 
L 165.16426 421.661455 
L 172.990753 421.661455 
L 180.817247 406.753746 
L 188.64374 406.753746 
L 196.470234 399.822057 
L 204.296727 395.25627 
L 212.123221 393.444305 
L 219.949714 393.444305 
L 227.776208 391.846038 
L 235.602701 390.41634 
L 243.429195 390.41634 
L 251.255688 390.41634 
L 259.082182 390.41634 
L 266.908675 389.123021 
L 274.735169 389.123021 
L 282.561662 384.038588 
L 290.388156 383.215937 
L 298.214649 382.440322 
L 306.041143 382.440322 
L 313.867636 382.440322 
L 321.69413 382.440322 
L 329.520623 382.440322 
L 337.347117 382.440322 
L 345.17361 382.440322 
L 353.000104 382.440322 
L 360.826597 381.010624 
L 368.653091 379.717305 
L 376.479584 379.717305 
L 384.306078 378.536597 
L 392.132571 378.536597 
L 399.959065 377.450451 
L 407.785558 377.450451 
L 415.612052 376.444837 
L 423.438545 375.508632 
L 431.265039 375.063688 
L 439.091532 374.632872 
L 446.918026 373.810221 
L 454.744519 371.948459 
L 462.571013 371.604907 
L 470.397506 371.604907 
L 478.224 371.269839 
L 486.050494 370.942845 
L 493.876987 370.311588 
L 501.703481 370.006641 
L 509.529974 370.006641 
L 517.356468 370.006641 
L 525.182961 369.13088 
L 533.009455 369.13088 
L 540.835948 368.851085 
L 548.662442 367.786258 
L 556.488935 366.330981 
L 564.315429 366.330981 
L 572.141922 364.605539 
L 579.968416 362.717836 
L 587.794909 358.126897 
L 595.621403 358.126897 
L 603.447896 355.098933 
L 611.27439 353.400521 
L 619.100883 352.375915 
L 626.927377 350.109062 
" style="fill:none;stroke:#17becf;stroke-linecap:square;stroke-width:1.5;"/>
   </g>
   <g id="patch_9">
    <path d="M 116.64 429.336 
L 116.64 260.496 
" style="fill:none;stroke:#000000;stroke-linecap:square;stroke-linejoin:miter;stroke-width:0.8;"/>
   </g>
   <g id="patch_10">
    <path d="M 839.808 429.336 
L 839.808 260.496 
" style="fill:none;stroke:#000000;stroke-linecap:square;stroke-linejoin:miter;stroke-width:0.8;"/>
   </g>
   <g id="patch_11">
    <path d="M 116.64 429.336 
L 839.808 429.336 
" style="fill:none;stroke:#000000;stroke-linecap:square;stroke-linejoin:miter;stroke-width:0.8;"/>
   </g>
   <g id="patch_12">
    <path d="M 116.64 260.496 
L 839.808 260.496 
" style="fill:none;stroke:#000000;stroke-linecap:square;stroke-linejoin:miter;stroke-width:0.8;"/>
   </g>
   <g id="text_36">
    <!-- Log scale -->
    <defs>
     <path d="M 9.8125 72.90625 
L 19.671875 72.90625 
L 19.671875 8.296875 
L 55.171875 8.296875 
L 55.171875 0 
L 9.8125 0 
z
" id="DejaVuSans-76"/>
     <path d="M 45.40625 27.984375 
Q 45.40625 37.75 41.375 43.109375 
Q 37.359375 48.484375 30.078125 48.484375 
Q 22.859375 48.484375 18.828125 43.109375 
Q 14.796875 37.75 14.796875 27.984375 
Q 14.796875 18.265625 18.828125 12.890625 
Q 22.859375 7.515625 30.078125 7.515625 
Q 37.359375 7.515625 41.375 12.890625 
Q 45.40625 18.265625 45.40625 27.984375 
z
M 54.390625 6.78125 
Q 54.390625 -7.171875 48.1875 -13.984375 
Q 42 -20.796875 29.203125 -20.796875 
Q 24.46875 -20.796875 20.265625 -20.09375 
Q 16.0625 -19.390625 12.109375 -17.921875 
L 12.109375 -9.1875 
Q 16.0625 -11.328125 19.921875 -12.34375 
Q 23.78125 -13.375 27.78125 -13.375 
Q 36.625 -13.375 41.015625 -8.765625 
Q 45.40625 -4.15625 45.40625 5.171875 
L 45.40625 9.625 
Q 42.625 4.78125 38.28125 2.390625 
Q 33.9375 0 27.875 0 
Q 17.828125 0 11.671875 7.65625 
Q 5.515625 15.328125 5.515625 27.984375 
Q 5.515625 40.671875 11.671875 48.328125 
Q 17.828125 56 27.875 56 
Q 33.9375 56 38.28125 53.609375 
Q 42.625 51.21875 45.40625 46.390625 
L 45.40625 54.6875 
L 54.390625 54.6875 
z
" id="DejaVuSans-103"/>
    </defs>
    <g transform="translate(450.034313 254.496)scale(0.12 -0.12)">
     <use xlink:href="#DejaVuSans-76"/>
     <use x="55.697266" xlink:href="#DejaVuSans-111"/>
     <use x="116.878906" xlink:href="#DejaVuSans-103"/>
     <use x="180.355469" xlink:href="#DejaVuSans-32"/>
     <use x="212.142578" xlink:href="#DejaVuSans-115"/>
     <use x="264.242188" xlink:href="#DejaVuSans-99"/>
     <use x="319.222656" xlink:href="#DejaVuSans-97"/>
     <use x="380.501953" xlink:href="#DejaVuSans-108"/>
     <use x="408.285156" xlink:href="#DejaVuSans-101"/>
    </g>
   </g>
   <g id="legend_2">
    <g id="patch_13">
     <path d="M 724.225188 424.336 
L 832.808 424.336 
Q 834.808 424.336 834.808 422.336 
L 834.808 276.55475 
Q 834.808 274.55475 832.808 274.55475 
L 724.225188 274.55475 
Q 722.225188 274.55475 722.225188 276.55475 
L 722.225188 422.336 
Q 722.225188 424.336 724.225188 424.336 
z
" style="fill:#ffffff;opacity:0.8;stroke:#cccccc;stroke-linejoin:miter;"/>
    </g>
    <g id="line2d_106">
     <path d="M 726.225188 282.653188 
L 746.225188 282.653188 
" style="fill:none;stroke:#1f77b4;stroke-linecap:square;stroke-width:1.5;"/>
    </g>
    <g id="line2d_107"/>
    <g id="text_37">
     <!-- Canada -->
     <g transform="translate(754.225188 286.153188)scale(0.1 -0.1)">
      <use xlink:href="#DejaVuSans-67"/>
      <use x="69.824219" xlink:href="#DejaVuSans-97"/>
      <use x="131.103516" xlink:href="#DejaVuSans-110"/>
      <use x="194.482422" xlink:href="#DejaVuSans-97"/>
      <use x="255.761719" xlink:href="#DejaVuSans-100"/>
      <use x="319.238281" xlink:href="#DejaVuSans-97"/>
     </g>
    </g>
    <g id="line2d_108">
     <path d="M 726.225188 297.331313 
L 746.225188 297.331313 
" style="fill:none;stroke:#ff7f0e;stroke-linecap:square;stroke-width:1.5;"/>
    </g>
    <g id="line2d_109"/>
    <g id="text_38">
     <!-- China -->
     <g transform="translate(754.225188 300.831313)scale(0.1 -0.1)">
      <use xlink:href="#DejaVuSans-67"/>
      <use x="69.824219" xlink:href="#DejaVuSans-104"/>
      <use x="133.203125" xlink:href="#DejaVuSans-105"/>
      <use x="160.986328" xlink:href="#DejaVuSans-110"/>
      <use x="224.365234" xlink:href="#DejaVuSans-97"/>
     </g>
    </g>
    <g id="line2d_110">
     <path d="M 726.225188 312.009438 
L 746.225188 312.009438 
" style="fill:none;stroke:#2ca02c;stroke-linecap:square;stroke-width:1.5;"/>
    </g>
    <g id="line2d_111"/>
    <g id="text_39">
     <!-- Czech Republic -->
     <g transform="translate(754.225188 315.509438)scale(0.1 -0.1)">
      <use xlink:href="#DejaVuSans-67"/>
      <use x="69.824219" xlink:href="#DejaVuSans-122"/>
      <use x="122.314453" xlink:href="#DejaVuSans-101"/>
      <use x="183.837891" xlink:href="#DejaVuSans-99"/>
      <use x="238.818359" xlink:href="#DejaVuSans-104"/>
      <use x="302.197266" xlink:href="#DejaVuSans-32"/>
      <use x="333.984375" xlink:href="#DejaVuSans-82"/>
      <use x="403.404297" xlink:href="#DejaVuSans-101"/>
      <use x="464.927734" xlink:href="#DejaVuSans-112"/>
      <use x="528.404297" xlink:href="#DejaVuSans-117"/>
      <use x="591.783203" xlink:href="#DejaVuSans-98"/>
      <use x="655.259766" xlink:href="#DejaVuSans-108"/>
      <use x="683.042969" xlink:href="#DejaVuSans-105"/>
      <use x="710.826172" xlink:href="#DejaVuSans-99"/>
     </g>
    </g>
    <g id="line2d_112">
     <path d="M 726.225188 326.687563 
L 746.225188 326.687563 
" style="fill:none;stroke:#d62728;stroke-linecap:square;stroke-width:1.5;"/>
    </g>
    <g id="line2d_113"/>
    <g id="text_40">
     <!-- Denmark -->
     <g transform="translate(754.225188 330.187563)scale(0.1 -0.1)">
      <use xlink:href="#DejaVuSans-68"/>
      <use x="77.001953" xlink:href="#DejaVuSans-101"/>
      <use x="138.525391" xlink:href="#DejaVuSans-110"/>
      <use x="201.904297" xlink:href="#DejaVuSans-109"/>
      <use x="299.316406" xlink:href="#DejaVuSans-97"/>
      <use x="360.595703" xlink:href="#DejaVuSans-114"/>
      <use x="401.708984" xlink:href="#DejaVuSans-107"/>
     </g>
    </g>
    <g id="line2d_114">
     <path d="M 726.225188 341.365688 
L 746.225188 341.365688 
" style="fill:none;stroke:#9467bd;stroke-linecap:square;stroke-width:1.5;"/>
    </g>
    <g id="line2d_115"/>
    <g id="text_41">
     <!-- France -->
     <g transform="translate(754.225188 344.865688)scale(0.1 -0.1)">
      <use xlink:href="#DejaVuSans-70"/>
      <use x="57.410156" xlink:href="#DejaVuSans-114"/>
      <use x="98.523438" xlink:href="#DejaVuSans-97"/>
      <use x="159.802734" xlink:href="#DejaVuSans-110"/>
      <use x="223.181641" xlink:href="#DejaVuSans-99"/>
      <use x="278.162109" xlink:href="#DejaVuSans-101"/>
     </g>
    </g>
    <g id="line2d_116">
     <path d="M 726.225188 356.043813 
L 746.225188 356.043813 
" style="fill:none;stroke:#8c564b;stroke-linecap:square;stroke-width:1.5;"/>
    </g>
    <g id="line2d_117"/>
    <g id="text_42">
     <!-- Germany -->
     <g transform="translate(754.225188 359.543813)scale(0.1 -0.1)">
      <use xlink:href="#DejaVuSans-71"/>
      <use x="77.490234" xlink:href="#DejaVuSans-101"/>
      <use x="139.013672" xlink:href="#DejaVuSans-114"/>
      <use x="180.111328" xlink:href="#DejaVuSans-109"/>
      <use x="277.523438" xlink:href="#DejaVuSans-97"/>
      <use x="338.802734" xlink:href="#DejaVuSans-110"/>
      <use x="402.181641" xlink:href="#DejaVuSans-121"/>
     </g>
    </g>
    <g id="line2d_118">
     <path d="M 726.225188 370.721938 
L 746.225188 370.721938 
" style="fill:none;stroke:#e377c2;stroke-linecap:square;stroke-width:1.5;"/>
    </g>
    <g id="line2d_119"/>
    <g id="text_43">
     <!-- Iran -->
     <g transform="translate(754.225188 374.221938)scale(0.1 -0.1)">
      <use xlink:href="#DejaVuSans-73"/>
      <use x="29.492188" xlink:href="#DejaVuSans-114"/>
      <use x="70.605469" xlink:href="#DejaVuSans-97"/>
      <use x="131.884766" xlink:href="#DejaVuSans-110"/>
     </g>
    </g>
    <g id="line2d_120">
     <path d="M 726.225188 385.400063 
L 746.225188 385.400063 
" style="fill:none;stroke:#7f7f7f;stroke-linecap:square;stroke-width:1.5;"/>
    </g>
    <g id="line2d_121"/>
    <g id="text_44">
     <!-- Italy -->
     <g transform="translate(754.225188 388.900063)scale(0.1 -0.1)">
      <use xlink:href="#DejaVuSans-73"/>
      <use x="29.492188" xlink:href="#DejaVuSans-116"/>
      <use x="68.701172" xlink:href="#DejaVuSans-97"/>
      <use x="129.980469" xlink:href="#DejaVuSans-108"/>
      <use x="157.763672" xlink:href="#DejaVuSans-121"/>
     </g>
    </g>
    <g id="line2d_122">
     <path d="M 726.225188 400.078188 
L 746.225188 400.078188 
" style="fill:none;stroke:#bcbd22;stroke-linecap:square;stroke-width:1.5;"/>
    </g>
    <g id="line2d_123"/>
    <g id="text_45">
     <!-- Slovakia -->
     <g transform="translate(754.225188 403.578188)scale(0.1 -0.1)">
      <use xlink:href="#DejaVuSans-83"/>
      <use x="63.476562" xlink:href="#DejaVuSans-108"/>
      <use x="91.259766" xlink:href="#DejaVuSans-111"/>
      <use x="152.441406" xlink:href="#DejaVuSans-118"/>
      <use x="211.621094" xlink:href="#DejaVuSans-97"/>
      <use x="272.900391" xlink:href="#DejaVuSans-107"/>
      <use x="330.810547" xlink:href="#DejaVuSans-105"/>
      <use x="358.59375" xlink:href="#DejaVuSans-97"/>
     </g>
    </g>
    <g id="line2d_124">
     <path d="M 726.225188 414.756313 
L 746.225188 414.756313 
" style="fill:none;stroke:#17becf;stroke-linecap:square;stroke-width:1.5;"/>
    </g>
    <g id="line2d_125"/>
    <g id="text_46">
     <!-- Taiwan -->
     <g transform="translate(754.225188 418.256313)scale(0.1 -0.1)">
      <use xlink:href="#DejaVuSans-84"/>
      <use x="60.833984" xlink:href="#DejaVuSans-97"/>
      <use x="122.113281" xlink:href="#DejaVuSans-105"/>
      <use x="149.896484" xlink:href="#DejaVuSans-119"/>
      <use x="231.683594" xlink:href="#DejaVuSans-97"/>
      <use x="292.962891" xlink:href="#DejaVuSans-110"/>
     </g>
    </g>
   </g>
  </g>
  <g id="text_47">
   <!-- https://github.com/PavelDusek/COVID-19 -->
   <defs>
    <path d="M 11.71875 12.40625 
L 22.015625 12.40625 
L 22.015625 0 
L 11.71875 0 
z
M 11.71875 51.703125 
L 22.015625 51.703125 
L 22.015625 39.3125 
L 11.71875 39.3125 
z
" id="DejaVuSans-58"/>
    <path d="M 25.390625 72.90625 
L 33.6875 72.90625 
L 8.296875 -9.28125 
L 0 -9.28125 
z
" id="DejaVuSans-47"/>
    <path d="M 19.671875 64.796875 
L 19.671875 37.40625 
L 32.078125 37.40625 
Q 38.96875 37.40625 42.71875 40.96875 
Q 46.484375 44.53125 46.484375 51.125 
Q 46.484375 57.671875 42.71875 61.234375 
Q 38.96875 64.796875 32.078125 64.796875 
z
M 9.8125 72.90625 
L 32.078125 72.90625 
Q 44.34375 72.90625 50.609375 67.359375 
Q 56.890625 61.8125 56.890625 51.125 
Q 56.890625 40.328125 50.609375 34.8125 
Q 44.34375 29.296875 32.078125 29.296875 
L 19.671875 29.296875 
L 19.671875 0 
L 9.8125 0 
z
" id="DejaVuSans-80"/>
   </defs>
   <g transform="translate(342.927188 18.766125)scale(0.12 -0.12)">
    <use xlink:href="#DejaVuSans-104"/>
    <use x="63.378906" xlink:href="#DejaVuSans-116"/>
    <use x="102.587891" xlink:href="#DejaVuSans-116"/>
    <use x="141.796875" xlink:href="#DejaVuSans-112"/>
    <use x="205.273438" xlink:href="#DejaVuSans-115"/>
    <use x="257.373047" xlink:href="#DejaVuSans-58"/>
    <use x="291.064453" xlink:href="#DejaVuSans-47"/>
    <use x="324.755859" xlink:href="#DejaVuSans-47"/>
    <use x="358.447266" xlink:href="#DejaVuSans-103"/>
    <use x="421.923828" xlink:href="#DejaVuSans-105"/>
    <use x="449.707031" xlink:href="#DejaVuSans-116"/>
    <use x="488.916016" xlink:href="#DejaVuSans-104"/>
    <use x="552.294922" xlink:href="#DejaVuSans-117"/>
    <use x="615.673828" xlink:href="#DejaVuSans-98"/>
    <use x="679.150391" xlink:href="#DejaVuSans-46"/>
    <use x="710.9375" xlink:href="#DejaVuSans-99"/>
    <use x="765.917969" xlink:href="#DejaVuSans-111"/>
    <use x="827.099609" xlink:href="#DejaVuSans-109"/>
    <use x="924.511719" xlink:href="#DejaVuSans-47"/>
    <use x="958.203125" xlink:href="#DejaVuSans-80"/>
    <use x="1018.443359" xlink:href="#DejaVuSans-97"/>
    <use x="1079.722656" xlink:href="#DejaVuSans-118"/>
    <use x="1138.902344" xlink:href="#DejaVuSans-101"/>
    <use x="1200.425781" xlink:href="#DejaVuSans-108"/>
    <use x="1228.208984" xlink:href="#DejaVuSans-68"/>
    <use x="1305.210938" xlink:href="#DejaVuSans-117"/>
    <use x="1368.589844" xlink:href="#DejaVuSans-115"/>
    <use x="1420.689453" xlink:href="#DejaVuSans-101"/>
    <use x="1482.212891" xlink:href="#DejaVuSans-107"/>
    <use x="1540.123047" xlink:href="#DejaVuSans-47"/>
    <use x="1573.814453" xlink:href="#DejaVuSans-67"/>
    <use x="1643.638672" xlink:href="#DejaVuSans-79"/>
    <use x="1722.333984" xlink:href="#DejaVuSans-86"/>
    <use x="1790.742188" xlink:href="#DejaVuSans-73"/>
    <use x="1820.234375" xlink:href="#DejaVuSans-68"/>
    <use x="1897.236328" xlink:href="#DejaVuSans-45"/>
    <use x="1933.320312" xlink:href="#DejaVuSans-49"/>
    <use x="1996.943359" xlink:href="#DejaVuSans-57"/>
   </g>
  </g>
 </g>
 <defs>
  <clipPath id="p637679ccb2">
   <rect height="168.84" width="723.168" x="116.64" y="57.888"/>
  </clipPath>
  <clipPath id="p7ad1dbea6c">
   <rect height="168.84" width="723.168" x="116.64" y="260.496"/>
  </clipPath>
 </defs>
</svg>
