<?xml version="1.0" encoding="utf-8" standalone="no"?>
<!DOCTYPE svg PUBLIC "-//W3C//DTD SVG 1.1//EN"
  "http://www.w3.org/Graphics/SVG/1.1/DTD/svg11.dtd">
<!-- Created with matplotlib (https://matplotlib.org/) -->
<svg height="482.4pt" version="1.1" viewBox="0 0 933.12 482.4" width="933.12pt" xmlns="http://www.w3.org/2000/svg" xmlns:xlink="http://www.w3.org/1999/xlink">
 <defs>
  <style type="text/css">
*{stroke-linecap:butt;stroke-linejoin:round;}
  </style>
 </defs>
 <g id="figure_1">
  <g id="patch_1">
   <path d="M 0 482.4 
L 933.12 482.4 
L 933.12 0 
L 0 0 
z
" style="fill:#ffffff;"/>
  </g>
  <g id="axes_1">
   <g id="patch_2">
    <path d="M 116.64 226.728 
L 839.808 226.728 
L 839.808 57.888 
L 116.64 57.888 
z
" style="fill:#ffffff;"/>
   </g>
   <g id="matplotlib.axis_1">
    <g id="xtick_1">
     <g id="line2d_1">
      <defs>
       <path d="M 0 0 
L 0 3.5 
" id="m59d3ec35ac" style="stroke:#000000;stroke-width:0.8;"/>
      </defs>
      <g>
       <use style="stroke:#000000;stroke-width:0.8;" x="149.511273" xlink:href="#m59d3ec35ac" y="226.728"/>
      </g>
     </g>
     <g id="text_1">
      <!-- 0 -->
      <defs>
       <path d="M 31.78125 66.40625 
Q 24.171875 66.40625 20.328125 58.90625 
Q 16.5 51.421875 16.5 36.375 
Q 16.5 21.390625 20.328125 13.890625 
Q 24.171875 6.390625 31.78125 6.390625 
Q 39.453125 6.390625 43.28125 13.890625 
Q 47.125 21.390625 47.125 36.375 
Q 47.125 51.421875 43.28125 58.90625 
Q 39.453125 66.40625 31.78125 66.40625 
z
M 31.78125 74.21875 
Q 44.046875 74.21875 50.515625 64.515625 
Q 56.984375 54.828125 56.984375 36.375 
Q 56.984375 17.96875 50.515625 8.265625 
Q 44.046875 -1.421875 31.78125 -1.421875 
Q 19.53125 -1.421875 13.0625 8.265625 
Q 6.59375 17.96875 6.59375 36.375 
Q 6.59375 54.828125 13.0625 64.515625 
Q 19.53125 74.21875 31.78125 74.21875 
z
" id="DejaVuSans-48"/>
      </defs>
      <g transform="translate(146.330023 241.326437)scale(0.1 -0.1)">
       <use xlink:href="#DejaVuSans-48"/>
      </g>
     </g>
    </g>
    <g id="xtick_2">
     <g id="line2d_2">
      <g>
       <use style="stroke:#000000;stroke-width:0.8;" x="237.168" xlink:href="#m59d3ec35ac" y="226.728"/>
      </g>
     </g>
     <g id="text_2">
      <!-- 10 -->
      <defs>
       <path d="M 12.40625 8.296875 
L 28.515625 8.296875 
L 28.515625 63.921875 
L 10.984375 60.40625 
L 10.984375 69.390625 
L 28.421875 72.90625 
L 38.28125 72.90625 
L 38.28125 8.296875 
L 54.390625 8.296875 
L 54.390625 0 
L 12.40625 0 
z
" id="DejaVuSans-49"/>
      </defs>
      <g transform="translate(230.8055 241.326437)scale(0.1 -0.1)">
       <use xlink:href="#DejaVuSans-49"/>
       <use x="63.623047" xlink:href="#DejaVuSans-48"/>
      </g>
     </g>
    </g>
    <g id="xtick_3">
     <g id="line2d_3">
      <g>
       <use style="stroke:#000000;stroke-width:0.8;" x="324.824727" xlink:href="#m59d3ec35ac" y="226.728"/>
      </g>
     </g>
     <g id="text_3">
      <!-- 20 -->
      <defs>
       <path d="M 19.1875 8.296875 
L 53.609375 8.296875 
L 53.609375 0 
L 7.328125 0 
L 7.328125 8.296875 
Q 12.9375 14.109375 22.625 23.890625 
Q 32.328125 33.6875 34.8125 36.53125 
Q 39.546875 41.84375 41.421875 45.53125 
Q 43.3125 49.21875 43.3125 52.78125 
Q 43.3125 58.59375 39.234375 62.25 
Q 35.15625 65.921875 28.609375 65.921875 
Q 23.96875 65.921875 18.8125 64.3125 
Q 13.671875 62.703125 7.8125 59.421875 
L 7.8125 69.390625 
Q 13.765625 71.78125 18.9375 73 
Q 24.125 74.21875 28.421875 74.21875 
Q 39.75 74.21875 46.484375 68.546875 
Q 53.21875 62.890625 53.21875 53.421875 
Q 53.21875 48.921875 51.53125 44.890625 
Q 49.859375 40.875 45.40625 35.40625 
Q 44.1875 33.984375 37.640625 27.21875 
Q 31.109375 20.453125 19.1875 8.296875 
z
" id="DejaVuSans-50"/>
      </defs>
      <g transform="translate(318.462227 241.326437)scale(0.1 -0.1)">
       <use xlink:href="#DejaVuSans-50"/>
       <use x="63.623047" xlink:href="#DejaVuSans-48"/>
      </g>
     </g>
    </g>
    <g id="xtick_4">
     <g id="line2d_4">
      <g>
       <use style="stroke:#000000;stroke-width:0.8;" x="412.481455" xlink:href="#m59d3ec35ac" y="226.728"/>
      </g>
     </g>
     <g id="text_4">
      <!-- 30 -->
      <defs>
       <path d="M 40.578125 39.3125 
Q 47.65625 37.796875 51.625 33 
Q 55.609375 28.21875 55.609375 21.1875 
Q 55.609375 10.40625 48.1875 4.484375 
Q 40.765625 -1.421875 27.09375 -1.421875 
Q 22.515625 -1.421875 17.65625 -0.515625 
Q 12.796875 0.390625 7.625 2.203125 
L 7.625 11.71875 
Q 11.71875 9.328125 16.59375 8.109375 
Q 21.484375 6.890625 26.8125 6.890625 
Q 36.078125 6.890625 40.9375 10.546875 
Q 45.796875 14.203125 45.796875 21.1875 
Q 45.796875 27.640625 41.28125 31.265625 
Q 36.765625 34.90625 28.71875 34.90625 
L 20.21875 34.90625 
L 20.21875 43.015625 
L 29.109375 43.015625 
Q 36.375 43.015625 40.234375 45.921875 
Q 44.09375 48.828125 44.09375 54.296875 
Q 44.09375 59.90625 40.109375 62.90625 
Q 36.140625 65.921875 28.71875 65.921875 
Q 24.65625 65.921875 20.015625 65.03125 
Q 15.375 64.15625 9.8125 62.3125 
L 9.8125 71.09375 
Q 15.4375 72.65625 20.34375 73.4375 
Q 25.25 74.21875 29.59375 74.21875 
Q 40.828125 74.21875 47.359375 69.109375 
Q 53.90625 64.015625 53.90625 55.328125 
Q 53.90625 49.265625 50.4375 45.09375 
Q 46.96875 40.921875 40.578125 39.3125 
z
" id="DejaVuSans-51"/>
      </defs>
      <g transform="translate(406.118955 241.326437)scale(0.1 -0.1)">
       <use xlink:href="#DejaVuSans-51"/>
       <use x="63.623047" xlink:href="#DejaVuSans-48"/>
      </g>
     </g>
    </g>
    <g id="xtick_5">
     <g id="line2d_5">
      <g>
       <use style="stroke:#000000;stroke-width:0.8;" x="500.138182" xlink:href="#m59d3ec35ac" y="226.728"/>
      </g>
     </g>
     <g id="text_5">
      <!-- 40 -->
      <defs>
       <path d="M 37.796875 64.3125 
L 12.890625 25.390625 
L 37.796875 25.390625 
z
M 35.203125 72.90625 
L 47.609375 72.90625 
L 47.609375 25.390625 
L 58.015625 25.390625 
L 58.015625 17.1875 
L 47.609375 17.1875 
L 47.609375 0 
L 37.796875 0 
L 37.796875 17.1875 
L 4.890625 17.1875 
L 4.890625 26.703125 
z
" id="DejaVuSans-52"/>
      </defs>
      <g transform="translate(493.775682 241.326437)scale(0.1 -0.1)">
       <use xlink:href="#DejaVuSans-52"/>
       <use x="63.623047" xlink:href="#DejaVuSans-48"/>
      </g>
     </g>
    </g>
    <g id="xtick_6">
     <g id="line2d_6">
      <g>
       <use style="stroke:#000000;stroke-width:0.8;" x="587.794909" xlink:href="#m59d3ec35ac" y="226.728"/>
      </g>
     </g>
     <g id="text_6">
      <!-- 50 -->
      <defs>
       <path d="M 10.796875 72.90625 
L 49.515625 72.90625 
L 49.515625 64.59375 
L 19.828125 64.59375 
L 19.828125 46.734375 
Q 21.96875 47.46875 24.109375 47.828125 
Q 26.265625 48.1875 28.421875 48.1875 
Q 40.625 48.1875 47.75 41.5 
Q 54.890625 34.8125 54.890625 23.390625 
Q 54.890625 11.625 47.5625 5.09375 
Q 40.234375 -1.421875 26.90625 -1.421875 
Q 22.3125 -1.421875 17.546875 -0.640625 
Q 12.796875 0.140625 7.71875 1.703125 
L 7.71875 11.625 
Q 12.109375 9.234375 16.796875 8.0625 
Q 21.484375 6.890625 26.703125 6.890625 
Q 35.15625 6.890625 40.078125 11.328125 
Q 45.015625 15.765625 45.015625 23.390625 
Q 45.015625 31 40.078125 35.4375 
Q 35.15625 39.890625 26.703125 39.890625 
Q 22.75 39.890625 18.8125 39.015625 
Q 14.890625 38.140625 10.796875 36.28125 
z
" id="DejaVuSans-53"/>
      </defs>
      <g transform="translate(581.432409 241.326437)scale(0.1 -0.1)">
       <use xlink:href="#DejaVuSans-53"/>
       <use x="63.623047" xlink:href="#DejaVuSans-48"/>
      </g>
     </g>
    </g>
    <g id="xtick_7">
     <g id="line2d_7">
      <g>
       <use style="stroke:#000000;stroke-width:0.8;" x="675.451636" xlink:href="#m59d3ec35ac" y="226.728"/>
      </g>
     </g>
     <g id="text_7">
      <!-- 60 -->
      <defs>
       <path d="M 33.015625 40.375 
Q 26.375 40.375 22.484375 35.828125 
Q 18.609375 31.296875 18.609375 23.390625 
Q 18.609375 15.53125 22.484375 10.953125 
Q 26.375 6.390625 33.015625 6.390625 
Q 39.65625 6.390625 43.53125 10.953125 
Q 47.40625 15.53125 47.40625 23.390625 
Q 47.40625 31.296875 43.53125 35.828125 
Q 39.65625 40.375 33.015625 40.375 
z
M 52.59375 71.296875 
L 52.59375 62.3125 
Q 48.875 64.0625 45.09375 64.984375 
Q 41.3125 65.921875 37.59375 65.921875 
Q 27.828125 65.921875 22.671875 59.328125 
Q 17.53125 52.734375 16.796875 39.40625 
Q 19.671875 43.65625 24.015625 45.921875 
Q 28.375 48.1875 33.59375 48.1875 
Q 44.578125 48.1875 50.953125 41.515625 
Q 57.328125 34.859375 57.328125 23.390625 
Q 57.328125 12.15625 50.6875 5.359375 
Q 44.046875 -1.421875 33.015625 -1.421875 
Q 20.359375 -1.421875 13.671875 8.265625 
Q 6.984375 17.96875 6.984375 36.375 
Q 6.984375 53.65625 15.1875 63.9375 
Q 23.390625 74.21875 37.203125 74.21875 
Q 40.921875 74.21875 44.703125 73.484375 
Q 48.484375 72.75 52.59375 71.296875 
z
" id="DejaVuSans-54"/>
      </defs>
      <g transform="translate(669.089136 241.326437)scale(0.1 -0.1)">
       <use xlink:href="#DejaVuSans-54"/>
       <use x="63.623047" xlink:href="#DejaVuSans-48"/>
      </g>
     </g>
    </g>
    <g id="xtick_8">
     <g id="line2d_8">
      <g>
       <use style="stroke:#000000;stroke-width:0.8;" x="763.108364" xlink:href="#m59d3ec35ac" y="226.728"/>
      </g>
     </g>
     <g id="text_8">
      <!-- 70 -->
      <defs>
       <path d="M 8.203125 72.90625 
L 55.078125 72.90625 
L 55.078125 68.703125 
L 28.609375 0 
L 18.3125 0 
L 43.21875 64.59375 
L 8.203125 64.59375 
z
" id="DejaVuSans-55"/>
      </defs>
      <g transform="translate(756.745864 241.326437)scale(0.1 -0.1)">
       <use xlink:href="#DejaVuSans-55"/>
       <use x="63.623047" xlink:href="#DejaVuSans-48"/>
      </g>
     </g>
    </g>
   </g>
   <g id="matplotlib.axis_2">
    <g id="ytick_1">
     <g id="line2d_9">
      <defs>
       <path d="M 0 0 
L -3.5 0 
" id="mcb0c8cbfe8" style="stroke:#000000;stroke-width:0.8;"/>
      </defs>
      <g>
       <use style="stroke:#000000;stroke-width:0.8;" x="116.64" xlink:href="#mcb0c8cbfe8" y="219.05535"/>
      </g>
     </g>
     <g id="text_9">
      <!-- 0 -->
      <g transform="translate(103.2775 222.854568)scale(0.1 -0.1)">
       <use xlink:href="#DejaVuSans-48"/>
      </g>
     </g>
    </g>
    <g id="ytick_2">
     <g id="line2d_10">
      <g>
       <use style="stroke:#000000;stroke-width:0.8;" x="116.64" xlink:href="#mcb0c8cbfe8" y="181.153552"/>
      </g>
     </g>
     <g id="text_10">
      <!-- 20000 -->
      <g transform="translate(77.8275 184.952771)scale(0.1 -0.1)">
       <use xlink:href="#DejaVuSans-50"/>
       <use x="63.623047" xlink:href="#DejaVuSans-48"/>
       <use x="127.246094" xlink:href="#DejaVuSans-48"/>
       <use x="190.869141" xlink:href="#DejaVuSans-48"/>
       <use x="254.492188" xlink:href="#DejaVuSans-48"/>
      </g>
     </g>
    </g>
    <g id="ytick_3">
     <g id="line2d_11">
      <g>
       <use style="stroke:#000000;stroke-width:0.8;" x="116.64" xlink:href="#mcb0c8cbfe8" y="143.251755"/>
      </g>
     </g>
     <g id="text_11">
      <!-- 40000 -->
      <g transform="translate(77.8275 147.050974)scale(0.1 -0.1)">
       <use xlink:href="#DejaVuSans-52"/>
       <use x="63.623047" xlink:href="#DejaVuSans-48"/>
       <use x="127.246094" xlink:href="#DejaVuSans-48"/>
       <use x="190.869141" xlink:href="#DejaVuSans-48"/>
       <use x="254.492188" xlink:href="#DejaVuSans-48"/>
      </g>
     </g>
    </g>
    <g id="ytick_4">
     <g id="line2d_12">
      <g>
       <use style="stroke:#000000;stroke-width:0.8;" x="116.64" xlink:href="#mcb0c8cbfe8" y="105.349957"/>
      </g>
     </g>
     <g id="text_12">
      <!-- 60000 -->
      <g transform="translate(77.8275 109.149176)scale(0.1 -0.1)">
       <use xlink:href="#DejaVuSans-54"/>
       <use x="63.623047" xlink:href="#DejaVuSans-48"/>
       <use x="127.246094" xlink:href="#DejaVuSans-48"/>
       <use x="190.869141" xlink:href="#DejaVuSans-48"/>
       <use x="254.492188" xlink:href="#DejaVuSans-48"/>
      </g>
     </g>
    </g>
    <g id="ytick_5">
     <g id="line2d_13">
      <g>
       <use style="stroke:#000000;stroke-width:0.8;" x="116.64" xlink:href="#mcb0c8cbfe8" y="67.44816"/>
      </g>
     </g>
     <g id="text_13">
      <!-- 80000 -->
      <defs>
       <path d="M 31.78125 34.625 
Q 24.75 34.625 20.71875 30.859375 
Q 16.703125 27.09375 16.703125 20.515625 
Q 16.703125 13.921875 20.71875 10.15625 
Q 24.75 6.390625 31.78125 6.390625 
Q 38.8125 6.390625 42.859375 10.171875 
Q 46.921875 13.96875 46.921875 20.515625 
Q 46.921875 27.09375 42.890625 30.859375 
Q 38.875 34.625 31.78125 34.625 
z
M 21.921875 38.8125 
Q 15.578125 40.375 12.03125 44.71875 
Q 8.5 49.078125 8.5 55.328125 
Q 8.5 64.0625 14.71875 69.140625 
Q 20.953125 74.21875 31.78125 74.21875 
Q 42.671875 74.21875 48.875 69.140625 
Q 55.078125 64.0625 55.078125 55.328125 
Q 55.078125 49.078125 51.53125 44.71875 
Q 48 40.375 41.703125 38.8125 
Q 48.828125 37.15625 52.796875 32.3125 
Q 56.78125 27.484375 56.78125 20.515625 
Q 56.78125 9.90625 50.3125 4.234375 
Q 43.84375 -1.421875 31.78125 -1.421875 
Q 19.734375 -1.421875 13.25 4.234375 
Q 6.78125 9.90625 6.78125 20.515625 
Q 6.78125 27.484375 10.78125 32.3125 
Q 14.796875 37.15625 21.921875 38.8125 
z
M 18.3125 54.390625 
Q 18.3125 48.734375 21.84375 45.5625 
Q 25.390625 42.390625 31.78125 42.390625 
Q 38.140625 42.390625 41.71875 45.5625 
Q 45.3125 48.734375 45.3125 54.390625 
Q 45.3125 60.0625 41.71875 63.234375 
Q 38.140625 66.40625 31.78125 66.40625 
Q 25.390625 66.40625 21.84375 63.234375 
Q 18.3125 60.0625 18.3125 54.390625 
z
" id="DejaVuSans-56"/>
      </defs>
      <g transform="translate(77.8275 71.247379)scale(0.1 -0.1)">
       <use xlink:href="#DejaVuSans-56"/>
       <use x="63.623047" xlink:href="#DejaVuSans-48"/>
       <use x="127.246094" xlink:href="#DejaVuSans-48"/>
       <use x="190.869141" xlink:href="#DejaVuSans-48"/>
       <use x="254.492188" xlink:href="#DejaVuSans-48"/>
      </g>
     </g>
    </g>
    <g id="text_14">
     <!-- No. cases -->
     <defs>
      <path d="M 9.8125 72.90625 
L 23.09375 72.90625 
L 55.421875 11.921875 
L 55.421875 72.90625 
L 64.984375 72.90625 
L 64.984375 0 
L 51.703125 0 
L 19.390625 60.984375 
L 19.390625 0 
L 9.8125 0 
z
" id="DejaVuSans-78"/>
      <path d="M 30.609375 48.390625 
Q 23.390625 48.390625 19.1875 42.75 
Q 14.984375 37.109375 14.984375 27.296875 
Q 14.984375 17.484375 19.15625 11.84375 
Q 23.34375 6.203125 30.609375 6.203125 
Q 37.796875 6.203125 41.984375 11.859375 
Q 46.1875 17.53125 46.1875 27.296875 
Q 46.1875 37.015625 41.984375 42.703125 
Q 37.796875 48.390625 30.609375 48.390625 
z
M 30.609375 56 
Q 42.328125 56 49.015625 48.375 
Q 55.71875 40.765625 55.71875 27.296875 
Q 55.71875 13.875 49.015625 6.21875 
Q 42.328125 -1.421875 30.609375 -1.421875 
Q 18.84375 -1.421875 12.171875 6.21875 
Q 5.515625 13.875 5.515625 27.296875 
Q 5.515625 40.765625 12.171875 48.375 
Q 18.84375 56 30.609375 56 
z
" id="DejaVuSans-111"/>
      <path d="M 10.6875 12.40625 
L 21 12.40625 
L 21 0 
L 10.6875 0 
z
" id="DejaVuSans-46"/>
      <path id="DejaVuSans-32"/>
      <path d="M 48.78125 52.59375 
L 48.78125 44.1875 
Q 44.96875 46.296875 41.140625 47.34375 
Q 37.3125 48.390625 33.40625 48.390625 
Q 24.65625 48.390625 19.8125 42.84375 
Q 14.984375 37.3125 14.984375 27.296875 
Q 14.984375 17.28125 19.8125 11.734375 
Q 24.65625 6.203125 33.40625 6.203125 
Q 37.3125 6.203125 41.140625 7.25 
Q 44.96875 8.296875 48.78125 10.40625 
L 48.78125 2.09375 
Q 45.015625 0.34375 40.984375 -0.53125 
Q 36.96875 -1.421875 32.421875 -1.421875 
Q 20.0625 -1.421875 12.78125 6.34375 
Q 5.515625 14.109375 5.515625 27.296875 
Q 5.515625 40.671875 12.859375 48.328125 
Q 20.21875 56 33.015625 56 
Q 37.15625 56 41.109375 55.140625 
Q 45.0625 54.296875 48.78125 52.59375 
z
" id="DejaVuSans-99"/>
      <path d="M 34.28125 27.484375 
Q 23.390625 27.484375 19.1875 25 
Q 14.984375 22.515625 14.984375 16.5 
Q 14.984375 11.71875 18.140625 8.90625 
Q 21.296875 6.109375 26.703125 6.109375 
Q 34.1875 6.109375 38.703125 11.40625 
Q 43.21875 16.703125 43.21875 25.484375 
L 43.21875 27.484375 
z
M 52.203125 31.203125 
L 52.203125 0 
L 43.21875 0 
L 43.21875 8.296875 
Q 40.140625 3.328125 35.546875 0.953125 
Q 30.953125 -1.421875 24.3125 -1.421875 
Q 15.921875 -1.421875 10.953125 3.296875 
Q 6 8.015625 6 15.921875 
Q 6 25.140625 12.171875 29.828125 
Q 18.359375 34.515625 30.609375 34.515625 
L 43.21875 34.515625 
L 43.21875 35.40625 
Q 43.21875 41.609375 39.140625 45 
Q 35.0625 48.390625 27.6875 48.390625 
Q 23 48.390625 18.546875 47.265625 
Q 14.109375 46.140625 10.015625 43.890625 
L 10.015625 52.203125 
Q 14.9375 54.109375 19.578125 55.046875 
Q 24.21875 56 28.609375 56 
Q 40.484375 56 46.34375 49.84375 
Q 52.203125 43.703125 52.203125 31.203125 
z
" id="DejaVuSans-97"/>
      <path d="M 44.28125 53.078125 
L 44.28125 44.578125 
Q 40.484375 46.53125 36.375 47.5 
Q 32.28125 48.484375 27.875 48.484375 
Q 21.1875 48.484375 17.84375 46.4375 
Q 14.5 44.390625 14.5 40.28125 
Q 14.5 37.15625 16.890625 35.375 
Q 19.28125 33.59375 26.515625 31.984375 
L 29.59375 31.296875 
Q 39.15625 29.25 43.1875 25.515625 
Q 47.21875 21.78125 47.21875 15.09375 
Q 47.21875 7.46875 41.1875 3.015625 
Q 35.15625 -1.421875 24.609375 -1.421875 
Q 20.21875 -1.421875 15.453125 -0.5625 
Q 10.6875 0.296875 5.421875 2 
L 5.421875 11.28125 
Q 10.40625 8.6875 15.234375 7.390625 
Q 20.0625 6.109375 24.8125 6.109375 
Q 31.15625 6.109375 34.5625 8.28125 
Q 37.984375 10.453125 37.984375 14.40625 
Q 37.984375 18.0625 35.515625 20.015625 
Q 33.0625 21.96875 24.703125 23.78125 
L 21.578125 24.515625 
Q 13.234375 26.265625 9.515625 29.90625 
Q 5.8125 33.546875 5.8125 39.890625 
Q 5.8125 47.609375 11.28125 51.796875 
Q 16.75 56 26.8125 56 
Q 31.78125 56 36.171875 55.265625 
Q 40.578125 54.546875 44.28125 53.078125 
z
" id="DejaVuSans-115"/>
      <path d="M 56.203125 29.59375 
L 56.203125 25.203125 
L 14.890625 25.203125 
Q 15.484375 15.921875 20.484375 11.0625 
Q 25.484375 6.203125 34.421875 6.203125 
Q 39.59375 6.203125 44.453125 7.46875 
Q 49.3125 8.734375 54.109375 11.28125 
L 54.109375 2.78125 
Q 49.265625 0.734375 44.1875 -0.34375 
Q 39.109375 -1.421875 33.890625 -1.421875 
Q 20.796875 -1.421875 13.15625 6.1875 
Q 5.515625 13.8125 5.515625 26.8125 
Q 5.515625 40.234375 12.765625 48.109375 
Q 20.015625 56 32.328125 56 
Q 43.359375 56 49.78125 48.890625 
Q 56.203125 41.796875 56.203125 29.59375 
z
M 47.21875 32.234375 
Q 47.125 39.59375 43.09375 43.984375 
Q 39.0625 48.390625 32.421875 48.390625 
Q 24.90625 48.390625 20.390625 44.140625 
Q 15.875 39.890625 15.1875 32.171875 
z
" id="DejaVuSans-101"/>
     </defs>
     <g transform="translate(71.747813 166.384563)rotate(-90)scale(0.1 -0.1)">
      <use xlink:href="#DejaVuSans-78"/>
      <use x="74.804688" xlink:href="#DejaVuSans-111"/>
      <use x="135.970703" xlink:href="#DejaVuSans-46"/>
      <use x="167.757812" xlink:href="#DejaVuSans-32"/>
      <use x="199.544922" xlink:href="#DejaVuSans-99"/>
      <use x="254.525391" xlink:href="#DejaVuSans-97"/>
      <use x="315.804688" xlink:href="#DejaVuSans-115"/>
      <use x="367.904297" xlink:href="#DejaVuSans-101"/>
      <use x="429.427734" xlink:href="#DejaVuSans-115"/>
     </g>
    </g>
   </g>
   <g id="line2d_14">
    <path clip-path="url(#pe75ec0785d)" d="M 149.511273 219.051559 
L 158.276945 219.051559 
L 167.042618 219.045874 
L 175.808291 219.042084 
L 184.573964 219.036399 
L 193.339636 219.028818 
L 202.105309 219.021238 
L 210.870982 219.009867 
L 219.636655 219.000392 
L 228.402327 218.977651 
L 237.168 218.915113 
L 245.933673 218.867736 
L 254.699345 218.86205 
L 263.465018 218.807093 
L 272.230691 218.710443 
L 280.996364 218.589158 
L 289.762036 218.371222 
L 298.527709 218.100224 
L 307.293382 217.814066 
" style="fill:none;stroke:#1f77b4;stroke-linecap:square;stroke-width:1.5;"/>
   </g>
   <g id="line2d_15">
    <path clip-path="url(#pe75ec0785d)" d="M 149.511273 219.004182 
L 158.276945 219.004182 
L 167.042618 219.004182 
L 175.808291 218.971966 
L 184.573964 218.971966 
L 193.339636 218.943539 
L 202.105309 218.943539 
L 210.870982 218.943539 
L 219.636655 218.943539 
L 228.402327 218.943539 
L 237.168 218.943539 
L 245.933673 218.943539 
L 254.699345 218.943539 
L 263.465018 218.943539 
L 272.230691 218.943539 
L 280.996364 218.943539 
L 289.762036 218.943539 
L 298.527709 218.935959 
L 307.293382 218.903742 
L 316.059055 218.64601 
L 324.824727 218.610004 
L 333.5904 218.323845 
L 342.356073 218.058532 
L 351.121745 217.874709 
L 359.887418 217.38388 
L 368.653091 216.548146 
L 377.418764 215.287911 
L 386.184436 213.796475 
L 394.950109 210.474383 
L 403.715782 207.696181 
L 412.481455 204.398725 
L 421.247127 200.646447 
L 430.0128 196.676233 
L 438.778473 191.767951 
L 447.544145 186.438958 
L 456.309818 180.304552 
L 465.075491 172.966764 
L 473.841164 165.903764 
L 482.606836 159.91528 
L 491.372509 153.437863 
L 500.138182 148.497364 
L 508.903855 142.861366 
L 517.669527 138.142592 
L 526.4352 134.29935 
L 535.200873 105.605794 
L 543.966545 97.729801 
L 552.732218 92.920063 
L 561.497891 89.116617 
L 570.263564 85.227893 
L 579.029236 81.646173 
L 587.794909 78.329766 
L 596.560582 77.583101 
L 605.326255 75.894575 
L 614.091927 74.329231 
L 622.8576 73.103108 
L 631.623273 72.689978 
L 640.388945 71.714007 
L 649.154618 70.93702 
L 657.920291 70.105076 
L 666.685964 69.481591 
L 675.451636 68.670493 
L 684.217309 67.582711 
L 692.982982 67.194218 
L 701.748655 66.953541 
L 710.514327 66.728026 
L 719.28 66.5063 
L 728.045673 66.184135 
L 736.811345 65.992731 
L 745.577018 65.905557 
L 754.342691 65.820278 
L 763.108364 65.782376 
L 771.874036 65.727418 
L 780.639709 65.681936 
L 789.405382 65.640244 
L 798.171055 65.604237 
L 806.936727 65.562545 
" style="fill:none;stroke:#ff7f0e;stroke-linecap:square;stroke-width:1.5;"/>
   </g>
   <g id="line2d_16">
    <path clip-path="url(#pe75ec0785d)" d="M 149.511273 219.049664 
L 158.276945 219.045874 
L 167.042618 219.045874 
L 175.808291 219.040189 
L 184.573964 219.032609 
L 193.339636 219.019343 
L 202.105309 219.006077 
L 210.870982 218.994707 
L 219.636655 218.979546 
L 228.402327 218.935959 
L 237.168 218.877211 
L 245.933673 218.835519 
L 254.699345 218.771086 
L 263.465018 218.6498 
" style="fill:none;stroke:#2ca02c;stroke-linecap:square;stroke-width:1.5;"/>
   </g>
   <g id="line2d_17">
    <path clip-path="url(#pe75ec0785d)" d="M 149.511273 219.049664 
L 158.276945 219.049664 
L 167.042618 219.049664 
L 175.808291 219.049664 
L 184.573964 219.047769 
L 193.339636 219.045874 
L 202.105309 219.043979 
L 210.870982 219.043979 
L 219.636655 219.043979 
L 228.402327 219.043979 
L 237.168 219.043979 
L 245.933673 219.043979 
L 254.699345 219.043979 
L 263.465018 219.043979 
L 272.230691 219.034504 
L 280.996364 219.034504 
L 289.762036 219.034504 
L 298.527709 219.034504 
L 307.293382 219.034504 
L 316.059055 219.034504 
L 324.824727 219.034504 
L 333.5904 219.034504 
L 342.356073 219.034504 
L 351.121745 219.032609 
L 359.887418 219.032609 
L 368.653091 219.032609 
L 377.418764 219.032609 
L 386.184436 219.032609 
L 394.950109 219.032609 
L 403.715782 219.032609 
L 412.481455 219.032609 
L 421.247127 219.032609 
L 430.0128 219.028818 
L 438.778473 219.023133 
L 447.544145 218.983336 
L 456.309818 218.94733 
L 465.075491 218.865841 
L 473.841164 218.808988 
L 482.606836 218.718024 
L 491.372509 218.653591 
L 500.138182 218.515249 
L 508.903855 218.253727 
L 517.669527 217.89366 
L 526.4352 217.698465 
L 535.200873 216.921478 
L 543.966545 216.379483 
L 552.732218 215.674509 
L 561.497891 214.73265 
L 570.263564 213.605071 
L 579.029236 212.117426 
L 587.794909 210.52934 
" style="fill:none;stroke:#d62728;stroke-linecap:square;stroke-width:1.5;"/>
   </g>
   <g id="line2d_18">
    <path clip-path="url(#pe75ec0785d)" d="M 149.511273 219.053455 
L 158.276945 219.047769 
L 167.042618 219.047769 
L 175.808291 219.045874 
L 184.573964 219.042084 
L 193.339636 219.040189 
L 202.105309 219.038294 
L 210.870982 219.034504 
L 219.636655 219.034504 
L 228.402327 219.034504 
L 237.168 219.032609 
L 245.933673 219.030713 
L 254.699345 219.030713 
L 263.465018 219.030713 
L 272.230691 219.030713 
L 280.996364 219.026923 
L 289.762036 219.026923 
L 298.527709 219.026923 
L 307.293382 219.026923 
L 316.059055 219.026923 
L 324.824727 219.026923 
L 333.5904 219.026923 
L 342.356073 219.026923 
L 351.121745 219.026923 
L 359.887418 219.026923 
L 368.653091 219.026923 
L 377.418764 219.026923 
L 386.184436 219.026923 
L 394.950109 219.026923 
L 403.715782 219.023133 
L 412.481455 219.015553 
L 421.247127 218.96628 
L 430.0128 218.94733 
L 438.778473 218.844995 
L 447.544145 218.810883 
L 456.309818 218.757821 
L 465.075491 218.683912 
L 473.841164 218.558836 
L 482.606836 218.297314 
L 491.372509 217.759108 
L 500.138182 217.450209 
L 508.903855 217.345979 
L 517.669527 216.896842 
L 526.4352 216.599313 
L 535.200873 216.085744 
L 543.966545 214.565882 
L 552.732218 213.252584 
L 561.497891 211.863484 
" style="fill:none;stroke:#9467bd;stroke-linecap:square;stroke-width:1.5;"/>
   </g>
   <g id="line2d_19">
    <path clip-path="url(#pe75ec0785d)" d="M 149.511273 219.049664 
L 158.276945 219.049664 
L 167.042618 219.049664 
L 175.808291 219.049664 
L 184.573964 219.049664 
L 193.339636 219.049664 
L 202.105309 219.049664 
L 210.870982 219.049664 
L 219.636655 219.049664 
L 228.402327 219.049664 
L 237.168 219.049664 
L 245.933673 219.049664 
L 254.699345 219.049664 
L 263.465018 219.049664 
L 272.230691 219.049664 
L 280.996364 219.049664 
L 289.762036 219.049664 
L 298.527709 219.049664 
L 307.293382 219.049664 
L 316.059055 219.049664 
L 324.824727 219.049664 
L 333.5904 219.049664 
L 342.356073 219.023133 
L 351.121745 218.905638 
L 359.887418 218.805198 
L 368.653091 218.621374 
L 377.418764 218.445131 
L 386.184436 218.297314 
L 394.950109 217.823541 
L 403.715782 217.37251 
L 412.481455 216.917688 
L 421.247127 215.854543 
L 430.0128 215.57786 
L 438.778473 214.313835 
L 447.544145 213.201417 
L 456.309818 211.744093 
L 465.075491 210.269713 
L 473.841164 207.906536 
L 482.606836 205.079062 
L 491.372509 201.673585 
L 500.138182 199.822083 
L 508.903855 195.43874 
L 517.669527 190.414856 
L 526.4352 185.588062 
L 535.200873 185.417504 
" style="fill:none;stroke:#8c564b;stroke-linecap:square;stroke-width:1.5;"/>
   </g>
   <g id="line2d_20">
    <path clip-path="url(#pe75ec0785d)" d="M 149.511273 219.053455 
L 158.276945 219.049664 
L 167.042618 219.045874 
L 175.808291 219.042084 
L 184.573964 219.036399 
L 193.339636 219.015553 
L 202.105309 218.998497 
L 210.870982 218.971966 
" style="fill:none;stroke:#e377c2;stroke-linecap:square;stroke-width:1.5;"/>
   </g>
   <g id="line2d_21">
    <path clip-path="url(#pe75ec0785d)" d="M 149.511273 219.053455 
L 158.276945 219.053455 
L 167.042618 219.040189 
L 175.808291 219.032609 
L 184.573964 219.021238 
L 193.339636 219.009867 
L 202.105309 218.998497 
L 210.870982 218.985231 
L 219.636655 218.94733 
L 228.402327 218.890477 
L 237.168 218.659276 
L 245.933673 218.555046 
L 254.699345 218.42618 
L 263.465018 218.346586 
L 272.230691 218.126756 
L 280.996364 217.838702 
L 289.762036 217.436943 
L 298.527709 216.930954 
L 307.293382 216.479922 
" style="fill:none;stroke:#7f7f7f;stroke-linecap:square;stroke-width:1.5;"/>
   </g>
   <g id="patch_3">
    <path d="M 116.64 226.728 
L 116.64 57.888 
" style="fill:none;stroke:#000000;stroke-linecap:square;stroke-linejoin:miter;stroke-width:0.8;"/>
   </g>
   <g id="patch_4">
    <path d="M 839.808 226.728 
L 839.808 57.888 
" style="fill:none;stroke:#000000;stroke-linecap:square;stroke-linejoin:miter;stroke-width:0.8;"/>
   </g>
   <g id="patch_5">
    <path d="M 116.64 226.728 
L 839.808 226.728 
" style="fill:none;stroke:#000000;stroke-linecap:square;stroke-linejoin:miter;stroke-width:0.8;"/>
   </g>
   <g id="patch_6">
    <path d="M 116.64 57.888 
L 839.808 57.888 
" style="fill:none;stroke:#000000;stroke-linecap:square;stroke-linejoin:miter;stroke-width:0.8;"/>
   </g>
   <g id="text_15">
    <!-- COVID-19 cases, selected countries, data from ecdc.europa.eu as of 2020-03-15 -->
    <defs>
     <path d="M 64.40625 67.28125 
L 64.40625 56.890625 
Q 59.421875 61.53125 53.78125 63.8125 
Q 48.140625 66.109375 41.796875 66.109375 
Q 29.296875 66.109375 22.65625 58.46875 
Q 16.015625 50.828125 16.015625 36.375 
Q 16.015625 21.96875 22.65625 14.328125 
Q 29.296875 6.6875 41.796875 6.6875 
Q 48.140625 6.6875 53.78125 8.984375 
Q 59.421875 11.28125 64.40625 15.921875 
L 64.40625 5.609375 
Q 59.234375 2.09375 53.4375 0.328125 
Q 47.65625 -1.421875 41.21875 -1.421875 
Q 24.65625 -1.421875 15.125 8.703125 
Q 5.609375 18.84375 5.609375 36.375 
Q 5.609375 53.953125 15.125 64.078125 
Q 24.65625 74.21875 41.21875 74.21875 
Q 47.75 74.21875 53.53125 72.484375 
Q 59.328125 70.75 64.40625 67.28125 
z
" id="DejaVuSans-67"/>
     <path d="M 39.40625 66.21875 
Q 28.65625 66.21875 22.328125 58.203125 
Q 16.015625 50.203125 16.015625 36.375 
Q 16.015625 22.609375 22.328125 14.59375 
Q 28.65625 6.59375 39.40625 6.59375 
Q 50.140625 6.59375 56.421875 14.59375 
Q 62.703125 22.609375 62.703125 36.375 
Q 62.703125 50.203125 56.421875 58.203125 
Q 50.140625 66.21875 39.40625 66.21875 
z
M 39.40625 74.21875 
Q 54.734375 74.21875 63.90625 63.9375 
Q 73.09375 53.65625 73.09375 36.375 
Q 73.09375 19.140625 63.90625 8.859375 
Q 54.734375 -1.421875 39.40625 -1.421875 
Q 24.03125 -1.421875 14.8125 8.828125 
Q 5.609375 19.09375 5.609375 36.375 
Q 5.609375 53.65625 14.8125 63.9375 
Q 24.03125 74.21875 39.40625 74.21875 
z
" id="DejaVuSans-79"/>
     <path d="M 28.609375 0 
L 0.78125 72.90625 
L 11.078125 72.90625 
L 34.1875 11.53125 
L 57.328125 72.90625 
L 67.578125 72.90625 
L 39.796875 0 
z
" id="DejaVuSans-86"/>
     <path d="M 9.8125 72.90625 
L 19.671875 72.90625 
L 19.671875 0 
L 9.8125 0 
z
" id="DejaVuSans-73"/>
     <path d="M 19.671875 64.796875 
L 19.671875 8.109375 
L 31.59375 8.109375 
Q 46.6875 8.109375 53.6875 14.9375 
Q 60.6875 21.78125 60.6875 36.53125 
Q 60.6875 51.171875 53.6875 57.984375 
Q 46.6875 64.796875 31.59375 64.796875 
z
M 9.8125 72.90625 
L 30.078125 72.90625 
Q 51.265625 72.90625 61.171875 64.09375 
Q 71.09375 55.28125 71.09375 36.53125 
Q 71.09375 17.671875 61.125 8.828125 
Q 51.171875 0 30.078125 0 
L 9.8125 0 
z
" id="DejaVuSans-68"/>
     <path d="M 4.890625 31.390625 
L 31.203125 31.390625 
L 31.203125 23.390625 
L 4.890625 23.390625 
z
" id="DejaVuSans-45"/>
     <path d="M 10.984375 1.515625 
L 10.984375 10.5 
Q 14.703125 8.734375 18.5 7.8125 
Q 22.3125 6.890625 25.984375 6.890625 
Q 35.75 6.890625 40.890625 13.453125 
Q 46.046875 20.015625 46.78125 33.40625 
Q 43.953125 29.203125 39.59375 26.953125 
Q 35.25 24.703125 29.984375 24.703125 
Q 19.046875 24.703125 12.671875 31.3125 
Q 6.296875 37.9375 6.296875 49.421875 
Q 6.296875 60.640625 12.9375 67.421875 
Q 19.578125 74.21875 30.609375 74.21875 
Q 43.265625 74.21875 49.921875 64.515625 
Q 56.59375 54.828125 56.59375 36.375 
Q 56.59375 19.140625 48.40625 8.859375 
Q 40.234375 -1.421875 26.421875 -1.421875 
Q 22.703125 -1.421875 18.890625 -0.6875 
Q 15.09375 0.046875 10.984375 1.515625 
z
M 30.609375 32.421875 
Q 37.25 32.421875 41.125 36.953125 
Q 45.015625 41.5 45.015625 49.421875 
Q 45.015625 57.28125 41.125 61.84375 
Q 37.25 66.40625 30.609375 66.40625 
Q 23.96875 66.40625 20.09375 61.84375 
Q 16.21875 57.28125 16.21875 49.421875 
Q 16.21875 41.5 20.09375 36.953125 
Q 23.96875 32.421875 30.609375 32.421875 
z
" id="DejaVuSans-57"/>
     <path d="M 11.71875 12.40625 
L 22.015625 12.40625 
L 22.015625 4 
L 14.015625 -11.625 
L 7.71875 -11.625 
L 11.71875 4 
z
" id="DejaVuSans-44"/>
     <path d="M 9.421875 75.984375 
L 18.40625 75.984375 
L 18.40625 0 
L 9.421875 0 
z
" id="DejaVuSans-108"/>
     <path d="M 18.3125 70.21875 
L 18.3125 54.6875 
L 36.8125 54.6875 
L 36.8125 47.703125 
L 18.3125 47.703125 
L 18.3125 18.015625 
Q 18.3125 11.328125 20.140625 9.421875 
Q 21.96875 7.515625 27.59375 7.515625 
L 36.8125 7.515625 
L 36.8125 0 
L 27.59375 0 
Q 17.1875 0 13.234375 3.875 
Q 9.28125 7.765625 9.28125 18.015625 
L 9.28125 47.703125 
L 2.6875 47.703125 
L 2.6875 54.6875 
L 9.28125 54.6875 
L 9.28125 70.21875 
z
" id="DejaVuSans-116"/>
     <path d="M 45.40625 46.390625 
L 45.40625 75.984375 
L 54.390625 75.984375 
L 54.390625 0 
L 45.40625 0 
L 45.40625 8.203125 
Q 42.578125 3.328125 38.25 0.953125 
Q 33.9375 -1.421875 27.875 -1.421875 
Q 17.96875 -1.421875 11.734375 6.484375 
Q 5.515625 14.40625 5.515625 27.296875 
Q 5.515625 40.1875 11.734375 48.09375 
Q 17.96875 56 27.875 56 
Q 33.9375 56 38.25 53.625 
Q 42.578125 51.265625 45.40625 46.390625 
z
M 14.796875 27.296875 
Q 14.796875 17.390625 18.875 11.75 
Q 22.953125 6.109375 30.078125 6.109375 
Q 37.203125 6.109375 41.296875 11.75 
Q 45.40625 17.390625 45.40625 27.296875 
Q 45.40625 37.203125 41.296875 42.84375 
Q 37.203125 48.484375 30.078125 48.484375 
Q 22.953125 48.484375 18.875 42.84375 
Q 14.796875 37.203125 14.796875 27.296875 
z
" id="DejaVuSans-100"/>
     <path d="M 8.5 21.578125 
L 8.5 54.6875 
L 17.484375 54.6875 
L 17.484375 21.921875 
Q 17.484375 14.15625 20.5 10.265625 
Q 23.53125 6.390625 29.59375 6.390625 
Q 36.859375 6.390625 41.078125 11.03125 
Q 45.3125 15.671875 45.3125 23.6875 
L 45.3125 54.6875 
L 54.296875 54.6875 
L 54.296875 0 
L 45.3125 0 
L 45.3125 8.40625 
Q 42.046875 3.421875 37.71875 1 
Q 33.40625 -1.421875 27.6875 -1.421875 
Q 18.265625 -1.421875 13.375 4.4375 
Q 8.5 10.296875 8.5 21.578125 
z
M 31.109375 56 
z
" id="DejaVuSans-117"/>
     <path d="M 54.890625 33.015625 
L 54.890625 0 
L 45.90625 0 
L 45.90625 32.71875 
Q 45.90625 40.484375 42.875 44.328125 
Q 39.84375 48.1875 33.796875 48.1875 
Q 26.515625 48.1875 22.3125 43.546875 
Q 18.109375 38.921875 18.109375 30.90625 
L 18.109375 0 
L 9.078125 0 
L 9.078125 54.6875 
L 18.109375 54.6875 
L 18.109375 46.1875 
Q 21.34375 51.125 25.703125 53.5625 
Q 30.078125 56 35.796875 56 
Q 45.21875 56 50.046875 50.171875 
Q 54.890625 44.34375 54.890625 33.015625 
z
" id="DejaVuSans-110"/>
     <path d="M 41.109375 46.296875 
Q 39.59375 47.171875 37.8125 47.578125 
Q 36.03125 48 33.890625 48 
Q 26.265625 48 22.1875 43.046875 
Q 18.109375 38.09375 18.109375 28.8125 
L 18.109375 0 
L 9.078125 0 
L 9.078125 54.6875 
L 18.109375 54.6875 
L 18.109375 46.1875 
Q 20.953125 51.171875 25.484375 53.578125 
Q 30.03125 56 36.53125 56 
Q 37.453125 56 38.578125 55.875 
Q 39.703125 55.765625 41.0625 55.515625 
z
" id="DejaVuSans-114"/>
     <path d="M 9.421875 54.6875 
L 18.40625 54.6875 
L 18.40625 0 
L 9.421875 0 
z
M 9.421875 75.984375 
L 18.40625 75.984375 
L 18.40625 64.59375 
L 9.421875 64.59375 
z
" id="DejaVuSans-105"/>
     <path d="M 37.109375 75.984375 
L 37.109375 68.5 
L 28.515625 68.5 
Q 23.6875 68.5 21.796875 66.546875 
Q 19.921875 64.59375 19.921875 59.515625 
L 19.921875 54.6875 
L 34.71875 54.6875 
L 34.71875 47.703125 
L 19.921875 47.703125 
L 19.921875 0 
L 10.890625 0 
L 10.890625 47.703125 
L 2.296875 47.703125 
L 2.296875 54.6875 
L 10.890625 54.6875 
L 10.890625 58.5 
Q 10.890625 67.625 15.140625 71.796875 
Q 19.390625 75.984375 28.609375 75.984375 
z
" id="DejaVuSans-102"/>
     <path d="M 52 44.1875 
Q 55.375 50.25 60.0625 53.125 
Q 64.75 56 71.09375 56 
Q 79.640625 56 84.28125 50.015625 
Q 88.921875 44.046875 88.921875 33.015625 
L 88.921875 0 
L 79.890625 0 
L 79.890625 32.71875 
Q 79.890625 40.578125 77.09375 44.375 
Q 74.3125 48.1875 68.609375 48.1875 
Q 61.625 48.1875 57.5625 43.546875 
Q 53.515625 38.921875 53.515625 30.90625 
L 53.515625 0 
L 44.484375 0 
L 44.484375 32.71875 
Q 44.484375 40.625 41.703125 44.40625 
Q 38.921875 48.1875 33.109375 48.1875 
Q 26.21875 48.1875 22.15625 43.53125 
Q 18.109375 38.875 18.109375 30.90625 
L 18.109375 0 
L 9.078125 0 
L 9.078125 54.6875 
L 18.109375 54.6875 
L 18.109375 46.1875 
Q 21.1875 51.21875 25.484375 53.609375 
Q 29.78125 56 35.6875 56 
Q 41.65625 56 45.828125 52.96875 
Q 50 49.953125 52 44.1875 
z
" id="DejaVuSans-109"/>
     <path d="M 18.109375 8.203125 
L 18.109375 -20.796875 
L 9.078125 -20.796875 
L 9.078125 54.6875 
L 18.109375 54.6875 
L 18.109375 46.390625 
Q 20.953125 51.265625 25.265625 53.625 
Q 29.59375 56 35.59375 56 
Q 45.5625 56 51.78125 48.09375 
Q 58.015625 40.1875 58.015625 27.296875 
Q 58.015625 14.40625 51.78125 6.484375 
Q 45.5625 -1.421875 35.59375 -1.421875 
Q 29.59375 -1.421875 25.265625 0.953125 
Q 20.953125 3.328125 18.109375 8.203125 
z
M 48.6875 27.296875 
Q 48.6875 37.203125 44.609375 42.84375 
Q 40.53125 48.484375 33.40625 48.484375 
Q 26.265625 48.484375 22.1875 42.84375 
Q 18.109375 37.203125 18.109375 27.296875 
Q 18.109375 17.390625 22.1875 11.75 
Q 26.265625 6.109375 33.40625 6.109375 
Q 40.53125 6.109375 44.609375 11.75 
Q 48.6875 17.390625 48.6875 27.296875 
z
" id="DejaVuSans-112"/>
    </defs>
    <g transform="translate(236.33025 51.888)scale(0.12 -0.12)">
     <use xlink:href="#DejaVuSans-67"/>
     <use x="69.824219" xlink:href="#DejaVuSans-79"/>
     <use x="148.519531" xlink:href="#DejaVuSans-86"/>
     <use x="216.927734" xlink:href="#DejaVuSans-73"/>
     <use x="246.419922" xlink:href="#DejaVuSans-68"/>
     <use x="323.421875" xlink:href="#DejaVuSans-45"/>
     <use x="359.505859" xlink:href="#DejaVuSans-49"/>
     <use x="423.128906" xlink:href="#DejaVuSans-57"/>
     <use x="486.751953" xlink:href="#DejaVuSans-32"/>
     <use x="518.539062" xlink:href="#DejaVuSans-99"/>
     <use x="573.519531" xlink:href="#DejaVuSans-97"/>
     <use x="634.798828" xlink:href="#DejaVuSans-115"/>
     <use x="686.898438" xlink:href="#DejaVuSans-101"/>
     <use x="748.421875" xlink:href="#DejaVuSans-115"/>
     <use x="800.521484" xlink:href="#DejaVuSans-44"/>
     <use x="832.308594" xlink:href="#DejaVuSans-32"/>
     <use x="864.095703" xlink:href="#DejaVuSans-115"/>
     <use x="916.195312" xlink:href="#DejaVuSans-101"/>
     <use x="977.71875" xlink:href="#DejaVuSans-108"/>
     <use x="1005.501953" xlink:href="#DejaVuSans-101"/>
     <use x="1067.025391" xlink:href="#DejaVuSans-99"/>
     <use x="1122.005859" xlink:href="#DejaVuSans-116"/>
     <use x="1161.214844" xlink:href="#DejaVuSans-101"/>
     <use x="1222.738281" xlink:href="#DejaVuSans-100"/>
     <use x="1286.214844" xlink:href="#DejaVuSans-32"/>
     <use x="1318.001953" xlink:href="#DejaVuSans-99"/>
     <use x="1372.982422" xlink:href="#DejaVuSans-111"/>
     <use x="1434.164062" xlink:href="#DejaVuSans-117"/>
     <use x="1497.542969" xlink:href="#DejaVuSans-110"/>
     <use x="1560.921875" xlink:href="#DejaVuSans-116"/>
     <use x="1600.130859" xlink:href="#DejaVuSans-114"/>
     <use x="1641.244141" xlink:href="#DejaVuSans-105"/>
     <use x="1669.027344" xlink:href="#DejaVuSans-101"/>
     <use x="1730.550781" xlink:href="#DejaVuSans-115"/>
     <use x="1782.650391" xlink:href="#DejaVuSans-44"/>
     <use x="1814.4375" xlink:href="#DejaVuSans-32"/>
     <use x="1846.224609" xlink:href="#DejaVuSans-100"/>
     <use x="1909.701172" xlink:href="#DejaVuSans-97"/>
     <use x="1970.980469" xlink:href="#DejaVuSans-116"/>
     <use x="2010.189453" xlink:href="#DejaVuSans-97"/>
     <use x="2071.46875" xlink:href="#DejaVuSans-32"/>
     <use x="2103.255859" xlink:href="#DejaVuSans-102"/>
     <use x="2138.460938" xlink:href="#DejaVuSans-114"/>
     <use x="2179.542969" xlink:href="#DejaVuSans-111"/>
     <use x="2240.724609" xlink:href="#DejaVuSans-109"/>
     <use x="2338.136719" xlink:href="#DejaVuSans-32"/>
     <use x="2369.923828" xlink:href="#DejaVuSans-101"/>
     <use x="2431.447266" xlink:href="#DejaVuSans-99"/>
     <use x="2486.427734" xlink:href="#DejaVuSans-100"/>
     <use x="2549.904297" xlink:href="#DejaVuSans-99"/>
     <use x="2604.884766" xlink:href="#DejaVuSans-46"/>
     <use x="2636.671875" xlink:href="#DejaVuSans-101"/>
     <use x="2698.195312" xlink:href="#DejaVuSans-117"/>
     <use x="2761.574219" xlink:href="#DejaVuSans-114"/>
     <use x="2802.65625" xlink:href="#DejaVuSans-111"/>
     <use x="2863.837891" xlink:href="#DejaVuSans-112"/>
     <use x="2927.314453" xlink:href="#DejaVuSans-97"/>
     <use x="2988.59375" xlink:href="#DejaVuSans-46"/>
     <use x="3020.380859" xlink:href="#DejaVuSans-101"/>
     <use x="3081.904297" xlink:href="#DejaVuSans-117"/>
     <use x="3145.283203" xlink:href="#DejaVuSans-32"/>
     <use x="3177.070312" xlink:href="#DejaVuSans-97"/>
     <use x="3238.349609" xlink:href="#DejaVuSans-115"/>
     <use x="3290.449219" xlink:href="#DejaVuSans-32"/>
     <use x="3322.236328" xlink:href="#DejaVuSans-111"/>
     <use x="3383.417969" xlink:href="#DejaVuSans-102"/>
     <use x="3418.623047" xlink:href="#DejaVuSans-32"/>
     <use x="3450.410156" xlink:href="#DejaVuSans-50"/>
     <use x="3514.033203" xlink:href="#DejaVuSans-48"/>
     <use x="3577.65625" xlink:href="#DejaVuSans-50"/>
     <use x="3641.279297" xlink:href="#DejaVuSans-48"/>
     <use x="3704.902344" xlink:href="#DejaVuSans-45"/>
     <use x="3740.986328" xlink:href="#DejaVuSans-48"/>
     <use x="3804.609375" xlink:href="#DejaVuSans-51"/>
     <use x="3868.232422" xlink:href="#DejaVuSans-45"/>
     <use x="3904.316406" xlink:href="#DejaVuSans-49"/>
     <use x="3967.939453" xlink:href="#DejaVuSans-53"/>
    </g>
   </g>
   <g id="legend_1">
    <g id="patch_7">
     <path d="M 123.64 183.313 
L 232.222813 183.313 
Q 234.222813 183.313 234.222813 181.313 
L 234.222813 64.888 
Q 234.222813 62.888 232.222813 62.888 
L 123.64 62.888 
Q 121.64 62.888 121.64 64.888 
L 121.64 181.313 
Q 121.64 183.313 123.64 183.313 
z
" style="fill:#ffffff;opacity:0.8;stroke:#cccccc;stroke-linejoin:miter;"/>
    </g>
    <g id="line2d_22">
     <path d="M 125.64 70.986437 
L 145.64 70.986437 
" style="fill:none;stroke:#1f77b4;stroke-linecap:square;stroke-width:1.5;"/>
    </g>
    <g id="line2d_23"/>
    <g id="text_16">
     <!-- Austria -->
     <defs>
      <path d="M 34.1875 63.1875 
L 20.796875 26.90625 
L 47.609375 26.90625 
z
M 28.609375 72.90625 
L 39.796875 72.90625 
L 67.578125 0 
L 57.328125 0 
L 50.6875 18.703125 
L 17.828125 18.703125 
L 11.1875 0 
L 0.78125 0 
z
" id="DejaVuSans-65"/>
     </defs>
     <g transform="translate(153.64 74.486437)scale(0.1 -0.1)">
      <use xlink:href="#DejaVuSans-65"/>
      <use x="68.408203" xlink:href="#DejaVuSans-117"/>
      <use x="131.787109" xlink:href="#DejaVuSans-115"/>
      <use x="183.886719" xlink:href="#DejaVuSans-116"/>
      <use x="223.095703" xlink:href="#DejaVuSans-114"/>
      <use x="264.208984" xlink:href="#DejaVuSans-105"/>
      <use x="291.992188" xlink:href="#DejaVuSans-97"/>
     </g>
    </g>
    <g id="line2d_24">
     <path d="M 125.64 85.664562 
L 145.64 85.664562 
" style="fill:none;stroke:#ff7f0e;stroke-linecap:square;stroke-width:1.5;"/>
    </g>
    <g id="line2d_25"/>
    <g id="text_17">
     <!-- China -->
     <defs>
      <path d="M 54.890625 33.015625 
L 54.890625 0 
L 45.90625 0 
L 45.90625 32.71875 
Q 45.90625 40.484375 42.875 44.328125 
Q 39.84375 48.1875 33.796875 48.1875 
Q 26.515625 48.1875 22.3125 43.546875 
Q 18.109375 38.921875 18.109375 30.90625 
L 18.109375 0 
L 9.078125 0 
L 9.078125 75.984375 
L 18.109375 75.984375 
L 18.109375 46.1875 
Q 21.34375 51.125 25.703125 53.5625 
Q 30.078125 56 35.796875 56 
Q 45.21875 56 50.046875 50.171875 
Q 54.890625 44.34375 54.890625 33.015625 
z
" id="DejaVuSans-104"/>
     </defs>
     <g transform="translate(153.64 89.164562)scale(0.1 -0.1)">
      <use xlink:href="#DejaVuSans-67"/>
      <use x="69.824219" xlink:href="#DejaVuSans-104"/>
      <use x="133.203125" xlink:href="#DejaVuSans-105"/>
      <use x="160.986328" xlink:href="#DejaVuSans-110"/>
      <use x="224.365234" xlink:href="#DejaVuSans-97"/>
     </g>
    </g>
    <g id="line2d_26">
     <path d="M 125.64 100.342687 
L 145.64 100.342687 
" style="fill:none;stroke:#2ca02c;stroke-linecap:square;stroke-width:1.5;"/>
    </g>
    <g id="line2d_27"/>
    <g id="text_18">
     <!-- Czech Republic -->
     <defs>
      <path d="M 5.515625 54.6875 
L 48.1875 54.6875 
L 48.1875 46.484375 
L 14.40625 7.171875 
L 48.1875 7.171875 
L 48.1875 0 
L 4.296875 0 
L 4.296875 8.203125 
L 38.09375 47.515625 
L 5.515625 47.515625 
z
" id="DejaVuSans-122"/>
      <path d="M 44.390625 34.1875 
Q 47.5625 33.109375 50.5625 29.59375 
Q 53.5625 26.078125 56.59375 19.921875 
L 66.609375 0 
L 56 0 
L 46.6875 18.703125 
Q 43.0625 26.03125 39.671875 28.421875 
Q 36.28125 30.8125 30.421875 30.8125 
L 19.671875 30.8125 
L 19.671875 0 
L 9.8125 0 
L 9.8125 72.90625 
L 32.078125 72.90625 
Q 44.578125 72.90625 50.734375 67.671875 
Q 56.890625 62.453125 56.890625 51.90625 
Q 56.890625 45.015625 53.6875 40.46875 
Q 50.484375 35.9375 44.390625 34.1875 
z
M 19.671875 64.796875 
L 19.671875 38.921875 
L 32.078125 38.921875 
Q 39.203125 38.921875 42.84375 42.21875 
Q 46.484375 45.515625 46.484375 51.90625 
Q 46.484375 58.296875 42.84375 61.546875 
Q 39.203125 64.796875 32.078125 64.796875 
z
" id="DejaVuSans-82"/>
      <path d="M 48.6875 27.296875 
Q 48.6875 37.203125 44.609375 42.84375 
Q 40.53125 48.484375 33.40625 48.484375 
Q 26.265625 48.484375 22.1875 42.84375 
Q 18.109375 37.203125 18.109375 27.296875 
Q 18.109375 17.390625 22.1875 11.75 
Q 26.265625 6.109375 33.40625 6.109375 
Q 40.53125 6.109375 44.609375 11.75 
Q 48.6875 17.390625 48.6875 27.296875 
z
M 18.109375 46.390625 
Q 20.953125 51.265625 25.265625 53.625 
Q 29.59375 56 35.59375 56 
Q 45.5625 56 51.78125 48.09375 
Q 58.015625 40.1875 58.015625 27.296875 
Q 58.015625 14.40625 51.78125 6.484375 
Q 45.5625 -1.421875 35.59375 -1.421875 
Q 29.59375 -1.421875 25.265625 0.953125 
Q 20.953125 3.328125 18.109375 8.203125 
L 18.109375 0 
L 9.078125 0 
L 9.078125 75.984375 
L 18.109375 75.984375 
z
" id="DejaVuSans-98"/>
     </defs>
     <g transform="translate(153.64 103.842687)scale(0.1 -0.1)">
      <use xlink:href="#DejaVuSans-67"/>
      <use x="69.824219" xlink:href="#DejaVuSans-122"/>
      <use x="122.314453" xlink:href="#DejaVuSans-101"/>
      <use x="183.837891" xlink:href="#DejaVuSans-99"/>
      <use x="238.818359" xlink:href="#DejaVuSans-104"/>
      <use x="302.197266" xlink:href="#DejaVuSans-32"/>
      <use x="333.984375" xlink:href="#DejaVuSans-82"/>
      <use x="403.404297" xlink:href="#DejaVuSans-101"/>
      <use x="464.927734" xlink:href="#DejaVuSans-112"/>
      <use x="528.404297" xlink:href="#DejaVuSans-117"/>
      <use x="591.783203" xlink:href="#DejaVuSans-98"/>
      <use x="655.259766" xlink:href="#DejaVuSans-108"/>
      <use x="683.042969" xlink:href="#DejaVuSans-105"/>
      <use x="710.826172" xlink:href="#DejaVuSans-99"/>
     </g>
    </g>
    <g id="line2d_28">
     <path d="M 125.64 115.020812 
L 145.64 115.020812 
" style="fill:none;stroke:#d62728;stroke-linecap:square;stroke-width:1.5;"/>
    </g>
    <g id="line2d_29"/>
    <g id="text_19">
     <!-- France -->
     <defs>
      <path d="M 9.8125 72.90625 
L 51.703125 72.90625 
L 51.703125 64.59375 
L 19.671875 64.59375 
L 19.671875 43.109375 
L 48.578125 43.109375 
L 48.578125 34.8125 
L 19.671875 34.8125 
L 19.671875 0 
L 9.8125 0 
z
" id="DejaVuSans-70"/>
     </defs>
     <g transform="translate(153.64 118.520812)scale(0.1 -0.1)">
      <use xlink:href="#DejaVuSans-70"/>
      <use x="57.410156" xlink:href="#DejaVuSans-114"/>
      <use x="98.523438" xlink:href="#DejaVuSans-97"/>
      <use x="159.802734" xlink:href="#DejaVuSans-110"/>
      <use x="223.181641" xlink:href="#DejaVuSans-99"/>
      <use x="278.162109" xlink:href="#DejaVuSans-101"/>
     </g>
    </g>
    <g id="line2d_30">
     <path d="M 125.64 129.698937 
L 145.64 129.698937 
" style="fill:none;stroke:#9467bd;stroke-linecap:square;stroke-width:1.5;"/>
    </g>
    <g id="line2d_31"/>
    <g id="text_20">
     <!-- Germany -->
     <defs>
      <path d="M 59.515625 10.40625 
L 59.515625 29.984375 
L 43.40625 29.984375 
L 43.40625 38.09375 
L 69.28125 38.09375 
L 69.28125 6.78125 
Q 63.578125 2.734375 56.6875 0.65625 
Q 49.8125 -1.421875 42 -1.421875 
Q 24.90625 -1.421875 15.25 8.5625 
Q 5.609375 18.5625 5.609375 36.375 
Q 5.609375 54.25 15.25 64.234375 
Q 24.90625 74.21875 42 74.21875 
Q 49.125 74.21875 55.546875 72.453125 
Q 61.96875 70.703125 67.390625 67.28125 
L 67.390625 56.78125 
Q 61.921875 61.421875 55.765625 63.765625 
Q 49.609375 66.109375 42.828125 66.109375 
Q 29.4375 66.109375 22.71875 58.640625 
Q 16.015625 51.171875 16.015625 36.375 
Q 16.015625 21.625 22.71875 14.15625 
Q 29.4375 6.6875 42.828125 6.6875 
Q 48.046875 6.6875 52.140625 7.59375 
Q 56.25 8.5 59.515625 10.40625 
z
" id="DejaVuSans-71"/>
      <path d="M 32.171875 -5.078125 
Q 28.375 -14.84375 24.75 -17.8125 
Q 21.140625 -20.796875 15.09375 -20.796875 
L 7.90625 -20.796875 
L 7.90625 -13.28125 
L 13.1875 -13.28125 
Q 16.890625 -13.28125 18.9375 -11.515625 
Q 21 -9.765625 23.484375 -3.21875 
L 25.09375 0.875 
L 2.984375 54.6875 
L 12.5 54.6875 
L 29.59375 11.921875 
L 46.6875 54.6875 
L 56.203125 54.6875 
z
" id="DejaVuSans-121"/>
     </defs>
     <g transform="translate(153.64 133.198937)scale(0.1 -0.1)">
      <use xlink:href="#DejaVuSans-71"/>
      <use x="77.490234" xlink:href="#DejaVuSans-101"/>
      <use x="139.013672" xlink:href="#DejaVuSans-114"/>
      <use x="180.111328" xlink:href="#DejaVuSans-109"/>
      <use x="277.523438" xlink:href="#DejaVuSans-97"/>
      <use x="338.802734" xlink:href="#DejaVuSans-110"/>
      <use x="402.181641" xlink:href="#DejaVuSans-121"/>
     </g>
    </g>
    <g id="line2d_32">
     <path d="M 125.64 144.377062 
L 145.64 144.377062 
" style="fill:none;stroke:#8c564b;stroke-linecap:square;stroke-width:1.5;"/>
    </g>
    <g id="line2d_33"/>
    <g id="text_21">
     <!-- Italy -->
     <g transform="translate(153.64 147.877062)scale(0.1 -0.1)">
      <use xlink:href="#DejaVuSans-73"/>
      <use x="29.492188" xlink:href="#DejaVuSans-116"/>
      <use x="68.701172" xlink:href="#DejaVuSans-97"/>
      <use x="129.980469" xlink:href="#DejaVuSans-108"/>
      <use x="157.763672" xlink:href="#DejaVuSans-121"/>
     </g>
    </g>
    <g id="line2d_34">
     <path d="M 125.64 159.055187 
L 145.64 159.055187 
" style="fill:none;stroke:#e377c2;stroke-linecap:square;stroke-width:1.5;"/>
    </g>
    <g id="line2d_35"/>
    <g id="text_22">
     <!-- Slovakia -->
     <defs>
      <path d="M 53.515625 70.515625 
L 53.515625 60.890625 
Q 47.90625 63.578125 42.921875 64.890625 
Q 37.9375 66.21875 33.296875 66.21875 
Q 25.25 66.21875 20.875 63.09375 
Q 16.5 59.96875 16.5 54.203125 
Q 16.5 49.359375 19.40625 46.890625 
Q 22.3125 44.4375 30.421875 42.921875 
L 36.375 41.703125 
Q 47.40625 39.59375 52.65625 34.296875 
Q 57.90625 29 57.90625 20.125 
Q 57.90625 9.515625 50.796875 4.046875 
Q 43.703125 -1.421875 29.984375 -1.421875 
Q 24.8125 -1.421875 18.96875 -0.25 
Q 13.140625 0.921875 6.890625 3.21875 
L 6.890625 13.375 
Q 12.890625 10.015625 18.65625 8.296875 
Q 24.421875 6.59375 29.984375 6.59375 
Q 38.421875 6.59375 43.015625 9.90625 
Q 47.609375 13.234375 47.609375 19.390625 
Q 47.609375 24.75 44.3125 27.78125 
Q 41.015625 30.8125 33.5 32.328125 
L 27.484375 33.5 
Q 16.453125 35.6875 11.515625 40.375 
Q 6.59375 45.0625 6.59375 53.421875 
Q 6.59375 63.09375 13.40625 68.65625 
Q 20.21875 74.21875 32.171875 74.21875 
Q 37.3125 74.21875 42.625 73.28125 
Q 47.953125 72.359375 53.515625 70.515625 
z
" id="DejaVuSans-83"/>
      <path d="M 2.984375 54.6875 
L 12.5 54.6875 
L 29.59375 8.796875 
L 46.6875 54.6875 
L 56.203125 54.6875 
L 35.6875 0 
L 23.484375 0 
z
" id="DejaVuSans-118"/>
      <path d="M 9.078125 75.984375 
L 18.109375 75.984375 
L 18.109375 31.109375 
L 44.921875 54.6875 
L 56.390625 54.6875 
L 27.390625 29.109375 
L 57.625 0 
L 45.90625 0 
L 18.109375 26.703125 
L 18.109375 0 
L 9.078125 0 
z
" id="DejaVuSans-107"/>
     </defs>
     <g transform="translate(153.64 162.555187)scale(0.1 -0.1)">
      <use xlink:href="#DejaVuSans-83"/>
      <use x="63.476562" xlink:href="#DejaVuSans-108"/>
      <use x="91.259766" xlink:href="#DejaVuSans-111"/>
      <use x="152.441406" xlink:href="#DejaVuSans-118"/>
      <use x="211.621094" xlink:href="#DejaVuSans-97"/>
      <use x="272.900391" xlink:href="#DejaVuSans-107"/>
      <use x="330.810547" xlink:href="#DejaVuSans-105"/>
      <use x="358.59375" xlink:href="#DejaVuSans-97"/>
     </g>
    </g>
    <g id="line2d_36">
     <path d="M 125.64 173.733312 
L 145.64 173.733312 
" style="fill:none;stroke:#7f7f7f;stroke-linecap:square;stroke-width:1.5;"/>
    </g>
    <g id="line2d_37"/>
    <g id="text_23">
     <!-- Switzerland -->
     <defs>
      <path d="M 4.203125 54.6875 
L 13.1875 54.6875 
L 24.421875 12.015625 
L 35.59375 54.6875 
L 46.1875 54.6875 
L 57.421875 12.015625 
L 68.609375 54.6875 
L 77.59375 54.6875 
L 63.28125 0 
L 52.6875 0 
L 40.921875 44.828125 
L 29.109375 0 
L 18.5 0 
z
" id="DejaVuSans-119"/>
     </defs>
     <g transform="translate(153.64 177.233312)scale(0.1 -0.1)">
      <use xlink:href="#DejaVuSans-83"/>
      <use x="63.476562" xlink:href="#DejaVuSans-119"/>
      <use x="145.263672" xlink:href="#DejaVuSans-105"/>
      <use x="173.046875" xlink:href="#DejaVuSans-116"/>
      <use x="212.255859" xlink:href="#DejaVuSans-122"/>
      <use x="264.746094" xlink:href="#DejaVuSans-101"/>
      <use x="326.269531" xlink:href="#DejaVuSans-114"/>
      <use x="367.382812" xlink:href="#DejaVuSans-108"/>
      <use x="395.166016" xlink:href="#DejaVuSans-97"/>
      <use x="456.445312" xlink:href="#DejaVuSans-110"/>
      <use x="519.824219" xlink:href="#DejaVuSans-100"/>
     </g>
    </g>
   </g>
  </g>
  <g id="axes_2">
   <g id="patch_8">
    <path d="M 116.64 429.336 
L 839.808 429.336 
L 839.808 260.496 
L 116.64 260.496 
z
" style="fill:#ffffff;"/>
   </g>
   <g id="matplotlib.axis_3">
    <g id="xtick_9">
     <g id="line2d_38">
      <g>
       <use style="stroke:#000000;stroke-width:0.8;" x="149.511273" xlink:href="#m59d3ec35ac" y="429.336"/>
      </g>
     </g>
     <g id="text_24">
      <!-- 0 -->
      <g transform="translate(146.330023 443.934438)scale(0.1 -0.1)">
       <use xlink:href="#DejaVuSans-48"/>
      </g>
     </g>
    </g>
    <g id="xtick_10">
     <g id="line2d_39">
      <g>
       <use style="stroke:#000000;stroke-width:0.8;" x="237.168" xlink:href="#m59d3ec35ac" y="429.336"/>
      </g>
     </g>
     <g id="text_25">
      <!-- 10 -->
      <g transform="translate(230.8055 443.934438)scale(0.1 -0.1)">
       <use xlink:href="#DejaVuSans-49"/>
       <use x="63.623047" xlink:href="#DejaVuSans-48"/>
      </g>
     </g>
    </g>
    <g id="xtick_11">
     <g id="line2d_40">
      <g>
       <use style="stroke:#000000;stroke-width:0.8;" x="324.824727" xlink:href="#m59d3ec35ac" y="429.336"/>
      </g>
     </g>
     <g id="text_26">
      <!-- 20 -->
      <g transform="translate(318.462227 443.934438)scale(0.1 -0.1)">
       <use xlink:href="#DejaVuSans-50"/>
       <use x="63.623047" xlink:href="#DejaVuSans-48"/>
      </g>
     </g>
    </g>
    <g id="xtick_12">
     <g id="line2d_41">
      <g>
       <use style="stroke:#000000;stroke-width:0.8;" x="412.481455" xlink:href="#m59d3ec35ac" y="429.336"/>
      </g>
     </g>
     <g id="text_27">
      <!-- 30 -->
      <g transform="translate(406.118955 443.934438)scale(0.1 -0.1)">
       <use xlink:href="#DejaVuSans-51"/>
       <use x="63.623047" xlink:href="#DejaVuSans-48"/>
      </g>
     </g>
    </g>
    <g id="xtick_13">
     <g id="line2d_42">
      <g>
       <use style="stroke:#000000;stroke-width:0.8;" x="500.138182" xlink:href="#m59d3ec35ac" y="429.336"/>
      </g>
     </g>
     <g id="text_28">
      <!-- 40 -->
      <g transform="translate(493.775682 443.934438)scale(0.1 -0.1)">
       <use xlink:href="#DejaVuSans-52"/>
       <use x="63.623047" xlink:href="#DejaVuSans-48"/>
      </g>
     </g>
    </g>
    <g id="xtick_14">
     <g id="line2d_43">
      <g>
       <use style="stroke:#000000;stroke-width:0.8;" x="587.794909" xlink:href="#m59d3ec35ac" y="429.336"/>
      </g>
     </g>
     <g id="text_29">
      <!-- 50 -->
      <g transform="translate(581.432409 443.934438)scale(0.1 -0.1)">
       <use xlink:href="#DejaVuSans-53"/>
       <use x="63.623047" xlink:href="#DejaVuSans-48"/>
      </g>
     </g>
    </g>
    <g id="xtick_15">
     <g id="line2d_44">
      <g>
       <use style="stroke:#000000;stroke-width:0.8;" x="675.451636" xlink:href="#m59d3ec35ac" y="429.336"/>
      </g>
     </g>
     <g id="text_30">
      <!-- 60 -->
      <g transform="translate(669.089136 443.934438)scale(0.1 -0.1)">
       <use xlink:href="#DejaVuSans-54"/>
       <use x="63.623047" xlink:href="#DejaVuSans-48"/>
      </g>
     </g>
    </g>
    <g id="xtick_16">
     <g id="line2d_45">
      <g>
       <use style="stroke:#000000;stroke-width:0.8;" x="763.108364" xlink:href="#m59d3ec35ac" y="429.336"/>
      </g>
     </g>
     <g id="text_31">
      <!-- 70 -->
      <g transform="translate(756.745864 443.934438)scale(0.1 -0.1)">
       <use xlink:href="#DejaVuSans-55"/>
       <use x="63.623047" xlink:href="#DejaVuSans-48"/>
      </g>
     </g>
    </g>
    <g id="text_32">
     <!-- days -->
     <g transform="translate(466.421656 457.612563)scale(0.1 -0.1)">
      <use xlink:href="#DejaVuSans-100"/>
      <use x="63.476562" xlink:href="#DejaVuSans-97"/>
      <use x="124.755859" xlink:href="#DejaVuSans-121"/>
      <use x="183.935547" xlink:href="#DejaVuSans-115"/>
     </g>
    </g>
   </g>
   <g id="matplotlib.axis_4">
    <g id="ytick_6">
     <g id="line2d_46">
      <g>
       <use style="stroke:#000000;stroke-width:0.8;" x="116.64" xlink:href="#mcb0c8cbfe8" y="421.661455"/>
      </g>
     </g>
     <g id="text_33">
      <!-- $\mathdefault{10^{0}}$ -->
      <g transform="translate(92.04 425.460673)scale(0.1 -0.1)">
       <use transform="translate(0 0.765625)" xlink:href="#DejaVuSans-49"/>
       <use transform="translate(63.623047 0.765625)" xlink:href="#DejaVuSans-48"/>
       <use transform="translate(128.203125 39.046875)scale(0.7)" xlink:href="#DejaVuSans-48"/>
      </g>
     </g>
    </g>
    <g id="ytick_7">
     <g id="line2d_47">
      <g>
       <use style="stroke:#000000;stroke-width:0.8;" x="116.64" xlink:href="#mcb0c8cbfe8" y="390.390758"/>
      </g>
     </g>
     <g id="text_34">
      <!-- $\mathdefault{10^{1}}$ -->
      <g transform="translate(92.04 394.189976)scale(0.1 -0.1)">
       <use transform="translate(0 0.684375)" xlink:href="#DejaVuSans-49"/>
       <use transform="translate(63.623047 0.684375)" xlink:href="#DejaVuSans-48"/>
       <use transform="translate(128.203125 38.965625)scale(0.7)" xlink:href="#DejaVuSans-49"/>
      </g>
     </g>
    </g>
    <g id="ytick_8">
     <g id="line2d_48">
      <g>
       <use style="stroke:#000000;stroke-width:0.8;" x="116.64" xlink:href="#mcb0c8cbfe8" y="359.120061"/>
      </g>
     </g>
     <g id="text_35">
      <!-- $\mathdefault{10^{2}}$ -->
      <g transform="translate(92.04 362.919279)scale(0.1 -0.1)">
       <use transform="translate(0 0.765625)" xlink:href="#DejaVuSans-49"/>
       <use transform="translate(63.623047 0.765625)" xlink:href="#DejaVuSans-48"/>
       <use transform="translate(128.203125 39.046875)scale(0.7)" xlink:href="#DejaVuSans-50"/>
      </g>
     </g>
    </g>
    <g id="ytick_9">
     <g id="line2d_49">
      <g>
       <use style="stroke:#000000;stroke-width:0.8;" x="116.64" xlink:href="#mcb0c8cbfe8" y="327.849364"/>
      </g>
     </g>
     <g id="text_36">
      <!-- $\mathdefault{10^{3}}$ -->
      <g transform="translate(92.04 331.648582)scale(0.1 -0.1)">
       <use transform="translate(0 0.765625)" xlink:href="#DejaVuSans-49"/>
       <use transform="translate(63.623047 0.765625)" xlink:href="#DejaVuSans-48"/>
       <use transform="translate(128.203125 39.046875)scale(0.7)" xlink:href="#DejaVuSans-51"/>
      </g>
     </g>
    </g>
    <g id="ytick_10">
     <g id="line2d_50">
      <g>
       <use style="stroke:#000000;stroke-width:0.8;" x="116.64" xlink:href="#mcb0c8cbfe8" y="296.578667"/>
      </g>
     </g>
     <g id="text_37">
      <!-- $\mathdefault{10^{4}}$ -->
      <g transform="translate(92.04 300.377886)scale(0.1 -0.1)">
       <use transform="translate(0 0.684375)" xlink:href="#DejaVuSans-49"/>
       <use transform="translate(63.623047 0.684375)" xlink:href="#DejaVuSans-48"/>
       <use transform="translate(128.203125 38.965625)scale(0.7)" xlink:href="#DejaVuSans-52"/>
      </g>
     </g>
    </g>
    <g id="ytick_11">
     <g id="line2d_51">
      <g>
       <use style="stroke:#000000;stroke-width:0.8;" x="116.64" xlink:href="#mcb0c8cbfe8" y="265.30797"/>
      </g>
     </g>
     <g id="text_38">
      <!-- $\mathdefault{10^{5}}$ -->
      <g transform="translate(92.04 269.107189)scale(0.1 -0.1)">
       <use transform="translate(0 0.684375)" xlink:href="#DejaVuSans-49"/>
       <use transform="translate(63.623047 0.684375)" xlink:href="#DejaVuSans-48"/>
       <use transform="translate(128.203125 38.965625)scale(0.7)" xlink:href="#DejaVuSans-53"/>
      </g>
     </g>
    </g>
    <g id="ytick_12">
     <g id="line2d_52">
      <defs>
       <path d="M 0 0 
L -2 0 
" id="mbbf10a2b75" style="stroke:#000000;stroke-width:0.6;"/>
      </defs>
      <g>
       <use style="stroke:#000000;stroke-width:0.6;" x="116.64" xlink:href="#mbbf10a2b75" y="428.59882"/>
      </g>
     </g>
    </g>
    <g id="ytick_13">
     <g id="line2d_53">
      <g>
       <use style="stroke:#000000;stroke-width:0.6;" x="116.64" xlink:href="#mbbf10a2b75" y="426.505347"/>
      </g>
     </g>
    </g>
    <g id="ytick_14">
     <g id="line2d_54">
      <g>
       <use style="stroke:#000000;stroke-width:0.6;" x="116.64" xlink:href="#mbbf10a2b75" y="424.691898"/>
      </g>
     </g>
    </g>
    <g id="ytick_15">
     <g id="line2d_55">
      <g>
       <use style="stroke:#000000;stroke-width:0.6;" x="116.64" xlink:href="#mbbf10a2b75" y="423.092323"/>
      </g>
     </g>
    </g>
    <g id="ytick_16">
     <g id="line2d_56">
      <g>
       <use style="stroke:#000000;stroke-width:0.6;" x="116.64" xlink:href="#mbbf10a2b75" y="412.248037"/>
      </g>
     </g>
    </g>
    <g id="ytick_17">
     <g id="line2d_57">
      <g>
       <use style="stroke:#000000;stroke-width:0.6;" x="116.64" xlink:href="#mbbf10a2b75" y="406.74154"/>
      </g>
     </g>
    </g>
    <g id="ytick_18">
     <g id="line2d_58">
      <g>
       <use style="stroke:#000000;stroke-width:0.6;" x="116.64" xlink:href="#mbbf10a2b75" y="402.834619"/>
      </g>
     </g>
    </g>
    <g id="ytick_19">
     <g id="line2d_59">
      <g>
       <use style="stroke:#000000;stroke-width:0.6;" x="116.64" xlink:href="#mbbf10a2b75" y="399.804175"/>
      </g>
     </g>
    </g>
    <g id="ytick_20">
     <g id="line2d_60">
      <g>
       <use style="stroke:#000000;stroke-width:0.6;" x="116.64" xlink:href="#mbbf10a2b75" y="397.328123"/>
      </g>
     </g>
    </g>
    <g id="ytick_21">
     <g id="line2d_61">
      <g>
       <use style="stroke:#000000;stroke-width:0.6;" x="116.64" xlink:href="#mbbf10a2b75" y="395.23465"/>
      </g>
     </g>
    </g>
    <g id="ytick_22">
     <g id="line2d_62">
      <g>
       <use style="stroke:#000000;stroke-width:0.6;" x="116.64" xlink:href="#mbbf10a2b75" y="393.421201"/>
      </g>
     </g>
    </g>
    <g id="ytick_23">
     <g id="line2d_63">
      <g>
       <use style="stroke:#000000;stroke-width:0.6;" x="116.64" xlink:href="#mbbf10a2b75" y="391.821626"/>
      </g>
     </g>
    </g>
    <g id="ytick_24">
     <g id="line2d_64">
      <g>
       <use style="stroke:#000000;stroke-width:0.6;" x="116.64" xlink:href="#mbbf10a2b75" y="380.97734"/>
      </g>
     </g>
    </g>
    <g id="ytick_25">
     <g id="line2d_65">
      <g>
       <use style="stroke:#000000;stroke-width:0.6;" x="116.64" xlink:href="#mbbf10a2b75" y="375.470843"/>
      </g>
     </g>
    </g>
    <g id="ytick_26">
     <g id="line2d_66">
      <g>
       <use style="stroke:#000000;stroke-width:0.6;" x="116.64" xlink:href="#mbbf10a2b75" y="371.563922"/>
      </g>
     </g>
    </g>
    <g id="ytick_27">
     <g id="line2d_67">
      <g>
       <use style="stroke:#000000;stroke-width:0.6;" x="116.64" xlink:href="#mbbf10a2b75" y="368.533478"/>
      </g>
     </g>
    </g>
    <g id="ytick_28">
     <g id="line2d_68">
      <g>
       <use style="stroke:#000000;stroke-width:0.6;" x="116.64" xlink:href="#mbbf10a2b75" y="366.057426"/>
      </g>
     </g>
    </g>
    <g id="ytick_29">
     <g id="line2d_69">
      <g>
       <use style="stroke:#000000;stroke-width:0.6;" x="116.64" xlink:href="#mbbf10a2b75" y="363.963953"/>
      </g>
     </g>
    </g>
    <g id="ytick_30">
     <g id="line2d_70">
      <g>
       <use style="stroke:#000000;stroke-width:0.6;" x="116.64" xlink:href="#mbbf10a2b75" y="362.150504"/>
      </g>
     </g>
    </g>
    <g id="ytick_31">
     <g id="line2d_71">
      <g>
       <use style="stroke:#000000;stroke-width:0.6;" x="116.64" xlink:href="#mbbf10a2b75" y="360.550929"/>
      </g>
     </g>
    </g>
    <g id="ytick_32">
     <g id="line2d_72">
      <g>
       <use style="stroke:#000000;stroke-width:0.6;" x="116.64" xlink:href="#mbbf10a2b75" y="349.706643"/>
      </g>
     </g>
    </g>
    <g id="ytick_33">
     <g id="line2d_73">
      <g>
       <use style="stroke:#000000;stroke-width:0.6;" x="116.64" xlink:href="#mbbf10a2b75" y="344.200147"/>
      </g>
     </g>
    </g>
    <g id="ytick_34">
     <g id="line2d_74">
      <g>
       <use style="stroke:#000000;stroke-width:0.6;" x="116.64" xlink:href="#mbbf10a2b75" y="340.293225"/>
      </g>
     </g>
    </g>
    <g id="ytick_35">
     <g id="line2d_75">
      <g>
       <use style="stroke:#000000;stroke-width:0.6;" x="116.64" xlink:href="#mbbf10a2b75" y="337.262782"/>
      </g>
     </g>
    </g>
    <g id="ytick_36">
     <g id="line2d_76">
      <g>
       <use style="stroke:#000000;stroke-width:0.6;" x="116.64" xlink:href="#mbbf10a2b75" y="334.786729"/>
      </g>
     </g>
    </g>
    <g id="ytick_37">
     <g id="line2d_77">
      <g>
       <use style="stroke:#000000;stroke-width:0.6;" x="116.64" xlink:href="#mbbf10a2b75" y="332.693256"/>
      </g>
     </g>
    </g>
    <g id="ytick_38">
     <g id="line2d_78">
      <g>
       <use style="stroke:#000000;stroke-width:0.6;" x="116.64" xlink:href="#mbbf10a2b75" y="330.879807"/>
      </g>
     </g>
    </g>
    <g id="ytick_39">
     <g id="line2d_79">
      <g>
       <use style="stroke:#000000;stroke-width:0.6;" x="116.64" xlink:href="#mbbf10a2b75" y="329.280232"/>
      </g>
     </g>
    </g>
    <g id="ytick_40">
     <g id="line2d_80">
      <g>
       <use style="stroke:#000000;stroke-width:0.6;" x="116.64" xlink:href="#mbbf10a2b75" y="318.435946"/>
      </g>
     </g>
    </g>
    <g id="ytick_41">
     <g id="line2d_81">
      <g>
       <use style="stroke:#000000;stroke-width:0.6;" x="116.64" xlink:href="#mbbf10a2b75" y="312.92945"/>
      </g>
     </g>
    </g>
    <g id="ytick_42">
     <g id="line2d_82">
      <g>
       <use style="stroke:#000000;stroke-width:0.6;" x="116.64" xlink:href="#mbbf10a2b75" y="309.022528"/>
      </g>
     </g>
    </g>
    <g id="ytick_43">
     <g id="line2d_83">
      <g>
       <use style="stroke:#000000;stroke-width:0.6;" x="116.64" xlink:href="#mbbf10a2b75" y="305.992085"/>
      </g>
     </g>
    </g>
    <g id="ytick_44">
     <g id="line2d_84">
      <g>
       <use style="stroke:#000000;stroke-width:0.6;" x="116.64" xlink:href="#mbbf10a2b75" y="303.516032"/>
      </g>
     </g>
    </g>
    <g id="ytick_45">
     <g id="line2d_85">
      <g>
       <use style="stroke:#000000;stroke-width:0.6;" x="116.64" xlink:href="#mbbf10a2b75" y="301.422559"/>
      </g>
     </g>
    </g>
    <g id="ytick_46">
     <g id="line2d_86">
      <g>
       <use style="stroke:#000000;stroke-width:0.6;" x="116.64" xlink:href="#mbbf10a2b75" y="299.60911"/>
      </g>
     </g>
    </g>
    <g id="ytick_47">
     <g id="line2d_87">
      <g>
       <use style="stroke:#000000;stroke-width:0.6;" x="116.64" xlink:href="#mbbf10a2b75" y="298.009535"/>
      </g>
     </g>
    </g>
    <g id="ytick_48">
     <g id="line2d_88">
      <g>
       <use style="stroke:#000000;stroke-width:0.6;" x="116.64" xlink:href="#mbbf10a2b75" y="287.165249"/>
      </g>
     </g>
    </g>
    <g id="ytick_49">
     <g id="line2d_89">
      <g>
       <use style="stroke:#000000;stroke-width:0.6;" x="116.64" xlink:href="#mbbf10a2b75" y="281.658753"/>
      </g>
     </g>
    </g>
    <g id="ytick_50">
     <g id="line2d_90">
      <g>
       <use style="stroke:#000000;stroke-width:0.6;" x="116.64" xlink:href="#mbbf10a2b75" y="277.751831"/>
      </g>
     </g>
    </g>
    <g id="ytick_51">
     <g id="line2d_91">
      <g>
       <use style="stroke:#000000;stroke-width:0.6;" x="116.64" xlink:href="#mbbf10a2b75" y="274.721388"/>
      </g>
     </g>
    </g>
    <g id="ytick_52">
     <g id="line2d_92">
      <g>
       <use style="stroke:#000000;stroke-width:0.6;" x="116.64" xlink:href="#mbbf10a2b75" y="272.245335"/>
      </g>
     </g>
    </g>
    <g id="ytick_53">
     <g id="line2d_93">
      <g>
       <use style="stroke:#000000;stroke-width:0.6;" x="116.64" xlink:href="#mbbf10a2b75" y="270.151862"/>
      </g>
     </g>
    </g>
    <g id="ytick_54">
     <g id="line2d_94">
      <g>
       <use style="stroke:#000000;stroke-width:0.6;" x="116.64" xlink:href="#mbbf10a2b75" y="268.338414"/>
      </g>
     </g>
    </g>
    <g id="ytick_55">
     <g id="line2d_95">
      <g>
       <use style="stroke:#000000;stroke-width:0.6;" x="116.64" xlink:href="#mbbf10a2b75" y="266.738838"/>
      </g>
     </g>
    </g>
    <g id="text_39">
     <!-- No. cases -->
     <g transform="translate(85.960313 368.992563)rotate(-90)scale(0.1 -0.1)">
      <use xlink:href="#DejaVuSans-78"/>
      <use x="74.804688" xlink:href="#DejaVuSans-111"/>
      <use x="135.970703" xlink:href="#DejaVuSans-46"/>
      <use x="167.757812" xlink:href="#DejaVuSans-32"/>
      <use x="199.544922" xlink:href="#DejaVuSans-99"/>
      <use x="254.525391" xlink:href="#DejaVuSans-97"/>
      <use x="315.804688" xlink:href="#DejaVuSans-115"/>
      <use x="367.904297" xlink:href="#DejaVuSans-101"/>
      <use x="429.427734" xlink:href="#DejaVuSans-115"/>
     </g>
    </g>
   </g>
   <g id="line2d_96">
    <path clip-path="url(#p5d18d17e69)" d="M 149.511273 412.248037 
L 158.276945 412.248037 
L 167.042618 399.804175 
L 175.808291 395.23465 
L 184.573964 390.390758 
L 193.339636 385.821232 
L 202.105309 382.408208 
L 210.870982 378.501287 
L 219.636655 375.93125 
L 228.402327 371.228579 
L 237.168 363.209276 
L 245.933673 359.256551 
L 254.699345 358.851127 
L 263.465018 355.452906 
L 272.230691 350.987447 
L 280.996364 346.895247 
L 289.762036 341.686422 
L 298.527709 337.154568 
L 307.293382 333.595626 
" style="fill:none;stroke:#1f77b4;stroke-linecap:square;stroke-width:1.5;"/>
   </g>
   <g id="line2d_97">
    <path clip-path="url(#p5d18d17e69)" d="M 149.511273 376.901712 
L 158.276945 376.901712 
L 167.042618 376.901712 
L 175.808291 370.269544 
L 184.573964 370.269544 
L 193.339636 366.285678 
L 202.105309 366.285678 
L 210.870982 366.285678 
L 219.636655 366.285678 
L 228.402327 366.285678 
L 237.168 366.285678 
L 245.933673 366.285678 
L 254.699345 366.285678 
L 263.465018 366.285678 
L 272.230691 366.285678 
L 280.996364 366.285678 
L 289.762036 366.285678 
L 298.527709 365.394822 
L 307.293382 362.150504 
L 316.059055 348.661459 
L 324.824727 347.51651 
L 333.5904 340.777067 
L 342.356073 336.574334 
L 351.121745 334.275866 
L 359.887418 329.554599 
L 368.653091 324.048103 
L 377.418764 318.517676 
L 386.184436 313.988221 
L 394.950109 307.338713 
L 403.715782 303.529619 
L 412.481455 300.068346 
L 421.247127 296.972737 
L 430.0128 294.320512 
L 438.778473 291.627504 
L 447.544145 289.204846 
L 456.309818 286.864399 
L 465.075491 284.509317 
L 473.841164 282.572946 
L 482.606836 281.123062 
L 491.372509 279.711572 
L 500.138182 278.725714 
L 508.903855 277.68207 
L 517.669527 276.86602 
L 526.4352 276.235808 
L 535.200873 272.275926 
L 543.966545 271.364402 
L 552.732218 270.836417 
L 561.497891 270.432961 
L 570.263564 270.03249 
L 579.029236 269.673799 
L 587.794909 269.349919 
L 596.560582 269.278052 
L 605.326255 269.116921 
L 614.091927 268.969234 
L 622.8576 268.854662 
L 631.623273 268.816275 
L 640.388945 268.726019 
L 649.154618 268.654591 
L 657.920291 268.578525 
L 666.685964 268.521797 
L 675.451636 268.448352 
L 684.217309 268.350472 
L 692.982982 268.315685 
L 701.748655 268.294179 
L 710.514327 268.274058 
L 719.28 268.254304 
L 728.045673 268.225654 
L 736.811345 268.208661 
L 745.577018 268.200928 
L 754.342691 268.193368 
L 763.108364 268.190009 
L 771.874036 268.185141 
L 780.639709 268.181113 
L 789.405382 268.177422 
L 798.171055 268.174235 
L 806.936727 268.170545 
" style="fill:none;stroke:#ff7f0e;stroke-linecap:square;stroke-width:1.5;"/>
   </g>
   <g id="line2d_98">
    <path clip-path="url(#p5d18d17e69)" d="M 149.511273 406.74154 
L 158.276945 399.804175 
L 167.042618 399.804175 
L 175.808291 393.421201 
L 184.573964 387.914705 
L 193.339636 381.673938 
L 202.105309 377.414252 
L 210.870982 374.594366 
L 219.636655 371.563922 
L 228.402327 365.394822 
L 237.168 359.960371 
L 245.933673 357.104414 
L 254.699345 353.613564 
L 263.465018 348.787792 
" style="fill:none;stroke:#2ca02c;stroke-linecap:square;stroke-width:1.5;"/>
   </g>
   <g id="line2d_99">
    <path clip-path="url(#p5d18d17e69)" d="M 149.511273 406.74154 
L 158.276945 406.74154 
L 167.042618 406.74154 
L 175.808291 406.74154 
L 184.573964 402.834619 
L 193.339636 399.804175 
L 202.105309 397.328123 
L 210.870982 397.328123 
L 219.636655 397.328123 
L 228.402327 397.328123 
L 237.168 397.328123 
L 245.933673 397.328123 
L 254.699345 397.328123 
L 263.465018 397.328123 
L 272.230691 389.096379 
L 280.996364 389.096379 
L 289.762036 389.096379 
L 298.527709 389.096379 
L 307.293382 389.096379 
L 316.059055 389.096379 
L 324.824727 389.096379 
L 333.5904 389.096379 
L 342.356073 389.096379 
L 351.121745 387.914705 
L 359.887418 387.914705 
L 368.653091 387.914705 
L 377.418764 387.914705 
L 386.184436 387.914705 
L 394.950109 387.914705 
L 403.715782 387.914705 
L 412.481455 387.914705 
L 421.247127 387.914705 
L 430.0128 385.821232 
L 438.778473 383.184459 
L 447.544145 372.26052 
L 456.309818 366.754024 
L 465.075491 359.120061 
L 473.841164 355.556973 
L 482.606836 351.289253 
L 491.372509 348.915311 
L 500.138182 344.896745 
L 508.903855 339.533961 
L 517.669527 334.495623 
L 526.4352 332.386335 
L 535.200873 326.237722 
L 543.966545 323.163928 
L 552.732218 319.988072 
L 561.497891 316.650536 
L 570.263564 313.502716 
L 579.029236 310.225207 
L 587.794909 307.425971 
" style="fill:none;stroke:#d62728;stroke-linecap:square;stroke-width:1.5;"/>
   </g>
   <g id="line2d_100">
    <path clip-path="url(#p5d18d17e69)" d="M 149.511273 421.661455 
L 158.276945 402.834619 
L 167.042618 402.834619 
L 175.808291 399.804175 
L 184.573964 395.23465 
L 193.339636 393.421201 
L 202.105309 391.821626 
L 210.870982 389.096379 
L 219.636655 389.096379 
L 228.402327 389.096379 
L 237.168 387.914705 
L 245.933673 386.82767 
L 254.699345 386.82767 
L 263.465018 386.82767 
L 272.230691 386.82767 
L 280.996364 384.884261 
L 289.762036 384.884261 
L 298.527709 384.884261 
L 307.293382 384.884261 
L 316.059055 384.884261 
L 324.824727 384.884261 
L 333.5904 384.884261 
L 342.356073 384.884261 
L 351.121745 384.884261 
L 359.887418 384.884261 
L 368.653091 384.884261 
L 377.418764 384.884261 
L 386.184436 384.884261 
L 394.950109 384.884261 
L 403.715782 383.184459 
L 412.481455 380.314736 
L 421.247127 369.373789 
L 430.0128 366.754024 
L 438.778473 357.70278 
L 447.544145 355.661843 
L 456.309818 352.994142 
L 465.075491 349.98101 
L 473.841164 346.039488 
L 482.606836 340.293225 
L 491.372509 333.007274 
L 500.138182 330.1045 
L 508.903855 329.250087 
L 517.669527 326.081827 
L 526.4352 324.328127 
L 535.200873 321.74942 
L 543.966545 316.136453 
L 552.732218 312.651643 
L 561.497891 309.737008 
" style="fill:none;stroke:#9467bd;stroke-linecap:square;stroke-width:1.5;"/>
   </g>
   <g id="line2d_101">
    <path clip-path="url(#p5d18d17e69)" d="M 149.511273 406.74154 
L 158.276945 406.74154 
L 167.042618 406.74154 
L 175.808291 406.74154 
L 184.573964 406.74154 
L 193.339636 406.74154 
L 202.105309 406.74154 
L 210.870982 406.74154 
L 219.636655 406.74154 
L 228.402327 406.74154 
L 237.168 406.74154 
L 245.933673 406.74154 
L 254.699345 406.74154 
L 263.465018 406.74154 
L 272.230691 406.74154 
L 280.996364 406.74154 
L 289.762036 406.74154 
L 298.527709 406.74154 
L 307.293382 406.74154 
L 316.059055 406.74154 
L 324.824727 406.74154 
L 333.5904 406.74154 
L 342.356073 383.184459 
L 351.121745 362.321333 
L 359.887418 355.34963 
L 368.653091 347.867754 
L 377.418764 343.239054 
L 386.184436 340.293225 
L 394.950109 333.699693 
L 403.715782 329.462526 
L 412.481455 326.213622 
L 421.247127 320.731226 
L 430.0128 319.60528 
L 438.778473 315.394642 
L 447.544145 312.532416 
L 456.309818 309.513408 
L 465.075491 307.018595 
L 473.841164 303.783471 
L 482.606836 300.71384 
L 491.372509 297.752442 
L 500.138182 296.377807 
L 508.903855 293.589571 
L 517.669527 290.970246 
L 526.4352 288.855096 
L 535.200873 288.78606 
" style="fill:none;stroke:#8c564b;stroke-linecap:square;stroke-width:1.5;"/>
   </g>
   <g id="line2d_102">
    <path clip-path="url(#p5d18d17e69)" d="M 149.511273 421.661455 
L 158.276945 406.74154 
L 167.042618 399.804175 
L 175.808291 395.23465 
L 184.573964 390.390758 
L 193.339636 380.314736 
L 202.105309 375.470843 
L 210.870982 370.269544 
" style="fill:none;stroke:#e377c2;stroke-linecap:square;stroke-width:1.5;"/>
   </g>
   <g id="line2d_103">
    <path clip-path="url(#p5d18d17e69)" d="M 149.511273 421.661455 
L 158.276945 421.661455 
L 167.042618 393.421201 
L 175.808291 387.914705 
L 184.573964 382.408208 
L 193.339636 378.501287 
L 202.105309 375.470843 
L 210.870982 372.622694 
L 219.636655 366.754024 
L 228.402327 361.011336 
L 237.168 349.108863 
L 245.933673 345.936212 
L 254.699345 342.82371 
L 263.465018 341.205966 
L 272.230691 337.537148 
L 280.996364 333.867878 
L 289.762036 329.992724 
L 298.527709 326.298162 
L 307.293382 323.683498 
" style="fill:none;stroke:#7f7f7f;stroke-linecap:square;stroke-width:1.5;"/>
   </g>
   <g id="patch_9">
    <path d="M 116.64 429.336 
L 116.64 260.496 
" style="fill:none;stroke:#000000;stroke-linecap:square;stroke-linejoin:miter;stroke-width:0.8;"/>
   </g>
   <g id="patch_10">
    <path d="M 839.808 429.336 
L 839.808 260.496 
" style="fill:none;stroke:#000000;stroke-linecap:square;stroke-linejoin:miter;stroke-width:0.8;"/>
   </g>
   <g id="patch_11">
    <path d="M 116.64 429.336 
L 839.808 429.336 
" style="fill:none;stroke:#000000;stroke-linecap:square;stroke-linejoin:miter;stroke-width:0.8;"/>
   </g>
   <g id="patch_12">
    <path d="M 116.64 260.496 
L 839.808 260.496 
" style="fill:none;stroke:#000000;stroke-linecap:square;stroke-linejoin:miter;stroke-width:0.8;"/>
   </g>
   <g id="text_40">
    <!-- Log scale -->
    <defs>
     <path d="M 9.8125 72.90625 
L 19.671875 72.90625 
L 19.671875 8.296875 
L 55.171875 8.296875 
L 55.171875 0 
L 9.8125 0 
z
" id="DejaVuSans-76"/>
     <path d="M 45.40625 27.984375 
Q 45.40625 37.75 41.375 43.109375 
Q 37.359375 48.484375 30.078125 48.484375 
Q 22.859375 48.484375 18.828125 43.109375 
Q 14.796875 37.75 14.796875 27.984375 
Q 14.796875 18.265625 18.828125 12.890625 
Q 22.859375 7.515625 30.078125 7.515625 
Q 37.359375 7.515625 41.375 12.890625 
Q 45.40625 18.265625 45.40625 27.984375 
z
M 54.390625 6.78125 
Q 54.390625 -7.171875 48.1875 -13.984375 
Q 42 -20.796875 29.203125 -20.796875 
Q 24.46875 -20.796875 20.265625 -20.09375 
Q 16.0625 -19.390625 12.109375 -17.921875 
L 12.109375 -9.1875 
Q 16.0625 -11.328125 19.921875 -12.34375 
Q 23.78125 -13.375 27.78125 -13.375 
Q 36.625 -13.375 41.015625 -8.765625 
Q 45.40625 -4.15625 45.40625 5.171875 
L 45.40625 9.625 
Q 42.625 4.78125 38.28125 2.390625 
Q 33.9375 0 27.875 0 
Q 17.828125 0 11.671875 7.65625 
Q 5.515625 15.328125 5.515625 27.984375 
Q 5.515625 40.671875 11.671875 48.328125 
Q 17.828125 56 27.875 56 
Q 33.9375 56 38.28125 53.609375 
Q 42.625 51.21875 45.40625 46.390625 
L 45.40625 54.6875 
L 54.390625 54.6875 
z
" id="DejaVuSans-103"/>
    </defs>
    <g transform="translate(450.034313 254.496)scale(0.12 -0.12)">
     <use xlink:href="#DejaVuSans-76"/>
     <use x="55.697266" xlink:href="#DejaVuSans-111"/>
     <use x="116.878906" xlink:href="#DejaVuSans-103"/>
     <use x="180.355469" xlink:href="#DejaVuSans-32"/>
     <use x="212.142578" xlink:href="#DejaVuSans-115"/>
     <use x="264.242188" xlink:href="#DejaVuSans-99"/>
     <use x="319.222656" xlink:href="#DejaVuSans-97"/>
     <use x="380.501953" xlink:href="#DejaVuSans-108"/>
     <use x="408.285156" xlink:href="#DejaVuSans-101"/>
    </g>
   </g>
   <g id="legend_2">
    <g id="patch_13">
     <path d="M 724.225188 424.336 
L 832.808 424.336 
Q 834.808 424.336 834.808 422.336 
L 834.808 305.911 
Q 834.808 303.911 832.808 303.911 
L 724.225188 303.911 
Q 722.225188 303.911 722.225188 305.911 
L 722.225188 422.336 
Q 722.225188 424.336 724.225188 424.336 
z
" style="fill:#ffffff;opacity:0.8;stroke:#cccccc;stroke-linejoin:miter;"/>
    </g>
    <g id="line2d_104">
     <path d="M 726.225188 312.009438 
L 746.225188 312.009438 
" style="fill:none;stroke:#1f77b4;stroke-linecap:square;stroke-width:1.5;"/>
    </g>
    <g id="line2d_105"/>
    <g id="text_41">
     <!-- Austria -->
     <g transform="translate(754.225188 315.509438)scale(0.1 -0.1)">
      <use xlink:href="#DejaVuSans-65"/>
      <use x="68.408203" xlink:href="#DejaVuSans-117"/>
      <use x="131.787109" xlink:href="#DejaVuSans-115"/>
      <use x="183.886719" xlink:href="#DejaVuSans-116"/>
      <use x="223.095703" xlink:href="#DejaVuSans-114"/>
      <use x="264.208984" xlink:href="#DejaVuSans-105"/>
      <use x="291.992188" xlink:href="#DejaVuSans-97"/>
     </g>
    </g>
    <g id="line2d_106">
     <path d="M 726.225188 326.687563 
L 746.225188 326.687563 
" style="fill:none;stroke:#ff7f0e;stroke-linecap:square;stroke-width:1.5;"/>
    </g>
    <g id="line2d_107"/>
    <g id="text_42">
     <!-- China -->
     <g transform="translate(754.225188 330.187563)scale(0.1 -0.1)">
      <use xlink:href="#DejaVuSans-67"/>
      <use x="69.824219" xlink:href="#DejaVuSans-104"/>
      <use x="133.203125" xlink:href="#DejaVuSans-105"/>
      <use x="160.986328" xlink:href="#DejaVuSans-110"/>
      <use x="224.365234" xlink:href="#DejaVuSans-97"/>
     </g>
    </g>
    <g id="line2d_108">
     <path d="M 726.225188 341.365688 
L 746.225188 341.365688 
" style="fill:none;stroke:#2ca02c;stroke-linecap:square;stroke-width:1.5;"/>
    </g>
    <g id="line2d_109"/>
    <g id="text_43">
     <!-- Czech Republic -->
     <g transform="translate(754.225188 344.865688)scale(0.1 -0.1)">
      <use xlink:href="#DejaVuSans-67"/>
      <use x="69.824219" xlink:href="#DejaVuSans-122"/>
      <use x="122.314453" xlink:href="#DejaVuSans-101"/>
      <use x="183.837891" xlink:href="#DejaVuSans-99"/>
      <use x="238.818359" xlink:href="#DejaVuSans-104"/>
      <use x="302.197266" xlink:href="#DejaVuSans-32"/>
      <use x="333.984375" xlink:href="#DejaVuSans-82"/>
      <use x="403.404297" xlink:href="#DejaVuSans-101"/>
      <use x="464.927734" xlink:href="#DejaVuSans-112"/>
      <use x="528.404297" xlink:href="#DejaVuSans-117"/>
      <use x="591.783203" xlink:href="#DejaVuSans-98"/>
      <use x="655.259766" xlink:href="#DejaVuSans-108"/>
      <use x="683.042969" xlink:href="#DejaVuSans-105"/>
      <use x="710.826172" xlink:href="#DejaVuSans-99"/>
     </g>
    </g>
    <g id="line2d_110">
     <path d="M 726.225188 356.043813 
L 746.225188 356.043813 
" style="fill:none;stroke:#d62728;stroke-linecap:square;stroke-width:1.5;"/>
    </g>
    <g id="line2d_111"/>
    <g id="text_44">
     <!-- France -->
     <g transform="translate(754.225188 359.543813)scale(0.1 -0.1)">
      <use xlink:href="#DejaVuSans-70"/>
      <use x="57.410156" xlink:href="#DejaVuSans-114"/>
      <use x="98.523438" xlink:href="#DejaVuSans-97"/>
      <use x="159.802734" xlink:href="#DejaVuSans-110"/>
      <use x="223.181641" xlink:href="#DejaVuSans-99"/>
      <use x="278.162109" xlink:href="#DejaVuSans-101"/>
     </g>
    </g>
    <g id="line2d_112">
     <path d="M 726.225188 370.721938 
L 746.225188 370.721938 
" style="fill:none;stroke:#9467bd;stroke-linecap:square;stroke-width:1.5;"/>
    </g>
    <g id="line2d_113"/>
    <g id="text_45">
     <!-- Germany -->
     <g transform="translate(754.225188 374.221938)scale(0.1 -0.1)">
      <use xlink:href="#DejaVuSans-71"/>
      <use x="77.490234" xlink:href="#DejaVuSans-101"/>
      <use x="139.013672" xlink:href="#DejaVuSans-114"/>
      <use x="180.111328" xlink:href="#DejaVuSans-109"/>
      <use x="277.523438" xlink:href="#DejaVuSans-97"/>
      <use x="338.802734" xlink:href="#DejaVuSans-110"/>
      <use x="402.181641" xlink:href="#DejaVuSans-121"/>
     </g>
    </g>
    <g id="line2d_114">
     <path d="M 726.225188 385.400063 
L 746.225188 385.400063 
" style="fill:none;stroke:#8c564b;stroke-linecap:square;stroke-width:1.5;"/>
    </g>
    <g id="line2d_115"/>
    <g id="text_46">
     <!-- Italy -->
     <g transform="translate(754.225188 388.900063)scale(0.1 -0.1)">
      <use xlink:href="#DejaVuSans-73"/>
      <use x="29.492188" xlink:href="#DejaVuSans-116"/>
      <use x="68.701172" xlink:href="#DejaVuSans-97"/>
      <use x="129.980469" xlink:href="#DejaVuSans-108"/>
      <use x="157.763672" xlink:href="#DejaVuSans-121"/>
     </g>
    </g>
    <g id="line2d_116">
     <path d="M 726.225188 400.078188 
L 746.225188 400.078188 
" style="fill:none;stroke:#e377c2;stroke-linecap:square;stroke-width:1.5;"/>
    </g>
    <g id="line2d_117"/>
    <g id="text_47">
     <!-- Slovakia -->
     <g transform="translate(754.225188 403.578188)scale(0.1 -0.1)">
      <use xlink:href="#DejaVuSans-83"/>
      <use x="63.476562" xlink:href="#DejaVuSans-108"/>
      <use x="91.259766" xlink:href="#DejaVuSans-111"/>
      <use x="152.441406" xlink:href="#DejaVuSans-118"/>
      <use x="211.621094" xlink:href="#DejaVuSans-97"/>
      <use x="272.900391" xlink:href="#DejaVuSans-107"/>
      <use x="330.810547" xlink:href="#DejaVuSans-105"/>
      <use x="358.59375" xlink:href="#DejaVuSans-97"/>
     </g>
    </g>
    <g id="line2d_118">
     <path d="M 726.225188 414.756313 
L 746.225188 414.756313 
" style="fill:none;stroke:#7f7f7f;stroke-linecap:square;stroke-width:1.5;"/>
    </g>
    <g id="line2d_119"/>
    <g id="text_48">
     <!-- Switzerland -->
     <g transform="translate(754.225188 418.256313)scale(0.1 -0.1)">
      <use xlink:href="#DejaVuSans-83"/>
      <use x="63.476562" xlink:href="#DejaVuSans-119"/>
      <use x="145.263672" xlink:href="#DejaVuSans-105"/>
      <use x="173.046875" xlink:href="#DejaVuSans-116"/>
      <use x="212.255859" xlink:href="#DejaVuSans-122"/>
      <use x="264.746094" xlink:href="#DejaVuSans-101"/>
      <use x="326.269531" xlink:href="#DejaVuSans-114"/>
      <use x="367.382812" xlink:href="#DejaVuSans-108"/>
      <use x="395.166016" xlink:href="#DejaVuSans-97"/>
      <use x="456.445312" xlink:href="#DejaVuSans-110"/>
      <use x="519.824219" xlink:href="#DejaVuSans-100"/>
     </g>
    </g>
   </g>
  </g>
  <g id="text_49">
   <!-- https://github.com/PavelDusek/COVID-19 -->
   <defs>
    <path d="M 11.71875 12.40625 
L 22.015625 12.40625 
L 22.015625 0 
L 11.71875 0 
z
M 11.71875 51.703125 
L 22.015625 51.703125 
L 22.015625 39.3125 
L 11.71875 39.3125 
z
" id="DejaVuSans-58"/>
    <path d="M 25.390625 72.90625 
L 33.6875 72.90625 
L 8.296875 -9.28125 
L 0 -9.28125 
z
" id="DejaVuSans-47"/>
    <path d="M 19.671875 64.796875 
L 19.671875 37.40625 
L 32.078125 37.40625 
Q 38.96875 37.40625 42.71875 40.96875 
Q 46.484375 44.53125 46.484375 51.125 
Q 46.484375 57.671875 42.71875 61.234375 
Q 38.96875 64.796875 32.078125 64.796875 
z
M 9.8125 72.90625 
L 32.078125 72.90625 
Q 44.34375 72.90625 50.609375 67.359375 
Q 56.890625 61.8125 56.890625 51.125 
Q 56.890625 40.328125 50.609375 34.8125 
Q 44.34375 29.296875 32.078125 29.296875 
L 19.671875 29.296875 
L 19.671875 0 
L 9.8125 0 
z
" id="DejaVuSans-80"/>
   </defs>
   <g transform="translate(342.927188 18.766125)scale(0.12 -0.12)">
    <use xlink:href="#DejaVuSans-104"/>
    <use x="63.378906" xlink:href="#DejaVuSans-116"/>
    <use x="102.587891" xlink:href="#DejaVuSans-116"/>
    <use x="141.796875" xlink:href="#DejaVuSans-112"/>
    <use x="205.273438" xlink:href="#DejaVuSans-115"/>
    <use x="257.373047" xlink:href="#DejaVuSans-58"/>
    <use x="291.064453" xlink:href="#DejaVuSans-47"/>
    <use x="324.755859" xlink:href="#DejaVuSans-47"/>
    <use x="358.447266" xlink:href="#DejaVuSans-103"/>
    <use x="421.923828" xlink:href="#DejaVuSans-105"/>
    <use x="449.707031" xlink:href="#DejaVuSans-116"/>
    <use x="488.916016" xlink:href="#DejaVuSans-104"/>
    <use x="552.294922" xlink:href="#DejaVuSans-117"/>
    <use x="615.673828" xlink:href="#DejaVuSans-98"/>
    <use x="679.150391" xlink:href="#DejaVuSans-46"/>
    <use x="710.9375" xlink:href="#DejaVuSans-99"/>
    <use x="765.917969" xlink:href="#DejaVuSans-111"/>
    <use x="827.099609" xlink:href="#DejaVuSans-109"/>
    <use x="924.511719" xlink:href="#DejaVuSans-47"/>
    <use x="958.203125" xlink:href="#DejaVuSans-80"/>
    <use x="1018.443359" xlink:href="#DejaVuSans-97"/>
    <use x="1079.722656" xlink:href="#DejaVuSans-118"/>
    <use x="1138.902344" xlink:href="#DejaVuSans-101"/>
    <use x="1200.425781" xlink:href="#DejaVuSans-108"/>
    <use x="1228.208984" xlink:href="#DejaVuSans-68"/>
    <use x="1305.210938" xlink:href="#DejaVuSans-117"/>
    <use x="1368.589844" xlink:href="#DejaVuSans-115"/>
    <use x="1420.689453" xlink:href="#DejaVuSans-101"/>
    <use x="1482.212891" xlink:href="#DejaVuSans-107"/>
    <use x="1540.123047" xlink:href="#DejaVuSans-47"/>
    <use x="1573.814453" xlink:href="#DejaVuSans-67"/>
    <use x="1643.638672" xlink:href="#DejaVuSans-79"/>
    <use x="1722.333984" xlink:href="#DejaVuSans-86"/>
    <use x="1790.742188" xlink:href="#DejaVuSans-73"/>
    <use x="1820.234375" xlink:href="#DejaVuSans-68"/>
    <use x="1897.236328" xlink:href="#DejaVuSans-45"/>
    <use x="1933.320312" xlink:href="#DejaVuSans-49"/>
    <use x="1996.943359" xlink:href="#DejaVuSans-57"/>
   </g>
  </g>
 </g>
 <defs>
  <clipPath id="pe75ec0785d">
   <rect height="168.84" width="723.168" x="116.64" y="57.888"/>
  </clipPath>
  <clipPath id="p5d18d17e69">
   <rect height="168.84" width="723.168" x="116.64" y="260.496"/>
  </clipPath>
 </defs>
</svg>
