<?xml version="1.0" encoding="utf-8" standalone="no"?>
<!DOCTYPE svg PUBLIC "-//W3C//DTD SVG 1.1//EN"
  "http://www.w3.org/Graphics/SVG/1.1/DTD/svg11.dtd">
<!-- Created with matplotlib (https://matplotlib.org/) -->
<svg height="482.4pt" version="1.1" viewBox="0 0 933.12 482.4" width="933.12pt" xmlns="http://www.w3.org/2000/svg" xmlns:xlink="http://www.w3.org/1999/xlink">
 <defs>
  <style type="text/css">
*{stroke-linecap:butt;stroke-linejoin:round;}
  </style>
 </defs>
 <g id="figure_1">
  <g id="patch_1">
   <path d="M 0 482.4 
L 933.12 482.4 
L 933.12 0 
L 0 0 
z
" style="fill:#ffffff;"/>
  </g>
  <g id="axes_1">
   <g id="patch_2">
    <path d="M 116.64 429.336 
L 839.808 429.336 
L 839.808 57.888 
L 116.64 57.888 
z
" style="fill:#ffffff;"/>
   </g>
   <g id="matplotlib.axis_1">
    <g id="xtick_1">
     <g id="line2d_1">
      <defs>
       <path d="M 0 0 
L 0 3.5 
" id="m4fa0f7d733" style="stroke:#000000;stroke-width:0.8;"/>
      </defs>
      <g>
       <use style="stroke:#000000;stroke-width:0.8;" x="149.511273" xlink:href="#m4fa0f7d733" y="429.336"/>
      </g>
     </g>
     <g id="text_1">
      <!-- 2020-03 -->
      <defs>
       <path d="M 19.1875 8.296875 
L 53.609375 8.296875 
L 53.609375 0 
L 7.328125 0 
L 7.328125 8.296875 
Q 12.9375 14.109375 22.625 23.890625 
Q 32.328125 33.6875 34.8125 36.53125 
Q 39.546875 41.84375 41.421875 45.53125 
Q 43.3125 49.21875 43.3125 52.78125 
Q 43.3125 58.59375 39.234375 62.25 
Q 35.15625 65.921875 28.609375 65.921875 
Q 23.96875 65.921875 18.8125 64.3125 
Q 13.671875 62.703125 7.8125 59.421875 
L 7.8125 69.390625 
Q 13.765625 71.78125 18.9375 73 
Q 24.125 74.21875 28.421875 74.21875 
Q 39.75 74.21875 46.484375 68.546875 
Q 53.21875 62.890625 53.21875 53.421875 
Q 53.21875 48.921875 51.53125 44.890625 
Q 49.859375 40.875 45.40625 35.40625 
Q 44.1875 33.984375 37.640625 27.21875 
Q 31.109375 20.453125 19.1875 8.296875 
z
" id="DejaVuSans-50"/>
       <path d="M 31.78125 66.40625 
Q 24.171875 66.40625 20.328125 58.90625 
Q 16.5 51.421875 16.5 36.375 
Q 16.5 21.390625 20.328125 13.890625 
Q 24.171875 6.390625 31.78125 6.390625 
Q 39.453125 6.390625 43.28125 13.890625 
Q 47.125 21.390625 47.125 36.375 
Q 47.125 51.421875 43.28125 58.90625 
Q 39.453125 66.40625 31.78125 66.40625 
z
M 31.78125 74.21875 
Q 44.046875 74.21875 50.515625 64.515625 
Q 56.984375 54.828125 56.984375 36.375 
Q 56.984375 17.96875 50.515625 8.265625 
Q 44.046875 -1.421875 31.78125 -1.421875 
Q 19.53125 -1.421875 13.0625 8.265625 
Q 6.59375 17.96875 6.59375 36.375 
Q 6.59375 54.828125 13.0625 64.515625 
Q 19.53125 74.21875 31.78125 74.21875 
z
" id="DejaVuSans-48"/>
       <path d="M 4.890625 31.390625 
L 31.203125 31.390625 
L 31.203125 23.390625 
L 4.890625 23.390625 
z
" id="DejaVuSans-45"/>
       <path d="M 40.578125 39.3125 
Q 47.65625 37.796875 51.625 33 
Q 55.609375 28.21875 55.609375 21.1875 
Q 55.609375 10.40625 48.1875 4.484375 
Q 40.765625 -1.421875 27.09375 -1.421875 
Q 22.515625 -1.421875 17.65625 -0.515625 
Q 12.796875 0.390625 7.625 2.203125 
L 7.625 11.71875 
Q 11.71875 9.328125 16.59375 8.109375 
Q 21.484375 6.890625 26.8125 6.890625 
Q 36.078125 6.890625 40.9375 10.546875 
Q 45.796875 14.203125 45.796875 21.1875 
Q 45.796875 27.640625 41.28125 31.265625 
Q 36.765625 34.90625 28.71875 34.90625 
L 20.21875 34.90625 
L 20.21875 43.015625 
L 29.109375 43.015625 
Q 36.375 43.015625 40.234375 45.921875 
Q 44.09375 48.828125 44.09375 54.296875 
Q 44.09375 59.90625 40.109375 62.90625 
Q 36.140625 65.921875 28.71875 65.921875 
Q 24.65625 65.921875 20.015625 65.03125 
Q 15.375 64.15625 9.8125 62.3125 
L 9.8125 71.09375 
Q 15.4375 72.65625 20.34375 73.4375 
Q 25.25 74.21875 29.59375 74.21875 
Q 40.828125 74.21875 47.359375 69.109375 
Q 53.90625 64.015625 53.90625 55.328125 
Q 53.90625 49.265625 50.4375 45.09375 
Q 46.96875 40.921875 40.578125 39.3125 
z
" id="DejaVuSans-51"/>
      </defs>
      <g transform="translate(128.619866 443.934438)scale(0.1 -0.1)">
       <use xlink:href="#DejaVuSans-50"/>
       <use x="63.623047" xlink:href="#DejaVuSans-48"/>
       <use x="127.246094" xlink:href="#DejaVuSans-50"/>
       <use x="190.869141" xlink:href="#DejaVuSans-48"/>
       <use x="254.492188" xlink:href="#DejaVuSans-45"/>
       <use x="290.576172" xlink:href="#DejaVuSans-48"/>
       <use x="354.199219" xlink:href="#DejaVuSans-51"/>
      </g>
     </g>
    </g>
    <g id="xtick_2">
     <g id="line2d_2">
      <g>
       <use style="stroke:#000000;stroke-width:0.8;" x="277.688563" xlink:href="#m4fa0f7d733" y="429.336"/>
      </g>
     </g>
     <g id="text_2">
      <!-- 2020-04 -->
      <defs>
       <path d="M 37.796875 64.3125 
L 12.890625 25.390625 
L 37.796875 25.390625 
z
M 35.203125 72.90625 
L 47.609375 72.90625 
L 47.609375 25.390625 
L 58.015625 25.390625 
L 58.015625 17.1875 
L 47.609375 17.1875 
L 47.609375 0 
L 37.796875 0 
L 37.796875 17.1875 
L 4.890625 17.1875 
L 4.890625 26.703125 
z
" id="DejaVuSans-52"/>
      </defs>
      <g transform="translate(256.797156 443.934438)scale(0.1 -0.1)">
       <use xlink:href="#DejaVuSans-50"/>
       <use x="63.623047" xlink:href="#DejaVuSans-48"/>
       <use x="127.246094" xlink:href="#DejaVuSans-50"/>
       <use x="190.869141" xlink:href="#DejaVuSans-48"/>
       <use x="254.492188" xlink:href="#DejaVuSans-45"/>
       <use x="290.576172" xlink:href="#DejaVuSans-48"/>
       <use x="354.199219" xlink:href="#DejaVuSans-52"/>
      </g>
     </g>
    </g>
    <g id="xtick_3">
     <g id="line2d_3">
      <g>
       <use style="stroke:#000000;stroke-width:0.8;" x="401.731101" xlink:href="#m4fa0f7d733" y="429.336"/>
      </g>
     </g>
     <g id="text_3">
      <!-- 2020-05 -->
      <defs>
       <path d="M 10.796875 72.90625 
L 49.515625 72.90625 
L 49.515625 64.59375 
L 19.828125 64.59375 
L 19.828125 46.734375 
Q 21.96875 47.46875 24.109375 47.828125 
Q 26.265625 48.1875 28.421875 48.1875 
Q 40.625 48.1875 47.75 41.5 
Q 54.890625 34.8125 54.890625 23.390625 
Q 54.890625 11.625 47.5625 5.09375 
Q 40.234375 -1.421875 26.90625 -1.421875 
Q 22.3125 -1.421875 17.546875 -0.640625 
Q 12.796875 0.140625 7.71875 1.703125 
L 7.71875 11.625 
Q 12.109375 9.234375 16.796875 8.0625 
Q 21.484375 6.890625 26.703125 6.890625 
Q 35.15625 6.890625 40.078125 11.328125 
Q 45.015625 15.765625 45.015625 23.390625 
Q 45.015625 31 40.078125 35.4375 
Q 35.15625 39.890625 26.703125 39.890625 
Q 22.75 39.890625 18.8125 39.015625 
Q 14.890625 38.140625 10.796875 36.28125 
z
" id="DejaVuSans-53"/>
      </defs>
      <g transform="translate(380.839695 443.934438)scale(0.1 -0.1)">
       <use xlink:href="#DejaVuSans-50"/>
       <use x="63.623047" xlink:href="#DejaVuSans-48"/>
       <use x="127.246094" xlink:href="#DejaVuSans-50"/>
       <use x="190.869141" xlink:href="#DejaVuSans-48"/>
       <use x="254.492188" xlink:href="#DejaVuSans-45"/>
       <use x="290.576172" xlink:href="#DejaVuSans-48"/>
       <use x="354.199219" xlink:href="#DejaVuSans-53"/>
      </g>
     </g>
    </g>
    <g id="xtick_4">
     <g id="line2d_4">
      <g>
       <use style="stroke:#000000;stroke-width:0.8;" x="529.908391" xlink:href="#m4fa0f7d733" y="429.336"/>
      </g>
     </g>
     <g id="text_4">
      <!-- 2020-06 -->
      <defs>
       <path d="M 33.015625 40.375 
Q 26.375 40.375 22.484375 35.828125 
Q 18.609375 31.296875 18.609375 23.390625 
Q 18.609375 15.53125 22.484375 10.953125 
Q 26.375 6.390625 33.015625 6.390625 
Q 39.65625 6.390625 43.53125 10.953125 
Q 47.40625 15.53125 47.40625 23.390625 
Q 47.40625 31.296875 43.53125 35.828125 
Q 39.65625 40.375 33.015625 40.375 
z
M 52.59375 71.296875 
L 52.59375 62.3125 
Q 48.875 64.0625 45.09375 64.984375 
Q 41.3125 65.921875 37.59375 65.921875 
Q 27.828125 65.921875 22.671875 59.328125 
Q 17.53125 52.734375 16.796875 39.40625 
Q 19.671875 43.65625 24.015625 45.921875 
Q 28.375 48.1875 33.59375 48.1875 
Q 44.578125 48.1875 50.953125 41.515625 
Q 57.328125 34.859375 57.328125 23.390625 
Q 57.328125 12.15625 50.6875 5.359375 
Q 44.046875 -1.421875 33.015625 -1.421875 
Q 20.359375 -1.421875 13.671875 8.265625 
Q 6.984375 17.96875 6.984375 36.375 
Q 6.984375 53.65625 15.1875 63.9375 
Q 23.390625 74.21875 37.203125 74.21875 
Q 40.921875 74.21875 44.703125 73.484375 
Q 48.484375 72.75 52.59375 71.296875 
z
" id="DejaVuSans-54"/>
      </defs>
      <g transform="translate(509.016985 443.934438)scale(0.1 -0.1)">
       <use xlink:href="#DejaVuSans-50"/>
       <use x="63.623047" xlink:href="#DejaVuSans-48"/>
       <use x="127.246094" xlink:href="#DejaVuSans-50"/>
       <use x="190.869141" xlink:href="#DejaVuSans-48"/>
       <use x="254.492188" xlink:href="#DejaVuSans-45"/>
       <use x="290.576172" xlink:href="#DejaVuSans-48"/>
       <use x="354.199219" xlink:href="#DejaVuSans-54"/>
      </g>
     </g>
    </g>
    <g id="xtick_5">
     <g id="line2d_5">
      <g>
       <use style="stroke:#000000;stroke-width:0.8;" x="653.95093" xlink:href="#m4fa0f7d733" y="429.336"/>
      </g>
     </g>
     <g id="text_5">
      <!-- 2020-07 -->
      <defs>
       <path d="M 8.203125 72.90625 
L 55.078125 72.90625 
L 55.078125 68.703125 
L 28.609375 0 
L 18.3125 0 
L 43.21875 64.59375 
L 8.203125 64.59375 
z
" id="DejaVuSans-55"/>
      </defs>
      <g transform="translate(633.059523 443.934438)scale(0.1 -0.1)">
       <use xlink:href="#DejaVuSans-50"/>
       <use x="63.623047" xlink:href="#DejaVuSans-48"/>
       <use x="127.246094" xlink:href="#DejaVuSans-50"/>
       <use x="190.869141" xlink:href="#DejaVuSans-48"/>
       <use x="254.492188" xlink:href="#DejaVuSans-45"/>
       <use x="290.576172" xlink:href="#DejaVuSans-48"/>
       <use x="354.199219" xlink:href="#DejaVuSans-55"/>
      </g>
     </g>
    </g>
    <g id="xtick_6">
     <g id="line2d_6">
      <g>
       <use style="stroke:#000000;stroke-width:0.8;" x="782.12822" xlink:href="#m4fa0f7d733" y="429.336"/>
      </g>
     </g>
     <g id="text_6">
      <!-- 2020-08 -->
      <defs>
       <path d="M 31.78125 34.625 
Q 24.75 34.625 20.71875 30.859375 
Q 16.703125 27.09375 16.703125 20.515625 
Q 16.703125 13.921875 20.71875 10.15625 
Q 24.75 6.390625 31.78125 6.390625 
Q 38.8125 6.390625 42.859375 10.171875 
Q 46.921875 13.96875 46.921875 20.515625 
Q 46.921875 27.09375 42.890625 30.859375 
Q 38.875 34.625 31.78125 34.625 
z
M 21.921875 38.8125 
Q 15.578125 40.375 12.03125 44.71875 
Q 8.5 49.078125 8.5 55.328125 
Q 8.5 64.0625 14.71875 69.140625 
Q 20.953125 74.21875 31.78125 74.21875 
Q 42.671875 74.21875 48.875 69.140625 
Q 55.078125 64.0625 55.078125 55.328125 
Q 55.078125 49.078125 51.53125 44.71875 
Q 48 40.375 41.703125 38.8125 
Q 48.828125 37.15625 52.796875 32.3125 
Q 56.78125 27.484375 56.78125 20.515625 
Q 56.78125 9.90625 50.3125 4.234375 
Q 43.84375 -1.421875 31.78125 -1.421875 
Q 19.734375 -1.421875 13.25 4.234375 
Q 6.78125 9.90625 6.78125 20.515625 
Q 6.78125 27.484375 10.78125 32.3125 
Q 14.796875 37.15625 21.921875 38.8125 
z
M 18.3125 54.390625 
Q 18.3125 48.734375 21.84375 45.5625 
Q 25.390625 42.390625 31.78125 42.390625 
Q 38.140625 42.390625 41.71875 45.5625 
Q 45.3125 48.734375 45.3125 54.390625 
Q 45.3125 60.0625 41.71875 63.234375 
Q 38.140625 66.40625 31.78125 66.40625 
Q 25.390625 66.40625 21.84375 63.234375 
Q 18.3125 60.0625 18.3125 54.390625 
z
" id="DejaVuSans-56"/>
      </defs>
      <g transform="translate(761.236813 443.934438)scale(0.1 -0.1)">
       <use xlink:href="#DejaVuSans-50"/>
       <use x="63.623047" xlink:href="#DejaVuSans-48"/>
       <use x="127.246094" xlink:href="#DejaVuSans-50"/>
       <use x="190.869141" xlink:href="#DejaVuSans-48"/>
       <use x="254.492188" xlink:href="#DejaVuSans-45"/>
       <use x="290.576172" xlink:href="#DejaVuSans-48"/>
       <use x="354.199219" xlink:href="#DejaVuSans-56"/>
      </g>
     </g>
    </g>
   </g>
   <g id="matplotlib.axis_2">
    <g id="ytick_1">
     <g id="line2d_7">
      <defs>
       <path d="M 0 0 
L -3.5 0 
" id="m88ec56246e" style="stroke:#000000;stroke-width:0.8;"/>
      </defs>
      <g>
       <use style="stroke:#000000;stroke-width:0.8;" x="116.64" xlink:href="#m88ec56246e" y="412.452"/>
      </g>
     </g>
     <g id="text_7">
      <!-- 0.0 -->
      <defs>
       <path d="M 10.6875 12.40625 
L 21 12.40625 
L 21 0 
L 10.6875 0 
z
" id="DejaVuSans-46"/>
      </defs>
      <g transform="translate(93.736875 416.251219)scale(0.1 -0.1)">
       <use xlink:href="#DejaVuSans-48"/>
       <use x="63.623047" xlink:href="#DejaVuSans-46"/>
       <use x="95.410156" xlink:href="#DejaVuSans-48"/>
      </g>
     </g>
    </g>
    <g id="ytick_2">
     <g id="line2d_8">
      <g>
       <use style="stroke:#000000;stroke-width:0.8;" x="116.64" xlink:href="#m88ec56246e" y="349.036707"/>
      </g>
     </g>
     <g id="text_8">
      <!-- 0.2 -->
      <g transform="translate(93.736875 352.835925)scale(0.1 -0.1)">
       <use xlink:href="#DejaVuSans-48"/>
       <use x="63.623047" xlink:href="#DejaVuSans-46"/>
       <use x="95.410156" xlink:href="#DejaVuSans-50"/>
      </g>
     </g>
    </g>
    <g id="ytick_3">
     <g id="line2d_9">
      <g>
       <use style="stroke:#000000;stroke-width:0.8;" x="116.64" xlink:href="#m88ec56246e" y="285.621413"/>
      </g>
     </g>
     <g id="text_9">
      <!-- 0.4 -->
      <g transform="translate(93.736875 289.420632)scale(0.1 -0.1)">
       <use xlink:href="#DejaVuSans-48"/>
       <use x="63.623047" xlink:href="#DejaVuSans-46"/>
       <use x="95.410156" xlink:href="#DejaVuSans-52"/>
      </g>
     </g>
    </g>
    <g id="ytick_4">
     <g id="line2d_10">
      <g>
       <use style="stroke:#000000;stroke-width:0.8;" x="116.64" xlink:href="#m88ec56246e" y="222.20612"/>
      </g>
     </g>
     <g id="text_10">
      <!-- 0.6 -->
      <g transform="translate(93.736875 226.005339)scale(0.1 -0.1)">
       <use xlink:href="#DejaVuSans-48"/>
       <use x="63.623047" xlink:href="#DejaVuSans-46"/>
       <use x="95.410156" xlink:href="#DejaVuSans-54"/>
      </g>
     </g>
    </g>
    <g id="ytick_5">
     <g id="line2d_11">
      <g>
       <use style="stroke:#000000;stroke-width:0.8;" x="116.64" xlink:href="#m88ec56246e" y="158.790827"/>
      </g>
     </g>
     <g id="text_11">
      <!-- 0.8 -->
      <g transform="translate(93.736875 162.590046)scale(0.1 -0.1)">
       <use xlink:href="#DejaVuSans-48"/>
       <use x="63.623047" xlink:href="#DejaVuSans-46"/>
       <use x="95.410156" xlink:href="#DejaVuSans-56"/>
      </g>
     </g>
    </g>
    <g id="ytick_6">
     <g id="line2d_12">
      <g>
       <use style="stroke:#000000;stroke-width:0.8;" x="116.64" xlink:href="#m88ec56246e" y="95.375534"/>
      </g>
     </g>
     <g id="text_12">
      <!-- 1.0 -->
      <defs>
       <path d="M 12.40625 8.296875 
L 28.515625 8.296875 
L 28.515625 63.921875 
L 10.984375 60.40625 
L 10.984375 69.390625 
L 28.421875 72.90625 
L 38.28125 72.90625 
L 38.28125 8.296875 
L 54.390625 8.296875 
L 54.390625 0 
L 12.40625 0 
z
" id="DejaVuSans-49"/>
      </defs>
      <g transform="translate(93.736875 99.174752)scale(0.1 -0.1)">
       <use xlink:href="#DejaVuSans-49"/>
       <use x="63.623047" xlink:href="#DejaVuSans-46"/>
       <use x="95.410156" xlink:href="#DejaVuSans-48"/>
      </g>
     </g>
    </g>
    <g id="text_13">
     <!-- 1e7 -->
     <defs>
      <path d="M 56.203125 29.59375 
L 56.203125 25.203125 
L 14.890625 25.203125 
Q 15.484375 15.921875 20.484375 11.0625 
Q 25.484375 6.203125 34.421875 6.203125 
Q 39.59375 6.203125 44.453125 7.46875 
Q 49.3125 8.734375 54.109375 11.28125 
L 54.109375 2.78125 
Q 49.265625 0.734375 44.1875 -0.34375 
Q 39.109375 -1.421875 33.890625 -1.421875 
Q 20.796875 -1.421875 13.15625 6.1875 
Q 5.515625 13.8125 5.515625 26.8125 
Q 5.515625 40.234375 12.765625 48.109375 
Q 20.015625 56 32.328125 56 
Q 43.359375 56 49.78125 48.890625 
Q 56.203125 41.796875 56.203125 29.59375 
z
M 47.21875 32.234375 
Q 47.125 39.59375 43.09375 43.984375 
Q 39.0625 48.390625 32.421875 48.390625 
Q 24.90625 48.390625 20.390625 44.140625 
Q 15.875 39.890625 15.1875 32.171875 
z
" id="DejaVuSans-101"/>
     </defs>
     <g transform="translate(116.64 54.888)scale(0.1 -0.1)">
      <use xlink:href="#DejaVuSans-49"/>
      <use x="63.623047" xlink:href="#DejaVuSans-101"/>
      <use x="125.146484" xlink:href="#DejaVuSans-55"/>
     </g>
    </g>
   </g>
   <g id="line2d_13">
    <path clip-path="url(#p0c37d34c71)" d="M 149.511273 74.772 
L 310.766573 74.869826 
L 339.709832 75.103539 
L 356.248837 75.437331 
L 368.653091 75.892998 
L 376.922593 76.35842 
L 385.192096 77.015678 
L 393.461599 77.942461 
L 401.731101 79.246565 
L 405.865852 80.084523 
L 410.000604 81.076215 
L 414.135355 82.24855 
L 418.270106 83.632629 
L 422.404858 85.264186 
L 426.539609 87.183986 
L 430.67436 89.438143 
L 434.809111 92.078277 
L 438.943863 95.16144 
L 443.078614 98.749698 
L 447.213365 102.909247 
L 451.348117 107.708927 
L 455.482868 113.21799 
L 459.617619 119.503017 
L 463.75237 126.62392 
L 467.887122 134.629083 
L 472.021873 143.549831 
L 476.156624 153.394618 
L 480.291376 164.143524 
L 484.426127 175.743824 
L 488.560878 188.10748 
L 492.69563 201.111332 
L 500.965132 228.39508 
L 509.234635 256.114251 
L 513.369386 269.646698 
L 517.504137 282.722612 
L 521.638889 295.194186 
L 525.77364 306.945548 
L 529.908391 317.894958 
L 534.043142 327.994064 
L 538.177894 337.224818 
L 542.312645 345.594893 
L 546.447396 353.132357 
L 550.582148 359.880287 
L 554.716899 365.891797 
L 558.85165 371.225764 
L 562.986401 375.943372 
L 567.121153 380.105486 
L 571.255904 383.770768 
L 575.390655 386.99443 
L 579.525407 389.827493 
L 583.660158 392.316439 
L 587.794909 394.503136 
L 591.92966 396.42496 
L 596.064412 398.115045 
L 600.199163 399.602599 
L 604.333914 400.913258 
L 608.468666 402.069446 
L 612.603417 403.090732 
L 620.872919 404.794548 
L 629.142422 406.136079 
L 637.411925 407.199437 
L 645.681427 408.04816 
L 658.085681 409.020769 
L 670.489935 409.732592 
L 687.02894 410.407013 
L 707.702696 410.965909 
L 732.511204 411.38831 
L 765.589214 411.720582 
L 806.936727 411.948536 
L 806.936727 411.948536 
" style="fill:none;stroke:#1f77b4;stroke-linecap:square;stroke-width:1.5;"/>
   </g>
   <g id="line2d_14">
    <path clip-path="url(#p0c37d34c71)" d="M 149.511273 412.451905 
L 314.901324 412.350366 
L 343.844583 412.107895 
L 360.383588 411.761766 
L 372.787842 411.289579 
L 381.057345 410.807668 
L 389.326847 410.127788 
L 397.59635 409.170421 
L 401.731101 408.554836 
L 405.865852 407.825889 
L 410.000604 406.963563 
L 414.135355 405.944658 
L 418.270106 404.742424 
L 422.404858 403.326213 
L 426.539609 401.661182 
L 430.67436 399.708091 
L 434.809111 397.423259 
L 438.943863 394.758743 
L 443.078614 391.66287 
L 447.213365 388.081197 
L 451.348117 383.958054 
L 455.482868 379.238778 
L 459.617619 373.872736 
L 463.75237 367.817169 
L 467.887122 361.041793 
L 472.021873 353.533946 
L 476.156624 345.303878 
L 480.291376 336.389603 
L 484.426127 326.860571 
L 488.560878 316.819338 
L 496.830381 295.766695 
L 505.099883 274.597053 
L 509.234635 264.448202 
L 513.369386 254.835293 
L 517.504137 245.916806 
L 521.638889 237.821029 
L 525.77364 230.641464 
L 529.908391 224.435542 
L 534.043142 219.22629 
L 538.177894 215.006232 
L 542.312645 211.742703 
L 546.447396 209.383742 
L 550.582148 207.863892 
L 554.716899 207.109456 
L 558.85165 207.042923 
L 562.986401 207.586467 
L 567.121153 208.664557 
L 571.255904 210.205752 
L 575.390655 212.143826 
L 579.525407 214.418367 
L 583.660158 216.974978 
L 587.794909 219.765192 
L 591.92966 222.746203 
L 600.199163 229.135305 
L 608.468666 235.897094 
L 629.142422 253.34905 
L 641.546676 263.67746 
L 653.95093 273.652307 
L 662.220432 280.053023 
L 670.489935 286.233215 
L 678.759437 292.183085 
L 687.02894 297.898085 
L 695.298443 303.377497 
L 703.567945 308.623375 
L 711.837448 313.639759 
L 720.10695 318.432091 
L 728.376453 323.006781 
L 736.645955 327.370882 
L 744.915458 331.531842 
L 753.184961 335.49733 
L 761.454463 339.275096 
L 769.723966 342.872874 
L 777.993468 346.298304 
L 786.262971 349.558884 
L 798.667225 354.156598 
L 806.936727 357.036579 
L 806.936727 357.036579 
" style="fill:none;stroke:#ff7f0e;stroke-linecap:square;stroke-width:1.5;"/>
   </g>
   <g id="line2d_15">
    <path clip-path="url(#p0c37d34c71)" d="M 149.511273 412.452 
L 360.383588 412.350372 
L 389.326847 412.10866 
L 405.865852 411.765493 
L 418.270106 411.300852 
L 426.539609 410.830737 
L 434.809111 410.174369 
L 443.078614 409.263337 
L 451.348117 408.008924 
L 455.482868 407.219136 
L 459.617619 406.300152 
L 463.75237 405.234816 
L 467.887122 404.005029 
L 472.021873 402.592128 
L 476.156624 400.977409 
L 480.291376 399.142777 
L 484.426127 397.07151 
L 488.560878 394.749086 
L 492.69563 392.164035 
L 496.830381 389.308706 
L 500.965132 386.179898 
L 505.099883 382.779266 
L 509.234635 379.113451 
L 513.369386 375.193915 
L 517.504137 371.036487 
L 521.638889 366.66069 
L 525.77364 362.088894 
L 534.043142 352.455551 
L 542.312645 342.338308 
L 554.716899 326.674651 
L 571.255904 305.699385 
L 583.660158 290.384487 
L 591.92966 280.504742 
L 600.199163 270.938001 
L 608.468666 261.709365 
L 616.738168 252.833023 
L 625.007671 244.315088 
L 633.277173 236.15579 
L 641.546676 228.351134 
L 649.816178 220.894141 
L 658.085681 213.775771 
L 666.355184 206.985608 
L 674.624686 200.512357 
L 682.894189 194.344218 
L 691.163691 188.469154 
L 699.433194 182.875091 
L 707.702696 177.550055 
L 715.972199 172.482282 
L 724.241702 167.660283 
L 732.511204 163.072899 
L 740.780707 158.70933 
L 749.050209 154.559161 
L 757.319712 150.612366 
L 765.589214 146.85932 
L 773.858717 143.290792 
L 782.12822 139.897942 
L 790.397722 136.672317 
L 802.801976 132.129854 
L 806.936727 130.69079 
L 806.936727 130.69079 
" style="fill:none;stroke:#2ca02c;stroke-linecap:square;stroke-width:1.5;"/>
   </g>
   <g id="line2d_16">
    <path clip-path="url(#p0c37d34c71)" d="M 149.511273 412.451905 
L 153.646024 412.451905 
L 157.780775 412.451841 
L 161.915527 412.451746 
L 166.050278 412.45162 
L 170.185029 412.451429 
L 174.31978 412.451398 
L 178.454532 412.451017 
L 182.589283 412.451017 
L 186.724034 412.4507 
L 190.858786 412.449115 
L 194.993537 412.449019 
L 199.128288 412.447529 
L 203.263039 412.446007 
L 207.397791 412.443978 
L 211.532542 412.442646 
L 215.667293 412.439539 
L 219.802045 412.437383 
" style="fill:none;stroke:#d62728;stroke-linecap:square;stroke-width:1.5;"/>
   </g>
   <g id="patch_3">
    <path d="M 116.64 429.336 
L 116.64 57.888 
" style="fill:none;stroke:#000000;stroke-linecap:square;stroke-linejoin:miter;stroke-width:0.8;"/>
   </g>
   <g id="patch_4">
    <path d="M 839.808 429.336 
L 839.808 57.888 
" style="fill:none;stroke:#000000;stroke-linecap:square;stroke-linejoin:miter;stroke-width:0.8;"/>
   </g>
   <g id="patch_5">
    <path d="M 116.64 429.336 
L 839.808 429.336 
" style="fill:none;stroke:#000000;stroke-linecap:square;stroke-linejoin:miter;stroke-width:0.8;"/>
   </g>
   <g id="patch_6">
    <path d="M 116.64 57.888 
L 839.808 57.888 
" style="fill:none;stroke:#000000;stroke-linecap:square;stroke-linejoin:miter;stroke-width:0.8;"/>
   </g>
   <g id="text_14">
    <!-- SIR model for the Czech Republic -->
    <defs>
     <path d="M 53.515625 70.515625 
L 53.515625 60.890625 
Q 47.90625 63.578125 42.921875 64.890625 
Q 37.9375 66.21875 33.296875 66.21875 
Q 25.25 66.21875 20.875 63.09375 
Q 16.5 59.96875 16.5 54.203125 
Q 16.5 49.359375 19.40625 46.890625 
Q 22.3125 44.4375 30.421875 42.921875 
L 36.375 41.703125 
Q 47.40625 39.59375 52.65625 34.296875 
Q 57.90625 29 57.90625 20.125 
Q 57.90625 9.515625 50.796875 4.046875 
Q 43.703125 -1.421875 29.984375 -1.421875 
Q 24.8125 -1.421875 18.96875 -0.25 
Q 13.140625 0.921875 6.890625 3.21875 
L 6.890625 13.375 
Q 12.890625 10.015625 18.65625 8.296875 
Q 24.421875 6.59375 29.984375 6.59375 
Q 38.421875 6.59375 43.015625 9.90625 
Q 47.609375 13.234375 47.609375 19.390625 
Q 47.609375 24.75 44.3125 27.78125 
Q 41.015625 30.8125 33.5 32.328125 
L 27.484375 33.5 
Q 16.453125 35.6875 11.515625 40.375 
Q 6.59375 45.0625 6.59375 53.421875 
Q 6.59375 63.09375 13.40625 68.65625 
Q 20.21875 74.21875 32.171875 74.21875 
Q 37.3125 74.21875 42.625 73.28125 
Q 47.953125 72.359375 53.515625 70.515625 
z
" id="DejaVuSans-83"/>
     <path d="M 9.8125 72.90625 
L 19.671875 72.90625 
L 19.671875 0 
L 9.8125 0 
z
" id="DejaVuSans-73"/>
     <path d="M 44.390625 34.1875 
Q 47.5625 33.109375 50.5625 29.59375 
Q 53.5625 26.078125 56.59375 19.921875 
L 66.609375 0 
L 56 0 
L 46.6875 18.703125 
Q 43.0625 26.03125 39.671875 28.421875 
Q 36.28125 30.8125 30.421875 30.8125 
L 19.671875 30.8125 
L 19.671875 0 
L 9.8125 0 
L 9.8125 72.90625 
L 32.078125 72.90625 
Q 44.578125 72.90625 50.734375 67.671875 
Q 56.890625 62.453125 56.890625 51.90625 
Q 56.890625 45.015625 53.6875 40.46875 
Q 50.484375 35.9375 44.390625 34.1875 
z
M 19.671875 64.796875 
L 19.671875 38.921875 
L 32.078125 38.921875 
Q 39.203125 38.921875 42.84375 42.21875 
Q 46.484375 45.515625 46.484375 51.90625 
Q 46.484375 58.296875 42.84375 61.546875 
Q 39.203125 64.796875 32.078125 64.796875 
z
" id="DejaVuSans-82"/>
     <path id="DejaVuSans-32"/>
     <path d="M 52 44.1875 
Q 55.375 50.25 60.0625 53.125 
Q 64.75 56 71.09375 56 
Q 79.640625 56 84.28125 50.015625 
Q 88.921875 44.046875 88.921875 33.015625 
L 88.921875 0 
L 79.890625 0 
L 79.890625 32.71875 
Q 79.890625 40.578125 77.09375 44.375 
Q 74.3125 48.1875 68.609375 48.1875 
Q 61.625 48.1875 57.5625 43.546875 
Q 53.515625 38.921875 53.515625 30.90625 
L 53.515625 0 
L 44.484375 0 
L 44.484375 32.71875 
Q 44.484375 40.625 41.703125 44.40625 
Q 38.921875 48.1875 33.109375 48.1875 
Q 26.21875 48.1875 22.15625 43.53125 
Q 18.109375 38.875 18.109375 30.90625 
L 18.109375 0 
L 9.078125 0 
L 9.078125 54.6875 
L 18.109375 54.6875 
L 18.109375 46.1875 
Q 21.1875 51.21875 25.484375 53.609375 
Q 29.78125 56 35.6875 56 
Q 41.65625 56 45.828125 52.96875 
Q 50 49.953125 52 44.1875 
z
" id="DejaVuSans-109"/>
     <path d="M 30.609375 48.390625 
Q 23.390625 48.390625 19.1875 42.75 
Q 14.984375 37.109375 14.984375 27.296875 
Q 14.984375 17.484375 19.15625 11.84375 
Q 23.34375 6.203125 30.609375 6.203125 
Q 37.796875 6.203125 41.984375 11.859375 
Q 46.1875 17.53125 46.1875 27.296875 
Q 46.1875 37.015625 41.984375 42.703125 
Q 37.796875 48.390625 30.609375 48.390625 
z
M 30.609375 56 
Q 42.328125 56 49.015625 48.375 
Q 55.71875 40.765625 55.71875 27.296875 
Q 55.71875 13.875 49.015625 6.21875 
Q 42.328125 -1.421875 30.609375 -1.421875 
Q 18.84375 -1.421875 12.171875 6.21875 
Q 5.515625 13.875 5.515625 27.296875 
Q 5.515625 40.765625 12.171875 48.375 
Q 18.84375 56 30.609375 56 
z
" id="DejaVuSans-111"/>
     <path d="M 45.40625 46.390625 
L 45.40625 75.984375 
L 54.390625 75.984375 
L 54.390625 0 
L 45.40625 0 
L 45.40625 8.203125 
Q 42.578125 3.328125 38.25 0.953125 
Q 33.9375 -1.421875 27.875 -1.421875 
Q 17.96875 -1.421875 11.734375 6.484375 
Q 5.515625 14.40625 5.515625 27.296875 
Q 5.515625 40.1875 11.734375 48.09375 
Q 17.96875 56 27.875 56 
Q 33.9375 56 38.25 53.625 
Q 42.578125 51.265625 45.40625 46.390625 
z
M 14.796875 27.296875 
Q 14.796875 17.390625 18.875 11.75 
Q 22.953125 6.109375 30.078125 6.109375 
Q 37.203125 6.109375 41.296875 11.75 
Q 45.40625 17.390625 45.40625 27.296875 
Q 45.40625 37.203125 41.296875 42.84375 
Q 37.203125 48.484375 30.078125 48.484375 
Q 22.953125 48.484375 18.875 42.84375 
Q 14.796875 37.203125 14.796875 27.296875 
z
" id="DejaVuSans-100"/>
     <path d="M 9.421875 75.984375 
L 18.40625 75.984375 
L 18.40625 0 
L 9.421875 0 
z
" id="DejaVuSans-108"/>
     <path d="M 37.109375 75.984375 
L 37.109375 68.5 
L 28.515625 68.5 
Q 23.6875 68.5 21.796875 66.546875 
Q 19.921875 64.59375 19.921875 59.515625 
L 19.921875 54.6875 
L 34.71875 54.6875 
L 34.71875 47.703125 
L 19.921875 47.703125 
L 19.921875 0 
L 10.890625 0 
L 10.890625 47.703125 
L 2.296875 47.703125 
L 2.296875 54.6875 
L 10.890625 54.6875 
L 10.890625 58.5 
Q 10.890625 67.625 15.140625 71.796875 
Q 19.390625 75.984375 28.609375 75.984375 
z
" id="DejaVuSans-102"/>
     <path d="M 41.109375 46.296875 
Q 39.59375 47.171875 37.8125 47.578125 
Q 36.03125 48 33.890625 48 
Q 26.265625 48 22.1875 43.046875 
Q 18.109375 38.09375 18.109375 28.8125 
L 18.109375 0 
L 9.078125 0 
L 9.078125 54.6875 
L 18.109375 54.6875 
L 18.109375 46.1875 
Q 20.953125 51.171875 25.484375 53.578125 
Q 30.03125 56 36.53125 56 
Q 37.453125 56 38.578125 55.875 
Q 39.703125 55.765625 41.0625 55.515625 
z
" id="DejaVuSans-114"/>
     <path d="M 18.3125 70.21875 
L 18.3125 54.6875 
L 36.8125 54.6875 
L 36.8125 47.703125 
L 18.3125 47.703125 
L 18.3125 18.015625 
Q 18.3125 11.328125 20.140625 9.421875 
Q 21.96875 7.515625 27.59375 7.515625 
L 36.8125 7.515625 
L 36.8125 0 
L 27.59375 0 
Q 17.1875 0 13.234375 3.875 
Q 9.28125 7.765625 9.28125 18.015625 
L 9.28125 47.703125 
L 2.6875 47.703125 
L 2.6875 54.6875 
L 9.28125 54.6875 
L 9.28125 70.21875 
z
" id="DejaVuSans-116"/>
     <path d="M 54.890625 33.015625 
L 54.890625 0 
L 45.90625 0 
L 45.90625 32.71875 
Q 45.90625 40.484375 42.875 44.328125 
Q 39.84375 48.1875 33.796875 48.1875 
Q 26.515625 48.1875 22.3125 43.546875 
Q 18.109375 38.921875 18.109375 30.90625 
L 18.109375 0 
L 9.078125 0 
L 9.078125 75.984375 
L 18.109375 75.984375 
L 18.109375 46.1875 
Q 21.34375 51.125 25.703125 53.5625 
Q 30.078125 56 35.796875 56 
Q 45.21875 56 50.046875 50.171875 
Q 54.890625 44.34375 54.890625 33.015625 
z
" id="DejaVuSans-104"/>
     <path d="M 64.40625 67.28125 
L 64.40625 56.890625 
Q 59.421875 61.53125 53.78125 63.8125 
Q 48.140625 66.109375 41.796875 66.109375 
Q 29.296875 66.109375 22.65625 58.46875 
Q 16.015625 50.828125 16.015625 36.375 
Q 16.015625 21.96875 22.65625 14.328125 
Q 29.296875 6.6875 41.796875 6.6875 
Q 48.140625 6.6875 53.78125 8.984375 
Q 59.421875 11.28125 64.40625 15.921875 
L 64.40625 5.609375 
Q 59.234375 2.09375 53.4375 0.328125 
Q 47.65625 -1.421875 41.21875 -1.421875 
Q 24.65625 -1.421875 15.125 8.703125 
Q 5.609375 18.84375 5.609375 36.375 
Q 5.609375 53.953125 15.125 64.078125 
Q 24.65625 74.21875 41.21875 74.21875 
Q 47.75 74.21875 53.53125 72.484375 
Q 59.328125 70.75 64.40625 67.28125 
z
" id="DejaVuSans-67"/>
     <path d="M 5.515625 54.6875 
L 48.1875 54.6875 
L 48.1875 46.484375 
L 14.40625 7.171875 
L 48.1875 7.171875 
L 48.1875 0 
L 4.296875 0 
L 4.296875 8.203125 
L 38.09375 47.515625 
L 5.515625 47.515625 
z
" id="DejaVuSans-122"/>
     <path d="M 48.78125 52.59375 
L 48.78125 44.1875 
Q 44.96875 46.296875 41.140625 47.34375 
Q 37.3125 48.390625 33.40625 48.390625 
Q 24.65625 48.390625 19.8125 42.84375 
Q 14.984375 37.3125 14.984375 27.296875 
Q 14.984375 17.28125 19.8125 11.734375 
Q 24.65625 6.203125 33.40625 6.203125 
Q 37.3125 6.203125 41.140625 7.25 
Q 44.96875 8.296875 48.78125 10.40625 
L 48.78125 2.09375 
Q 45.015625 0.34375 40.984375 -0.53125 
Q 36.96875 -1.421875 32.421875 -1.421875 
Q 20.0625 -1.421875 12.78125 6.34375 
Q 5.515625 14.109375 5.515625 27.296875 
Q 5.515625 40.671875 12.859375 48.328125 
Q 20.21875 56 33.015625 56 
Q 37.15625 56 41.109375 55.140625 
Q 45.0625 54.296875 48.78125 52.59375 
z
" id="DejaVuSans-99"/>
     <path d="M 18.109375 8.203125 
L 18.109375 -20.796875 
L 9.078125 -20.796875 
L 9.078125 54.6875 
L 18.109375 54.6875 
L 18.109375 46.390625 
Q 20.953125 51.265625 25.265625 53.625 
Q 29.59375 56 35.59375 56 
Q 45.5625 56 51.78125 48.09375 
Q 58.015625 40.1875 58.015625 27.296875 
Q 58.015625 14.40625 51.78125 6.484375 
Q 45.5625 -1.421875 35.59375 -1.421875 
Q 29.59375 -1.421875 25.265625 0.953125 
Q 20.953125 3.328125 18.109375 8.203125 
z
M 48.6875 27.296875 
Q 48.6875 37.203125 44.609375 42.84375 
Q 40.53125 48.484375 33.40625 48.484375 
Q 26.265625 48.484375 22.1875 42.84375 
Q 18.109375 37.203125 18.109375 27.296875 
Q 18.109375 17.390625 22.1875 11.75 
Q 26.265625 6.109375 33.40625 6.109375 
Q 40.53125 6.109375 44.609375 11.75 
Q 48.6875 17.390625 48.6875 27.296875 
z
" id="DejaVuSans-112"/>
     <path d="M 8.5 21.578125 
L 8.5 54.6875 
L 17.484375 54.6875 
L 17.484375 21.921875 
Q 17.484375 14.15625 20.5 10.265625 
Q 23.53125 6.390625 29.59375 6.390625 
Q 36.859375 6.390625 41.078125 11.03125 
Q 45.3125 15.671875 45.3125 23.6875 
L 45.3125 54.6875 
L 54.296875 54.6875 
L 54.296875 0 
L 45.3125 0 
L 45.3125 8.40625 
Q 42.046875 3.421875 37.71875 1 
Q 33.40625 -1.421875 27.6875 -1.421875 
Q 18.265625 -1.421875 13.375 4.4375 
Q 8.5 10.296875 8.5 21.578125 
z
M 31.109375 56 
z
" id="DejaVuSans-117"/>
     <path d="M 48.6875 27.296875 
Q 48.6875 37.203125 44.609375 42.84375 
Q 40.53125 48.484375 33.40625 48.484375 
Q 26.265625 48.484375 22.1875 42.84375 
Q 18.109375 37.203125 18.109375 27.296875 
Q 18.109375 17.390625 22.1875 11.75 
Q 26.265625 6.109375 33.40625 6.109375 
Q 40.53125 6.109375 44.609375 11.75 
Q 48.6875 17.390625 48.6875 27.296875 
z
M 18.109375 46.390625 
Q 20.953125 51.265625 25.265625 53.625 
Q 29.59375 56 35.59375 56 
Q 45.5625 56 51.78125 48.09375 
Q 58.015625 40.1875 58.015625 27.296875 
Q 58.015625 14.40625 51.78125 6.484375 
Q 45.5625 -1.421875 35.59375 -1.421875 
Q 29.59375 -1.421875 25.265625 0.953125 
Q 20.953125 3.328125 18.109375 8.203125 
L 18.109375 0 
L 9.078125 0 
L 9.078125 75.984375 
L 18.109375 75.984375 
z
" id="DejaVuSans-98"/>
     <path d="M 9.421875 54.6875 
L 18.40625 54.6875 
L 18.40625 0 
L 9.421875 0 
z
M 9.421875 75.984375 
L 18.40625 75.984375 
L 18.40625 64.59375 
L 9.421875 64.59375 
z
" id="DejaVuSans-105"/>
    </defs>
    <g transform="translate(378.118688 38.450625)scale(0.12 -0.12)">
     <use xlink:href="#DejaVuSans-83"/>
     <use x="63.476562" xlink:href="#DejaVuSans-73"/>
     <use x="92.96875" xlink:href="#DejaVuSans-82"/>
     <use x="162.451172" xlink:href="#DejaVuSans-32"/>
     <use x="194.238281" xlink:href="#DejaVuSans-109"/>
     <use x="291.650391" xlink:href="#DejaVuSans-111"/>
     <use x="352.832031" xlink:href="#DejaVuSans-100"/>
     <use x="416.308594" xlink:href="#DejaVuSans-101"/>
     <use x="477.832031" xlink:href="#DejaVuSans-108"/>
     <use x="505.615234" xlink:href="#DejaVuSans-32"/>
     <use x="537.402344" xlink:href="#DejaVuSans-102"/>
     <use x="572.607422" xlink:href="#DejaVuSans-111"/>
     <use x="633.789062" xlink:href="#DejaVuSans-114"/>
     <use x="674.902344" xlink:href="#DejaVuSans-32"/>
     <use x="706.689453" xlink:href="#DejaVuSans-116"/>
     <use x="745.898438" xlink:href="#DejaVuSans-104"/>
     <use x="809.277344" xlink:href="#DejaVuSans-101"/>
     <use x="870.800781" xlink:href="#DejaVuSans-32"/>
     <use x="902.587891" xlink:href="#DejaVuSans-67"/>
     <use x="972.412109" xlink:href="#DejaVuSans-122"/>
     <use x="1024.902344" xlink:href="#DejaVuSans-101"/>
     <use x="1086.425781" xlink:href="#DejaVuSans-99"/>
     <use x="1141.40625" xlink:href="#DejaVuSans-104"/>
     <use x="1204.785156" xlink:href="#DejaVuSans-32"/>
     <use x="1236.572266" xlink:href="#DejaVuSans-82"/>
     <use x="1305.992188" xlink:href="#DejaVuSans-101"/>
     <use x="1367.515625" xlink:href="#DejaVuSans-112"/>
     <use x="1430.992188" xlink:href="#DejaVuSans-117"/>
     <use x="1494.371094" xlink:href="#DejaVuSans-98"/>
     <use x="1557.847656" xlink:href="#DejaVuSans-108"/>
     <use x="1585.630859" xlink:href="#DejaVuSans-105"/>
     <use x="1613.414062" xlink:href="#DejaVuSans-99"/>
    </g>
    <!--  parameters from https://www.kaggle.com/lisphilar/covid-19-data-with-sir-model -->
    <defs>
     <path d="M 34.28125 27.484375 
Q 23.390625 27.484375 19.1875 25 
Q 14.984375 22.515625 14.984375 16.5 
Q 14.984375 11.71875 18.140625 8.90625 
Q 21.296875 6.109375 26.703125 6.109375 
Q 34.1875 6.109375 38.703125 11.40625 
Q 43.21875 16.703125 43.21875 25.484375 
L 43.21875 27.484375 
z
M 52.203125 31.203125 
L 52.203125 0 
L 43.21875 0 
L 43.21875 8.296875 
Q 40.140625 3.328125 35.546875 0.953125 
Q 30.953125 -1.421875 24.3125 -1.421875 
Q 15.921875 -1.421875 10.953125 3.296875 
Q 6 8.015625 6 15.921875 
Q 6 25.140625 12.171875 29.828125 
Q 18.359375 34.515625 30.609375 34.515625 
L 43.21875 34.515625 
L 43.21875 35.40625 
Q 43.21875 41.609375 39.140625 45 
Q 35.0625 48.390625 27.6875 48.390625 
Q 23 48.390625 18.546875 47.265625 
Q 14.109375 46.140625 10.015625 43.890625 
L 10.015625 52.203125 
Q 14.9375 54.109375 19.578125 55.046875 
Q 24.21875 56 28.609375 56 
Q 40.484375 56 46.34375 49.84375 
Q 52.203125 43.703125 52.203125 31.203125 
z
" id="DejaVuSans-97"/>
     <path d="M 44.28125 53.078125 
L 44.28125 44.578125 
Q 40.484375 46.53125 36.375 47.5 
Q 32.28125 48.484375 27.875 48.484375 
Q 21.1875 48.484375 17.84375 46.4375 
Q 14.5 44.390625 14.5 40.28125 
Q 14.5 37.15625 16.890625 35.375 
Q 19.28125 33.59375 26.515625 31.984375 
L 29.59375 31.296875 
Q 39.15625 29.25 43.1875 25.515625 
Q 47.21875 21.78125 47.21875 15.09375 
Q 47.21875 7.46875 41.1875 3.015625 
Q 35.15625 -1.421875 24.609375 -1.421875 
Q 20.21875 -1.421875 15.453125 -0.5625 
Q 10.6875 0.296875 5.421875 2 
L 5.421875 11.28125 
Q 10.40625 8.6875 15.234375 7.390625 
Q 20.0625 6.109375 24.8125 6.109375 
Q 31.15625 6.109375 34.5625 8.28125 
Q 37.984375 10.453125 37.984375 14.40625 
Q 37.984375 18.0625 35.515625 20.015625 
Q 33.0625 21.96875 24.703125 23.78125 
L 21.578125 24.515625 
Q 13.234375 26.265625 9.515625 29.90625 
Q 5.8125 33.546875 5.8125 39.890625 
Q 5.8125 47.609375 11.28125 51.796875 
Q 16.75 56 26.8125 56 
Q 31.78125 56 36.171875 55.265625 
Q 40.578125 54.546875 44.28125 53.078125 
z
" id="DejaVuSans-115"/>
     <path d="M 11.71875 12.40625 
L 22.015625 12.40625 
L 22.015625 0 
L 11.71875 0 
z
M 11.71875 51.703125 
L 22.015625 51.703125 
L 22.015625 39.3125 
L 11.71875 39.3125 
z
" id="DejaVuSans-58"/>
     <path d="M 25.390625 72.90625 
L 33.6875 72.90625 
L 8.296875 -9.28125 
L 0 -9.28125 
z
" id="DejaVuSans-47"/>
     <path d="M 4.203125 54.6875 
L 13.1875 54.6875 
L 24.421875 12.015625 
L 35.59375 54.6875 
L 46.1875 54.6875 
L 57.421875 12.015625 
L 68.609375 54.6875 
L 77.59375 54.6875 
L 63.28125 0 
L 52.6875 0 
L 40.921875 44.828125 
L 29.109375 0 
L 18.5 0 
z
" id="DejaVuSans-119"/>
     <path d="M 9.078125 75.984375 
L 18.109375 75.984375 
L 18.109375 31.109375 
L 44.921875 54.6875 
L 56.390625 54.6875 
L 27.390625 29.109375 
L 57.625 0 
L 45.90625 0 
L 18.109375 26.703125 
L 18.109375 0 
L 9.078125 0 
z
" id="DejaVuSans-107"/>
     <path d="M 45.40625 27.984375 
Q 45.40625 37.75 41.375 43.109375 
Q 37.359375 48.484375 30.078125 48.484375 
Q 22.859375 48.484375 18.828125 43.109375 
Q 14.796875 37.75 14.796875 27.984375 
Q 14.796875 18.265625 18.828125 12.890625 
Q 22.859375 7.515625 30.078125 7.515625 
Q 37.359375 7.515625 41.375 12.890625 
Q 45.40625 18.265625 45.40625 27.984375 
z
M 54.390625 6.78125 
Q 54.390625 -7.171875 48.1875 -13.984375 
Q 42 -20.796875 29.203125 -20.796875 
Q 24.46875 -20.796875 20.265625 -20.09375 
Q 16.0625 -19.390625 12.109375 -17.921875 
L 12.109375 -9.1875 
Q 16.0625 -11.328125 19.921875 -12.34375 
Q 23.78125 -13.375 27.78125 -13.375 
Q 36.625 -13.375 41.015625 -8.765625 
Q 45.40625 -4.15625 45.40625 5.171875 
L 45.40625 9.625 
Q 42.625 4.78125 38.28125 2.390625 
Q 33.9375 0 27.875 0 
Q 17.828125 0 11.671875 7.65625 
Q 5.515625 15.328125 5.515625 27.984375 
Q 5.515625 40.671875 11.671875 48.328125 
Q 17.828125 56 27.875 56 
Q 33.9375 56 38.28125 53.609375 
Q 42.625 51.21875 45.40625 46.390625 
L 45.40625 54.6875 
L 54.390625 54.6875 
z
" id="DejaVuSans-103"/>
     <path d="M 2.984375 54.6875 
L 12.5 54.6875 
L 29.59375 8.796875 
L 46.6875 54.6875 
L 56.203125 54.6875 
L 35.6875 0 
L 23.484375 0 
z
" id="DejaVuSans-118"/>
     <path d="M 10.984375 1.515625 
L 10.984375 10.5 
Q 14.703125 8.734375 18.5 7.8125 
Q 22.3125 6.890625 25.984375 6.890625 
Q 35.75 6.890625 40.890625 13.453125 
Q 46.046875 20.015625 46.78125 33.40625 
Q 43.953125 29.203125 39.59375 26.953125 
Q 35.25 24.703125 29.984375 24.703125 
Q 19.046875 24.703125 12.671875 31.3125 
Q 6.296875 37.9375 6.296875 49.421875 
Q 6.296875 60.640625 12.9375 67.421875 
Q 19.578125 74.21875 30.609375 74.21875 
Q 43.265625 74.21875 49.921875 64.515625 
Q 56.59375 54.828125 56.59375 36.375 
Q 56.59375 19.140625 48.40625 8.859375 
Q 40.234375 -1.421875 26.421875 -1.421875 
Q 22.703125 -1.421875 18.890625 -0.6875 
Q 15.09375 0.046875 10.984375 1.515625 
z
M 30.609375 32.421875 
Q 37.25 32.421875 41.125 36.953125 
Q 45.015625 41.5 45.015625 49.421875 
Q 45.015625 57.28125 41.125 61.84375 
Q 37.25 66.40625 30.609375 66.40625 
Q 23.96875 66.40625 20.09375 61.84375 
Q 16.21875 57.28125 16.21875 49.421875 
Q 16.21875 41.5 20.09375 36.953125 
Q 23.96875 32.421875 30.609375 32.421875 
z
" id="DejaVuSans-57"/>
    </defs>
    <g transform="translate(236.409 51.888)scale(0.12 -0.12)">
     <use xlink:href="#DejaVuSans-32"/>
     <use x="31.787109" xlink:href="#DejaVuSans-112"/>
     <use x="95.263672" xlink:href="#DejaVuSans-97"/>
     <use x="156.542969" xlink:href="#DejaVuSans-114"/>
     <use x="197.65625" xlink:href="#DejaVuSans-97"/>
     <use x="258.935547" xlink:href="#DejaVuSans-109"/>
     <use x="356.347656" xlink:href="#DejaVuSans-101"/>
     <use x="417.871094" xlink:href="#DejaVuSans-116"/>
     <use x="457.080078" xlink:href="#DejaVuSans-101"/>
     <use x="518.603516" xlink:href="#DejaVuSans-114"/>
     <use x="559.716797" xlink:href="#DejaVuSans-115"/>
     <use x="611.816406" xlink:href="#DejaVuSans-32"/>
     <use x="643.603516" xlink:href="#DejaVuSans-102"/>
     <use x="678.808594" xlink:href="#DejaVuSans-114"/>
     <use x="719.890625" xlink:href="#DejaVuSans-111"/>
     <use x="781.072266" xlink:href="#DejaVuSans-109"/>
     <use x="878.484375" xlink:href="#DejaVuSans-32"/>
     <use x="910.271484" xlink:href="#DejaVuSans-104"/>
     <use x="973.650391" xlink:href="#DejaVuSans-116"/>
     <use x="1012.859375" xlink:href="#DejaVuSans-116"/>
     <use x="1052.068359" xlink:href="#DejaVuSans-112"/>
     <use x="1115.544922" xlink:href="#DejaVuSans-115"/>
     <use x="1167.644531" xlink:href="#DejaVuSans-58"/>
     <use x="1201.335938" xlink:href="#DejaVuSans-47"/>
     <use x="1235.027344" xlink:href="#DejaVuSans-47"/>
     <use x="1268.71875" xlink:href="#DejaVuSans-119"/>
     <use x="1350.505859" xlink:href="#DejaVuSans-119"/>
     <use x="1432.292969" xlink:href="#DejaVuSans-119"/>
     <use x="1513.939453" xlink:href="#DejaVuSans-46"/>
     <use x="1545.726562" xlink:href="#DejaVuSans-107"/>
     <use x="1603.621094" xlink:href="#DejaVuSans-97"/>
     <use x="1664.900391" xlink:href="#DejaVuSans-103"/>
     <use x="1728.376953" xlink:href="#DejaVuSans-103"/>
     <use x="1791.853516" xlink:href="#DejaVuSans-108"/>
     <use x="1819.636719" xlink:href="#DejaVuSans-101"/>
     <use x="1881.160156" xlink:href="#DejaVuSans-46"/>
     <use x="1912.947266" xlink:href="#DejaVuSans-99"/>
     <use x="1967.927734" xlink:href="#DejaVuSans-111"/>
     <use x="2029.109375" xlink:href="#DejaVuSans-109"/>
     <use x="2126.521484" xlink:href="#DejaVuSans-47"/>
     <use x="2160.212891" xlink:href="#DejaVuSans-108"/>
     <use x="2187.996094" xlink:href="#DejaVuSans-105"/>
     <use x="2215.779297" xlink:href="#DejaVuSans-115"/>
     <use x="2267.878906" xlink:href="#DejaVuSans-112"/>
     <use x="2331.355469" xlink:href="#DejaVuSans-104"/>
     <use x="2394.734375" xlink:href="#DejaVuSans-105"/>
     <use x="2422.517578" xlink:href="#DejaVuSans-108"/>
     <use x="2450.300781" xlink:href="#DejaVuSans-97"/>
     <use x="2511.580078" xlink:href="#DejaVuSans-114"/>
     <use x="2552.693359" xlink:href="#DejaVuSans-47"/>
     <use x="2586.384766" xlink:href="#DejaVuSans-99"/>
     <use x="2641.365234" xlink:href="#DejaVuSans-111"/>
     <use x="2702.546875" xlink:href="#DejaVuSans-118"/>
     <use x="2761.726562" xlink:href="#DejaVuSans-105"/>
     <use x="2789.509766" xlink:href="#DejaVuSans-100"/>
     <use x="2852.986328" xlink:href="#DejaVuSans-45"/>
     <use x="2889.070312" xlink:href="#DejaVuSans-49"/>
     <use x="2952.693359" xlink:href="#DejaVuSans-57"/>
     <use x="3016.316406" xlink:href="#DejaVuSans-45"/>
     <use x="3052.400391" xlink:href="#DejaVuSans-100"/>
     <use x="3115.876953" xlink:href="#DejaVuSans-97"/>
     <use x="3177.15625" xlink:href="#DejaVuSans-116"/>
     <use x="3216.365234" xlink:href="#DejaVuSans-97"/>
     <use x="3277.644531" xlink:href="#DejaVuSans-45"/>
     <use x="3313.728516" xlink:href="#DejaVuSans-119"/>
     <use x="3395.515625" xlink:href="#DejaVuSans-105"/>
     <use x="3423.298828" xlink:href="#DejaVuSans-116"/>
     <use x="3462.507812" xlink:href="#DejaVuSans-104"/>
     <use x="3525.886719" xlink:href="#DejaVuSans-45"/>
     <use x="3561.970703" xlink:href="#DejaVuSans-115"/>
     <use x="3614.070312" xlink:href="#DejaVuSans-105"/>
     <use x="3641.853516" xlink:href="#DejaVuSans-114"/>
     <use x="3682.873047" xlink:href="#DejaVuSans-45"/>
     <use x="3718.957031" xlink:href="#DejaVuSans-109"/>
     <use x="3816.369141" xlink:href="#DejaVuSans-111"/>
     <use x="3877.550781" xlink:href="#DejaVuSans-100"/>
     <use x="3941.027344" xlink:href="#DejaVuSans-101"/>
     <use x="4002.550781" xlink:href="#DejaVuSans-108"/>
    </g>
   </g>
   <g id="legend_1">
    <g id="patch_7">
     <path d="M 600.850188 124.6005 
L 832.808 124.6005 
Q 834.808 124.6005 834.808 122.6005 
L 834.808 64.888 
Q 834.808 62.888 832.808 62.888 
L 600.850188 62.888 
Q 598.850188 62.888 598.850188 64.888 
L 598.850188 122.6005 
Q 598.850188 124.6005 600.850188 124.6005 
z
" style="fill:#ffffff;opacity:0.8;stroke:#cccccc;stroke-linejoin:miter;"/>
    </g>
    <g id="line2d_17">
     <path d="M 602.850188 70.986438 
L 622.850188 70.986438 
" style="fill:none;stroke:#1f77b4;stroke-linecap:square;stroke-width:1.5;"/>
    </g>
    <g id="line2d_18"/>
    <g id="text_15">
     <!-- Model – Susceptible -->
     <defs>
      <path d="M 9.8125 72.90625 
L 24.515625 72.90625 
L 43.109375 23.296875 
L 61.8125 72.90625 
L 76.515625 72.90625 
L 76.515625 0 
L 66.890625 0 
L 66.890625 64.015625 
L 48.09375 14.015625 
L 38.1875 14.015625 
L 19.390625 64.015625 
L 19.390625 0 
L 9.8125 0 
z
" id="DejaVuSans-77"/>
      <path d="M 4.890625 30.90625 
L 45.125 30.90625 
L 45.125 23.875 
L 4.890625 23.875 
z
" id="DejaVuSans-8211"/>
     </defs>
     <g transform="translate(630.850188 74.486438)scale(0.1 -0.1)">
      <use xlink:href="#DejaVuSans-77"/>
      <use x="86.279297" xlink:href="#DejaVuSans-111"/>
      <use x="147.460938" xlink:href="#DejaVuSans-100"/>
      <use x="210.9375" xlink:href="#DejaVuSans-101"/>
      <use x="272.460938" xlink:href="#DejaVuSans-108"/>
      <use x="300.244141" xlink:href="#DejaVuSans-32"/>
      <use x="332.03125" xlink:href="#DejaVuSans-8211"/>
      <use x="382.03125" xlink:href="#DejaVuSans-32"/>
      <use x="413.818359" xlink:href="#DejaVuSans-83"/>
      <use x="477.294922" xlink:href="#DejaVuSans-117"/>
      <use x="540.673828" xlink:href="#DejaVuSans-115"/>
      <use x="592.773438" xlink:href="#DejaVuSans-99"/>
      <use x="647.753906" xlink:href="#DejaVuSans-101"/>
      <use x="709.277344" xlink:href="#DejaVuSans-112"/>
      <use x="772.753906" xlink:href="#DejaVuSans-116"/>
      <use x="811.962891" xlink:href="#DejaVuSans-105"/>
      <use x="839.746094" xlink:href="#DejaVuSans-98"/>
      <use x="903.222656" xlink:href="#DejaVuSans-108"/>
      <use x="931.005859" xlink:href="#DejaVuSans-101"/>
     </g>
    </g>
    <g id="line2d_19">
     <path d="M 602.850188 85.664563 
L 622.850188 85.664563 
" style="fill:none;stroke:#ff7f0e;stroke-linecap:square;stroke-width:1.5;"/>
    </g>
    <g id="line2d_20"/>
    <g id="text_16">
     <!-- Model – Infected -->
     <defs>
      <path d="M 54.890625 33.015625 
L 54.890625 0 
L 45.90625 0 
L 45.90625 32.71875 
Q 45.90625 40.484375 42.875 44.328125 
Q 39.84375 48.1875 33.796875 48.1875 
Q 26.515625 48.1875 22.3125 43.546875 
Q 18.109375 38.921875 18.109375 30.90625 
L 18.109375 0 
L 9.078125 0 
L 9.078125 54.6875 
L 18.109375 54.6875 
L 18.109375 46.1875 
Q 21.34375 51.125 25.703125 53.5625 
Q 30.078125 56 35.796875 56 
Q 45.21875 56 50.046875 50.171875 
Q 54.890625 44.34375 54.890625 33.015625 
z
" id="DejaVuSans-110"/>
     </defs>
     <g transform="translate(630.850188 89.164563)scale(0.1 -0.1)">
      <use xlink:href="#DejaVuSans-77"/>
      <use x="86.279297" xlink:href="#DejaVuSans-111"/>
      <use x="147.460938" xlink:href="#DejaVuSans-100"/>
      <use x="210.9375" xlink:href="#DejaVuSans-101"/>
      <use x="272.460938" xlink:href="#DejaVuSans-108"/>
      <use x="300.244141" xlink:href="#DejaVuSans-32"/>
      <use x="332.03125" xlink:href="#DejaVuSans-8211"/>
      <use x="382.03125" xlink:href="#DejaVuSans-32"/>
      <use x="413.818359" xlink:href="#DejaVuSans-73"/>
      <use x="443.310547" xlink:href="#DejaVuSans-110"/>
      <use x="506.689453" xlink:href="#DejaVuSans-102"/>
      <use x="541.894531" xlink:href="#DejaVuSans-101"/>
      <use x="603.417969" xlink:href="#DejaVuSans-99"/>
      <use x="658.398438" xlink:href="#DejaVuSans-116"/>
      <use x="697.607422" xlink:href="#DejaVuSans-101"/>
      <use x="759.130859" xlink:href="#DejaVuSans-100"/>
     </g>
    </g>
    <g id="line2d_21">
     <path d="M 602.850188 100.342688 
L 622.850188 100.342688 
" style="fill:none;stroke:#2ca02c;stroke-linecap:square;stroke-width:1.5;"/>
    </g>
    <g id="line2d_22"/>
    <g id="text_17">
     <!-- Model – Removed (Recovered or Death) -->
     <defs>
      <path d="M 31 75.875 
Q 24.46875 64.65625 21.28125 53.65625 
Q 18.109375 42.671875 18.109375 31.390625 
Q 18.109375 20.125 21.3125 9.0625 
Q 24.515625 -2 31 -13.1875 
L 23.1875 -13.1875 
Q 15.875 -1.703125 12.234375 9.375 
Q 8.59375 20.453125 8.59375 31.390625 
Q 8.59375 42.28125 12.203125 53.3125 
Q 15.828125 64.359375 23.1875 75.875 
z
" id="DejaVuSans-40"/>
      <path d="M 19.671875 64.796875 
L 19.671875 8.109375 
L 31.59375 8.109375 
Q 46.6875 8.109375 53.6875 14.9375 
Q 60.6875 21.78125 60.6875 36.53125 
Q 60.6875 51.171875 53.6875 57.984375 
Q 46.6875 64.796875 31.59375 64.796875 
z
M 9.8125 72.90625 
L 30.078125 72.90625 
Q 51.265625 72.90625 61.171875 64.09375 
Q 71.09375 55.28125 71.09375 36.53125 
Q 71.09375 17.671875 61.125 8.828125 
Q 51.171875 0 30.078125 0 
L 9.8125 0 
z
" id="DejaVuSans-68"/>
      <path d="M 8.015625 75.875 
L 15.828125 75.875 
Q 23.140625 64.359375 26.78125 53.3125 
Q 30.421875 42.28125 30.421875 31.390625 
Q 30.421875 20.453125 26.78125 9.375 
Q 23.140625 -1.703125 15.828125 -13.1875 
L 8.015625 -13.1875 
Q 14.5 -2 17.703125 9.0625 
Q 20.90625 20.125 20.90625 31.390625 
Q 20.90625 42.671875 17.703125 53.65625 
Q 14.5 64.65625 8.015625 75.875 
z
" id="DejaVuSans-41"/>
     </defs>
     <g transform="translate(630.850188 103.842688)scale(0.1 -0.1)">
      <use xlink:href="#DejaVuSans-77"/>
      <use x="86.279297" xlink:href="#DejaVuSans-111"/>
      <use x="147.460938" xlink:href="#DejaVuSans-100"/>
      <use x="210.9375" xlink:href="#DejaVuSans-101"/>
      <use x="272.460938" xlink:href="#DejaVuSans-108"/>
      <use x="300.244141" xlink:href="#DejaVuSans-32"/>
      <use x="332.03125" xlink:href="#DejaVuSans-8211"/>
      <use x="382.03125" xlink:href="#DejaVuSans-32"/>
      <use x="413.818359" xlink:href="#DejaVuSans-82"/>
      <use x="483.238281" xlink:href="#DejaVuSans-101"/>
      <use x="544.761719" xlink:href="#DejaVuSans-109"/>
      <use x="642.173828" xlink:href="#DejaVuSans-111"/>
      <use x="703.355469" xlink:href="#DejaVuSans-118"/>
      <use x="762.535156" xlink:href="#DejaVuSans-101"/>
      <use x="824.058594" xlink:href="#DejaVuSans-100"/>
      <use x="887.535156" xlink:href="#DejaVuSans-32"/>
      <use x="919.322266" xlink:href="#DejaVuSans-40"/>
      <use x="958.335938" xlink:href="#DejaVuSans-82"/>
      <use x="1027.755859" xlink:href="#DejaVuSans-101"/>
      <use x="1089.279297" xlink:href="#DejaVuSans-99"/>
      <use x="1144.259766" xlink:href="#DejaVuSans-111"/>
      <use x="1205.441406" xlink:href="#DejaVuSans-118"/>
      <use x="1264.621094" xlink:href="#DejaVuSans-101"/>
      <use x="1326.144531" xlink:href="#DejaVuSans-114"/>
      <use x="1367.226562" xlink:href="#DejaVuSans-101"/>
      <use x="1428.75" xlink:href="#DejaVuSans-100"/>
      <use x="1492.226562" xlink:href="#DejaVuSans-32"/>
      <use x="1524.013672" xlink:href="#DejaVuSans-111"/>
      <use x="1585.195312" xlink:href="#DejaVuSans-114"/>
      <use x="1626.308594" xlink:href="#DejaVuSans-32"/>
      <use x="1658.095703" xlink:href="#DejaVuSans-68"/>
      <use x="1735.097656" xlink:href="#DejaVuSans-101"/>
      <use x="1796.621094" xlink:href="#DejaVuSans-97"/>
      <use x="1857.900391" xlink:href="#DejaVuSans-116"/>
      <use x="1897.109375" xlink:href="#DejaVuSans-104"/>
      <use x="1960.488281" xlink:href="#DejaVuSans-41"/>
     </g>
    </g>
    <g id="line2d_23">
     <path d="M 602.850188 115.020813 
L 622.850188 115.020813 
" style="fill:none;stroke:#d62728;stroke-linecap:square;stroke-width:1.5;"/>
    </g>
    <g id="line2d_24"/>
    <g id="text_18">
     <!-- Real Data – Infected -->
     <g transform="translate(630.850188 118.520813)scale(0.1 -0.1)">
      <use xlink:href="#DejaVuSans-82"/>
      <use x="69.419922" xlink:href="#DejaVuSans-101"/>
      <use x="130.943359" xlink:href="#DejaVuSans-97"/>
      <use x="192.222656" xlink:href="#DejaVuSans-108"/>
      <use x="220.005859" xlink:href="#DejaVuSans-32"/>
      <use x="251.792969" xlink:href="#DejaVuSans-68"/>
      <use x="328.794922" xlink:href="#DejaVuSans-97"/>
      <use x="390.074219" xlink:href="#DejaVuSans-116"/>
      <use x="429.283203" xlink:href="#DejaVuSans-97"/>
      <use x="490.5625" xlink:href="#DejaVuSans-32"/>
      <use x="522.349609" xlink:href="#DejaVuSans-8211"/>
      <use x="572.349609" xlink:href="#DejaVuSans-32"/>
      <use x="604.136719" xlink:href="#DejaVuSans-73"/>
      <use x="633.628906" xlink:href="#DejaVuSans-110"/>
      <use x="697.007812" xlink:href="#DejaVuSans-102"/>
      <use x="732.212891" xlink:href="#DejaVuSans-101"/>
      <use x="793.736328" xlink:href="#DejaVuSans-99"/>
      <use x="848.716797" xlink:href="#DejaVuSans-116"/>
      <use x="887.925781" xlink:href="#DejaVuSans-101"/>
      <use x="949.449219" xlink:href="#DejaVuSans-100"/>
     </g>
    </g>
   </g>
  </g>
 </g>
 <defs>
  <clipPath id="p0c37d34c71">
   <rect height="371.448" width="723.168" x="116.64" y="57.888"/>
  </clipPath>
 </defs>
</svg>
