<?xml version="1.0" encoding="utf-8" standalone="no"?>
<!DOCTYPE svg PUBLIC "-//W3C//DTD SVG 1.1//EN"
  "http://www.w3.org/Graphics/SVG/1.1/DTD/svg11.dtd">
<!-- Created with matplotlib (https://matplotlib.org/) -->
<svg height="482.4pt" version="1.1" viewBox="0 0 933.12 482.4" width="933.12pt" xmlns="http://www.w3.org/2000/svg" xmlns:xlink="http://www.w3.org/1999/xlink">
 <defs>
  <style type="text/css">
*{stroke-linecap:butt;stroke-linejoin:round;}
  </style>
 </defs>
 <g id="figure_1">
  <g id="patch_1">
   <path d="M 0 482.4 
L 933.12 482.4 
L 933.12 0 
L 0 0 
z
" style="fill:#ffffff;"/>
  </g>
  <g id="axes_1">
   <g id="patch_2">
    <path d="M 116.64 429.336 
L 839.808 429.336 
L 839.808 57.888 
L 116.64 57.888 
z
" style="fill:#ffffff;"/>
   </g>
   <g id="matplotlib.axis_1">
    <g id="xtick_1">
     <g id="line2d_1">
      <defs>
       <path d="M 0 0 
L 0 3.5 
" id="m7140780454" style="stroke:#000000;stroke-width:0.8;"/>
      </defs>
      <g>
       <use style="stroke:#000000;stroke-width:0.8;" x="144.032727" xlink:href="#m7140780454" y="429.336"/>
      </g>
     </g>
     <g id="text_1">
      <!-- 2020-02-29 -->
      <defs>
       <path d="M 19.1875 8.296875 
L 53.609375 8.296875 
L 53.609375 0 
L 7.328125 0 
L 7.328125 8.296875 
Q 12.9375 14.109375 22.625 23.890625 
Q 32.328125 33.6875 34.8125 36.53125 
Q 39.546875 41.84375 41.421875 45.53125 
Q 43.3125 49.21875 43.3125 52.78125 
Q 43.3125 58.59375 39.234375 62.25 
Q 35.15625 65.921875 28.609375 65.921875 
Q 23.96875 65.921875 18.8125 64.3125 
Q 13.671875 62.703125 7.8125 59.421875 
L 7.8125 69.390625 
Q 13.765625 71.78125 18.9375 73 
Q 24.125 74.21875 28.421875 74.21875 
Q 39.75 74.21875 46.484375 68.546875 
Q 53.21875 62.890625 53.21875 53.421875 
Q 53.21875 48.921875 51.53125 44.890625 
Q 49.859375 40.875 45.40625 35.40625 
Q 44.1875 33.984375 37.640625 27.21875 
Q 31.109375 20.453125 19.1875 8.296875 
z
" id="DejaVuSans-50"/>
       <path d="M 31.78125 66.40625 
Q 24.171875 66.40625 20.328125 58.90625 
Q 16.5 51.421875 16.5 36.375 
Q 16.5 21.390625 20.328125 13.890625 
Q 24.171875 6.390625 31.78125 6.390625 
Q 39.453125 6.390625 43.28125 13.890625 
Q 47.125 21.390625 47.125 36.375 
Q 47.125 51.421875 43.28125 58.90625 
Q 39.453125 66.40625 31.78125 66.40625 
z
M 31.78125 74.21875 
Q 44.046875 74.21875 50.515625 64.515625 
Q 56.984375 54.828125 56.984375 36.375 
Q 56.984375 17.96875 50.515625 8.265625 
Q 44.046875 -1.421875 31.78125 -1.421875 
Q 19.53125 -1.421875 13.0625 8.265625 
Q 6.59375 17.96875 6.59375 36.375 
Q 6.59375 54.828125 13.0625 64.515625 
Q 19.53125 74.21875 31.78125 74.21875 
z
" id="DejaVuSans-48"/>
       <path d="M 4.890625 31.390625 
L 31.203125 31.390625 
L 31.203125 23.390625 
L 4.890625 23.390625 
z
" id="DejaVuSans-45"/>
       <path d="M 10.984375 1.515625 
L 10.984375 10.5 
Q 14.703125 8.734375 18.5 7.8125 
Q 22.3125 6.890625 25.984375 6.890625 
Q 35.75 6.890625 40.890625 13.453125 
Q 46.046875 20.015625 46.78125 33.40625 
Q 43.953125 29.203125 39.59375 26.953125 
Q 35.25 24.703125 29.984375 24.703125 
Q 19.046875 24.703125 12.671875 31.3125 
Q 6.296875 37.9375 6.296875 49.421875 
Q 6.296875 60.640625 12.9375 67.421875 
Q 19.578125 74.21875 30.609375 74.21875 
Q 43.265625 74.21875 49.921875 64.515625 
Q 56.59375 54.828125 56.59375 36.375 
Q 56.59375 19.140625 48.40625 8.859375 
Q 40.234375 -1.421875 26.421875 -1.421875 
Q 22.703125 -1.421875 18.890625 -0.6875 
Q 15.09375 0.046875 10.984375 1.515625 
z
M 30.609375 32.421875 
Q 37.25 32.421875 41.125 36.953125 
Q 45.015625 41.5 45.015625 49.421875 
Q 45.015625 57.28125 41.125 61.84375 
Q 37.25 66.40625 30.609375 66.40625 
Q 23.96875 66.40625 20.09375 61.84375 
Q 16.21875 57.28125 16.21875 49.421875 
Q 16.21875 41.5 20.09375 36.953125 
Q 23.96875 32.421875 30.609375 32.421875 
z
" id="DejaVuSans-57"/>
      </defs>
      <g transform="translate(114.974915 443.934438)scale(0.1 -0.1)">
       <use xlink:href="#DejaVuSans-50"/>
       <use x="63.623047" xlink:href="#DejaVuSans-48"/>
       <use x="127.246094" xlink:href="#DejaVuSans-50"/>
       <use x="190.869141" xlink:href="#DejaVuSans-48"/>
       <use x="254.492188" xlink:href="#DejaVuSans-45"/>
       <use x="290.576172" xlink:href="#DejaVuSans-48"/>
       <use x="354.199219" xlink:href="#DejaVuSans-50"/>
       <use x="417.822266" xlink:href="#DejaVuSans-45"/>
       <use x="453.90625" xlink:href="#DejaVuSans-50"/>
       <use x="517.529297" xlink:href="#DejaVuSans-57"/>
      </g>
     </g>
    </g>
    <g id="xtick_2">
     <g id="line2d_2">
      <g>
       <use style="stroke:#000000;stroke-width:0.8;" x="149.511273" xlink:href="#m7140780454" y="429.336"/>
      </g>
     </g>
     <g id="text_2">
      <!-- 2020-03-01 -->
      <defs>
       <path d="M 40.578125 39.3125 
Q 47.65625 37.796875 51.625 33 
Q 55.609375 28.21875 55.609375 21.1875 
Q 55.609375 10.40625 48.1875 4.484375 
Q 40.765625 -1.421875 27.09375 -1.421875 
Q 22.515625 -1.421875 17.65625 -0.515625 
Q 12.796875 0.390625 7.625 2.203125 
L 7.625 11.71875 
Q 11.71875 9.328125 16.59375 8.109375 
Q 21.484375 6.890625 26.8125 6.890625 
Q 36.078125 6.890625 40.9375 10.546875 
Q 45.796875 14.203125 45.796875 21.1875 
Q 45.796875 27.640625 41.28125 31.265625 
Q 36.765625 34.90625 28.71875 34.90625 
L 20.21875 34.90625 
L 20.21875 43.015625 
L 29.109375 43.015625 
Q 36.375 43.015625 40.234375 45.921875 
Q 44.09375 48.828125 44.09375 54.296875 
Q 44.09375 59.90625 40.109375 62.90625 
Q 36.140625 65.921875 28.71875 65.921875 
Q 24.65625 65.921875 20.015625 65.03125 
Q 15.375 64.15625 9.8125 62.3125 
L 9.8125 71.09375 
Q 15.4375 72.65625 20.34375 73.4375 
Q 25.25 74.21875 29.59375 74.21875 
Q 40.828125 74.21875 47.359375 69.109375 
Q 53.90625 64.015625 53.90625 55.328125 
Q 53.90625 49.265625 50.4375 45.09375 
Q 46.96875 40.921875 40.578125 39.3125 
z
" id="DejaVuSans-51"/>
       <path d="M 12.40625 8.296875 
L 28.515625 8.296875 
L 28.515625 63.921875 
L 10.984375 60.40625 
L 10.984375 69.390625 
L 28.421875 72.90625 
L 38.28125 72.90625 
L 38.28125 8.296875 
L 54.390625 8.296875 
L 54.390625 0 
L 12.40625 0 
z
" id="DejaVuSans-49"/>
      </defs>
      <g transform="translate(120.45346 443.934438)scale(0.1 -0.1)">
       <use xlink:href="#DejaVuSans-50"/>
       <use x="63.623047" xlink:href="#DejaVuSans-48"/>
       <use x="127.246094" xlink:href="#DejaVuSans-50"/>
       <use x="190.869141" xlink:href="#DejaVuSans-48"/>
       <use x="254.492188" xlink:href="#DejaVuSans-45"/>
       <use x="290.576172" xlink:href="#DejaVuSans-48"/>
       <use x="354.199219" xlink:href="#DejaVuSans-51"/>
       <use x="417.822266" xlink:href="#DejaVuSans-45"/>
       <use x="453.90625" xlink:href="#DejaVuSans-48"/>
       <use x="517.529297" xlink:href="#DejaVuSans-49"/>
      </g>
     </g>
    </g>
    <g id="xtick_3">
     <g id="line2d_3">
      <g>
       <use style="stroke:#000000;stroke-width:0.8;" x="226.210909" xlink:href="#m7140780454" y="429.336"/>
      </g>
     </g>
     <g id="text_3">
      <!-- 2020-03-15 -->
      <defs>
       <path d="M 10.796875 72.90625 
L 49.515625 72.90625 
L 49.515625 64.59375 
L 19.828125 64.59375 
L 19.828125 46.734375 
Q 21.96875 47.46875 24.109375 47.828125 
Q 26.265625 48.1875 28.421875 48.1875 
Q 40.625 48.1875 47.75 41.5 
Q 54.890625 34.8125 54.890625 23.390625 
Q 54.890625 11.625 47.5625 5.09375 
Q 40.234375 -1.421875 26.90625 -1.421875 
Q 22.3125 -1.421875 17.546875 -0.640625 
Q 12.796875 0.140625 7.71875 1.703125 
L 7.71875 11.625 
Q 12.109375 9.234375 16.796875 8.0625 
Q 21.484375 6.890625 26.703125 6.890625 
Q 35.15625 6.890625 40.078125 11.328125 
Q 45.015625 15.765625 45.015625 23.390625 
Q 45.015625 31 40.078125 35.4375 
Q 35.15625 39.890625 26.703125 39.890625 
Q 22.75 39.890625 18.8125 39.015625 
Q 14.890625 38.140625 10.796875 36.28125 
z
" id="DejaVuSans-53"/>
      </defs>
      <g transform="translate(197.153097 443.934438)scale(0.1 -0.1)">
       <use xlink:href="#DejaVuSans-50"/>
       <use x="63.623047" xlink:href="#DejaVuSans-48"/>
       <use x="127.246094" xlink:href="#DejaVuSans-50"/>
       <use x="190.869141" xlink:href="#DejaVuSans-48"/>
       <use x="254.492188" xlink:href="#DejaVuSans-45"/>
       <use x="290.576172" xlink:href="#DejaVuSans-48"/>
       <use x="354.199219" xlink:href="#DejaVuSans-51"/>
       <use x="417.822266" xlink:href="#DejaVuSans-45"/>
       <use x="453.90625" xlink:href="#DejaVuSans-49"/>
       <use x="517.529297" xlink:href="#DejaVuSans-53"/>
      </g>
     </g>
    </g>
    <g id="xtick_4">
     <g id="line2d_4">
      <g>
       <use style="stroke:#000000;stroke-width:0.8;" x="302.910545" xlink:href="#m7140780454" y="429.336"/>
      </g>
     </g>
     <g id="text_4">
      <!-- 2020-03-29 -->
      <g transform="translate(273.852733 443.934438)scale(0.1 -0.1)">
       <use xlink:href="#DejaVuSans-50"/>
       <use x="63.623047" xlink:href="#DejaVuSans-48"/>
       <use x="127.246094" xlink:href="#DejaVuSans-50"/>
       <use x="190.869141" xlink:href="#DejaVuSans-48"/>
       <use x="254.492188" xlink:href="#DejaVuSans-45"/>
       <use x="290.576172" xlink:href="#DejaVuSans-48"/>
       <use x="354.199219" xlink:href="#DejaVuSans-51"/>
       <use x="417.822266" xlink:href="#DejaVuSans-45"/>
       <use x="453.90625" xlink:href="#DejaVuSans-50"/>
       <use x="517.529297" xlink:href="#DejaVuSans-57"/>
      </g>
     </g>
    </g>
    <g id="xtick_5">
     <g id="line2d_5">
      <g>
       <use style="stroke:#000000;stroke-width:0.8;" x="319.346182" xlink:href="#m7140780454" y="429.336"/>
      </g>
     </g>
     <g id="text_5">
      <!-- 2020-04-01 -->
      <defs>
       <path d="M 37.796875 64.3125 
L 12.890625 25.390625 
L 37.796875 25.390625 
z
M 35.203125 72.90625 
L 47.609375 72.90625 
L 47.609375 25.390625 
L 58.015625 25.390625 
L 58.015625 17.1875 
L 47.609375 17.1875 
L 47.609375 0 
L 37.796875 0 
L 37.796875 17.1875 
L 4.890625 17.1875 
L 4.890625 26.703125 
z
" id="DejaVuSans-52"/>
      </defs>
      <g transform="translate(290.288369 443.934438)scale(0.1 -0.1)">
       <use xlink:href="#DejaVuSans-50"/>
       <use x="63.623047" xlink:href="#DejaVuSans-48"/>
       <use x="127.246094" xlink:href="#DejaVuSans-50"/>
       <use x="190.869141" xlink:href="#DejaVuSans-48"/>
       <use x="254.492188" xlink:href="#DejaVuSans-45"/>
       <use x="290.576172" xlink:href="#DejaVuSans-48"/>
       <use x="354.199219" xlink:href="#DejaVuSans-52"/>
       <use x="417.822266" xlink:href="#DejaVuSans-45"/>
       <use x="453.90625" xlink:href="#DejaVuSans-48"/>
       <use x="517.529297" xlink:href="#DejaVuSans-49"/>
      </g>
     </g>
    </g>
    <g id="xtick_6">
     <g id="line2d_6">
      <g>
       <use style="stroke:#000000;stroke-width:0.8;" x="396.045818" xlink:href="#m7140780454" y="429.336"/>
      </g>
     </g>
     <g id="text_6">
      <!-- 2020-04-15 -->
      <g transform="translate(366.988006 443.934438)scale(0.1 -0.1)">
       <use xlink:href="#DejaVuSans-50"/>
       <use x="63.623047" xlink:href="#DejaVuSans-48"/>
       <use x="127.246094" xlink:href="#DejaVuSans-50"/>
       <use x="190.869141" xlink:href="#DejaVuSans-48"/>
       <use x="254.492188" xlink:href="#DejaVuSans-45"/>
       <use x="290.576172" xlink:href="#DejaVuSans-48"/>
       <use x="354.199219" xlink:href="#DejaVuSans-52"/>
       <use x="417.822266" xlink:href="#DejaVuSans-45"/>
       <use x="453.90625" xlink:href="#DejaVuSans-49"/>
       <use x="517.529297" xlink:href="#DejaVuSans-53"/>
      </g>
     </g>
    </g>
    <g id="xtick_7">
     <g id="line2d_7">
      <g>
       <use style="stroke:#000000;stroke-width:0.8;" x="472.745455" xlink:href="#m7140780454" y="429.336"/>
      </g>
     </g>
     <g id="text_7">
      <!-- 2020-04-29 -->
      <g transform="translate(443.687642 443.934438)scale(0.1 -0.1)">
       <use xlink:href="#DejaVuSans-50"/>
       <use x="63.623047" xlink:href="#DejaVuSans-48"/>
       <use x="127.246094" xlink:href="#DejaVuSans-50"/>
       <use x="190.869141" xlink:href="#DejaVuSans-48"/>
       <use x="254.492188" xlink:href="#DejaVuSans-45"/>
       <use x="290.576172" xlink:href="#DejaVuSans-48"/>
       <use x="354.199219" xlink:href="#DejaVuSans-52"/>
       <use x="417.822266" xlink:href="#DejaVuSans-45"/>
       <use x="453.90625" xlink:href="#DejaVuSans-50"/>
       <use x="517.529297" xlink:href="#DejaVuSans-57"/>
      </g>
     </g>
    </g>
    <g id="xtick_8">
     <g id="line2d_8">
      <g>
       <use style="stroke:#000000;stroke-width:0.8;" x="483.702545" xlink:href="#m7140780454" y="429.336"/>
      </g>
     </g>
     <g id="text_8">
      <!-- 2020-05-01 -->
      <g transform="translate(454.644733 443.934438)scale(0.1 -0.1)">
       <use xlink:href="#DejaVuSans-50"/>
       <use x="63.623047" xlink:href="#DejaVuSans-48"/>
       <use x="127.246094" xlink:href="#DejaVuSans-50"/>
       <use x="190.869141" xlink:href="#DejaVuSans-48"/>
       <use x="254.492188" xlink:href="#DejaVuSans-45"/>
       <use x="290.576172" xlink:href="#DejaVuSans-48"/>
       <use x="354.199219" xlink:href="#DejaVuSans-53"/>
       <use x="417.822266" xlink:href="#DejaVuSans-45"/>
       <use x="453.90625" xlink:href="#DejaVuSans-48"/>
       <use x="517.529297" xlink:href="#DejaVuSans-49"/>
      </g>
     </g>
    </g>
    <g id="xtick_9">
     <g id="line2d_9">
      <g>
       <use style="stroke:#000000;stroke-width:0.8;" x="560.402182" xlink:href="#m7140780454" y="429.336"/>
      </g>
     </g>
     <g id="text_9">
      <!-- 2020-05-15 -->
      <g transform="translate(531.344369 443.934438)scale(0.1 -0.1)">
       <use xlink:href="#DejaVuSans-50"/>
       <use x="63.623047" xlink:href="#DejaVuSans-48"/>
       <use x="127.246094" xlink:href="#DejaVuSans-50"/>
       <use x="190.869141" xlink:href="#DejaVuSans-48"/>
       <use x="254.492188" xlink:href="#DejaVuSans-45"/>
       <use x="290.576172" xlink:href="#DejaVuSans-48"/>
       <use x="354.199219" xlink:href="#DejaVuSans-53"/>
       <use x="417.822266" xlink:href="#DejaVuSans-45"/>
       <use x="453.90625" xlink:href="#DejaVuSans-49"/>
       <use x="517.529297" xlink:href="#DejaVuSans-53"/>
      </g>
     </g>
    </g>
    <g id="xtick_10">
     <g id="line2d_10">
      <g>
       <use style="stroke:#000000;stroke-width:0.8;" x="637.101818" xlink:href="#m7140780454" y="429.336"/>
      </g>
     </g>
     <g id="text_10">
      <!-- 2020-05-29 -->
      <g transform="translate(608.044006 443.934438)scale(0.1 -0.1)">
       <use xlink:href="#DejaVuSans-50"/>
       <use x="63.623047" xlink:href="#DejaVuSans-48"/>
       <use x="127.246094" xlink:href="#DejaVuSans-50"/>
       <use x="190.869141" xlink:href="#DejaVuSans-48"/>
       <use x="254.492188" xlink:href="#DejaVuSans-45"/>
       <use x="290.576172" xlink:href="#DejaVuSans-48"/>
       <use x="354.199219" xlink:href="#DejaVuSans-53"/>
       <use x="417.822266" xlink:href="#DejaVuSans-45"/>
       <use x="453.90625" xlink:href="#DejaVuSans-50"/>
       <use x="517.529297" xlink:href="#DejaVuSans-57"/>
      </g>
     </g>
    </g>
    <g id="xtick_11">
     <g id="line2d_11">
      <g>
       <use style="stroke:#000000;stroke-width:0.8;" x="653.537455" xlink:href="#m7140780454" y="429.336"/>
      </g>
     </g>
     <g id="text_11">
      <!-- 2020-06-01 -->
      <defs>
       <path d="M 33.015625 40.375 
Q 26.375 40.375 22.484375 35.828125 
Q 18.609375 31.296875 18.609375 23.390625 
Q 18.609375 15.53125 22.484375 10.953125 
Q 26.375 6.390625 33.015625 6.390625 
Q 39.65625 6.390625 43.53125 10.953125 
Q 47.40625 15.53125 47.40625 23.390625 
Q 47.40625 31.296875 43.53125 35.828125 
Q 39.65625 40.375 33.015625 40.375 
z
M 52.59375 71.296875 
L 52.59375 62.3125 
Q 48.875 64.0625 45.09375 64.984375 
Q 41.3125 65.921875 37.59375 65.921875 
Q 27.828125 65.921875 22.671875 59.328125 
Q 17.53125 52.734375 16.796875 39.40625 
Q 19.671875 43.65625 24.015625 45.921875 
Q 28.375 48.1875 33.59375 48.1875 
Q 44.578125 48.1875 50.953125 41.515625 
Q 57.328125 34.859375 57.328125 23.390625 
Q 57.328125 12.15625 50.6875 5.359375 
Q 44.046875 -1.421875 33.015625 -1.421875 
Q 20.359375 -1.421875 13.671875 8.265625 
Q 6.984375 17.96875 6.984375 36.375 
Q 6.984375 53.65625 15.1875 63.9375 
Q 23.390625 74.21875 37.203125 74.21875 
Q 40.921875 74.21875 44.703125 73.484375 
Q 48.484375 72.75 52.59375 71.296875 
z
" id="DejaVuSans-54"/>
      </defs>
      <g transform="translate(624.479642 443.934438)scale(0.1 -0.1)">
       <use xlink:href="#DejaVuSans-50"/>
       <use x="63.623047" xlink:href="#DejaVuSans-48"/>
       <use x="127.246094" xlink:href="#DejaVuSans-50"/>
       <use x="190.869141" xlink:href="#DejaVuSans-48"/>
       <use x="254.492188" xlink:href="#DejaVuSans-45"/>
       <use x="290.576172" xlink:href="#DejaVuSans-48"/>
       <use x="354.199219" xlink:href="#DejaVuSans-54"/>
       <use x="417.822266" xlink:href="#DejaVuSans-45"/>
       <use x="453.90625" xlink:href="#DejaVuSans-48"/>
       <use x="517.529297" xlink:href="#DejaVuSans-49"/>
      </g>
     </g>
    </g>
    <g id="xtick_12">
     <g id="line2d_12">
      <g>
       <use style="stroke:#000000;stroke-width:0.8;" x="730.237091" xlink:href="#m7140780454" y="429.336"/>
      </g>
     </g>
     <g id="text_12">
      <!-- 2020-06-15 -->
      <g transform="translate(701.179278 443.934438)scale(0.1 -0.1)">
       <use xlink:href="#DejaVuSans-50"/>
       <use x="63.623047" xlink:href="#DejaVuSans-48"/>
       <use x="127.246094" xlink:href="#DejaVuSans-50"/>
       <use x="190.869141" xlink:href="#DejaVuSans-48"/>
       <use x="254.492188" xlink:href="#DejaVuSans-45"/>
       <use x="290.576172" xlink:href="#DejaVuSans-48"/>
       <use x="354.199219" xlink:href="#DejaVuSans-54"/>
       <use x="417.822266" xlink:href="#DejaVuSans-45"/>
       <use x="453.90625" xlink:href="#DejaVuSans-49"/>
       <use x="517.529297" xlink:href="#DejaVuSans-53"/>
      </g>
     </g>
    </g>
    <g id="xtick_13">
     <g id="line2d_13">
      <g>
       <use style="stroke:#000000;stroke-width:0.8;" x="806.936727" xlink:href="#m7140780454" y="429.336"/>
      </g>
     </g>
     <g id="text_13">
      <!-- 2020-06-29 -->
      <g transform="translate(777.878915 443.934438)scale(0.1 -0.1)">
       <use xlink:href="#DejaVuSans-50"/>
       <use x="63.623047" xlink:href="#DejaVuSans-48"/>
       <use x="127.246094" xlink:href="#DejaVuSans-50"/>
       <use x="190.869141" xlink:href="#DejaVuSans-48"/>
       <use x="254.492188" xlink:href="#DejaVuSans-45"/>
       <use x="290.576172" xlink:href="#DejaVuSans-48"/>
       <use x="354.199219" xlink:href="#DejaVuSans-54"/>
       <use x="417.822266" xlink:href="#DejaVuSans-45"/>
       <use x="453.90625" xlink:href="#DejaVuSans-50"/>
       <use x="517.529297" xlink:href="#DejaVuSans-57"/>
      </g>
     </g>
    </g>
    <g id="xtick_14">
     <g id="line2d_14">
      <g>
       <use style="stroke:#000000;stroke-width:0.8;" x="817.893818" xlink:href="#m7140780454" y="429.336"/>
      </g>
     </g>
     <g id="text_14">
      <!-- 2020-07-01 -->
      <defs>
       <path d="M 8.203125 72.90625 
L 55.078125 72.90625 
L 55.078125 68.703125 
L 28.609375 0 
L 18.3125 0 
L 43.21875 64.59375 
L 8.203125 64.59375 
z
" id="DejaVuSans-55"/>
      </defs>
      <g transform="translate(788.836006 443.934438)scale(0.1 -0.1)">
       <use xlink:href="#DejaVuSans-50"/>
       <use x="63.623047" xlink:href="#DejaVuSans-48"/>
       <use x="127.246094" xlink:href="#DejaVuSans-50"/>
       <use x="190.869141" xlink:href="#DejaVuSans-48"/>
       <use x="254.492188" xlink:href="#DejaVuSans-45"/>
       <use x="290.576172" xlink:href="#DejaVuSans-48"/>
       <use x="354.199219" xlink:href="#DejaVuSans-55"/>
       <use x="417.822266" xlink:href="#DejaVuSans-45"/>
       <use x="453.90625" xlink:href="#DejaVuSans-48"/>
       <use x="517.529297" xlink:href="#DejaVuSans-49"/>
      </g>
     </g>
    </g>
   </g>
   <g id="matplotlib.axis_2">
    <g id="ytick_1">
     <g id="line2d_15">
      <defs>
       <path d="M 0 0 
L -3.5 0 
" id="m53d7c6d838" style="stroke:#000000;stroke-width:0.8;"/>
      </defs>
      <g>
       <use style="stroke:#000000;stroke-width:0.8;" x="116.64" xlink:href="#m53d7c6d838" y="412.452"/>
      </g>
     </g>
     <g id="text_15">
      <!-- 0 -->
      <g transform="translate(103.2775 416.251219)scale(0.1 -0.1)">
       <use xlink:href="#DejaVuSans-48"/>
      </g>
     </g>
    </g>
    <g id="ytick_2">
     <g id="line2d_16">
      <g>
       <use style="stroke:#000000;stroke-width:0.8;" x="116.64" xlink:href="#m53d7c6d838" y="359.759671"/>
      </g>
     </g>
     <g id="text_16">
      <!-- 2000 -->
      <g transform="translate(84.19 363.55889)scale(0.1 -0.1)">
       <use xlink:href="#DejaVuSans-50"/>
       <use x="63.623047" xlink:href="#DejaVuSans-48"/>
       <use x="127.246094" xlink:href="#DejaVuSans-48"/>
       <use x="190.869141" xlink:href="#DejaVuSans-48"/>
      </g>
     </g>
    </g>
    <g id="ytick_3">
     <g id="line2d_17">
      <g>
       <use style="stroke:#000000;stroke-width:0.8;" x="116.64" xlink:href="#m53d7c6d838" y="307.067343"/>
      </g>
     </g>
     <g id="text_17">
      <!-- 4000 -->
      <g transform="translate(84.19 310.866561)scale(0.1 -0.1)">
       <use xlink:href="#DejaVuSans-52"/>
       <use x="63.623047" xlink:href="#DejaVuSans-48"/>
       <use x="127.246094" xlink:href="#DejaVuSans-48"/>
       <use x="190.869141" xlink:href="#DejaVuSans-48"/>
      </g>
     </g>
    </g>
    <g id="ytick_4">
     <g id="line2d_18">
      <g>
       <use style="stroke:#000000;stroke-width:0.8;" x="116.64" xlink:href="#m53d7c6d838" y="254.375014"/>
      </g>
     </g>
     <g id="text_18">
      <!-- 6000 -->
      <g transform="translate(84.19 258.174233)scale(0.1 -0.1)">
       <use xlink:href="#DejaVuSans-54"/>
       <use x="63.623047" xlink:href="#DejaVuSans-48"/>
       <use x="127.246094" xlink:href="#DejaVuSans-48"/>
       <use x="190.869141" xlink:href="#DejaVuSans-48"/>
      </g>
     </g>
    </g>
    <g id="ytick_5">
     <g id="line2d_19">
      <g>
       <use style="stroke:#000000;stroke-width:0.8;" x="116.64" xlink:href="#m53d7c6d838" y="201.682685"/>
      </g>
     </g>
     <g id="text_19">
      <!-- 8000 -->
      <defs>
       <path d="M 31.78125 34.625 
Q 24.75 34.625 20.71875 30.859375 
Q 16.703125 27.09375 16.703125 20.515625 
Q 16.703125 13.921875 20.71875 10.15625 
Q 24.75 6.390625 31.78125 6.390625 
Q 38.8125 6.390625 42.859375 10.171875 
Q 46.921875 13.96875 46.921875 20.515625 
Q 46.921875 27.09375 42.890625 30.859375 
Q 38.875 34.625 31.78125 34.625 
z
M 21.921875 38.8125 
Q 15.578125 40.375 12.03125 44.71875 
Q 8.5 49.078125 8.5 55.328125 
Q 8.5 64.0625 14.71875 69.140625 
Q 20.953125 74.21875 31.78125 74.21875 
Q 42.671875 74.21875 48.875 69.140625 
Q 55.078125 64.0625 55.078125 55.328125 
Q 55.078125 49.078125 51.53125 44.71875 
Q 48 40.375 41.703125 38.8125 
Q 48.828125 37.15625 52.796875 32.3125 
Q 56.78125 27.484375 56.78125 20.515625 
Q 56.78125 9.90625 50.3125 4.234375 
Q 43.84375 -1.421875 31.78125 -1.421875 
Q 19.734375 -1.421875 13.25 4.234375 
Q 6.78125 9.90625 6.78125 20.515625 
Q 6.78125 27.484375 10.78125 32.3125 
Q 14.796875 37.15625 21.921875 38.8125 
z
M 18.3125 54.390625 
Q 18.3125 48.734375 21.84375 45.5625 
Q 25.390625 42.390625 31.78125 42.390625 
Q 38.140625 42.390625 41.71875 45.5625 
Q 45.3125 48.734375 45.3125 54.390625 
Q 45.3125 60.0625 41.71875 63.234375 
Q 38.140625 66.40625 31.78125 66.40625 
Q 25.390625 66.40625 21.84375 63.234375 
Q 18.3125 60.0625 18.3125 54.390625 
z
" id="DejaVuSans-56"/>
      </defs>
      <g transform="translate(84.19 205.481904)scale(0.1 -0.1)">
       <use xlink:href="#DejaVuSans-56"/>
       <use x="63.623047" xlink:href="#DejaVuSans-48"/>
       <use x="127.246094" xlink:href="#DejaVuSans-48"/>
       <use x="190.869141" xlink:href="#DejaVuSans-48"/>
      </g>
     </g>
    </g>
    <g id="ytick_6">
     <g id="line2d_20">
      <g>
       <use style="stroke:#000000;stroke-width:0.8;" x="116.64" xlink:href="#m53d7c6d838" y="148.990356"/>
      </g>
     </g>
     <g id="text_20">
      <!-- 10000 -->
      <g transform="translate(77.8275 152.789575)scale(0.1 -0.1)">
       <use xlink:href="#DejaVuSans-49"/>
       <use x="63.623047" xlink:href="#DejaVuSans-48"/>
       <use x="127.246094" xlink:href="#DejaVuSans-48"/>
       <use x="190.869141" xlink:href="#DejaVuSans-48"/>
       <use x="254.492188" xlink:href="#DejaVuSans-48"/>
      </g>
     </g>
    </g>
    <g id="ytick_7">
     <g id="line2d_21">
      <g>
       <use style="stroke:#000000;stroke-width:0.8;" x="116.64" xlink:href="#m53d7c6d838" y="96.298028"/>
      </g>
     </g>
     <g id="text_21">
      <!-- 12000 -->
      <g transform="translate(77.8275 100.097246)scale(0.1 -0.1)">
       <use xlink:href="#DejaVuSans-49"/>
       <use x="63.623047" xlink:href="#DejaVuSans-50"/>
       <use x="127.246094" xlink:href="#DejaVuSans-48"/>
       <use x="190.869141" xlink:href="#DejaVuSans-48"/>
       <use x="254.492188" xlink:href="#DejaVuSans-48"/>
      </g>
     </g>
    </g>
   </g>
   <g id="line2d_22">
    <path clip-path="url(#p037b25393f)" d="M 149.511273 412.372962 
L 154.989818 412.372962 
L 160.468364 412.320269 
L 165.946909 412.241231 
L 171.425455 412.135846 
L 176.904 411.977769 
L 182.382545 411.951423 
L 187.861091 411.635269 
L 193.339636 411.635269 
L 198.818182 411.371807 
L 204.296727 410.054499 
L 209.775273 409.975461 
L 215.253818 408.737191 
L 220.732364 407.472575 
L 226.210909 405.78642 
L 231.689455 404.679882 
L 237.168 402.097957 
L 242.646545 400.306418 
L 248.125091 394.2468 
L 253.603636 390.61103 
L 259.082182 386.395643 
L 264.560727 383.128719 
L 270.039273 380.072564 
L 275.517818 376.067947 
L 280.996364 369.296983 
L 286.474909 362.236211 
L 291.953455 352.936015 
L 297.432 343.714857 
L 302.910545 338.946201 
L 308.389091 334.651777 
L 313.867636 327.301197 
L 319.346182 322.664272 
L 324.824727 313.732922 
L 330.303273 307.963112 
L 335.781818 298.241377 
L 341.260364 295.896569 
L 346.738909 290.653682 
L 352.217455 287.123296 
L 357.696 281.248101 
L 363.174545 276.611177 
L 368.653091 273.686752 
L 374.131636 273.054444 
L 379.610182 270.47252 
L 385.088727 270.261751 
L 390.567273 272.60656 
L 396.045818 274.635214 
L 401.524364 273.028098 
L 407.002909 275.399253 
L 412.481455 275.504638 
L 417.96 273.818483 
L 423.438545 276.848292 
L 428.917091 278.639831 
L 434.395636 282.433679 
L 439.874182 285.331757 
L 445.352727 288.941181 
L 450.831273 289.125605 
L 456.309818 290.232144 
L 461.788364 296.634261 
L 467.266909 298.399454 
L 472.745455 300.638878 
L 478.224 303.589649 
L 483.702545 303.774072 
L 489.181091 305.77638 
L 494.659636 308.490035 
L 500.138182 313.390422 
L 505.616727 316.736385 
L 511.095273 320.056002 
L 516.573818 323.138503 
L 522.052364 323.112157 
L 527.530909 323.612734 
L 533.009455 323.691772 
L 538.488 328.592159 
L 543.966545 332.122545 
L 549.445091 335.205046 
L 554.923636 338.234855 
L 560.402182 340.526971 
L 565.880727 340.342548 
L 571.359273 340.922164 
L 576.837818 342.687357 
L 582.316364 343.451396 
L 587.794909 344.294473 
L 593.273455 346.006973 
L 598.752 347.218897 
L 604.230545 345.743512 
L 609.709091 344.953127 
L 615.187636 346.507551 
L 620.666182 347.561397 
L 626.144727 349.247552 
L 631.623273 350.248706 
L 637.101818 349.827167 
L 642.580364 350.143321 
L 648.058909 349.484667 
L 653.537455 350.828322 
L 659.016 350.406783 
L 664.494545 350.169667 
L 669.973091 350.301398 
L 675.451636 351.302553 
L 680.930182 350.406783 
L 686.408727 348.957744 
L 691.887273 349.87986 
L 697.365818 350.01159 
L 702.844364 349.66909 
L 708.322909 350.248706 
L 713.801455 349.379283 
L 719.28 348.061974 
L 724.758545 347.40332 
L 730.237091 348.220051 
" style="fill:none;stroke:#1f77b4;stroke-linecap:square;stroke-width:1.5;"/>
   </g>
   <g id="line2d_23">
    <path clip-path="url(#p037b25393f)" d="M 149.511273 412.452 
L 154.989818 412.452 
L 160.468364 412.452 
L 165.946909 412.452 
L 171.425455 412.452 
L 176.904 412.452 
L 182.382545 412.452 
L 187.861091 412.452 
L 193.339636 412.452 
L 198.818182 412.452 
L 204.296727 412.452 
L 209.775273 412.452 
L 215.253818 412.452 
L 220.732364 412.452 
L 226.210909 412.452 
L 231.689455 412.372962 
L 237.168 412.372962 
L 242.646545 412.372962 
L 248.125091 412.372962 
L 253.603636 412.346615 
L 259.082182 412.293923 
L 264.560727 412.267577 
L 270.039273 412.267577 
L 275.517818 412.1095 
L 280.996364 412.030461 
L 286.474909 411.951423 
L 291.953455 411.925077 
L 297.432 411.872384 
L 302.910545 411.740654 
L 308.389091 411.187384 
L 313.867636 410.449692 
L 319.346182 409.817384 
L 324.824727 409.527576 
L 330.303273 409.158729 
L 335.781818 408.842575 
L 341.260364 408.157575 
L 346.738909 407.209113 
L 352.217455 405.601997 
L 357.696 403.705073 
L 363.174545 401.571034 
L 368.653091 400.201034 
L 374.131636 398.225071 
L 379.610182 396.591609 
L 385.088727 395.010839 
L 390.567273 391.29603 
L 396.045818 386.501028 
L 401.524364 382.391026 
L 407.002909 376.963717 
L 412.481455 375.356601 
L 417.96 373.354292 
L 423.438545 366.267174 
L 428.917091 360.971595 
L 434.395636 354.569477 
L 439.874182 350.22236 
L 445.352727 344.347165 
L 450.831273 342.081395 
L 456.309818 339.604856 
L 461.788364 332.122545 
L 467.266909 328.802928 
L 472.745455 324.587542 
L 478.224 318.923117 
L 483.702545 317.289654 
L 489.181091 314.813115 
L 494.659636 311.41446 
L 500.138182 305.512919 
L 505.616727 300.138301 
L 511.095273 294.763684 
L 516.573818 290.179451 
L 522.052364 288.993874 
L 527.530909 288.019066 
L 533.009455 287.202335 
L 538.488 280.905601 
L 543.966545 276.189638 
L 549.445091 271.842521 
L 554.923636 266.652326 
L 560.402182 262.911171 
L 565.880727 261.804632 
L 571.359273 260.698093 
L 576.837818 256.008476 
L 582.316364 253.637321 
L 587.794909 250.844628 
L 593.273455 248.262704 
L 598.752 245.496356 
L 604.230545 244.943087 
L 609.709091 244.020971 
L 615.187636 241.228278 
L 620.666182 238.909815 
L 626.144727 236.275199 
L 631.623273 233.851352 
L 637.101818 232.797505 
L 642.580364 231.585582 
L 648.058909 231.243082 
L 653.537455 229.003658 
L 659.016 227.791734 
L 664.494545 226.079233 
L 669.973091 224.472117 
L 675.451636 222.548847 
L 680.930182 222.443463 
L 686.408727 222.285386 
L 691.887273 219.545385 
L 697.365818 217.990961 
L 702.844364 216.410191 
L 708.322909 215.013844 
L 713.801455 213.696536 
L 719.28 213.617498 
L 724.758545 213.406728 
L 730.237091 211.536151 
" style="fill:none;stroke:#ff7f0e;stroke-linecap:square;stroke-width:1.5;"/>
   </g>
   <g id="line2d_24">
    <path clip-path="url(#p037b25393f)" d="M 149.511273 412.372962 
L 154.989818 412.371395 
L 160.468364 412.3698 
L 165.946909 412.368177 
L 171.425455 412.366525 
L 176.904 412.364844 
L 182.382545 412.363134 
L 187.861091 412.361393 
L 193.339636 412.359623 
L 198.818182 412.357822 
L 204.296727 412.35599 
L 209.775273 412.354127 
L 215.253818 412.352232 
L 220.732364 412.350305 
L 226.210909 412.348346 
L 231.689455 412.346354 
L 237.168 412.344329 
L 242.646545 412.342271 
L 248.125091 412.340179 
L 253.603636 412.338054 
L 259.082182 412.335893 
L 264.560727 412.333699 
L 270.039273 412.331469 
L 275.517818 412.329205 
L 280.996364 412.326904 
L 286.474909 412.324569 
L 291.953455 412.322197 
L 297.432 412.319789 
L 302.910545 412.317344 
L 308.389091 412.314863 
L 313.867636 412.312346 
L 319.346182 412.309791 
L 324.824727 412.307199 
L 330.303273 412.304569 
L 335.781818 412.301902 
L 341.260364 412.299198 
L 346.738909 412.296455 
L 352.217455 412.293675 
L 357.696 412.290857 
L 363.174545 412.288002 
L 368.653091 412.285108 
L 374.131636 412.282176 
L 379.610182 412.279207 
L 385.088727 412.276199 
L 390.567273 412.273154 
L 396.045818 412.270071 
L 401.524364 412.26695 
L 407.002909 412.263793 
L 412.481455 412.260598 
L 417.96 412.257366 
L 423.438545 412.254097 
L 428.917091 412.250792 
L 434.395636 412.24745 
L 439.874182 412.244073 
L 445.352727 412.240661 
L 450.831273 412.237213 
L 456.309818 412.233731 
L 461.788364 412.230215 
L 467.266909 412.226666 
L 472.745455 412.223083 
L 478.224 412.219469 
L 483.702545 412.215822 
L 489.181091 412.212145 
L 494.659636 412.208438 
L 500.138182 412.204701 
L 505.616727 412.200935 
L 511.095273 412.197142 
L 516.573818 412.193322 
L 522.052364 412.189477 
L 527.530909 412.185606 
L 533.009455 412.181712 
L 538.488 412.177795 
L 543.966545 412.173857 
L 549.445091 412.169899 
L 554.923636 412.165922 
L 560.402182 412.161927 
L 565.880727 412.157915 
L 571.359273 412.153889 
L 576.837818 412.14985 
L 582.316364 412.145798 
L 587.794909 412.141737 
L 593.273455 412.137666 
L 598.752 412.133589 
L 604.230545 412.129506 
L 609.709091 412.12542 
L 615.187636 412.121332 
L 620.666182 412.117244 
L 626.144727 412.113158 
L 631.623273 412.109076 
L 637.101818 412.104999 
L 642.580364 412.100931 
L 648.058909 412.096873 
L 653.537455 412.092827 
L 659.016 412.088796 
L 664.494545 412.08478 
L 669.973091 412.080784 
L 675.451636 412.076809 
L 680.930182 412.072857 
L 686.408727 412.06893 
L 691.887273 412.065032 
L 697.365818 412.061164 
L 702.844364 412.057328 
L 708.322909 412.053528 
L 713.801455 412.049766 
L 719.28 412.046043 
L 724.758545 412.042363 
L 730.237091 412.038728 
L 735.715636 412.035141 
L 741.194182 412.031604 
L 746.672727 412.028119 
L 752.151273 412.024689 
L 757.629818 412.021317 
L 763.108364 412.018004 
L 768.586909 412.014754 
L 774.065455 412.011569 
L 779.544 412.008451 
L 785.022545 412.005402 
L 790.501091 412.002426 
L 795.979636 411.999524 
L 801.458182 411.996698 
L 806.936727 411.993952 
" style="fill:none;stroke:#2ca02c;stroke-linecap:square;stroke-width:1.5;"/>
   </g>
   <g id="line2d_25">
    <path clip-path="url(#p037b25393f)" d="M 149.511273 412.452 
L 154.989818 411.543388 
L 160.468364 410.616781 
L 165.946909 409.67186 
L 171.425455 408.7083 
L 176.904 407.72577 
L 182.382545 406.723939 
L 187.861091 405.702467 
L 193.339636 404.661015 
L 198.818182 403.599235 
L 204.296727 402.516778 
L 209.775273 401.41329 
L 215.253818 400.288412 
L 220.732364 399.141784 
L 226.210909 397.973037 
L 231.689455 396.781804 
L 237.168 395.567709 
L 242.646545 394.330376 
L 248.125091 393.069422 
L 253.603636 391.784464 
L 259.082182 390.475112 
L 264.560727 389.140975 
L 270.039273 387.781657 
L 275.517818 386.39676 
L 280.996364 384.985881 
L 286.474909 383.548617 
L 291.953455 382.084558 
L 297.432 380.593295 
L 302.910545 379.074415 
L 308.389091 377.527501 
L 313.867636 375.952135 
L 319.346182 374.347897 
L 324.824727 372.714364 
L 330.303273 371.051112 
L 335.781818 369.357716 
L 341.260364 367.633746 
L 346.738909 365.878776 
L 352.217455 364.092374 
L 357.696 362.27411 
L 363.174545 360.423553 
L 368.653091 358.540271 
L 374.131636 356.623833 
L 379.610182 354.673806 
L 385.088727 352.68976 
L 390.567273 350.671263 
L 396.045818 348.617887 
L 401.524364 346.529204 
L 407.002909 344.404786 
L 412.481455 342.24421 
L 417.96 340.047054 
L 423.438545 337.812896 
L 428.917091 335.541322 
L 434.395636 333.231918 
L 439.874182 330.884275 
L 445.352727 328.497987 
L 450.831273 326.072654 
L 456.309818 323.607881 
L 461.788364 321.103277 
L 467.266909 318.558458 
L 472.745455 315.973046 
L 478.224 313.34667 
L 483.702545 310.678966 
L 489.181091 307.969578 
L 494.659636 305.218158 
L 500.138182 302.424366 
L 505.616727 299.587874 
L 511.095273 296.70836 
L 516.573818 293.785515 
L 522.052364 290.819039 
L 527.530909 287.808644 
L 533.009455 284.754055 
L 538.488 281.655008 
L 543.966545 278.511252 
L 549.445091 275.322551 
L 554.923636 272.08868 
L 560.402182 268.809433 
L 565.880727 265.484616 
L 571.359273 262.114052 
L 576.837818 258.697579 
L 582.316364 255.235055 
L 587.794909 251.726352 
L 593.273455 248.171363 
L 598.752 244.569997 
L 604.230545 240.922184 
L 609.709091 237.227873 
L 615.187636 233.487035 
L 620.666182 229.69966 
L 626.144727 225.865758 
L 631.623273 221.985365 
L 637.101818 218.058536 
L 642.580364 214.085351 
L 648.058909 210.065912 
L 653.537455 206.000345 
L 659.016 201.888801 
L 664.494545 197.731456 
L 669.973091 193.528509 
L 675.451636 189.280188 
L 680.930182 184.986745 
L 686.408727 180.648457 
L 691.887273 176.265631 
L 697.365818 171.838598 
L 702.844364 167.367717 
L 708.322909 162.853376 
L 713.801455 158.295988 
L 719.28 153.695995 
L 724.758545 149.053869 
L 730.237091 144.370108 
L 735.715636 139.645238 
L 741.194182 134.879814 
L 746.672727 130.07442 
L 752.151273 125.229668 
L 757.629818 120.346197 
L 763.108364 115.424675 
L 768.586909 110.465799 
L 774.065455 105.470292 
L 779.544 100.438906 
L 785.022545 95.37242 
L 790.501091 90.271641 
L 795.979636 85.1374 
L 801.458182 79.970558 
L 806.936727 74.772 
" style="fill:none;stroke:#d62728;stroke-linecap:square;stroke-width:1.5;"/>
   </g>
   <g id="patch_3">
    <path d="M 116.64 429.336 
L 116.64 57.888 
" style="fill:none;stroke:#000000;stroke-linecap:square;stroke-linejoin:miter;stroke-width:0.8;"/>
   </g>
   <g id="patch_4">
    <path d="M 839.808 429.336 
L 839.808 57.888 
" style="fill:none;stroke:#000000;stroke-linecap:square;stroke-linejoin:miter;stroke-width:0.8;"/>
   </g>
   <g id="patch_5">
    <path d="M 116.64 429.336 
L 839.808 429.336 
" style="fill:none;stroke:#000000;stroke-linecap:square;stroke-linejoin:miter;stroke-width:0.8;"/>
   </g>
   <g id="patch_6">
    <path d="M 116.64 57.888 
L 839.808 57.888 
" style="fill:none;stroke:#000000;stroke-linecap:square;stroke-linejoin:miter;stroke-width:0.8;"/>
   </g>
   <g id="text_22">
    <!-- https://github.com/PavelDusek/COVID-19 -->
    <defs>
     <path d="M 54.890625 33.015625 
L 54.890625 0 
L 45.90625 0 
L 45.90625 32.71875 
Q 45.90625 40.484375 42.875 44.328125 
Q 39.84375 48.1875 33.796875 48.1875 
Q 26.515625 48.1875 22.3125 43.546875 
Q 18.109375 38.921875 18.109375 30.90625 
L 18.109375 0 
L 9.078125 0 
L 9.078125 75.984375 
L 18.109375 75.984375 
L 18.109375 46.1875 
Q 21.34375 51.125 25.703125 53.5625 
Q 30.078125 56 35.796875 56 
Q 45.21875 56 50.046875 50.171875 
Q 54.890625 44.34375 54.890625 33.015625 
z
" id="DejaVuSans-104"/>
     <path d="M 18.3125 70.21875 
L 18.3125 54.6875 
L 36.8125 54.6875 
L 36.8125 47.703125 
L 18.3125 47.703125 
L 18.3125 18.015625 
Q 18.3125 11.328125 20.140625 9.421875 
Q 21.96875 7.515625 27.59375 7.515625 
L 36.8125 7.515625 
L 36.8125 0 
L 27.59375 0 
Q 17.1875 0 13.234375 3.875 
Q 9.28125 7.765625 9.28125 18.015625 
L 9.28125 47.703125 
L 2.6875 47.703125 
L 2.6875 54.6875 
L 9.28125 54.6875 
L 9.28125 70.21875 
z
" id="DejaVuSans-116"/>
     <path d="M 18.109375 8.203125 
L 18.109375 -20.796875 
L 9.078125 -20.796875 
L 9.078125 54.6875 
L 18.109375 54.6875 
L 18.109375 46.390625 
Q 20.953125 51.265625 25.265625 53.625 
Q 29.59375 56 35.59375 56 
Q 45.5625 56 51.78125 48.09375 
Q 58.015625 40.1875 58.015625 27.296875 
Q 58.015625 14.40625 51.78125 6.484375 
Q 45.5625 -1.421875 35.59375 -1.421875 
Q 29.59375 -1.421875 25.265625 0.953125 
Q 20.953125 3.328125 18.109375 8.203125 
z
M 48.6875 27.296875 
Q 48.6875 37.203125 44.609375 42.84375 
Q 40.53125 48.484375 33.40625 48.484375 
Q 26.265625 48.484375 22.1875 42.84375 
Q 18.109375 37.203125 18.109375 27.296875 
Q 18.109375 17.390625 22.1875 11.75 
Q 26.265625 6.109375 33.40625 6.109375 
Q 40.53125 6.109375 44.609375 11.75 
Q 48.6875 17.390625 48.6875 27.296875 
z
" id="DejaVuSans-112"/>
     <path d="M 44.28125 53.078125 
L 44.28125 44.578125 
Q 40.484375 46.53125 36.375 47.5 
Q 32.28125 48.484375 27.875 48.484375 
Q 21.1875 48.484375 17.84375 46.4375 
Q 14.5 44.390625 14.5 40.28125 
Q 14.5 37.15625 16.890625 35.375 
Q 19.28125 33.59375 26.515625 31.984375 
L 29.59375 31.296875 
Q 39.15625 29.25 43.1875 25.515625 
Q 47.21875 21.78125 47.21875 15.09375 
Q 47.21875 7.46875 41.1875 3.015625 
Q 35.15625 -1.421875 24.609375 -1.421875 
Q 20.21875 -1.421875 15.453125 -0.5625 
Q 10.6875 0.296875 5.421875 2 
L 5.421875 11.28125 
Q 10.40625 8.6875 15.234375 7.390625 
Q 20.0625 6.109375 24.8125 6.109375 
Q 31.15625 6.109375 34.5625 8.28125 
Q 37.984375 10.453125 37.984375 14.40625 
Q 37.984375 18.0625 35.515625 20.015625 
Q 33.0625 21.96875 24.703125 23.78125 
L 21.578125 24.515625 
Q 13.234375 26.265625 9.515625 29.90625 
Q 5.8125 33.546875 5.8125 39.890625 
Q 5.8125 47.609375 11.28125 51.796875 
Q 16.75 56 26.8125 56 
Q 31.78125 56 36.171875 55.265625 
Q 40.578125 54.546875 44.28125 53.078125 
z
" id="DejaVuSans-115"/>
     <path d="M 11.71875 12.40625 
L 22.015625 12.40625 
L 22.015625 0 
L 11.71875 0 
z
M 11.71875 51.703125 
L 22.015625 51.703125 
L 22.015625 39.3125 
L 11.71875 39.3125 
z
" id="DejaVuSans-58"/>
     <path d="M 25.390625 72.90625 
L 33.6875 72.90625 
L 8.296875 -9.28125 
L 0 -9.28125 
z
" id="DejaVuSans-47"/>
     <path d="M 45.40625 27.984375 
Q 45.40625 37.75 41.375 43.109375 
Q 37.359375 48.484375 30.078125 48.484375 
Q 22.859375 48.484375 18.828125 43.109375 
Q 14.796875 37.75 14.796875 27.984375 
Q 14.796875 18.265625 18.828125 12.890625 
Q 22.859375 7.515625 30.078125 7.515625 
Q 37.359375 7.515625 41.375 12.890625 
Q 45.40625 18.265625 45.40625 27.984375 
z
M 54.390625 6.78125 
Q 54.390625 -7.171875 48.1875 -13.984375 
Q 42 -20.796875 29.203125 -20.796875 
Q 24.46875 -20.796875 20.265625 -20.09375 
Q 16.0625 -19.390625 12.109375 -17.921875 
L 12.109375 -9.1875 
Q 16.0625 -11.328125 19.921875 -12.34375 
Q 23.78125 -13.375 27.78125 -13.375 
Q 36.625 -13.375 41.015625 -8.765625 
Q 45.40625 -4.15625 45.40625 5.171875 
L 45.40625 9.625 
Q 42.625 4.78125 38.28125 2.390625 
Q 33.9375 0 27.875 0 
Q 17.828125 0 11.671875 7.65625 
Q 5.515625 15.328125 5.515625 27.984375 
Q 5.515625 40.671875 11.671875 48.328125 
Q 17.828125 56 27.875 56 
Q 33.9375 56 38.28125 53.609375 
Q 42.625 51.21875 45.40625 46.390625 
L 45.40625 54.6875 
L 54.390625 54.6875 
z
" id="DejaVuSans-103"/>
     <path d="M 9.421875 54.6875 
L 18.40625 54.6875 
L 18.40625 0 
L 9.421875 0 
z
M 9.421875 75.984375 
L 18.40625 75.984375 
L 18.40625 64.59375 
L 9.421875 64.59375 
z
" id="DejaVuSans-105"/>
     <path d="M 8.5 21.578125 
L 8.5 54.6875 
L 17.484375 54.6875 
L 17.484375 21.921875 
Q 17.484375 14.15625 20.5 10.265625 
Q 23.53125 6.390625 29.59375 6.390625 
Q 36.859375 6.390625 41.078125 11.03125 
Q 45.3125 15.671875 45.3125 23.6875 
L 45.3125 54.6875 
L 54.296875 54.6875 
L 54.296875 0 
L 45.3125 0 
L 45.3125 8.40625 
Q 42.046875 3.421875 37.71875 1 
Q 33.40625 -1.421875 27.6875 -1.421875 
Q 18.265625 -1.421875 13.375 4.4375 
Q 8.5 10.296875 8.5 21.578125 
z
M 31.109375 56 
z
" id="DejaVuSans-117"/>
     <path d="M 48.6875 27.296875 
Q 48.6875 37.203125 44.609375 42.84375 
Q 40.53125 48.484375 33.40625 48.484375 
Q 26.265625 48.484375 22.1875 42.84375 
Q 18.109375 37.203125 18.109375 27.296875 
Q 18.109375 17.390625 22.1875 11.75 
Q 26.265625 6.109375 33.40625 6.109375 
Q 40.53125 6.109375 44.609375 11.75 
Q 48.6875 17.390625 48.6875 27.296875 
z
M 18.109375 46.390625 
Q 20.953125 51.265625 25.265625 53.625 
Q 29.59375 56 35.59375 56 
Q 45.5625 56 51.78125 48.09375 
Q 58.015625 40.1875 58.015625 27.296875 
Q 58.015625 14.40625 51.78125 6.484375 
Q 45.5625 -1.421875 35.59375 -1.421875 
Q 29.59375 -1.421875 25.265625 0.953125 
Q 20.953125 3.328125 18.109375 8.203125 
L 18.109375 0 
L 9.078125 0 
L 9.078125 75.984375 
L 18.109375 75.984375 
z
" id="DejaVuSans-98"/>
     <path d="M 10.6875 12.40625 
L 21 12.40625 
L 21 0 
L 10.6875 0 
z
" id="DejaVuSans-46"/>
     <path d="M 48.78125 52.59375 
L 48.78125 44.1875 
Q 44.96875 46.296875 41.140625 47.34375 
Q 37.3125 48.390625 33.40625 48.390625 
Q 24.65625 48.390625 19.8125 42.84375 
Q 14.984375 37.3125 14.984375 27.296875 
Q 14.984375 17.28125 19.8125 11.734375 
Q 24.65625 6.203125 33.40625 6.203125 
Q 37.3125 6.203125 41.140625 7.25 
Q 44.96875 8.296875 48.78125 10.40625 
L 48.78125 2.09375 
Q 45.015625 0.34375 40.984375 -0.53125 
Q 36.96875 -1.421875 32.421875 -1.421875 
Q 20.0625 -1.421875 12.78125 6.34375 
Q 5.515625 14.109375 5.515625 27.296875 
Q 5.515625 40.671875 12.859375 48.328125 
Q 20.21875 56 33.015625 56 
Q 37.15625 56 41.109375 55.140625 
Q 45.0625 54.296875 48.78125 52.59375 
z
" id="DejaVuSans-99"/>
     <path d="M 30.609375 48.390625 
Q 23.390625 48.390625 19.1875 42.75 
Q 14.984375 37.109375 14.984375 27.296875 
Q 14.984375 17.484375 19.15625 11.84375 
Q 23.34375 6.203125 30.609375 6.203125 
Q 37.796875 6.203125 41.984375 11.859375 
Q 46.1875 17.53125 46.1875 27.296875 
Q 46.1875 37.015625 41.984375 42.703125 
Q 37.796875 48.390625 30.609375 48.390625 
z
M 30.609375 56 
Q 42.328125 56 49.015625 48.375 
Q 55.71875 40.765625 55.71875 27.296875 
Q 55.71875 13.875 49.015625 6.21875 
Q 42.328125 -1.421875 30.609375 -1.421875 
Q 18.84375 -1.421875 12.171875 6.21875 
Q 5.515625 13.875 5.515625 27.296875 
Q 5.515625 40.765625 12.171875 48.375 
Q 18.84375 56 30.609375 56 
z
" id="DejaVuSans-111"/>
     <path d="M 52 44.1875 
Q 55.375 50.25 60.0625 53.125 
Q 64.75 56 71.09375 56 
Q 79.640625 56 84.28125 50.015625 
Q 88.921875 44.046875 88.921875 33.015625 
L 88.921875 0 
L 79.890625 0 
L 79.890625 32.71875 
Q 79.890625 40.578125 77.09375 44.375 
Q 74.3125 48.1875 68.609375 48.1875 
Q 61.625 48.1875 57.5625 43.546875 
Q 53.515625 38.921875 53.515625 30.90625 
L 53.515625 0 
L 44.484375 0 
L 44.484375 32.71875 
Q 44.484375 40.625 41.703125 44.40625 
Q 38.921875 48.1875 33.109375 48.1875 
Q 26.21875 48.1875 22.15625 43.53125 
Q 18.109375 38.875 18.109375 30.90625 
L 18.109375 0 
L 9.078125 0 
L 9.078125 54.6875 
L 18.109375 54.6875 
L 18.109375 46.1875 
Q 21.1875 51.21875 25.484375 53.609375 
Q 29.78125 56 35.6875 56 
Q 41.65625 56 45.828125 52.96875 
Q 50 49.953125 52 44.1875 
z
" id="DejaVuSans-109"/>
     <path d="M 19.671875 64.796875 
L 19.671875 37.40625 
L 32.078125 37.40625 
Q 38.96875 37.40625 42.71875 40.96875 
Q 46.484375 44.53125 46.484375 51.125 
Q 46.484375 57.671875 42.71875 61.234375 
Q 38.96875 64.796875 32.078125 64.796875 
z
M 9.8125 72.90625 
L 32.078125 72.90625 
Q 44.34375 72.90625 50.609375 67.359375 
Q 56.890625 61.8125 56.890625 51.125 
Q 56.890625 40.328125 50.609375 34.8125 
Q 44.34375 29.296875 32.078125 29.296875 
L 19.671875 29.296875 
L 19.671875 0 
L 9.8125 0 
z
" id="DejaVuSans-80"/>
     <path d="M 34.28125 27.484375 
Q 23.390625 27.484375 19.1875 25 
Q 14.984375 22.515625 14.984375 16.5 
Q 14.984375 11.71875 18.140625 8.90625 
Q 21.296875 6.109375 26.703125 6.109375 
Q 34.1875 6.109375 38.703125 11.40625 
Q 43.21875 16.703125 43.21875 25.484375 
L 43.21875 27.484375 
z
M 52.203125 31.203125 
L 52.203125 0 
L 43.21875 0 
L 43.21875 8.296875 
Q 40.140625 3.328125 35.546875 0.953125 
Q 30.953125 -1.421875 24.3125 -1.421875 
Q 15.921875 -1.421875 10.953125 3.296875 
Q 6 8.015625 6 15.921875 
Q 6 25.140625 12.171875 29.828125 
Q 18.359375 34.515625 30.609375 34.515625 
L 43.21875 34.515625 
L 43.21875 35.40625 
Q 43.21875 41.609375 39.140625 45 
Q 35.0625 48.390625 27.6875 48.390625 
Q 23 48.390625 18.546875 47.265625 
Q 14.109375 46.140625 10.015625 43.890625 
L 10.015625 52.203125 
Q 14.9375 54.109375 19.578125 55.046875 
Q 24.21875 56 28.609375 56 
Q 40.484375 56 46.34375 49.84375 
Q 52.203125 43.703125 52.203125 31.203125 
z
" id="DejaVuSans-97"/>
     <path d="M 2.984375 54.6875 
L 12.5 54.6875 
L 29.59375 8.796875 
L 46.6875 54.6875 
L 56.203125 54.6875 
L 35.6875 0 
L 23.484375 0 
z
" id="DejaVuSans-118"/>
     <path d="M 56.203125 29.59375 
L 56.203125 25.203125 
L 14.890625 25.203125 
Q 15.484375 15.921875 20.484375 11.0625 
Q 25.484375 6.203125 34.421875 6.203125 
Q 39.59375 6.203125 44.453125 7.46875 
Q 49.3125 8.734375 54.109375 11.28125 
L 54.109375 2.78125 
Q 49.265625 0.734375 44.1875 -0.34375 
Q 39.109375 -1.421875 33.890625 -1.421875 
Q 20.796875 -1.421875 13.15625 6.1875 
Q 5.515625 13.8125 5.515625 26.8125 
Q 5.515625 40.234375 12.765625 48.109375 
Q 20.015625 56 32.328125 56 
Q 43.359375 56 49.78125 48.890625 
Q 56.203125 41.796875 56.203125 29.59375 
z
M 47.21875 32.234375 
Q 47.125 39.59375 43.09375 43.984375 
Q 39.0625 48.390625 32.421875 48.390625 
Q 24.90625 48.390625 20.390625 44.140625 
Q 15.875 39.890625 15.1875 32.171875 
z
" id="DejaVuSans-101"/>
     <path d="M 9.421875 75.984375 
L 18.40625 75.984375 
L 18.40625 0 
L 9.421875 0 
z
" id="DejaVuSans-108"/>
     <path d="M 19.671875 64.796875 
L 19.671875 8.109375 
L 31.59375 8.109375 
Q 46.6875 8.109375 53.6875 14.9375 
Q 60.6875 21.78125 60.6875 36.53125 
Q 60.6875 51.171875 53.6875 57.984375 
Q 46.6875 64.796875 31.59375 64.796875 
z
M 9.8125 72.90625 
L 30.078125 72.90625 
Q 51.265625 72.90625 61.171875 64.09375 
Q 71.09375 55.28125 71.09375 36.53125 
Q 71.09375 17.671875 61.125 8.828125 
Q 51.171875 0 30.078125 0 
L 9.8125 0 
z
" id="DejaVuSans-68"/>
     <path d="M 9.078125 75.984375 
L 18.109375 75.984375 
L 18.109375 31.109375 
L 44.921875 54.6875 
L 56.390625 54.6875 
L 27.390625 29.109375 
L 57.625 0 
L 45.90625 0 
L 18.109375 26.703125 
L 18.109375 0 
L 9.078125 0 
z
" id="DejaVuSans-107"/>
     <path d="M 64.40625 67.28125 
L 64.40625 56.890625 
Q 59.421875 61.53125 53.78125 63.8125 
Q 48.140625 66.109375 41.796875 66.109375 
Q 29.296875 66.109375 22.65625 58.46875 
Q 16.015625 50.828125 16.015625 36.375 
Q 16.015625 21.96875 22.65625 14.328125 
Q 29.296875 6.6875 41.796875 6.6875 
Q 48.140625 6.6875 53.78125 8.984375 
Q 59.421875 11.28125 64.40625 15.921875 
L 64.40625 5.609375 
Q 59.234375 2.09375 53.4375 0.328125 
Q 47.65625 -1.421875 41.21875 -1.421875 
Q 24.65625 -1.421875 15.125 8.703125 
Q 5.609375 18.84375 5.609375 36.375 
Q 5.609375 53.953125 15.125 64.078125 
Q 24.65625 74.21875 41.21875 74.21875 
Q 47.75 74.21875 53.53125 72.484375 
Q 59.328125 70.75 64.40625 67.28125 
z
" id="DejaVuSans-67"/>
     <path d="M 39.40625 66.21875 
Q 28.65625 66.21875 22.328125 58.203125 
Q 16.015625 50.203125 16.015625 36.375 
Q 16.015625 22.609375 22.328125 14.59375 
Q 28.65625 6.59375 39.40625 6.59375 
Q 50.140625 6.59375 56.421875 14.59375 
Q 62.703125 22.609375 62.703125 36.375 
Q 62.703125 50.203125 56.421875 58.203125 
Q 50.140625 66.21875 39.40625 66.21875 
z
M 39.40625 74.21875 
Q 54.734375 74.21875 63.90625 63.9375 
Q 73.09375 53.65625 73.09375 36.375 
Q 73.09375 19.140625 63.90625 8.859375 
Q 54.734375 -1.421875 39.40625 -1.421875 
Q 24.03125 -1.421875 14.8125 8.828125 
Q 5.609375 19.09375 5.609375 36.375 
Q 5.609375 53.65625 14.8125 63.9375 
Q 24.03125 74.21875 39.40625 74.21875 
z
" id="DejaVuSans-79"/>
     <path d="M 28.609375 0 
L 0.78125 72.90625 
L 11.078125 72.90625 
L 34.1875 11.53125 
L 57.328125 72.90625 
L 67.578125 72.90625 
L 39.796875 0 
z
" id="DejaVuSans-86"/>
     <path d="M 9.8125 72.90625 
L 19.671875 72.90625 
L 19.671875 0 
L 9.8125 0 
z
" id="DejaVuSans-73"/>
    </defs>
    <g transform="translate(354.591188 11.575875)scale(0.12 -0.12)">
     <use xlink:href="#DejaVuSans-104"/>
     <use x="63.378906" xlink:href="#DejaVuSans-116"/>
     <use x="102.587891" xlink:href="#DejaVuSans-116"/>
     <use x="141.796875" xlink:href="#DejaVuSans-112"/>
     <use x="205.273438" xlink:href="#DejaVuSans-115"/>
     <use x="257.373047" xlink:href="#DejaVuSans-58"/>
     <use x="291.064453" xlink:href="#DejaVuSans-47"/>
     <use x="324.755859" xlink:href="#DejaVuSans-47"/>
     <use x="358.447266" xlink:href="#DejaVuSans-103"/>
     <use x="421.923828" xlink:href="#DejaVuSans-105"/>
     <use x="449.707031" xlink:href="#DejaVuSans-116"/>
     <use x="488.916016" xlink:href="#DejaVuSans-104"/>
     <use x="552.294922" xlink:href="#DejaVuSans-117"/>
     <use x="615.673828" xlink:href="#DejaVuSans-98"/>
     <use x="679.150391" xlink:href="#DejaVuSans-46"/>
     <use x="710.9375" xlink:href="#DejaVuSans-99"/>
     <use x="765.917969" xlink:href="#DejaVuSans-111"/>
     <use x="827.099609" xlink:href="#DejaVuSans-109"/>
     <use x="924.511719" xlink:href="#DejaVuSans-47"/>
     <use x="958.203125" xlink:href="#DejaVuSans-80"/>
     <use x="1018.443359" xlink:href="#DejaVuSans-97"/>
     <use x="1079.722656" xlink:href="#DejaVuSans-118"/>
     <use x="1138.902344" xlink:href="#DejaVuSans-101"/>
     <use x="1200.425781" xlink:href="#DejaVuSans-108"/>
     <use x="1228.208984" xlink:href="#DejaVuSans-68"/>
     <use x="1305.210938" xlink:href="#DejaVuSans-117"/>
     <use x="1368.589844" xlink:href="#DejaVuSans-115"/>
     <use x="1420.689453" xlink:href="#DejaVuSans-101"/>
     <use x="1482.212891" xlink:href="#DejaVuSans-107"/>
     <use x="1540.123047" xlink:href="#DejaVuSans-47"/>
     <use x="1573.814453" xlink:href="#DejaVuSans-67"/>
     <use x="1643.638672" xlink:href="#DejaVuSans-79"/>
     <use x="1722.333984" xlink:href="#DejaVuSans-86"/>
     <use x="1790.742188" xlink:href="#DejaVuSans-73"/>
     <use x="1820.234375" xlink:href="#DejaVuSans-68"/>
     <use x="1897.236328" xlink:href="#DejaVuSans-45"/>
     <use x="1933.320312" xlink:href="#DejaVuSans-49"/>
     <use x="1996.943359" xlink:href="#DejaVuSans-57"/>
    </g>
    <!-- SIR model for the Czech Republic -->
    <defs>
     <path d="M 53.515625 70.515625 
L 53.515625 60.890625 
Q 47.90625 63.578125 42.921875 64.890625 
Q 37.9375 66.21875 33.296875 66.21875 
Q 25.25 66.21875 20.875 63.09375 
Q 16.5 59.96875 16.5 54.203125 
Q 16.5 49.359375 19.40625 46.890625 
Q 22.3125 44.4375 30.421875 42.921875 
L 36.375 41.703125 
Q 47.40625 39.59375 52.65625 34.296875 
Q 57.90625 29 57.90625 20.125 
Q 57.90625 9.515625 50.796875 4.046875 
Q 43.703125 -1.421875 29.984375 -1.421875 
Q 24.8125 -1.421875 18.96875 -0.25 
Q 13.140625 0.921875 6.890625 3.21875 
L 6.890625 13.375 
Q 12.890625 10.015625 18.65625 8.296875 
Q 24.421875 6.59375 29.984375 6.59375 
Q 38.421875 6.59375 43.015625 9.90625 
Q 47.609375 13.234375 47.609375 19.390625 
Q 47.609375 24.75 44.3125 27.78125 
Q 41.015625 30.8125 33.5 32.328125 
L 27.484375 33.5 
Q 16.453125 35.6875 11.515625 40.375 
Q 6.59375 45.0625 6.59375 53.421875 
Q 6.59375 63.09375 13.40625 68.65625 
Q 20.21875 74.21875 32.171875 74.21875 
Q 37.3125 74.21875 42.625 73.28125 
Q 47.953125 72.359375 53.515625 70.515625 
z
" id="DejaVuSans-83"/>
     <path d="M 44.390625 34.1875 
Q 47.5625 33.109375 50.5625 29.59375 
Q 53.5625 26.078125 56.59375 19.921875 
L 66.609375 0 
L 56 0 
L 46.6875 18.703125 
Q 43.0625 26.03125 39.671875 28.421875 
Q 36.28125 30.8125 30.421875 30.8125 
L 19.671875 30.8125 
L 19.671875 0 
L 9.8125 0 
L 9.8125 72.90625 
L 32.078125 72.90625 
Q 44.578125 72.90625 50.734375 67.671875 
Q 56.890625 62.453125 56.890625 51.90625 
Q 56.890625 45.015625 53.6875 40.46875 
Q 50.484375 35.9375 44.390625 34.1875 
z
M 19.671875 64.796875 
L 19.671875 38.921875 
L 32.078125 38.921875 
Q 39.203125 38.921875 42.84375 42.21875 
Q 46.484375 45.515625 46.484375 51.90625 
Q 46.484375 58.296875 42.84375 61.546875 
Q 39.203125 64.796875 32.078125 64.796875 
z
" id="DejaVuSans-82"/>
     <path id="DejaVuSans-32"/>
     <path d="M 45.40625 46.390625 
L 45.40625 75.984375 
L 54.390625 75.984375 
L 54.390625 0 
L 45.40625 0 
L 45.40625 8.203125 
Q 42.578125 3.328125 38.25 0.953125 
Q 33.9375 -1.421875 27.875 -1.421875 
Q 17.96875 -1.421875 11.734375 6.484375 
Q 5.515625 14.40625 5.515625 27.296875 
Q 5.515625 40.1875 11.734375 48.09375 
Q 17.96875 56 27.875 56 
Q 33.9375 56 38.25 53.625 
Q 42.578125 51.265625 45.40625 46.390625 
z
M 14.796875 27.296875 
Q 14.796875 17.390625 18.875 11.75 
Q 22.953125 6.109375 30.078125 6.109375 
Q 37.203125 6.109375 41.296875 11.75 
Q 45.40625 17.390625 45.40625 27.296875 
Q 45.40625 37.203125 41.296875 42.84375 
Q 37.203125 48.484375 30.078125 48.484375 
Q 22.953125 48.484375 18.875 42.84375 
Q 14.796875 37.203125 14.796875 27.296875 
z
" id="DejaVuSans-100"/>
     <path d="M 37.109375 75.984375 
L 37.109375 68.5 
L 28.515625 68.5 
Q 23.6875 68.5 21.796875 66.546875 
Q 19.921875 64.59375 19.921875 59.515625 
L 19.921875 54.6875 
L 34.71875 54.6875 
L 34.71875 47.703125 
L 19.921875 47.703125 
L 19.921875 0 
L 10.890625 0 
L 10.890625 47.703125 
L 2.296875 47.703125 
L 2.296875 54.6875 
L 10.890625 54.6875 
L 10.890625 58.5 
Q 10.890625 67.625 15.140625 71.796875 
Q 19.390625 75.984375 28.609375 75.984375 
z
" id="DejaVuSans-102"/>
     <path d="M 41.109375 46.296875 
Q 39.59375 47.171875 37.8125 47.578125 
Q 36.03125 48 33.890625 48 
Q 26.265625 48 22.1875 43.046875 
Q 18.109375 38.09375 18.109375 28.8125 
L 18.109375 0 
L 9.078125 0 
L 9.078125 54.6875 
L 18.109375 54.6875 
L 18.109375 46.1875 
Q 20.953125 51.171875 25.484375 53.578125 
Q 30.03125 56 36.53125 56 
Q 37.453125 56 38.578125 55.875 
Q 39.703125 55.765625 41.0625 55.515625 
z
" id="DejaVuSans-114"/>
     <path d="M 5.515625 54.6875 
L 48.1875 54.6875 
L 48.1875 46.484375 
L 14.40625 7.171875 
L 48.1875 7.171875 
L 48.1875 0 
L 4.296875 0 
L 4.296875 8.203125 
L 38.09375 47.515625 
L 5.515625 47.515625 
z
" id="DejaVuSans-122"/>
    </defs>
    <g transform="translate(378.118688 25.01325)scale(0.12 -0.12)">
     <use xlink:href="#DejaVuSans-83"/>
     <use x="63.476562" xlink:href="#DejaVuSans-73"/>
     <use x="92.96875" xlink:href="#DejaVuSans-82"/>
     <use x="162.451172" xlink:href="#DejaVuSans-32"/>
     <use x="194.238281" xlink:href="#DejaVuSans-109"/>
     <use x="291.650391" xlink:href="#DejaVuSans-111"/>
     <use x="352.832031" xlink:href="#DejaVuSans-100"/>
     <use x="416.308594" xlink:href="#DejaVuSans-101"/>
     <use x="477.832031" xlink:href="#DejaVuSans-108"/>
     <use x="505.615234" xlink:href="#DejaVuSans-32"/>
     <use x="537.402344" xlink:href="#DejaVuSans-102"/>
     <use x="572.607422" xlink:href="#DejaVuSans-111"/>
     <use x="633.789062" xlink:href="#DejaVuSans-114"/>
     <use x="674.902344" xlink:href="#DejaVuSans-32"/>
     <use x="706.689453" xlink:href="#DejaVuSans-116"/>
     <use x="745.898438" xlink:href="#DejaVuSans-104"/>
     <use x="809.277344" xlink:href="#DejaVuSans-101"/>
     <use x="870.800781" xlink:href="#DejaVuSans-32"/>
     <use x="902.587891" xlink:href="#DejaVuSans-67"/>
     <use x="972.412109" xlink:href="#DejaVuSans-122"/>
     <use x="1024.902344" xlink:href="#DejaVuSans-101"/>
     <use x="1086.425781" xlink:href="#DejaVuSans-99"/>
     <use x="1141.40625" xlink:href="#DejaVuSans-104"/>
     <use x="1204.785156" xlink:href="#DejaVuSans-32"/>
     <use x="1236.572266" xlink:href="#DejaVuSans-82"/>
     <use x="1305.992188" xlink:href="#DejaVuSans-101"/>
     <use x="1367.515625" xlink:href="#DejaVuSans-112"/>
     <use x="1430.992188" xlink:href="#DejaVuSans-117"/>
     <use x="1494.371094" xlink:href="#DejaVuSans-98"/>
     <use x="1557.847656" xlink:href="#DejaVuSans-108"/>
     <use x="1585.630859" xlink:href="#DejaVuSans-105"/>
     <use x="1613.414062" xlink:href="#DejaVuSans-99"/>
    </g>
    <!-- parameters estimated based on data from 2020-06-16 -->
    <defs>
     <path d="M 54.890625 33.015625 
L 54.890625 0 
L 45.90625 0 
L 45.90625 32.71875 
Q 45.90625 40.484375 42.875 44.328125 
Q 39.84375 48.1875 33.796875 48.1875 
Q 26.515625 48.1875 22.3125 43.546875 
Q 18.109375 38.921875 18.109375 30.90625 
L 18.109375 0 
L 9.078125 0 
L 9.078125 54.6875 
L 18.109375 54.6875 
L 18.109375 46.1875 
Q 21.34375 51.125 25.703125 53.5625 
Q 30.078125 56 35.796875 56 
Q 45.21875 56 50.046875 50.171875 
Q 54.890625 44.34375 54.890625 33.015625 
z
" id="DejaVuSans-110"/>
    </defs>
    <g transform="translate(313.706813 38.450625)scale(0.12 -0.12)">
     <use xlink:href="#DejaVuSans-112"/>
     <use x="63.476562" xlink:href="#DejaVuSans-97"/>
     <use x="124.755859" xlink:href="#DejaVuSans-114"/>
     <use x="165.869141" xlink:href="#DejaVuSans-97"/>
     <use x="227.148438" xlink:href="#DejaVuSans-109"/>
     <use x="324.560547" xlink:href="#DejaVuSans-101"/>
     <use x="386.083984" xlink:href="#DejaVuSans-116"/>
     <use x="425.292969" xlink:href="#DejaVuSans-101"/>
     <use x="486.816406" xlink:href="#DejaVuSans-114"/>
     <use x="527.929688" xlink:href="#DejaVuSans-115"/>
     <use x="580.029297" xlink:href="#DejaVuSans-32"/>
     <use x="611.816406" xlink:href="#DejaVuSans-101"/>
     <use x="673.339844" xlink:href="#DejaVuSans-115"/>
     <use x="725.439453" xlink:href="#DejaVuSans-116"/>
     <use x="764.648438" xlink:href="#DejaVuSans-105"/>
     <use x="792.431641" xlink:href="#DejaVuSans-109"/>
     <use x="889.84375" xlink:href="#DejaVuSans-97"/>
     <use x="951.123047" xlink:href="#DejaVuSans-116"/>
     <use x="990.332031" xlink:href="#DejaVuSans-101"/>
     <use x="1051.855469" xlink:href="#DejaVuSans-100"/>
     <use x="1115.332031" xlink:href="#DejaVuSans-32"/>
     <use x="1147.119141" xlink:href="#DejaVuSans-98"/>
     <use x="1210.595703" xlink:href="#DejaVuSans-97"/>
     <use x="1271.875" xlink:href="#DejaVuSans-115"/>
     <use x="1323.974609" xlink:href="#DejaVuSans-101"/>
     <use x="1385.498047" xlink:href="#DejaVuSans-100"/>
     <use x="1448.974609" xlink:href="#DejaVuSans-32"/>
     <use x="1480.761719" xlink:href="#DejaVuSans-111"/>
     <use x="1541.943359" xlink:href="#DejaVuSans-110"/>
     <use x="1605.322266" xlink:href="#DejaVuSans-32"/>
     <use x="1637.109375" xlink:href="#DejaVuSans-100"/>
     <use x="1700.585938" xlink:href="#DejaVuSans-97"/>
     <use x="1761.865234" xlink:href="#DejaVuSans-116"/>
     <use x="1801.074219" xlink:href="#DejaVuSans-97"/>
     <use x="1862.353516" xlink:href="#DejaVuSans-32"/>
     <use x="1894.140625" xlink:href="#DejaVuSans-102"/>
     <use x="1929.345703" xlink:href="#DejaVuSans-114"/>
     <use x="1970.427734" xlink:href="#DejaVuSans-111"/>
     <use x="2031.609375" xlink:href="#DejaVuSans-109"/>
     <use x="2129.021484" xlink:href="#DejaVuSans-32"/>
     <use x="2160.808594" xlink:href="#DejaVuSans-50"/>
     <use x="2224.431641" xlink:href="#DejaVuSans-48"/>
     <use x="2288.054688" xlink:href="#DejaVuSans-50"/>
     <use x="2351.677734" xlink:href="#DejaVuSans-48"/>
     <use x="2415.300781" xlink:href="#DejaVuSans-45"/>
     <use x="2451.384766" xlink:href="#DejaVuSans-48"/>
     <use x="2515.007812" xlink:href="#DejaVuSans-54"/>
     <use x="2578.630859" xlink:href="#DejaVuSans-45"/>
     <use x="2614.714844" xlink:href="#DejaVuSans-49"/>
     <use x="2678.337891" xlink:href="#DejaVuSans-54"/>
    </g>
    <!-- beta = 1/0.09, gamma = 1/0.09, R0 = 1.00 -->
    <defs>
     <path d="M 10.59375 45.40625 
L 73.1875 45.40625 
L 73.1875 37.203125 
L 10.59375 37.203125 
z
M 10.59375 25.484375 
L 73.1875 25.484375 
L 73.1875 17.1875 
L 10.59375 17.1875 
z
" id="DejaVuSans-61"/>
     <path d="M 11.71875 12.40625 
L 22.015625 12.40625 
L 22.015625 4 
L 14.015625 -11.625 
L 7.71875 -11.625 
L 11.71875 4 
z
" id="DejaVuSans-44"/>
    </defs>
    <g transform="translate(347.948063 51.888)scale(0.12 -0.12)">
     <use xlink:href="#DejaVuSans-98"/>
     <use x="63.476562" xlink:href="#DejaVuSans-101"/>
     <use x="125" xlink:href="#DejaVuSans-116"/>
     <use x="164.208984" xlink:href="#DejaVuSans-97"/>
     <use x="225.488281" xlink:href="#DejaVuSans-32"/>
     <use x="257.275391" xlink:href="#DejaVuSans-61"/>
     <use x="341.064453" xlink:href="#DejaVuSans-32"/>
     <use x="372.851562" xlink:href="#DejaVuSans-49"/>
     <use x="436.474609" xlink:href="#DejaVuSans-47"/>
     <use x="470.166016" xlink:href="#DejaVuSans-48"/>
     <use x="533.789062" xlink:href="#DejaVuSans-46"/>
     <use x="565.576172" xlink:href="#DejaVuSans-48"/>
     <use x="629.199219" xlink:href="#DejaVuSans-57"/>
     <use x="692.822266" xlink:href="#DejaVuSans-44"/>
     <use x="724.609375" xlink:href="#DejaVuSans-32"/>
     <use x="756.396484" xlink:href="#DejaVuSans-103"/>
     <use x="819.873047" xlink:href="#DejaVuSans-97"/>
     <use x="881.152344" xlink:href="#DejaVuSans-109"/>
     <use x="978.564453" xlink:href="#DejaVuSans-109"/>
     <use x="1075.976562" xlink:href="#DejaVuSans-97"/>
     <use x="1137.255859" xlink:href="#DejaVuSans-32"/>
     <use x="1169.042969" xlink:href="#DejaVuSans-61"/>
     <use x="1252.832031" xlink:href="#DejaVuSans-32"/>
     <use x="1284.619141" xlink:href="#DejaVuSans-49"/>
     <use x="1348.242188" xlink:href="#DejaVuSans-47"/>
     <use x="1381.933594" xlink:href="#DejaVuSans-48"/>
     <use x="1445.556641" xlink:href="#DejaVuSans-46"/>
     <use x="1477.34375" xlink:href="#DejaVuSans-48"/>
     <use x="1540.966797" xlink:href="#DejaVuSans-57"/>
     <use x="1604.589844" xlink:href="#DejaVuSans-44"/>
     <use x="1636.376953" xlink:href="#DejaVuSans-32"/>
     <use x="1668.164062" xlink:href="#DejaVuSans-82"/>
     <use x="1737.646484" xlink:href="#DejaVuSans-48"/>
     <use x="1801.269531" xlink:href="#DejaVuSans-32"/>
     <use x="1833.056641" xlink:href="#DejaVuSans-61"/>
     <use x="1916.845703" xlink:href="#DejaVuSans-32"/>
     <use x="1948.632812" xlink:href="#DejaVuSans-49"/>
     <use x="2012.255859" xlink:href="#DejaVuSans-46"/>
     <use x="2044.042969" xlink:href="#DejaVuSans-48"/>
     <use x="2107.666016" xlink:href="#DejaVuSans-48"/>
    </g>
   </g>
   <g id="legend_1">
    <g id="patch_7">
     <path d="M 123.64 124.6005 
L 374.6275 124.6005 
Q 376.6275 124.6005 376.6275 122.6005 
L 376.6275 64.888 
Q 376.6275 62.888 374.6275 62.888 
L 123.64 62.888 
Q 121.64 62.888 121.64 64.888 
L 121.64 122.6005 
Q 121.64 124.6005 123.64 124.6005 
z
" style="fill:#ffffff;opacity:0.8;stroke:#cccccc;stroke-linejoin:miter;"/>
    </g>
    <g id="line2d_26">
     <path d="M 125.64 70.986438 
L 145.64 70.986438 
" style="fill:none;stroke:#1f77b4;stroke-linecap:square;stroke-width:1.5;"/>
    </g>
    <g id="line2d_27"/>
    <g id="text_23">
     <!-- Real Data  Infected -->
     <defs>
      <path d="M 4.890625 30.90625 
L 45.125 30.90625 
L 45.125 23.875 
L 4.890625 23.875 
z
" id="DejaVuSans-8211"/>
     </defs>
     <g transform="translate(153.64 74.486438)scale(0.1 -0.1)">
      <use xlink:href="#DejaVuSans-82"/>
      <use x="69.419922" xlink:href="#DejaVuSans-101"/>
      <use x="130.943359" xlink:href="#DejaVuSans-97"/>
      <use x="192.222656" xlink:href="#DejaVuSans-108"/>
      <use x="220.005859" xlink:href="#DejaVuSans-32"/>
      <use x="251.792969" xlink:href="#DejaVuSans-68"/>
      <use x="328.794922" xlink:href="#DejaVuSans-97"/>
      <use x="390.074219" xlink:href="#DejaVuSans-116"/>
      <use x="429.283203" xlink:href="#DejaVuSans-97"/>
      <use x="490.5625" xlink:href="#DejaVuSans-32"/>
      <use x="522.349609" xlink:href="#DejaVuSans-8211"/>
      <use x="572.349609" xlink:href="#DejaVuSans-32"/>
      <use x="604.136719" xlink:href="#DejaVuSans-73"/>
      <use x="633.628906" xlink:href="#DejaVuSans-110"/>
      <use x="697.007812" xlink:href="#DejaVuSans-102"/>
      <use x="732.212891" xlink:href="#DejaVuSans-101"/>
      <use x="793.736328" xlink:href="#DejaVuSans-99"/>
      <use x="848.716797" xlink:href="#DejaVuSans-116"/>
      <use x="887.925781" xlink:href="#DejaVuSans-101"/>
      <use x="949.449219" xlink:href="#DejaVuSans-100"/>
     </g>
    </g>
    <g id="line2d_28">
     <path d="M 125.64 85.664563 
L 145.64 85.664563 
" style="fill:none;stroke:#ff7f0e;stroke-linecap:square;stroke-width:1.5;"/>
    </g>
    <g id="line2d_29"/>
    <g id="text_24">
     <!-- Real Data  Removed (Recovered or Death) -->
     <defs>
      <path d="M 31 75.875 
Q 24.46875 64.65625 21.28125 53.65625 
Q 18.109375 42.671875 18.109375 31.390625 
Q 18.109375 20.125 21.3125 9.0625 
Q 24.515625 -2 31 -13.1875 
L 23.1875 -13.1875 
Q 15.875 -1.703125 12.234375 9.375 
Q 8.59375 20.453125 8.59375 31.390625 
Q 8.59375 42.28125 12.203125 53.3125 
Q 15.828125 64.359375 23.1875 75.875 
z
" id="DejaVuSans-40"/>
      <path d="M 8.015625 75.875 
L 15.828125 75.875 
Q 23.140625 64.359375 26.78125 53.3125 
Q 30.421875 42.28125 30.421875 31.390625 
Q 30.421875 20.453125 26.78125 9.375 
Q 23.140625 -1.703125 15.828125 -13.1875 
L 8.015625 -13.1875 
Q 14.5 -2 17.703125 9.0625 
Q 20.90625 20.125 20.90625 31.390625 
Q 20.90625 42.671875 17.703125 53.65625 
Q 14.5 64.65625 8.015625 75.875 
z
" id="DejaVuSans-41"/>
     </defs>
     <g transform="translate(153.64 89.164563)scale(0.1 -0.1)">
      <use xlink:href="#DejaVuSans-82"/>
      <use x="69.419922" xlink:href="#DejaVuSans-101"/>
      <use x="130.943359" xlink:href="#DejaVuSans-97"/>
      <use x="192.222656" xlink:href="#DejaVuSans-108"/>
      <use x="220.005859" xlink:href="#DejaVuSans-32"/>
      <use x="251.792969" xlink:href="#DejaVuSans-68"/>
      <use x="328.794922" xlink:href="#DejaVuSans-97"/>
      <use x="390.074219" xlink:href="#DejaVuSans-116"/>
      <use x="429.283203" xlink:href="#DejaVuSans-97"/>
      <use x="490.5625" xlink:href="#DejaVuSans-32"/>
      <use x="522.349609" xlink:href="#DejaVuSans-8211"/>
      <use x="572.349609" xlink:href="#DejaVuSans-32"/>
      <use x="604.136719" xlink:href="#DejaVuSans-82"/>
      <use x="673.556641" xlink:href="#DejaVuSans-101"/>
      <use x="735.080078" xlink:href="#DejaVuSans-109"/>
      <use x="832.492188" xlink:href="#DejaVuSans-111"/>
      <use x="893.673828" xlink:href="#DejaVuSans-118"/>
      <use x="952.853516" xlink:href="#DejaVuSans-101"/>
      <use x="1014.376953" xlink:href="#DejaVuSans-100"/>
      <use x="1077.853516" xlink:href="#DejaVuSans-32"/>
      <use x="1109.640625" xlink:href="#DejaVuSans-40"/>
      <use x="1148.654297" xlink:href="#DejaVuSans-82"/>
      <use x="1218.074219" xlink:href="#DejaVuSans-101"/>
      <use x="1279.597656" xlink:href="#DejaVuSans-99"/>
      <use x="1334.578125" xlink:href="#DejaVuSans-111"/>
      <use x="1395.759766" xlink:href="#DejaVuSans-118"/>
      <use x="1454.939453" xlink:href="#DejaVuSans-101"/>
      <use x="1516.462891" xlink:href="#DejaVuSans-114"/>
      <use x="1557.544922" xlink:href="#DejaVuSans-101"/>
      <use x="1619.068359" xlink:href="#DejaVuSans-100"/>
      <use x="1682.544922" xlink:href="#DejaVuSans-32"/>
      <use x="1714.332031" xlink:href="#DejaVuSans-111"/>
      <use x="1775.513672" xlink:href="#DejaVuSans-114"/>
      <use x="1816.626953" xlink:href="#DejaVuSans-32"/>
      <use x="1848.414062" xlink:href="#DejaVuSans-68"/>
      <use x="1925.416016" xlink:href="#DejaVuSans-101"/>
      <use x="1986.939453" xlink:href="#DejaVuSans-97"/>
      <use x="2048.21875" xlink:href="#DejaVuSans-116"/>
      <use x="2087.427734" xlink:href="#DejaVuSans-104"/>
      <use x="2150.806641" xlink:href="#DejaVuSans-41"/>
     </g>
    </g>
    <g id="line2d_30">
     <path d="M 125.64 100.342688 
L 145.64 100.342688 
" style="fill:none;stroke:#2ca02c;stroke-linecap:square;stroke-width:1.5;"/>
    </g>
    <g id="line2d_31"/>
    <g id="text_25">
     <!-- Model  Infected -->
     <defs>
      <path d="M 9.8125 72.90625 
L 24.515625 72.90625 
L 43.109375 23.296875 
L 61.8125 72.90625 
L 76.515625 72.90625 
L 76.515625 0 
L 66.890625 0 
L 66.890625 64.015625 
L 48.09375 14.015625 
L 38.1875 14.015625 
L 19.390625 64.015625 
L 19.390625 0 
L 9.8125 0 
z
" id="DejaVuSans-77"/>
     </defs>
     <g transform="translate(153.64 103.842688)scale(0.1 -0.1)">
      <use xlink:href="#DejaVuSans-77"/>
      <use x="86.279297" xlink:href="#DejaVuSans-111"/>
      <use x="147.460938" xlink:href="#DejaVuSans-100"/>
      <use x="210.9375" xlink:href="#DejaVuSans-101"/>
      <use x="272.460938" xlink:href="#DejaVuSans-108"/>
      <use x="300.244141" xlink:href="#DejaVuSans-32"/>
      <use x="332.03125" xlink:href="#DejaVuSans-8211"/>
      <use x="382.03125" xlink:href="#DejaVuSans-32"/>
      <use x="413.818359" xlink:href="#DejaVuSans-73"/>
      <use x="443.310547" xlink:href="#DejaVuSans-110"/>
      <use x="506.689453" xlink:href="#DejaVuSans-102"/>
      <use x="541.894531" xlink:href="#DejaVuSans-101"/>
      <use x="603.417969" xlink:href="#DejaVuSans-99"/>
      <use x="658.398438" xlink:href="#DejaVuSans-116"/>
      <use x="697.607422" xlink:href="#DejaVuSans-101"/>
      <use x="759.130859" xlink:href="#DejaVuSans-100"/>
     </g>
    </g>
    <g id="line2d_32">
     <path d="M 125.64 115.020813 
L 145.64 115.020813 
" style="fill:none;stroke:#d62728;stroke-linecap:square;stroke-width:1.5;"/>
    </g>
    <g id="line2d_33"/>
    <g id="text_26">
     <!-- Model  Removed (Recovered or Death) -->
     <g transform="translate(153.64 118.520813)scale(0.1 -0.1)">
      <use xlink:href="#DejaVuSans-77"/>
      <use x="86.279297" xlink:href="#DejaVuSans-111"/>
      <use x="147.460938" xlink:href="#DejaVuSans-100"/>
      <use x="210.9375" xlink:href="#DejaVuSans-101"/>
      <use x="272.460938" xlink:href="#DejaVuSans-108"/>
      <use x="300.244141" xlink:href="#DejaVuSans-32"/>
      <use x="332.03125" xlink:href="#DejaVuSans-8211"/>
      <use x="382.03125" xlink:href="#DejaVuSans-32"/>
      <use x="413.818359" xlink:href="#DejaVuSans-82"/>
      <use x="483.238281" xlink:href="#DejaVuSans-101"/>
      <use x="544.761719" xlink:href="#DejaVuSans-109"/>
      <use x="642.173828" xlink:href="#DejaVuSans-111"/>
      <use x="703.355469" xlink:href="#DejaVuSans-118"/>
      <use x="762.535156" xlink:href="#DejaVuSans-101"/>
      <use x="824.058594" xlink:href="#DejaVuSans-100"/>
      <use x="887.535156" xlink:href="#DejaVuSans-32"/>
      <use x="919.322266" xlink:href="#DejaVuSans-40"/>
      <use x="958.335938" xlink:href="#DejaVuSans-82"/>
      <use x="1027.755859" xlink:href="#DejaVuSans-101"/>
      <use x="1089.279297" xlink:href="#DejaVuSans-99"/>
      <use x="1144.259766" xlink:href="#DejaVuSans-111"/>
      <use x="1205.441406" xlink:href="#DejaVuSans-118"/>
      <use x="1264.621094" xlink:href="#DejaVuSans-101"/>
      <use x="1326.144531" xlink:href="#DejaVuSans-114"/>
      <use x="1367.226562" xlink:href="#DejaVuSans-101"/>
      <use x="1428.75" xlink:href="#DejaVuSans-100"/>
      <use x="1492.226562" xlink:href="#DejaVuSans-32"/>
      <use x="1524.013672" xlink:href="#DejaVuSans-111"/>
      <use x="1585.195312" xlink:href="#DejaVuSans-114"/>
      <use x="1626.308594" xlink:href="#DejaVuSans-32"/>
      <use x="1658.095703" xlink:href="#DejaVuSans-68"/>
      <use x="1735.097656" xlink:href="#DejaVuSans-101"/>
      <use x="1796.621094" xlink:href="#DejaVuSans-97"/>
      <use x="1857.900391" xlink:href="#DejaVuSans-116"/>
      <use x="1897.109375" xlink:href="#DejaVuSans-104"/>
      <use x="1960.488281" xlink:href="#DejaVuSans-41"/>
     </g>
    </g>
   </g>
  </g>
 </g>
 <defs>
  <clipPath id="p037b25393f">
   <rect height="371.448" width="723.168" x="116.64" y="57.888"/>
  </clipPath>
 </defs>
</svg>
