<?xml version="1.0" encoding="utf-8" standalone="no"?>
<!DOCTYPE svg PUBLIC "-//W3C//DTD SVG 1.1//EN"
  "http://www.w3.org/Graphics/SVG/1.1/DTD/svg11.dtd">
<!-- Created with matplotlib (https://matplotlib.org/) -->
<svg height="482.4pt" version="1.1" viewBox="0 0 933.12 482.4" width="933.12pt" xmlns="http://www.w3.org/2000/svg" xmlns:xlink="http://www.w3.org/1999/xlink">
 <defs>
  <style type="text/css">
*{stroke-linecap:butt;stroke-linejoin:round;}
  </style>
 </defs>
 <g id="figure_1">
  <g id="patch_1">
   <path d="M 0 482.4 
L 933.12 482.4 
L 933.12 0 
L 0 0 
z
" style="fill:#ffffff;"/>
  </g>
  <g id="axes_1">
   <g id="patch_2">
    <path d="M 116.64 429.336 
L 839.808 429.336 
L 839.808 57.888 
L 116.64 57.888 
z
" style="fill:#ffffff;"/>
   </g>
   <g id="matplotlib.axis_1">
    <g id="xtick_1">
     <g id="line2d_1">
      <defs>
       <path d="M 0 0 
L 0 3.5 
" id="mc046f383bf" style="stroke:#000000;stroke-width:0.8;"/>
      </defs>
      <g>
       <use style="stroke:#000000;stroke-width:0.8;" x="143.534678" xlink:href="#mc046f383bf" y="429.336"/>
      </g>
     </g>
     <g id="text_1">
      <!-- 2020-02-29 -->
      <defs>
       <path d="M 19.1875 8.296875 
L 53.609375 8.296875 
L 53.609375 0 
L 7.328125 0 
L 7.328125 8.296875 
Q 12.9375 14.109375 22.625 23.890625 
Q 32.328125 33.6875 34.8125 36.53125 
Q 39.546875 41.84375 41.421875 45.53125 
Q 43.3125 49.21875 43.3125 52.78125 
Q 43.3125 58.59375 39.234375 62.25 
Q 35.15625 65.921875 28.609375 65.921875 
Q 23.96875 65.921875 18.8125 64.3125 
Q 13.671875 62.703125 7.8125 59.421875 
L 7.8125 69.390625 
Q 13.765625 71.78125 18.9375 73 
Q 24.125 74.21875 28.421875 74.21875 
Q 39.75 74.21875 46.484375 68.546875 
Q 53.21875 62.890625 53.21875 53.421875 
Q 53.21875 48.921875 51.53125 44.890625 
Q 49.859375 40.875 45.40625 35.40625 
Q 44.1875 33.984375 37.640625 27.21875 
Q 31.109375 20.453125 19.1875 8.296875 
z
" id="DejaVuSans-50"/>
       <path d="M 31.78125 66.40625 
Q 24.171875 66.40625 20.328125 58.90625 
Q 16.5 51.421875 16.5 36.375 
Q 16.5 21.390625 20.328125 13.890625 
Q 24.171875 6.390625 31.78125 6.390625 
Q 39.453125 6.390625 43.28125 13.890625 
Q 47.125 21.390625 47.125 36.375 
Q 47.125 51.421875 43.28125 58.90625 
Q 39.453125 66.40625 31.78125 66.40625 
z
M 31.78125 74.21875 
Q 44.046875 74.21875 50.515625 64.515625 
Q 56.984375 54.828125 56.984375 36.375 
Q 56.984375 17.96875 50.515625 8.265625 
Q 44.046875 -1.421875 31.78125 -1.421875 
Q 19.53125 -1.421875 13.0625 8.265625 
Q 6.59375 17.96875 6.59375 36.375 
Q 6.59375 54.828125 13.0625 64.515625 
Q 19.53125 74.21875 31.78125 74.21875 
z
" id="DejaVuSans-48"/>
       <path d="M 4.890625 31.390625 
L 31.203125 31.390625 
L 31.203125 23.390625 
L 4.890625 23.390625 
z
" id="DejaVuSans-45"/>
       <path d="M 10.984375 1.515625 
L 10.984375 10.5 
Q 14.703125 8.734375 18.5 7.8125 
Q 22.3125 6.890625 25.984375 6.890625 
Q 35.75 6.890625 40.890625 13.453125 
Q 46.046875 20.015625 46.78125 33.40625 
Q 43.953125 29.203125 39.59375 26.953125 
Q 35.25 24.703125 29.984375 24.703125 
Q 19.046875 24.703125 12.671875 31.3125 
Q 6.296875 37.9375 6.296875 49.421875 
Q 6.296875 60.640625 12.9375 67.421875 
Q 19.578125 74.21875 30.609375 74.21875 
Q 43.265625 74.21875 49.921875 64.515625 
Q 56.59375 54.828125 56.59375 36.375 
Q 56.59375 19.140625 48.40625 8.859375 
Q 40.234375 -1.421875 26.421875 -1.421875 
Q 22.703125 -1.421875 18.890625 -0.6875 
Q 15.09375 0.046875 10.984375 1.515625 
z
M 30.609375 32.421875 
Q 37.25 32.421875 41.125 36.953125 
Q 45.015625 41.5 45.015625 49.421875 
Q 45.015625 57.28125 41.125 61.84375 
Q 37.25 66.40625 30.609375 66.40625 
Q 23.96875 66.40625 20.09375 61.84375 
Q 16.21875 57.28125 16.21875 49.421875 
Q 16.21875 41.5 20.09375 36.953125 
Q 23.96875 32.421875 30.609375 32.421875 
z
" id="DejaVuSans-57"/>
      </defs>
      <g transform="translate(114.476865 443.934438)scale(0.1 -0.1)">
       <use xlink:href="#DejaVuSans-50"/>
       <use x="63.623047" xlink:href="#DejaVuSans-48"/>
       <use x="127.246094" xlink:href="#DejaVuSans-50"/>
       <use x="190.869141" xlink:href="#DejaVuSans-48"/>
       <use x="254.492188" xlink:href="#DejaVuSans-45"/>
       <use x="290.576172" xlink:href="#DejaVuSans-48"/>
       <use x="354.199219" xlink:href="#DejaVuSans-50"/>
       <use x="417.822266" xlink:href="#DejaVuSans-45"/>
       <use x="453.90625" xlink:href="#DejaVuSans-50"/>
       <use x="517.529297" xlink:href="#DejaVuSans-57"/>
      </g>
     </g>
    </g>
    <g id="xtick_2">
     <g id="line2d_2">
      <g>
       <use style="stroke:#000000;stroke-width:0.8;" x="149.511273" xlink:href="#mc046f383bf" y="429.336"/>
      </g>
     </g>
     <g id="text_2">
      <!-- 2020-03-01 -->
      <defs>
       <path d="M 40.578125 39.3125 
Q 47.65625 37.796875 51.625 33 
Q 55.609375 28.21875 55.609375 21.1875 
Q 55.609375 10.40625 48.1875 4.484375 
Q 40.765625 -1.421875 27.09375 -1.421875 
Q 22.515625 -1.421875 17.65625 -0.515625 
Q 12.796875 0.390625 7.625 2.203125 
L 7.625 11.71875 
Q 11.71875 9.328125 16.59375 8.109375 
Q 21.484375 6.890625 26.8125 6.890625 
Q 36.078125 6.890625 40.9375 10.546875 
Q 45.796875 14.203125 45.796875 21.1875 
Q 45.796875 27.640625 41.28125 31.265625 
Q 36.765625 34.90625 28.71875 34.90625 
L 20.21875 34.90625 
L 20.21875 43.015625 
L 29.109375 43.015625 
Q 36.375 43.015625 40.234375 45.921875 
Q 44.09375 48.828125 44.09375 54.296875 
Q 44.09375 59.90625 40.109375 62.90625 
Q 36.140625 65.921875 28.71875 65.921875 
Q 24.65625 65.921875 20.015625 65.03125 
Q 15.375 64.15625 9.8125 62.3125 
L 9.8125 71.09375 
Q 15.4375 72.65625 20.34375 73.4375 
Q 25.25 74.21875 29.59375 74.21875 
Q 40.828125 74.21875 47.359375 69.109375 
Q 53.90625 64.015625 53.90625 55.328125 
Q 53.90625 49.265625 50.4375 45.09375 
Q 46.96875 40.921875 40.578125 39.3125 
z
" id="DejaVuSans-51"/>
       <path d="M 12.40625 8.296875 
L 28.515625 8.296875 
L 28.515625 63.921875 
L 10.984375 60.40625 
L 10.984375 69.390625 
L 28.421875 72.90625 
L 38.28125 72.90625 
L 38.28125 8.296875 
L 54.390625 8.296875 
L 54.390625 0 
L 12.40625 0 
z
" id="DejaVuSans-49"/>
      </defs>
      <g transform="translate(120.45346 443.934438)scale(0.1 -0.1)">
       <use xlink:href="#DejaVuSans-50"/>
       <use x="63.623047" xlink:href="#DejaVuSans-48"/>
       <use x="127.246094" xlink:href="#DejaVuSans-50"/>
       <use x="190.869141" xlink:href="#DejaVuSans-48"/>
       <use x="254.492188" xlink:href="#DejaVuSans-45"/>
       <use x="290.576172" xlink:href="#DejaVuSans-48"/>
       <use x="354.199219" xlink:href="#DejaVuSans-51"/>
       <use x="417.822266" xlink:href="#DejaVuSans-45"/>
       <use x="453.90625" xlink:href="#DejaVuSans-48"/>
       <use x="517.529297" xlink:href="#DejaVuSans-49"/>
      </g>
     </g>
    </g>
    <g id="xtick_3">
     <g id="line2d_3">
      <g>
       <use style="stroke:#000000;stroke-width:0.8;" x="233.183603" xlink:href="#mc046f383bf" y="429.336"/>
      </g>
     </g>
     <g id="text_3">
      <!-- 2020-03-15 -->
      <defs>
       <path d="M 10.796875 72.90625 
L 49.515625 72.90625 
L 49.515625 64.59375 
L 19.828125 64.59375 
L 19.828125 46.734375 
Q 21.96875 47.46875 24.109375 47.828125 
Q 26.265625 48.1875 28.421875 48.1875 
Q 40.625 48.1875 47.75 41.5 
Q 54.890625 34.8125 54.890625 23.390625 
Q 54.890625 11.625 47.5625 5.09375 
Q 40.234375 -1.421875 26.90625 -1.421875 
Q 22.3125 -1.421875 17.546875 -0.640625 
Q 12.796875 0.140625 7.71875 1.703125 
L 7.71875 11.625 
Q 12.109375 9.234375 16.796875 8.0625 
Q 21.484375 6.890625 26.703125 6.890625 
Q 35.15625 6.890625 40.078125 11.328125 
Q 45.015625 15.765625 45.015625 23.390625 
Q 45.015625 31 40.078125 35.4375 
Q 35.15625 39.890625 26.703125 39.890625 
Q 22.75 39.890625 18.8125 39.015625 
Q 14.890625 38.140625 10.796875 36.28125 
z
" id="DejaVuSans-53"/>
      </defs>
      <g transform="translate(204.125791 443.934438)scale(0.1 -0.1)">
       <use xlink:href="#DejaVuSans-50"/>
       <use x="63.623047" xlink:href="#DejaVuSans-48"/>
       <use x="127.246094" xlink:href="#DejaVuSans-50"/>
       <use x="190.869141" xlink:href="#DejaVuSans-48"/>
       <use x="254.492188" xlink:href="#DejaVuSans-45"/>
       <use x="290.576172" xlink:href="#DejaVuSans-48"/>
       <use x="354.199219" xlink:href="#DejaVuSans-51"/>
       <use x="417.822266" xlink:href="#DejaVuSans-45"/>
       <use x="453.90625" xlink:href="#DejaVuSans-49"/>
       <use x="517.529297" xlink:href="#DejaVuSans-53"/>
      </g>
     </g>
    </g>
    <g id="xtick_4">
     <g id="line2d_4">
      <g>
       <use style="stroke:#000000;stroke-width:0.8;" x="316.855934" xlink:href="#mc046f383bf" y="429.336"/>
      </g>
     </g>
     <g id="text_4">
      <!-- 2020-03-29 -->
      <g transform="translate(287.798121 443.934438)scale(0.1 -0.1)">
       <use xlink:href="#DejaVuSans-50"/>
       <use x="63.623047" xlink:href="#DejaVuSans-48"/>
       <use x="127.246094" xlink:href="#DejaVuSans-50"/>
       <use x="190.869141" xlink:href="#DejaVuSans-48"/>
       <use x="254.492188" xlink:href="#DejaVuSans-45"/>
       <use x="290.576172" xlink:href="#DejaVuSans-48"/>
       <use x="354.199219" xlink:href="#DejaVuSans-51"/>
       <use x="417.822266" xlink:href="#DejaVuSans-45"/>
       <use x="453.90625" xlink:href="#DejaVuSans-50"/>
       <use x="517.529297" xlink:href="#DejaVuSans-57"/>
      </g>
     </g>
    </g>
    <g id="xtick_5">
     <g id="line2d_5">
      <g>
       <use style="stroke:#000000;stroke-width:0.8;" x="334.785719" xlink:href="#mc046f383bf" y="429.336"/>
      </g>
     </g>
     <g id="text_5">
      <!-- 2020-04-01 -->
      <defs>
       <path d="M 37.796875 64.3125 
L 12.890625 25.390625 
L 37.796875 25.390625 
z
M 35.203125 72.90625 
L 47.609375 72.90625 
L 47.609375 25.390625 
L 58.015625 25.390625 
L 58.015625 17.1875 
L 47.609375 17.1875 
L 47.609375 0 
L 37.796875 0 
L 37.796875 17.1875 
L 4.890625 17.1875 
L 4.890625 26.703125 
z
" id="DejaVuSans-52"/>
      </defs>
      <g transform="translate(305.727907 443.934438)scale(0.1 -0.1)">
       <use xlink:href="#DejaVuSans-50"/>
       <use x="63.623047" xlink:href="#DejaVuSans-48"/>
       <use x="127.246094" xlink:href="#DejaVuSans-50"/>
       <use x="190.869141" xlink:href="#DejaVuSans-48"/>
       <use x="254.492188" xlink:href="#DejaVuSans-45"/>
       <use x="290.576172" xlink:href="#DejaVuSans-48"/>
       <use x="354.199219" xlink:href="#DejaVuSans-52"/>
       <use x="417.822266" xlink:href="#DejaVuSans-45"/>
       <use x="453.90625" xlink:href="#DejaVuSans-48"/>
       <use x="517.529297" xlink:href="#DejaVuSans-49"/>
      </g>
     </g>
    </g>
    <g id="xtick_6">
     <g id="line2d_6">
      <g>
       <use style="stroke:#000000;stroke-width:0.8;" x="418.45805" xlink:href="#mc046f383bf" y="429.336"/>
      </g>
     </g>
     <g id="text_6">
      <!-- 2020-04-15 -->
      <g transform="translate(389.400237 443.934438)scale(0.1 -0.1)">
       <use xlink:href="#DejaVuSans-50"/>
       <use x="63.623047" xlink:href="#DejaVuSans-48"/>
       <use x="127.246094" xlink:href="#DejaVuSans-50"/>
       <use x="190.869141" xlink:href="#DejaVuSans-48"/>
       <use x="254.492188" xlink:href="#DejaVuSans-45"/>
       <use x="290.576172" xlink:href="#DejaVuSans-48"/>
       <use x="354.199219" xlink:href="#DejaVuSans-52"/>
       <use x="417.822266" xlink:href="#DejaVuSans-45"/>
       <use x="453.90625" xlink:href="#DejaVuSans-49"/>
       <use x="517.529297" xlink:href="#DejaVuSans-53"/>
      </g>
     </g>
    </g>
    <g id="xtick_7">
     <g id="line2d_7">
      <g>
       <use style="stroke:#000000;stroke-width:0.8;" x="502.13038" xlink:href="#mc046f383bf" y="429.336"/>
      </g>
     </g>
     <g id="text_7">
      <!-- 2020-04-29 -->
      <g transform="translate(473.072568 443.934438)scale(0.1 -0.1)">
       <use xlink:href="#DejaVuSans-50"/>
       <use x="63.623047" xlink:href="#DejaVuSans-48"/>
       <use x="127.246094" xlink:href="#DejaVuSans-50"/>
       <use x="190.869141" xlink:href="#DejaVuSans-48"/>
       <use x="254.492188" xlink:href="#DejaVuSans-45"/>
       <use x="290.576172" xlink:href="#DejaVuSans-48"/>
       <use x="354.199219" xlink:href="#DejaVuSans-52"/>
       <use x="417.822266" xlink:href="#DejaVuSans-45"/>
       <use x="453.90625" xlink:href="#DejaVuSans-50"/>
       <use x="517.529297" xlink:href="#DejaVuSans-57"/>
      </g>
     </g>
    </g>
    <g id="xtick_8">
     <g id="line2d_8">
      <g>
       <use style="stroke:#000000;stroke-width:0.8;" x="514.08357" xlink:href="#mc046f383bf" y="429.336"/>
      </g>
     </g>
     <g id="text_8">
      <!-- 2020-05-01 -->
      <g transform="translate(485.025758 443.934438)scale(0.1 -0.1)">
       <use xlink:href="#DejaVuSans-50"/>
       <use x="63.623047" xlink:href="#DejaVuSans-48"/>
       <use x="127.246094" xlink:href="#DejaVuSans-50"/>
       <use x="190.869141" xlink:href="#DejaVuSans-48"/>
       <use x="254.492188" xlink:href="#DejaVuSans-45"/>
       <use x="290.576172" xlink:href="#DejaVuSans-48"/>
       <use x="354.199219" xlink:href="#DejaVuSans-53"/>
       <use x="417.822266" xlink:href="#DejaVuSans-45"/>
       <use x="453.90625" xlink:href="#DejaVuSans-48"/>
       <use x="517.529297" xlink:href="#DejaVuSans-49"/>
      </g>
     </g>
    </g>
    <g id="xtick_9">
     <g id="line2d_9">
      <g>
       <use style="stroke:#000000;stroke-width:0.8;" x="597.755901" xlink:href="#mc046f383bf" y="429.336"/>
      </g>
     </g>
     <g id="text_9">
      <!-- 2020-05-15 -->
      <g transform="translate(568.698088 443.934438)scale(0.1 -0.1)">
       <use xlink:href="#DejaVuSans-50"/>
       <use x="63.623047" xlink:href="#DejaVuSans-48"/>
       <use x="127.246094" xlink:href="#DejaVuSans-50"/>
       <use x="190.869141" xlink:href="#DejaVuSans-48"/>
       <use x="254.492188" xlink:href="#DejaVuSans-45"/>
       <use x="290.576172" xlink:href="#DejaVuSans-48"/>
       <use x="354.199219" xlink:href="#DejaVuSans-53"/>
       <use x="417.822266" xlink:href="#DejaVuSans-45"/>
       <use x="453.90625" xlink:href="#DejaVuSans-49"/>
       <use x="517.529297" xlink:href="#DejaVuSans-53"/>
      </g>
     </g>
    </g>
    <g id="xtick_10">
     <g id="line2d_10">
      <g>
       <use style="stroke:#000000;stroke-width:0.8;" x="681.428231" xlink:href="#mc046f383bf" y="429.336"/>
      </g>
     </g>
     <g id="text_10">
      <!-- 2020-05-29 -->
      <g transform="translate(652.370419 443.934438)scale(0.1 -0.1)">
       <use xlink:href="#DejaVuSans-50"/>
       <use x="63.623047" xlink:href="#DejaVuSans-48"/>
       <use x="127.246094" xlink:href="#DejaVuSans-50"/>
       <use x="190.869141" xlink:href="#DejaVuSans-48"/>
       <use x="254.492188" xlink:href="#DejaVuSans-45"/>
       <use x="290.576172" xlink:href="#DejaVuSans-48"/>
       <use x="354.199219" xlink:href="#DejaVuSans-53"/>
       <use x="417.822266" xlink:href="#DejaVuSans-45"/>
       <use x="453.90625" xlink:href="#DejaVuSans-50"/>
       <use x="517.529297" xlink:href="#DejaVuSans-57"/>
      </g>
     </g>
    </g>
    <g id="xtick_11">
     <g id="line2d_11">
      <g>
       <use style="stroke:#000000;stroke-width:0.8;" x="699.358017" xlink:href="#mc046f383bf" y="429.336"/>
      </g>
     </g>
     <g id="text_11">
      <!-- 2020-06-01 -->
      <defs>
       <path d="M 33.015625 40.375 
Q 26.375 40.375 22.484375 35.828125 
Q 18.609375 31.296875 18.609375 23.390625 
Q 18.609375 15.53125 22.484375 10.953125 
Q 26.375 6.390625 33.015625 6.390625 
Q 39.65625 6.390625 43.53125 10.953125 
Q 47.40625 15.53125 47.40625 23.390625 
Q 47.40625 31.296875 43.53125 35.828125 
Q 39.65625 40.375 33.015625 40.375 
z
M 52.59375 71.296875 
L 52.59375 62.3125 
Q 48.875 64.0625 45.09375 64.984375 
Q 41.3125 65.921875 37.59375 65.921875 
Q 27.828125 65.921875 22.671875 59.328125 
Q 17.53125 52.734375 16.796875 39.40625 
Q 19.671875 43.65625 24.015625 45.921875 
Q 28.375 48.1875 33.59375 48.1875 
Q 44.578125 48.1875 50.953125 41.515625 
Q 57.328125 34.859375 57.328125 23.390625 
Q 57.328125 12.15625 50.6875 5.359375 
Q 44.046875 -1.421875 33.015625 -1.421875 
Q 20.359375 -1.421875 13.671875 8.265625 
Q 6.984375 17.96875 6.984375 36.375 
Q 6.984375 53.65625 15.1875 63.9375 
Q 23.390625 74.21875 37.203125 74.21875 
Q 40.921875 74.21875 44.703125 73.484375 
Q 48.484375 72.75 52.59375 71.296875 
z
" id="DejaVuSans-54"/>
      </defs>
      <g transform="translate(670.300204 443.934438)scale(0.1 -0.1)">
       <use xlink:href="#DejaVuSans-50"/>
       <use x="63.623047" xlink:href="#DejaVuSans-48"/>
       <use x="127.246094" xlink:href="#DejaVuSans-50"/>
       <use x="190.869141" xlink:href="#DejaVuSans-48"/>
       <use x="254.492188" xlink:href="#DejaVuSans-45"/>
       <use x="290.576172" xlink:href="#DejaVuSans-48"/>
       <use x="354.199219" xlink:href="#DejaVuSans-54"/>
       <use x="417.822266" xlink:href="#DejaVuSans-45"/>
       <use x="453.90625" xlink:href="#DejaVuSans-48"/>
       <use x="517.529297" xlink:href="#DejaVuSans-49"/>
      </g>
     </g>
    </g>
    <g id="xtick_12">
     <g id="line2d_12">
      <g>
       <use style="stroke:#000000;stroke-width:0.8;" x="783.030347" xlink:href="#mc046f383bf" y="429.336"/>
      </g>
     </g>
     <g id="text_12">
      <!-- 2020-06-15 -->
      <g transform="translate(753.972535 443.934438)scale(0.1 -0.1)">
       <use xlink:href="#DejaVuSans-50"/>
       <use x="63.623047" xlink:href="#DejaVuSans-48"/>
       <use x="127.246094" xlink:href="#DejaVuSans-50"/>
       <use x="190.869141" xlink:href="#DejaVuSans-48"/>
       <use x="254.492188" xlink:href="#DejaVuSans-45"/>
       <use x="290.576172" xlink:href="#DejaVuSans-48"/>
       <use x="354.199219" xlink:href="#DejaVuSans-54"/>
       <use x="417.822266" xlink:href="#DejaVuSans-45"/>
       <use x="453.90625" xlink:href="#DejaVuSans-49"/>
       <use x="517.529297" xlink:href="#DejaVuSans-53"/>
      </g>
     </g>
    </g>
   </g>
   <g id="matplotlib.axis_2">
    <g id="ytick_1">
     <g id="line2d_13">
      <defs>
       <path d="M 0 0 
L -3.5 0 
" id="m4657cc9e20" style="stroke:#000000;stroke-width:0.8;"/>
      </defs>
      <g>
       <use style="stroke:#000000;stroke-width:0.8;" x="116.64" xlink:href="#m4657cc9e20" y="412.452"/>
      </g>
     </g>
     <g id="text_13">
      <!-- 0 -->
      <g transform="translate(103.2775 416.251219)scale(0.1 -0.1)">
       <use xlink:href="#DejaVuSans-48"/>
      </g>
     </g>
    </g>
    <g id="ytick_2">
     <g id="line2d_14">
      <g>
       <use style="stroke:#000000;stroke-width:0.8;" x="116.64" xlink:href="#m4657cc9e20" y="353.405351"/>
      </g>
     </g>
     <g id="text_14">
      <!-- 2000 -->
      <g transform="translate(84.19 357.204569)scale(0.1 -0.1)">
       <use xlink:href="#DejaVuSans-50"/>
       <use x="63.623047" xlink:href="#DejaVuSans-48"/>
       <use x="127.246094" xlink:href="#DejaVuSans-48"/>
       <use x="190.869141" xlink:href="#DejaVuSans-48"/>
      </g>
     </g>
    </g>
    <g id="ytick_3">
     <g id="line2d_15">
      <g>
       <use style="stroke:#000000;stroke-width:0.8;" x="116.64" xlink:href="#m4657cc9e20" y="294.358701"/>
      </g>
     </g>
     <g id="text_15">
      <!-- 4000 -->
      <g transform="translate(84.19 298.15792)scale(0.1 -0.1)">
       <use xlink:href="#DejaVuSans-52"/>
       <use x="63.623047" xlink:href="#DejaVuSans-48"/>
       <use x="127.246094" xlink:href="#DejaVuSans-48"/>
       <use x="190.869141" xlink:href="#DejaVuSans-48"/>
      </g>
     </g>
    </g>
    <g id="ytick_4">
     <g id="line2d_16">
      <g>
       <use style="stroke:#000000;stroke-width:0.8;" x="116.64" xlink:href="#m4657cc9e20" y="235.312052"/>
      </g>
     </g>
     <g id="text_16">
      <!-- 6000 -->
      <g transform="translate(84.19 239.111271)scale(0.1 -0.1)">
       <use xlink:href="#DejaVuSans-54"/>
       <use x="63.623047" xlink:href="#DejaVuSans-48"/>
       <use x="127.246094" xlink:href="#DejaVuSans-48"/>
       <use x="190.869141" xlink:href="#DejaVuSans-48"/>
      </g>
     </g>
    </g>
    <g id="ytick_5">
     <g id="line2d_17">
      <g>
       <use style="stroke:#000000;stroke-width:0.8;" x="116.64" xlink:href="#m4657cc9e20" y="176.265403"/>
      </g>
     </g>
     <g id="text_17">
      <!-- 8000 -->
      <defs>
       <path d="M 31.78125 34.625 
Q 24.75 34.625 20.71875 30.859375 
Q 16.703125 27.09375 16.703125 20.515625 
Q 16.703125 13.921875 20.71875 10.15625 
Q 24.75 6.390625 31.78125 6.390625 
Q 38.8125 6.390625 42.859375 10.171875 
Q 46.921875 13.96875 46.921875 20.515625 
Q 46.921875 27.09375 42.890625 30.859375 
Q 38.875 34.625 31.78125 34.625 
z
M 21.921875 38.8125 
Q 15.578125 40.375 12.03125 44.71875 
Q 8.5 49.078125 8.5 55.328125 
Q 8.5 64.0625 14.71875 69.140625 
Q 20.953125 74.21875 31.78125 74.21875 
Q 42.671875 74.21875 48.875 69.140625 
Q 55.078125 64.0625 55.078125 55.328125 
Q 55.078125 49.078125 51.53125 44.71875 
Q 48 40.375 41.703125 38.8125 
Q 48.828125 37.15625 52.796875 32.3125 
Q 56.78125 27.484375 56.78125 20.515625 
Q 56.78125 9.90625 50.3125 4.234375 
Q 43.84375 -1.421875 31.78125 -1.421875 
Q 19.734375 -1.421875 13.25 4.234375 
Q 6.78125 9.90625 6.78125 20.515625 
Q 6.78125 27.484375 10.78125 32.3125 
Q 14.796875 37.15625 21.921875 38.8125 
z
M 18.3125 54.390625 
Q 18.3125 48.734375 21.84375 45.5625 
Q 25.390625 42.390625 31.78125 42.390625 
Q 38.140625 42.390625 41.71875 45.5625 
Q 45.3125 48.734375 45.3125 54.390625 
Q 45.3125 60.0625 41.71875 63.234375 
Q 38.140625 66.40625 31.78125 66.40625 
Q 25.390625 66.40625 21.84375 63.234375 
Q 18.3125 60.0625 18.3125 54.390625 
z
" id="DejaVuSans-56"/>
      </defs>
      <g transform="translate(84.19 180.064622)scale(0.1 -0.1)">
       <use xlink:href="#DejaVuSans-56"/>
       <use x="63.623047" xlink:href="#DejaVuSans-48"/>
       <use x="127.246094" xlink:href="#DejaVuSans-48"/>
       <use x="190.869141" xlink:href="#DejaVuSans-48"/>
      </g>
     </g>
    </g>
    <g id="ytick_6">
     <g id="line2d_18">
      <g>
       <use style="stroke:#000000;stroke-width:0.8;" x="116.64" xlink:href="#m4657cc9e20" y="117.218754"/>
      </g>
     </g>
     <g id="text_18">
      <!-- 10000 -->
      <g transform="translate(77.8275 121.017972)scale(0.1 -0.1)">
       <use xlink:href="#DejaVuSans-49"/>
       <use x="63.623047" xlink:href="#DejaVuSans-48"/>
       <use x="127.246094" xlink:href="#DejaVuSans-48"/>
       <use x="190.869141" xlink:href="#DejaVuSans-48"/>
       <use x="254.492188" xlink:href="#DejaVuSans-48"/>
      </g>
     </g>
    </g>
    <g id="ytick_7">
     <g id="line2d_19">
      <g>
       <use style="stroke:#000000;stroke-width:0.8;" x="116.64" xlink:href="#m4657cc9e20" y="58.172104"/>
      </g>
     </g>
     <g id="text_19">
      <!-- 12000 -->
      <g transform="translate(77.8275 61.971323)scale(0.1 -0.1)">
       <use xlink:href="#DejaVuSans-49"/>
       <use x="63.623047" xlink:href="#DejaVuSans-50"/>
       <use x="127.246094" xlink:href="#DejaVuSans-48"/>
       <use x="190.869141" xlink:href="#DejaVuSans-48"/>
       <use x="254.492188" xlink:href="#DejaVuSans-48"/>
      </g>
     </g>
    </g>
   </g>
   <g id="line2d_20">
    <path clip-path="url(#pe19ec2c129)" d="M 149.511273 412.36343 
L 155.487868 412.36343 
L 161.464463 412.304383 
L 167.441058 412.215813 
L 173.417653 412.09772 
L 179.394248 411.92058 
L 185.370843 411.891057 
L 191.347438 411.536777 
L 197.324033 411.536777 
L 203.300628 411.241544 
L 209.277223 409.765377 
L 215.253818 409.676807 
L 221.230413 408.289211 
L 227.207008 406.872092 
L 233.183603 404.982599 
L 239.160198 403.742619 
L 245.136793 400.849333 
L 251.113388 398.841747 
L 257.089983 392.051383 
L 263.066579 387.977164 
L 269.043174 383.253432 
L 275.019769 379.59254 
L 280.996364 376.167834 
L 286.972959 371.680289 
L 292.949554 364.092794 
L 298.926149 356.180543 
L 304.902744 345.75881 
L 310.879339 335.425646 
L 316.855934 330.081924 
L 322.832529 325.269622 
L 328.809124 317.032615 
L 334.785719 311.83651 
L 340.762314 301.828103 
L 346.738909 295.362494 
L 352.715504 284.468388 
L 358.692099 281.840812 
L 364.668694 275.96567 
L 370.645289 272.009545 
L 376.621884 265.425843 
L 382.598479 260.229738 
L 388.575074 256.952649 
L 394.551669 256.244089 
L 400.528264 253.350803 
L 406.50486 253.114617 
L 412.481455 255.742193 
L 418.45805 258.015489 
L 424.434645 256.214566 
L 430.41124 258.871665 
L 436.387835 258.989759 
L 442.36443 257.100266 
L 448.341025 260.495448 
L 454.31762 262.503034 
L 460.294215 266.754393 
L 466.27081 270.001959 
L 472.247405 274.046654 
L 478.224 274.253317 
L 484.200595 275.493297 
L 490.17719 282.667465 
L 496.153785 284.645528 
L 502.13038 287.15501 
L 508.106975 290.461623 
L 514.08357 290.668286 
L 520.060165 292.912059 
L 526.03676 295.952961 
L 532.013355 301.444299 
L 537.98995 305.193762 
L 543.966545 308.9137 
L 549.94314 312.367929 
L 555.919736 312.338406 
L 561.896331 312.899349 
L 567.872926 312.987919 
L 573.849521 318.479258 
L 579.826116 322.435383 
L 585.802711 325.889612 
L 591.779306 329.284794 
L 597.755901 331.853324 
L 603.732496 331.64666 
L 609.709091 332.296174 
L 615.685686 334.274236 
L 621.662281 335.130413 
L 627.638876 336.075159 
L 633.615471 337.994175 
L 639.592066 339.352248 
L 645.568661 337.698942 
L 651.545256 336.813242 
L 657.521851 338.555118 
L 663.498446 339.736051 
L 669.475041 341.625544 
L 675.451636 342.747431 
L 681.428231 342.275057 
L 687.404826 342.629337 
L 693.381421 341.891254 
L 699.358017 343.396944 
L 705.334612 342.92457 
L 711.311207 342.658861 
L 717.287802 342.806477 
L 723.264397 343.928364 
" style="fill:none;stroke:#1f77b4;stroke-linecap:square;stroke-width:1.5;"/>
   </g>
   <g id="line2d_21">
    <path clip-path="url(#pe19ec2c129)" d="M 149.511273 412.452 
L 155.487868 412.452 
L 161.464463 412.452 
L 167.441058 412.452 
L 173.417653 412.452 
L 179.394248 412.452 
L 185.370843 412.452 
L 191.347438 412.452 
L 197.324033 412.452 
L 203.300628 412.452 
L 209.277223 412.452 
L 215.253818 412.452 
L 221.230413 412.452 
L 227.207008 412.452 
L 233.183603 412.452 
L 239.160198 412.36343 
L 245.136793 412.36343 
L 251.113388 412.36343 
L 257.089983 412.36343 
L 263.066579 412.333907 
L 269.043174 412.27486 
L 275.019769 412.245337 
L 280.996364 412.245337 
L 286.972959 412.068197 
L 292.949554 411.979627 
L 298.926149 411.891057 
L 304.902744 411.861534 
L 310.879339 411.802487 
L 316.855934 411.65487 
L 322.832529 411.03488 
L 328.809124 410.208227 
L 334.785719 409.499668 
L 340.762314 409.174911 
L 346.738909 408.761584 
L 352.715504 408.407305 
L 358.692099 407.639698 
L 364.668694 406.576858 
L 370.645289 404.775936 
L 376.621884 402.650256 
L 382.598479 400.258867 
L 388.575074 398.723654 
L 394.551669 396.509405 
L 400.528264 394.678959 
L 406.50486 392.907559 
L 412.481455 388.74477 
L 418.45805 383.371525 
L 424.434645 378.765887 
L 430.41124 372.684082 
L 436.387835 370.883159 
L 442.36443 368.639386 
L 448.341025 360.697612 
L 454.31762 354.763424 
L 460.294215 347.589256 
L 466.27081 342.717907 
L 472.247405 336.134206 
L 478.224 333.5952 
L 484.200595 330.820007 
L 490.17719 322.435383 
L 496.153785 318.715444 
L 502.13038 313.991712 
L 508.106975 307.644198 
L 514.08357 305.813751 
L 520.060165 303.038559 
L 526.03676 299.23005 
L 532.013355 292.616825 
L 537.98995 286.594067 
L 543.966545 280.571309 
L 549.94314 275.43425 
L 555.919736 274.105701 
L 561.896331 273.013338 
L 567.872926 272.098115 
L 573.849521 265.04204 
L 579.826116 259.757365 
L 585.802711 254.886016 
L 591.779306 249.069921 
L 597.755901 244.877609 
L 603.732496 243.63763 
L 609.709091 242.39765 
L 615.685686 237.142498 
L 621.662281 234.485399 
L 627.638876 231.355927 
L 633.615471 228.462641 
L 639.592066 225.362692 
L 645.568661 224.742702 
L 651.545256 223.709386 
L 657.521851 220.579913 
L 663.498446 217.981861 
L 669.475041 215.029528 
L 675.451636 212.313382 
L 681.428231 211.132449 
L 687.404826 209.774376 
L 693.381421 209.390573 
L 699.358017 206.881091 
L 705.334612 205.523018 
L 711.311207 203.604001 
L 717.287802 201.803079 
L 723.264397 199.647876 
" style="fill:none;stroke:#ff7f0e;stroke-linecap:square;stroke-width:1.5;"/>
   </g>
   <g id="line2d_22">
    <path clip-path="url(#pe19ec2c129)" d="M 149.511273 412.36343 
L 155.487868 412.361924 
L 161.464463 412.360399 
L 167.441058 412.358856 
L 173.417653 412.357295 
L 179.394248 412.355715 
L 185.370843 412.354118 
L 191.347438 412.352503 
L 197.324033 412.35087 
L 203.300628 412.34922 
L 209.277223 412.347552 
L 215.253818 412.345867 
L 221.230413 412.344165 
L 227.207008 412.342447 
L 233.183603 412.340711 
L 239.160198 412.338959 
L 245.136793 412.337192 
L 251.113388 412.335408 
L 257.089983 412.333609 
L 263.066579 412.331795 
L 269.043174 412.329966 
L 275.019769 412.328123 
L 280.996364 412.326266 
L 286.972959 412.324395 
L 292.949554 412.32251 
L 298.926149 412.320614 
L 304.902744 412.318704 
L 310.879339 412.316784 
L 316.855934 412.314852 
L 322.832529 412.312909 
L 328.809124 412.310956 
L 334.785719 412.308994 
L 340.762314 412.307022 
L 346.738909 412.305043 
L 352.715504 412.303056 
L 358.692099 412.301061 
L 364.668694 412.299061 
L 370.645289 412.297055 
L 376.621884 412.295045 
L 382.598479 412.29303 
L 388.575074 412.291013 
L 394.551669 412.288993 
L 400.528264 412.286971 
L 406.50486 412.284949 
L 412.481455 412.282927 
L 418.45805 412.280907 
L 424.434645 412.278888 
L 430.41124 412.276873 
L 436.387835 412.274862 
L 442.36443 412.272856 
L 448.341025 412.270855 
L 454.31762 412.268862 
L 460.294215 412.266877 
L 466.27081 412.264902 
L 472.247405 412.262936 
L 478.224 412.260982 
L 484.200595 412.259041 
L 490.17719 412.257113 
L 496.153785 412.2552 
L 502.13038 412.253302 
L 508.106975 412.251422 
L 514.08357 412.24956 
L 520.060165 412.247718 
L 526.03676 412.245896 
L 532.013355 412.244096 
L 537.98995 412.242318 
L 543.966545 412.240565 
L 549.94314 412.238837 
L 555.919736 412.237136 
L 561.896331 412.235462 
L 567.872926 412.233818 
L 573.849521 412.232203 
L 579.826116 412.230619 
L 585.802711 412.229068 
L 591.779306 412.227551 
L 597.755901 412.226068 
L 603.732496 412.22462 
L 609.709091 412.22321 
L 615.685686 412.221838 
L 621.662281 412.220504 
L 627.638876 412.219211 
L 633.615471 412.217959 
L 639.592066 412.216749 
L 645.568661 412.215581 
L 651.545256 412.214458 
L 657.521851 412.21338 
L 663.498446 412.212348 
L 669.475041 412.211362 
L 675.451636 412.210424 
L 681.428231 412.209534 
L 687.404826 412.208694 
L 693.381421 412.207902 
L 699.358017 412.207162 
L 705.334612 412.206472 
L 711.311207 412.205834 
L 717.287802 412.205249 
L 723.264397 412.204715 
L 729.240992 412.204236 
L 735.217587 412.203809 
L 741.194182 412.203437 
L 747.170777 412.203119 
L 753.147372 412.202856 
L 759.123967 412.202647 
L 765.100562 412.202493 
L 771.077157 412.202395 
L 777.053752 412.202351 
L 783.030347 412.202363 
L 789.006942 412.202431 
L 794.983537 412.202553 
L 800.960132 412.20273 
L 806.936727 412.202963 
" style="fill:none;stroke:#2ca02c;stroke-linecap:square;stroke-width:1.5;"/>
   </g>
   <g id="line2d_23">
    <path clip-path="url(#pe19ec2c129)" d="M 149.511273 412.452 
L 155.487868 410.961527 
L 161.464463 409.445764 
L 167.441058 407.904405 
L 173.417653 406.337148 
L 179.394248 404.74369 
L 185.370843 403.123729 
L 191.347438 401.476968 
L 197.324033 399.803109 
L 203.300628 398.101858 
L 209.277223 396.372923 
L 215.253818 394.616015 
L 221.230413 392.830848 
L 227.207008 391.01714 
L 233.183603 389.174613 
L 239.160198 387.302991 
L 245.136793 385.402005 
L 251.113388 383.471389 
L 257.089983 381.510883 
L 263.066579 379.520231 
L 269.043174 377.499183 
L 275.019769 375.447497 
L 280.996364 373.364934 
L 286.972959 371.251265 
L 292.949554 369.106265 
L 298.926149 366.929719 
L 304.902744 364.721418 
L 310.879339 362.481162 
L 316.855934 360.208759 
L 322.832529 357.904027 
L 328.809124 355.566791 
L 334.785719 353.196889 
L 340.762314 350.794166 
L 346.738909 348.358478 
L 352.715504 345.889695 
L 358.692099 343.387693 
L 364.668694 340.852363 
L 370.645289 338.283609 
L 376.621884 335.681344 
L 382.598479 333.045496 
L 388.575074 330.376006 
L 394.551669 327.672828 
L 400.528264 324.93593 
L 406.50486 322.165296 
L 412.481455 319.360921 
L 418.45805 316.522819 
L 424.434645 313.651017 
L 430.41124 310.745558 
L 436.387835 307.806503 
L 442.36443 304.833926 
L 448.341025 301.827922 
L 454.31762 298.788599 
L 460.294215 295.716085 
L 466.27081 292.610525 
L 472.247405 289.472081 
L 478.224 286.300935 
L 484.200595 283.097285 
L 490.17719 279.861349 
L 496.153785 276.593365 
L 502.13038 273.293588 
L 508.106975 269.962294 
L 514.08357 266.599776 
L 520.060165 263.206349 
L 526.03676 259.782346 
L 532.013355 256.328121 
L 537.98995 252.844045 
L 543.966545 249.330513 
L 549.94314 245.787937 
L 555.919736 242.216748 
L 561.896331 238.6174 
L 567.872926 234.990364 
L 573.849521 231.336131 
L 579.826116 227.655213 
L 585.802711 223.948141 
L 591.779306 220.215462 
L 597.755901 216.457747 
L 603.732496 212.675583 
L 609.709091 208.869576 
L 615.685686 205.04035 
L 621.662281 201.188546 
L 627.638876 197.314827 
L 633.615471 193.419867 
L 639.592066 189.504362 
L 645.568661 185.569022 
L 651.545256 181.614573 
L 657.521851 177.641759 
L 663.498446 173.651335 
L 669.475041 169.644073 
L 675.451636 165.62076 
L 681.428231 161.582194 
L 687.404826 157.529188 
L 693.381421 153.462566 
L 699.358017 149.383163 
L 705.334612 145.291827 
L 711.311207 141.189413 
L 717.287802 137.07679 
L 723.264397 132.954831 
L 729.240992 128.824421 
L 735.217587 124.686451 
L 741.194182 120.541817 
L 747.170777 116.391424 
L 753.147372 112.236179 
L 759.123967 108.076995 
L 765.100562 103.914788 
L 771.077157 99.750477 
L 777.053752 95.584982 
L 783.030347 91.419225 
L 789.006942 87.254128 
L 794.983537 83.090612 
L 800.960132 78.929597 
L 806.936727 74.772 
" style="fill:none;stroke:#d62728;stroke-linecap:square;stroke-width:1.5;"/>
   </g>
   <g id="patch_3">
    <path d="M 116.64 429.336 
L 116.64 57.888 
" style="fill:none;stroke:#000000;stroke-linecap:square;stroke-linejoin:miter;stroke-width:0.8;"/>
   </g>
   <g id="patch_4">
    <path d="M 839.808 429.336 
L 839.808 57.888 
" style="fill:none;stroke:#000000;stroke-linecap:square;stroke-linejoin:miter;stroke-width:0.8;"/>
   </g>
   <g id="patch_5">
    <path d="M 116.64 429.336 
L 839.808 429.336 
" style="fill:none;stroke:#000000;stroke-linecap:square;stroke-linejoin:miter;stroke-width:0.8;"/>
   </g>
   <g id="patch_6">
    <path d="M 116.64 57.888 
L 839.808 57.888 
" style="fill:none;stroke:#000000;stroke-linecap:square;stroke-linejoin:miter;stroke-width:0.8;"/>
   </g>
   <g id="text_20">
    <!-- https://github.com/PavelDusek/COVID-19 -->
    <defs>
     <path d="M 54.890625 33.015625 
L 54.890625 0 
L 45.90625 0 
L 45.90625 32.71875 
Q 45.90625 40.484375 42.875 44.328125 
Q 39.84375 48.1875 33.796875 48.1875 
Q 26.515625 48.1875 22.3125 43.546875 
Q 18.109375 38.921875 18.109375 30.90625 
L 18.109375 0 
L 9.078125 0 
L 9.078125 75.984375 
L 18.109375 75.984375 
L 18.109375 46.1875 
Q 21.34375 51.125 25.703125 53.5625 
Q 30.078125 56 35.796875 56 
Q 45.21875 56 50.046875 50.171875 
Q 54.890625 44.34375 54.890625 33.015625 
z
" id="DejaVuSans-104"/>
     <path d="M 18.3125 70.21875 
L 18.3125 54.6875 
L 36.8125 54.6875 
L 36.8125 47.703125 
L 18.3125 47.703125 
L 18.3125 18.015625 
Q 18.3125 11.328125 20.140625 9.421875 
Q 21.96875 7.515625 27.59375 7.515625 
L 36.8125 7.515625 
L 36.8125 0 
L 27.59375 0 
Q 17.1875 0 13.234375 3.875 
Q 9.28125 7.765625 9.28125 18.015625 
L 9.28125 47.703125 
L 2.6875 47.703125 
L 2.6875 54.6875 
L 9.28125 54.6875 
L 9.28125 70.21875 
z
" id="DejaVuSans-116"/>
     <path d="M 18.109375 8.203125 
L 18.109375 -20.796875 
L 9.078125 -20.796875 
L 9.078125 54.6875 
L 18.109375 54.6875 
L 18.109375 46.390625 
Q 20.953125 51.265625 25.265625 53.625 
Q 29.59375 56 35.59375 56 
Q 45.5625 56 51.78125 48.09375 
Q 58.015625 40.1875 58.015625 27.296875 
Q 58.015625 14.40625 51.78125 6.484375 
Q 45.5625 -1.421875 35.59375 -1.421875 
Q 29.59375 -1.421875 25.265625 0.953125 
Q 20.953125 3.328125 18.109375 8.203125 
z
M 48.6875 27.296875 
Q 48.6875 37.203125 44.609375 42.84375 
Q 40.53125 48.484375 33.40625 48.484375 
Q 26.265625 48.484375 22.1875 42.84375 
Q 18.109375 37.203125 18.109375 27.296875 
Q 18.109375 17.390625 22.1875 11.75 
Q 26.265625 6.109375 33.40625 6.109375 
Q 40.53125 6.109375 44.609375 11.75 
Q 48.6875 17.390625 48.6875 27.296875 
z
" id="DejaVuSans-112"/>
     <path d="M 44.28125 53.078125 
L 44.28125 44.578125 
Q 40.484375 46.53125 36.375 47.5 
Q 32.28125 48.484375 27.875 48.484375 
Q 21.1875 48.484375 17.84375 46.4375 
Q 14.5 44.390625 14.5 40.28125 
Q 14.5 37.15625 16.890625 35.375 
Q 19.28125 33.59375 26.515625 31.984375 
L 29.59375 31.296875 
Q 39.15625 29.25 43.1875 25.515625 
Q 47.21875 21.78125 47.21875 15.09375 
Q 47.21875 7.46875 41.1875 3.015625 
Q 35.15625 -1.421875 24.609375 -1.421875 
Q 20.21875 -1.421875 15.453125 -0.5625 
Q 10.6875 0.296875 5.421875 2 
L 5.421875 11.28125 
Q 10.40625 8.6875 15.234375 7.390625 
Q 20.0625 6.109375 24.8125 6.109375 
Q 31.15625 6.109375 34.5625 8.28125 
Q 37.984375 10.453125 37.984375 14.40625 
Q 37.984375 18.0625 35.515625 20.015625 
Q 33.0625 21.96875 24.703125 23.78125 
L 21.578125 24.515625 
Q 13.234375 26.265625 9.515625 29.90625 
Q 5.8125 33.546875 5.8125 39.890625 
Q 5.8125 47.609375 11.28125 51.796875 
Q 16.75 56 26.8125 56 
Q 31.78125 56 36.171875 55.265625 
Q 40.578125 54.546875 44.28125 53.078125 
z
" id="DejaVuSans-115"/>
     <path d="M 11.71875 12.40625 
L 22.015625 12.40625 
L 22.015625 0 
L 11.71875 0 
z
M 11.71875 51.703125 
L 22.015625 51.703125 
L 22.015625 39.3125 
L 11.71875 39.3125 
z
" id="DejaVuSans-58"/>
     <path d="M 25.390625 72.90625 
L 33.6875 72.90625 
L 8.296875 -9.28125 
L 0 -9.28125 
z
" id="DejaVuSans-47"/>
     <path d="M 45.40625 27.984375 
Q 45.40625 37.75 41.375 43.109375 
Q 37.359375 48.484375 30.078125 48.484375 
Q 22.859375 48.484375 18.828125 43.109375 
Q 14.796875 37.75 14.796875 27.984375 
Q 14.796875 18.265625 18.828125 12.890625 
Q 22.859375 7.515625 30.078125 7.515625 
Q 37.359375 7.515625 41.375 12.890625 
Q 45.40625 18.265625 45.40625 27.984375 
z
M 54.390625 6.78125 
Q 54.390625 -7.171875 48.1875 -13.984375 
Q 42 -20.796875 29.203125 -20.796875 
Q 24.46875 -20.796875 20.265625 -20.09375 
Q 16.0625 -19.390625 12.109375 -17.921875 
L 12.109375 -9.1875 
Q 16.0625 -11.328125 19.921875 -12.34375 
Q 23.78125 -13.375 27.78125 -13.375 
Q 36.625 -13.375 41.015625 -8.765625 
Q 45.40625 -4.15625 45.40625 5.171875 
L 45.40625 9.625 
Q 42.625 4.78125 38.28125 2.390625 
Q 33.9375 0 27.875 0 
Q 17.828125 0 11.671875 7.65625 
Q 5.515625 15.328125 5.515625 27.984375 
Q 5.515625 40.671875 11.671875 48.328125 
Q 17.828125 56 27.875 56 
Q 33.9375 56 38.28125 53.609375 
Q 42.625 51.21875 45.40625 46.390625 
L 45.40625 54.6875 
L 54.390625 54.6875 
z
" id="DejaVuSans-103"/>
     <path d="M 9.421875 54.6875 
L 18.40625 54.6875 
L 18.40625 0 
L 9.421875 0 
z
M 9.421875 75.984375 
L 18.40625 75.984375 
L 18.40625 64.59375 
L 9.421875 64.59375 
z
" id="DejaVuSans-105"/>
     <path d="M 8.5 21.578125 
L 8.5 54.6875 
L 17.484375 54.6875 
L 17.484375 21.921875 
Q 17.484375 14.15625 20.5 10.265625 
Q 23.53125 6.390625 29.59375 6.390625 
Q 36.859375 6.390625 41.078125 11.03125 
Q 45.3125 15.671875 45.3125 23.6875 
L 45.3125 54.6875 
L 54.296875 54.6875 
L 54.296875 0 
L 45.3125 0 
L 45.3125 8.40625 
Q 42.046875 3.421875 37.71875 1 
Q 33.40625 -1.421875 27.6875 -1.421875 
Q 18.265625 -1.421875 13.375 4.4375 
Q 8.5 10.296875 8.5 21.578125 
z
M 31.109375 56 
z
" id="DejaVuSans-117"/>
     <path d="M 48.6875 27.296875 
Q 48.6875 37.203125 44.609375 42.84375 
Q 40.53125 48.484375 33.40625 48.484375 
Q 26.265625 48.484375 22.1875 42.84375 
Q 18.109375 37.203125 18.109375 27.296875 
Q 18.109375 17.390625 22.1875 11.75 
Q 26.265625 6.109375 33.40625 6.109375 
Q 40.53125 6.109375 44.609375 11.75 
Q 48.6875 17.390625 48.6875 27.296875 
z
M 18.109375 46.390625 
Q 20.953125 51.265625 25.265625 53.625 
Q 29.59375 56 35.59375 56 
Q 45.5625 56 51.78125 48.09375 
Q 58.015625 40.1875 58.015625 27.296875 
Q 58.015625 14.40625 51.78125 6.484375 
Q 45.5625 -1.421875 35.59375 -1.421875 
Q 29.59375 -1.421875 25.265625 0.953125 
Q 20.953125 3.328125 18.109375 8.203125 
L 18.109375 0 
L 9.078125 0 
L 9.078125 75.984375 
L 18.109375 75.984375 
z
" id="DejaVuSans-98"/>
     <path d="M 10.6875 12.40625 
L 21 12.40625 
L 21 0 
L 10.6875 0 
z
" id="DejaVuSans-46"/>
     <path d="M 48.78125 52.59375 
L 48.78125 44.1875 
Q 44.96875 46.296875 41.140625 47.34375 
Q 37.3125 48.390625 33.40625 48.390625 
Q 24.65625 48.390625 19.8125 42.84375 
Q 14.984375 37.3125 14.984375 27.296875 
Q 14.984375 17.28125 19.8125 11.734375 
Q 24.65625 6.203125 33.40625 6.203125 
Q 37.3125 6.203125 41.140625 7.25 
Q 44.96875 8.296875 48.78125 10.40625 
L 48.78125 2.09375 
Q 45.015625 0.34375 40.984375 -0.53125 
Q 36.96875 -1.421875 32.421875 -1.421875 
Q 20.0625 -1.421875 12.78125 6.34375 
Q 5.515625 14.109375 5.515625 27.296875 
Q 5.515625 40.671875 12.859375 48.328125 
Q 20.21875 56 33.015625 56 
Q 37.15625 56 41.109375 55.140625 
Q 45.0625 54.296875 48.78125 52.59375 
z
" id="DejaVuSans-99"/>
     <path d="M 30.609375 48.390625 
Q 23.390625 48.390625 19.1875 42.75 
Q 14.984375 37.109375 14.984375 27.296875 
Q 14.984375 17.484375 19.15625 11.84375 
Q 23.34375 6.203125 30.609375 6.203125 
Q 37.796875 6.203125 41.984375 11.859375 
Q 46.1875 17.53125 46.1875 27.296875 
Q 46.1875 37.015625 41.984375 42.703125 
Q 37.796875 48.390625 30.609375 48.390625 
z
M 30.609375 56 
Q 42.328125 56 49.015625 48.375 
Q 55.71875 40.765625 55.71875 27.296875 
Q 55.71875 13.875 49.015625 6.21875 
Q 42.328125 -1.421875 30.609375 -1.421875 
Q 18.84375 -1.421875 12.171875 6.21875 
Q 5.515625 13.875 5.515625 27.296875 
Q 5.515625 40.765625 12.171875 48.375 
Q 18.84375 56 30.609375 56 
z
" id="DejaVuSans-111"/>
     <path d="M 52 44.1875 
Q 55.375 50.25 60.0625 53.125 
Q 64.75 56 71.09375 56 
Q 79.640625 56 84.28125 50.015625 
Q 88.921875 44.046875 88.921875 33.015625 
L 88.921875 0 
L 79.890625 0 
L 79.890625 32.71875 
Q 79.890625 40.578125 77.09375 44.375 
Q 74.3125 48.1875 68.609375 48.1875 
Q 61.625 48.1875 57.5625 43.546875 
Q 53.515625 38.921875 53.515625 30.90625 
L 53.515625 0 
L 44.484375 0 
L 44.484375 32.71875 
Q 44.484375 40.625 41.703125 44.40625 
Q 38.921875 48.1875 33.109375 48.1875 
Q 26.21875 48.1875 22.15625 43.53125 
Q 18.109375 38.875 18.109375 30.90625 
L 18.109375 0 
L 9.078125 0 
L 9.078125 54.6875 
L 18.109375 54.6875 
L 18.109375 46.1875 
Q 21.1875 51.21875 25.484375 53.609375 
Q 29.78125 56 35.6875 56 
Q 41.65625 56 45.828125 52.96875 
Q 50 49.953125 52 44.1875 
z
" id="DejaVuSans-109"/>
     <path d="M 19.671875 64.796875 
L 19.671875 37.40625 
L 32.078125 37.40625 
Q 38.96875 37.40625 42.71875 40.96875 
Q 46.484375 44.53125 46.484375 51.125 
Q 46.484375 57.671875 42.71875 61.234375 
Q 38.96875 64.796875 32.078125 64.796875 
z
M 9.8125 72.90625 
L 32.078125 72.90625 
Q 44.34375 72.90625 50.609375 67.359375 
Q 56.890625 61.8125 56.890625 51.125 
Q 56.890625 40.328125 50.609375 34.8125 
Q 44.34375 29.296875 32.078125 29.296875 
L 19.671875 29.296875 
L 19.671875 0 
L 9.8125 0 
z
" id="DejaVuSans-80"/>
     <path d="M 34.28125 27.484375 
Q 23.390625 27.484375 19.1875 25 
Q 14.984375 22.515625 14.984375 16.5 
Q 14.984375 11.71875 18.140625 8.90625 
Q 21.296875 6.109375 26.703125 6.109375 
Q 34.1875 6.109375 38.703125 11.40625 
Q 43.21875 16.703125 43.21875 25.484375 
L 43.21875 27.484375 
z
M 52.203125 31.203125 
L 52.203125 0 
L 43.21875 0 
L 43.21875 8.296875 
Q 40.140625 3.328125 35.546875 0.953125 
Q 30.953125 -1.421875 24.3125 -1.421875 
Q 15.921875 -1.421875 10.953125 3.296875 
Q 6 8.015625 6 15.921875 
Q 6 25.140625 12.171875 29.828125 
Q 18.359375 34.515625 30.609375 34.515625 
L 43.21875 34.515625 
L 43.21875 35.40625 
Q 43.21875 41.609375 39.140625 45 
Q 35.0625 48.390625 27.6875 48.390625 
Q 23 48.390625 18.546875 47.265625 
Q 14.109375 46.140625 10.015625 43.890625 
L 10.015625 52.203125 
Q 14.9375 54.109375 19.578125 55.046875 
Q 24.21875 56 28.609375 56 
Q 40.484375 56 46.34375 49.84375 
Q 52.203125 43.703125 52.203125 31.203125 
z
" id="DejaVuSans-97"/>
     <path d="M 2.984375 54.6875 
L 12.5 54.6875 
L 29.59375 8.796875 
L 46.6875 54.6875 
L 56.203125 54.6875 
L 35.6875 0 
L 23.484375 0 
z
" id="DejaVuSans-118"/>
     <path d="M 56.203125 29.59375 
L 56.203125 25.203125 
L 14.890625 25.203125 
Q 15.484375 15.921875 20.484375 11.0625 
Q 25.484375 6.203125 34.421875 6.203125 
Q 39.59375 6.203125 44.453125 7.46875 
Q 49.3125 8.734375 54.109375 11.28125 
L 54.109375 2.78125 
Q 49.265625 0.734375 44.1875 -0.34375 
Q 39.109375 -1.421875 33.890625 -1.421875 
Q 20.796875 -1.421875 13.15625 6.1875 
Q 5.515625 13.8125 5.515625 26.8125 
Q 5.515625 40.234375 12.765625 48.109375 
Q 20.015625 56 32.328125 56 
Q 43.359375 56 49.78125 48.890625 
Q 56.203125 41.796875 56.203125 29.59375 
z
M 47.21875 32.234375 
Q 47.125 39.59375 43.09375 43.984375 
Q 39.0625 48.390625 32.421875 48.390625 
Q 24.90625 48.390625 20.390625 44.140625 
Q 15.875 39.890625 15.1875 32.171875 
z
" id="DejaVuSans-101"/>
     <path d="M 9.421875 75.984375 
L 18.40625 75.984375 
L 18.40625 0 
L 9.421875 0 
z
" id="DejaVuSans-108"/>
     <path d="M 19.671875 64.796875 
L 19.671875 8.109375 
L 31.59375 8.109375 
Q 46.6875 8.109375 53.6875 14.9375 
Q 60.6875 21.78125 60.6875 36.53125 
Q 60.6875 51.171875 53.6875 57.984375 
Q 46.6875 64.796875 31.59375 64.796875 
z
M 9.8125 72.90625 
L 30.078125 72.90625 
Q 51.265625 72.90625 61.171875 64.09375 
Q 71.09375 55.28125 71.09375 36.53125 
Q 71.09375 17.671875 61.125 8.828125 
Q 51.171875 0 30.078125 0 
L 9.8125 0 
z
" id="DejaVuSans-68"/>
     <path d="M 9.078125 75.984375 
L 18.109375 75.984375 
L 18.109375 31.109375 
L 44.921875 54.6875 
L 56.390625 54.6875 
L 27.390625 29.109375 
L 57.625 0 
L 45.90625 0 
L 18.109375 26.703125 
L 18.109375 0 
L 9.078125 0 
z
" id="DejaVuSans-107"/>
     <path d="M 64.40625 67.28125 
L 64.40625 56.890625 
Q 59.421875 61.53125 53.78125 63.8125 
Q 48.140625 66.109375 41.796875 66.109375 
Q 29.296875 66.109375 22.65625 58.46875 
Q 16.015625 50.828125 16.015625 36.375 
Q 16.015625 21.96875 22.65625 14.328125 
Q 29.296875 6.6875 41.796875 6.6875 
Q 48.140625 6.6875 53.78125 8.984375 
Q 59.421875 11.28125 64.40625 15.921875 
L 64.40625 5.609375 
Q 59.234375 2.09375 53.4375 0.328125 
Q 47.65625 -1.421875 41.21875 -1.421875 
Q 24.65625 -1.421875 15.125 8.703125 
Q 5.609375 18.84375 5.609375 36.375 
Q 5.609375 53.953125 15.125 64.078125 
Q 24.65625 74.21875 41.21875 74.21875 
Q 47.75 74.21875 53.53125 72.484375 
Q 59.328125 70.75 64.40625 67.28125 
z
" id="DejaVuSans-67"/>
     <path d="M 39.40625 66.21875 
Q 28.65625 66.21875 22.328125 58.203125 
Q 16.015625 50.203125 16.015625 36.375 
Q 16.015625 22.609375 22.328125 14.59375 
Q 28.65625 6.59375 39.40625 6.59375 
Q 50.140625 6.59375 56.421875 14.59375 
Q 62.703125 22.609375 62.703125 36.375 
Q 62.703125 50.203125 56.421875 58.203125 
Q 50.140625 66.21875 39.40625 66.21875 
z
M 39.40625 74.21875 
Q 54.734375 74.21875 63.90625 63.9375 
Q 73.09375 53.65625 73.09375 36.375 
Q 73.09375 19.140625 63.90625 8.859375 
Q 54.734375 -1.421875 39.40625 -1.421875 
Q 24.03125 -1.421875 14.8125 8.828125 
Q 5.609375 19.09375 5.609375 36.375 
Q 5.609375 53.65625 14.8125 63.9375 
Q 24.03125 74.21875 39.40625 74.21875 
z
" id="DejaVuSans-79"/>
     <path d="M 28.609375 0 
L 0.78125 72.90625 
L 11.078125 72.90625 
L 34.1875 11.53125 
L 57.328125 72.90625 
L 67.578125 72.90625 
L 39.796875 0 
z
" id="DejaVuSans-86"/>
     <path d="M 9.8125 72.90625 
L 19.671875 72.90625 
L 19.671875 0 
L 9.8125 0 
z
" id="DejaVuSans-73"/>
    </defs>
    <g transform="translate(354.591188 11.575875)scale(0.12 -0.12)">
     <use xlink:href="#DejaVuSans-104"/>
     <use x="63.378906" xlink:href="#DejaVuSans-116"/>
     <use x="102.587891" xlink:href="#DejaVuSans-116"/>
     <use x="141.796875" xlink:href="#DejaVuSans-112"/>
     <use x="205.273438" xlink:href="#DejaVuSans-115"/>
     <use x="257.373047" xlink:href="#DejaVuSans-58"/>
     <use x="291.064453" xlink:href="#DejaVuSans-47"/>
     <use x="324.755859" xlink:href="#DejaVuSans-47"/>
     <use x="358.447266" xlink:href="#DejaVuSans-103"/>
     <use x="421.923828" xlink:href="#DejaVuSans-105"/>
     <use x="449.707031" xlink:href="#DejaVuSans-116"/>
     <use x="488.916016" xlink:href="#DejaVuSans-104"/>
     <use x="552.294922" xlink:href="#DejaVuSans-117"/>
     <use x="615.673828" xlink:href="#DejaVuSans-98"/>
     <use x="679.150391" xlink:href="#DejaVuSans-46"/>
     <use x="710.9375" xlink:href="#DejaVuSans-99"/>
     <use x="765.917969" xlink:href="#DejaVuSans-111"/>
     <use x="827.099609" xlink:href="#DejaVuSans-109"/>
     <use x="924.511719" xlink:href="#DejaVuSans-47"/>
     <use x="958.203125" xlink:href="#DejaVuSans-80"/>
     <use x="1018.443359" xlink:href="#DejaVuSans-97"/>
     <use x="1079.722656" xlink:href="#DejaVuSans-118"/>
     <use x="1138.902344" xlink:href="#DejaVuSans-101"/>
     <use x="1200.425781" xlink:href="#DejaVuSans-108"/>
     <use x="1228.208984" xlink:href="#DejaVuSans-68"/>
     <use x="1305.210938" xlink:href="#DejaVuSans-117"/>
     <use x="1368.589844" xlink:href="#DejaVuSans-115"/>
     <use x="1420.689453" xlink:href="#DejaVuSans-101"/>
     <use x="1482.212891" xlink:href="#DejaVuSans-107"/>
     <use x="1540.123047" xlink:href="#DejaVuSans-47"/>
     <use x="1573.814453" xlink:href="#DejaVuSans-67"/>
     <use x="1643.638672" xlink:href="#DejaVuSans-79"/>
     <use x="1722.333984" xlink:href="#DejaVuSans-86"/>
     <use x="1790.742188" xlink:href="#DejaVuSans-73"/>
     <use x="1820.234375" xlink:href="#DejaVuSans-68"/>
     <use x="1897.236328" xlink:href="#DejaVuSans-45"/>
     <use x="1933.320312" xlink:href="#DejaVuSans-49"/>
     <use x="1996.943359" xlink:href="#DejaVuSans-57"/>
    </g>
    <!-- SIR model for the Czech Republic -->
    <defs>
     <path d="M 53.515625 70.515625 
L 53.515625 60.890625 
Q 47.90625 63.578125 42.921875 64.890625 
Q 37.9375 66.21875 33.296875 66.21875 
Q 25.25 66.21875 20.875 63.09375 
Q 16.5 59.96875 16.5 54.203125 
Q 16.5 49.359375 19.40625 46.890625 
Q 22.3125 44.4375 30.421875 42.921875 
L 36.375 41.703125 
Q 47.40625 39.59375 52.65625 34.296875 
Q 57.90625 29 57.90625 20.125 
Q 57.90625 9.515625 50.796875 4.046875 
Q 43.703125 -1.421875 29.984375 -1.421875 
Q 24.8125 -1.421875 18.96875 -0.25 
Q 13.140625 0.921875 6.890625 3.21875 
L 6.890625 13.375 
Q 12.890625 10.015625 18.65625 8.296875 
Q 24.421875 6.59375 29.984375 6.59375 
Q 38.421875 6.59375 43.015625 9.90625 
Q 47.609375 13.234375 47.609375 19.390625 
Q 47.609375 24.75 44.3125 27.78125 
Q 41.015625 30.8125 33.5 32.328125 
L 27.484375 33.5 
Q 16.453125 35.6875 11.515625 40.375 
Q 6.59375 45.0625 6.59375 53.421875 
Q 6.59375 63.09375 13.40625 68.65625 
Q 20.21875 74.21875 32.171875 74.21875 
Q 37.3125 74.21875 42.625 73.28125 
Q 47.953125 72.359375 53.515625 70.515625 
z
" id="DejaVuSans-83"/>
     <path d="M 44.390625 34.1875 
Q 47.5625 33.109375 50.5625 29.59375 
Q 53.5625 26.078125 56.59375 19.921875 
L 66.609375 0 
L 56 0 
L 46.6875 18.703125 
Q 43.0625 26.03125 39.671875 28.421875 
Q 36.28125 30.8125 30.421875 30.8125 
L 19.671875 30.8125 
L 19.671875 0 
L 9.8125 0 
L 9.8125 72.90625 
L 32.078125 72.90625 
Q 44.578125 72.90625 50.734375 67.671875 
Q 56.890625 62.453125 56.890625 51.90625 
Q 56.890625 45.015625 53.6875 40.46875 
Q 50.484375 35.9375 44.390625 34.1875 
z
M 19.671875 64.796875 
L 19.671875 38.921875 
L 32.078125 38.921875 
Q 39.203125 38.921875 42.84375 42.21875 
Q 46.484375 45.515625 46.484375 51.90625 
Q 46.484375 58.296875 42.84375 61.546875 
Q 39.203125 64.796875 32.078125 64.796875 
z
" id="DejaVuSans-82"/>
     <path id="DejaVuSans-32"/>
     <path d="M 45.40625 46.390625 
L 45.40625 75.984375 
L 54.390625 75.984375 
L 54.390625 0 
L 45.40625 0 
L 45.40625 8.203125 
Q 42.578125 3.328125 38.25 0.953125 
Q 33.9375 -1.421875 27.875 -1.421875 
Q 17.96875 -1.421875 11.734375 6.484375 
Q 5.515625 14.40625 5.515625 27.296875 
Q 5.515625 40.1875 11.734375 48.09375 
Q 17.96875 56 27.875 56 
Q 33.9375 56 38.25 53.625 
Q 42.578125 51.265625 45.40625 46.390625 
z
M 14.796875 27.296875 
Q 14.796875 17.390625 18.875 11.75 
Q 22.953125 6.109375 30.078125 6.109375 
Q 37.203125 6.109375 41.296875 11.75 
Q 45.40625 17.390625 45.40625 27.296875 
Q 45.40625 37.203125 41.296875 42.84375 
Q 37.203125 48.484375 30.078125 48.484375 
Q 22.953125 48.484375 18.875 42.84375 
Q 14.796875 37.203125 14.796875 27.296875 
z
" id="DejaVuSans-100"/>
     <path d="M 37.109375 75.984375 
L 37.109375 68.5 
L 28.515625 68.5 
Q 23.6875 68.5 21.796875 66.546875 
Q 19.921875 64.59375 19.921875 59.515625 
L 19.921875 54.6875 
L 34.71875 54.6875 
L 34.71875 47.703125 
L 19.921875 47.703125 
L 19.921875 0 
L 10.890625 0 
L 10.890625 47.703125 
L 2.296875 47.703125 
L 2.296875 54.6875 
L 10.890625 54.6875 
L 10.890625 58.5 
Q 10.890625 67.625 15.140625 71.796875 
Q 19.390625 75.984375 28.609375 75.984375 
z
" id="DejaVuSans-102"/>
     <path d="M 41.109375 46.296875 
Q 39.59375 47.171875 37.8125 47.578125 
Q 36.03125 48 33.890625 48 
Q 26.265625 48 22.1875 43.046875 
Q 18.109375 38.09375 18.109375 28.8125 
L 18.109375 0 
L 9.078125 0 
L 9.078125 54.6875 
L 18.109375 54.6875 
L 18.109375 46.1875 
Q 20.953125 51.171875 25.484375 53.578125 
Q 30.03125 56 36.53125 56 
Q 37.453125 56 38.578125 55.875 
Q 39.703125 55.765625 41.0625 55.515625 
z
" id="DejaVuSans-114"/>
     <path d="M 5.515625 54.6875 
L 48.1875 54.6875 
L 48.1875 46.484375 
L 14.40625 7.171875 
L 48.1875 7.171875 
L 48.1875 0 
L 4.296875 0 
L 4.296875 8.203125 
L 38.09375 47.515625 
L 5.515625 47.515625 
z
" id="DejaVuSans-122"/>
    </defs>
    <g transform="translate(378.118688 25.01325)scale(0.12 -0.12)">
     <use xlink:href="#DejaVuSans-83"/>
     <use x="63.476562" xlink:href="#DejaVuSans-73"/>
     <use x="92.96875" xlink:href="#DejaVuSans-82"/>
     <use x="162.451172" xlink:href="#DejaVuSans-32"/>
     <use x="194.238281" xlink:href="#DejaVuSans-109"/>
     <use x="291.650391" xlink:href="#DejaVuSans-111"/>
     <use x="352.832031" xlink:href="#DejaVuSans-100"/>
     <use x="416.308594" xlink:href="#DejaVuSans-101"/>
     <use x="477.832031" xlink:href="#DejaVuSans-108"/>
     <use x="505.615234" xlink:href="#DejaVuSans-32"/>
     <use x="537.402344" xlink:href="#DejaVuSans-102"/>
     <use x="572.607422" xlink:href="#DejaVuSans-111"/>
     <use x="633.789062" xlink:href="#DejaVuSans-114"/>
     <use x="674.902344" xlink:href="#DejaVuSans-32"/>
     <use x="706.689453" xlink:href="#DejaVuSans-116"/>
     <use x="745.898438" xlink:href="#DejaVuSans-104"/>
     <use x="809.277344" xlink:href="#DejaVuSans-101"/>
     <use x="870.800781" xlink:href="#DejaVuSans-32"/>
     <use x="902.587891" xlink:href="#DejaVuSans-67"/>
     <use x="972.412109" xlink:href="#DejaVuSans-122"/>
     <use x="1024.902344" xlink:href="#DejaVuSans-101"/>
     <use x="1086.425781" xlink:href="#DejaVuSans-99"/>
     <use x="1141.40625" xlink:href="#DejaVuSans-104"/>
     <use x="1204.785156" xlink:href="#DejaVuSans-32"/>
     <use x="1236.572266" xlink:href="#DejaVuSans-82"/>
     <use x="1305.992188" xlink:href="#DejaVuSans-101"/>
     <use x="1367.515625" xlink:href="#DejaVuSans-112"/>
     <use x="1430.992188" xlink:href="#DejaVuSans-117"/>
     <use x="1494.371094" xlink:href="#DejaVuSans-98"/>
     <use x="1557.847656" xlink:href="#DejaVuSans-108"/>
     <use x="1585.630859" xlink:href="#DejaVuSans-105"/>
     <use x="1613.414062" xlink:href="#DejaVuSans-99"/>
    </g>
    <!-- parameters estimated based on data from 2020-06-06 -->
    <defs>
     <path d="M 54.890625 33.015625 
L 54.890625 0 
L 45.90625 0 
L 45.90625 32.71875 
Q 45.90625 40.484375 42.875 44.328125 
Q 39.84375 48.1875 33.796875 48.1875 
Q 26.515625 48.1875 22.3125 43.546875 
Q 18.109375 38.921875 18.109375 30.90625 
L 18.109375 0 
L 9.078125 0 
L 9.078125 54.6875 
L 18.109375 54.6875 
L 18.109375 46.1875 
Q 21.34375 51.125 25.703125 53.5625 
Q 30.078125 56 35.796875 56 
Q 45.21875 56 50.046875 50.171875 
Q 54.890625 44.34375 54.890625 33.015625 
z
" id="DejaVuSans-110"/>
    </defs>
    <g transform="translate(313.706813 38.450625)scale(0.12 -0.12)">
     <use xlink:href="#DejaVuSans-112"/>
     <use x="63.476562" xlink:href="#DejaVuSans-97"/>
     <use x="124.755859" xlink:href="#DejaVuSans-114"/>
     <use x="165.869141" xlink:href="#DejaVuSans-97"/>
     <use x="227.148438" xlink:href="#DejaVuSans-109"/>
     <use x="324.560547" xlink:href="#DejaVuSans-101"/>
     <use x="386.083984" xlink:href="#DejaVuSans-116"/>
     <use x="425.292969" xlink:href="#DejaVuSans-101"/>
     <use x="486.816406" xlink:href="#DejaVuSans-114"/>
     <use x="527.929688" xlink:href="#DejaVuSans-115"/>
     <use x="580.029297" xlink:href="#DejaVuSans-32"/>
     <use x="611.816406" xlink:href="#DejaVuSans-101"/>
     <use x="673.339844" xlink:href="#DejaVuSans-115"/>
     <use x="725.439453" xlink:href="#DejaVuSans-116"/>
     <use x="764.648438" xlink:href="#DejaVuSans-105"/>
     <use x="792.431641" xlink:href="#DejaVuSans-109"/>
     <use x="889.84375" xlink:href="#DejaVuSans-97"/>
     <use x="951.123047" xlink:href="#DejaVuSans-116"/>
     <use x="990.332031" xlink:href="#DejaVuSans-101"/>
     <use x="1051.855469" xlink:href="#DejaVuSans-100"/>
     <use x="1115.332031" xlink:href="#DejaVuSans-32"/>
     <use x="1147.119141" xlink:href="#DejaVuSans-98"/>
     <use x="1210.595703" xlink:href="#DejaVuSans-97"/>
     <use x="1271.875" xlink:href="#DejaVuSans-115"/>
     <use x="1323.974609" xlink:href="#DejaVuSans-101"/>
     <use x="1385.498047" xlink:href="#DejaVuSans-100"/>
     <use x="1448.974609" xlink:href="#DejaVuSans-32"/>
     <use x="1480.761719" xlink:href="#DejaVuSans-111"/>
     <use x="1541.943359" xlink:href="#DejaVuSans-110"/>
     <use x="1605.322266" xlink:href="#DejaVuSans-32"/>
     <use x="1637.109375" xlink:href="#DejaVuSans-100"/>
     <use x="1700.585938" xlink:href="#DejaVuSans-97"/>
     <use x="1761.865234" xlink:href="#DejaVuSans-116"/>
     <use x="1801.074219" xlink:href="#DejaVuSans-97"/>
     <use x="1862.353516" xlink:href="#DejaVuSans-32"/>
     <use x="1894.140625" xlink:href="#DejaVuSans-102"/>
     <use x="1929.345703" xlink:href="#DejaVuSans-114"/>
     <use x="1970.427734" xlink:href="#DejaVuSans-111"/>
     <use x="2031.609375" xlink:href="#DejaVuSans-109"/>
     <use x="2129.021484" xlink:href="#DejaVuSans-32"/>
     <use x="2160.808594" xlink:href="#DejaVuSans-50"/>
     <use x="2224.431641" xlink:href="#DejaVuSans-48"/>
     <use x="2288.054688" xlink:href="#DejaVuSans-50"/>
     <use x="2351.677734" xlink:href="#DejaVuSans-48"/>
     <use x="2415.300781" xlink:href="#DejaVuSans-45"/>
     <use x="2451.384766" xlink:href="#DejaVuSans-48"/>
     <use x="2515.007812" xlink:href="#DejaVuSans-54"/>
     <use x="2578.630859" xlink:href="#DejaVuSans-45"/>
     <use x="2614.714844" xlink:href="#DejaVuSans-48"/>
     <use x="2678.337891" xlink:href="#DejaVuSans-54"/>
    </g>
    <!-- beta = 1/0.06, gamma = 1/0.06, R0 = 1.00 -->
    <defs>
     <path d="M 10.59375 45.40625 
L 73.1875 45.40625 
L 73.1875 37.203125 
L 10.59375 37.203125 
z
M 10.59375 25.484375 
L 73.1875 25.484375 
L 73.1875 17.1875 
L 10.59375 17.1875 
z
" id="DejaVuSans-61"/>
     <path d="M 11.71875 12.40625 
L 22.015625 12.40625 
L 22.015625 4 
L 14.015625 -11.625 
L 7.71875 -11.625 
L 11.71875 4 
z
" id="DejaVuSans-44"/>
    </defs>
    <g transform="translate(347.948063 51.888)scale(0.12 -0.12)">
     <use xlink:href="#DejaVuSans-98"/>
     <use x="63.476562" xlink:href="#DejaVuSans-101"/>
     <use x="125" xlink:href="#DejaVuSans-116"/>
     <use x="164.208984" xlink:href="#DejaVuSans-97"/>
     <use x="225.488281" xlink:href="#DejaVuSans-32"/>
     <use x="257.275391" xlink:href="#DejaVuSans-61"/>
     <use x="341.064453" xlink:href="#DejaVuSans-32"/>
     <use x="372.851562" xlink:href="#DejaVuSans-49"/>
     <use x="436.474609" xlink:href="#DejaVuSans-47"/>
     <use x="470.166016" xlink:href="#DejaVuSans-48"/>
     <use x="533.789062" xlink:href="#DejaVuSans-46"/>
     <use x="565.576172" xlink:href="#DejaVuSans-48"/>
     <use x="629.199219" xlink:href="#DejaVuSans-54"/>
     <use x="692.822266" xlink:href="#DejaVuSans-44"/>
     <use x="724.609375" xlink:href="#DejaVuSans-32"/>
     <use x="756.396484" xlink:href="#DejaVuSans-103"/>
     <use x="819.873047" xlink:href="#DejaVuSans-97"/>
     <use x="881.152344" xlink:href="#DejaVuSans-109"/>
     <use x="978.564453" xlink:href="#DejaVuSans-109"/>
     <use x="1075.976562" xlink:href="#DejaVuSans-97"/>
     <use x="1137.255859" xlink:href="#DejaVuSans-32"/>
     <use x="1169.042969" xlink:href="#DejaVuSans-61"/>
     <use x="1252.832031" xlink:href="#DejaVuSans-32"/>
     <use x="1284.619141" xlink:href="#DejaVuSans-49"/>
     <use x="1348.242188" xlink:href="#DejaVuSans-47"/>
     <use x="1381.933594" xlink:href="#DejaVuSans-48"/>
     <use x="1445.556641" xlink:href="#DejaVuSans-46"/>
     <use x="1477.34375" xlink:href="#DejaVuSans-48"/>
     <use x="1540.966797" xlink:href="#DejaVuSans-54"/>
     <use x="1604.589844" xlink:href="#DejaVuSans-44"/>
     <use x="1636.376953" xlink:href="#DejaVuSans-32"/>
     <use x="1668.164062" xlink:href="#DejaVuSans-82"/>
     <use x="1737.646484" xlink:href="#DejaVuSans-48"/>
     <use x="1801.269531" xlink:href="#DejaVuSans-32"/>
     <use x="1833.056641" xlink:href="#DejaVuSans-61"/>
     <use x="1916.845703" xlink:href="#DejaVuSans-32"/>
     <use x="1948.632812" xlink:href="#DejaVuSans-49"/>
     <use x="2012.255859" xlink:href="#DejaVuSans-46"/>
     <use x="2044.042969" xlink:href="#DejaVuSans-48"/>
     <use x="2107.666016" xlink:href="#DejaVuSans-48"/>
    </g>
   </g>
   <g id="legend_1">
    <g id="patch_7">
     <path d="M 123.64 124.6005 
L 374.6275 124.6005 
Q 376.6275 124.6005 376.6275 122.6005 
L 376.6275 64.888 
Q 376.6275 62.888 374.6275 62.888 
L 123.64 62.888 
Q 121.64 62.888 121.64 64.888 
L 121.64 122.6005 
Q 121.64 124.6005 123.64 124.6005 
z
" style="fill:#ffffff;opacity:0.8;stroke:#cccccc;stroke-linejoin:miter;"/>
    </g>
    <g id="line2d_24">
     <path d="M 125.64 70.986438 
L 145.64 70.986438 
" style="fill:none;stroke:#1f77b4;stroke-linecap:square;stroke-width:1.5;"/>
    </g>
    <g id="line2d_25"/>
    <g id="text_21">
     <!-- Real Data  Infected -->
     <defs>
      <path d="M 4.890625 30.90625 
L 45.125 30.90625 
L 45.125 23.875 
L 4.890625 23.875 
z
" id="DejaVuSans-8211"/>
     </defs>
     <g transform="translate(153.64 74.486438)scale(0.1 -0.1)">
      <use xlink:href="#DejaVuSans-82"/>
      <use x="69.419922" xlink:href="#DejaVuSans-101"/>
      <use x="130.943359" xlink:href="#DejaVuSans-97"/>
      <use x="192.222656" xlink:href="#DejaVuSans-108"/>
      <use x="220.005859" xlink:href="#DejaVuSans-32"/>
      <use x="251.792969" xlink:href="#DejaVuSans-68"/>
      <use x="328.794922" xlink:href="#DejaVuSans-97"/>
      <use x="390.074219" xlink:href="#DejaVuSans-116"/>
      <use x="429.283203" xlink:href="#DejaVuSans-97"/>
      <use x="490.5625" xlink:href="#DejaVuSans-32"/>
      <use x="522.349609" xlink:href="#DejaVuSans-8211"/>
      <use x="572.349609" xlink:href="#DejaVuSans-32"/>
      <use x="604.136719" xlink:href="#DejaVuSans-73"/>
      <use x="633.628906" xlink:href="#DejaVuSans-110"/>
      <use x="697.007812" xlink:href="#DejaVuSans-102"/>
      <use x="732.212891" xlink:href="#DejaVuSans-101"/>
      <use x="793.736328" xlink:href="#DejaVuSans-99"/>
      <use x="848.716797" xlink:href="#DejaVuSans-116"/>
      <use x="887.925781" xlink:href="#DejaVuSans-101"/>
      <use x="949.449219" xlink:href="#DejaVuSans-100"/>
     </g>
    </g>
    <g id="line2d_26">
     <path d="M 125.64 85.664563 
L 145.64 85.664563 
" style="fill:none;stroke:#ff7f0e;stroke-linecap:square;stroke-width:1.5;"/>
    </g>
    <g id="line2d_27"/>
    <g id="text_22">
     <!-- Real Data  Removed (Recovered or Death) -->
     <defs>
      <path d="M 31 75.875 
Q 24.46875 64.65625 21.28125 53.65625 
Q 18.109375 42.671875 18.109375 31.390625 
Q 18.109375 20.125 21.3125 9.0625 
Q 24.515625 -2 31 -13.1875 
L 23.1875 -13.1875 
Q 15.875 -1.703125 12.234375 9.375 
Q 8.59375 20.453125 8.59375 31.390625 
Q 8.59375 42.28125 12.203125 53.3125 
Q 15.828125 64.359375 23.1875 75.875 
z
" id="DejaVuSans-40"/>
      <path d="M 8.015625 75.875 
L 15.828125 75.875 
Q 23.140625 64.359375 26.78125 53.3125 
Q 30.421875 42.28125 30.421875 31.390625 
Q 30.421875 20.453125 26.78125 9.375 
Q 23.140625 -1.703125 15.828125 -13.1875 
L 8.015625 -13.1875 
Q 14.5 -2 17.703125 9.0625 
Q 20.90625 20.125 20.90625 31.390625 
Q 20.90625 42.671875 17.703125 53.65625 
Q 14.5 64.65625 8.015625 75.875 
z
" id="DejaVuSans-41"/>
     </defs>
     <g transform="translate(153.64 89.164563)scale(0.1 -0.1)">
      <use xlink:href="#DejaVuSans-82"/>
      <use x="69.419922" xlink:href="#DejaVuSans-101"/>
      <use x="130.943359" xlink:href="#DejaVuSans-97"/>
      <use x="192.222656" xlink:href="#DejaVuSans-108"/>
      <use x="220.005859" xlink:href="#DejaVuSans-32"/>
      <use x="251.792969" xlink:href="#DejaVuSans-68"/>
      <use x="328.794922" xlink:href="#DejaVuSans-97"/>
      <use x="390.074219" xlink:href="#DejaVuSans-116"/>
      <use x="429.283203" xlink:href="#DejaVuSans-97"/>
      <use x="490.5625" xlink:href="#DejaVuSans-32"/>
      <use x="522.349609" xlink:href="#DejaVuSans-8211"/>
      <use x="572.349609" xlink:href="#DejaVuSans-32"/>
      <use x="604.136719" xlink:href="#DejaVuSans-82"/>
      <use x="673.556641" xlink:href="#DejaVuSans-101"/>
      <use x="735.080078" xlink:href="#DejaVuSans-109"/>
      <use x="832.492188" xlink:href="#DejaVuSans-111"/>
      <use x="893.673828" xlink:href="#DejaVuSans-118"/>
      <use x="952.853516" xlink:href="#DejaVuSans-101"/>
      <use x="1014.376953" xlink:href="#DejaVuSans-100"/>
      <use x="1077.853516" xlink:href="#DejaVuSans-32"/>
      <use x="1109.640625" xlink:href="#DejaVuSans-40"/>
      <use x="1148.654297" xlink:href="#DejaVuSans-82"/>
      <use x="1218.074219" xlink:href="#DejaVuSans-101"/>
      <use x="1279.597656" xlink:href="#DejaVuSans-99"/>
      <use x="1334.578125" xlink:href="#DejaVuSans-111"/>
      <use x="1395.759766" xlink:href="#DejaVuSans-118"/>
      <use x="1454.939453" xlink:href="#DejaVuSans-101"/>
      <use x="1516.462891" xlink:href="#DejaVuSans-114"/>
      <use x="1557.544922" xlink:href="#DejaVuSans-101"/>
      <use x="1619.068359" xlink:href="#DejaVuSans-100"/>
      <use x="1682.544922" xlink:href="#DejaVuSans-32"/>
      <use x="1714.332031" xlink:href="#DejaVuSans-111"/>
      <use x="1775.513672" xlink:href="#DejaVuSans-114"/>
      <use x="1816.626953" xlink:href="#DejaVuSans-32"/>
      <use x="1848.414062" xlink:href="#DejaVuSans-68"/>
      <use x="1925.416016" xlink:href="#DejaVuSans-101"/>
      <use x="1986.939453" xlink:href="#DejaVuSans-97"/>
      <use x="2048.21875" xlink:href="#DejaVuSans-116"/>
      <use x="2087.427734" xlink:href="#DejaVuSans-104"/>
      <use x="2150.806641" xlink:href="#DejaVuSans-41"/>
     </g>
    </g>
    <g id="line2d_28">
     <path d="M 125.64 100.342688 
L 145.64 100.342688 
" style="fill:none;stroke:#2ca02c;stroke-linecap:square;stroke-width:1.5;"/>
    </g>
    <g id="line2d_29"/>
    <g id="text_23">
     <!-- Model  Infected -->
     <defs>
      <path d="M 9.8125 72.90625 
L 24.515625 72.90625 
L 43.109375 23.296875 
L 61.8125 72.90625 
L 76.515625 72.90625 
L 76.515625 0 
L 66.890625 0 
L 66.890625 64.015625 
L 48.09375 14.015625 
L 38.1875 14.015625 
L 19.390625 64.015625 
L 19.390625 0 
L 9.8125 0 
z
" id="DejaVuSans-77"/>
     </defs>
     <g transform="translate(153.64 103.842688)scale(0.1 -0.1)">
      <use xlink:href="#DejaVuSans-77"/>
      <use x="86.279297" xlink:href="#DejaVuSans-111"/>
      <use x="147.460938" xlink:href="#DejaVuSans-100"/>
      <use x="210.9375" xlink:href="#DejaVuSans-101"/>
      <use x="272.460938" xlink:href="#DejaVuSans-108"/>
      <use x="300.244141" xlink:href="#DejaVuSans-32"/>
      <use x="332.03125" xlink:href="#DejaVuSans-8211"/>
      <use x="382.03125" xlink:href="#DejaVuSans-32"/>
      <use x="413.818359" xlink:href="#DejaVuSans-73"/>
      <use x="443.310547" xlink:href="#DejaVuSans-110"/>
      <use x="506.689453" xlink:href="#DejaVuSans-102"/>
      <use x="541.894531" xlink:href="#DejaVuSans-101"/>
      <use x="603.417969" xlink:href="#DejaVuSans-99"/>
      <use x="658.398438" xlink:href="#DejaVuSans-116"/>
      <use x="697.607422" xlink:href="#DejaVuSans-101"/>
      <use x="759.130859" xlink:href="#DejaVuSans-100"/>
     </g>
    </g>
    <g id="line2d_30">
     <path d="M 125.64 115.020813 
L 145.64 115.020813 
" style="fill:none;stroke:#d62728;stroke-linecap:square;stroke-width:1.5;"/>
    </g>
    <g id="line2d_31"/>
    <g id="text_24">
     <!-- Model  Removed (Recovered or Death) -->
     <g transform="translate(153.64 118.520813)scale(0.1 -0.1)">
      <use xlink:href="#DejaVuSans-77"/>
      <use x="86.279297" xlink:href="#DejaVuSans-111"/>
      <use x="147.460938" xlink:href="#DejaVuSans-100"/>
      <use x="210.9375" xlink:href="#DejaVuSans-101"/>
      <use x="272.460938" xlink:href="#DejaVuSans-108"/>
      <use x="300.244141" xlink:href="#DejaVuSans-32"/>
      <use x="332.03125" xlink:href="#DejaVuSans-8211"/>
      <use x="382.03125" xlink:href="#DejaVuSans-32"/>
      <use x="413.818359" xlink:href="#DejaVuSans-82"/>
      <use x="483.238281" xlink:href="#DejaVuSans-101"/>
      <use x="544.761719" xlink:href="#DejaVuSans-109"/>
      <use x="642.173828" xlink:href="#DejaVuSans-111"/>
      <use x="703.355469" xlink:href="#DejaVuSans-118"/>
      <use x="762.535156" xlink:href="#DejaVuSans-101"/>
      <use x="824.058594" xlink:href="#DejaVuSans-100"/>
      <use x="887.535156" xlink:href="#DejaVuSans-32"/>
      <use x="919.322266" xlink:href="#DejaVuSans-40"/>
      <use x="958.335938" xlink:href="#DejaVuSans-82"/>
      <use x="1027.755859" xlink:href="#DejaVuSans-101"/>
      <use x="1089.279297" xlink:href="#DejaVuSans-99"/>
      <use x="1144.259766" xlink:href="#DejaVuSans-111"/>
      <use x="1205.441406" xlink:href="#DejaVuSans-118"/>
      <use x="1264.621094" xlink:href="#DejaVuSans-101"/>
      <use x="1326.144531" xlink:href="#DejaVuSans-114"/>
      <use x="1367.226562" xlink:href="#DejaVuSans-101"/>
      <use x="1428.75" xlink:href="#DejaVuSans-100"/>
      <use x="1492.226562" xlink:href="#DejaVuSans-32"/>
      <use x="1524.013672" xlink:href="#DejaVuSans-111"/>
      <use x="1585.195312" xlink:href="#DejaVuSans-114"/>
      <use x="1626.308594" xlink:href="#DejaVuSans-32"/>
      <use x="1658.095703" xlink:href="#DejaVuSans-68"/>
      <use x="1735.097656" xlink:href="#DejaVuSans-101"/>
      <use x="1796.621094" xlink:href="#DejaVuSans-97"/>
      <use x="1857.900391" xlink:href="#DejaVuSans-116"/>
      <use x="1897.109375" xlink:href="#DejaVuSans-104"/>
      <use x="1960.488281" xlink:href="#DejaVuSans-41"/>
     </g>
    </g>
   </g>
  </g>
 </g>
 <defs>
  <clipPath id="pe19ec2c129">
   <rect height="371.448" width="723.168" x="116.64" y="57.888"/>
  </clipPath>
 </defs>
</svg>
