<?xml version="1.0" encoding="utf-8" standalone="no"?>
<!DOCTYPE svg PUBLIC "-//W3C//DTD SVG 1.1//EN"
  "http://www.w3.org/Graphics/SVG/1.1/DTD/svg11.dtd">
<!-- Created with matplotlib (https://matplotlib.org/) -->
<svg height="482.4pt" version="1.1" viewBox="0 0 933.12 482.4" width="933.12pt" xmlns="http://www.w3.org/2000/svg" xmlns:xlink="http://www.w3.org/1999/xlink">
 <defs>
  <style type="text/css">
*{stroke-linecap:butt;stroke-linejoin:round;}
  </style>
 </defs>
 <g id="figure_1">
  <g id="patch_1">
   <path d="M 0 482.4 
L 933.12 482.4 
L 933.12 0 
L 0 0 
z
" style="fill:#ffffff;"/>
  </g>
  <g id="axes_1">
   <g id="patch_2">
    <path d="M 116.64 429.336 
L 839.808 429.336 
L 839.808 57.888 
L 116.64 57.888 
z
" style="fill:#ffffff;"/>
   </g>
   <g id="matplotlib.axis_1">
    <g id="xtick_1">
     <g id="line2d_1">
      <defs>
       <path d="M 0 0 
L 0 3.5 
" id="m02623bdbd4" style="stroke:#000000;stroke-width:0.8;"/>
      </defs>
      <g>
       <use style="stroke:#000000;stroke-width:0.8;" x="144.29361" xlink:href="#m02623bdbd4" y="429.336"/>
      </g>
     </g>
     <g id="text_1">
      <!-- 2020-02-29 -->
      <defs>
       <path d="M 19.1875 8.296875 
L 53.609375 8.296875 
L 53.609375 0 
L 7.328125 0 
L 7.328125 8.296875 
Q 12.9375 14.109375 22.625 23.890625 
Q 32.328125 33.6875 34.8125 36.53125 
Q 39.546875 41.84375 41.421875 45.53125 
Q 43.3125 49.21875 43.3125 52.78125 
Q 43.3125 58.59375 39.234375 62.25 
Q 35.15625 65.921875 28.609375 65.921875 
Q 23.96875 65.921875 18.8125 64.3125 
Q 13.671875 62.703125 7.8125 59.421875 
L 7.8125 69.390625 
Q 13.765625 71.78125 18.9375 73 
Q 24.125 74.21875 28.421875 74.21875 
Q 39.75 74.21875 46.484375 68.546875 
Q 53.21875 62.890625 53.21875 53.421875 
Q 53.21875 48.921875 51.53125 44.890625 
Q 49.859375 40.875 45.40625 35.40625 
Q 44.1875 33.984375 37.640625 27.21875 
Q 31.109375 20.453125 19.1875 8.296875 
z
" id="DejaVuSans-50"/>
       <path d="M 31.78125 66.40625 
Q 24.171875 66.40625 20.328125 58.90625 
Q 16.5 51.421875 16.5 36.375 
Q 16.5 21.390625 20.328125 13.890625 
Q 24.171875 6.390625 31.78125 6.390625 
Q 39.453125 6.390625 43.28125 13.890625 
Q 47.125 21.390625 47.125 36.375 
Q 47.125 51.421875 43.28125 58.90625 
Q 39.453125 66.40625 31.78125 66.40625 
z
M 31.78125 74.21875 
Q 44.046875 74.21875 50.515625 64.515625 
Q 56.984375 54.828125 56.984375 36.375 
Q 56.984375 17.96875 50.515625 8.265625 
Q 44.046875 -1.421875 31.78125 -1.421875 
Q 19.53125 -1.421875 13.0625 8.265625 
Q 6.59375 17.96875 6.59375 36.375 
Q 6.59375 54.828125 13.0625 64.515625 
Q 19.53125 74.21875 31.78125 74.21875 
z
" id="DejaVuSans-48"/>
       <path d="M 4.890625 31.390625 
L 31.203125 31.390625 
L 31.203125 23.390625 
L 4.890625 23.390625 
z
" id="DejaVuSans-45"/>
       <path d="M 10.984375 1.515625 
L 10.984375 10.5 
Q 14.703125 8.734375 18.5 7.8125 
Q 22.3125 6.890625 25.984375 6.890625 
Q 35.75 6.890625 40.890625 13.453125 
Q 46.046875 20.015625 46.78125 33.40625 
Q 43.953125 29.203125 39.59375 26.953125 
Q 35.25 24.703125 29.984375 24.703125 
Q 19.046875 24.703125 12.671875 31.3125 
Q 6.296875 37.9375 6.296875 49.421875 
Q 6.296875 60.640625 12.9375 67.421875 
Q 19.578125 74.21875 30.609375 74.21875 
Q 43.265625 74.21875 49.921875 64.515625 
Q 56.59375 54.828125 56.59375 36.375 
Q 56.59375 19.140625 48.40625 8.859375 
Q 40.234375 -1.421875 26.421875 -1.421875 
Q 22.703125 -1.421875 18.890625 -0.6875 
Q 15.09375 0.046875 10.984375 1.515625 
z
M 30.609375 32.421875 
Q 37.25 32.421875 41.125 36.953125 
Q 45.015625 41.5 45.015625 49.421875 
Q 45.015625 57.28125 41.125 61.84375 
Q 37.25 66.40625 30.609375 66.40625 
Q 23.96875 66.40625 20.09375 61.84375 
Q 16.21875 57.28125 16.21875 49.421875 
Q 16.21875 41.5 20.09375 36.953125 
Q 23.96875 32.421875 30.609375 32.421875 
z
" id="DejaVuSans-57"/>
      </defs>
      <g transform="translate(115.235798 443.934438)scale(0.1 -0.1)">
       <use xlink:href="#DejaVuSans-50"/>
       <use x="63.623047" xlink:href="#DejaVuSans-48"/>
       <use x="127.246094" xlink:href="#DejaVuSans-50"/>
       <use x="190.869141" xlink:href="#DejaVuSans-48"/>
       <use x="254.492188" xlink:href="#DejaVuSans-45"/>
       <use x="290.576172" xlink:href="#DejaVuSans-48"/>
       <use x="354.199219" xlink:href="#DejaVuSans-50"/>
       <use x="417.822266" xlink:href="#DejaVuSans-45"/>
       <use x="453.90625" xlink:href="#DejaVuSans-50"/>
       <use x="517.529297" xlink:href="#DejaVuSans-57"/>
      </g>
     </g>
    </g>
    <g id="xtick_2">
     <g id="line2d_2">
      <g>
       <use style="stroke:#000000;stroke-width:0.8;" x="149.511273" xlink:href="#m02623bdbd4" y="429.336"/>
      </g>
     </g>
     <g id="text_2">
      <!-- 2020-03-01 -->
      <defs>
       <path d="M 40.578125 39.3125 
Q 47.65625 37.796875 51.625 33 
Q 55.609375 28.21875 55.609375 21.1875 
Q 55.609375 10.40625 48.1875 4.484375 
Q 40.765625 -1.421875 27.09375 -1.421875 
Q 22.515625 -1.421875 17.65625 -0.515625 
Q 12.796875 0.390625 7.625 2.203125 
L 7.625 11.71875 
Q 11.71875 9.328125 16.59375 8.109375 
Q 21.484375 6.890625 26.8125 6.890625 
Q 36.078125 6.890625 40.9375 10.546875 
Q 45.796875 14.203125 45.796875 21.1875 
Q 45.796875 27.640625 41.28125 31.265625 
Q 36.765625 34.90625 28.71875 34.90625 
L 20.21875 34.90625 
L 20.21875 43.015625 
L 29.109375 43.015625 
Q 36.375 43.015625 40.234375 45.921875 
Q 44.09375 48.828125 44.09375 54.296875 
Q 44.09375 59.90625 40.109375 62.90625 
Q 36.140625 65.921875 28.71875 65.921875 
Q 24.65625 65.921875 20.015625 65.03125 
Q 15.375 64.15625 9.8125 62.3125 
L 9.8125 71.09375 
Q 15.4375 72.65625 20.34375 73.4375 
Q 25.25 74.21875 29.59375 74.21875 
Q 40.828125 74.21875 47.359375 69.109375 
Q 53.90625 64.015625 53.90625 55.328125 
Q 53.90625 49.265625 50.4375 45.09375 
Q 46.96875 40.921875 40.578125 39.3125 
z
" id="DejaVuSans-51"/>
       <path d="M 12.40625 8.296875 
L 28.515625 8.296875 
L 28.515625 63.921875 
L 10.984375 60.40625 
L 10.984375 69.390625 
L 28.421875 72.90625 
L 38.28125 72.90625 
L 38.28125 8.296875 
L 54.390625 8.296875 
L 54.390625 0 
L 12.40625 0 
z
" id="DejaVuSans-49"/>
      </defs>
      <g transform="translate(120.45346 443.934438)scale(0.1 -0.1)">
       <use xlink:href="#DejaVuSans-50"/>
       <use x="63.623047" xlink:href="#DejaVuSans-48"/>
       <use x="127.246094" xlink:href="#DejaVuSans-50"/>
       <use x="190.869141" xlink:href="#DejaVuSans-48"/>
       <use x="254.492188" xlink:href="#DejaVuSans-45"/>
       <use x="290.576172" xlink:href="#DejaVuSans-48"/>
       <use x="354.199219" xlink:href="#DejaVuSans-51"/>
       <use x="417.822266" xlink:href="#DejaVuSans-45"/>
       <use x="453.90625" xlink:href="#DejaVuSans-48"/>
       <use x="517.529297" xlink:href="#DejaVuSans-49"/>
      </g>
     </g>
    </g>
    <g id="xtick_3">
     <g id="line2d_3">
      <g>
       <use style="stroke:#000000;stroke-width:0.8;" x="222.558545" xlink:href="#m02623bdbd4" y="429.336"/>
      </g>
     </g>
     <g id="text_3">
      <!-- 2020-03-15 -->
      <defs>
       <path d="M 10.796875 72.90625 
L 49.515625 72.90625 
L 49.515625 64.59375 
L 19.828125 64.59375 
L 19.828125 46.734375 
Q 21.96875 47.46875 24.109375 47.828125 
Q 26.265625 48.1875 28.421875 48.1875 
Q 40.625 48.1875 47.75 41.5 
Q 54.890625 34.8125 54.890625 23.390625 
Q 54.890625 11.625 47.5625 5.09375 
Q 40.234375 -1.421875 26.90625 -1.421875 
Q 22.3125 -1.421875 17.546875 -0.640625 
Q 12.796875 0.140625 7.71875 1.703125 
L 7.71875 11.625 
Q 12.109375 9.234375 16.796875 8.0625 
Q 21.484375 6.890625 26.703125 6.890625 
Q 35.15625 6.890625 40.078125 11.328125 
Q 45.015625 15.765625 45.015625 23.390625 
Q 45.015625 31 40.078125 35.4375 
Q 35.15625 39.890625 26.703125 39.890625 
Q 22.75 39.890625 18.8125 39.015625 
Q 14.890625 38.140625 10.796875 36.28125 
z
" id="DejaVuSans-53"/>
      </defs>
      <g transform="translate(193.500733 443.934438)scale(0.1 -0.1)">
       <use xlink:href="#DejaVuSans-50"/>
       <use x="63.623047" xlink:href="#DejaVuSans-48"/>
       <use x="127.246094" xlink:href="#DejaVuSans-50"/>
       <use x="190.869141" xlink:href="#DejaVuSans-48"/>
       <use x="254.492188" xlink:href="#DejaVuSans-45"/>
       <use x="290.576172" xlink:href="#DejaVuSans-48"/>
       <use x="354.199219" xlink:href="#DejaVuSans-51"/>
       <use x="417.822266" xlink:href="#DejaVuSans-45"/>
       <use x="453.90625" xlink:href="#DejaVuSans-49"/>
       <use x="517.529297" xlink:href="#DejaVuSans-53"/>
      </g>
     </g>
    </g>
    <g id="xtick_4">
     <g id="line2d_4">
      <g>
       <use style="stroke:#000000;stroke-width:0.8;" x="295.605818" xlink:href="#m02623bdbd4" y="429.336"/>
      </g>
     </g>
     <g id="text_4">
      <!-- 2020-03-29 -->
      <g transform="translate(266.548006 443.934438)scale(0.1 -0.1)">
       <use xlink:href="#DejaVuSans-50"/>
       <use x="63.623047" xlink:href="#DejaVuSans-48"/>
       <use x="127.246094" xlink:href="#DejaVuSans-50"/>
       <use x="190.869141" xlink:href="#DejaVuSans-48"/>
       <use x="254.492188" xlink:href="#DejaVuSans-45"/>
       <use x="290.576172" xlink:href="#DejaVuSans-48"/>
       <use x="354.199219" xlink:href="#DejaVuSans-51"/>
       <use x="417.822266" xlink:href="#DejaVuSans-45"/>
       <use x="453.90625" xlink:href="#DejaVuSans-50"/>
       <use x="517.529297" xlink:href="#DejaVuSans-57"/>
      </g>
     </g>
    </g>
    <g id="xtick_5">
     <g id="line2d_5">
      <g>
       <use style="stroke:#000000;stroke-width:0.8;" x="311.258805" xlink:href="#m02623bdbd4" y="429.336"/>
      </g>
     </g>
     <g id="text_5">
      <!-- 2020-04-01 -->
      <defs>
       <path d="M 37.796875 64.3125 
L 12.890625 25.390625 
L 37.796875 25.390625 
z
M 35.203125 72.90625 
L 47.609375 72.90625 
L 47.609375 25.390625 
L 58.015625 25.390625 
L 58.015625 17.1875 
L 47.609375 17.1875 
L 47.609375 0 
L 37.796875 0 
L 37.796875 17.1875 
L 4.890625 17.1875 
L 4.890625 26.703125 
z
" id="DejaVuSans-52"/>
      </defs>
      <g transform="translate(282.200993 443.934438)scale(0.1 -0.1)">
       <use xlink:href="#DejaVuSans-50"/>
       <use x="63.623047" xlink:href="#DejaVuSans-48"/>
       <use x="127.246094" xlink:href="#DejaVuSans-50"/>
       <use x="190.869141" xlink:href="#DejaVuSans-48"/>
       <use x="254.492188" xlink:href="#DejaVuSans-45"/>
       <use x="290.576172" xlink:href="#DejaVuSans-48"/>
       <use x="354.199219" xlink:href="#DejaVuSans-52"/>
       <use x="417.822266" xlink:href="#DejaVuSans-45"/>
       <use x="453.90625" xlink:href="#DejaVuSans-48"/>
       <use x="517.529297" xlink:href="#DejaVuSans-49"/>
      </g>
     </g>
    </g>
    <g id="xtick_6">
     <g id="line2d_6">
      <g>
       <use style="stroke:#000000;stroke-width:0.8;" x="384.306078" xlink:href="#m02623bdbd4" y="429.336"/>
      </g>
     </g>
     <g id="text_6">
      <!-- 2020-04-15 -->
      <g transform="translate(355.248265 443.934438)scale(0.1 -0.1)">
       <use xlink:href="#DejaVuSans-50"/>
       <use x="63.623047" xlink:href="#DejaVuSans-48"/>
       <use x="127.246094" xlink:href="#DejaVuSans-50"/>
       <use x="190.869141" xlink:href="#DejaVuSans-48"/>
       <use x="254.492188" xlink:href="#DejaVuSans-45"/>
       <use x="290.576172" xlink:href="#DejaVuSans-48"/>
       <use x="354.199219" xlink:href="#DejaVuSans-52"/>
       <use x="417.822266" xlink:href="#DejaVuSans-45"/>
       <use x="453.90625" xlink:href="#DejaVuSans-49"/>
       <use x="517.529297" xlink:href="#DejaVuSans-53"/>
      </g>
     </g>
    </g>
    <g id="xtick_7">
     <g id="line2d_7">
      <g>
       <use style="stroke:#000000;stroke-width:0.8;" x="457.353351" xlink:href="#m02623bdbd4" y="429.336"/>
      </g>
     </g>
     <g id="text_7">
      <!-- 2020-04-29 -->
      <g transform="translate(428.295538 443.934438)scale(0.1 -0.1)">
       <use xlink:href="#DejaVuSans-50"/>
       <use x="63.623047" xlink:href="#DejaVuSans-48"/>
       <use x="127.246094" xlink:href="#DejaVuSans-50"/>
       <use x="190.869141" xlink:href="#DejaVuSans-48"/>
       <use x="254.492188" xlink:href="#DejaVuSans-45"/>
       <use x="290.576172" xlink:href="#DejaVuSans-48"/>
       <use x="354.199219" xlink:href="#DejaVuSans-52"/>
       <use x="417.822266" xlink:href="#DejaVuSans-45"/>
       <use x="453.90625" xlink:href="#DejaVuSans-50"/>
       <use x="517.529297" xlink:href="#DejaVuSans-57"/>
      </g>
     </g>
    </g>
    <g id="xtick_8">
     <g id="line2d_8">
      <g>
       <use style="stroke:#000000;stroke-width:0.8;" x="467.788675" xlink:href="#m02623bdbd4" y="429.336"/>
      </g>
     </g>
     <g id="text_8">
      <!-- 2020-05-01 -->
      <g transform="translate(438.730863 443.934438)scale(0.1 -0.1)">
       <use xlink:href="#DejaVuSans-50"/>
       <use x="63.623047" xlink:href="#DejaVuSans-48"/>
       <use x="127.246094" xlink:href="#DejaVuSans-50"/>
       <use x="190.869141" xlink:href="#DejaVuSans-48"/>
       <use x="254.492188" xlink:href="#DejaVuSans-45"/>
       <use x="290.576172" xlink:href="#DejaVuSans-48"/>
       <use x="354.199219" xlink:href="#DejaVuSans-53"/>
       <use x="417.822266" xlink:href="#DejaVuSans-45"/>
       <use x="453.90625" xlink:href="#DejaVuSans-48"/>
       <use x="517.529297" xlink:href="#DejaVuSans-49"/>
      </g>
     </g>
    </g>
    <g id="xtick_9">
     <g id="line2d_9">
      <g>
       <use style="stroke:#000000;stroke-width:0.8;" x="540.835948" xlink:href="#m02623bdbd4" y="429.336"/>
      </g>
     </g>
     <g id="text_9">
      <!-- 2020-05-15 -->
      <g transform="translate(511.778136 443.934438)scale(0.1 -0.1)">
       <use xlink:href="#DejaVuSans-50"/>
       <use x="63.623047" xlink:href="#DejaVuSans-48"/>
       <use x="127.246094" xlink:href="#DejaVuSans-50"/>
       <use x="190.869141" xlink:href="#DejaVuSans-48"/>
       <use x="254.492188" xlink:href="#DejaVuSans-45"/>
       <use x="290.576172" xlink:href="#DejaVuSans-48"/>
       <use x="354.199219" xlink:href="#DejaVuSans-53"/>
       <use x="417.822266" xlink:href="#DejaVuSans-45"/>
       <use x="453.90625" xlink:href="#DejaVuSans-49"/>
       <use x="517.529297" xlink:href="#DejaVuSans-53"/>
      </g>
     </g>
    </g>
    <g id="xtick_10">
     <g id="line2d_10">
      <g>
       <use style="stroke:#000000;stroke-width:0.8;" x="613.883221" xlink:href="#m02623bdbd4" y="429.336"/>
      </g>
     </g>
     <g id="text_10">
      <!-- 2020-05-29 -->
      <g transform="translate(584.825408 443.934438)scale(0.1 -0.1)">
       <use xlink:href="#DejaVuSans-50"/>
       <use x="63.623047" xlink:href="#DejaVuSans-48"/>
       <use x="127.246094" xlink:href="#DejaVuSans-50"/>
       <use x="190.869141" xlink:href="#DejaVuSans-48"/>
       <use x="254.492188" xlink:href="#DejaVuSans-45"/>
       <use x="290.576172" xlink:href="#DejaVuSans-48"/>
       <use x="354.199219" xlink:href="#DejaVuSans-53"/>
       <use x="417.822266" xlink:href="#DejaVuSans-45"/>
       <use x="453.90625" xlink:href="#DejaVuSans-50"/>
       <use x="517.529297" xlink:href="#DejaVuSans-57"/>
      </g>
     </g>
    </g>
    <g id="xtick_11">
     <g id="line2d_11">
      <g>
       <use style="stroke:#000000;stroke-width:0.8;" x="629.536208" xlink:href="#m02623bdbd4" y="429.336"/>
      </g>
     </g>
     <g id="text_11">
      <!-- 2020-06-01 -->
      <defs>
       <path d="M 33.015625 40.375 
Q 26.375 40.375 22.484375 35.828125 
Q 18.609375 31.296875 18.609375 23.390625 
Q 18.609375 15.53125 22.484375 10.953125 
Q 26.375 6.390625 33.015625 6.390625 
Q 39.65625 6.390625 43.53125 10.953125 
Q 47.40625 15.53125 47.40625 23.390625 
Q 47.40625 31.296875 43.53125 35.828125 
Q 39.65625 40.375 33.015625 40.375 
z
M 52.59375 71.296875 
L 52.59375 62.3125 
Q 48.875 64.0625 45.09375 64.984375 
Q 41.3125 65.921875 37.59375 65.921875 
Q 27.828125 65.921875 22.671875 59.328125 
Q 17.53125 52.734375 16.796875 39.40625 
Q 19.671875 43.65625 24.015625 45.921875 
Q 28.375 48.1875 33.59375 48.1875 
Q 44.578125 48.1875 50.953125 41.515625 
Q 57.328125 34.859375 57.328125 23.390625 
Q 57.328125 12.15625 50.6875 5.359375 
Q 44.046875 -1.421875 33.015625 -1.421875 
Q 20.359375 -1.421875 13.671875 8.265625 
Q 6.984375 17.96875 6.984375 36.375 
Q 6.984375 53.65625 15.1875 63.9375 
Q 23.390625 74.21875 37.203125 74.21875 
Q 40.921875 74.21875 44.703125 73.484375 
Q 48.484375 72.75 52.59375 71.296875 
z
" id="DejaVuSans-54"/>
      </defs>
      <g transform="translate(600.478395 443.934438)scale(0.1 -0.1)">
       <use xlink:href="#DejaVuSans-50"/>
       <use x="63.623047" xlink:href="#DejaVuSans-48"/>
       <use x="127.246094" xlink:href="#DejaVuSans-50"/>
       <use x="190.869141" xlink:href="#DejaVuSans-48"/>
       <use x="254.492188" xlink:href="#DejaVuSans-45"/>
       <use x="290.576172" xlink:href="#DejaVuSans-48"/>
       <use x="354.199219" xlink:href="#DejaVuSans-54"/>
       <use x="417.822266" xlink:href="#DejaVuSans-45"/>
       <use x="453.90625" xlink:href="#DejaVuSans-48"/>
       <use x="517.529297" xlink:href="#DejaVuSans-49"/>
      </g>
     </g>
    </g>
    <g id="xtick_12">
     <g id="line2d_12">
      <g>
       <use style="stroke:#000000;stroke-width:0.8;" x="702.583481" xlink:href="#m02623bdbd4" y="429.336"/>
      </g>
     </g>
     <g id="text_12">
      <!-- 2020-06-15 -->
      <g transform="translate(673.525668 443.934438)scale(0.1 -0.1)">
       <use xlink:href="#DejaVuSans-50"/>
       <use x="63.623047" xlink:href="#DejaVuSans-48"/>
       <use x="127.246094" xlink:href="#DejaVuSans-50"/>
       <use x="190.869141" xlink:href="#DejaVuSans-48"/>
       <use x="254.492188" xlink:href="#DejaVuSans-45"/>
       <use x="290.576172" xlink:href="#DejaVuSans-48"/>
       <use x="354.199219" xlink:href="#DejaVuSans-54"/>
       <use x="417.822266" xlink:href="#DejaVuSans-45"/>
       <use x="453.90625" xlink:href="#DejaVuSans-49"/>
       <use x="517.529297" xlink:href="#DejaVuSans-53"/>
      </g>
     </g>
    </g>
    <g id="xtick_13">
     <g id="line2d_13">
      <g>
       <use style="stroke:#000000;stroke-width:0.8;" x="775.630753" xlink:href="#m02623bdbd4" y="429.336"/>
      </g>
     </g>
     <g id="text_13">
      <!-- 2020-06-29 -->
      <g transform="translate(746.572941 443.934438)scale(0.1 -0.1)">
       <use xlink:href="#DejaVuSans-50"/>
       <use x="63.623047" xlink:href="#DejaVuSans-48"/>
       <use x="127.246094" xlink:href="#DejaVuSans-50"/>
       <use x="190.869141" xlink:href="#DejaVuSans-48"/>
       <use x="254.492188" xlink:href="#DejaVuSans-45"/>
       <use x="290.576172" xlink:href="#DejaVuSans-48"/>
       <use x="354.199219" xlink:href="#DejaVuSans-54"/>
       <use x="417.822266" xlink:href="#DejaVuSans-45"/>
       <use x="453.90625" xlink:href="#DejaVuSans-50"/>
       <use x="517.529297" xlink:href="#DejaVuSans-57"/>
      </g>
     </g>
    </g>
    <g id="xtick_14">
     <g id="line2d_14">
      <g>
       <use style="stroke:#000000;stroke-width:0.8;" x="786.066078" xlink:href="#m02623bdbd4" y="429.336"/>
      </g>
     </g>
     <g id="text_14">
      <!-- 2020-07-01 -->
      <defs>
       <path d="M 8.203125 72.90625 
L 55.078125 72.90625 
L 55.078125 68.703125 
L 28.609375 0 
L 18.3125 0 
L 43.21875 64.59375 
L 8.203125 64.59375 
z
" id="DejaVuSans-55"/>
      </defs>
      <g transform="translate(757.008265 443.934438)scale(0.1 -0.1)">
       <use xlink:href="#DejaVuSans-50"/>
       <use x="63.623047" xlink:href="#DejaVuSans-48"/>
       <use x="127.246094" xlink:href="#DejaVuSans-50"/>
       <use x="190.869141" xlink:href="#DejaVuSans-48"/>
       <use x="254.492188" xlink:href="#DejaVuSans-45"/>
       <use x="290.576172" xlink:href="#DejaVuSans-48"/>
       <use x="354.199219" xlink:href="#DejaVuSans-55"/>
       <use x="417.822266" xlink:href="#DejaVuSans-45"/>
       <use x="453.90625" xlink:href="#DejaVuSans-48"/>
       <use x="517.529297" xlink:href="#DejaVuSans-49"/>
      </g>
     </g>
    </g>
   </g>
   <g id="matplotlib.axis_2">
    <g id="ytick_1">
     <g id="line2d_15">
      <defs>
       <path d="M 0 0 
L -3.5 0 
" id="m4e647b1238" style="stroke:#000000;stroke-width:0.8;"/>
      </defs>
      <g>
       <use style="stroke:#000000;stroke-width:0.8;" x="116.64" xlink:href="#m4e647b1238" y="412.452"/>
      </g>
     </g>
     <g id="text_15">
      <!-- 0 -->
      <g transform="translate(103.2775 416.251219)scale(0.1 -0.1)">
       <use xlink:href="#DejaVuSans-48"/>
      </g>
     </g>
    </g>
    <g id="ytick_2">
     <g id="line2d_16">
      <g>
       <use style="stroke:#000000;stroke-width:0.8;" x="116.64" xlink:href="#m4e647b1238" y="349.494025"/>
      </g>
     </g>
     <g id="text_16">
      <!-- 2000 -->
      <g transform="translate(84.19 353.293244)scale(0.1 -0.1)">
       <use xlink:href="#DejaVuSans-50"/>
       <use x="63.623047" xlink:href="#DejaVuSans-48"/>
       <use x="127.246094" xlink:href="#DejaVuSans-48"/>
       <use x="190.869141" xlink:href="#DejaVuSans-48"/>
      </g>
     </g>
    </g>
    <g id="ytick_3">
     <g id="line2d_17">
      <g>
       <use style="stroke:#000000;stroke-width:0.8;" x="116.64" xlink:href="#m4e647b1238" y="286.536051"/>
      </g>
     </g>
     <g id="text_17">
      <!-- 4000 -->
      <g transform="translate(84.19 290.335269)scale(0.1 -0.1)">
       <use xlink:href="#DejaVuSans-52"/>
       <use x="63.623047" xlink:href="#DejaVuSans-48"/>
       <use x="127.246094" xlink:href="#DejaVuSans-48"/>
       <use x="190.869141" xlink:href="#DejaVuSans-48"/>
      </g>
     </g>
    </g>
    <g id="ytick_4">
     <g id="line2d_18">
      <g>
       <use style="stroke:#000000;stroke-width:0.8;" x="116.64" xlink:href="#m4e647b1238" y="223.578076"/>
      </g>
     </g>
     <g id="text_18">
      <!-- 6000 -->
      <g transform="translate(84.19 227.377295)scale(0.1 -0.1)">
       <use xlink:href="#DejaVuSans-54"/>
       <use x="63.623047" xlink:href="#DejaVuSans-48"/>
       <use x="127.246094" xlink:href="#DejaVuSans-48"/>
       <use x="190.869141" xlink:href="#DejaVuSans-48"/>
      </g>
     </g>
    </g>
    <g id="ytick_5">
     <g id="line2d_19">
      <g>
       <use style="stroke:#000000;stroke-width:0.8;" x="116.64" xlink:href="#m4e647b1238" y="160.620101"/>
      </g>
     </g>
     <g id="text_19">
      <!-- 8000 -->
      <defs>
       <path d="M 31.78125 34.625 
Q 24.75 34.625 20.71875 30.859375 
Q 16.703125 27.09375 16.703125 20.515625 
Q 16.703125 13.921875 20.71875 10.15625 
Q 24.75 6.390625 31.78125 6.390625 
Q 38.8125 6.390625 42.859375 10.171875 
Q 46.921875 13.96875 46.921875 20.515625 
Q 46.921875 27.09375 42.890625 30.859375 
Q 38.875 34.625 31.78125 34.625 
z
M 21.921875 38.8125 
Q 15.578125 40.375 12.03125 44.71875 
Q 8.5 49.078125 8.5 55.328125 
Q 8.5 64.0625 14.71875 69.140625 
Q 20.953125 74.21875 31.78125 74.21875 
Q 42.671875 74.21875 48.875 69.140625 
Q 55.078125 64.0625 55.078125 55.328125 
Q 55.078125 49.078125 51.53125 44.71875 
Q 48 40.375 41.703125 38.8125 
Q 48.828125 37.15625 52.796875 32.3125 
Q 56.78125 27.484375 56.78125 20.515625 
Q 56.78125 9.90625 50.3125 4.234375 
Q 43.84375 -1.421875 31.78125 -1.421875 
Q 19.734375 -1.421875 13.25 4.234375 
Q 6.78125 9.90625 6.78125 20.515625 
Q 6.78125 27.484375 10.78125 32.3125 
Q 14.796875 37.15625 21.921875 38.8125 
z
M 18.3125 54.390625 
Q 18.3125 48.734375 21.84375 45.5625 
Q 25.390625 42.390625 31.78125 42.390625 
Q 38.140625 42.390625 41.71875 45.5625 
Q 45.3125 48.734375 45.3125 54.390625 
Q 45.3125 60.0625 41.71875 63.234375 
Q 38.140625 66.40625 31.78125 66.40625 
Q 25.390625 66.40625 21.84375 63.234375 
Q 18.3125 60.0625 18.3125 54.390625 
z
" id="DejaVuSans-56"/>
      </defs>
      <g transform="translate(84.19 164.41932)scale(0.1 -0.1)">
       <use xlink:href="#DejaVuSans-56"/>
       <use x="63.623047" xlink:href="#DejaVuSans-48"/>
       <use x="127.246094" xlink:href="#DejaVuSans-48"/>
       <use x="190.869141" xlink:href="#DejaVuSans-48"/>
      </g>
     </g>
    </g>
    <g id="ytick_6">
     <g id="line2d_20">
      <g>
       <use style="stroke:#000000;stroke-width:0.8;" x="116.64" xlink:href="#m4e647b1238" y="97.662127"/>
      </g>
     </g>
     <g id="text_20">
      <!-- 10000 -->
      <g transform="translate(77.8275 101.461346)scale(0.1 -0.1)">
       <use xlink:href="#DejaVuSans-49"/>
       <use x="63.623047" xlink:href="#DejaVuSans-48"/>
       <use x="127.246094" xlink:href="#DejaVuSans-48"/>
       <use x="190.869141" xlink:href="#DejaVuSans-48"/>
       <use x="254.492188" xlink:href="#DejaVuSans-48"/>
      </g>
     </g>
    </g>
   </g>
   <g id="line2d_21">
    <path clip-path="url(#pbfe09c8d43)" d="M 149.511273 412.357563 
L 154.728935 412.357563 
L 159.946597 412.294605 
L 165.16426 412.200168 
L 170.381922 412.074252 
L 175.599584 411.885378 
L 180.817247 411.853899 
L 186.034909 411.476151 
L 191.252571 411.476151 
L 196.470234 411.161362 
L 201.687896 409.587412 
L 206.905558 409.492975 
L 212.123221 408.013463 
L 217.340883 406.502471 
L 222.558545 404.487816 
L 227.776208 403.165699 
L 232.99387 400.080758 
L 238.211532 397.940187 
L 243.429195 390.70002 
L 248.646857 386.35592 
L 253.864519 381.319282 
L 259.082182 377.415887 
L 264.299844 373.764325 
L 269.517506 368.979519 
L 274.735169 360.889419 
L 279.952831 352.45305 
L 285.170494 341.340968 
L 290.388156 330.323322 
L 295.605818 324.625625 
L 300.823481 319.49455 
L 306.041143 310.711913 
L 311.258805 305.171611 
L 316.476468 294.500234 
L 321.69413 287.606336 
L 326.911792 275.99059 
L 332.129455 273.18896 
L 337.347117 266.924642 
L 342.564779 262.706457 
L 347.782442 255.686643 
L 353.000104 250.146341 
L 358.217766 246.652174 
L 363.435429 245.896678 
L 368.653091 242.811737 
L 373.870753 242.559905 
L 379.088416 245.361535 
L 384.306078 247.785417 
L 389.52374 245.865199 
L 394.741403 248.698308 
L 399.959065 248.824224 
L 405.176727 246.809569 
L 410.39439 250.429652 
L 415.612052 252.570223 
L 420.829714 257.103198 
L 426.047377 260.565886 
L 431.265039 264.878507 
L 436.482701 265.09886 
L 441.700364 266.420978 
L 446.918026 274.070372 
L 452.135688 276.179464 
L 457.353351 278.855178 
L 462.571013 282.380824 
L 467.788675 282.601177 
L 473.006338 284.99358 
L 478.224 288.235916 
L 483.441662 294.091008 
L 488.659325 298.088839 
L 493.876987 302.055191 
L 499.094649 305.738233 
L 504.312312 305.706754 
L 509.529974 306.304855 
L 514.747636 306.399292 
L 519.965299 312.254383 
L 525.182961 316.472568 
L 530.400623 320.155609 
L 535.618286 323.775693 
L 540.835948 326.514365 
L 546.05361 326.294012 
L 551.271273 326.986549 
L 556.488935 329.095642 
L 561.706597 330.008532 
L 566.92426 331.01586 
L 572.141922 333.061994 
L 577.359584 334.510027 
L 582.577247 332.747204 
L 587.794909 331.802834 
L 593.012571 333.660095 
L 598.230234 334.919254 
L 603.447896 336.933909 
L 608.665558 338.130111 
L 613.883221 337.626447 
L 619.100883 338.004195 
L 624.318545 337.21722 
L 629.536208 338.822649 
L 634.75387 338.318985 
L 639.971532 338.035674 
L 645.189195 338.193069 
L 650.406857 339.38927 
L 655.624519 338.318985 
L 660.842182 336.587641 
L 666.059844 337.689405 
L 671.277506 337.8468 
L 676.495169 337.437573 
L 681.712831 338.130111 
L 686.930494 337.091304 
L 692.148156 335.517355 
L 697.365818 334.73038 
L 702.583481 335.706229 
L 707.801143 336.209893 
L 713.018805 335.958061 
L 718.236468 333.565658 
L 723.45413 330.669591 
L 728.671792 329.504868 
L 733.889455 328.623457 
" style="fill:none;stroke:#1f77b4;stroke-linecap:square;stroke-width:1.5;"/>
   </g>
   <g id="line2d_22">
    <path clip-path="url(#pbfe09c8d43)" d="M 149.511273 412.452 
L 154.728935 412.452 
L 159.946597 412.452 
L 165.16426 412.452 
L 170.381922 412.452 
L 175.599584 412.452 
L 180.817247 412.452 
L 186.034909 412.452 
L 191.252571 412.452 
L 196.470234 412.452 
L 201.687896 412.452 
L 206.905558 412.452 
L 212.123221 412.452 
L 217.340883 412.452 
L 222.558545 412.452 
L 227.776208 412.357563 
L 232.99387 412.357563 
L 238.211532 412.357563 
L 243.429195 412.357563 
L 248.646857 412.326084 
L 253.864519 412.263126 
L 259.082182 412.231647 
L 264.299844 412.231647 
L 269.517506 412.042773 
L 274.735169 411.948336 
L 279.952831 411.853899 
L 285.170494 411.82242 
L 290.388156 411.759462 
L 295.605818 411.602067 
L 300.823481 410.941009 
L 306.041143 410.059597 
L 311.258805 409.304101 
L 316.476468 408.957832 
L 321.69413 408.517127 
L 326.911792 408.139379 
L 332.129455 407.320925 
L 337.347117 406.187682 
L 342.564779 404.267463 
L 347.782442 402.000976 
L 353.000104 399.451178 
L 358.217766 397.814271 
L 363.435429 395.453347 
L 368.653091 393.50165 
L 373.870753 391.61291 
L 379.088416 387.174373 
L 384.306078 381.445197 
L 389.52374 376.534475 
L 394.741403 370.049804 
L 399.959065 368.129586 
L 405.176727 365.737183 
L 410.39439 357.269335 
L 415.612052 350.942059 
L 420.829714 343.292665 
L 426.047377 338.098632 
L 431.265039 331.078818 
L 436.482701 328.371625 
L 441.700364 325.4126 
L 446.918026 316.472568 
L 452.135688 312.506215 
L 457.353351 307.469577 
L 462.571013 300.701595 
L 467.788675 298.749898 
L 473.006338 295.790873 
L 478.224 291.730084 
L 483.441662 284.67879 
L 488.659325 278.257077 
L 493.876987 271.835364 
L 499.094649 266.35802 
L 504.312312 264.941465 
L 509.529974 263.776743 
L 514.747636 262.800894 
L 519.965299 255.277416 
L 525.182961 249.642678 
L 530.400623 244.448645 
L 535.618286 238.247284 
L 540.835948 233.777268 
L 546.05361 232.45515 
L 551.271273 231.133033 
L 556.488935 225.529773 
L 561.706597 222.696664 
L 566.92426 219.359892 
L 572.141922 216.274951 
L 577.359584 212.969657 
L 582.577247 212.308599 
L 587.794909 211.206834 
L 593.012571 207.870061 
L 598.230234 205.09991 
L 603.447896 201.952012 
L 608.665558 199.055945 
L 613.883221 197.796785 
L 619.100883 196.348752 
L 624.318545 195.939525 
L 629.536208 193.263811 
L 634.75387 191.815778 
L 639.971532 189.769644 
L 645.189195 187.849425 
L 650.406857 185.551459 
L 655.624519 185.425543 
L 660.842182 185.236669 
L 666.059844 181.962855 
L 671.277506 180.105595 
L 676.495169 178.216855 
L 681.712831 176.548469 
L 686.930494 174.97452 
L 692.148156 174.880083 
L 697.365818 174.628251 
L 702.583481 172.393243 
L 707.801143 170.410066 
L 713.018805 169.05647 
L 718.236468 167.734353 
L 723.45413 166.664067 
L 728.671792 166.506672 
L 733.889455 165.814134 
" style="fill:none;stroke:#ff7f0e;stroke-linecap:square;stroke-width:1.5;"/>
   </g>
   <g id="line2d_23">
    <path clip-path="url(#pbfe09c8d43)" d="M 149.511273 412.357563 
L 154.728935 412.35652 
L 159.946597 412.355478 
L 165.16426 412.35444 
L 170.381922 412.353405 
L 175.599584 412.352373 
L 180.817247 412.351346 
L 186.034909 412.350324 
L 191.252571 412.349307 
L 196.470234 412.348295 
L 201.687896 412.34729 
L 206.905558 412.346292 
L 212.123221 412.345302 
L 217.340883 412.344319 
L 222.558545 412.343345 
L 227.776208 412.342379 
L 232.99387 412.341424 
L 238.211532 412.340478 
L 243.429195 412.339544 
L 248.646857 412.33862 
L 253.864519 412.337709 
L 259.082182 412.336809 
L 264.299844 412.335923 
L 269.517506 412.335051 
L 274.735169 412.334192 
L 279.952831 412.333348 
L 285.170494 412.33252 
L 290.388156 412.331707 
L 295.605818 412.33091 
L 300.823481 412.33013 
L 306.041143 412.329368 
L 311.258805 412.328624 
L 316.476468 412.327898 
L 321.69413 412.327191 
L 326.911792 412.326503 
L 332.129455 412.325836 
L 337.347117 412.325189 
L 342.564779 412.324562 
L 347.782442 412.323958 
L 353.000104 412.323375 
L 358.217766 412.322814 
L 363.435429 412.322276 
L 368.653091 412.321761 
L 373.870753 412.321269 
L 379.088416 412.320802 
L 384.306078 412.320358 
L 389.52374 412.31994 
L 394.741403 412.319546 
L 399.959065 412.319177 
L 405.176727 412.318834 
L 410.39439 412.318516 
L 415.612052 412.318225 
L 420.829714 412.31796 
L 426.047377 412.317721 
L 431.265039 412.317509 
L 436.482701 412.317324 
L 441.700364 412.317166 
L 446.918026 412.317034 
L 452.135688 412.316931 
L 457.353351 412.316854 
L 462.571013 412.316805 
L 467.788675 412.316783 
L 473.006338 412.316788 
L 478.224 412.316821 
L 483.441662 412.316881 
L 488.659325 412.316969 
L 493.876987 412.317084 
L 499.094649 412.317226 
L 504.312312 412.317395 
L 509.529974 412.317591 
L 514.747636 412.317814 
L 519.965299 412.318063 
L 525.182961 412.318339 
L 530.400623 412.318641 
L 535.618286 412.318968 
L 540.835948 412.319322 
L 546.05361 412.319701 
L 551.271273 412.320105 
L 556.488935 412.320533 
L 561.706597 412.320986 
L 566.92426 412.321463 
L 572.141922 412.321964 
L 577.359584 412.322489 
L 582.577247 412.323036 
L 587.794909 412.323605 
L 593.012571 412.324197 
L 598.230234 412.32481 
L 603.447896 412.325445 
L 608.665558 412.3261 
L 613.883221 412.326776 
L 619.100883 412.327471 
L 624.318545 412.328185 
L 629.536208 412.328919 
L 634.75387 412.32967 
L 639.971532 412.330439 
L 645.189195 412.331226 
L 650.406857 412.332029 
L 655.624519 412.332848 
L 660.842182 412.333682 
L 666.059844 412.334532 
L 671.277506 412.335396 
L 676.495169 412.336274 
L 681.712831 412.337165 
L 686.930494 412.338069 
L 692.148156 412.338985 
L 697.365818 412.339913 
L 702.583481 412.340852 
L 707.801143 412.341801 
L 713.018805 412.34276 
L 718.236468 412.343729 
L 723.45413 412.344706 
L 728.671792 412.345692 
L 733.889455 412.346685 
L 739.107117 412.347686 
L 744.324779 412.348693 
L 749.542442 412.349706 
L 754.760104 412.350725 
L 759.977766 412.351749 
L 765.195429 412.352778 
L 770.413091 412.353811 
L 775.630753 412.354847 
L 780.848416 412.355886 
L 786.066078 412.356928 
L 791.28374 412.357972 
L 796.501403 412.359017 
L 801.719065 412.360064 
L 806.936727 412.361111 
" style="fill:none;stroke:#2ca02c;stroke-linecap:square;stroke-width:1.5;"/>
   </g>
   <g id="line2d_24">
    <path clip-path="url(#pbfe09c8d43)" d="M 149.511273 412.452 
L 154.728935 410.323644 
L 159.946597 408.171925 
L 165.16426 405.996899 
L 170.381922 403.798635 
L 175.599584 401.57721 
L 180.817247 399.332715 
L 186.034909 397.06525 
L 191.252571 394.774928 
L 196.470234 392.461873 
L 201.687896 390.126221 
L 206.905558 387.76812 
L 212.123221 385.387729 
L 217.340883 382.985221 
L 222.558545 380.56078 
L 227.776208 378.114603 
L 232.99387 375.646899 
L 238.211532 373.157888 
L 243.429195 370.647806 
L 248.646857 368.1169 
L 253.864519 365.565428 
L 259.082182 362.993663 
L 264.299844 360.401888 
L 269.517506 357.790403 
L 274.735169 355.159515 
L 279.952831 352.509548 
L 285.170494 349.840837 
L 290.388156 347.153728 
L 295.605818 344.448582 
L 300.823481 341.72577 
L 306.041143 338.985676 
L 311.258805 336.228696 
L 316.476468 333.455237 
L 321.69413 330.665718 
L 326.911792 327.860571 
L 332.129455 325.040237 
L 337.347117 322.205169 
L 342.564779 319.355829 
L 347.782442 316.492693 
L 353.000104 313.616245 
L 358.217766 310.726978 
L 363.435429 307.825397 
L 368.653091 304.912014 
L 373.870753 301.987352 
L 379.088416 299.051941 
L 384.306078 296.106321 
L 389.52374 293.151038 
L 394.741403 290.186646 
L 399.959065 287.213708 
L 405.176727 284.232792 
L 410.39439 281.244471 
L 415.612052 278.249327 
L 420.829714 275.247945 
L 426.047377 272.240916 
L 431.265039 269.228836 
L 436.482701 266.212303 
L 441.700364 263.191921 
L 446.918026 260.168296 
L 452.135688 257.142036 
L 457.353351 254.113753 
L 462.571013 251.084058 
L 467.788675 248.053565 
L 473.006338 245.022888 
L 478.224 241.992642 
L 483.441662 238.963441 
L 488.659325 235.935897 
L 493.876987 232.910623 
L 499.094649 229.888228 
L 504.312312 226.86932 
L 509.529974 223.854504 
L 514.747636 220.844381 
L 519.965299 217.839549 
L 525.182961 214.840602 
L 530.400623 211.848128 
L 535.618286 208.86271 
L 540.835948 205.884927 
L 546.05361 202.915351 
L 551.271273 199.954548 
L 556.488935 197.003074 
L 561.706597 194.061483 
L 566.92426 191.130317 
L 572.141922 188.210113 
L 577.359584 185.301397 
L 582.577247 182.404687 
L 587.794909 179.520494 
L 593.012571 176.649316 
L 598.230234 173.791643 
L 603.447896 170.947956 
L 608.665558 168.118724 
L 613.883221 165.304407 
L 619.100883 162.505452 
L 624.318545 159.722296 
L 629.536208 156.955366 
L 634.75387 154.205075 
L 639.971532 151.471827 
L 645.189195 148.756012 
L 650.406857 146.058009 
L 655.624519 143.378185 
L 660.842182 140.716893 
L 666.059844 138.074477 
L 671.277506 135.451266 
L 676.495169 132.847577 
L 681.712831 130.263715 
L 686.930494 127.699971 
L 692.148156 125.156625 
L 697.365818 122.633944 
L 702.583481 120.132182 
L 707.801143 117.65158 
L 713.018805 115.192368 
L 718.236468 112.754762 
L 723.45413 110.338965 
L 728.671792 107.945169 
L 733.889455 105.573554 
L 739.107117 103.224287 
L 744.324779 100.897522 
L 749.542442 98.593403 
L 754.760104 96.31206 
L 759.977766 94.053612 
L 765.195429 91.818169 
L 770.413091 89.605825 
L 775.630753 87.416667 
L 780.848416 85.250768 
L 786.066078 83.108191 
L 791.28374 80.988989 
L 796.501403 78.893204 
L 801.719065 76.820867 
L 806.936727 74.772 
" style="fill:none;stroke:#d62728;stroke-linecap:square;stroke-width:1.5;"/>
   </g>
   <g id="patch_3">
    <path d="M 116.64 429.336 
L 116.64 57.888 
" style="fill:none;stroke:#000000;stroke-linecap:square;stroke-linejoin:miter;stroke-width:0.8;"/>
   </g>
   <g id="patch_4">
    <path d="M 839.808 429.336 
L 839.808 57.888 
" style="fill:none;stroke:#000000;stroke-linecap:square;stroke-linejoin:miter;stroke-width:0.8;"/>
   </g>
   <g id="patch_5">
    <path d="M 116.64 429.336 
L 839.808 429.336 
" style="fill:none;stroke:#000000;stroke-linecap:square;stroke-linejoin:miter;stroke-width:0.8;"/>
   </g>
   <g id="patch_6">
    <path d="M 116.64 57.888 
L 839.808 57.888 
" style="fill:none;stroke:#000000;stroke-linecap:square;stroke-linejoin:miter;stroke-width:0.8;"/>
   </g>
   <g id="text_21">
    <!-- https://github.com/PavelDusek/COVID-19 -->
    <defs>
     <path d="M 54.890625 33.015625 
L 54.890625 0 
L 45.90625 0 
L 45.90625 32.71875 
Q 45.90625 40.484375 42.875 44.328125 
Q 39.84375 48.1875 33.796875 48.1875 
Q 26.515625 48.1875 22.3125 43.546875 
Q 18.109375 38.921875 18.109375 30.90625 
L 18.109375 0 
L 9.078125 0 
L 9.078125 75.984375 
L 18.109375 75.984375 
L 18.109375 46.1875 
Q 21.34375 51.125 25.703125 53.5625 
Q 30.078125 56 35.796875 56 
Q 45.21875 56 50.046875 50.171875 
Q 54.890625 44.34375 54.890625 33.015625 
z
" id="DejaVuSans-104"/>
     <path d="M 18.3125 70.21875 
L 18.3125 54.6875 
L 36.8125 54.6875 
L 36.8125 47.703125 
L 18.3125 47.703125 
L 18.3125 18.015625 
Q 18.3125 11.328125 20.140625 9.421875 
Q 21.96875 7.515625 27.59375 7.515625 
L 36.8125 7.515625 
L 36.8125 0 
L 27.59375 0 
Q 17.1875 0 13.234375 3.875 
Q 9.28125 7.765625 9.28125 18.015625 
L 9.28125 47.703125 
L 2.6875 47.703125 
L 2.6875 54.6875 
L 9.28125 54.6875 
L 9.28125 70.21875 
z
" id="DejaVuSans-116"/>
     <path d="M 18.109375 8.203125 
L 18.109375 -20.796875 
L 9.078125 -20.796875 
L 9.078125 54.6875 
L 18.109375 54.6875 
L 18.109375 46.390625 
Q 20.953125 51.265625 25.265625 53.625 
Q 29.59375 56 35.59375 56 
Q 45.5625 56 51.78125 48.09375 
Q 58.015625 40.1875 58.015625 27.296875 
Q 58.015625 14.40625 51.78125 6.484375 
Q 45.5625 -1.421875 35.59375 -1.421875 
Q 29.59375 -1.421875 25.265625 0.953125 
Q 20.953125 3.328125 18.109375 8.203125 
z
M 48.6875 27.296875 
Q 48.6875 37.203125 44.609375 42.84375 
Q 40.53125 48.484375 33.40625 48.484375 
Q 26.265625 48.484375 22.1875 42.84375 
Q 18.109375 37.203125 18.109375 27.296875 
Q 18.109375 17.390625 22.1875 11.75 
Q 26.265625 6.109375 33.40625 6.109375 
Q 40.53125 6.109375 44.609375 11.75 
Q 48.6875 17.390625 48.6875 27.296875 
z
" id="DejaVuSans-112"/>
     <path d="M 44.28125 53.078125 
L 44.28125 44.578125 
Q 40.484375 46.53125 36.375 47.5 
Q 32.28125 48.484375 27.875 48.484375 
Q 21.1875 48.484375 17.84375 46.4375 
Q 14.5 44.390625 14.5 40.28125 
Q 14.5 37.15625 16.890625 35.375 
Q 19.28125 33.59375 26.515625 31.984375 
L 29.59375 31.296875 
Q 39.15625 29.25 43.1875 25.515625 
Q 47.21875 21.78125 47.21875 15.09375 
Q 47.21875 7.46875 41.1875 3.015625 
Q 35.15625 -1.421875 24.609375 -1.421875 
Q 20.21875 -1.421875 15.453125 -0.5625 
Q 10.6875 0.296875 5.421875 2 
L 5.421875 11.28125 
Q 10.40625 8.6875 15.234375 7.390625 
Q 20.0625 6.109375 24.8125 6.109375 
Q 31.15625 6.109375 34.5625 8.28125 
Q 37.984375 10.453125 37.984375 14.40625 
Q 37.984375 18.0625 35.515625 20.015625 
Q 33.0625 21.96875 24.703125 23.78125 
L 21.578125 24.515625 
Q 13.234375 26.265625 9.515625 29.90625 
Q 5.8125 33.546875 5.8125 39.890625 
Q 5.8125 47.609375 11.28125 51.796875 
Q 16.75 56 26.8125 56 
Q 31.78125 56 36.171875 55.265625 
Q 40.578125 54.546875 44.28125 53.078125 
z
" id="DejaVuSans-115"/>
     <path d="M 11.71875 12.40625 
L 22.015625 12.40625 
L 22.015625 0 
L 11.71875 0 
z
M 11.71875 51.703125 
L 22.015625 51.703125 
L 22.015625 39.3125 
L 11.71875 39.3125 
z
" id="DejaVuSans-58"/>
     <path d="M 25.390625 72.90625 
L 33.6875 72.90625 
L 8.296875 -9.28125 
L 0 -9.28125 
z
" id="DejaVuSans-47"/>
     <path d="M 45.40625 27.984375 
Q 45.40625 37.75 41.375 43.109375 
Q 37.359375 48.484375 30.078125 48.484375 
Q 22.859375 48.484375 18.828125 43.109375 
Q 14.796875 37.75 14.796875 27.984375 
Q 14.796875 18.265625 18.828125 12.890625 
Q 22.859375 7.515625 30.078125 7.515625 
Q 37.359375 7.515625 41.375 12.890625 
Q 45.40625 18.265625 45.40625 27.984375 
z
M 54.390625 6.78125 
Q 54.390625 -7.171875 48.1875 -13.984375 
Q 42 -20.796875 29.203125 -20.796875 
Q 24.46875 -20.796875 20.265625 -20.09375 
Q 16.0625 -19.390625 12.109375 -17.921875 
L 12.109375 -9.1875 
Q 16.0625 -11.328125 19.921875 -12.34375 
Q 23.78125 -13.375 27.78125 -13.375 
Q 36.625 -13.375 41.015625 -8.765625 
Q 45.40625 -4.15625 45.40625 5.171875 
L 45.40625 9.625 
Q 42.625 4.78125 38.28125 2.390625 
Q 33.9375 0 27.875 0 
Q 17.828125 0 11.671875 7.65625 
Q 5.515625 15.328125 5.515625 27.984375 
Q 5.515625 40.671875 11.671875 48.328125 
Q 17.828125 56 27.875 56 
Q 33.9375 56 38.28125 53.609375 
Q 42.625 51.21875 45.40625 46.390625 
L 45.40625 54.6875 
L 54.390625 54.6875 
z
" id="DejaVuSans-103"/>
     <path d="M 9.421875 54.6875 
L 18.40625 54.6875 
L 18.40625 0 
L 9.421875 0 
z
M 9.421875 75.984375 
L 18.40625 75.984375 
L 18.40625 64.59375 
L 9.421875 64.59375 
z
" id="DejaVuSans-105"/>
     <path d="M 8.5 21.578125 
L 8.5 54.6875 
L 17.484375 54.6875 
L 17.484375 21.921875 
Q 17.484375 14.15625 20.5 10.265625 
Q 23.53125 6.390625 29.59375 6.390625 
Q 36.859375 6.390625 41.078125 11.03125 
Q 45.3125 15.671875 45.3125 23.6875 
L 45.3125 54.6875 
L 54.296875 54.6875 
L 54.296875 0 
L 45.3125 0 
L 45.3125 8.40625 
Q 42.046875 3.421875 37.71875 1 
Q 33.40625 -1.421875 27.6875 -1.421875 
Q 18.265625 -1.421875 13.375 4.4375 
Q 8.5 10.296875 8.5 21.578125 
z
M 31.109375 56 
z
" id="DejaVuSans-117"/>
     <path d="M 48.6875 27.296875 
Q 48.6875 37.203125 44.609375 42.84375 
Q 40.53125 48.484375 33.40625 48.484375 
Q 26.265625 48.484375 22.1875 42.84375 
Q 18.109375 37.203125 18.109375 27.296875 
Q 18.109375 17.390625 22.1875 11.75 
Q 26.265625 6.109375 33.40625 6.109375 
Q 40.53125 6.109375 44.609375 11.75 
Q 48.6875 17.390625 48.6875 27.296875 
z
M 18.109375 46.390625 
Q 20.953125 51.265625 25.265625 53.625 
Q 29.59375 56 35.59375 56 
Q 45.5625 56 51.78125 48.09375 
Q 58.015625 40.1875 58.015625 27.296875 
Q 58.015625 14.40625 51.78125 6.484375 
Q 45.5625 -1.421875 35.59375 -1.421875 
Q 29.59375 -1.421875 25.265625 0.953125 
Q 20.953125 3.328125 18.109375 8.203125 
L 18.109375 0 
L 9.078125 0 
L 9.078125 75.984375 
L 18.109375 75.984375 
z
" id="DejaVuSans-98"/>
     <path d="M 10.6875 12.40625 
L 21 12.40625 
L 21 0 
L 10.6875 0 
z
" id="DejaVuSans-46"/>
     <path d="M 48.78125 52.59375 
L 48.78125 44.1875 
Q 44.96875 46.296875 41.140625 47.34375 
Q 37.3125 48.390625 33.40625 48.390625 
Q 24.65625 48.390625 19.8125 42.84375 
Q 14.984375 37.3125 14.984375 27.296875 
Q 14.984375 17.28125 19.8125 11.734375 
Q 24.65625 6.203125 33.40625 6.203125 
Q 37.3125 6.203125 41.140625 7.25 
Q 44.96875 8.296875 48.78125 10.40625 
L 48.78125 2.09375 
Q 45.015625 0.34375 40.984375 -0.53125 
Q 36.96875 -1.421875 32.421875 -1.421875 
Q 20.0625 -1.421875 12.78125 6.34375 
Q 5.515625 14.109375 5.515625 27.296875 
Q 5.515625 40.671875 12.859375 48.328125 
Q 20.21875 56 33.015625 56 
Q 37.15625 56 41.109375 55.140625 
Q 45.0625 54.296875 48.78125 52.59375 
z
" id="DejaVuSans-99"/>
     <path d="M 30.609375 48.390625 
Q 23.390625 48.390625 19.1875 42.75 
Q 14.984375 37.109375 14.984375 27.296875 
Q 14.984375 17.484375 19.15625 11.84375 
Q 23.34375 6.203125 30.609375 6.203125 
Q 37.796875 6.203125 41.984375 11.859375 
Q 46.1875 17.53125 46.1875 27.296875 
Q 46.1875 37.015625 41.984375 42.703125 
Q 37.796875 48.390625 30.609375 48.390625 
z
M 30.609375 56 
Q 42.328125 56 49.015625 48.375 
Q 55.71875 40.765625 55.71875 27.296875 
Q 55.71875 13.875 49.015625 6.21875 
Q 42.328125 -1.421875 30.609375 -1.421875 
Q 18.84375 -1.421875 12.171875 6.21875 
Q 5.515625 13.875 5.515625 27.296875 
Q 5.515625 40.765625 12.171875 48.375 
Q 18.84375 56 30.609375 56 
z
" id="DejaVuSans-111"/>
     <path d="M 52 44.1875 
Q 55.375 50.25 60.0625 53.125 
Q 64.75 56 71.09375 56 
Q 79.640625 56 84.28125 50.015625 
Q 88.921875 44.046875 88.921875 33.015625 
L 88.921875 0 
L 79.890625 0 
L 79.890625 32.71875 
Q 79.890625 40.578125 77.09375 44.375 
Q 74.3125 48.1875 68.609375 48.1875 
Q 61.625 48.1875 57.5625 43.546875 
Q 53.515625 38.921875 53.515625 30.90625 
L 53.515625 0 
L 44.484375 0 
L 44.484375 32.71875 
Q 44.484375 40.625 41.703125 44.40625 
Q 38.921875 48.1875 33.109375 48.1875 
Q 26.21875 48.1875 22.15625 43.53125 
Q 18.109375 38.875 18.109375 30.90625 
L 18.109375 0 
L 9.078125 0 
L 9.078125 54.6875 
L 18.109375 54.6875 
L 18.109375 46.1875 
Q 21.1875 51.21875 25.484375 53.609375 
Q 29.78125 56 35.6875 56 
Q 41.65625 56 45.828125 52.96875 
Q 50 49.953125 52 44.1875 
z
" id="DejaVuSans-109"/>
     <path d="M 19.671875 64.796875 
L 19.671875 37.40625 
L 32.078125 37.40625 
Q 38.96875 37.40625 42.71875 40.96875 
Q 46.484375 44.53125 46.484375 51.125 
Q 46.484375 57.671875 42.71875 61.234375 
Q 38.96875 64.796875 32.078125 64.796875 
z
M 9.8125 72.90625 
L 32.078125 72.90625 
Q 44.34375 72.90625 50.609375 67.359375 
Q 56.890625 61.8125 56.890625 51.125 
Q 56.890625 40.328125 50.609375 34.8125 
Q 44.34375 29.296875 32.078125 29.296875 
L 19.671875 29.296875 
L 19.671875 0 
L 9.8125 0 
z
" id="DejaVuSans-80"/>
     <path d="M 34.28125 27.484375 
Q 23.390625 27.484375 19.1875 25 
Q 14.984375 22.515625 14.984375 16.5 
Q 14.984375 11.71875 18.140625 8.90625 
Q 21.296875 6.109375 26.703125 6.109375 
Q 34.1875 6.109375 38.703125 11.40625 
Q 43.21875 16.703125 43.21875 25.484375 
L 43.21875 27.484375 
z
M 52.203125 31.203125 
L 52.203125 0 
L 43.21875 0 
L 43.21875 8.296875 
Q 40.140625 3.328125 35.546875 0.953125 
Q 30.953125 -1.421875 24.3125 -1.421875 
Q 15.921875 -1.421875 10.953125 3.296875 
Q 6 8.015625 6 15.921875 
Q 6 25.140625 12.171875 29.828125 
Q 18.359375 34.515625 30.609375 34.515625 
L 43.21875 34.515625 
L 43.21875 35.40625 
Q 43.21875 41.609375 39.140625 45 
Q 35.0625 48.390625 27.6875 48.390625 
Q 23 48.390625 18.546875 47.265625 
Q 14.109375 46.140625 10.015625 43.890625 
L 10.015625 52.203125 
Q 14.9375 54.109375 19.578125 55.046875 
Q 24.21875 56 28.609375 56 
Q 40.484375 56 46.34375 49.84375 
Q 52.203125 43.703125 52.203125 31.203125 
z
" id="DejaVuSans-97"/>
     <path d="M 2.984375 54.6875 
L 12.5 54.6875 
L 29.59375 8.796875 
L 46.6875 54.6875 
L 56.203125 54.6875 
L 35.6875 0 
L 23.484375 0 
z
" id="DejaVuSans-118"/>
     <path d="M 56.203125 29.59375 
L 56.203125 25.203125 
L 14.890625 25.203125 
Q 15.484375 15.921875 20.484375 11.0625 
Q 25.484375 6.203125 34.421875 6.203125 
Q 39.59375 6.203125 44.453125 7.46875 
Q 49.3125 8.734375 54.109375 11.28125 
L 54.109375 2.78125 
Q 49.265625 0.734375 44.1875 -0.34375 
Q 39.109375 -1.421875 33.890625 -1.421875 
Q 20.796875 -1.421875 13.15625 6.1875 
Q 5.515625 13.8125 5.515625 26.8125 
Q 5.515625 40.234375 12.765625 48.109375 
Q 20.015625 56 32.328125 56 
Q 43.359375 56 49.78125 48.890625 
Q 56.203125 41.796875 56.203125 29.59375 
z
M 47.21875 32.234375 
Q 47.125 39.59375 43.09375 43.984375 
Q 39.0625 48.390625 32.421875 48.390625 
Q 24.90625 48.390625 20.390625 44.140625 
Q 15.875 39.890625 15.1875 32.171875 
z
" id="DejaVuSans-101"/>
     <path d="M 9.421875 75.984375 
L 18.40625 75.984375 
L 18.40625 0 
L 9.421875 0 
z
" id="DejaVuSans-108"/>
     <path d="M 19.671875 64.796875 
L 19.671875 8.109375 
L 31.59375 8.109375 
Q 46.6875 8.109375 53.6875 14.9375 
Q 60.6875 21.78125 60.6875 36.53125 
Q 60.6875 51.171875 53.6875 57.984375 
Q 46.6875 64.796875 31.59375 64.796875 
z
M 9.8125 72.90625 
L 30.078125 72.90625 
Q 51.265625 72.90625 61.171875 64.09375 
Q 71.09375 55.28125 71.09375 36.53125 
Q 71.09375 17.671875 61.125 8.828125 
Q 51.171875 0 30.078125 0 
L 9.8125 0 
z
" id="DejaVuSans-68"/>
     <path d="M 9.078125 75.984375 
L 18.109375 75.984375 
L 18.109375 31.109375 
L 44.921875 54.6875 
L 56.390625 54.6875 
L 27.390625 29.109375 
L 57.625 0 
L 45.90625 0 
L 18.109375 26.703125 
L 18.109375 0 
L 9.078125 0 
z
" id="DejaVuSans-107"/>
     <path d="M 64.40625 67.28125 
L 64.40625 56.890625 
Q 59.421875 61.53125 53.78125 63.8125 
Q 48.140625 66.109375 41.796875 66.109375 
Q 29.296875 66.109375 22.65625 58.46875 
Q 16.015625 50.828125 16.015625 36.375 
Q 16.015625 21.96875 22.65625 14.328125 
Q 29.296875 6.6875 41.796875 6.6875 
Q 48.140625 6.6875 53.78125 8.984375 
Q 59.421875 11.28125 64.40625 15.921875 
L 64.40625 5.609375 
Q 59.234375 2.09375 53.4375 0.328125 
Q 47.65625 -1.421875 41.21875 -1.421875 
Q 24.65625 -1.421875 15.125 8.703125 
Q 5.609375 18.84375 5.609375 36.375 
Q 5.609375 53.953125 15.125 64.078125 
Q 24.65625 74.21875 41.21875 74.21875 
Q 47.75 74.21875 53.53125 72.484375 
Q 59.328125 70.75 64.40625 67.28125 
z
" id="DejaVuSans-67"/>
     <path d="M 39.40625 66.21875 
Q 28.65625 66.21875 22.328125 58.203125 
Q 16.015625 50.203125 16.015625 36.375 
Q 16.015625 22.609375 22.328125 14.59375 
Q 28.65625 6.59375 39.40625 6.59375 
Q 50.140625 6.59375 56.421875 14.59375 
Q 62.703125 22.609375 62.703125 36.375 
Q 62.703125 50.203125 56.421875 58.203125 
Q 50.140625 66.21875 39.40625 66.21875 
z
M 39.40625 74.21875 
Q 54.734375 74.21875 63.90625 63.9375 
Q 73.09375 53.65625 73.09375 36.375 
Q 73.09375 19.140625 63.90625 8.859375 
Q 54.734375 -1.421875 39.40625 -1.421875 
Q 24.03125 -1.421875 14.8125 8.828125 
Q 5.609375 19.09375 5.609375 36.375 
Q 5.609375 53.65625 14.8125 63.9375 
Q 24.03125 74.21875 39.40625 74.21875 
z
" id="DejaVuSans-79"/>
     <path d="M 28.609375 0 
L 0.78125 72.90625 
L 11.078125 72.90625 
L 34.1875 11.53125 
L 57.328125 72.90625 
L 67.578125 72.90625 
L 39.796875 0 
z
" id="DejaVuSans-86"/>
     <path d="M 9.8125 72.90625 
L 19.671875 72.90625 
L 19.671875 0 
L 9.8125 0 
z
" id="DejaVuSans-73"/>
    </defs>
    <g transform="translate(354.591188 11.575875)scale(0.12 -0.12)">
     <use xlink:href="#DejaVuSans-104"/>
     <use x="63.378906" xlink:href="#DejaVuSans-116"/>
     <use x="102.587891" xlink:href="#DejaVuSans-116"/>
     <use x="141.796875" xlink:href="#DejaVuSans-112"/>
     <use x="205.273438" xlink:href="#DejaVuSans-115"/>
     <use x="257.373047" xlink:href="#DejaVuSans-58"/>
     <use x="291.064453" xlink:href="#DejaVuSans-47"/>
     <use x="324.755859" xlink:href="#DejaVuSans-47"/>
     <use x="358.447266" xlink:href="#DejaVuSans-103"/>
     <use x="421.923828" xlink:href="#DejaVuSans-105"/>
     <use x="449.707031" xlink:href="#DejaVuSans-116"/>
     <use x="488.916016" xlink:href="#DejaVuSans-104"/>
     <use x="552.294922" xlink:href="#DejaVuSans-117"/>
     <use x="615.673828" xlink:href="#DejaVuSans-98"/>
     <use x="679.150391" xlink:href="#DejaVuSans-46"/>
     <use x="710.9375" xlink:href="#DejaVuSans-99"/>
     <use x="765.917969" xlink:href="#DejaVuSans-111"/>
     <use x="827.099609" xlink:href="#DejaVuSans-109"/>
     <use x="924.511719" xlink:href="#DejaVuSans-47"/>
     <use x="958.203125" xlink:href="#DejaVuSans-80"/>
     <use x="1018.443359" xlink:href="#DejaVuSans-97"/>
     <use x="1079.722656" xlink:href="#DejaVuSans-118"/>
     <use x="1138.902344" xlink:href="#DejaVuSans-101"/>
     <use x="1200.425781" xlink:href="#DejaVuSans-108"/>
     <use x="1228.208984" xlink:href="#DejaVuSans-68"/>
     <use x="1305.210938" xlink:href="#DejaVuSans-117"/>
     <use x="1368.589844" xlink:href="#DejaVuSans-115"/>
     <use x="1420.689453" xlink:href="#DejaVuSans-101"/>
     <use x="1482.212891" xlink:href="#DejaVuSans-107"/>
     <use x="1540.123047" xlink:href="#DejaVuSans-47"/>
     <use x="1573.814453" xlink:href="#DejaVuSans-67"/>
     <use x="1643.638672" xlink:href="#DejaVuSans-79"/>
     <use x="1722.333984" xlink:href="#DejaVuSans-86"/>
     <use x="1790.742188" xlink:href="#DejaVuSans-73"/>
     <use x="1820.234375" xlink:href="#DejaVuSans-68"/>
     <use x="1897.236328" xlink:href="#DejaVuSans-45"/>
     <use x="1933.320312" xlink:href="#DejaVuSans-49"/>
     <use x="1996.943359" xlink:href="#DejaVuSans-57"/>
    </g>
    <!-- SIR model for the Czech Republic -->
    <defs>
     <path d="M 53.515625 70.515625 
L 53.515625 60.890625 
Q 47.90625 63.578125 42.921875 64.890625 
Q 37.9375 66.21875 33.296875 66.21875 
Q 25.25 66.21875 20.875 63.09375 
Q 16.5 59.96875 16.5 54.203125 
Q 16.5 49.359375 19.40625 46.890625 
Q 22.3125 44.4375 30.421875 42.921875 
L 36.375 41.703125 
Q 47.40625 39.59375 52.65625 34.296875 
Q 57.90625 29 57.90625 20.125 
Q 57.90625 9.515625 50.796875 4.046875 
Q 43.703125 -1.421875 29.984375 -1.421875 
Q 24.8125 -1.421875 18.96875 -0.25 
Q 13.140625 0.921875 6.890625 3.21875 
L 6.890625 13.375 
Q 12.890625 10.015625 18.65625 8.296875 
Q 24.421875 6.59375 29.984375 6.59375 
Q 38.421875 6.59375 43.015625 9.90625 
Q 47.609375 13.234375 47.609375 19.390625 
Q 47.609375 24.75 44.3125 27.78125 
Q 41.015625 30.8125 33.5 32.328125 
L 27.484375 33.5 
Q 16.453125 35.6875 11.515625 40.375 
Q 6.59375 45.0625 6.59375 53.421875 
Q 6.59375 63.09375 13.40625 68.65625 
Q 20.21875 74.21875 32.171875 74.21875 
Q 37.3125 74.21875 42.625 73.28125 
Q 47.953125 72.359375 53.515625 70.515625 
z
" id="DejaVuSans-83"/>
     <path d="M 44.390625 34.1875 
Q 47.5625 33.109375 50.5625 29.59375 
Q 53.5625 26.078125 56.59375 19.921875 
L 66.609375 0 
L 56 0 
L 46.6875 18.703125 
Q 43.0625 26.03125 39.671875 28.421875 
Q 36.28125 30.8125 30.421875 30.8125 
L 19.671875 30.8125 
L 19.671875 0 
L 9.8125 0 
L 9.8125 72.90625 
L 32.078125 72.90625 
Q 44.578125 72.90625 50.734375 67.671875 
Q 56.890625 62.453125 56.890625 51.90625 
Q 56.890625 45.015625 53.6875 40.46875 
Q 50.484375 35.9375 44.390625 34.1875 
z
M 19.671875 64.796875 
L 19.671875 38.921875 
L 32.078125 38.921875 
Q 39.203125 38.921875 42.84375 42.21875 
Q 46.484375 45.515625 46.484375 51.90625 
Q 46.484375 58.296875 42.84375 61.546875 
Q 39.203125 64.796875 32.078125 64.796875 
z
" id="DejaVuSans-82"/>
     <path id="DejaVuSans-32"/>
     <path d="M 45.40625 46.390625 
L 45.40625 75.984375 
L 54.390625 75.984375 
L 54.390625 0 
L 45.40625 0 
L 45.40625 8.203125 
Q 42.578125 3.328125 38.25 0.953125 
Q 33.9375 -1.421875 27.875 -1.421875 
Q 17.96875 -1.421875 11.734375 6.484375 
Q 5.515625 14.40625 5.515625 27.296875 
Q 5.515625 40.1875 11.734375 48.09375 
Q 17.96875 56 27.875 56 
Q 33.9375 56 38.25 53.625 
Q 42.578125 51.265625 45.40625 46.390625 
z
M 14.796875 27.296875 
Q 14.796875 17.390625 18.875 11.75 
Q 22.953125 6.109375 30.078125 6.109375 
Q 37.203125 6.109375 41.296875 11.75 
Q 45.40625 17.390625 45.40625 27.296875 
Q 45.40625 37.203125 41.296875 42.84375 
Q 37.203125 48.484375 30.078125 48.484375 
Q 22.953125 48.484375 18.875 42.84375 
Q 14.796875 37.203125 14.796875 27.296875 
z
" id="DejaVuSans-100"/>
     <path d="M 37.109375 75.984375 
L 37.109375 68.5 
L 28.515625 68.5 
Q 23.6875 68.5 21.796875 66.546875 
Q 19.921875 64.59375 19.921875 59.515625 
L 19.921875 54.6875 
L 34.71875 54.6875 
L 34.71875 47.703125 
L 19.921875 47.703125 
L 19.921875 0 
L 10.890625 0 
L 10.890625 47.703125 
L 2.296875 47.703125 
L 2.296875 54.6875 
L 10.890625 54.6875 
L 10.890625 58.5 
Q 10.890625 67.625 15.140625 71.796875 
Q 19.390625 75.984375 28.609375 75.984375 
z
" id="DejaVuSans-102"/>
     <path d="M 41.109375 46.296875 
Q 39.59375 47.171875 37.8125 47.578125 
Q 36.03125 48 33.890625 48 
Q 26.265625 48 22.1875 43.046875 
Q 18.109375 38.09375 18.109375 28.8125 
L 18.109375 0 
L 9.078125 0 
L 9.078125 54.6875 
L 18.109375 54.6875 
L 18.109375 46.1875 
Q 20.953125 51.171875 25.484375 53.578125 
Q 30.03125 56 36.53125 56 
Q 37.453125 56 38.578125 55.875 
Q 39.703125 55.765625 41.0625 55.515625 
z
" id="DejaVuSans-114"/>
     <path d="M 5.515625 54.6875 
L 48.1875 54.6875 
L 48.1875 46.484375 
L 14.40625 7.171875 
L 48.1875 7.171875 
L 48.1875 0 
L 4.296875 0 
L 4.296875 8.203125 
L 38.09375 47.515625 
L 5.515625 47.515625 
z
" id="DejaVuSans-122"/>
    </defs>
    <g transform="translate(378.118688 25.01325)scale(0.12 -0.12)">
     <use xlink:href="#DejaVuSans-83"/>
     <use x="63.476562" xlink:href="#DejaVuSans-73"/>
     <use x="92.96875" xlink:href="#DejaVuSans-82"/>
     <use x="162.451172" xlink:href="#DejaVuSans-32"/>
     <use x="194.238281" xlink:href="#DejaVuSans-109"/>
     <use x="291.650391" xlink:href="#DejaVuSans-111"/>
     <use x="352.832031" xlink:href="#DejaVuSans-100"/>
     <use x="416.308594" xlink:href="#DejaVuSans-101"/>
     <use x="477.832031" xlink:href="#DejaVuSans-108"/>
     <use x="505.615234" xlink:href="#DejaVuSans-32"/>
     <use x="537.402344" xlink:href="#DejaVuSans-102"/>
     <use x="572.607422" xlink:href="#DejaVuSans-111"/>
     <use x="633.789062" xlink:href="#DejaVuSans-114"/>
     <use x="674.902344" xlink:href="#DejaVuSans-32"/>
     <use x="706.689453" xlink:href="#DejaVuSans-116"/>
     <use x="745.898438" xlink:href="#DejaVuSans-104"/>
     <use x="809.277344" xlink:href="#DejaVuSans-101"/>
     <use x="870.800781" xlink:href="#DejaVuSans-32"/>
     <use x="902.587891" xlink:href="#DejaVuSans-67"/>
     <use x="972.412109" xlink:href="#DejaVuSans-122"/>
     <use x="1024.902344" xlink:href="#DejaVuSans-101"/>
     <use x="1086.425781" xlink:href="#DejaVuSans-99"/>
     <use x="1141.40625" xlink:href="#DejaVuSans-104"/>
     <use x="1204.785156" xlink:href="#DejaVuSans-32"/>
     <use x="1236.572266" xlink:href="#DejaVuSans-82"/>
     <use x="1305.992188" xlink:href="#DejaVuSans-101"/>
     <use x="1367.515625" xlink:href="#DejaVuSans-112"/>
     <use x="1430.992188" xlink:href="#DejaVuSans-117"/>
     <use x="1494.371094" xlink:href="#DejaVuSans-98"/>
     <use x="1557.847656" xlink:href="#DejaVuSans-108"/>
     <use x="1585.630859" xlink:href="#DejaVuSans-105"/>
     <use x="1613.414062" xlink:href="#DejaVuSans-99"/>
    </g>
    <!-- parameters estimated based on data from 2020-06-22 -->
    <defs>
     <path d="M 54.890625 33.015625 
L 54.890625 0 
L 45.90625 0 
L 45.90625 32.71875 
Q 45.90625 40.484375 42.875 44.328125 
Q 39.84375 48.1875 33.796875 48.1875 
Q 26.515625 48.1875 22.3125 43.546875 
Q 18.109375 38.921875 18.109375 30.90625 
L 18.109375 0 
L 9.078125 0 
L 9.078125 54.6875 
L 18.109375 54.6875 
L 18.109375 46.1875 
Q 21.34375 51.125 25.703125 53.5625 
Q 30.078125 56 35.796875 56 
Q 45.21875 56 50.046875 50.171875 
Q 54.890625 44.34375 54.890625 33.015625 
z
" id="DejaVuSans-110"/>
    </defs>
    <g transform="translate(313.706813 38.450625)scale(0.12 -0.12)">
     <use xlink:href="#DejaVuSans-112"/>
     <use x="63.476562" xlink:href="#DejaVuSans-97"/>
     <use x="124.755859" xlink:href="#DejaVuSans-114"/>
     <use x="165.869141" xlink:href="#DejaVuSans-97"/>
     <use x="227.148438" xlink:href="#DejaVuSans-109"/>
     <use x="324.560547" xlink:href="#DejaVuSans-101"/>
     <use x="386.083984" xlink:href="#DejaVuSans-116"/>
     <use x="425.292969" xlink:href="#DejaVuSans-101"/>
     <use x="486.816406" xlink:href="#DejaVuSans-114"/>
     <use x="527.929688" xlink:href="#DejaVuSans-115"/>
     <use x="580.029297" xlink:href="#DejaVuSans-32"/>
     <use x="611.816406" xlink:href="#DejaVuSans-101"/>
     <use x="673.339844" xlink:href="#DejaVuSans-115"/>
     <use x="725.439453" xlink:href="#DejaVuSans-116"/>
     <use x="764.648438" xlink:href="#DejaVuSans-105"/>
     <use x="792.431641" xlink:href="#DejaVuSans-109"/>
     <use x="889.84375" xlink:href="#DejaVuSans-97"/>
     <use x="951.123047" xlink:href="#DejaVuSans-116"/>
     <use x="990.332031" xlink:href="#DejaVuSans-101"/>
     <use x="1051.855469" xlink:href="#DejaVuSans-100"/>
     <use x="1115.332031" xlink:href="#DejaVuSans-32"/>
     <use x="1147.119141" xlink:href="#DejaVuSans-98"/>
     <use x="1210.595703" xlink:href="#DejaVuSans-97"/>
     <use x="1271.875" xlink:href="#DejaVuSans-115"/>
     <use x="1323.974609" xlink:href="#DejaVuSans-101"/>
     <use x="1385.498047" xlink:href="#DejaVuSans-100"/>
     <use x="1448.974609" xlink:href="#DejaVuSans-32"/>
     <use x="1480.761719" xlink:href="#DejaVuSans-111"/>
     <use x="1541.943359" xlink:href="#DejaVuSans-110"/>
     <use x="1605.322266" xlink:href="#DejaVuSans-32"/>
     <use x="1637.109375" xlink:href="#DejaVuSans-100"/>
     <use x="1700.585938" xlink:href="#DejaVuSans-97"/>
     <use x="1761.865234" xlink:href="#DejaVuSans-116"/>
     <use x="1801.074219" xlink:href="#DejaVuSans-97"/>
     <use x="1862.353516" xlink:href="#DejaVuSans-32"/>
     <use x="1894.140625" xlink:href="#DejaVuSans-102"/>
     <use x="1929.345703" xlink:href="#DejaVuSans-114"/>
     <use x="1970.427734" xlink:href="#DejaVuSans-111"/>
     <use x="2031.609375" xlink:href="#DejaVuSans-109"/>
     <use x="2129.021484" xlink:href="#DejaVuSans-32"/>
     <use x="2160.808594" xlink:href="#DejaVuSans-50"/>
     <use x="2224.431641" xlink:href="#DejaVuSans-48"/>
     <use x="2288.054688" xlink:href="#DejaVuSans-50"/>
     <use x="2351.677734" xlink:href="#DejaVuSans-48"/>
     <use x="2415.300781" xlink:href="#DejaVuSans-45"/>
     <use x="2451.384766" xlink:href="#DejaVuSans-48"/>
     <use x="2515.007812" xlink:href="#DejaVuSans-54"/>
     <use x="2578.630859" xlink:href="#DejaVuSans-45"/>
     <use x="2614.714844" xlink:href="#DejaVuSans-50"/>
     <use x="2678.337891" xlink:href="#DejaVuSans-50"/>
    </g>
    <!-- beta = 1/0.04, gamma = 1/0.04, R0 = 1.00 -->
    <defs>
     <path d="M 10.59375 45.40625 
L 73.1875 45.40625 
L 73.1875 37.203125 
L 10.59375 37.203125 
z
M 10.59375 25.484375 
L 73.1875 25.484375 
L 73.1875 17.1875 
L 10.59375 17.1875 
z
" id="DejaVuSans-61"/>
     <path d="M 11.71875 12.40625 
L 22.015625 12.40625 
L 22.015625 4 
L 14.015625 -11.625 
L 7.71875 -11.625 
L 11.71875 4 
z
" id="DejaVuSans-44"/>
    </defs>
    <g transform="translate(347.948063 51.888)scale(0.12 -0.12)">
     <use xlink:href="#DejaVuSans-98"/>
     <use x="63.476562" xlink:href="#DejaVuSans-101"/>
     <use x="125" xlink:href="#DejaVuSans-116"/>
     <use x="164.208984" xlink:href="#DejaVuSans-97"/>
     <use x="225.488281" xlink:href="#DejaVuSans-32"/>
     <use x="257.275391" xlink:href="#DejaVuSans-61"/>
     <use x="341.064453" xlink:href="#DejaVuSans-32"/>
     <use x="372.851562" xlink:href="#DejaVuSans-49"/>
     <use x="436.474609" xlink:href="#DejaVuSans-47"/>
     <use x="470.166016" xlink:href="#DejaVuSans-48"/>
     <use x="533.789062" xlink:href="#DejaVuSans-46"/>
     <use x="565.576172" xlink:href="#DejaVuSans-48"/>
     <use x="629.199219" xlink:href="#DejaVuSans-52"/>
     <use x="692.822266" xlink:href="#DejaVuSans-44"/>
     <use x="724.609375" xlink:href="#DejaVuSans-32"/>
     <use x="756.396484" xlink:href="#DejaVuSans-103"/>
     <use x="819.873047" xlink:href="#DejaVuSans-97"/>
     <use x="881.152344" xlink:href="#DejaVuSans-109"/>
     <use x="978.564453" xlink:href="#DejaVuSans-109"/>
     <use x="1075.976562" xlink:href="#DejaVuSans-97"/>
     <use x="1137.255859" xlink:href="#DejaVuSans-32"/>
     <use x="1169.042969" xlink:href="#DejaVuSans-61"/>
     <use x="1252.832031" xlink:href="#DejaVuSans-32"/>
     <use x="1284.619141" xlink:href="#DejaVuSans-49"/>
     <use x="1348.242188" xlink:href="#DejaVuSans-47"/>
     <use x="1381.933594" xlink:href="#DejaVuSans-48"/>
     <use x="1445.556641" xlink:href="#DejaVuSans-46"/>
     <use x="1477.34375" xlink:href="#DejaVuSans-48"/>
     <use x="1540.966797" xlink:href="#DejaVuSans-52"/>
     <use x="1604.589844" xlink:href="#DejaVuSans-44"/>
     <use x="1636.376953" xlink:href="#DejaVuSans-32"/>
     <use x="1668.164062" xlink:href="#DejaVuSans-82"/>
     <use x="1737.646484" xlink:href="#DejaVuSans-48"/>
     <use x="1801.269531" xlink:href="#DejaVuSans-32"/>
     <use x="1833.056641" xlink:href="#DejaVuSans-61"/>
     <use x="1916.845703" xlink:href="#DejaVuSans-32"/>
     <use x="1948.632812" xlink:href="#DejaVuSans-49"/>
     <use x="2012.255859" xlink:href="#DejaVuSans-46"/>
     <use x="2044.042969" xlink:href="#DejaVuSans-48"/>
     <use x="2107.666016" xlink:href="#DejaVuSans-48"/>
    </g>
   </g>
   <g id="legend_1">
    <g id="patch_7">
     <path d="M 123.64 124.6005 
L 374.6275 124.6005 
Q 376.6275 124.6005 376.6275 122.6005 
L 376.6275 64.888 
Q 376.6275 62.888 374.6275 62.888 
L 123.64 62.888 
Q 121.64 62.888 121.64 64.888 
L 121.64 122.6005 
Q 121.64 124.6005 123.64 124.6005 
z
" style="fill:#ffffff;opacity:0.8;stroke:#cccccc;stroke-linejoin:miter;"/>
    </g>
    <g id="line2d_25">
     <path d="M 125.64 70.986438 
L 145.64 70.986438 
" style="fill:none;stroke:#1f77b4;stroke-linecap:square;stroke-width:1.5;"/>
    </g>
    <g id="line2d_26"/>
    <g id="text_22">
     <!-- Real Data  Infected -->
     <defs>
      <path d="M 4.890625 30.90625 
L 45.125 30.90625 
L 45.125 23.875 
L 4.890625 23.875 
z
" id="DejaVuSans-8211"/>
     </defs>
     <g transform="translate(153.64 74.486438)scale(0.1 -0.1)">
      <use xlink:href="#DejaVuSans-82"/>
      <use x="69.419922" xlink:href="#DejaVuSans-101"/>
      <use x="130.943359" xlink:href="#DejaVuSans-97"/>
      <use x="192.222656" xlink:href="#DejaVuSans-108"/>
      <use x="220.005859" xlink:href="#DejaVuSans-32"/>
      <use x="251.792969" xlink:href="#DejaVuSans-68"/>
      <use x="328.794922" xlink:href="#DejaVuSans-97"/>
      <use x="390.074219" xlink:href="#DejaVuSans-116"/>
      <use x="429.283203" xlink:href="#DejaVuSans-97"/>
      <use x="490.5625" xlink:href="#DejaVuSans-32"/>
      <use x="522.349609" xlink:href="#DejaVuSans-8211"/>
      <use x="572.349609" xlink:href="#DejaVuSans-32"/>
      <use x="604.136719" xlink:href="#DejaVuSans-73"/>
      <use x="633.628906" xlink:href="#DejaVuSans-110"/>
      <use x="697.007812" xlink:href="#DejaVuSans-102"/>
      <use x="732.212891" xlink:href="#DejaVuSans-101"/>
      <use x="793.736328" xlink:href="#DejaVuSans-99"/>
      <use x="848.716797" xlink:href="#DejaVuSans-116"/>
      <use x="887.925781" xlink:href="#DejaVuSans-101"/>
      <use x="949.449219" xlink:href="#DejaVuSans-100"/>
     </g>
    </g>
    <g id="line2d_27">
     <path d="M 125.64 85.664563 
L 145.64 85.664563 
" style="fill:none;stroke:#ff7f0e;stroke-linecap:square;stroke-width:1.5;"/>
    </g>
    <g id="line2d_28"/>
    <g id="text_23">
     <!-- Real Data  Removed (Recovered or Death) -->
     <defs>
      <path d="M 31 75.875 
Q 24.46875 64.65625 21.28125 53.65625 
Q 18.109375 42.671875 18.109375 31.390625 
Q 18.109375 20.125 21.3125 9.0625 
Q 24.515625 -2 31 -13.1875 
L 23.1875 -13.1875 
Q 15.875 -1.703125 12.234375 9.375 
Q 8.59375 20.453125 8.59375 31.390625 
Q 8.59375 42.28125 12.203125 53.3125 
Q 15.828125 64.359375 23.1875 75.875 
z
" id="DejaVuSans-40"/>
      <path d="M 8.015625 75.875 
L 15.828125 75.875 
Q 23.140625 64.359375 26.78125 53.3125 
Q 30.421875 42.28125 30.421875 31.390625 
Q 30.421875 20.453125 26.78125 9.375 
Q 23.140625 -1.703125 15.828125 -13.1875 
L 8.015625 -13.1875 
Q 14.5 -2 17.703125 9.0625 
Q 20.90625 20.125 20.90625 31.390625 
Q 20.90625 42.671875 17.703125 53.65625 
Q 14.5 64.65625 8.015625 75.875 
z
" id="DejaVuSans-41"/>
     </defs>
     <g transform="translate(153.64 89.164563)scale(0.1 -0.1)">
      <use xlink:href="#DejaVuSans-82"/>
      <use x="69.419922" xlink:href="#DejaVuSans-101"/>
      <use x="130.943359" xlink:href="#DejaVuSans-97"/>
      <use x="192.222656" xlink:href="#DejaVuSans-108"/>
      <use x="220.005859" xlink:href="#DejaVuSans-32"/>
      <use x="251.792969" xlink:href="#DejaVuSans-68"/>
      <use x="328.794922" xlink:href="#DejaVuSans-97"/>
      <use x="390.074219" xlink:href="#DejaVuSans-116"/>
      <use x="429.283203" xlink:href="#DejaVuSans-97"/>
      <use x="490.5625" xlink:href="#DejaVuSans-32"/>
      <use x="522.349609" xlink:href="#DejaVuSans-8211"/>
      <use x="572.349609" xlink:href="#DejaVuSans-32"/>
      <use x="604.136719" xlink:href="#DejaVuSans-82"/>
      <use x="673.556641" xlink:href="#DejaVuSans-101"/>
      <use x="735.080078" xlink:href="#DejaVuSans-109"/>
      <use x="832.492188" xlink:href="#DejaVuSans-111"/>
      <use x="893.673828" xlink:href="#DejaVuSans-118"/>
      <use x="952.853516" xlink:href="#DejaVuSans-101"/>
      <use x="1014.376953" xlink:href="#DejaVuSans-100"/>
      <use x="1077.853516" xlink:href="#DejaVuSans-32"/>
      <use x="1109.640625" xlink:href="#DejaVuSans-40"/>
      <use x="1148.654297" xlink:href="#DejaVuSans-82"/>
      <use x="1218.074219" xlink:href="#DejaVuSans-101"/>
      <use x="1279.597656" xlink:href="#DejaVuSans-99"/>
      <use x="1334.578125" xlink:href="#DejaVuSans-111"/>
      <use x="1395.759766" xlink:href="#DejaVuSans-118"/>
      <use x="1454.939453" xlink:href="#DejaVuSans-101"/>
      <use x="1516.462891" xlink:href="#DejaVuSans-114"/>
      <use x="1557.544922" xlink:href="#DejaVuSans-101"/>
      <use x="1619.068359" xlink:href="#DejaVuSans-100"/>
      <use x="1682.544922" xlink:href="#DejaVuSans-32"/>
      <use x="1714.332031" xlink:href="#DejaVuSans-111"/>
      <use x="1775.513672" xlink:href="#DejaVuSans-114"/>
      <use x="1816.626953" xlink:href="#DejaVuSans-32"/>
      <use x="1848.414062" xlink:href="#DejaVuSans-68"/>
      <use x="1925.416016" xlink:href="#DejaVuSans-101"/>
      <use x="1986.939453" xlink:href="#DejaVuSans-97"/>
      <use x="2048.21875" xlink:href="#DejaVuSans-116"/>
      <use x="2087.427734" xlink:href="#DejaVuSans-104"/>
      <use x="2150.806641" xlink:href="#DejaVuSans-41"/>
     </g>
    </g>
    <g id="line2d_29">
     <path d="M 125.64 100.342688 
L 145.64 100.342688 
" style="fill:none;stroke:#2ca02c;stroke-linecap:square;stroke-width:1.5;"/>
    </g>
    <g id="line2d_30"/>
    <g id="text_24">
     <!-- Model  Infected -->
     <defs>
      <path d="M 9.8125 72.90625 
L 24.515625 72.90625 
L 43.109375 23.296875 
L 61.8125 72.90625 
L 76.515625 72.90625 
L 76.515625 0 
L 66.890625 0 
L 66.890625 64.015625 
L 48.09375 14.015625 
L 38.1875 14.015625 
L 19.390625 64.015625 
L 19.390625 0 
L 9.8125 0 
z
" id="DejaVuSans-77"/>
     </defs>
     <g transform="translate(153.64 103.842688)scale(0.1 -0.1)">
      <use xlink:href="#DejaVuSans-77"/>
      <use x="86.279297" xlink:href="#DejaVuSans-111"/>
      <use x="147.460938" xlink:href="#DejaVuSans-100"/>
      <use x="210.9375" xlink:href="#DejaVuSans-101"/>
      <use x="272.460938" xlink:href="#DejaVuSans-108"/>
      <use x="300.244141" xlink:href="#DejaVuSans-32"/>
      <use x="332.03125" xlink:href="#DejaVuSans-8211"/>
      <use x="382.03125" xlink:href="#DejaVuSans-32"/>
      <use x="413.818359" xlink:href="#DejaVuSans-73"/>
      <use x="443.310547" xlink:href="#DejaVuSans-110"/>
      <use x="506.689453" xlink:href="#DejaVuSans-102"/>
      <use x="541.894531" xlink:href="#DejaVuSans-101"/>
      <use x="603.417969" xlink:href="#DejaVuSans-99"/>
      <use x="658.398438" xlink:href="#DejaVuSans-116"/>
      <use x="697.607422" xlink:href="#DejaVuSans-101"/>
      <use x="759.130859" xlink:href="#DejaVuSans-100"/>
     </g>
    </g>
    <g id="line2d_31">
     <path d="M 125.64 115.020813 
L 145.64 115.020813 
" style="fill:none;stroke:#d62728;stroke-linecap:square;stroke-width:1.5;"/>
    </g>
    <g id="line2d_32"/>
    <g id="text_25">
     <!-- Model  Removed (Recovered or Death) -->
     <g transform="translate(153.64 118.520813)scale(0.1 -0.1)">
      <use xlink:href="#DejaVuSans-77"/>
      <use x="86.279297" xlink:href="#DejaVuSans-111"/>
      <use x="147.460938" xlink:href="#DejaVuSans-100"/>
      <use x="210.9375" xlink:href="#DejaVuSans-101"/>
      <use x="272.460938" xlink:href="#DejaVuSans-108"/>
      <use x="300.244141" xlink:href="#DejaVuSans-32"/>
      <use x="332.03125" xlink:href="#DejaVuSans-8211"/>
      <use x="382.03125" xlink:href="#DejaVuSans-32"/>
      <use x="413.818359" xlink:href="#DejaVuSans-82"/>
      <use x="483.238281" xlink:href="#DejaVuSans-101"/>
      <use x="544.761719" xlink:href="#DejaVuSans-109"/>
      <use x="642.173828" xlink:href="#DejaVuSans-111"/>
      <use x="703.355469" xlink:href="#DejaVuSans-118"/>
      <use x="762.535156" xlink:href="#DejaVuSans-101"/>
      <use x="824.058594" xlink:href="#DejaVuSans-100"/>
      <use x="887.535156" xlink:href="#DejaVuSans-32"/>
      <use x="919.322266" xlink:href="#DejaVuSans-40"/>
      <use x="958.335938" xlink:href="#DejaVuSans-82"/>
      <use x="1027.755859" xlink:href="#DejaVuSans-101"/>
      <use x="1089.279297" xlink:href="#DejaVuSans-99"/>
      <use x="1144.259766" xlink:href="#DejaVuSans-111"/>
      <use x="1205.441406" xlink:href="#DejaVuSans-118"/>
      <use x="1264.621094" xlink:href="#DejaVuSans-101"/>
      <use x="1326.144531" xlink:href="#DejaVuSans-114"/>
      <use x="1367.226562" xlink:href="#DejaVuSans-101"/>
      <use x="1428.75" xlink:href="#DejaVuSans-100"/>
      <use x="1492.226562" xlink:href="#DejaVuSans-32"/>
      <use x="1524.013672" xlink:href="#DejaVuSans-111"/>
      <use x="1585.195312" xlink:href="#DejaVuSans-114"/>
      <use x="1626.308594" xlink:href="#DejaVuSans-32"/>
      <use x="1658.095703" xlink:href="#DejaVuSans-68"/>
      <use x="1735.097656" xlink:href="#DejaVuSans-101"/>
      <use x="1796.621094" xlink:href="#DejaVuSans-97"/>
      <use x="1857.900391" xlink:href="#DejaVuSans-116"/>
      <use x="1897.109375" xlink:href="#DejaVuSans-104"/>
      <use x="1960.488281" xlink:href="#DejaVuSans-41"/>
     </g>
    </g>
   </g>
  </g>
 </g>
 <defs>
  <clipPath id="pbfe09c8d43">
   <rect height="371.448" width="723.168" x="116.64" y="57.888"/>
  </clipPath>
 </defs>
</svg>
