<?xml version="1.0" encoding="utf-8" standalone="no"?>
<!DOCTYPE svg PUBLIC "-//W3C//DTD SVG 1.1//EN"
  "http://www.w3.org/Graphics/SVG/1.1/DTD/svg11.dtd">
<!-- Created with matplotlib (https://matplotlib.org/) -->
<svg height="482.4pt" version="1.1" viewBox="0 0 933.12 482.4" width="933.12pt" xmlns="http://www.w3.org/2000/svg" xmlns:xlink="http://www.w3.org/1999/xlink">
 <defs>
  <style type="text/css">
*{stroke-linecap:butt;stroke-linejoin:round;}
  </style>
 </defs>
 <g id="figure_1">
  <g id="patch_1">
   <path d="M 0 482.4 
L 933.12 482.4 
L 933.12 0 
L 0 0 
z
" style="fill:#ffffff;"/>
  </g>
  <g id="axes_1">
   <g id="patch_2">
    <path d="M 116.64 429.336 
L 839.808 429.336 
L 839.808 57.888 
L 116.64 57.888 
z
" style="fill:#ffffff;"/>
   </g>
   <g id="matplotlib.axis_1">
    <g id="xtick_1">
     <g id="line2d_1">
      <defs>
       <path d="M 0 0 
L 0 3.5 
" id="m41a769c189" style="stroke:#000000;stroke-width:0.8;"/>
      </defs>
      <g>
       <use style="stroke:#000000;stroke-width:0.8;" x="144.122539" xlink:href="#m41a769c189" y="429.336"/>
      </g>
     </g>
     <g id="text_1">
      <!-- 2020-02-29 -->
      <defs>
       <path d="M 19.1875 8.296875 
L 53.609375 8.296875 
L 53.609375 0 
L 7.328125 0 
L 7.328125 8.296875 
Q 12.9375 14.109375 22.625 23.890625 
Q 32.328125 33.6875 34.8125 36.53125 
Q 39.546875 41.84375 41.421875 45.53125 
Q 43.3125 49.21875 43.3125 52.78125 
Q 43.3125 58.59375 39.234375 62.25 
Q 35.15625 65.921875 28.609375 65.921875 
Q 23.96875 65.921875 18.8125 64.3125 
Q 13.671875 62.703125 7.8125 59.421875 
L 7.8125 69.390625 
Q 13.765625 71.78125 18.9375 73 
Q 24.125 74.21875 28.421875 74.21875 
Q 39.75 74.21875 46.484375 68.546875 
Q 53.21875 62.890625 53.21875 53.421875 
Q 53.21875 48.921875 51.53125 44.890625 
Q 49.859375 40.875 45.40625 35.40625 
Q 44.1875 33.984375 37.640625 27.21875 
Q 31.109375 20.453125 19.1875 8.296875 
z
" id="DejaVuSans-50"/>
       <path d="M 31.78125 66.40625 
Q 24.171875 66.40625 20.328125 58.90625 
Q 16.5 51.421875 16.5 36.375 
Q 16.5 21.390625 20.328125 13.890625 
Q 24.171875 6.390625 31.78125 6.390625 
Q 39.453125 6.390625 43.28125 13.890625 
Q 47.125 21.390625 47.125 36.375 
Q 47.125 51.421875 43.28125 58.90625 
Q 39.453125 66.40625 31.78125 66.40625 
z
M 31.78125 74.21875 
Q 44.046875 74.21875 50.515625 64.515625 
Q 56.984375 54.828125 56.984375 36.375 
Q 56.984375 17.96875 50.515625 8.265625 
Q 44.046875 -1.421875 31.78125 -1.421875 
Q 19.53125 -1.421875 13.0625 8.265625 
Q 6.59375 17.96875 6.59375 36.375 
Q 6.59375 54.828125 13.0625 64.515625 
Q 19.53125 74.21875 31.78125 74.21875 
z
" id="DejaVuSans-48"/>
       <path d="M 4.890625 31.390625 
L 31.203125 31.390625 
L 31.203125 23.390625 
L 4.890625 23.390625 
z
" id="DejaVuSans-45"/>
       <path d="M 10.984375 1.515625 
L 10.984375 10.5 
Q 14.703125 8.734375 18.5 7.8125 
Q 22.3125 6.890625 25.984375 6.890625 
Q 35.75 6.890625 40.890625 13.453125 
Q 46.046875 20.015625 46.78125 33.40625 
Q 43.953125 29.203125 39.59375 26.953125 
Q 35.25 24.703125 29.984375 24.703125 
Q 19.046875 24.703125 12.671875 31.3125 
Q 6.296875 37.9375 6.296875 49.421875 
Q 6.296875 60.640625 12.9375 67.421875 
Q 19.578125 74.21875 30.609375 74.21875 
Q 43.265625 74.21875 49.921875 64.515625 
Q 56.59375 54.828125 56.59375 36.375 
Q 56.59375 19.140625 48.40625 8.859375 
Q 40.234375 -1.421875 26.421875 -1.421875 
Q 22.703125 -1.421875 18.890625 -0.6875 
Q 15.09375 0.046875 10.984375 1.515625 
z
M 30.609375 32.421875 
Q 37.25 32.421875 41.125 36.953125 
Q 45.015625 41.5 45.015625 49.421875 
Q 45.015625 57.28125 41.125 61.84375 
Q 37.25 66.40625 30.609375 66.40625 
Q 23.96875 66.40625 20.09375 61.84375 
Q 16.21875 57.28125 16.21875 49.421875 
Q 16.21875 41.5 20.09375 36.953125 
Q 23.96875 32.421875 30.609375 32.421875 
z
" id="DejaVuSans-57"/>
      </defs>
      <g transform="translate(115.064727 443.934438)scale(0.1 -0.1)">
       <use xlink:href="#DejaVuSans-50"/>
       <use x="63.623047" xlink:href="#DejaVuSans-48"/>
       <use x="127.246094" xlink:href="#DejaVuSans-50"/>
       <use x="190.869141" xlink:href="#DejaVuSans-48"/>
       <use x="254.492188" xlink:href="#DejaVuSans-45"/>
       <use x="290.576172" xlink:href="#DejaVuSans-48"/>
       <use x="354.199219" xlink:href="#DejaVuSans-50"/>
       <use x="417.822266" xlink:href="#DejaVuSans-45"/>
       <use x="453.90625" xlink:href="#DejaVuSans-50"/>
       <use x="517.529297" xlink:href="#DejaVuSans-57"/>
      </g>
     </g>
    </g>
    <g id="xtick_2">
     <g id="line2d_2">
      <g>
       <use style="stroke:#000000;stroke-width:0.8;" x="149.511273" xlink:href="#m41a769c189" y="429.336"/>
      </g>
     </g>
     <g id="text_2">
      <!-- 2020-03-01 -->
      <defs>
       <path d="M 40.578125 39.3125 
Q 47.65625 37.796875 51.625 33 
Q 55.609375 28.21875 55.609375 21.1875 
Q 55.609375 10.40625 48.1875 4.484375 
Q 40.765625 -1.421875 27.09375 -1.421875 
Q 22.515625 -1.421875 17.65625 -0.515625 
Q 12.796875 0.390625 7.625 2.203125 
L 7.625 11.71875 
Q 11.71875 9.328125 16.59375 8.109375 
Q 21.484375 6.890625 26.8125 6.890625 
Q 36.078125 6.890625 40.9375 10.546875 
Q 45.796875 14.203125 45.796875 21.1875 
Q 45.796875 27.640625 41.28125 31.265625 
Q 36.765625 34.90625 28.71875 34.90625 
L 20.21875 34.90625 
L 20.21875 43.015625 
L 29.109375 43.015625 
Q 36.375 43.015625 40.234375 45.921875 
Q 44.09375 48.828125 44.09375 54.296875 
Q 44.09375 59.90625 40.109375 62.90625 
Q 36.140625 65.921875 28.71875 65.921875 
Q 24.65625 65.921875 20.015625 65.03125 
Q 15.375 64.15625 9.8125 62.3125 
L 9.8125 71.09375 
Q 15.4375 72.65625 20.34375 73.4375 
Q 25.25 74.21875 29.59375 74.21875 
Q 40.828125 74.21875 47.359375 69.109375 
Q 53.90625 64.015625 53.90625 55.328125 
Q 53.90625 49.265625 50.4375 45.09375 
Q 46.96875 40.921875 40.578125 39.3125 
z
" id="DejaVuSans-51"/>
       <path d="M 12.40625 8.296875 
L 28.515625 8.296875 
L 28.515625 63.921875 
L 10.984375 60.40625 
L 10.984375 69.390625 
L 28.421875 72.90625 
L 38.28125 72.90625 
L 38.28125 8.296875 
L 54.390625 8.296875 
L 54.390625 0 
L 12.40625 0 
z
" id="DejaVuSans-49"/>
      </defs>
      <g transform="translate(120.45346 443.934438)scale(0.1 -0.1)">
       <use xlink:href="#DejaVuSans-50"/>
       <use x="63.623047" xlink:href="#DejaVuSans-48"/>
       <use x="127.246094" xlink:href="#DejaVuSans-50"/>
       <use x="190.869141" xlink:href="#DejaVuSans-48"/>
       <use x="254.492188" xlink:href="#DejaVuSans-45"/>
       <use x="290.576172" xlink:href="#DejaVuSans-48"/>
       <use x="354.199219" xlink:href="#DejaVuSans-51"/>
       <use x="417.822266" xlink:href="#DejaVuSans-45"/>
       <use x="453.90625" xlink:href="#DejaVuSans-48"/>
       <use x="517.529297" xlink:href="#DejaVuSans-49"/>
      </g>
     </g>
    </g>
    <g id="xtick_3">
     <g id="line2d_3">
      <g>
       <use style="stroke:#000000;stroke-width:0.8;" x="224.953538" xlink:href="#m41a769c189" y="429.336"/>
      </g>
     </g>
     <g id="text_3">
      <!-- 2020-03-15 -->
      <defs>
       <path d="M 10.796875 72.90625 
L 49.515625 72.90625 
L 49.515625 64.59375 
L 19.828125 64.59375 
L 19.828125 46.734375 
Q 21.96875 47.46875 24.109375 47.828125 
Q 26.265625 48.1875 28.421875 48.1875 
Q 40.625 48.1875 47.75 41.5 
Q 54.890625 34.8125 54.890625 23.390625 
Q 54.890625 11.625 47.5625 5.09375 
Q 40.234375 -1.421875 26.90625 -1.421875 
Q 22.3125 -1.421875 17.546875 -0.640625 
Q 12.796875 0.140625 7.71875 1.703125 
L 7.71875 11.625 
Q 12.109375 9.234375 16.796875 8.0625 
Q 21.484375 6.890625 26.703125 6.890625 
Q 35.15625 6.890625 40.078125 11.328125 
Q 45.015625 15.765625 45.015625 23.390625 
Q 45.015625 31 40.078125 35.4375 
Q 35.15625 39.890625 26.703125 39.890625 
Q 22.75 39.890625 18.8125 39.015625 
Q 14.890625 38.140625 10.796875 36.28125 
z
" id="DejaVuSans-53"/>
      </defs>
      <g transform="translate(195.895726 443.934438)scale(0.1 -0.1)">
       <use xlink:href="#DejaVuSans-50"/>
       <use x="63.623047" xlink:href="#DejaVuSans-48"/>
       <use x="127.246094" xlink:href="#DejaVuSans-50"/>
       <use x="190.869141" xlink:href="#DejaVuSans-48"/>
       <use x="254.492188" xlink:href="#DejaVuSans-45"/>
       <use x="290.576172" xlink:href="#DejaVuSans-48"/>
       <use x="354.199219" xlink:href="#DejaVuSans-51"/>
       <use x="417.822266" xlink:href="#DejaVuSans-45"/>
       <use x="453.90625" xlink:href="#DejaVuSans-49"/>
       <use x="517.529297" xlink:href="#DejaVuSans-53"/>
      </g>
     </g>
    </g>
    <g id="xtick_4">
     <g id="line2d_4">
      <g>
       <use style="stroke:#000000;stroke-width:0.8;" x="300.395803" xlink:href="#m41a769c189" y="429.336"/>
      </g>
     </g>
     <g id="text_4">
      <!-- 2020-03-29 -->
      <g transform="translate(271.337991 443.934438)scale(0.1 -0.1)">
       <use xlink:href="#DejaVuSans-50"/>
       <use x="63.623047" xlink:href="#DejaVuSans-48"/>
       <use x="127.246094" xlink:href="#DejaVuSans-50"/>
       <use x="190.869141" xlink:href="#DejaVuSans-48"/>
       <use x="254.492188" xlink:href="#DejaVuSans-45"/>
       <use x="290.576172" xlink:href="#DejaVuSans-48"/>
       <use x="354.199219" xlink:href="#DejaVuSans-51"/>
       <use x="417.822266" xlink:href="#DejaVuSans-45"/>
       <use x="453.90625" xlink:href="#DejaVuSans-50"/>
       <use x="517.529297" xlink:href="#DejaVuSans-57"/>
      </g>
     </g>
    </g>
    <g id="xtick_5">
     <g id="line2d_5">
      <g>
       <use style="stroke:#000000;stroke-width:0.8;" x="316.562003" xlink:href="#m41a769c189" y="429.336"/>
      </g>
     </g>
     <g id="text_5">
      <!-- 2020-04-01 -->
      <defs>
       <path d="M 37.796875 64.3125 
L 12.890625 25.390625 
L 37.796875 25.390625 
z
M 35.203125 72.90625 
L 47.609375 72.90625 
L 47.609375 25.390625 
L 58.015625 25.390625 
L 58.015625 17.1875 
L 47.609375 17.1875 
L 47.609375 0 
L 37.796875 0 
L 37.796875 17.1875 
L 4.890625 17.1875 
L 4.890625 26.703125 
z
" id="DejaVuSans-52"/>
      </defs>
      <g transform="translate(287.50419 443.934438)scale(0.1 -0.1)">
       <use xlink:href="#DejaVuSans-50"/>
       <use x="63.623047" xlink:href="#DejaVuSans-48"/>
       <use x="127.246094" xlink:href="#DejaVuSans-50"/>
       <use x="190.869141" xlink:href="#DejaVuSans-48"/>
       <use x="254.492188" xlink:href="#DejaVuSans-45"/>
       <use x="290.576172" xlink:href="#DejaVuSans-48"/>
       <use x="354.199219" xlink:href="#DejaVuSans-52"/>
       <use x="417.822266" xlink:href="#DejaVuSans-45"/>
       <use x="453.90625" xlink:href="#DejaVuSans-48"/>
       <use x="517.529297" xlink:href="#DejaVuSans-49"/>
      </g>
     </g>
    </g>
    <g id="xtick_6">
     <g id="line2d_6">
      <g>
       <use style="stroke:#000000;stroke-width:0.8;" x="392.004268" xlink:href="#m41a769c189" y="429.336"/>
      </g>
     </g>
     <g id="text_6">
      <!-- 2020-04-15 -->
      <g transform="translate(362.946456 443.934438)scale(0.1 -0.1)">
       <use xlink:href="#DejaVuSans-50"/>
       <use x="63.623047" xlink:href="#DejaVuSans-48"/>
       <use x="127.246094" xlink:href="#DejaVuSans-50"/>
       <use x="190.869141" xlink:href="#DejaVuSans-48"/>
       <use x="254.492188" xlink:href="#DejaVuSans-45"/>
       <use x="290.576172" xlink:href="#DejaVuSans-48"/>
       <use x="354.199219" xlink:href="#DejaVuSans-52"/>
       <use x="417.822266" xlink:href="#DejaVuSans-45"/>
       <use x="453.90625" xlink:href="#DejaVuSans-49"/>
       <use x="517.529297" xlink:href="#DejaVuSans-53"/>
      </g>
     </g>
    </g>
    <g id="xtick_7">
     <g id="line2d_7">
      <g>
       <use style="stroke:#000000;stroke-width:0.8;" x="467.446534" xlink:href="#m41a769c189" y="429.336"/>
      </g>
     </g>
     <g id="text_7">
      <!-- 2020-04-29 -->
      <g transform="translate(438.388721 443.934438)scale(0.1 -0.1)">
       <use xlink:href="#DejaVuSans-50"/>
       <use x="63.623047" xlink:href="#DejaVuSans-48"/>
       <use x="127.246094" xlink:href="#DejaVuSans-50"/>
       <use x="190.869141" xlink:href="#DejaVuSans-48"/>
       <use x="254.492188" xlink:href="#DejaVuSans-45"/>
       <use x="290.576172" xlink:href="#DejaVuSans-48"/>
       <use x="354.199219" xlink:href="#DejaVuSans-52"/>
       <use x="417.822266" xlink:href="#DejaVuSans-45"/>
       <use x="453.90625" xlink:href="#DejaVuSans-50"/>
       <use x="517.529297" xlink:href="#DejaVuSans-57"/>
      </g>
     </g>
    </g>
    <g id="xtick_8">
     <g id="line2d_8">
      <g>
       <use style="stroke:#000000;stroke-width:0.8;" x="478.224" xlink:href="#m41a769c189" y="429.336"/>
      </g>
     </g>
     <g id="text_8">
      <!-- 2020-05-01 -->
      <g transform="translate(449.166187 443.934438)scale(0.1 -0.1)">
       <use xlink:href="#DejaVuSans-50"/>
       <use x="63.623047" xlink:href="#DejaVuSans-48"/>
       <use x="127.246094" xlink:href="#DejaVuSans-50"/>
       <use x="190.869141" xlink:href="#DejaVuSans-48"/>
       <use x="254.492188" xlink:href="#DejaVuSans-45"/>
       <use x="290.576172" xlink:href="#DejaVuSans-48"/>
       <use x="354.199219" xlink:href="#DejaVuSans-53"/>
       <use x="417.822266" xlink:href="#DejaVuSans-45"/>
       <use x="453.90625" xlink:href="#DejaVuSans-48"/>
       <use x="517.529297" xlink:href="#DejaVuSans-49"/>
      </g>
     </g>
    </g>
    <g id="xtick_9">
     <g id="line2d_9">
      <g>
       <use style="stroke:#000000;stroke-width:0.8;" x="553.666265" xlink:href="#m41a769c189" y="429.336"/>
      </g>
     </g>
     <g id="text_9">
      <!-- 2020-05-15 -->
      <g transform="translate(524.608453 443.934438)scale(0.1 -0.1)">
       <use xlink:href="#DejaVuSans-50"/>
       <use x="63.623047" xlink:href="#DejaVuSans-48"/>
       <use x="127.246094" xlink:href="#DejaVuSans-50"/>
       <use x="190.869141" xlink:href="#DejaVuSans-48"/>
       <use x="254.492188" xlink:href="#DejaVuSans-45"/>
       <use x="290.576172" xlink:href="#DejaVuSans-48"/>
       <use x="354.199219" xlink:href="#DejaVuSans-53"/>
       <use x="417.822266" xlink:href="#DejaVuSans-45"/>
       <use x="453.90625" xlink:href="#DejaVuSans-49"/>
       <use x="517.529297" xlink:href="#DejaVuSans-53"/>
      </g>
     </g>
    </g>
    <g id="xtick_10">
     <g id="line2d_10">
      <g>
       <use style="stroke:#000000;stroke-width:0.8;" x="629.108531" xlink:href="#m41a769c189" y="429.336"/>
      </g>
     </g>
     <g id="text_10">
      <!-- 2020-05-29 -->
      <g transform="translate(600.050718 443.934438)scale(0.1 -0.1)">
       <use xlink:href="#DejaVuSans-50"/>
       <use x="63.623047" xlink:href="#DejaVuSans-48"/>
       <use x="127.246094" xlink:href="#DejaVuSans-50"/>
       <use x="190.869141" xlink:href="#DejaVuSans-48"/>
       <use x="254.492188" xlink:href="#DejaVuSans-45"/>
       <use x="290.576172" xlink:href="#DejaVuSans-48"/>
       <use x="354.199219" xlink:href="#DejaVuSans-53"/>
       <use x="417.822266" xlink:href="#DejaVuSans-45"/>
       <use x="453.90625" xlink:href="#DejaVuSans-50"/>
       <use x="517.529297" xlink:href="#DejaVuSans-57"/>
      </g>
     </g>
    </g>
    <g id="xtick_11">
     <g id="line2d_11">
      <g>
       <use style="stroke:#000000;stroke-width:0.8;" x="645.27473" xlink:href="#m41a769c189" y="429.336"/>
      </g>
     </g>
     <g id="text_11">
      <!-- 2020-06-01 -->
      <defs>
       <path d="M 33.015625 40.375 
Q 26.375 40.375 22.484375 35.828125 
Q 18.609375 31.296875 18.609375 23.390625 
Q 18.609375 15.53125 22.484375 10.953125 
Q 26.375 6.390625 33.015625 6.390625 
Q 39.65625 6.390625 43.53125 10.953125 
Q 47.40625 15.53125 47.40625 23.390625 
Q 47.40625 31.296875 43.53125 35.828125 
Q 39.65625 40.375 33.015625 40.375 
z
M 52.59375 71.296875 
L 52.59375 62.3125 
Q 48.875 64.0625 45.09375 64.984375 
Q 41.3125 65.921875 37.59375 65.921875 
Q 27.828125 65.921875 22.671875 59.328125 
Q 17.53125 52.734375 16.796875 39.40625 
Q 19.671875 43.65625 24.015625 45.921875 
Q 28.375 48.1875 33.59375 48.1875 
Q 44.578125 48.1875 50.953125 41.515625 
Q 57.328125 34.859375 57.328125 23.390625 
Q 57.328125 12.15625 50.6875 5.359375 
Q 44.046875 -1.421875 33.015625 -1.421875 
Q 20.359375 -1.421875 13.671875 8.265625 
Q 6.984375 17.96875 6.984375 36.375 
Q 6.984375 53.65625 15.1875 63.9375 
Q 23.390625 74.21875 37.203125 74.21875 
Q 40.921875 74.21875 44.703125 73.484375 
Q 48.484375 72.75 52.59375 71.296875 
z
" id="DejaVuSans-54"/>
      </defs>
      <g transform="translate(616.216918 443.934438)scale(0.1 -0.1)">
       <use xlink:href="#DejaVuSans-50"/>
       <use x="63.623047" xlink:href="#DejaVuSans-48"/>
       <use x="127.246094" xlink:href="#DejaVuSans-50"/>
       <use x="190.869141" xlink:href="#DejaVuSans-48"/>
       <use x="254.492188" xlink:href="#DejaVuSans-45"/>
       <use x="290.576172" xlink:href="#DejaVuSans-48"/>
       <use x="354.199219" xlink:href="#DejaVuSans-54"/>
       <use x="417.822266" xlink:href="#DejaVuSans-45"/>
       <use x="453.90625" xlink:href="#DejaVuSans-48"/>
       <use x="517.529297" xlink:href="#DejaVuSans-49"/>
      </g>
     </g>
    </g>
    <g id="xtick_12">
     <g id="line2d_12">
      <g>
       <use style="stroke:#000000;stroke-width:0.8;" x="720.716996" xlink:href="#m41a769c189" y="429.336"/>
      </g>
     </g>
     <g id="text_12">
      <!-- 2020-06-15 -->
      <g transform="translate(691.659183 443.934438)scale(0.1 -0.1)">
       <use xlink:href="#DejaVuSans-50"/>
       <use x="63.623047" xlink:href="#DejaVuSans-48"/>
       <use x="127.246094" xlink:href="#DejaVuSans-50"/>
       <use x="190.869141" xlink:href="#DejaVuSans-48"/>
       <use x="254.492188" xlink:href="#DejaVuSans-45"/>
       <use x="290.576172" xlink:href="#DejaVuSans-48"/>
       <use x="354.199219" xlink:href="#DejaVuSans-54"/>
       <use x="417.822266" xlink:href="#DejaVuSans-45"/>
       <use x="453.90625" xlink:href="#DejaVuSans-49"/>
       <use x="517.529297" xlink:href="#DejaVuSans-53"/>
      </g>
     </g>
    </g>
    <g id="xtick_13">
     <g id="line2d_13">
      <g>
       <use style="stroke:#000000;stroke-width:0.8;" x="796.159261" xlink:href="#m41a769c189" y="429.336"/>
      </g>
     </g>
     <g id="text_13">
      <!-- 2020-06-29 -->
      <g transform="translate(767.101448 443.934438)scale(0.1 -0.1)">
       <use xlink:href="#DejaVuSans-50"/>
       <use x="63.623047" xlink:href="#DejaVuSans-48"/>
       <use x="127.246094" xlink:href="#DejaVuSans-50"/>
       <use x="190.869141" xlink:href="#DejaVuSans-48"/>
       <use x="254.492188" xlink:href="#DejaVuSans-45"/>
       <use x="290.576172" xlink:href="#DejaVuSans-48"/>
       <use x="354.199219" xlink:href="#DejaVuSans-54"/>
       <use x="417.822266" xlink:href="#DejaVuSans-45"/>
       <use x="453.90625" xlink:href="#DejaVuSans-50"/>
       <use x="517.529297" xlink:href="#DejaVuSans-57"/>
      </g>
     </g>
    </g>
    <g id="xtick_14">
     <g id="line2d_14">
      <g>
       <use style="stroke:#000000;stroke-width:0.8;" x="806.936727" xlink:href="#m41a769c189" y="429.336"/>
      </g>
     </g>
     <g id="text_14">
      <!-- 2020-07-01 -->
      <defs>
       <path d="M 8.203125 72.90625 
L 55.078125 72.90625 
L 55.078125 68.703125 
L 28.609375 0 
L 18.3125 0 
L 43.21875 64.59375 
L 8.203125 64.59375 
z
" id="DejaVuSans-55"/>
      </defs>
      <g transform="translate(777.878915 443.934438)scale(0.1 -0.1)">
       <use xlink:href="#DejaVuSans-50"/>
       <use x="63.623047" xlink:href="#DejaVuSans-48"/>
       <use x="127.246094" xlink:href="#DejaVuSans-50"/>
       <use x="190.869141" xlink:href="#DejaVuSans-48"/>
       <use x="254.492188" xlink:href="#DejaVuSans-45"/>
       <use x="290.576172" xlink:href="#DejaVuSans-48"/>
       <use x="354.199219" xlink:href="#DejaVuSans-55"/>
       <use x="417.822266" xlink:href="#DejaVuSans-45"/>
       <use x="453.90625" xlink:href="#DejaVuSans-48"/>
       <use x="517.529297" xlink:href="#DejaVuSans-49"/>
      </g>
     </g>
    </g>
   </g>
   <g id="matplotlib.axis_2">
    <g id="ytick_1">
     <g id="line2d_15">
      <defs>
       <path d="M 0 0 
L -3.5 0 
" id="md9f7e10118" style="stroke:#000000;stroke-width:0.8;"/>
      </defs>
      <g>
       <use style="stroke:#000000;stroke-width:0.8;" x="116.64" xlink:href="#md9f7e10118" y="412.452"/>
      </g>
     </g>
     <g id="text_15">
      <!-- 0 -->
      <g transform="translate(103.2775 416.251219)scale(0.1 -0.1)">
       <use xlink:href="#DejaVuSans-48"/>
      </g>
     </g>
    </g>
    <g id="ytick_2">
     <g id="line2d_16">
      <g>
       <use style="stroke:#000000;stroke-width:0.8;" x="116.64" xlink:href="#md9f7e10118" y="370.68935"/>
      </g>
     </g>
     <g id="text_16">
      <!-- 2000 -->
      <g transform="translate(84.19 374.488568)scale(0.1 -0.1)">
       <use xlink:href="#DejaVuSans-50"/>
       <use x="63.623047" xlink:href="#DejaVuSans-48"/>
       <use x="127.246094" xlink:href="#DejaVuSans-48"/>
       <use x="190.869141" xlink:href="#DejaVuSans-48"/>
      </g>
     </g>
    </g>
    <g id="ytick_3">
     <g id="line2d_17">
      <g>
       <use style="stroke:#000000;stroke-width:0.8;" x="116.64" xlink:href="#md9f7e10118" y="328.926699"/>
      </g>
     </g>
     <g id="text_17">
      <!-- 4000 -->
      <g transform="translate(84.19 332.725918)scale(0.1 -0.1)">
       <use xlink:href="#DejaVuSans-52"/>
       <use x="63.623047" xlink:href="#DejaVuSans-48"/>
       <use x="127.246094" xlink:href="#DejaVuSans-48"/>
       <use x="190.869141" xlink:href="#DejaVuSans-48"/>
      </g>
     </g>
    </g>
    <g id="ytick_4">
     <g id="line2d_18">
      <g>
       <use style="stroke:#000000;stroke-width:0.8;" x="116.64" xlink:href="#md9f7e10118" y="287.164049"/>
      </g>
     </g>
     <g id="text_18">
      <!-- 6000 -->
      <g transform="translate(84.19 290.963268)scale(0.1 -0.1)">
       <use xlink:href="#DejaVuSans-54"/>
       <use x="63.623047" xlink:href="#DejaVuSans-48"/>
       <use x="127.246094" xlink:href="#DejaVuSans-48"/>
       <use x="190.869141" xlink:href="#DejaVuSans-48"/>
      </g>
     </g>
    </g>
    <g id="ytick_5">
     <g id="line2d_19">
      <g>
       <use style="stroke:#000000;stroke-width:0.8;" x="116.64" xlink:href="#md9f7e10118" y="245.401399"/>
      </g>
     </g>
     <g id="text_19">
      <!-- 8000 -->
      <defs>
       <path d="M 31.78125 34.625 
Q 24.75 34.625 20.71875 30.859375 
Q 16.703125 27.09375 16.703125 20.515625 
Q 16.703125 13.921875 20.71875 10.15625 
Q 24.75 6.390625 31.78125 6.390625 
Q 38.8125 6.390625 42.859375 10.171875 
Q 46.921875 13.96875 46.921875 20.515625 
Q 46.921875 27.09375 42.890625 30.859375 
Q 38.875 34.625 31.78125 34.625 
z
M 21.921875 38.8125 
Q 15.578125 40.375 12.03125 44.71875 
Q 8.5 49.078125 8.5 55.328125 
Q 8.5 64.0625 14.71875 69.140625 
Q 20.953125 74.21875 31.78125 74.21875 
Q 42.671875 74.21875 48.875 69.140625 
Q 55.078125 64.0625 55.078125 55.328125 
Q 55.078125 49.078125 51.53125 44.71875 
Q 48 40.375 41.703125 38.8125 
Q 48.828125 37.15625 52.796875 32.3125 
Q 56.78125 27.484375 56.78125 20.515625 
Q 56.78125 9.90625 50.3125 4.234375 
Q 43.84375 -1.421875 31.78125 -1.421875 
Q 19.734375 -1.421875 13.25 4.234375 
Q 6.78125 9.90625 6.78125 20.515625 
Q 6.78125 27.484375 10.78125 32.3125 
Q 14.796875 37.15625 21.921875 38.8125 
z
M 18.3125 54.390625 
Q 18.3125 48.734375 21.84375 45.5625 
Q 25.390625 42.390625 31.78125 42.390625 
Q 38.140625 42.390625 41.71875 45.5625 
Q 45.3125 48.734375 45.3125 54.390625 
Q 45.3125 60.0625 41.71875 63.234375 
Q 38.140625 66.40625 31.78125 66.40625 
Q 25.390625 66.40625 21.84375 63.234375 
Q 18.3125 60.0625 18.3125 54.390625 
z
" id="DejaVuSans-56"/>
      </defs>
      <g transform="translate(84.19 249.200617)scale(0.1 -0.1)">
       <use xlink:href="#DejaVuSans-56"/>
       <use x="63.623047" xlink:href="#DejaVuSans-48"/>
       <use x="127.246094" xlink:href="#DejaVuSans-48"/>
       <use x="190.869141" xlink:href="#DejaVuSans-48"/>
      </g>
     </g>
    </g>
    <g id="ytick_6">
     <g id="line2d_20">
      <g>
       <use style="stroke:#000000;stroke-width:0.8;" x="116.64" xlink:href="#md9f7e10118" y="203.638748"/>
      </g>
     </g>
     <g id="text_20">
      <!-- 10000 -->
      <g transform="translate(77.8275 207.437967)scale(0.1 -0.1)">
       <use xlink:href="#DejaVuSans-49"/>
       <use x="63.623047" xlink:href="#DejaVuSans-48"/>
       <use x="127.246094" xlink:href="#DejaVuSans-48"/>
       <use x="190.869141" xlink:href="#DejaVuSans-48"/>
       <use x="254.492188" xlink:href="#DejaVuSans-48"/>
      </g>
     </g>
    </g>
    <g id="ytick_7">
     <g id="line2d_21">
      <g>
       <use style="stroke:#000000;stroke-width:0.8;" x="116.64" xlink:href="#md9f7e10118" y="161.876098"/>
      </g>
     </g>
     <g id="text_21">
      <!-- 12000 -->
      <g transform="translate(77.8275 165.675317)scale(0.1 -0.1)">
       <use xlink:href="#DejaVuSans-49"/>
       <use x="63.623047" xlink:href="#DejaVuSans-50"/>
       <use x="127.246094" xlink:href="#DejaVuSans-48"/>
       <use x="190.869141" xlink:href="#DejaVuSans-48"/>
       <use x="254.492188" xlink:href="#DejaVuSans-48"/>
      </g>
     </g>
    </g>
    <g id="ytick_8">
     <g id="line2d_22">
      <g>
       <use style="stroke:#000000;stroke-width:0.8;" x="116.64" xlink:href="#md9f7e10118" y="120.113448"/>
      </g>
     </g>
     <g id="text_22">
      <!-- 14000 -->
      <g transform="translate(77.8275 123.912666)scale(0.1 -0.1)">
       <use xlink:href="#DejaVuSans-49"/>
       <use x="63.623047" xlink:href="#DejaVuSans-52"/>
       <use x="127.246094" xlink:href="#DejaVuSans-48"/>
       <use x="190.869141" xlink:href="#DejaVuSans-48"/>
       <use x="254.492188" xlink:href="#DejaVuSans-48"/>
      </g>
     </g>
    </g>
    <g id="ytick_9">
     <g id="line2d_23">
      <g>
       <use style="stroke:#000000;stroke-width:0.8;" x="116.64" xlink:href="#md9f7e10118" y="78.350797"/>
      </g>
     </g>
     <g id="text_23">
      <!-- 16000 -->
      <g transform="translate(77.8275 82.150016)scale(0.1 -0.1)">
       <use xlink:href="#DejaVuSans-49"/>
       <use x="63.623047" xlink:href="#DejaVuSans-54"/>
       <use x="127.246094" xlink:href="#DejaVuSans-48"/>
       <use x="190.869141" xlink:href="#DejaVuSans-48"/>
       <use x="254.492188" xlink:href="#DejaVuSans-48"/>
      </g>
     </g>
    </g>
   </g>
   <g id="line2d_24">
    <path clip-path="url(#p0f6389c563)" d="M 149.511273 412.389356 
L 154.900006 412.389356 
L 160.288739 412.347593 
L 165.677472 412.284949 
L 171.066206 412.201424 
L 176.454939 412.076136 
L 181.843672 412.055255 
L 187.232405 411.804679 
L 192.621139 411.804679 
L 198.009872 411.595866 
L 203.398605 410.551799 
L 208.787338 410.489155 
L 214.176072 409.507733 
L 219.564805 408.50543 
L 224.953538 407.169025 
L 230.342271 406.292009 
L 235.731004 404.245639 
L 241.119738 402.825709 
L 246.508471 398.023004 
L 251.897204 395.141381 
L 257.285937 391.800369 
L 262.674671 389.211085 
L 268.063404 386.788851 
L 273.452137 383.61489 
L 278.84087 378.248389 
L 284.229604 372.652194 
L 289.618337 365.281086 
L 295.00707 357.972623 
L 300.395803 354.193103 
L 305.784537 350.789447 
L 311.17327 344.963557 
L 316.562003 341.288444 
L 321.950736 334.209675 
L 327.339469 329.636664 
L 332.728203 321.931455 
L 338.116936 320.073017 
L 343.505669 315.917634 
L 348.894402 313.119536 
L 354.283136 308.463001 
L 359.671869 304.787887 
L 365.060602 302.47006 
L 370.449335 301.968909 
L 375.838069 299.922539 
L 381.226802 299.755488 
L 386.615535 301.613926 
L 392.004268 303.221788 
L 397.393001 301.948027 
L 402.781735 303.827347 
L 408.170468 303.910872 
L 413.559201 302.574467 
L 418.947934 304.975819 
L 424.336668 306.395749 
L 429.725401 309.40266 
L 435.114134 311.699606 
L 440.502867 314.560348 
L 445.891601 314.706517 
L 451.280334 315.583533 
L 456.669067 320.657695 
L 462.0578 322.056743 
L 467.446534 323.831656 
L 472.835267 326.170364 
L 478.224 326.316534 
L 483.612733 327.903514 
L 489.001466 330.054291 
L 494.3902 333.938217 
L 499.778933 336.590146 
L 505.167666 339.221193 
L 510.556399 341.664308 
L 515.945133 341.643426 
L 521.333866 342.040172 
L 526.722599 342.102816 
L 532.111332 345.986742 
L 537.500066 348.78484 
L 542.888799 351.227955 
L 548.277532 353.629307 
L 553.666265 355.445982 
L 559.054999 355.299813 
L 564.443732 355.759202 
L 569.832465 357.158251 
L 575.221198 357.763809 
L 580.609931 358.432012 
L 585.998665 359.789298 
L 591.387398 360.749839 
L 596.776131 359.580485 
L 602.164864 358.954045 
L 607.553598 360.186043 
L 612.942331 361.021296 
L 618.331064 362.357701 
L 623.719797 363.151191 
L 629.108531 362.81709 
L 634.497264 363.067666 
L 639.885997 362.545633 
L 645.27473 363.61058 
L 650.663463 363.276479 
L 656.052197 363.088547 
L 661.44093 363.192954 
L 666.829663 363.986444 
L 672.218396 363.276479 
L 677.60713 362.128006 
L 682.995863 362.858853 
L 688.384596 362.963259 
L 693.773329 362.691802 
L 699.162063 363.151191 
L 704.550796 362.462108 
L 709.939529 361.418041 
L 715.328262 360.896008 
L 720.716996 361.543329 
L 726.105729 361.87743 
L 731.494462 361.71038 
" style="fill:none;stroke:#1f77b4;stroke-linecap:square;stroke-width:1.5;"/>
   </g>
   <g id="line2d_25">
    <path clip-path="url(#p0f6389c563)" d="M 149.511273 412.452 
L 154.900006 412.452 
L 160.288739 412.452 
L 165.677472 412.452 
L 171.066206 412.452 
L 176.454939 412.452 
L 181.843672 412.452 
L 187.232405 412.452 
L 192.621139 412.452 
L 198.009872 412.452 
L 203.398605 412.452 
L 208.787338 412.452 
L 214.176072 412.452 
L 219.564805 412.452 
L 224.953538 412.452 
L 230.342271 412.389356 
L 235.731004 412.389356 
L 241.119738 412.389356 
L 246.508471 412.389356 
L 251.897204 412.368475 
L 257.285937 412.326712 
L 262.674671 412.305831 
L 268.063404 412.305831 
L 273.452137 412.180543 
L 278.84087 412.117899 
L 284.229604 412.055255 
L 289.618337 412.034373 
L 295.00707 411.992611 
L 300.395803 411.888204 
L 305.784537 411.449696 
L 311.17327 410.865019 
L 316.562003 410.363867 
L 321.950736 410.134173 
L 327.339469 409.841834 
L 332.728203 409.591258 
L 338.116936 409.048344 
L 343.505669 408.296616 
L 348.894402 407.022855 
L 354.283136 405.5194 
L 359.671869 403.828013 
L 365.060602 402.742184 
L 370.449335 401.176084 
L 375.838069 399.881442 
L 381.226802 398.628563 
L 386.615535 395.684296 
L 392.004268 391.883895 
L 397.393001 388.626408 
L 402.781735 384.324855 
L 408.170468 383.051094 
L 413.559201 381.464113 
L 418.947934 375.847037 
L 424.336668 371.649891 
L 429.725401 366.575729 
L 435.114134 363.13031 
L 440.502867 358.473774 
L 445.891601 356.67798 
L 451.280334 354.715136 
L 456.669067 348.78484 
L 462.0578 346.153793 
L 467.446534 342.812781 
L 472.835267 338.323296 
L 478.224 337.028654 
L 483.612733 335.065809 
L 489.001466 332.372118 
L 494.3902 327.694701 
L 499.778933 323.434911 
L 505.167666 319.17512 
L 510.556399 315.54177 
L 515.945133 314.60211 
L 521.333866 313.829501 
L 526.722599 313.18218 
L 532.111332 308.191543 
L 537.500066 304.453786 
L 542.888799 301.008368 
L 548.277532 296.894747 
L 553.666265 293.929598 
L 559.054999 293.052583 
L 564.443732 292.175567 
L 569.832465 288.458691 
L 575.221198 286.579372 
L 580.609931 284.365951 
L 585.998665 282.319582 
L 591.387398 280.127042 
L 596.776131 279.688535 
L 602.164864 278.957688 
L 607.553598 276.744268 
L 612.942331 274.906711 
L 618.331064 272.818579 
L 623.719797 270.897497 
L 629.108531 270.062244 
L 634.497264 269.101703 
L 639.885997 268.830246 
L 645.27473 267.055333 
L 650.663463 266.094792 
L 656.052197 264.737506 
L 661.44093 263.463745 
L 666.829663 261.939408 
L 672.218396 261.855883 
L 677.60713 261.730595 
L 682.995863 259.558937 
L 688.384596 258.326939 
L 693.773329 257.074059 
L 699.162063 255.967349 
L 704.550796 254.923283 
L 709.939529 254.860639 
L 715.328262 254.693588 
L 720.716996 253.211014 
L 726.105729 251.895491 
L 731.494462 250.997594 
" style="fill:none;stroke:#ff7f0e;stroke-linecap:square;stroke-width:1.5;"/>
   </g>
   <g id="line2d_26">
    <path clip-path="url(#p0f6389c563)" d="M 149.511273 412.389356 
L 154.900006 412.387728 
L 160.288739 412.386058 
L 165.677472 412.384347 
L 171.066206 412.382592 
L 176.454939 412.380793 
L 181.843672 412.378949 
L 187.232405 412.377058 
L 192.621139 412.375121 
L 198.009872 412.373134 
L 203.398605 412.371098 
L 208.787338 412.369012 
L 214.176072 412.366873 
L 219.564805 412.364681 
L 224.953538 412.362435 
L 230.342271 412.360134 
L 235.731004 412.357775 
L 241.119738 412.355359 
L 246.508471 412.352883 
L 251.897204 412.350346 
L 257.285937 412.347748 
L 262.674671 412.345086 
L 268.063404 412.342359 
L 273.452137 412.339565 
L 278.84087 412.336705 
L 284.229604 412.333775 
L 289.618337 412.330774 
L 295.00707 412.327701 
L 300.395803 412.324555 
L 305.784537 412.321334 
L 311.17327 412.318035 
L 316.562003 412.314659 
L 321.950736 412.311203 
L 327.339469 412.307665 
L 332.728203 412.304044 
L 338.116936 412.300338 
L 343.505669 412.296545 
L 348.894402 412.292665 
L 354.283136 412.288695 
L 359.671869 412.284633 
L 365.060602 412.280477 
L 370.449335 412.276227 
L 375.838069 412.27188 
L 381.226802 412.267434 
L 386.615535 412.262888 
L 392.004268 412.25824 
L 397.393001 412.253488 
L 402.781735 412.24863 
L 408.170468 412.243665 
L 413.559201 412.23859 
L 418.947934 412.233405 
L 424.336668 412.228106 
L 429.725401 412.222693 
L 435.114134 412.217164 
L 440.502867 412.211516 
L 445.891601 412.205749 
L 451.280334 412.19986 
L 456.669067 412.193847 
L 462.0578 412.18771 
L 467.446534 412.181446 
L 472.835267 412.175054 
L 478.224 412.168531 
L 483.612733 412.161877 
L 489.001466 412.15509 
L 494.3902 412.148169 
L 499.778933 412.141112 
L 505.167666 412.133917 
L 510.556399 412.126584 
L 515.945133 412.119111 
L 521.333866 412.111496 
L 526.722599 412.10374 
L 532.111332 412.09584 
L 537.500066 412.087795 
L 542.888799 412.079606 
L 548.277532 412.07127 
L 553.666265 412.062788 
L 559.054999 412.054158 
L 564.443732 412.04538 
L 569.832465 412.036455 
L 575.221198 412.02738 
L 580.609931 412.018158 
L 585.998665 412.008786 
L 591.387398 411.999266 
L 596.776131 411.989598 
L 602.164864 411.979782 
L 607.553598 411.969819 
L 612.942331 411.959709 
L 618.331064 411.949454 
L 623.719797 411.939055 
L 629.108531 411.928513 
L 634.497264 411.917829 
L 639.885997 411.907005 
L 645.27473 411.896044 
L 650.663463 411.884947 
L 656.052197 411.873716 
L 661.44093 411.862355 
L 666.829663 411.850866 
L 672.218396 411.839252 
L 677.60713 411.827516 
L 682.995863 411.815662 
L 688.384596 411.803695 
L 693.773329 411.791617 
L 699.162063 411.779434 
L 704.550796 411.767149 
L 709.939529 411.754769 
L 715.328262 411.742298 
L 720.716996 411.729741 
L 726.105729 411.717105 
L 731.494462 411.704396 
L 736.883195 411.691619 
L 742.271928 411.678782 
L 747.660662 411.665892 
L 753.049395 411.652955 
L 758.438128 411.63998 
L 763.826861 411.626975 
L 769.215595 411.613946 
L 774.604328 411.600904 
L 779.993061 411.587856 
L 785.381794 411.574812 
L 790.770528 411.561781 
L 796.159261 411.548772 
L 801.547994 411.535796 
L 806.936727 411.522861 
" style="fill:none;stroke:#2ca02c;stroke-linecap:square;stroke-width:1.5;"/>
   </g>
   <g id="line2d_27">
    <path clip-path="url(#p0f6389c563)" d="M 149.511273 412.452 
L 154.900006 411.962863 
L 160.288739 411.461017 
L 165.677472 410.94614 
L 171.066206 410.417903 
L 176.454939 409.875971 
L 181.843672 409.319997 
L 187.232405 408.749631 
L 192.621139 408.16451 
L 198.009872 407.564265 
L 203.398605 406.948518 
L 208.787338 406.316883 
L 214.176072 405.668963 
L 219.564805 405.004354 
L 224.953538 404.322643 
L 230.342271 403.623404 
L 235.731004 402.906206 
L 241.119738 402.170605 
L 246.508471 401.416148 
L 251.897204 400.642374 
L 257.285937 399.848807 
L 262.674671 399.034965 
L 268.063404 398.200354 
L 273.452137 397.344467 
L 278.84087 396.46679 
L 284.229604 395.566795 
L 289.618337 394.643942 
L 295.00707 393.697684 
L 300.395803 392.727457 
L 305.784537 391.732688 
L 311.17327 390.712792 
L 316.562003 389.667171 
L 321.950736 388.595216 
L 327.339469 387.496305 
L 332.728203 386.369803 
L 338.116936 385.215062 
L 343.505669 384.031422 
L 348.894402 382.81821 
L 354.283136 381.574741 
L 359.671869 380.300314 
L 365.060602 378.994218 
L 370.449335 377.655725 
L 375.838069 376.284097 
L 381.226802 374.878581 
L 386.615535 373.438409 
L 392.004268 371.962802 
L 397.393001 370.450965 
L 402.781735 368.902091 
L 408.170468 367.315359 
L 413.559201 365.689932 
L 418.947934 364.024961 
L 424.336668 362.319585 
L 429.725401 360.572925 
L 435.114134 358.784091 
L 440.502867 356.952181 
L 445.891601 355.076275 
L 451.280334 353.155444 
L 456.669067 351.188743 
L 462.0578 349.175215 
L 467.446534 347.11389 
L 472.835267 345.003785 
L 478.224 342.843904 
L 483.612733 340.633241 
L 489.001466 338.370775 
L 494.3902 336.055475 
L 499.778933 333.6863 
L 505.167666 331.262195 
L 510.556399 328.782097 
L 515.945133 326.244932 
L 521.333866 323.649617 
L 526.722599 320.995059 
L 532.111332 318.280157 
L 537.500066 315.503803 
L 542.888799 312.66488 
L 548.277532 309.762265 
L 553.666265 306.794831 
L 559.054999 303.761444 
L 564.443732 300.660966 
L 569.832465 297.492256 
L 575.221198 294.25417 
L 580.609931 290.945563 
L 585.998665 287.565289 
L 591.387398 284.112203 
L 596.776131 280.585161 
L 602.164864 276.983023 
L 607.553598 273.304651 
L 612.942331 269.548914 
L 618.331064 265.714688 
L 623.719797 261.800855 
L 629.108531 257.806308 
L 634.497264 253.729949 
L 639.885997 249.570696 
L 645.27473 245.327476 
L 650.663463 240.999237 
L 656.052197 236.58494 
L 661.44093 232.083568 
L 666.829663 227.494122 
L 672.218396 222.815629 
L 677.60713 218.04714 
L 682.995863 213.187729 
L 688.384596 208.236504 
L 693.773329 203.192599 
L 699.162063 198.055184 
L 704.550796 192.823462 
L 709.939529 187.496673 
L 715.328262 182.074097 
L 720.716996 176.555055 
L 726.105729 170.938911 
L 731.494462 165.225076 
L 736.883195 159.413007 
L 742.271928 153.502214 
L 747.660662 147.492258 
L 753.049395 141.382756 
L 758.438128 135.17338 
L 763.826861 128.863863 
L 769.215595 122.454001 
L 774.604328 115.943651 
L 779.993061 109.332739 
L 785.381794 102.621257 
L 790.770528 95.809269 
L 796.159261 88.896911 
L 801.547994 81.884392 
L 806.936727 74.772 
" style="fill:none;stroke:#d62728;stroke-linecap:square;stroke-width:1.5;"/>
   </g>
   <g id="patch_3">
    <path d="M 116.64 429.336 
L 116.64 57.888 
" style="fill:none;stroke:#000000;stroke-linecap:square;stroke-linejoin:miter;stroke-width:0.8;"/>
   </g>
   <g id="patch_4">
    <path d="M 839.808 429.336 
L 839.808 57.888 
" style="fill:none;stroke:#000000;stroke-linecap:square;stroke-linejoin:miter;stroke-width:0.8;"/>
   </g>
   <g id="patch_5">
    <path d="M 116.64 429.336 
L 839.808 429.336 
" style="fill:none;stroke:#000000;stroke-linecap:square;stroke-linejoin:miter;stroke-width:0.8;"/>
   </g>
   <g id="patch_6">
    <path d="M 116.64 57.888 
L 839.808 57.888 
" style="fill:none;stroke:#000000;stroke-linecap:square;stroke-linejoin:miter;stroke-width:0.8;"/>
   </g>
   <g id="text_24">
    <!-- https://github.com/PavelDusek/COVID-19 -->
    <defs>
     <path d="M 54.890625 33.015625 
L 54.890625 0 
L 45.90625 0 
L 45.90625 32.71875 
Q 45.90625 40.484375 42.875 44.328125 
Q 39.84375 48.1875 33.796875 48.1875 
Q 26.515625 48.1875 22.3125 43.546875 
Q 18.109375 38.921875 18.109375 30.90625 
L 18.109375 0 
L 9.078125 0 
L 9.078125 75.984375 
L 18.109375 75.984375 
L 18.109375 46.1875 
Q 21.34375 51.125 25.703125 53.5625 
Q 30.078125 56 35.796875 56 
Q 45.21875 56 50.046875 50.171875 
Q 54.890625 44.34375 54.890625 33.015625 
z
" id="DejaVuSans-104"/>
     <path d="M 18.3125 70.21875 
L 18.3125 54.6875 
L 36.8125 54.6875 
L 36.8125 47.703125 
L 18.3125 47.703125 
L 18.3125 18.015625 
Q 18.3125 11.328125 20.140625 9.421875 
Q 21.96875 7.515625 27.59375 7.515625 
L 36.8125 7.515625 
L 36.8125 0 
L 27.59375 0 
Q 17.1875 0 13.234375 3.875 
Q 9.28125 7.765625 9.28125 18.015625 
L 9.28125 47.703125 
L 2.6875 47.703125 
L 2.6875 54.6875 
L 9.28125 54.6875 
L 9.28125 70.21875 
z
" id="DejaVuSans-116"/>
     <path d="M 18.109375 8.203125 
L 18.109375 -20.796875 
L 9.078125 -20.796875 
L 9.078125 54.6875 
L 18.109375 54.6875 
L 18.109375 46.390625 
Q 20.953125 51.265625 25.265625 53.625 
Q 29.59375 56 35.59375 56 
Q 45.5625 56 51.78125 48.09375 
Q 58.015625 40.1875 58.015625 27.296875 
Q 58.015625 14.40625 51.78125 6.484375 
Q 45.5625 -1.421875 35.59375 -1.421875 
Q 29.59375 -1.421875 25.265625 0.953125 
Q 20.953125 3.328125 18.109375 8.203125 
z
M 48.6875 27.296875 
Q 48.6875 37.203125 44.609375 42.84375 
Q 40.53125 48.484375 33.40625 48.484375 
Q 26.265625 48.484375 22.1875 42.84375 
Q 18.109375 37.203125 18.109375 27.296875 
Q 18.109375 17.390625 22.1875 11.75 
Q 26.265625 6.109375 33.40625 6.109375 
Q 40.53125 6.109375 44.609375 11.75 
Q 48.6875 17.390625 48.6875 27.296875 
z
" id="DejaVuSans-112"/>
     <path d="M 44.28125 53.078125 
L 44.28125 44.578125 
Q 40.484375 46.53125 36.375 47.5 
Q 32.28125 48.484375 27.875 48.484375 
Q 21.1875 48.484375 17.84375 46.4375 
Q 14.5 44.390625 14.5 40.28125 
Q 14.5 37.15625 16.890625 35.375 
Q 19.28125 33.59375 26.515625 31.984375 
L 29.59375 31.296875 
Q 39.15625 29.25 43.1875 25.515625 
Q 47.21875 21.78125 47.21875 15.09375 
Q 47.21875 7.46875 41.1875 3.015625 
Q 35.15625 -1.421875 24.609375 -1.421875 
Q 20.21875 -1.421875 15.453125 -0.5625 
Q 10.6875 0.296875 5.421875 2 
L 5.421875 11.28125 
Q 10.40625 8.6875 15.234375 7.390625 
Q 20.0625 6.109375 24.8125 6.109375 
Q 31.15625 6.109375 34.5625 8.28125 
Q 37.984375 10.453125 37.984375 14.40625 
Q 37.984375 18.0625 35.515625 20.015625 
Q 33.0625 21.96875 24.703125 23.78125 
L 21.578125 24.515625 
Q 13.234375 26.265625 9.515625 29.90625 
Q 5.8125 33.546875 5.8125 39.890625 
Q 5.8125 47.609375 11.28125 51.796875 
Q 16.75 56 26.8125 56 
Q 31.78125 56 36.171875 55.265625 
Q 40.578125 54.546875 44.28125 53.078125 
z
" id="DejaVuSans-115"/>
     <path d="M 11.71875 12.40625 
L 22.015625 12.40625 
L 22.015625 0 
L 11.71875 0 
z
M 11.71875 51.703125 
L 22.015625 51.703125 
L 22.015625 39.3125 
L 11.71875 39.3125 
z
" id="DejaVuSans-58"/>
     <path d="M 25.390625 72.90625 
L 33.6875 72.90625 
L 8.296875 -9.28125 
L 0 -9.28125 
z
" id="DejaVuSans-47"/>
     <path d="M 45.40625 27.984375 
Q 45.40625 37.75 41.375 43.109375 
Q 37.359375 48.484375 30.078125 48.484375 
Q 22.859375 48.484375 18.828125 43.109375 
Q 14.796875 37.75 14.796875 27.984375 
Q 14.796875 18.265625 18.828125 12.890625 
Q 22.859375 7.515625 30.078125 7.515625 
Q 37.359375 7.515625 41.375 12.890625 
Q 45.40625 18.265625 45.40625 27.984375 
z
M 54.390625 6.78125 
Q 54.390625 -7.171875 48.1875 -13.984375 
Q 42 -20.796875 29.203125 -20.796875 
Q 24.46875 -20.796875 20.265625 -20.09375 
Q 16.0625 -19.390625 12.109375 -17.921875 
L 12.109375 -9.1875 
Q 16.0625 -11.328125 19.921875 -12.34375 
Q 23.78125 -13.375 27.78125 -13.375 
Q 36.625 -13.375 41.015625 -8.765625 
Q 45.40625 -4.15625 45.40625 5.171875 
L 45.40625 9.625 
Q 42.625 4.78125 38.28125 2.390625 
Q 33.9375 0 27.875 0 
Q 17.828125 0 11.671875 7.65625 
Q 5.515625 15.328125 5.515625 27.984375 
Q 5.515625 40.671875 11.671875 48.328125 
Q 17.828125 56 27.875 56 
Q 33.9375 56 38.28125 53.609375 
Q 42.625 51.21875 45.40625 46.390625 
L 45.40625 54.6875 
L 54.390625 54.6875 
z
" id="DejaVuSans-103"/>
     <path d="M 9.421875 54.6875 
L 18.40625 54.6875 
L 18.40625 0 
L 9.421875 0 
z
M 9.421875 75.984375 
L 18.40625 75.984375 
L 18.40625 64.59375 
L 9.421875 64.59375 
z
" id="DejaVuSans-105"/>
     <path d="M 8.5 21.578125 
L 8.5 54.6875 
L 17.484375 54.6875 
L 17.484375 21.921875 
Q 17.484375 14.15625 20.5 10.265625 
Q 23.53125 6.390625 29.59375 6.390625 
Q 36.859375 6.390625 41.078125 11.03125 
Q 45.3125 15.671875 45.3125 23.6875 
L 45.3125 54.6875 
L 54.296875 54.6875 
L 54.296875 0 
L 45.3125 0 
L 45.3125 8.40625 
Q 42.046875 3.421875 37.71875 1 
Q 33.40625 -1.421875 27.6875 -1.421875 
Q 18.265625 -1.421875 13.375 4.4375 
Q 8.5 10.296875 8.5 21.578125 
z
M 31.109375 56 
z
" id="DejaVuSans-117"/>
     <path d="M 48.6875 27.296875 
Q 48.6875 37.203125 44.609375 42.84375 
Q 40.53125 48.484375 33.40625 48.484375 
Q 26.265625 48.484375 22.1875 42.84375 
Q 18.109375 37.203125 18.109375 27.296875 
Q 18.109375 17.390625 22.1875 11.75 
Q 26.265625 6.109375 33.40625 6.109375 
Q 40.53125 6.109375 44.609375 11.75 
Q 48.6875 17.390625 48.6875 27.296875 
z
M 18.109375 46.390625 
Q 20.953125 51.265625 25.265625 53.625 
Q 29.59375 56 35.59375 56 
Q 45.5625 56 51.78125 48.09375 
Q 58.015625 40.1875 58.015625 27.296875 
Q 58.015625 14.40625 51.78125 6.484375 
Q 45.5625 -1.421875 35.59375 -1.421875 
Q 29.59375 -1.421875 25.265625 0.953125 
Q 20.953125 3.328125 18.109375 8.203125 
L 18.109375 0 
L 9.078125 0 
L 9.078125 75.984375 
L 18.109375 75.984375 
z
" id="DejaVuSans-98"/>
     <path d="M 10.6875 12.40625 
L 21 12.40625 
L 21 0 
L 10.6875 0 
z
" id="DejaVuSans-46"/>
     <path d="M 48.78125 52.59375 
L 48.78125 44.1875 
Q 44.96875 46.296875 41.140625 47.34375 
Q 37.3125 48.390625 33.40625 48.390625 
Q 24.65625 48.390625 19.8125 42.84375 
Q 14.984375 37.3125 14.984375 27.296875 
Q 14.984375 17.28125 19.8125 11.734375 
Q 24.65625 6.203125 33.40625 6.203125 
Q 37.3125 6.203125 41.140625 7.25 
Q 44.96875 8.296875 48.78125 10.40625 
L 48.78125 2.09375 
Q 45.015625 0.34375 40.984375 -0.53125 
Q 36.96875 -1.421875 32.421875 -1.421875 
Q 20.0625 -1.421875 12.78125 6.34375 
Q 5.515625 14.109375 5.515625 27.296875 
Q 5.515625 40.671875 12.859375 48.328125 
Q 20.21875 56 33.015625 56 
Q 37.15625 56 41.109375 55.140625 
Q 45.0625 54.296875 48.78125 52.59375 
z
" id="DejaVuSans-99"/>
     <path d="M 30.609375 48.390625 
Q 23.390625 48.390625 19.1875 42.75 
Q 14.984375 37.109375 14.984375 27.296875 
Q 14.984375 17.484375 19.15625 11.84375 
Q 23.34375 6.203125 30.609375 6.203125 
Q 37.796875 6.203125 41.984375 11.859375 
Q 46.1875 17.53125 46.1875 27.296875 
Q 46.1875 37.015625 41.984375 42.703125 
Q 37.796875 48.390625 30.609375 48.390625 
z
M 30.609375 56 
Q 42.328125 56 49.015625 48.375 
Q 55.71875 40.765625 55.71875 27.296875 
Q 55.71875 13.875 49.015625 6.21875 
Q 42.328125 -1.421875 30.609375 -1.421875 
Q 18.84375 -1.421875 12.171875 6.21875 
Q 5.515625 13.875 5.515625 27.296875 
Q 5.515625 40.765625 12.171875 48.375 
Q 18.84375 56 30.609375 56 
z
" id="DejaVuSans-111"/>
     <path d="M 52 44.1875 
Q 55.375 50.25 60.0625 53.125 
Q 64.75 56 71.09375 56 
Q 79.640625 56 84.28125 50.015625 
Q 88.921875 44.046875 88.921875 33.015625 
L 88.921875 0 
L 79.890625 0 
L 79.890625 32.71875 
Q 79.890625 40.578125 77.09375 44.375 
Q 74.3125 48.1875 68.609375 48.1875 
Q 61.625 48.1875 57.5625 43.546875 
Q 53.515625 38.921875 53.515625 30.90625 
L 53.515625 0 
L 44.484375 0 
L 44.484375 32.71875 
Q 44.484375 40.625 41.703125 44.40625 
Q 38.921875 48.1875 33.109375 48.1875 
Q 26.21875 48.1875 22.15625 43.53125 
Q 18.109375 38.875 18.109375 30.90625 
L 18.109375 0 
L 9.078125 0 
L 9.078125 54.6875 
L 18.109375 54.6875 
L 18.109375 46.1875 
Q 21.1875 51.21875 25.484375 53.609375 
Q 29.78125 56 35.6875 56 
Q 41.65625 56 45.828125 52.96875 
Q 50 49.953125 52 44.1875 
z
" id="DejaVuSans-109"/>
     <path d="M 19.671875 64.796875 
L 19.671875 37.40625 
L 32.078125 37.40625 
Q 38.96875 37.40625 42.71875 40.96875 
Q 46.484375 44.53125 46.484375 51.125 
Q 46.484375 57.671875 42.71875 61.234375 
Q 38.96875 64.796875 32.078125 64.796875 
z
M 9.8125 72.90625 
L 32.078125 72.90625 
Q 44.34375 72.90625 50.609375 67.359375 
Q 56.890625 61.8125 56.890625 51.125 
Q 56.890625 40.328125 50.609375 34.8125 
Q 44.34375 29.296875 32.078125 29.296875 
L 19.671875 29.296875 
L 19.671875 0 
L 9.8125 0 
z
" id="DejaVuSans-80"/>
     <path d="M 34.28125 27.484375 
Q 23.390625 27.484375 19.1875 25 
Q 14.984375 22.515625 14.984375 16.5 
Q 14.984375 11.71875 18.140625 8.90625 
Q 21.296875 6.109375 26.703125 6.109375 
Q 34.1875 6.109375 38.703125 11.40625 
Q 43.21875 16.703125 43.21875 25.484375 
L 43.21875 27.484375 
z
M 52.203125 31.203125 
L 52.203125 0 
L 43.21875 0 
L 43.21875 8.296875 
Q 40.140625 3.328125 35.546875 0.953125 
Q 30.953125 -1.421875 24.3125 -1.421875 
Q 15.921875 -1.421875 10.953125 3.296875 
Q 6 8.015625 6 15.921875 
Q 6 25.140625 12.171875 29.828125 
Q 18.359375 34.515625 30.609375 34.515625 
L 43.21875 34.515625 
L 43.21875 35.40625 
Q 43.21875 41.609375 39.140625 45 
Q 35.0625 48.390625 27.6875 48.390625 
Q 23 48.390625 18.546875 47.265625 
Q 14.109375 46.140625 10.015625 43.890625 
L 10.015625 52.203125 
Q 14.9375 54.109375 19.578125 55.046875 
Q 24.21875 56 28.609375 56 
Q 40.484375 56 46.34375 49.84375 
Q 52.203125 43.703125 52.203125 31.203125 
z
" id="DejaVuSans-97"/>
     <path d="M 2.984375 54.6875 
L 12.5 54.6875 
L 29.59375 8.796875 
L 46.6875 54.6875 
L 56.203125 54.6875 
L 35.6875 0 
L 23.484375 0 
z
" id="DejaVuSans-118"/>
     <path d="M 56.203125 29.59375 
L 56.203125 25.203125 
L 14.890625 25.203125 
Q 15.484375 15.921875 20.484375 11.0625 
Q 25.484375 6.203125 34.421875 6.203125 
Q 39.59375 6.203125 44.453125 7.46875 
Q 49.3125 8.734375 54.109375 11.28125 
L 54.109375 2.78125 
Q 49.265625 0.734375 44.1875 -0.34375 
Q 39.109375 -1.421875 33.890625 -1.421875 
Q 20.796875 -1.421875 13.15625 6.1875 
Q 5.515625 13.8125 5.515625 26.8125 
Q 5.515625 40.234375 12.765625 48.109375 
Q 20.015625 56 32.328125 56 
Q 43.359375 56 49.78125 48.890625 
Q 56.203125 41.796875 56.203125 29.59375 
z
M 47.21875 32.234375 
Q 47.125 39.59375 43.09375 43.984375 
Q 39.0625 48.390625 32.421875 48.390625 
Q 24.90625 48.390625 20.390625 44.140625 
Q 15.875 39.890625 15.1875 32.171875 
z
" id="DejaVuSans-101"/>
     <path d="M 9.421875 75.984375 
L 18.40625 75.984375 
L 18.40625 0 
L 9.421875 0 
z
" id="DejaVuSans-108"/>
     <path d="M 19.671875 64.796875 
L 19.671875 8.109375 
L 31.59375 8.109375 
Q 46.6875 8.109375 53.6875 14.9375 
Q 60.6875 21.78125 60.6875 36.53125 
Q 60.6875 51.171875 53.6875 57.984375 
Q 46.6875 64.796875 31.59375 64.796875 
z
M 9.8125 72.90625 
L 30.078125 72.90625 
Q 51.265625 72.90625 61.171875 64.09375 
Q 71.09375 55.28125 71.09375 36.53125 
Q 71.09375 17.671875 61.125 8.828125 
Q 51.171875 0 30.078125 0 
L 9.8125 0 
z
" id="DejaVuSans-68"/>
     <path d="M 9.078125 75.984375 
L 18.109375 75.984375 
L 18.109375 31.109375 
L 44.921875 54.6875 
L 56.390625 54.6875 
L 27.390625 29.109375 
L 57.625 0 
L 45.90625 0 
L 18.109375 26.703125 
L 18.109375 0 
L 9.078125 0 
z
" id="DejaVuSans-107"/>
     <path d="M 64.40625 67.28125 
L 64.40625 56.890625 
Q 59.421875 61.53125 53.78125 63.8125 
Q 48.140625 66.109375 41.796875 66.109375 
Q 29.296875 66.109375 22.65625 58.46875 
Q 16.015625 50.828125 16.015625 36.375 
Q 16.015625 21.96875 22.65625 14.328125 
Q 29.296875 6.6875 41.796875 6.6875 
Q 48.140625 6.6875 53.78125 8.984375 
Q 59.421875 11.28125 64.40625 15.921875 
L 64.40625 5.609375 
Q 59.234375 2.09375 53.4375 0.328125 
Q 47.65625 -1.421875 41.21875 -1.421875 
Q 24.65625 -1.421875 15.125 8.703125 
Q 5.609375 18.84375 5.609375 36.375 
Q 5.609375 53.953125 15.125 64.078125 
Q 24.65625 74.21875 41.21875 74.21875 
Q 47.75 74.21875 53.53125 72.484375 
Q 59.328125 70.75 64.40625 67.28125 
z
" id="DejaVuSans-67"/>
     <path d="M 39.40625 66.21875 
Q 28.65625 66.21875 22.328125 58.203125 
Q 16.015625 50.203125 16.015625 36.375 
Q 16.015625 22.609375 22.328125 14.59375 
Q 28.65625 6.59375 39.40625 6.59375 
Q 50.140625 6.59375 56.421875 14.59375 
Q 62.703125 22.609375 62.703125 36.375 
Q 62.703125 50.203125 56.421875 58.203125 
Q 50.140625 66.21875 39.40625 66.21875 
z
M 39.40625 74.21875 
Q 54.734375 74.21875 63.90625 63.9375 
Q 73.09375 53.65625 73.09375 36.375 
Q 73.09375 19.140625 63.90625 8.859375 
Q 54.734375 -1.421875 39.40625 -1.421875 
Q 24.03125 -1.421875 14.8125 8.828125 
Q 5.609375 19.09375 5.609375 36.375 
Q 5.609375 53.65625 14.8125 63.9375 
Q 24.03125 74.21875 39.40625 74.21875 
z
" id="DejaVuSans-79"/>
     <path d="M 28.609375 0 
L 0.78125 72.90625 
L 11.078125 72.90625 
L 34.1875 11.53125 
L 57.328125 72.90625 
L 67.578125 72.90625 
L 39.796875 0 
z
" id="DejaVuSans-86"/>
     <path d="M 9.8125 72.90625 
L 19.671875 72.90625 
L 19.671875 0 
L 9.8125 0 
z
" id="DejaVuSans-73"/>
    </defs>
    <g transform="translate(354.591188 11.575875)scale(0.12 -0.12)">
     <use xlink:href="#DejaVuSans-104"/>
     <use x="63.378906" xlink:href="#DejaVuSans-116"/>
     <use x="102.587891" xlink:href="#DejaVuSans-116"/>
     <use x="141.796875" xlink:href="#DejaVuSans-112"/>
     <use x="205.273438" xlink:href="#DejaVuSans-115"/>
     <use x="257.373047" xlink:href="#DejaVuSans-58"/>
     <use x="291.064453" xlink:href="#DejaVuSans-47"/>
     <use x="324.755859" xlink:href="#DejaVuSans-47"/>
     <use x="358.447266" xlink:href="#DejaVuSans-103"/>
     <use x="421.923828" xlink:href="#DejaVuSans-105"/>
     <use x="449.707031" xlink:href="#DejaVuSans-116"/>
     <use x="488.916016" xlink:href="#DejaVuSans-104"/>
     <use x="552.294922" xlink:href="#DejaVuSans-117"/>
     <use x="615.673828" xlink:href="#DejaVuSans-98"/>
     <use x="679.150391" xlink:href="#DejaVuSans-46"/>
     <use x="710.9375" xlink:href="#DejaVuSans-99"/>
     <use x="765.917969" xlink:href="#DejaVuSans-111"/>
     <use x="827.099609" xlink:href="#DejaVuSans-109"/>
     <use x="924.511719" xlink:href="#DejaVuSans-47"/>
     <use x="958.203125" xlink:href="#DejaVuSans-80"/>
     <use x="1018.443359" xlink:href="#DejaVuSans-97"/>
     <use x="1079.722656" xlink:href="#DejaVuSans-118"/>
     <use x="1138.902344" xlink:href="#DejaVuSans-101"/>
     <use x="1200.425781" xlink:href="#DejaVuSans-108"/>
     <use x="1228.208984" xlink:href="#DejaVuSans-68"/>
     <use x="1305.210938" xlink:href="#DejaVuSans-117"/>
     <use x="1368.589844" xlink:href="#DejaVuSans-115"/>
     <use x="1420.689453" xlink:href="#DejaVuSans-101"/>
     <use x="1482.212891" xlink:href="#DejaVuSans-107"/>
     <use x="1540.123047" xlink:href="#DejaVuSans-47"/>
     <use x="1573.814453" xlink:href="#DejaVuSans-67"/>
     <use x="1643.638672" xlink:href="#DejaVuSans-79"/>
     <use x="1722.333984" xlink:href="#DejaVuSans-86"/>
     <use x="1790.742188" xlink:href="#DejaVuSans-73"/>
     <use x="1820.234375" xlink:href="#DejaVuSans-68"/>
     <use x="1897.236328" xlink:href="#DejaVuSans-45"/>
     <use x="1933.320312" xlink:href="#DejaVuSans-49"/>
     <use x="1996.943359" xlink:href="#DejaVuSans-57"/>
    </g>
    <!-- SIR model for the Czech Republic -->
    <defs>
     <path d="M 53.515625 70.515625 
L 53.515625 60.890625 
Q 47.90625 63.578125 42.921875 64.890625 
Q 37.9375 66.21875 33.296875 66.21875 
Q 25.25 66.21875 20.875 63.09375 
Q 16.5 59.96875 16.5 54.203125 
Q 16.5 49.359375 19.40625 46.890625 
Q 22.3125 44.4375 30.421875 42.921875 
L 36.375 41.703125 
Q 47.40625 39.59375 52.65625 34.296875 
Q 57.90625 29 57.90625 20.125 
Q 57.90625 9.515625 50.796875 4.046875 
Q 43.703125 -1.421875 29.984375 -1.421875 
Q 24.8125 -1.421875 18.96875 -0.25 
Q 13.140625 0.921875 6.890625 3.21875 
L 6.890625 13.375 
Q 12.890625 10.015625 18.65625 8.296875 
Q 24.421875 6.59375 29.984375 6.59375 
Q 38.421875 6.59375 43.015625 9.90625 
Q 47.609375 13.234375 47.609375 19.390625 
Q 47.609375 24.75 44.3125 27.78125 
Q 41.015625 30.8125 33.5 32.328125 
L 27.484375 33.5 
Q 16.453125 35.6875 11.515625 40.375 
Q 6.59375 45.0625 6.59375 53.421875 
Q 6.59375 63.09375 13.40625 68.65625 
Q 20.21875 74.21875 32.171875 74.21875 
Q 37.3125 74.21875 42.625 73.28125 
Q 47.953125 72.359375 53.515625 70.515625 
z
" id="DejaVuSans-83"/>
     <path d="M 44.390625 34.1875 
Q 47.5625 33.109375 50.5625 29.59375 
Q 53.5625 26.078125 56.59375 19.921875 
L 66.609375 0 
L 56 0 
L 46.6875 18.703125 
Q 43.0625 26.03125 39.671875 28.421875 
Q 36.28125 30.8125 30.421875 30.8125 
L 19.671875 30.8125 
L 19.671875 0 
L 9.8125 0 
L 9.8125 72.90625 
L 32.078125 72.90625 
Q 44.578125 72.90625 50.734375 67.671875 
Q 56.890625 62.453125 56.890625 51.90625 
Q 56.890625 45.015625 53.6875 40.46875 
Q 50.484375 35.9375 44.390625 34.1875 
z
M 19.671875 64.796875 
L 19.671875 38.921875 
L 32.078125 38.921875 
Q 39.203125 38.921875 42.84375 42.21875 
Q 46.484375 45.515625 46.484375 51.90625 
Q 46.484375 58.296875 42.84375 61.546875 
Q 39.203125 64.796875 32.078125 64.796875 
z
" id="DejaVuSans-82"/>
     <path id="DejaVuSans-32"/>
     <path d="M 45.40625 46.390625 
L 45.40625 75.984375 
L 54.390625 75.984375 
L 54.390625 0 
L 45.40625 0 
L 45.40625 8.203125 
Q 42.578125 3.328125 38.25 0.953125 
Q 33.9375 -1.421875 27.875 -1.421875 
Q 17.96875 -1.421875 11.734375 6.484375 
Q 5.515625 14.40625 5.515625 27.296875 
Q 5.515625 40.1875 11.734375 48.09375 
Q 17.96875 56 27.875 56 
Q 33.9375 56 38.25 53.625 
Q 42.578125 51.265625 45.40625 46.390625 
z
M 14.796875 27.296875 
Q 14.796875 17.390625 18.875 11.75 
Q 22.953125 6.109375 30.078125 6.109375 
Q 37.203125 6.109375 41.296875 11.75 
Q 45.40625 17.390625 45.40625 27.296875 
Q 45.40625 37.203125 41.296875 42.84375 
Q 37.203125 48.484375 30.078125 48.484375 
Q 22.953125 48.484375 18.875 42.84375 
Q 14.796875 37.203125 14.796875 27.296875 
z
" id="DejaVuSans-100"/>
     <path d="M 37.109375 75.984375 
L 37.109375 68.5 
L 28.515625 68.5 
Q 23.6875 68.5 21.796875 66.546875 
Q 19.921875 64.59375 19.921875 59.515625 
L 19.921875 54.6875 
L 34.71875 54.6875 
L 34.71875 47.703125 
L 19.921875 47.703125 
L 19.921875 0 
L 10.890625 0 
L 10.890625 47.703125 
L 2.296875 47.703125 
L 2.296875 54.6875 
L 10.890625 54.6875 
L 10.890625 58.5 
Q 10.890625 67.625 15.140625 71.796875 
Q 19.390625 75.984375 28.609375 75.984375 
z
" id="DejaVuSans-102"/>
     <path d="M 41.109375 46.296875 
Q 39.59375 47.171875 37.8125 47.578125 
Q 36.03125 48 33.890625 48 
Q 26.265625 48 22.1875 43.046875 
Q 18.109375 38.09375 18.109375 28.8125 
L 18.109375 0 
L 9.078125 0 
L 9.078125 54.6875 
L 18.109375 54.6875 
L 18.109375 46.1875 
Q 20.953125 51.171875 25.484375 53.578125 
Q 30.03125 56 36.53125 56 
Q 37.453125 56 38.578125 55.875 
Q 39.703125 55.765625 41.0625 55.515625 
z
" id="DejaVuSans-114"/>
     <path d="M 5.515625 54.6875 
L 48.1875 54.6875 
L 48.1875 46.484375 
L 14.40625 7.171875 
L 48.1875 7.171875 
L 48.1875 0 
L 4.296875 0 
L 4.296875 8.203125 
L 38.09375 47.515625 
L 5.515625 47.515625 
z
" id="DejaVuSans-122"/>
    </defs>
    <g transform="translate(378.118688 25.01325)scale(0.12 -0.12)">
     <use xlink:href="#DejaVuSans-83"/>
     <use x="63.476562" xlink:href="#DejaVuSans-73"/>
     <use x="92.96875" xlink:href="#DejaVuSans-82"/>
     <use x="162.451172" xlink:href="#DejaVuSans-32"/>
     <use x="194.238281" xlink:href="#DejaVuSans-109"/>
     <use x="291.650391" xlink:href="#DejaVuSans-111"/>
     <use x="352.832031" xlink:href="#DejaVuSans-100"/>
     <use x="416.308594" xlink:href="#DejaVuSans-101"/>
     <use x="477.832031" xlink:href="#DejaVuSans-108"/>
     <use x="505.615234" xlink:href="#DejaVuSans-32"/>
     <use x="537.402344" xlink:href="#DejaVuSans-102"/>
     <use x="572.607422" xlink:href="#DejaVuSans-111"/>
     <use x="633.789062" xlink:href="#DejaVuSans-114"/>
     <use x="674.902344" xlink:href="#DejaVuSans-32"/>
     <use x="706.689453" xlink:href="#DejaVuSans-116"/>
     <use x="745.898438" xlink:href="#DejaVuSans-104"/>
     <use x="809.277344" xlink:href="#DejaVuSans-101"/>
     <use x="870.800781" xlink:href="#DejaVuSans-32"/>
     <use x="902.587891" xlink:href="#DejaVuSans-67"/>
     <use x="972.412109" xlink:href="#DejaVuSans-122"/>
     <use x="1024.902344" xlink:href="#DejaVuSans-101"/>
     <use x="1086.425781" xlink:href="#DejaVuSans-99"/>
     <use x="1141.40625" xlink:href="#DejaVuSans-104"/>
     <use x="1204.785156" xlink:href="#DejaVuSans-32"/>
     <use x="1236.572266" xlink:href="#DejaVuSans-82"/>
     <use x="1305.992188" xlink:href="#DejaVuSans-101"/>
     <use x="1367.515625" xlink:href="#DejaVuSans-112"/>
     <use x="1430.992188" xlink:href="#DejaVuSans-117"/>
     <use x="1494.371094" xlink:href="#DejaVuSans-98"/>
     <use x="1557.847656" xlink:href="#DejaVuSans-108"/>
     <use x="1585.630859" xlink:href="#DejaVuSans-105"/>
     <use x="1613.414062" xlink:href="#DejaVuSans-99"/>
    </g>
    <!-- parameters estimated based on data from 2020-06-18 -->
    <defs>
     <path d="M 54.890625 33.015625 
L 54.890625 0 
L 45.90625 0 
L 45.90625 32.71875 
Q 45.90625 40.484375 42.875 44.328125 
Q 39.84375 48.1875 33.796875 48.1875 
Q 26.515625 48.1875 22.3125 43.546875 
Q 18.109375 38.921875 18.109375 30.90625 
L 18.109375 0 
L 9.078125 0 
L 9.078125 54.6875 
L 18.109375 54.6875 
L 18.109375 46.1875 
Q 21.34375 51.125 25.703125 53.5625 
Q 30.078125 56 35.796875 56 
Q 45.21875 56 50.046875 50.171875 
Q 54.890625 44.34375 54.890625 33.015625 
z
" id="DejaVuSans-110"/>
    </defs>
    <g transform="translate(313.706813 38.450625)scale(0.12 -0.12)">
     <use xlink:href="#DejaVuSans-112"/>
     <use x="63.476562" xlink:href="#DejaVuSans-97"/>
     <use x="124.755859" xlink:href="#DejaVuSans-114"/>
     <use x="165.869141" xlink:href="#DejaVuSans-97"/>
     <use x="227.148438" xlink:href="#DejaVuSans-109"/>
     <use x="324.560547" xlink:href="#DejaVuSans-101"/>
     <use x="386.083984" xlink:href="#DejaVuSans-116"/>
     <use x="425.292969" xlink:href="#DejaVuSans-101"/>
     <use x="486.816406" xlink:href="#DejaVuSans-114"/>
     <use x="527.929688" xlink:href="#DejaVuSans-115"/>
     <use x="580.029297" xlink:href="#DejaVuSans-32"/>
     <use x="611.816406" xlink:href="#DejaVuSans-101"/>
     <use x="673.339844" xlink:href="#DejaVuSans-115"/>
     <use x="725.439453" xlink:href="#DejaVuSans-116"/>
     <use x="764.648438" xlink:href="#DejaVuSans-105"/>
     <use x="792.431641" xlink:href="#DejaVuSans-109"/>
     <use x="889.84375" xlink:href="#DejaVuSans-97"/>
     <use x="951.123047" xlink:href="#DejaVuSans-116"/>
     <use x="990.332031" xlink:href="#DejaVuSans-101"/>
     <use x="1051.855469" xlink:href="#DejaVuSans-100"/>
     <use x="1115.332031" xlink:href="#DejaVuSans-32"/>
     <use x="1147.119141" xlink:href="#DejaVuSans-98"/>
     <use x="1210.595703" xlink:href="#DejaVuSans-97"/>
     <use x="1271.875" xlink:href="#DejaVuSans-115"/>
     <use x="1323.974609" xlink:href="#DejaVuSans-101"/>
     <use x="1385.498047" xlink:href="#DejaVuSans-100"/>
     <use x="1448.974609" xlink:href="#DejaVuSans-32"/>
     <use x="1480.761719" xlink:href="#DejaVuSans-111"/>
     <use x="1541.943359" xlink:href="#DejaVuSans-110"/>
     <use x="1605.322266" xlink:href="#DejaVuSans-32"/>
     <use x="1637.109375" xlink:href="#DejaVuSans-100"/>
     <use x="1700.585938" xlink:href="#DejaVuSans-97"/>
     <use x="1761.865234" xlink:href="#DejaVuSans-116"/>
     <use x="1801.074219" xlink:href="#DejaVuSans-97"/>
     <use x="1862.353516" xlink:href="#DejaVuSans-32"/>
     <use x="1894.140625" xlink:href="#DejaVuSans-102"/>
     <use x="1929.345703" xlink:href="#DejaVuSans-114"/>
     <use x="1970.427734" xlink:href="#DejaVuSans-111"/>
     <use x="2031.609375" xlink:href="#DejaVuSans-109"/>
     <use x="2129.021484" xlink:href="#DejaVuSans-32"/>
     <use x="2160.808594" xlink:href="#DejaVuSans-50"/>
     <use x="2224.431641" xlink:href="#DejaVuSans-48"/>
     <use x="2288.054688" xlink:href="#DejaVuSans-50"/>
     <use x="2351.677734" xlink:href="#DejaVuSans-48"/>
     <use x="2415.300781" xlink:href="#DejaVuSans-45"/>
     <use x="2451.384766" xlink:href="#DejaVuSans-48"/>
     <use x="2515.007812" xlink:href="#DejaVuSans-54"/>
     <use x="2578.630859" xlink:href="#DejaVuSans-45"/>
     <use x="2614.714844" xlink:href="#DejaVuSans-49"/>
     <use x="2678.337891" xlink:href="#DejaVuSans-56"/>
    </g>
    <!-- beta = 1/0.13, gamma = 1/0.13, R0 = 1.00 -->
    <defs>
     <path d="M 10.59375 45.40625 
L 73.1875 45.40625 
L 73.1875 37.203125 
L 10.59375 37.203125 
z
M 10.59375 25.484375 
L 73.1875 25.484375 
L 73.1875 17.1875 
L 10.59375 17.1875 
z
" id="DejaVuSans-61"/>
     <path d="M 11.71875 12.40625 
L 22.015625 12.40625 
L 22.015625 4 
L 14.015625 -11.625 
L 7.71875 -11.625 
L 11.71875 4 
z
" id="DejaVuSans-44"/>
    </defs>
    <g transform="translate(347.948063 51.888)scale(0.12 -0.12)">
     <use xlink:href="#DejaVuSans-98"/>
     <use x="63.476562" xlink:href="#DejaVuSans-101"/>
     <use x="125" xlink:href="#DejaVuSans-116"/>
     <use x="164.208984" xlink:href="#DejaVuSans-97"/>
     <use x="225.488281" xlink:href="#DejaVuSans-32"/>
     <use x="257.275391" xlink:href="#DejaVuSans-61"/>
     <use x="341.064453" xlink:href="#DejaVuSans-32"/>
     <use x="372.851562" xlink:href="#DejaVuSans-49"/>
     <use x="436.474609" xlink:href="#DejaVuSans-47"/>
     <use x="470.166016" xlink:href="#DejaVuSans-48"/>
     <use x="533.789062" xlink:href="#DejaVuSans-46"/>
     <use x="565.576172" xlink:href="#DejaVuSans-49"/>
     <use x="629.199219" xlink:href="#DejaVuSans-51"/>
     <use x="692.822266" xlink:href="#DejaVuSans-44"/>
     <use x="724.609375" xlink:href="#DejaVuSans-32"/>
     <use x="756.396484" xlink:href="#DejaVuSans-103"/>
     <use x="819.873047" xlink:href="#DejaVuSans-97"/>
     <use x="881.152344" xlink:href="#DejaVuSans-109"/>
     <use x="978.564453" xlink:href="#DejaVuSans-109"/>
     <use x="1075.976562" xlink:href="#DejaVuSans-97"/>
     <use x="1137.255859" xlink:href="#DejaVuSans-32"/>
     <use x="1169.042969" xlink:href="#DejaVuSans-61"/>
     <use x="1252.832031" xlink:href="#DejaVuSans-32"/>
     <use x="1284.619141" xlink:href="#DejaVuSans-49"/>
     <use x="1348.242188" xlink:href="#DejaVuSans-47"/>
     <use x="1381.933594" xlink:href="#DejaVuSans-48"/>
     <use x="1445.556641" xlink:href="#DejaVuSans-46"/>
     <use x="1477.34375" xlink:href="#DejaVuSans-49"/>
     <use x="1540.966797" xlink:href="#DejaVuSans-51"/>
     <use x="1604.589844" xlink:href="#DejaVuSans-44"/>
     <use x="1636.376953" xlink:href="#DejaVuSans-32"/>
     <use x="1668.164062" xlink:href="#DejaVuSans-82"/>
     <use x="1737.646484" xlink:href="#DejaVuSans-48"/>
     <use x="1801.269531" xlink:href="#DejaVuSans-32"/>
     <use x="1833.056641" xlink:href="#DejaVuSans-61"/>
     <use x="1916.845703" xlink:href="#DejaVuSans-32"/>
     <use x="1948.632812" xlink:href="#DejaVuSans-49"/>
     <use x="2012.255859" xlink:href="#DejaVuSans-46"/>
     <use x="2044.042969" xlink:href="#DejaVuSans-48"/>
     <use x="2107.666016" xlink:href="#DejaVuSans-48"/>
    </g>
   </g>
   <g id="legend_1">
    <g id="patch_7">
     <path d="M 123.64 124.6005 
L 374.6275 124.6005 
Q 376.6275 124.6005 376.6275 122.6005 
L 376.6275 64.888 
Q 376.6275 62.888 374.6275 62.888 
L 123.64 62.888 
Q 121.64 62.888 121.64 64.888 
L 121.64 122.6005 
Q 121.64 124.6005 123.64 124.6005 
z
" style="fill:#ffffff;opacity:0.8;stroke:#cccccc;stroke-linejoin:miter;"/>
    </g>
    <g id="line2d_28">
     <path d="M 125.64 70.986438 
L 145.64 70.986438 
" style="fill:none;stroke:#1f77b4;stroke-linecap:square;stroke-width:1.5;"/>
    </g>
    <g id="line2d_29"/>
    <g id="text_25">
     <!-- Real Data  Infected -->
     <defs>
      <path d="M 4.890625 30.90625 
L 45.125 30.90625 
L 45.125 23.875 
L 4.890625 23.875 
z
" id="DejaVuSans-8211"/>
     </defs>
     <g transform="translate(153.64 74.486438)scale(0.1 -0.1)">
      <use xlink:href="#DejaVuSans-82"/>
      <use x="69.419922" xlink:href="#DejaVuSans-101"/>
      <use x="130.943359" xlink:href="#DejaVuSans-97"/>
      <use x="192.222656" xlink:href="#DejaVuSans-108"/>
      <use x="220.005859" xlink:href="#DejaVuSans-32"/>
      <use x="251.792969" xlink:href="#DejaVuSans-68"/>
      <use x="328.794922" xlink:href="#DejaVuSans-97"/>
      <use x="390.074219" xlink:href="#DejaVuSans-116"/>
      <use x="429.283203" xlink:href="#DejaVuSans-97"/>
      <use x="490.5625" xlink:href="#DejaVuSans-32"/>
      <use x="522.349609" xlink:href="#DejaVuSans-8211"/>
      <use x="572.349609" xlink:href="#DejaVuSans-32"/>
      <use x="604.136719" xlink:href="#DejaVuSans-73"/>
      <use x="633.628906" xlink:href="#DejaVuSans-110"/>
      <use x="697.007812" xlink:href="#DejaVuSans-102"/>
      <use x="732.212891" xlink:href="#DejaVuSans-101"/>
      <use x="793.736328" xlink:href="#DejaVuSans-99"/>
      <use x="848.716797" xlink:href="#DejaVuSans-116"/>
      <use x="887.925781" xlink:href="#DejaVuSans-101"/>
      <use x="949.449219" xlink:href="#DejaVuSans-100"/>
     </g>
    </g>
    <g id="line2d_30">
     <path d="M 125.64 85.664563 
L 145.64 85.664563 
" style="fill:none;stroke:#ff7f0e;stroke-linecap:square;stroke-width:1.5;"/>
    </g>
    <g id="line2d_31"/>
    <g id="text_26">
     <!-- Real Data  Removed (Recovered or Death) -->
     <defs>
      <path d="M 31 75.875 
Q 24.46875 64.65625 21.28125 53.65625 
Q 18.109375 42.671875 18.109375 31.390625 
Q 18.109375 20.125 21.3125 9.0625 
Q 24.515625 -2 31 -13.1875 
L 23.1875 -13.1875 
Q 15.875 -1.703125 12.234375 9.375 
Q 8.59375 20.453125 8.59375 31.390625 
Q 8.59375 42.28125 12.203125 53.3125 
Q 15.828125 64.359375 23.1875 75.875 
z
" id="DejaVuSans-40"/>
      <path d="M 8.015625 75.875 
L 15.828125 75.875 
Q 23.140625 64.359375 26.78125 53.3125 
Q 30.421875 42.28125 30.421875 31.390625 
Q 30.421875 20.453125 26.78125 9.375 
Q 23.140625 -1.703125 15.828125 -13.1875 
L 8.015625 -13.1875 
Q 14.5 -2 17.703125 9.0625 
Q 20.90625 20.125 20.90625 31.390625 
Q 20.90625 42.671875 17.703125 53.65625 
Q 14.5 64.65625 8.015625 75.875 
z
" id="DejaVuSans-41"/>
     </defs>
     <g transform="translate(153.64 89.164563)scale(0.1 -0.1)">
      <use xlink:href="#DejaVuSans-82"/>
      <use x="69.419922" xlink:href="#DejaVuSans-101"/>
      <use x="130.943359" xlink:href="#DejaVuSans-97"/>
      <use x="192.222656" xlink:href="#DejaVuSans-108"/>
      <use x="220.005859" xlink:href="#DejaVuSans-32"/>
      <use x="251.792969" xlink:href="#DejaVuSans-68"/>
      <use x="328.794922" xlink:href="#DejaVuSans-97"/>
      <use x="390.074219" xlink:href="#DejaVuSans-116"/>
      <use x="429.283203" xlink:href="#DejaVuSans-97"/>
      <use x="490.5625" xlink:href="#DejaVuSans-32"/>
      <use x="522.349609" xlink:href="#DejaVuSans-8211"/>
      <use x="572.349609" xlink:href="#DejaVuSans-32"/>
      <use x="604.136719" xlink:href="#DejaVuSans-82"/>
      <use x="673.556641" xlink:href="#DejaVuSans-101"/>
      <use x="735.080078" xlink:href="#DejaVuSans-109"/>
      <use x="832.492188" xlink:href="#DejaVuSans-111"/>
      <use x="893.673828" xlink:href="#DejaVuSans-118"/>
      <use x="952.853516" xlink:href="#DejaVuSans-101"/>
      <use x="1014.376953" xlink:href="#DejaVuSans-100"/>
      <use x="1077.853516" xlink:href="#DejaVuSans-32"/>
      <use x="1109.640625" xlink:href="#DejaVuSans-40"/>
      <use x="1148.654297" xlink:href="#DejaVuSans-82"/>
      <use x="1218.074219" xlink:href="#DejaVuSans-101"/>
      <use x="1279.597656" xlink:href="#DejaVuSans-99"/>
      <use x="1334.578125" xlink:href="#DejaVuSans-111"/>
      <use x="1395.759766" xlink:href="#DejaVuSans-118"/>
      <use x="1454.939453" xlink:href="#DejaVuSans-101"/>
      <use x="1516.462891" xlink:href="#DejaVuSans-114"/>
      <use x="1557.544922" xlink:href="#DejaVuSans-101"/>
      <use x="1619.068359" xlink:href="#DejaVuSans-100"/>
      <use x="1682.544922" xlink:href="#DejaVuSans-32"/>
      <use x="1714.332031" xlink:href="#DejaVuSans-111"/>
      <use x="1775.513672" xlink:href="#DejaVuSans-114"/>
      <use x="1816.626953" xlink:href="#DejaVuSans-32"/>
      <use x="1848.414062" xlink:href="#DejaVuSans-68"/>
      <use x="1925.416016" xlink:href="#DejaVuSans-101"/>
      <use x="1986.939453" xlink:href="#DejaVuSans-97"/>
      <use x="2048.21875" xlink:href="#DejaVuSans-116"/>
      <use x="2087.427734" xlink:href="#DejaVuSans-104"/>
      <use x="2150.806641" xlink:href="#DejaVuSans-41"/>
     </g>
    </g>
    <g id="line2d_32">
     <path d="M 125.64 100.342688 
L 145.64 100.342688 
" style="fill:none;stroke:#2ca02c;stroke-linecap:square;stroke-width:1.5;"/>
    </g>
    <g id="line2d_33"/>
    <g id="text_27">
     <!-- Model  Infected -->
     <defs>
      <path d="M 9.8125 72.90625 
L 24.515625 72.90625 
L 43.109375 23.296875 
L 61.8125 72.90625 
L 76.515625 72.90625 
L 76.515625 0 
L 66.890625 0 
L 66.890625 64.015625 
L 48.09375 14.015625 
L 38.1875 14.015625 
L 19.390625 64.015625 
L 19.390625 0 
L 9.8125 0 
z
" id="DejaVuSans-77"/>
     </defs>
     <g transform="translate(153.64 103.842688)scale(0.1 -0.1)">
      <use xlink:href="#DejaVuSans-77"/>
      <use x="86.279297" xlink:href="#DejaVuSans-111"/>
      <use x="147.460938" xlink:href="#DejaVuSans-100"/>
      <use x="210.9375" xlink:href="#DejaVuSans-101"/>
      <use x="272.460938" xlink:href="#DejaVuSans-108"/>
      <use x="300.244141" xlink:href="#DejaVuSans-32"/>
      <use x="332.03125" xlink:href="#DejaVuSans-8211"/>
      <use x="382.03125" xlink:href="#DejaVuSans-32"/>
      <use x="413.818359" xlink:href="#DejaVuSans-73"/>
      <use x="443.310547" xlink:href="#DejaVuSans-110"/>
      <use x="506.689453" xlink:href="#DejaVuSans-102"/>
      <use x="541.894531" xlink:href="#DejaVuSans-101"/>
      <use x="603.417969" xlink:href="#DejaVuSans-99"/>
      <use x="658.398438" xlink:href="#DejaVuSans-116"/>
      <use x="697.607422" xlink:href="#DejaVuSans-101"/>
      <use x="759.130859" xlink:href="#DejaVuSans-100"/>
     </g>
    </g>
    <g id="line2d_34">
     <path d="M 125.64 115.020813 
L 145.64 115.020813 
" style="fill:none;stroke:#d62728;stroke-linecap:square;stroke-width:1.5;"/>
    </g>
    <g id="line2d_35"/>
    <g id="text_28">
     <!-- Model  Removed (Recovered or Death) -->
     <g transform="translate(153.64 118.520813)scale(0.1 -0.1)">
      <use xlink:href="#DejaVuSans-77"/>
      <use x="86.279297" xlink:href="#DejaVuSans-111"/>
      <use x="147.460938" xlink:href="#DejaVuSans-100"/>
      <use x="210.9375" xlink:href="#DejaVuSans-101"/>
      <use x="272.460938" xlink:href="#DejaVuSans-108"/>
      <use x="300.244141" xlink:href="#DejaVuSans-32"/>
      <use x="332.03125" xlink:href="#DejaVuSans-8211"/>
      <use x="382.03125" xlink:href="#DejaVuSans-32"/>
      <use x="413.818359" xlink:href="#DejaVuSans-82"/>
      <use x="483.238281" xlink:href="#DejaVuSans-101"/>
      <use x="544.761719" xlink:href="#DejaVuSans-109"/>
      <use x="642.173828" xlink:href="#DejaVuSans-111"/>
      <use x="703.355469" xlink:href="#DejaVuSans-118"/>
      <use x="762.535156" xlink:href="#DejaVuSans-101"/>
      <use x="824.058594" xlink:href="#DejaVuSans-100"/>
      <use x="887.535156" xlink:href="#DejaVuSans-32"/>
      <use x="919.322266" xlink:href="#DejaVuSans-40"/>
      <use x="958.335938" xlink:href="#DejaVuSans-82"/>
      <use x="1027.755859" xlink:href="#DejaVuSans-101"/>
      <use x="1089.279297" xlink:href="#DejaVuSans-99"/>
      <use x="1144.259766" xlink:href="#DejaVuSans-111"/>
      <use x="1205.441406" xlink:href="#DejaVuSans-118"/>
      <use x="1264.621094" xlink:href="#DejaVuSans-101"/>
      <use x="1326.144531" xlink:href="#DejaVuSans-114"/>
      <use x="1367.226562" xlink:href="#DejaVuSans-101"/>
      <use x="1428.75" xlink:href="#DejaVuSans-100"/>
      <use x="1492.226562" xlink:href="#DejaVuSans-32"/>
      <use x="1524.013672" xlink:href="#DejaVuSans-111"/>
      <use x="1585.195312" xlink:href="#DejaVuSans-114"/>
      <use x="1626.308594" xlink:href="#DejaVuSans-32"/>
      <use x="1658.095703" xlink:href="#DejaVuSans-68"/>
      <use x="1735.097656" xlink:href="#DejaVuSans-101"/>
      <use x="1796.621094" xlink:href="#DejaVuSans-97"/>
      <use x="1857.900391" xlink:href="#DejaVuSans-116"/>
      <use x="1897.109375" xlink:href="#DejaVuSans-104"/>
      <use x="1960.488281" xlink:href="#DejaVuSans-41"/>
     </g>
    </g>
   </g>
  </g>
 </g>
 <defs>
  <clipPath id="p0f6389c563">
   <rect height="371.448" width="723.168" x="116.64" y="57.888"/>
  </clipPath>
 </defs>
</svg>
